G04 #@! TF.GenerationSoftware,KiCad,Pcbnew,7.0.2*
G04 #@! TF.CreationDate,2023-10-13T15:39:11+02:00*
G04 #@! TF.ProjectId,Module_3,4d6f6475-6c65-45f3-932e-6b696361645f,rev?*
G04 #@! TF.SameCoordinates,Original*
G04 #@! TF.FileFunction,Soldermask,Bot*
G04 #@! TF.FilePolarity,Negative*
%FSLAX46Y46*%
G04 Gerber Fmt 4.6, Leading zero omitted, Abs format (unit mm)*
G04 Created by KiCad (PCBNEW 7.0.2) date 2023-10-13 15:39:11*
%MOMM*%
%LPD*%
G01*
G04 APERTURE LIST*
G04 Aperture macros list*
%AMRoundRect*
0 Rectangle with rounded corners*
0 $1 Rounding radius*
0 $2 $3 $4 $5 $6 $7 $8 $9 X,Y pos of 4 corners*
0 Add a 4 corners polygon primitive as box body*
4,1,4,$2,$3,$4,$5,$6,$7,$8,$9,$2,$3,0*
0 Add four circle primitives for the rounded corners*
1,1,$1+$1,$2,$3*
1,1,$1+$1,$4,$5*
1,1,$1+$1,$6,$7*
1,1,$1+$1,$8,$9*
0 Add four rect primitives between the rounded corners*
20,1,$1+$1,$2,$3,$4,$5,0*
20,1,$1+$1,$4,$5,$6,$7,0*
20,1,$1+$1,$6,$7,$8,$9,0*
20,1,$1+$1,$8,$9,$2,$3,0*%
G04 Aperture macros list end*
%ADD10C,2.000000*%
%ADD11C,3.200000*%
%ADD12R,1.600000X1.600000*%
%ADD13C,1.600000*%
%ADD14C,2.400000*%
%ADD15C,3.000000*%
%ADD16O,1.600000X1.600000*%
%ADD17C,6.000000*%
%ADD18C,3.500000*%
%ADD19C,2.500000*%
%ADD20RoundRect,0.250000X0.600000X-0.600000X0.600000X0.600000X-0.600000X0.600000X-0.600000X-0.600000X0*%
%ADD21C,1.700000*%
%ADD22R,3.200000X3.200000*%
G04 APERTURE END LIST*
D10*
X140716000Y-111252000D03*
X145796000Y-111262000D03*
D11*
X83820000Y-49530000D03*
D12*
X187325000Y-110815000D03*
D13*
X187325000Y-107315000D03*
D14*
X127508000Y-114046000D03*
X105008000Y-114046000D03*
D15*
X114935000Y-135128000D03*
D10*
X155635000Y-55018000D03*
X163135000Y-55018000D03*
D12*
X183520000Y-92085000D03*
D16*
X180980000Y-92085000D03*
X180980000Y-99705000D03*
X183520000Y-99705000D03*
D15*
X122555000Y-135128000D03*
D14*
X196215000Y-57370000D03*
X196215000Y-84870000D03*
D17*
X214630000Y-79375000D03*
D11*
X182880000Y-72798000D03*
D17*
X214630000Y-61595000D03*
D11*
X83820000Y-137160000D03*
D15*
X90170000Y-57785000D03*
X90170000Y-65405000D03*
X90170000Y-73025000D03*
D18*
X143510000Y-71501000D03*
X134620000Y-73279000D03*
X116586000Y-73279000D03*
X107950000Y-71501000D03*
X116586000Y-50165000D03*
X107950000Y-51435000D03*
X143510000Y-51435000D03*
X134620000Y-50165000D03*
D14*
X90170000Y-104415000D03*
X90170000Y-81915000D03*
D11*
X219710000Y-137160000D03*
D10*
X163195000Y-89308000D03*
X155695000Y-89308000D03*
D12*
X213995000Y-110815000D03*
D13*
X213995000Y-107315000D03*
D19*
X173355000Y-95885000D03*
X168275000Y-95885000D03*
X158115000Y-123825000D03*
X168275000Y-123825000D03*
D18*
X143510000Y-102616000D03*
X134620000Y-104394000D03*
X116586000Y-104394000D03*
X107950000Y-102616000D03*
X116586000Y-81280000D03*
X107950000Y-82550000D03*
X143510000Y-82550000D03*
X134620000Y-81280000D03*
D11*
X219710000Y-49530000D03*
D14*
X159385000Y-83868000D03*
X159385000Y-61368000D03*
D15*
X97790000Y-127000000D03*
X97790000Y-134620000D03*
D20*
X187960000Y-134620000D03*
D21*
X187960000Y-132080000D03*
X190500000Y-134620000D03*
X190500000Y-132080000D03*
X193040000Y-134620000D03*
X193040000Y-132080000D03*
X195580000Y-134620000D03*
X195580000Y-132080000D03*
X198120000Y-134620000D03*
X198120000Y-132080000D03*
D22*
X168275000Y-80645000D03*
D11*
X168275000Y-75565000D03*
X168275000Y-70485000D03*
X168275000Y-65405000D03*
M02*
