M48
; DRILL file {KiCad 7.0.2} date Fri Oct 13 15:39:24 2023
; FORMAT={-:-/ absolute / metric / decimal}
; #@! TF.CreationDate,2023-10-13T15:39:24+02:00
; #@! TF.GenerationSoftware,Kicad,Pcbnew,7.0.2
; #@! TF.FileFunction,Plated,1,2,PTH
FMAT,2
METRIC
; #@! TA.AperFunction,Plated,PTH,ViaDrill
T1C0.500
; #@! TA.AperFunction,Plated,PTH,ComponentDrill
T2C0.800
; #@! TA.AperFunction,Plated,PTH,ComponentDrill
T3C1.000
; #@! TA.AperFunction,Plated,PTH,ComponentDrill
T4C1.200
; #@! TA.AperFunction,Plated,PTH,ComponentDrill
T5C1.600
; #@! TA.AperFunction,Plated,PTH,ComponentDrill
T6C1.800
; #@! TA.AperFunction,Plated,PTH,ComponentDrill
T7C2.000
; #@! TA.AperFunction,Plated,PTH,ComponentDrill
T8C3.000
%
G90
G05
T1
X172.72Y-124.46
X176.53Y-124.46
X180.34Y-104.14
X180.34Y-109.22
X180.34Y-114.3
X180.34Y-119.38
X180.34Y-124.46
X184.658Y-125.984
X185.42Y-134.62
X187.96Y-104.14
X187.96Y-116.84
X187.96Y-121.92
X190.5Y-127.0
X193.04Y-101.6
X193.04Y-106.68
X193.04Y-111.76
X200.66Y-127.0
X205.74Y-114.3
X208.28Y-104.14
X208.28Y-109.22
X208.28Y-132.08
X208.28Y-137.16
X210.82Y-101.6
X210.82Y-114.3
X210.82Y-121.92
X210.82Y-127.0
X213.36Y-132.08
X213.36Y-137.16
X215.9Y-101.6
X218.44Y-114.3
X220.98Y-101.6
X220.98Y-132.08
T2
X180.98Y-92.085
X180.98Y-99.705
X183.52Y-92.085
X183.52Y-99.705
X187.325Y-107.315
X187.325Y-110.815
X213.995Y-107.315
X213.995Y-110.815
T3
X140.716Y-111.252
X145.796Y-111.262
X155.635Y-55.018
X155.695Y-89.308
X158.115Y-123.825
X163.135Y-55.018
X163.195Y-89.308
X168.275Y-95.885
X168.275Y-123.825
X173.355Y-95.885
X187.96Y-132.08
X187.96Y-134.62
X190.5Y-132.08
X190.5Y-134.62
X193.04Y-132.08
X193.04Y-134.62
X195.58Y-132.08
X195.58Y-134.62
X198.12Y-132.08
X198.12Y-134.62
T4
X90.17Y-81.915
X90.17Y-104.415
X105.008Y-114.046
X127.508Y-114.046
X159.385Y-61.368
X159.385Y-83.868
X196.215Y-57.37
X196.215Y-84.87
T5
X114.935Y-135.128
X122.555Y-135.128
X168.275Y-65.405
X168.275Y-70.485
X168.275Y-75.565
X168.275Y-80.645
T6
X90.17Y-57.785
X90.17Y-65.405
X90.17Y-73.025
X97.79Y-127.0
X97.79Y-134.62
T7
X107.95Y-51.435
X107.95Y-71.501
X107.95Y-82.55
X107.95Y-102.616
X116.586Y-50.165
X116.586Y-73.279
X116.586Y-81.28
X116.586Y-104.394
X134.62Y-50.165
X134.62Y-73.279
X134.62Y-81.28
X134.62Y-104.394
X143.51Y-51.435
X143.51Y-71.501
X143.51Y-82.55
X143.51Y-102.616
T8
X214.63Y-61.595
X214.63Y-79.375
T0
M30
