G04 #@! TF.GenerationSoftware,KiCad,Pcbnew,7.0.2*
G04 #@! TF.CreationDate,2023-10-13T15:39:11+02:00*
G04 #@! TF.ProjectId,Module_3,4d6f6475-6c65-45f3-932e-6b696361645f,rev?*
G04 #@! TF.SameCoordinates,Original*
G04 #@! TF.FileFunction,Copper,L2,Bot*
G04 #@! TF.FilePolarity,Positive*
%FSLAX46Y46*%
G04 Gerber Fmt 4.6, Leading zero omitted, Abs format (unit mm)*
G04 Created by KiCad (PCBNEW 7.0.2) date 2023-10-13 15:39:11*
%MOMM*%
%LPD*%
G01*
G04 APERTURE LIST*
G04 Aperture macros list*
%AMRoundRect*
0 Rectangle with rounded corners*
0 $1 Rounding radius*
0 $2 $3 $4 $5 $6 $7 $8 $9 X,Y pos of 4 corners*
0 Add a 4 corners polygon primitive as box body*
4,1,4,$2,$3,$4,$5,$6,$7,$8,$9,$2,$3,0*
0 Add four circle primitives for the rounded corners*
1,1,$1+$1,$2,$3*
1,1,$1+$1,$4,$5*
1,1,$1+$1,$6,$7*
1,1,$1+$1,$8,$9*
0 Add four rect primitives between the rounded corners*
20,1,$1+$1,$2,$3,$4,$5,0*
20,1,$1+$1,$4,$5,$6,$7,0*
20,1,$1+$1,$6,$7,$8,$9,0*
20,1,$1+$1,$8,$9,$2,$3,0*%
G04 Aperture macros list end*
G04 #@! TA.AperFunction,ComponentPad*
%ADD10C,2.000000*%
G04 #@! TD*
G04 #@! TA.AperFunction,ComponentPad*
%ADD11R,1.600000X1.600000*%
G04 #@! TD*
G04 #@! TA.AperFunction,ComponentPad*
%ADD12C,1.600000*%
G04 #@! TD*
G04 #@! TA.AperFunction,ComponentPad*
%ADD13C,2.400000*%
G04 #@! TD*
G04 #@! TA.AperFunction,ComponentPad*
%ADD14C,3.000000*%
G04 #@! TD*
G04 #@! TA.AperFunction,ComponentPad*
%ADD15O,1.600000X1.600000*%
G04 #@! TD*
G04 #@! TA.AperFunction,ComponentPad*
%ADD16C,6.000000*%
G04 #@! TD*
G04 #@! TA.AperFunction,ComponentPad*
%ADD17C,3.500000*%
G04 #@! TD*
G04 #@! TA.AperFunction,ComponentPad*
%ADD18C,2.500000*%
G04 #@! TD*
G04 #@! TA.AperFunction,ComponentPad*
%ADD19RoundRect,0.250000X0.600000X-0.600000X0.600000X0.600000X-0.600000X0.600000X-0.600000X-0.600000X0*%
G04 #@! TD*
G04 #@! TA.AperFunction,ComponentPad*
%ADD20C,1.700000*%
G04 #@! TD*
G04 #@! TA.AperFunction,ComponentPad*
%ADD21R,3.200000X3.200000*%
G04 #@! TD*
G04 #@! TA.AperFunction,ComponentPad*
%ADD22C,3.200000*%
G04 #@! TD*
G04 #@! TA.AperFunction,ViaPad*
%ADD23C,1.200000*%
G04 #@! TD*
G04 #@! TA.AperFunction,Conductor*
%ADD24C,2.000000*%
G04 #@! TD*
G04 #@! TA.AperFunction,Conductor*
%ADD25C,3.000000*%
G04 #@! TD*
G04 #@! TA.AperFunction,Conductor*
%ADD26C,1.000000*%
G04 #@! TD*
G04 APERTURE END LIST*
D10*
X140716000Y-111252000D03*
X145796000Y-111262000D03*
D11*
X187325000Y-110815000D03*
D12*
X187325000Y-107315000D03*
D13*
X127508000Y-114046000D03*
X105008000Y-114046000D03*
D14*
X114935000Y-135128000D03*
D10*
X155635000Y-55018000D03*
X163135000Y-55018000D03*
D11*
X183520000Y-92085000D03*
D15*
X180980000Y-92085000D03*
X180980000Y-99705000D03*
X183520000Y-99705000D03*
D14*
X122555000Y-135128000D03*
D13*
X196215000Y-57370000D03*
X196215000Y-84870000D03*
D16*
X214630000Y-79375000D03*
X214630000Y-61595000D03*
D14*
X90170000Y-57785000D03*
X90170000Y-65405000D03*
X90170000Y-73025000D03*
D17*
X143510000Y-71501000D03*
X134620000Y-73279000D03*
X116586000Y-73279000D03*
X107950000Y-71501000D03*
X116586000Y-50165000D03*
X107950000Y-51435000D03*
X143510000Y-51435000D03*
X134620000Y-50165000D03*
D13*
X90170000Y-104415000D03*
X90170000Y-81915000D03*
D10*
X163195000Y-89308000D03*
X155695000Y-89308000D03*
D11*
X213995000Y-110815000D03*
D12*
X213995000Y-107315000D03*
D18*
X173355000Y-95885000D03*
X168275000Y-95885000D03*
X158115000Y-123825000D03*
X168275000Y-123825000D03*
D17*
X143510000Y-102616000D03*
X134620000Y-104394000D03*
X116586000Y-104394000D03*
X107950000Y-102616000D03*
X116586000Y-81280000D03*
X107950000Y-82550000D03*
X143510000Y-82550000D03*
X134620000Y-81280000D03*
D13*
X159385000Y-83868000D03*
X159385000Y-61368000D03*
D14*
X97790000Y-127000000D03*
X97790000Y-134620000D03*
D19*
X187960000Y-134620000D03*
D20*
X187960000Y-132080000D03*
X190500000Y-134620000D03*
X190500000Y-132080000D03*
X193040000Y-134620000D03*
X193040000Y-132080000D03*
X195580000Y-134620000D03*
X195580000Y-132080000D03*
X198120000Y-134620000D03*
X198120000Y-132080000D03*
D21*
X168275000Y-80645000D03*
D22*
X168275000Y-75565000D03*
X168275000Y-70485000D03*
X168275000Y-65405000D03*
D23*
X184658000Y-125984000D03*
X172720000Y-124460000D03*
X200660000Y-127000000D03*
X180340000Y-109220000D03*
X208280000Y-104140000D03*
X205740000Y-114300000D03*
X180340000Y-124460000D03*
X213360000Y-132080000D03*
X208280000Y-137160000D03*
X185420000Y-134620000D03*
X180340000Y-114300000D03*
X208280000Y-109220000D03*
X210820000Y-114300000D03*
X180340000Y-119380000D03*
X213360000Y-137160000D03*
X218440000Y-114300000D03*
X208280000Y-132080000D03*
X187960000Y-104140000D03*
X176530000Y-124460000D03*
X220980000Y-132080000D03*
X210820000Y-121920000D03*
X187960000Y-116840000D03*
X210820000Y-101600000D03*
X180340000Y-104140000D03*
X193040000Y-111760000D03*
X193040000Y-101600000D03*
X193040000Y-106680000D03*
X210820000Y-127000000D03*
X215900000Y-101600000D03*
X220980000Y-101600000D03*
X190500000Y-127000000D03*
X187960000Y-121920000D03*
D24*
X159385000Y-100965000D02*
X149088000Y-111262000D01*
X149088000Y-111262000D02*
X145796000Y-111262000D01*
X173355000Y-96901000D02*
X169291000Y-100965000D01*
X173355000Y-95885000D02*
X173355000Y-96901000D01*
X169291000Y-100965000D02*
X159385000Y-100965000D01*
D25*
X127508000Y-107950000D02*
X127508000Y-114046000D01*
X134620000Y-104394000D02*
X131064000Y-104394000D01*
X131064000Y-104394000D02*
X127508000Y-107950000D01*
X90170000Y-65405000D02*
X95250000Y-65405000D01*
X98425000Y-68580000D02*
X98425000Y-88900000D01*
X104140000Y-94615000D02*
X124841000Y-94615000D01*
X98425000Y-88900000D02*
X104140000Y-94615000D01*
X130048000Y-99822000D02*
X134620000Y-104394000D01*
X141732000Y-104394000D02*
X143510000Y-102616000D01*
X95250000Y-65405000D02*
X98425000Y-68580000D01*
X134620000Y-104394000D02*
X141732000Y-104394000D01*
X124841000Y-94615000D02*
X130048000Y-99822000D01*
D24*
X158115000Y-126111000D02*
X159512000Y-127508000D01*
X159512000Y-127508000D02*
X183134000Y-127508000D01*
X183134000Y-127508000D02*
X184658000Y-125984000D01*
X158115000Y-123825000D02*
X158115000Y-126111000D01*
D26*
X180848000Y-132842000D02*
X184404000Y-129286000D01*
X106553000Y-138938000D02*
X178909968Y-138938000D01*
X104775000Y-128270000D02*
X104775000Y-137160000D01*
X180848000Y-136999968D02*
X180848000Y-132842000D01*
X194056000Y-129286000D02*
X195580000Y-130810000D01*
X178909968Y-138938000D02*
X180848000Y-136999968D01*
X104775000Y-137160000D02*
X106553000Y-138938000D01*
X195580000Y-130810000D02*
X195580000Y-132080000D01*
X103441500Y-126936500D02*
X104775000Y-128270000D01*
X184404000Y-129286000D02*
X194056000Y-129286000D01*
X97790000Y-127000000D02*
X97853500Y-126936500D01*
X97853500Y-126936500D02*
X103441500Y-126936500D01*
X198120000Y-130556000D02*
X198120000Y-132080000D01*
X194056000Y-126492000D02*
X198120000Y-130556000D01*
X186827000Y-99705000D02*
X190754000Y-103632000D01*
X190754000Y-103632000D02*
X190754000Y-116078000D01*
X194056000Y-119380000D02*
X194056000Y-126492000D01*
X190754000Y-116078000D02*
X194056000Y-119380000D01*
X183520000Y-99705000D02*
X186827000Y-99705000D01*
D25*
X168275000Y-80645000D02*
X172720000Y-85090000D01*
X208947000Y-85058000D02*
X214630000Y-79375000D01*
X203803000Y-85090000D02*
X203835000Y-85058000D01*
X203835000Y-85058000D02*
X208947000Y-85058000D01*
X172720000Y-85090000D02*
X203803000Y-85090000D01*
X210593000Y-57558000D02*
X214630000Y-61595000D01*
X168275000Y-65405000D02*
X176122000Y-57558000D01*
X176122000Y-57558000D02*
X210593000Y-57558000D01*
D24*
X116586000Y-81280000D02*
X123190000Y-81280000D01*
X137160000Y-95250000D02*
X167640000Y-95250000D01*
X167640000Y-95250000D02*
X168275000Y-95885000D01*
X123190000Y-81280000D02*
X137160000Y-95250000D01*
X163195000Y-89308000D02*
X163195000Y-87678000D01*
D25*
X109220000Y-50165000D02*
X116586000Y-50165000D01*
X118110000Y-50165000D02*
X129540000Y-61595000D01*
X129540000Y-61595000D02*
X146050000Y-61595000D01*
X163195000Y-78105000D02*
X165735000Y-75565000D01*
X165735000Y-75565000D02*
X168275000Y-75565000D01*
X107950000Y-51435000D02*
X109220000Y-50165000D01*
X159385000Y-81915000D02*
X162242500Y-79057500D01*
X116586000Y-50165000D02*
X118110000Y-50165000D01*
X162242500Y-79057500D02*
X163195000Y-78105000D01*
X162242500Y-77787500D02*
X162242500Y-79057500D01*
X146050000Y-61595000D02*
X162242500Y-77787500D01*
X159385000Y-83868000D02*
X159385000Y-81915000D01*
D24*
X163195000Y-87678000D02*
X159385000Y-83868000D01*
D25*
X163195000Y-52070000D02*
X163135000Y-52130000D01*
X159385000Y-61368000D02*
X159385000Y-64135000D01*
X165735000Y-70485000D02*
X168275000Y-70485000D01*
X144780000Y-50165000D02*
X161290000Y-50165000D01*
X159385000Y-64135000D02*
X165735000Y-70485000D01*
X163135000Y-55018000D02*
X163135000Y-57618000D01*
X163135000Y-52130000D02*
X163135000Y-55018000D01*
X161290000Y-50165000D02*
X163195000Y-52070000D01*
X163135000Y-57618000D02*
X159385000Y-61368000D01*
X143510000Y-51435000D02*
X144780000Y-50165000D01*
X134620000Y-50165000D02*
X144780000Y-50165000D01*
G04 #@! TA.AperFunction,Conductor*
G36*
X221558039Y-99079685D02*
G01*
X221603794Y-99132489D01*
X221615000Y-99184000D01*
X221615000Y-132591000D01*
X221595315Y-132658039D01*
X221542511Y-132703794D01*
X221491000Y-132715000D01*
X215265000Y-132715000D01*
X215265000Y-139576000D01*
X215245315Y-139643039D01*
X215192511Y-139688794D01*
X215141000Y-139700000D01*
X179862250Y-139700000D01*
X179795211Y-139680315D01*
X179749456Y-139627511D01*
X179739512Y-139558353D01*
X179768537Y-139494797D01*
X179774569Y-139488319D01*
X180072817Y-139190071D01*
X181545390Y-137717496D01*
X181547560Y-137715380D01*
X181611053Y-137655027D01*
X181644759Y-137606598D01*
X181650428Y-137599081D01*
X181687698Y-137553375D01*
X181701783Y-137526407D01*
X181709918Y-137512983D01*
X181721030Y-137497018D01*
X181727295Y-137488017D01*
X181750568Y-137433783D01*
X181754588Y-137425318D01*
X181781909Y-137373017D01*
X181790275Y-137343776D01*
X181795539Y-137328987D01*
X181807540Y-137301026D01*
X181819417Y-137243224D01*
X181821652Y-137234116D01*
X181837886Y-137177386D01*
X181840196Y-137147046D01*
X181842376Y-137131508D01*
X181848500Y-137101710D01*
X181848500Y-137042722D01*
X181848858Y-137033307D01*
X181853337Y-136974492D01*
X181849493Y-136944307D01*
X181848500Y-136928644D01*
X181848500Y-133307782D01*
X181868185Y-133240743D01*
X181884814Y-133220106D01*
X184782101Y-130322819D01*
X184843425Y-130289334D01*
X184869783Y-130286500D01*
X193590217Y-130286500D01*
X193657256Y-130306185D01*
X193677898Y-130322819D01*
X194477063Y-131121984D01*
X194510548Y-131183307D01*
X194505564Y-131252999D01*
X194490957Y-131280788D01*
X194411574Y-131394159D01*
X194356997Y-131437784D01*
X194287499Y-131444978D01*
X194225144Y-131413455D01*
X194208429Y-131394164D01*
X194078495Y-131208599D01*
X193911401Y-131041505D01*
X193717830Y-130905965D01*
X193503663Y-130806097D01*
X193442502Y-130789709D01*
X193275407Y-130744936D01*
X193039999Y-130724340D01*
X192804592Y-130744936D01*
X192576336Y-130806097D01*
X192362170Y-130905965D01*
X192168598Y-131041505D01*
X192001505Y-131208598D01*
X191871575Y-131394159D01*
X191816998Y-131437784D01*
X191747500Y-131444978D01*
X191685145Y-131413455D01*
X191668425Y-131394159D01*
X191538494Y-131208598D01*
X191371404Y-131041508D01*
X191371404Y-131041507D01*
X191371401Y-131041505D01*
X191177830Y-130905965D01*
X190963663Y-130806097D01*
X190902501Y-130789709D01*
X190735407Y-130744936D01*
X190500000Y-130724340D01*
X190264592Y-130744936D01*
X190036336Y-130806097D01*
X189822170Y-130905965D01*
X189628598Y-131041505D01*
X189461505Y-131208598D01*
X189331575Y-131394159D01*
X189276998Y-131437784D01*
X189207500Y-131444978D01*
X189145145Y-131413455D01*
X189128425Y-131394159D01*
X188998494Y-131208598D01*
X188831404Y-131041508D01*
X188831404Y-131041507D01*
X188831401Y-131041505D01*
X188637830Y-130905965D01*
X188423663Y-130806097D01*
X188362502Y-130789709D01*
X188195407Y-130744936D01*
X187959999Y-130724340D01*
X187724592Y-130744936D01*
X187496336Y-130806097D01*
X187282170Y-130905965D01*
X187088598Y-131041505D01*
X186921505Y-131208598D01*
X186785965Y-131402170D01*
X186686097Y-131616336D01*
X186624936Y-131844592D01*
X186604340Y-132079999D01*
X186624936Y-132315407D01*
X186652070Y-132416671D01*
X186686097Y-132543663D01*
X186785965Y-132757830D01*
X186921505Y-132951401D01*
X186921508Y-132951404D01*
X187096270Y-133126166D01*
X187093559Y-133128876D01*
X187124646Y-133167789D01*
X187131820Y-133237289D01*
X187100281Y-133299635D01*
X187048892Y-133332460D01*
X187040666Y-133335185D01*
X186891342Y-133427288D01*
X186767288Y-133551342D01*
X186675186Y-133700665D01*
X186620000Y-133867202D01*
X186609819Y-133966858D01*
X186609817Y-133966878D01*
X186609500Y-133969991D01*
X186609500Y-133973138D01*
X186609500Y-133973139D01*
X186609500Y-135266859D01*
X186609500Y-135266878D01*
X186609501Y-135270008D01*
X186609820Y-135273140D01*
X186609821Y-135273141D01*
X186620000Y-135372796D01*
X186675186Y-135539334D01*
X186767288Y-135688657D01*
X186891342Y-135812711D01*
X186891344Y-135812712D01*
X187040666Y-135904814D01*
X187152017Y-135941712D01*
X187207202Y-135959999D01*
X187306858Y-135970180D01*
X187306859Y-135970180D01*
X187309991Y-135970500D01*
X188610008Y-135970499D01*
X188712797Y-135959999D01*
X188879334Y-135904814D01*
X189028656Y-135812712D01*
X189152712Y-135688656D01*
X189244814Y-135539334D01*
X189268794Y-135466965D01*
X189308565Y-135409523D01*
X189373081Y-135382699D01*
X189383861Y-135382585D01*
X190016923Y-134749523D01*
X190040507Y-134829844D01*
X190118239Y-134950798D01*
X190226900Y-135044952D01*
X190357685Y-135104680D01*
X190367466Y-135106086D01*
X189738625Y-135734925D01*
X189822420Y-135793599D01*
X190036507Y-135893430D01*
X190264681Y-135954569D01*
X190499999Y-135975157D01*
X190735318Y-135954569D01*
X190963492Y-135893430D01*
X191177576Y-135793600D01*
X191261373Y-135734925D01*
X190632533Y-135106086D01*
X190642315Y-135104680D01*
X190773100Y-135044952D01*
X190881761Y-134950798D01*
X190959493Y-134829844D01*
X190983076Y-134749524D01*
X191614925Y-135381373D01*
X191668424Y-135304969D01*
X191723001Y-135261344D01*
X191792499Y-135254150D01*
X191854854Y-135285673D01*
X191871574Y-135304969D01*
X191925072Y-135381373D01*
X191925073Y-135381373D01*
X192556923Y-134749523D01*
X192580507Y-134829844D01*
X192658239Y-134950798D01*
X192766900Y-135044952D01*
X192897685Y-135104680D01*
X192907466Y-135106086D01*
X192278625Y-135734925D01*
X192362420Y-135793599D01*
X192576507Y-135893430D01*
X192804681Y-135954569D01*
X193040000Y-135975157D01*
X193275318Y-135954569D01*
X193503492Y-135893430D01*
X193717576Y-135793600D01*
X193801373Y-135734925D01*
X193172533Y-135106086D01*
X193182315Y-135104680D01*
X193313100Y-135044952D01*
X193421761Y-134950798D01*
X193499493Y-134829844D01*
X193523077Y-134749523D01*
X194154925Y-135381372D01*
X194208424Y-135304969D01*
X194263001Y-135261344D01*
X194332499Y-135254150D01*
X194394854Y-135285673D01*
X194411574Y-135304969D01*
X194465072Y-135381373D01*
X194465073Y-135381373D01*
X195096923Y-134749523D01*
X195120507Y-134829844D01*
X195198239Y-134950798D01*
X195306900Y-135044952D01*
X195437685Y-135104680D01*
X195447466Y-135106086D01*
X194818625Y-135734925D01*
X194902420Y-135793599D01*
X195116507Y-135893430D01*
X195344681Y-135954569D01*
X195579999Y-135975157D01*
X195815318Y-135954569D01*
X196043492Y-135893430D01*
X196257576Y-135793600D01*
X196341373Y-135734925D01*
X195712533Y-135106086D01*
X195722315Y-135104680D01*
X195853100Y-135044952D01*
X195961761Y-134950798D01*
X196039493Y-134829844D01*
X196063076Y-134749524D01*
X196694925Y-135381373D01*
X196748424Y-135304969D01*
X196803001Y-135261344D01*
X196872499Y-135254150D01*
X196934854Y-135285673D01*
X196951574Y-135304969D01*
X197005072Y-135381373D01*
X197005073Y-135381373D01*
X197636923Y-134749523D01*
X197660507Y-134829844D01*
X197738239Y-134950798D01*
X197846900Y-135044952D01*
X197977685Y-135104680D01*
X197987466Y-135106086D01*
X197358625Y-135734925D01*
X197442420Y-135793599D01*
X197656507Y-135893430D01*
X197884681Y-135954569D01*
X198120000Y-135975157D01*
X198355318Y-135954569D01*
X198583492Y-135893430D01*
X198797576Y-135793600D01*
X198881373Y-135734925D01*
X198252533Y-135106086D01*
X198262315Y-135104680D01*
X198393100Y-135044952D01*
X198501761Y-134950798D01*
X198579493Y-134829844D01*
X198603076Y-134749524D01*
X199234925Y-135381373D01*
X199293600Y-135297576D01*
X199393430Y-135083492D01*
X199454569Y-134855318D01*
X199475157Y-134619999D01*
X199454569Y-134384681D01*
X199393430Y-134156507D01*
X199293599Y-133942421D01*
X199234926Y-133858626D01*
X199234925Y-133858625D01*
X198603076Y-134490475D01*
X198579493Y-134410156D01*
X198501761Y-134289202D01*
X198393100Y-134195048D01*
X198262315Y-134135320D01*
X198252533Y-134133913D01*
X198881373Y-133505073D01*
X198881373Y-133505072D01*
X198805405Y-133451880D01*
X198761780Y-133397304D01*
X198754586Y-133327805D01*
X198786108Y-133265451D01*
X198805399Y-133248734D01*
X198991401Y-133118495D01*
X199158495Y-132951401D01*
X199294035Y-132757830D01*
X199393903Y-132543663D01*
X199455063Y-132315408D01*
X199475659Y-132080000D01*
X199455063Y-131844592D01*
X199393903Y-131616337D01*
X199294035Y-131402171D01*
X199158495Y-131208599D01*
X199156818Y-131206922D01*
X199155040Y-131203665D01*
X199152272Y-131199712D01*
X199152712Y-131199403D01*
X199123334Y-131145600D01*
X199120500Y-131119242D01*
X199120500Y-130570277D01*
X199120540Y-130567135D01*
X199122757Y-130479638D01*
X199112350Y-130421574D01*
X199111041Y-130412242D01*
X199105074Y-130353562D01*
X199095962Y-130324520D01*
X199092226Y-130309297D01*
X199086858Y-130279347D01*
X199064976Y-130224566D01*
X199061816Y-130215689D01*
X199044159Y-130159412D01*
X199029395Y-130132812D01*
X199022660Y-130118631D01*
X199011377Y-130090383D01*
X198978917Y-130041131D01*
X198974036Y-130033074D01*
X198945409Y-129981498D01*
X198925582Y-129958403D01*
X198916146Y-129945888D01*
X198899402Y-129920481D01*
X198899400Y-129920479D01*
X198899399Y-129920477D01*
X198857693Y-129878772D01*
X198851287Y-129871860D01*
X198812864Y-129827102D01*
X198788804Y-129808478D01*
X198777026Y-129798105D01*
X195092819Y-126113898D01*
X195059334Y-126052575D01*
X195056500Y-126026217D01*
X195056500Y-119394238D01*
X195056540Y-119391096D01*
X195058756Y-119303638D01*
X195048351Y-119245585D01*
X195047042Y-119236253D01*
X195041074Y-119177562D01*
X195031967Y-119148537D01*
X195028223Y-119133286D01*
X195022857Y-119103343D01*
X195000976Y-119048565D01*
X194997816Y-119039689D01*
X194995056Y-119030892D01*
X194980159Y-118983412D01*
X194965395Y-118956812D01*
X194958660Y-118942631D01*
X194947377Y-118914383D01*
X194914917Y-118865131D01*
X194910036Y-118857074D01*
X194881409Y-118805498D01*
X194861582Y-118782403D01*
X194852146Y-118769888D01*
X194835402Y-118744481D01*
X194835400Y-118744479D01*
X194835399Y-118744477D01*
X194793693Y-118702772D01*
X194787287Y-118695860D01*
X194748864Y-118651102D01*
X194724804Y-118632478D01*
X194713026Y-118622105D01*
X191790819Y-115699898D01*
X191757334Y-115638575D01*
X191754500Y-115612217D01*
X191754500Y-111659578D01*
X212694500Y-111659578D01*
X212694501Y-111662872D01*
X212700909Y-111722483D01*
X212751204Y-111857331D01*
X212837454Y-111972546D01*
X212952669Y-112058796D01*
X213087517Y-112109091D01*
X213147127Y-112115500D01*
X214842872Y-112115499D01*
X214902483Y-112109091D01*
X215037331Y-112058796D01*
X215152546Y-111972546D01*
X215238796Y-111857331D01*
X215289091Y-111722483D01*
X215295500Y-111662873D01*
X215295499Y-109967128D01*
X215289091Y-109907517D01*
X215238796Y-109772669D01*
X215152546Y-109657454D01*
X215037331Y-109571204D01*
X214902483Y-109520909D01*
X214842873Y-109514500D01*
X214839550Y-109514500D01*
X213150439Y-109514500D01*
X213150420Y-109514500D01*
X213147128Y-109514501D01*
X213143848Y-109514853D01*
X213143840Y-109514854D01*
X213087515Y-109520909D01*
X212952669Y-109571204D01*
X212837454Y-109657454D01*
X212751204Y-109772668D01*
X212700910Y-109907515D01*
X212700909Y-109907517D01*
X212694500Y-109967127D01*
X212694500Y-109970448D01*
X212694500Y-109970449D01*
X212694500Y-111659560D01*
X212694500Y-111659578D01*
X191754500Y-111659578D01*
X191754500Y-107314999D01*
X212690033Y-107314999D01*
X212709858Y-107541602D01*
X212768733Y-107761326D01*
X212864866Y-107967484D01*
X212915972Y-108040471D01*
X212915974Y-108040472D01*
X213597046Y-107359399D01*
X213609835Y-107440148D01*
X213667359Y-107553045D01*
X213756955Y-107642641D01*
X213869852Y-107700165D01*
X213950599Y-107712953D01*
X213269526Y-108394025D01*
X213269526Y-108394026D01*
X213342515Y-108445133D01*
X213548673Y-108541266D01*
X213768397Y-108600141D01*
X213994999Y-108619966D01*
X214221602Y-108600141D01*
X214441326Y-108541266D01*
X214647480Y-108445134D01*
X214720472Y-108394025D01*
X214039401Y-107712953D01*
X214120148Y-107700165D01*
X214233045Y-107642641D01*
X214322641Y-107553045D01*
X214380165Y-107440148D01*
X214392953Y-107359400D01*
X215074025Y-108040472D01*
X215125134Y-107967480D01*
X215221266Y-107761326D01*
X215280141Y-107541602D01*
X215299966Y-107315000D01*
X215280141Y-107088397D01*
X215221266Y-106868673D01*
X215125133Y-106662515D01*
X215074025Y-106589526D01*
X214392953Y-107270598D01*
X214380165Y-107189852D01*
X214322641Y-107076955D01*
X214233045Y-106987359D01*
X214120148Y-106929835D01*
X214039400Y-106917046D01*
X214720472Y-106235974D01*
X214720471Y-106235972D01*
X214647484Y-106184866D01*
X214441326Y-106088733D01*
X214221602Y-106029858D01*
X213994999Y-106010033D01*
X213768397Y-106029858D01*
X213548672Y-106088733D01*
X213342516Y-106184865D01*
X213269527Y-106235973D01*
X213269526Y-106235973D01*
X213950600Y-106917046D01*
X213869852Y-106929835D01*
X213756955Y-106987359D01*
X213667359Y-107076955D01*
X213609835Y-107189852D01*
X213597046Y-107270599D01*
X212915973Y-106589526D01*
X212915973Y-106589527D01*
X212864865Y-106662516D01*
X212768733Y-106868672D01*
X212709858Y-107088397D01*
X212690033Y-107314999D01*
X191754500Y-107314999D01*
X191754500Y-103646277D01*
X191754540Y-103643135D01*
X191756757Y-103555640D01*
X191756756Y-103555639D01*
X191756757Y-103555637D01*
X191746344Y-103497545D01*
X191745042Y-103488260D01*
X191739074Y-103429562D01*
X191729962Y-103400524D01*
X191726224Y-103385291D01*
X191720858Y-103355348D01*
X191698975Y-103300563D01*
X191695815Y-103291686D01*
X191678159Y-103235412D01*
X191663398Y-103208817D01*
X191656663Y-103194636D01*
X191645378Y-103166384D01*
X191645378Y-103166383D01*
X191612901Y-103117106D01*
X191608040Y-103109082D01*
X191579409Y-103057498D01*
X191579408Y-103057496D01*
X191559593Y-103034415D01*
X191550144Y-103021883D01*
X191533402Y-102996481D01*
X191491699Y-102954779D01*
X191485292Y-102947866D01*
X191446865Y-102903103D01*
X191422802Y-102884477D01*
X191411022Y-102874102D01*
X187808601Y-99271681D01*
X187775116Y-99210358D01*
X187780100Y-99140666D01*
X187821972Y-99084733D01*
X187887436Y-99060316D01*
X187896282Y-99060000D01*
X221491000Y-99060000D01*
X221558039Y-99079685D01*
G37*
G04 #@! TD.AperFunction*
G04 #@! TA.AperFunction,Conductor*
G36*
X191854855Y-132746545D02*
G01*
X191871571Y-132765837D01*
X192001505Y-132951401D01*
X192168599Y-133118495D01*
X192354596Y-133248732D01*
X192398219Y-133303307D01*
X192405412Y-133372806D01*
X192373890Y-133435160D01*
X192354594Y-133451881D01*
X192278626Y-133505073D01*
X192907466Y-134133913D01*
X192897685Y-134135320D01*
X192766900Y-134195048D01*
X192658239Y-134289202D01*
X192580507Y-134410156D01*
X192556923Y-134490476D01*
X191925072Y-133858625D01*
X191871576Y-133935030D01*
X191817000Y-133978656D01*
X191747501Y-133985850D01*
X191685146Y-133954328D01*
X191668425Y-133935031D01*
X191614926Y-133858626D01*
X191614925Y-133858625D01*
X190983076Y-134490475D01*
X190959493Y-134410156D01*
X190881761Y-134289202D01*
X190773100Y-134195048D01*
X190642315Y-134135320D01*
X190632533Y-134133913D01*
X191261373Y-133505073D01*
X191261373Y-133505072D01*
X191185405Y-133451880D01*
X191141780Y-133397304D01*
X191134586Y-133327805D01*
X191166108Y-133265451D01*
X191185399Y-133248734D01*
X191371401Y-133118495D01*
X191538495Y-132951401D01*
X191668426Y-132765839D01*
X191723002Y-132722216D01*
X191792500Y-132715022D01*
X191854855Y-132746545D01*
G37*
G04 #@! TD.AperFunction*
G04 #@! TA.AperFunction,Conductor*
G36*
X189314855Y-132746545D02*
G01*
X189331571Y-132765837D01*
X189461505Y-132951401D01*
X189628599Y-133118495D01*
X189814596Y-133248732D01*
X189858219Y-133303307D01*
X189865412Y-133372806D01*
X189833890Y-133435160D01*
X189814594Y-133451881D01*
X189738626Y-133505073D01*
X190367466Y-134133913D01*
X190357685Y-134135320D01*
X190226900Y-134195048D01*
X190118239Y-134289202D01*
X190040507Y-134410156D01*
X190016923Y-134490475D01*
X189380656Y-133854208D01*
X189328806Y-133843788D01*
X189278623Y-133795172D01*
X189268793Y-133773031D01*
X189244814Y-133700666D01*
X189152712Y-133551344D01*
X189152711Y-133551342D01*
X189028657Y-133427288D01*
X188909679Y-133353903D01*
X188879334Y-133335186D01*
X188871107Y-133332460D01*
X188813664Y-133292688D01*
X188786842Y-133228172D01*
X188799157Y-133159396D01*
X188825916Y-133128352D01*
X188823730Y-133126166D01*
X188831405Y-133118491D01*
X188998495Y-132951401D01*
X189128426Y-132765839D01*
X189183002Y-132722216D01*
X189252500Y-132715022D01*
X189314855Y-132746545D01*
G37*
G04 #@! TD.AperFunction*
G04 #@! TA.AperFunction,Conductor*
G36*
X194394855Y-132746545D02*
G01*
X194411571Y-132765837D01*
X194541505Y-132951401D01*
X194708599Y-133118495D01*
X194894596Y-133248732D01*
X194938219Y-133303307D01*
X194945412Y-133372806D01*
X194913890Y-133435160D01*
X194894594Y-133451881D01*
X194818626Y-133505073D01*
X195447466Y-134133913D01*
X195437685Y-134135320D01*
X195306900Y-134195048D01*
X195198239Y-134289202D01*
X195120507Y-134410156D01*
X195096923Y-134490475D01*
X194465073Y-133858625D01*
X194465072Y-133858626D01*
X194411574Y-133935030D01*
X194356998Y-133978655D01*
X194287499Y-133985849D01*
X194225144Y-133954326D01*
X194208424Y-133935030D01*
X194154925Y-133858626D01*
X194154925Y-133858625D01*
X193523076Y-134490474D01*
X193499493Y-134410156D01*
X193421761Y-134289202D01*
X193313100Y-134195048D01*
X193182315Y-134135320D01*
X193172533Y-134133913D01*
X193801373Y-133505073D01*
X193801373Y-133505072D01*
X193725405Y-133451880D01*
X193681780Y-133397304D01*
X193674586Y-133327805D01*
X193706108Y-133265451D01*
X193725399Y-133248734D01*
X193911401Y-133118495D01*
X194078495Y-132951401D01*
X194208426Y-132765839D01*
X194263002Y-132722216D01*
X194332500Y-132715022D01*
X194394855Y-132746545D01*
G37*
G04 #@! TD.AperFunction*
G04 #@! TA.AperFunction,Conductor*
G36*
X196934855Y-132746546D02*
G01*
X196951571Y-132765837D01*
X197081505Y-132951401D01*
X197248599Y-133118495D01*
X197434596Y-133248732D01*
X197478219Y-133303307D01*
X197485412Y-133372806D01*
X197453890Y-133435160D01*
X197434594Y-133451881D01*
X197358626Y-133505073D01*
X197987466Y-134133913D01*
X197977685Y-134135320D01*
X197846900Y-134195048D01*
X197738239Y-134289202D01*
X197660507Y-134410156D01*
X197636923Y-134490475D01*
X197005073Y-133858625D01*
X196951576Y-133935030D01*
X196897000Y-133978656D01*
X196827501Y-133985850D01*
X196765146Y-133954328D01*
X196748425Y-133935031D01*
X196694926Y-133858626D01*
X196694925Y-133858625D01*
X196063076Y-134490474D01*
X196039493Y-134410156D01*
X195961761Y-134289202D01*
X195853100Y-134195048D01*
X195722315Y-134135320D01*
X195712533Y-134133913D01*
X196341373Y-133505073D01*
X196341373Y-133505072D01*
X196265405Y-133451880D01*
X196221780Y-133397304D01*
X196214586Y-133327805D01*
X196246108Y-133265451D01*
X196265399Y-133248734D01*
X196451401Y-133118495D01*
X196618495Y-132951401D01*
X196748426Y-132765839D01*
X196803002Y-132722217D01*
X196872501Y-132715024D01*
X196934855Y-132746546D01*
G37*
G04 #@! TD.AperFunction*
G04 #@! TA.AperFunction,Conductor*
G36*
X179621986Y-99796561D02*
G01*
X179673916Y-99843306D01*
X179691879Y-99897553D01*
X179694858Y-99931602D01*
X179753733Y-100151326D01*
X179849865Y-100357480D01*
X179980341Y-100543819D01*
X180141180Y-100704658D01*
X180327519Y-100835134D01*
X180533673Y-100931266D01*
X180729999Y-100983871D01*
X180730000Y-100983871D01*
X180730000Y-100020686D01*
X180741955Y-100032641D01*
X180854852Y-100090165D01*
X180948519Y-100105000D01*
X181011481Y-100105000D01*
X181105148Y-100090165D01*
X181218045Y-100032641D01*
X181230000Y-100020686D01*
X181230000Y-100983871D01*
X181426326Y-100931266D01*
X181632480Y-100835134D01*
X181818819Y-100704658D01*
X181979658Y-100543819D01*
X182110135Y-100357479D01*
X182137342Y-100299135D01*
X182183514Y-100246695D01*
X182250707Y-100227543D01*
X182317589Y-100247758D01*
X182362106Y-100299133D01*
X182389433Y-100357736D01*
X182519953Y-100544140D01*
X182680859Y-100705046D01*
X182867264Y-100835567D01*
X182867265Y-100835567D01*
X182867266Y-100835568D01*
X183073504Y-100931739D01*
X183293308Y-100990635D01*
X183520000Y-101010468D01*
X183746692Y-100990635D01*
X183966496Y-100931739D01*
X184172734Y-100835568D01*
X184326465Y-100727924D01*
X184392671Y-100705598D01*
X184397588Y-100705500D01*
X186361217Y-100705500D01*
X186428256Y-100725185D01*
X186448897Y-100741818D01*
X189717181Y-104010103D01*
X189750665Y-104071424D01*
X189753499Y-104097782D01*
X189753499Y-116063721D01*
X189753459Y-116066861D01*
X189751242Y-116154361D01*
X189761648Y-116212420D01*
X189762957Y-116221749D01*
X189768926Y-116280438D01*
X189778033Y-116309467D01*
X189781772Y-116324702D01*
X189787141Y-116354652D01*
X189809020Y-116409425D01*
X189812180Y-116418300D01*
X189829841Y-116474588D01*
X189844607Y-116501191D01*
X189851337Y-116515364D01*
X189862622Y-116543617D01*
X189895080Y-116592867D01*
X189899961Y-116600923D01*
X189928590Y-116652501D01*
X189948404Y-116675581D01*
X189957856Y-116688116D01*
X189974599Y-116713520D01*
X190016300Y-116755221D01*
X190022705Y-116762132D01*
X190061134Y-116806896D01*
X190085193Y-116825519D01*
X190096972Y-116835893D01*
X193019181Y-119758101D01*
X193052666Y-119819424D01*
X193055500Y-119845782D01*
X193055500Y-126477721D01*
X193055460Y-126480863D01*
X193053242Y-126568362D01*
X193063648Y-126626420D01*
X193064957Y-126635749D01*
X193070926Y-126694438D01*
X193080033Y-126723467D01*
X193083772Y-126738702D01*
X193089141Y-126768652D01*
X193111020Y-126823425D01*
X193114180Y-126832300D01*
X193122524Y-126858895D01*
X193131841Y-126888588D01*
X193146607Y-126915191D01*
X193153337Y-126929364D01*
X193164622Y-126957617D01*
X193197080Y-127006867D01*
X193201961Y-127014923D01*
X193230590Y-127066501D01*
X193250404Y-127089581D01*
X193259856Y-127102116D01*
X193276599Y-127127520D01*
X193318300Y-127169221D01*
X193324705Y-127176132D01*
X193363134Y-127220896D01*
X193387193Y-127239519D01*
X193398972Y-127249893D01*
X194222898Y-128073819D01*
X194256383Y-128135142D01*
X194251399Y-128204834D01*
X194209527Y-128260767D01*
X194144063Y-128285184D01*
X194135217Y-128285500D01*
X194098758Y-128285500D01*
X194089344Y-128285142D01*
X194080198Y-128284445D01*
X194030524Y-128280663D01*
X194030523Y-128280663D01*
X194030522Y-128280663D01*
X194000349Y-128284506D01*
X193984683Y-128285500D01*
X184777890Y-128285500D01*
X184710851Y-128265815D01*
X184665096Y-128213011D01*
X184655152Y-128143853D01*
X184684177Y-128080297D01*
X184690209Y-128073819D01*
X185380362Y-127383665D01*
X185762901Y-127001126D01*
X185883366Y-126858894D01*
X186010655Y-126645274D01*
X186101049Y-126413614D01*
X186152080Y-126170237D01*
X186162357Y-125921779D01*
X186131598Y-125675019D01*
X186060644Y-125436687D01*
X185951429Y-125213284D01*
X185806932Y-125010905D01*
X185806930Y-125010902D01*
X185631097Y-124835069D01*
X185428716Y-124690571D01*
X185205311Y-124581355D01*
X184966981Y-124510402D01*
X184720219Y-124479642D01*
X184480906Y-124489541D01*
X184471763Y-124489920D01*
X184228386Y-124540951D01*
X184228383Y-124540951D01*
X184228383Y-124540952D01*
X183996726Y-124631344D01*
X183783104Y-124758634D01*
X183642841Y-124877432D01*
X183642827Y-124877444D01*
X183640874Y-124879099D01*
X183639063Y-124880909D01*
X183639051Y-124880921D01*
X182548791Y-125971181D01*
X182487468Y-126004666D01*
X182461110Y-126007500D01*
X166367000Y-126007500D01*
X166299961Y-125987815D01*
X166254206Y-125935011D01*
X166243000Y-125883500D01*
X166243000Y-123825000D01*
X166520092Y-123825000D01*
X166539693Y-124086552D01*
X166598059Y-124342270D01*
X166693882Y-124586424D01*
X166825027Y-124813573D01*
X166872873Y-124873571D01*
X167791922Y-123954522D01*
X167815507Y-124034844D01*
X167893239Y-124155798D01*
X168001900Y-124249952D01*
X168132685Y-124309680D01*
X168142466Y-124311086D01*
X167225831Y-125227720D01*
X167397546Y-125344793D01*
X167633860Y-125458596D01*
X167884496Y-125535908D01*
X168143856Y-125575000D01*
X168406144Y-125575000D01*
X168665503Y-125535908D01*
X168916139Y-125458596D01*
X169152456Y-125344792D01*
X169324167Y-125227720D01*
X168407534Y-124311086D01*
X168417315Y-124309680D01*
X168548100Y-124249952D01*
X168656761Y-124155798D01*
X168734493Y-124034844D01*
X168758076Y-123954523D01*
X169677124Y-124873571D01*
X169724972Y-124813572D01*
X169856117Y-124586423D01*
X169951940Y-124342270D01*
X170010306Y-124086552D01*
X170029907Y-123824999D01*
X170010306Y-123563447D01*
X169951940Y-123307729D01*
X169856117Y-123063575D01*
X169724972Y-122836426D01*
X169677125Y-122776427D01*
X169677124Y-122776427D01*
X168758076Y-123695474D01*
X168734493Y-123615156D01*
X168656761Y-123494202D01*
X168548100Y-123400048D01*
X168417315Y-123340320D01*
X168407533Y-123338913D01*
X169324167Y-122422278D01*
X169152451Y-122305205D01*
X168916139Y-122191403D01*
X168665503Y-122114091D01*
X168406144Y-122075000D01*
X168143856Y-122075000D01*
X167884496Y-122114091D01*
X167633860Y-122191403D01*
X167397545Y-122305206D01*
X167225832Y-122422278D01*
X168142467Y-123338913D01*
X168132685Y-123340320D01*
X168001900Y-123400048D01*
X167893239Y-123494202D01*
X167815507Y-123615156D01*
X167791923Y-123695475D01*
X166872874Y-122776428D01*
X166825026Y-122836428D01*
X166693882Y-123063576D01*
X166598059Y-123307729D01*
X166539693Y-123563447D01*
X166520092Y-123825000D01*
X166243000Y-123825000D01*
X166243000Y-121790000D01*
X166262685Y-121722961D01*
X166315489Y-121677206D01*
X166367000Y-121666000D01*
X178308000Y-121666000D01*
X178308000Y-111659578D01*
X186024500Y-111659578D01*
X186024501Y-111662872D01*
X186030909Y-111722483D01*
X186081204Y-111857331D01*
X186167454Y-111972546D01*
X186282669Y-112058796D01*
X186417517Y-112109091D01*
X186477127Y-112115500D01*
X188172872Y-112115499D01*
X188232483Y-112109091D01*
X188367331Y-112058796D01*
X188482546Y-111972546D01*
X188568796Y-111857331D01*
X188619091Y-111722483D01*
X188625500Y-111662873D01*
X188625499Y-109967128D01*
X188619091Y-109907517D01*
X188568796Y-109772669D01*
X188482546Y-109657454D01*
X188367331Y-109571204D01*
X188232483Y-109520909D01*
X188172873Y-109514500D01*
X188169550Y-109514500D01*
X186480439Y-109514500D01*
X186480420Y-109514500D01*
X186477128Y-109514501D01*
X186473848Y-109514853D01*
X186473840Y-109514854D01*
X186417515Y-109520909D01*
X186282669Y-109571204D01*
X186167454Y-109657454D01*
X186081204Y-109772668D01*
X186030910Y-109907515D01*
X186030909Y-109907517D01*
X186024500Y-109967127D01*
X186024500Y-109970448D01*
X186024500Y-109970449D01*
X186024500Y-111659560D01*
X186024500Y-111659578D01*
X178308000Y-111659578D01*
X178308000Y-107315000D01*
X186020033Y-107315000D01*
X186039858Y-107541602D01*
X186098733Y-107761326D01*
X186194866Y-107967484D01*
X186245972Y-108040471D01*
X186245974Y-108040472D01*
X186927046Y-107359399D01*
X186939835Y-107440148D01*
X186997359Y-107553045D01*
X187086955Y-107642641D01*
X187199852Y-107700165D01*
X187280599Y-107712953D01*
X186599526Y-108394025D01*
X186599526Y-108394026D01*
X186672515Y-108445133D01*
X186878673Y-108541266D01*
X187098397Y-108600141D01*
X187325000Y-108619966D01*
X187551602Y-108600141D01*
X187771326Y-108541266D01*
X187977480Y-108445134D01*
X188050472Y-108394025D01*
X187369401Y-107712953D01*
X187450148Y-107700165D01*
X187563045Y-107642641D01*
X187652641Y-107553045D01*
X187710165Y-107440148D01*
X187722953Y-107359400D01*
X188404025Y-108040472D01*
X188455134Y-107967480D01*
X188551266Y-107761326D01*
X188610141Y-107541602D01*
X188629966Y-107315000D01*
X188610141Y-107088397D01*
X188551266Y-106868673D01*
X188455133Y-106662515D01*
X188404025Y-106589526D01*
X187722953Y-107270598D01*
X187710165Y-107189852D01*
X187652641Y-107076955D01*
X187563045Y-106987359D01*
X187450148Y-106929835D01*
X187369400Y-106917046D01*
X188050472Y-106235974D01*
X188050471Y-106235972D01*
X187977484Y-106184866D01*
X187771326Y-106088733D01*
X187551602Y-106029858D01*
X187325000Y-106010033D01*
X187098397Y-106029858D01*
X186878672Y-106088733D01*
X186672516Y-106184865D01*
X186599527Y-106235973D01*
X186599526Y-106235973D01*
X187280600Y-106917046D01*
X187199852Y-106929835D01*
X187086955Y-106987359D01*
X186997359Y-107076955D01*
X186939835Y-107189852D01*
X186927046Y-107270599D01*
X186245973Y-106589526D01*
X186245973Y-106589527D01*
X186194865Y-106662516D01*
X186098733Y-106868672D01*
X186039858Y-107088397D01*
X186020033Y-107315000D01*
X178308000Y-107315000D01*
X178308000Y-103524025D01*
X178313705Y-103486847D01*
X178355034Y-103355345D01*
X179450057Y-99871180D01*
X179488935Y-99813129D01*
X179553028Y-99785311D01*
X179621986Y-99796561D01*
G37*
G04 #@! TD.AperFunction*
M02*
