G04 #@! TF.GenerationSoftware,KiCad,Pcbnew,7.0.2*
G04 #@! TF.CreationDate,2023-10-13T15:39:11+02:00*
G04 #@! TF.ProjectId,Module_3,4d6f6475-6c65-45f3-932e-6b696361645f,rev?*
G04 #@! TF.SameCoordinates,Original*
G04 #@! TF.FileFunction,Legend,Top*
G04 #@! TF.FilePolarity,Positive*
%FSLAX46Y46*%
G04 Gerber Fmt 4.6, Leading zero omitted, Abs format (unit mm)*
G04 Created by KiCad (PCBNEW 7.0.2) date 2023-10-13 15:39:11*
%MOMM*%
%LPD*%
G01*
G04 APERTURE LIST*
G04 Aperture macros list*
%AMRoundRect*
0 Rectangle with rounded corners*
0 $1 Rounding radius*
0 $2 $3 $4 $5 $6 $7 $8 $9 X,Y pos of 4 corners*
0 Add a 4 corners polygon primitive as box body*
4,1,4,$2,$3,$4,$5,$6,$7,$8,$9,$2,$3,0*
0 Add four circle primitives for the rounded corners*
1,1,$1+$1,$2,$3*
1,1,$1+$1,$4,$5*
1,1,$1+$1,$6,$7*
1,1,$1+$1,$8,$9*
0 Add four rect primitives between the rounded corners*
20,1,$1+$1,$2,$3,$4,$5,0*
20,1,$1+$1,$4,$5,$6,$7,0*
20,1,$1+$1,$6,$7,$8,$9,0*
20,1,$1+$1,$8,$9,$2,$3,0*%
G04 Aperture macros list end*
%ADD10C,0.150000*%
%ADD11C,0.300000*%
%ADD12C,0.100000*%
%ADD13C,0.120000*%
%ADD14C,2.000000*%
%ADD15C,3.200000*%
%ADD16R,1.600000X1.600000*%
%ADD17C,1.600000*%
%ADD18RoundRect,0.250000X0.625000X-0.312500X0.625000X0.312500X-0.625000X0.312500X-0.625000X-0.312500X0*%
%ADD19C,2.400000*%
%ADD20C,3.000000*%
%ADD21O,1.600000X1.600000*%
%ADD22RoundRect,0.250000X-0.625000X0.312500X-0.625000X-0.312500X0.625000X-0.312500X0.625000X0.312500X0*%
%ADD23C,6.000000*%
%ADD24RoundRect,0.250000X0.300000X-2.050000X0.300000X2.050000X-0.300000X2.050000X-0.300000X-2.050000X0*%
%ADD25RoundRect,0.250002X5.149998X-4.449998X5.149998X4.449998X-5.149998X4.449998X-5.149998X-4.449998X0*%
%ADD26C,3.500000*%
%ADD27RoundRect,0.250000X-0.312500X-0.625000X0.312500X-0.625000X0.312500X0.625000X-0.312500X0.625000X0*%
%ADD28C,2.500000*%
%ADD29RoundRect,0.250000X-0.650000X0.325000X-0.650000X-0.325000X0.650000X-0.325000X0.650000X0.325000X0*%
%ADD30RoundRect,0.250000X0.325000X0.650000X-0.325000X0.650000X-0.325000X-0.650000X0.325000X-0.650000X0*%
%ADD31RoundRect,0.250000X-1.000000X1.400000X-1.000000X-1.400000X1.000000X-1.400000X1.000000X1.400000X0*%
%ADD32RoundRect,0.250000X0.600000X-0.600000X0.600000X0.600000X-0.600000X0.600000X-0.600000X-0.600000X0*%
%ADD33C,1.700000*%
%ADD34R,4.000000X5.800000*%
%ADD35R,3.200000X3.200000*%
G04 APERTURE END LIST*
D10*
X90932000Y-125793500D02*
X90297000Y-125158500D01*
X90297000Y-126428500D02*
X90932000Y-125793500D01*
X86487000Y-125793500D02*
X90932000Y-125793500D01*
X98573843Y-47424512D02*
X151484843Y-47424512D01*
X151484843Y-76096512D01*
X98573843Y-76096512D01*
X98573843Y-47424512D01*
X89808904Y-133667309D02*
X89927952Y-133476833D01*
X89927952Y-133476833D02*
X89927952Y-133191119D01*
X89927952Y-133191119D02*
X89808904Y-132905404D01*
X89808904Y-132905404D02*
X89570809Y-132714928D01*
X89570809Y-132714928D02*
X89332714Y-132619690D01*
X89332714Y-132619690D02*
X88856523Y-132524452D01*
X88856523Y-132524452D02*
X88499380Y-132524452D01*
X88499380Y-132524452D02*
X88023190Y-132619690D01*
X88023190Y-132619690D02*
X87785095Y-132714928D01*
X87785095Y-132714928D02*
X87547000Y-132905404D01*
X87547000Y-132905404D02*
X87427952Y-133191119D01*
X87427952Y-133191119D02*
X87427952Y-133381595D01*
X87427952Y-133381595D02*
X87547000Y-133667309D01*
X87547000Y-133667309D02*
X87666047Y-133762547D01*
X87666047Y-133762547D02*
X88499380Y-133762547D01*
X88499380Y-133762547D02*
X88499380Y-133381595D01*
X87427952Y-134619690D02*
X89927952Y-134619690D01*
X89927952Y-134619690D02*
X87427952Y-135762547D01*
X87427952Y-135762547D02*
X89927952Y-135762547D01*
X87427952Y-136714928D02*
X89927952Y-136714928D01*
X89927952Y-136714928D02*
X89927952Y-137191118D01*
X89927952Y-137191118D02*
X89808904Y-137476833D01*
X89808904Y-137476833D02*
X89570809Y-137667309D01*
X89570809Y-137667309D02*
X89332714Y-137762547D01*
X89332714Y-137762547D02*
X88856523Y-137857785D01*
X88856523Y-137857785D02*
X88499380Y-137857785D01*
X88499380Y-137857785D02*
X88023190Y-137762547D01*
X88023190Y-137762547D02*
X87785095Y-137667309D01*
X87785095Y-137667309D02*
X87547000Y-137476833D01*
X87547000Y-137476833D02*
X87427952Y-137191118D01*
X87427952Y-137191118D02*
X87427952Y-136714928D01*
X83617952Y-116109690D02*
X86117952Y-116109690D01*
X86117952Y-116109690D02*
X86117952Y-116871595D01*
X86117952Y-116871595D02*
X85998904Y-117062071D01*
X85998904Y-117062071D02*
X85879857Y-117157309D01*
X85879857Y-117157309D02*
X85641761Y-117252547D01*
X85641761Y-117252547D02*
X85284619Y-117252547D01*
X85284619Y-117252547D02*
X85046523Y-117157309D01*
X85046523Y-117157309D02*
X84927476Y-117062071D01*
X84927476Y-117062071D02*
X84808428Y-116871595D01*
X84808428Y-116871595D02*
X84808428Y-116109690D01*
X83617952Y-118395404D02*
X83737000Y-118204928D01*
X83737000Y-118204928D02*
X83856047Y-118109690D01*
X83856047Y-118109690D02*
X84094142Y-118014452D01*
X84094142Y-118014452D02*
X84808428Y-118014452D01*
X84808428Y-118014452D02*
X85046523Y-118109690D01*
X85046523Y-118109690D02*
X85165571Y-118204928D01*
X85165571Y-118204928D02*
X85284619Y-118395404D01*
X85284619Y-118395404D02*
X85284619Y-118681119D01*
X85284619Y-118681119D02*
X85165571Y-118871595D01*
X85165571Y-118871595D02*
X85046523Y-118966833D01*
X85046523Y-118966833D02*
X84808428Y-119062071D01*
X84808428Y-119062071D02*
X84094142Y-119062071D01*
X84094142Y-119062071D02*
X83856047Y-118966833D01*
X83856047Y-118966833D02*
X83737000Y-118871595D01*
X83737000Y-118871595D02*
X83617952Y-118681119D01*
X83617952Y-118681119D02*
X83617952Y-118395404D01*
X85284619Y-119633500D02*
X85284619Y-120395404D01*
X86117952Y-119919214D02*
X83975095Y-119919214D01*
X83975095Y-119919214D02*
X83737000Y-120014452D01*
X83737000Y-120014452D02*
X83617952Y-120204928D01*
X83617952Y-120204928D02*
X83617952Y-120395404D01*
X83856047Y-121062071D02*
X83737000Y-121157309D01*
X83737000Y-121157309D02*
X83617952Y-121062071D01*
X83617952Y-121062071D02*
X83737000Y-120966833D01*
X83737000Y-120966833D02*
X83856047Y-121062071D01*
X83856047Y-121062071D02*
X83617952Y-121062071D01*
X83617952Y-122014452D02*
X85284619Y-122014452D01*
X85046523Y-122014452D02*
X85165571Y-122109690D01*
X85165571Y-122109690D02*
X85284619Y-122300166D01*
X85284619Y-122300166D02*
X85284619Y-122585881D01*
X85284619Y-122585881D02*
X85165571Y-122776357D01*
X85165571Y-122776357D02*
X84927476Y-122871595D01*
X84927476Y-122871595D02*
X83617952Y-122871595D01*
X84927476Y-122871595D02*
X85165571Y-122966833D01*
X85165571Y-122966833D02*
X85284619Y-123157309D01*
X85284619Y-123157309D02*
X85284619Y-123443023D01*
X85284619Y-123443023D02*
X85165571Y-123633500D01*
X85165571Y-123633500D02*
X84927476Y-123728738D01*
X84927476Y-123728738D02*
X83617952Y-123728738D01*
X83617952Y-125538262D02*
X84927476Y-125538262D01*
X84927476Y-125538262D02*
X85165571Y-125443024D01*
X85165571Y-125443024D02*
X85284619Y-125252548D01*
X85284619Y-125252548D02*
X85284619Y-124871595D01*
X85284619Y-124871595D02*
X85165571Y-124681119D01*
X83737000Y-125538262D02*
X83617952Y-125347786D01*
X83617952Y-125347786D02*
X83617952Y-124871595D01*
X83617952Y-124871595D02*
X83737000Y-124681119D01*
X83737000Y-124681119D02*
X83975095Y-124585881D01*
X83975095Y-124585881D02*
X84213190Y-124585881D01*
X84213190Y-124585881D02*
X84451285Y-124681119D01*
X84451285Y-124681119D02*
X84570333Y-124871595D01*
X84570333Y-124871595D02*
X84570333Y-125347786D01*
X84570333Y-125347786D02*
X84689380Y-125538262D01*
X83617952Y-126300167D02*
X85284619Y-127347786D01*
X85284619Y-126300167D02*
X83617952Y-127347786D01*
X86117952Y-129062072D02*
X86117952Y-128109691D01*
X86117952Y-128109691D02*
X84927476Y-128014453D01*
X84927476Y-128014453D02*
X85046523Y-128109691D01*
X85046523Y-128109691D02*
X85165571Y-128300167D01*
X85165571Y-128300167D02*
X85165571Y-128776358D01*
X85165571Y-128776358D02*
X85046523Y-128966834D01*
X85046523Y-128966834D02*
X84927476Y-129062072D01*
X84927476Y-129062072D02*
X84689380Y-129157310D01*
X84689380Y-129157310D02*
X84094142Y-129157310D01*
X84094142Y-129157310D02*
X83856047Y-129062072D01*
X83856047Y-129062072D02*
X83737000Y-128966834D01*
X83737000Y-128966834D02*
X83617952Y-128776358D01*
X83617952Y-128776358D02*
X83617952Y-128300167D01*
X83617952Y-128300167D02*
X83737000Y-128109691D01*
X83737000Y-128109691D02*
X83856047Y-128014453D01*
X86117952Y-129728739D02*
X83617952Y-130395405D01*
X83617952Y-130395405D02*
X86117952Y-131062072D01*
X80315952Y-59848571D02*
X80315952Y-58896190D01*
X80315952Y-58896190D02*
X82815952Y-58896190D01*
D11*
X212566190Y-85956639D02*
X214090000Y-85956639D01*
X213328095Y-86909020D02*
X213328095Y-85004258D01*
X214851904Y-84409020D02*
X216089999Y-84409020D01*
X216089999Y-84409020D02*
X215423332Y-85361401D01*
X215423332Y-85361401D02*
X215709047Y-85361401D01*
X215709047Y-85361401D02*
X215899523Y-85480449D01*
X215899523Y-85480449D02*
X215994761Y-85599496D01*
X215994761Y-85599496D02*
X216089999Y-85837592D01*
X216089999Y-85837592D02*
X216089999Y-86432830D01*
X216089999Y-86432830D02*
X215994761Y-86670925D01*
X215994761Y-86670925D02*
X215899523Y-86789973D01*
X215899523Y-86789973D02*
X215709047Y-86909020D01*
X215709047Y-86909020D02*
X215137618Y-86909020D01*
X215137618Y-86909020D02*
X214947142Y-86789973D01*
X214947142Y-86789973D02*
X214851904Y-86670925D01*
X217328094Y-84409020D02*
X217518571Y-84409020D01*
X217518571Y-84409020D02*
X217709047Y-84528068D01*
X217709047Y-84528068D02*
X217804285Y-84647115D01*
X217804285Y-84647115D02*
X217899523Y-84885211D01*
X217899523Y-84885211D02*
X217994761Y-85361401D01*
X217994761Y-85361401D02*
X217994761Y-85956639D01*
X217994761Y-85956639D02*
X217899523Y-86432830D01*
X217899523Y-86432830D02*
X217804285Y-86670925D01*
X217804285Y-86670925D02*
X217709047Y-86789973D01*
X217709047Y-86789973D02*
X217518571Y-86909020D01*
X217518571Y-86909020D02*
X217328094Y-86909020D01*
X217328094Y-86909020D02*
X217137618Y-86789973D01*
X217137618Y-86789973D02*
X217042380Y-86670925D01*
X217042380Y-86670925D02*
X216947142Y-86432830D01*
X216947142Y-86432830D02*
X216851904Y-85956639D01*
X216851904Y-85956639D02*
X216851904Y-85361401D01*
X216851904Y-85361401D02*
X216947142Y-84885211D01*
X216947142Y-84885211D02*
X217042380Y-84647115D01*
X217042380Y-84647115D02*
X217137618Y-84528068D01*
X217137618Y-84528068D02*
X217328094Y-84409020D01*
X219232856Y-84409020D02*
X219423333Y-84409020D01*
X219423333Y-84409020D02*
X219613809Y-84528068D01*
X219613809Y-84528068D02*
X219709047Y-84647115D01*
X219709047Y-84647115D02*
X219804285Y-84885211D01*
X219804285Y-84885211D02*
X219899523Y-85361401D01*
X219899523Y-85361401D02*
X219899523Y-85956639D01*
X219899523Y-85956639D02*
X219804285Y-86432830D01*
X219804285Y-86432830D02*
X219709047Y-86670925D01*
X219709047Y-86670925D02*
X219613809Y-86789973D01*
X219613809Y-86789973D02*
X219423333Y-86909020D01*
X219423333Y-86909020D02*
X219232856Y-86909020D01*
X219232856Y-86909020D02*
X219042380Y-86789973D01*
X219042380Y-86789973D02*
X218947142Y-86670925D01*
X218947142Y-86670925D02*
X218851904Y-86432830D01*
X218851904Y-86432830D02*
X218756666Y-85956639D01*
X218756666Y-85956639D02*
X218756666Y-85361401D01*
X218756666Y-85361401D02*
X218851904Y-84885211D01*
X218851904Y-84885211D02*
X218947142Y-84647115D01*
X218947142Y-84647115D02*
X219042380Y-84528068D01*
X219042380Y-84528068D02*
X219232856Y-84409020D01*
X220470952Y-84409020D02*
X221137618Y-86909020D01*
X221137618Y-86909020D02*
X221804285Y-84409020D01*
D10*
X81400000Y-52847857D02*
X81471428Y-52919285D01*
X81471428Y-52919285D02*
X81542857Y-53062142D01*
X81542857Y-53062142D02*
X81400000Y-53347857D01*
X81400000Y-53347857D02*
X81471428Y-53490714D01*
X81471428Y-53490714D02*
X81542857Y-53562142D01*
X82185714Y-54062143D02*
X82257142Y-54133571D01*
X82257142Y-54133571D02*
X82328571Y-54276429D01*
X82328571Y-54276429D02*
X82328571Y-54633571D01*
X82328571Y-54633571D02*
X82257142Y-54776429D01*
X82257142Y-54776429D02*
X82185714Y-54847857D01*
X82185714Y-54847857D02*
X82042857Y-54919286D01*
X82042857Y-54919286D02*
X81900000Y-54919286D01*
X81900000Y-54919286D02*
X81685714Y-54847857D01*
X81685714Y-54847857D02*
X80828571Y-53990714D01*
X80828571Y-53990714D02*
X80828571Y-54919286D01*
X82185714Y-55490714D02*
X82257142Y-55562142D01*
X82257142Y-55562142D02*
X82328571Y-55705000D01*
X82328571Y-55705000D02*
X82328571Y-56062142D01*
X82328571Y-56062142D02*
X82257142Y-56205000D01*
X82257142Y-56205000D02*
X82185714Y-56276428D01*
X82185714Y-56276428D02*
X82042857Y-56347857D01*
X82042857Y-56347857D02*
X81900000Y-56347857D01*
X81900000Y-56347857D02*
X81685714Y-56276428D01*
X81685714Y-56276428D02*
X80828571Y-55419285D01*
X80828571Y-55419285D02*
X80828571Y-56347857D01*
X82328571Y-57276428D02*
X82328571Y-57419285D01*
X82328571Y-57419285D02*
X82257142Y-57562142D01*
X82257142Y-57562142D02*
X82185714Y-57633571D01*
X82185714Y-57633571D02*
X82042857Y-57704999D01*
X82042857Y-57704999D02*
X81757142Y-57776428D01*
X81757142Y-57776428D02*
X81400000Y-57776428D01*
X81400000Y-57776428D02*
X81114285Y-57704999D01*
X81114285Y-57704999D02*
X80971428Y-57633571D01*
X80971428Y-57633571D02*
X80900000Y-57562142D01*
X80900000Y-57562142D02*
X80828571Y-57419285D01*
X80828571Y-57419285D02*
X80828571Y-57276428D01*
X80828571Y-57276428D02*
X80900000Y-57133571D01*
X80900000Y-57133571D02*
X80971428Y-57062142D01*
X80971428Y-57062142D02*
X81114285Y-56990713D01*
X81114285Y-56990713D02*
X81400000Y-56919285D01*
X81400000Y-56919285D02*
X81757142Y-56919285D01*
X81757142Y-56919285D02*
X82042857Y-56990713D01*
X82042857Y-56990713D02*
X82185714Y-57062142D01*
X82185714Y-57062142D02*
X82257142Y-57133571D01*
X82257142Y-57133571D02*
X82328571Y-57276428D01*
X120903809Y-129647095D02*
X120713333Y-129528047D01*
X120713333Y-129528047D02*
X120427619Y-129528047D01*
X120427619Y-129528047D02*
X120141904Y-129647095D01*
X120141904Y-129647095D02*
X119951428Y-129885190D01*
X119951428Y-129885190D02*
X119856190Y-130123285D01*
X119856190Y-130123285D02*
X119760952Y-130599476D01*
X119760952Y-130599476D02*
X119760952Y-130956619D01*
X119760952Y-130956619D02*
X119856190Y-131432809D01*
X119856190Y-131432809D02*
X119951428Y-131670904D01*
X119951428Y-131670904D02*
X120141904Y-131909000D01*
X120141904Y-131909000D02*
X120427619Y-132028047D01*
X120427619Y-132028047D02*
X120618095Y-132028047D01*
X120618095Y-132028047D02*
X120903809Y-131909000D01*
X120903809Y-131909000D02*
X120999047Y-131789952D01*
X120999047Y-131789952D02*
X120999047Y-130956619D01*
X120999047Y-130956619D02*
X120618095Y-130956619D01*
X121856190Y-132028047D02*
X121856190Y-129528047D01*
X121856190Y-129528047D02*
X122999047Y-132028047D01*
X122999047Y-132028047D02*
X122999047Y-129528047D01*
X123951428Y-132028047D02*
X123951428Y-129528047D01*
X123951428Y-129528047D02*
X124427618Y-129528047D01*
X124427618Y-129528047D02*
X124713333Y-129647095D01*
X124713333Y-129647095D02*
X124903809Y-129885190D01*
X124903809Y-129885190D02*
X124999047Y-130123285D01*
X124999047Y-130123285D02*
X125094285Y-130599476D01*
X125094285Y-130599476D02*
X125094285Y-130956619D01*
X125094285Y-130956619D02*
X124999047Y-131432809D01*
X124999047Y-131432809D02*
X124903809Y-131670904D01*
X124903809Y-131670904D02*
X124713333Y-131909000D01*
X124713333Y-131909000D02*
X124427618Y-132028047D01*
X124427618Y-132028047D02*
X123951428Y-132028047D01*
X111601190Y-131075666D02*
X113125000Y-131075666D01*
X112363095Y-132028047D02*
X112363095Y-130123285D01*
X115124999Y-132028047D02*
X113982142Y-132028047D01*
X114553570Y-132028047D02*
X114553570Y-129528047D01*
X114553570Y-129528047D02*
X114363094Y-129885190D01*
X114363094Y-129885190D02*
X114172618Y-130123285D01*
X114172618Y-130123285D02*
X113982142Y-130242333D01*
X115886904Y-129766142D02*
X115982142Y-129647095D01*
X115982142Y-129647095D02*
X116172618Y-129528047D01*
X116172618Y-129528047D02*
X116648809Y-129528047D01*
X116648809Y-129528047D02*
X116839285Y-129647095D01*
X116839285Y-129647095D02*
X116934523Y-129766142D01*
X116934523Y-129766142D02*
X117029761Y-130004238D01*
X117029761Y-130004238D02*
X117029761Y-130242333D01*
X117029761Y-130242333D02*
X116934523Y-130599476D01*
X116934523Y-130599476D02*
X115791666Y-132028047D01*
X115791666Y-132028047D02*
X117029761Y-132028047D01*
X117601190Y-129528047D02*
X118267856Y-132028047D01*
X118267856Y-132028047D02*
X118934523Y-129528047D01*
D11*
X211931190Y-67956666D02*
X213455000Y-67956666D01*
X214216904Y-66409047D02*
X215454999Y-66409047D01*
X215454999Y-66409047D02*
X214788332Y-67361428D01*
X214788332Y-67361428D02*
X215074047Y-67361428D01*
X215074047Y-67361428D02*
X215264523Y-67480476D01*
X215264523Y-67480476D02*
X215359761Y-67599523D01*
X215359761Y-67599523D02*
X215454999Y-67837619D01*
X215454999Y-67837619D02*
X215454999Y-68432857D01*
X215454999Y-68432857D02*
X215359761Y-68670952D01*
X215359761Y-68670952D02*
X215264523Y-68790000D01*
X215264523Y-68790000D02*
X215074047Y-68909047D01*
X215074047Y-68909047D02*
X214502618Y-68909047D01*
X214502618Y-68909047D02*
X214312142Y-68790000D01*
X214312142Y-68790000D02*
X214216904Y-68670952D01*
X216693094Y-66409047D02*
X216883571Y-66409047D01*
X216883571Y-66409047D02*
X217074047Y-66528095D01*
X217074047Y-66528095D02*
X217169285Y-66647142D01*
X217169285Y-66647142D02*
X217264523Y-66885238D01*
X217264523Y-66885238D02*
X217359761Y-67361428D01*
X217359761Y-67361428D02*
X217359761Y-67956666D01*
X217359761Y-67956666D02*
X217264523Y-68432857D01*
X217264523Y-68432857D02*
X217169285Y-68670952D01*
X217169285Y-68670952D02*
X217074047Y-68790000D01*
X217074047Y-68790000D02*
X216883571Y-68909047D01*
X216883571Y-68909047D02*
X216693094Y-68909047D01*
X216693094Y-68909047D02*
X216502618Y-68790000D01*
X216502618Y-68790000D02*
X216407380Y-68670952D01*
X216407380Y-68670952D02*
X216312142Y-68432857D01*
X216312142Y-68432857D02*
X216216904Y-67956666D01*
X216216904Y-67956666D02*
X216216904Y-67361428D01*
X216216904Y-67361428D02*
X216312142Y-66885238D01*
X216312142Y-66885238D02*
X216407380Y-66647142D01*
X216407380Y-66647142D02*
X216502618Y-66528095D01*
X216502618Y-66528095D02*
X216693094Y-66409047D01*
X218597856Y-66409047D02*
X218788333Y-66409047D01*
X218788333Y-66409047D02*
X218978809Y-66528095D01*
X218978809Y-66528095D02*
X219074047Y-66647142D01*
X219074047Y-66647142D02*
X219169285Y-66885238D01*
X219169285Y-66885238D02*
X219264523Y-67361428D01*
X219264523Y-67361428D02*
X219264523Y-67956666D01*
X219264523Y-67956666D02*
X219169285Y-68432857D01*
X219169285Y-68432857D02*
X219074047Y-68670952D01*
X219074047Y-68670952D02*
X218978809Y-68790000D01*
X218978809Y-68790000D02*
X218788333Y-68909047D01*
X218788333Y-68909047D02*
X218597856Y-68909047D01*
X218597856Y-68909047D02*
X218407380Y-68790000D01*
X218407380Y-68790000D02*
X218312142Y-68670952D01*
X218312142Y-68670952D02*
X218216904Y-68432857D01*
X218216904Y-68432857D02*
X218121666Y-67956666D01*
X218121666Y-67956666D02*
X218121666Y-67361428D01*
X218121666Y-67361428D02*
X218216904Y-66885238D01*
X218216904Y-66885238D02*
X218312142Y-66647142D01*
X218312142Y-66647142D02*
X218407380Y-66528095D01*
X218407380Y-66528095D02*
X218597856Y-66409047D01*
X219835952Y-66409047D02*
X220502618Y-68909047D01*
X220502618Y-68909047D02*
X221169285Y-66409047D01*
D10*
X80315952Y-63976190D02*
X82815952Y-63976190D01*
X82815952Y-63976190D02*
X80315952Y-65119047D01*
X80315952Y-65119047D02*
X82815952Y-65119047D01*
X81625476Y-70326190D02*
X81625476Y-70992857D01*
X80315952Y-71278571D02*
X80315952Y-70326190D01*
X80315952Y-70326190D02*
X82815952Y-70326190D01*
X82815952Y-70326190D02*
X82815952Y-71278571D01*
X80315952Y-72992857D02*
X81625476Y-72992857D01*
X81625476Y-72992857D02*
X81863571Y-72897619D01*
X81863571Y-72897619D02*
X81982619Y-72707143D01*
X81982619Y-72707143D02*
X81982619Y-72326190D01*
X81982619Y-72326190D02*
X81863571Y-72135714D01*
X80435000Y-72992857D02*
X80315952Y-72802381D01*
X80315952Y-72802381D02*
X80315952Y-72326190D01*
X80315952Y-72326190D02*
X80435000Y-72135714D01*
X80435000Y-72135714D02*
X80673095Y-72040476D01*
X80673095Y-72040476D02*
X80911190Y-72040476D01*
X80911190Y-72040476D02*
X81149285Y-72135714D01*
X81149285Y-72135714D02*
X81268333Y-72326190D01*
X81268333Y-72326190D02*
X81268333Y-72802381D01*
X81268333Y-72802381D02*
X81387380Y-72992857D01*
X80315952Y-73945238D02*
X81982619Y-73945238D01*
X81506428Y-73945238D02*
X81744523Y-74040476D01*
X81744523Y-74040476D02*
X81863571Y-74135714D01*
X81863571Y-74135714D02*
X81982619Y-74326190D01*
X81982619Y-74326190D02*
X81982619Y-74516667D01*
X81982619Y-74897619D02*
X81982619Y-75659523D01*
X82815952Y-75183333D02*
X80673095Y-75183333D01*
X80673095Y-75183333D02*
X80435000Y-75278571D01*
X80435000Y-75278571D02*
X80315952Y-75469047D01*
X80315952Y-75469047D02*
X80315952Y-75659523D01*
X80315952Y-76326190D02*
X82815952Y-76326190D01*
X80315952Y-77183333D02*
X81625476Y-77183333D01*
X81625476Y-77183333D02*
X81863571Y-77088095D01*
X81863571Y-77088095D02*
X81982619Y-76897619D01*
X81982619Y-76897619D02*
X81982619Y-76611904D01*
X81982619Y-76611904D02*
X81863571Y-76421428D01*
X81863571Y-76421428D02*
X81744523Y-76326190D01*
X143032666Y-108240809D02*
X142699333Y-108240809D01*
X142699333Y-108764619D02*
X142699333Y-107764619D01*
X142699333Y-107764619D02*
X143175523Y-107764619D01*
X144080285Y-108764619D02*
X143508857Y-108764619D01*
X143794571Y-108764619D02*
X143794571Y-107764619D01*
X143794571Y-107764619D02*
X143699333Y-107907476D01*
X143699333Y-107907476D02*
X143604095Y-108002714D01*
X143604095Y-108002714D02*
X143508857Y-108050333D01*
X183983333Y-104734380D02*
X183935714Y-104782000D01*
X183935714Y-104782000D02*
X183792857Y-104829619D01*
X183792857Y-104829619D02*
X183697619Y-104829619D01*
X183697619Y-104829619D02*
X183554762Y-104782000D01*
X183554762Y-104782000D02*
X183459524Y-104686761D01*
X183459524Y-104686761D02*
X183411905Y-104591523D01*
X183411905Y-104591523D02*
X183364286Y-104401047D01*
X183364286Y-104401047D02*
X183364286Y-104258190D01*
X183364286Y-104258190D02*
X183411905Y-104067714D01*
X183411905Y-104067714D02*
X183459524Y-103972476D01*
X183459524Y-103972476D02*
X183554762Y-103877238D01*
X183554762Y-103877238D02*
X183697619Y-103829619D01*
X183697619Y-103829619D02*
X183792857Y-103829619D01*
X183792857Y-103829619D02*
X183935714Y-103877238D01*
X183935714Y-103877238D02*
X183983333Y-103924857D01*
X184935714Y-104829619D02*
X184364286Y-104829619D01*
X184650000Y-104829619D02*
X184650000Y-103829619D01*
X184650000Y-103829619D02*
X184554762Y-103972476D01*
X184554762Y-103972476D02*
X184459524Y-104067714D01*
X184459524Y-104067714D02*
X184364286Y-104115333D01*
X205017619Y-66014166D02*
X204541428Y-66347499D01*
X205017619Y-66585594D02*
X204017619Y-66585594D01*
X204017619Y-66585594D02*
X204017619Y-66204642D01*
X204017619Y-66204642D02*
X204065238Y-66109404D01*
X204065238Y-66109404D02*
X204112857Y-66061785D01*
X204112857Y-66061785D02*
X204208095Y-66014166D01*
X204208095Y-66014166D02*
X204350952Y-66014166D01*
X204350952Y-66014166D02*
X204446190Y-66061785D01*
X204446190Y-66061785D02*
X204493809Y-66109404D01*
X204493809Y-66109404D02*
X204541428Y-66204642D01*
X204541428Y-66204642D02*
X204541428Y-66585594D01*
X204017619Y-65157023D02*
X204017619Y-65347499D01*
X204017619Y-65347499D02*
X204065238Y-65442737D01*
X204065238Y-65442737D02*
X204112857Y-65490356D01*
X204112857Y-65490356D02*
X204255714Y-65585594D01*
X204255714Y-65585594D02*
X204446190Y-65633213D01*
X204446190Y-65633213D02*
X204827142Y-65633213D01*
X204827142Y-65633213D02*
X204922380Y-65585594D01*
X204922380Y-65585594D02*
X204970000Y-65537975D01*
X204970000Y-65537975D02*
X205017619Y-65442737D01*
X205017619Y-65442737D02*
X205017619Y-65252261D01*
X205017619Y-65252261D02*
X204970000Y-65157023D01*
X204970000Y-65157023D02*
X204922380Y-65109404D01*
X204922380Y-65109404D02*
X204827142Y-65061785D01*
X204827142Y-65061785D02*
X204589047Y-65061785D01*
X204589047Y-65061785D02*
X204493809Y-65109404D01*
X204493809Y-65109404D02*
X204446190Y-65157023D01*
X204446190Y-65157023D02*
X204398571Y-65252261D01*
X204398571Y-65252261D02*
X204398571Y-65442737D01*
X204398571Y-65442737D02*
X204446190Y-65537975D01*
X204446190Y-65537975D02*
X204493809Y-65585594D01*
X204493809Y-65585594D02*
X204589047Y-65633213D01*
X115127380Y-114212666D02*
X115175000Y-114260285D01*
X115175000Y-114260285D02*
X115222619Y-114403142D01*
X115222619Y-114403142D02*
X115222619Y-114498380D01*
X115222619Y-114498380D02*
X115175000Y-114641237D01*
X115175000Y-114641237D02*
X115079761Y-114736475D01*
X115079761Y-114736475D02*
X114984523Y-114784094D01*
X114984523Y-114784094D02*
X114794047Y-114831713D01*
X114794047Y-114831713D02*
X114651190Y-114831713D01*
X114651190Y-114831713D02*
X114460714Y-114784094D01*
X114460714Y-114784094D02*
X114365476Y-114736475D01*
X114365476Y-114736475D02*
X114270238Y-114641237D01*
X114270238Y-114641237D02*
X114222619Y-114498380D01*
X114222619Y-114498380D02*
X114222619Y-114403142D01*
X114222619Y-114403142D02*
X114270238Y-114260285D01*
X114270238Y-114260285D02*
X114317857Y-114212666D01*
X114317857Y-113831713D02*
X114270238Y-113784094D01*
X114270238Y-113784094D02*
X114222619Y-113688856D01*
X114222619Y-113688856D02*
X114222619Y-113450761D01*
X114222619Y-113450761D02*
X114270238Y-113355523D01*
X114270238Y-113355523D02*
X114317857Y-113307904D01*
X114317857Y-113307904D02*
X114413095Y-113260285D01*
X114413095Y-113260285D02*
X114508333Y-113260285D01*
X114508333Y-113260285D02*
X114651190Y-113307904D01*
X114651190Y-113307904D02*
X115222619Y-113879332D01*
X115222619Y-113879332D02*
X115222619Y-113260285D01*
D12*
X110410666Y-134590619D02*
X110410666Y-135304904D01*
X110410666Y-135304904D02*
X110363047Y-135447761D01*
X110363047Y-135447761D02*
X110267809Y-135543000D01*
X110267809Y-135543000D02*
X110124952Y-135590619D01*
X110124952Y-135590619D02*
X110029714Y-135590619D01*
X111315428Y-134923952D02*
X111315428Y-135590619D01*
X111077333Y-134543000D02*
X110839238Y-135257285D01*
X110839238Y-135257285D02*
X111458285Y-135257285D01*
D10*
X159218333Y-51635380D02*
X159170714Y-51683000D01*
X159170714Y-51683000D02*
X159027857Y-51730619D01*
X159027857Y-51730619D02*
X158932619Y-51730619D01*
X158932619Y-51730619D02*
X158789762Y-51683000D01*
X158789762Y-51683000D02*
X158694524Y-51587761D01*
X158694524Y-51587761D02*
X158646905Y-51492523D01*
X158646905Y-51492523D02*
X158599286Y-51302047D01*
X158599286Y-51302047D02*
X158599286Y-51159190D01*
X158599286Y-51159190D02*
X158646905Y-50968714D01*
X158646905Y-50968714D02*
X158694524Y-50873476D01*
X158694524Y-50873476D02*
X158789762Y-50778238D01*
X158789762Y-50778238D02*
X158932619Y-50730619D01*
X158932619Y-50730619D02*
X159027857Y-50730619D01*
X159027857Y-50730619D02*
X159170714Y-50778238D01*
X159170714Y-50778238D02*
X159218333Y-50825857D01*
X160075476Y-50730619D02*
X159885000Y-50730619D01*
X159885000Y-50730619D02*
X159789762Y-50778238D01*
X159789762Y-50778238D02*
X159742143Y-50825857D01*
X159742143Y-50825857D02*
X159646905Y-50968714D01*
X159646905Y-50968714D02*
X159599286Y-51159190D01*
X159599286Y-51159190D02*
X159599286Y-51540142D01*
X159599286Y-51540142D02*
X159646905Y-51635380D01*
X159646905Y-51635380D02*
X159694524Y-51683000D01*
X159694524Y-51683000D02*
X159789762Y-51730619D01*
X159789762Y-51730619D02*
X159980238Y-51730619D01*
X159980238Y-51730619D02*
X160075476Y-51683000D01*
X160075476Y-51683000D02*
X160123095Y-51635380D01*
X160123095Y-51635380D02*
X160170714Y-51540142D01*
X160170714Y-51540142D02*
X160170714Y-51302047D01*
X160170714Y-51302047D02*
X160123095Y-51206809D01*
X160123095Y-51206809D02*
X160075476Y-51159190D01*
X160075476Y-51159190D02*
X159980238Y-51111571D01*
X159980238Y-51111571D02*
X159789762Y-51111571D01*
X159789762Y-51111571D02*
X159694524Y-51159190D01*
X159694524Y-51159190D02*
X159646905Y-51206809D01*
X159646905Y-51206809D02*
X159599286Y-51302047D01*
X185312619Y-96656904D02*
X186122142Y-96656904D01*
X186122142Y-96656904D02*
X186217380Y-96609285D01*
X186217380Y-96609285D02*
X186265000Y-96561666D01*
X186265000Y-96561666D02*
X186312619Y-96466428D01*
X186312619Y-96466428D02*
X186312619Y-96275952D01*
X186312619Y-96275952D02*
X186265000Y-96180714D01*
X186265000Y-96180714D02*
X186217380Y-96133095D01*
X186217380Y-96133095D02*
X186122142Y-96085476D01*
X186122142Y-96085476D02*
X185312619Y-96085476D01*
X185407857Y-95656904D02*
X185360238Y-95609285D01*
X185360238Y-95609285D02*
X185312619Y-95514047D01*
X185312619Y-95514047D02*
X185312619Y-95275952D01*
X185312619Y-95275952D02*
X185360238Y-95180714D01*
X185360238Y-95180714D02*
X185407857Y-95133095D01*
X185407857Y-95133095D02*
X185503095Y-95085476D01*
X185503095Y-95085476D02*
X185598333Y-95085476D01*
X185598333Y-95085476D02*
X185741190Y-95133095D01*
X185741190Y-95133095D02*
X186312619Y-95704523D01*
X186312619Y-95704523D02*
X186312619Y-95085476D01*
X204932619Y-76366666D02*
X204456428Y-76699999D01*
X204932619Y-76938094D02*
X203932619Y-76938094D01*
X203932619Y-76938094D02*
X203932619Y-76557142D01*
X203932619Y-76557142D02*
X203980238Y-76461904D01*
X203980238Y-76461904D02*
X204027857Y-76414285D01*
X204027857Y-76414285D02*
X204123095Y-76366666D01*
X204123095Y-76366666D02*
X204265952Y-76366666D01*
X204265952Y-76366666D02*
X204361190Y-76414285D01*
X204361190Y-76414285D02*
X204408809Y-76461904D01*
X204408809Y-76461904D02*
X204456428Y-76557142D01*
X204456428Y-76557142D02*
X204456428Y-76938094D01*
X204361190Y-75795237D02*
X204313571Y-75890475D01*
X204313571Y-75890475D02*
X204265952Y-75938094D01*
X204265952Y-75938094D02*
X204170714Y-75985713D01*
X204170714Y-75985713D02*
X204123095Y-75985713D01*
X204123095Y-75985713D02*
X204027857Y-75938094D01*
X204027857Y-75938094D02*
X203980238Y-75890475D01*
X203980238Y-75890475D02*
X203932619Y-75795237D01*
X203932619Y-75795237D02*
X203932619Y-75604761D01*
X203932619Y-75604761D02*
X203980238Y-75509523D01*
X203980238Y-75509523D02*
X204027857Y-75461904D01*
X204027857Y-75461904D02*
X204123095Y-75414285D01*
X204123095Y-75414285D02*
X204170714Y-75414285D01*
X204170714Y-75414285D02*
X204265952Y-75461904D01*
X204265952Y-75461904D02*
X204313571Y-75509523D01*
X204313571Y-75509523D02*
X204361190Y-75604761D01*
X204361190Y-75604761D02*
X204361190Y-75795237D01*
X204361190Y-75795237D02*
X204408809Y-75890475D01*
X204408809Y-75890475D02*
X204456428Y-75938094D01*
X204456428Y-75938094D02*
X204551666Y-75985713D01*
X204551666Y-75985713D02*
X204742142Y-75985713D01*
X204742142Y-75985713D02*
X204837380Y-75938094D01*
X204837380Y-75938094D02*
X204885000Y-75890475D01*
X204885000Y-75890475D02*
X204932619Y-75795237D01*
X204932619Y-75795237D02*
X204932619Y-75604761D01*
X204932619Y-75604761D02*
X204885000Y-75509523D01*
X204885000Y-75509523D02*
X204837380Y-75461904D01*
X204837380Y-75461904D02*
X204742142Y-75414285D01*
X204742142Y-75414285D02*
X204551666Y-75414285D01*
X204551666Y-75414285D02*
X204456428Y-75461904D01*
X204456428Y-75461904D02*
X204408809Y-75509523D01*
X204408809Y-75509523D02*
X204361190Y-75604761D01*
D12*
X126031666Y-134590619D02*
X126031666Y-135304904D01*
X126031666Y-135304904D02*
X125984047Y-135447761D01*
X125984047Y-135447761D02*
X125888809Y-135543000D01*
X125888809Y-135543000D02*
X125745952Y-135590619D01*
X125745952Y-135590619D02*
X125650714Y-135590619D01*
X126412619Y-134590619D02*
X127079285Y-134590619D01*
X127079285Y-134590619D02*
X126650714Y-135590619D01*
D10*
X196048333Y-53519380D02*
X196000714Y-53567000D01*
X196000714Y-53567000D02*
X195857857Y-53614619D01*
X195857857Y-53614619D02*
X195762619Y-53614619D01*
X195762619Y-53614619D02*
X195619762Y-53567000D01*
X195619762Y-53567000D02*
X195524524Y-53471761D01*
X195524524Y-53471761D02*
X195476905Y-53376523D01*
X195476905Y-53376523D02*
X195429286Y-53186047D01*
X195429286Y-53186047D02*
X195429286Y-53043190D01*
X195429286Y-53043190D02*
X195476905Y-52852714D01*
X195476905Y-52852714D02*
X195524524Y-52757476D01*
X195524524Y-52757476D02*
X195619762Y-52662238D01*
X195619762Y-52662238D02*
X195762619Y-52614619D01*
X195762619Y-52614619D02*
X195857857Y-52614619D01*
X195857857Y-52614619D02*
X196000714Y-52662238D01*
X196000714Y-52662238D02*
X196048333Y-52709857D01*
X196524524Y-53614619D02*
X196715000Y-53614619D01*
X196715000Y-53614619D02*
X196810238Y-53567000D01*
X196810238Y-53567000D02*
X196857857Y-53519380D01*
X196857857Y-53519380D02*
X196953095Y-53376523D01*
X196953095Y-53376523D02*
X197000714Y-53186047D01*
X197000714Y-53186047D02*
X197000714Y-52805095D01*
X197000714Y-52805095D02*
X196953095Y-52709857D01*
X196953095Y-52709857D02*
X196905476Y-52662238D01*
X196905476Y-52662238D02*
X196810238Y-52614619D01*
X196810238Y-52614619D02*
X196619762Y-52614619D01*
X196619762Y-52614619D02*
X196524524Y-52662238D01*
X196524524Y-52662238D02*
X196476905Y-52709857D01*
X196476905Y-52709857D02*
X196429286Y-52805095D01*
X196429286Y-52805095D02*
X196429286Y-53043190D01*
X196429286Y-53043190D02*
X196476905Y-53138428D01*
X196476905Y-53138428D02*
X196524524Y-53186047D01*
X196524524Y-53186047D02*
X196619762Y-53233666D01*
X196619762Y-53233666D02*
X196810238Y-53233666D01*
X196810238Y-53233666D02*
X196905476Y-53186047D01*
X196905476Y-53186047D02*
X196953095Y-53138428D01*
X196953095Y-53138428D02*
X197000714Y-53043190D01*
X189607619Y-90336666D02*
X189131428Y-90669999D01*
X189607619Y-90908094D02*
X188607619Y-90908094D01*
X188607619Y-90908094D02*
X188607619Y-90527142D01*
X188607619Y-90527142D02*
X188655238Y-90431904D01*
X188655238Y-90431904D02*
X188702857Y-90384285D01*
X188702857Y-90384285D02*
X188798095Y-90336666D01*
X188798095Y-90336666D02*
X188940952Y-90336666D01*
X188940952Y-90336666D02*
X189036190Y-90384285D01*
X189036190Y-90384285D02*
X189083809Y-90431904D01*
X189083809Y-90431904D02*
X189131428Y-90527142D01*
X189131428Y-90527142D02*
X189131428Y-90908094D01*
X188940952Y-89479523D02*
X189607619Y-89479523D01*
X188560000Y-89717618D02*
X189274285Y-89955713D01*
X189274285Y-89955713D02*
X189274285Y-89336666D01*
D12*
X214296666Y-73757619D02*
X214296666Y-74471904D01*
X214296666Y-74471904D02*
X214249047Y-74614761D01*
X214249047Y-74614761D02*
X214153809Y-74710000D01*
X214153809Y-74710000D02*
X214010952Y-74757619D01*
X214010952Y-74757619D02*
X213915714Y-74757619D01*
X215201428Y-73757619D02*
X215010952Y-73757619D01*
X215010952Y-73757619D02*
X214915714Y-73805238D01*
X214915714Y-73805238D02*
X214868095Y-73852857D01*
X214868095Y-73852857D02*
X214772857Y-73995714D01*
X214772857Y-73995714D02*
X214725238Y-74186190D01*
X214725238Y-74186190D02*
X214725238Y-74567142D01*
X214725238Y-74567142D02*
X214772857Y-74662380D01*
X214772857Y-74662380D02*
X214820476Y-74710000D01*
X214820476Y-74710000D02*
X214915714Y-74757619D01*
X214915714Y-74757619D02*
X215106190Y-74757619D01*
X215106190Y-74757619D02*
X215201428Y-74710000D01*
X215201428Y-74710000D02*
X215249047Y-74662380D01*
X215249047Y-74662380D02*
X215296666Y-74567142D01*
X215296666Y-74567142D02*
X215296666Y-74329047D01*
X215296666Y-74329047D02*
X215249047Y-74233809D01*
X215249047Y-74233809D02*
X215201428Y-74186190D01*
X215201428Y-74186190D02*
X215106190Y-74138571D01*
X215106190Y-74138571D02*
X214915714Y-74138571D01*
X214915714Y-74138571D02*
X214820476Y-74186190D01*
X214820476Y-74186190D02*
X214772857Y-74233809D01*
X214772857Y-74233809D02*
X214725238Y-74329047D01*
D10*
X206013095Y-101812619D02*
X206013095Y-102622142D01*
X206013095Y-102622142D02*
X206060714Y-102717380D01*
X206060714Y-102717380D02*
X206108333Y-102765000D01*
X206108333Y-102765000D02*
X206203571Y-102812619D01*
X206203571Y-102812619D02*
X206394047Y-102812619D01*
X206394047Y-102812619D02*
X206489285Y-102765000D01*
X206489285Y-102765000D02*
X206536904Y-102717380D01*
X206536904Y-102717380D02*
X206584523Y-102622142D01*
X206584523Y-102622142D02*
X206584523Y-101812619D01*
X207584523Y-102812619D02*
X207013095Y-102812619D01*
X207298809Y-102812619D02*
X207298809Y-101812619D01*
X207298809Y-101812619D02*
X207203571Y-101955476D01*
X207203571Y-101955476D02*
X207108333Y-102050714D01*
X207108333Y-102050714D02*
X207013095Y-102098333D01*
D12*
X214296666Y-56612619D02*
X214296666Y-57326904D01*
X214296666Y-57326904D02*
X214249047Y-57469761D01*
X214249047Y-57469761D02*
X214153809Y-57565000D01*
X214153809Y-57565000D02*
X214010952Y-57612619D01*
X214010952Y-57612619D02*
X213915714Y-57612619D01*
X215249047Y-56612619D02*
X214772857Y-56612619D01*
X214772857Y-56612619D02*
X214725238Y-57088809D01*
X214725238Y-57088809D02*
X214772857Y-57041190D01*
X214772857Y-57041190D02*
X214868095Y-56993571D01*
X214868095Y-56993571D02*
X215106190Y-56993571D01*
X215106190Y-56993571D02*
X215201428Y-57041190D01*
X215201428Y-57041190D02*
X215249047Y-57088809D01*
X215249047Y-57088809D02*
X215296666Y-57184047D01*
X215296666Y-57184047D02*
X215296666Y-57422142D01*
X215296666Y-57422142D02*
X215249047Y-57517380D01*
X215249047Y-57517380D02*
X215201428Y-57565000D01*
X215201428Y-57565000D02*
X215106190Y-57612619D01*
X215106190Y-57612619D02*
X214868095Y-57612619D01*
X214868095Y-57612619D02*
X214772857Y-57565000D01*
X214772857Y-57565000D02*
X214725238Y-57517380D01*
X92514761Y-50133333D02*
X91086190Y-50133333D01*
X91086190Y-50133333D02*
X90800476Y-50038094D01*
X90800476Y-50038094D02*
X90610000Y-49847618D01*
X90610000Y-49847618D02*
X90514761Y-49561904D01*
X90514761Y-49561904D02*
X90514761Y-49371428D01*
X90514761Y-52133333D02*
X90514761Y-50990476D01*
X90514761Y-51561904D02*
X92514761Y-51561904D01*
X92514761Y-51561904D02*
X92229047Y-51371428D01*
X92229047Y-51371428D02*
X92038571Y-51180952D01*
X92038571Y-51180952D02*
X91943333Y-50990476D01*
X125938619Y-64761666D02*
X125938619Y-65237856D01*
X125938619Y-65237856D02*
X124938619Y-65237856D01*
X125033857Y-64475951D02*
X124986238Y-64428332D01*
X124986238Y-64428332D02*
X124938619Y-64333094D01*
X124938619Y-64333094D02*
X124938619Y-64094999D01*
X124938619Y-64094999D02*
X124986238Y-63999761D01*
X124986238Y-63999761D02*
X125033857Y-63952142D01*
X125033857Y-63952142D02*
X125129095Y-63904523D01*
X125129095Y-63904523D02*
X125224333Y-63904523D01*
X125224333Y-63904523D02*
X125367190Y-63952142D01*
X125367190Y-63952142D02*
X125938619Y-64523570D01*
X125938619Y-64523570D02*
X125938619Y-63904523D01*
D10*
X90638333Y-93124380D02*
X90590714Y-93172000D01*
X90590714Y-93172000D02*
X90447857Y-93219619D01*
X90447857Y-93219619D02*
X90352619Y-93219619D01*
X90352619Y-93219619D02*
X90209762Y-93172000D01*
X90209762Y-93172000D02*
X90114524Y-93076761D01*
X90114524Y-93076761D02*
X90066905Y-92981523D01*
X90066905Y-92981523D02*
X90019286Y-92791047D01*
X90019286Y-92791047D02*
X90019286Y-92648190D01*
X90019286Y-92648190D02*
X90066905Y-92457714D01*
X90066905Y-92457714D02*
X90114524Y-92362476D01*
X90114524Y-92362476D02*
X90209762Y-92267238D01*
X90209762Y-92267238D02*
X90352619Y-92219619D01*
X90352619Y-92219619D02*
X90447857Y-92219619D01*
X90447857Y-92219619D02*
X90590714Y-92267238D01*
X90590714Y-92267238D02*
X90638333Y-92314857D01*
X90971667Y-92219619D02*
X91590714Y-92219619D01*
X91590714Y-92219619D02*
X91257381Y-92600571D01*
X91257381Y-92600571D02*
X91400238Y-92600571D01*
X91400238Y-92600571D02*
X91495476Y-92648190D01*
X91495476Y-92648190D02*
X91543095Y-92695809D01*
X91543095Y-92695809D02*
X91590714Y-92791047D01*
X91590714Y-92791047D02*
X91590714Y-93029142D01*
X91590714Y-93029142D02*
X91543095Y-93124380D01*
X91543095Y-93124380D02*
X91495476Y-93172000D01*
X91495476Y-93172000D02*
X91400238Y-93219619D01*
X91400238Y-93219619D02*
X91114524Y-93219619D01*
X91114524Y-93219619D02*
X91019286Y-93172000D01*
X91019286Y-93172000D02*
X90971667Y-93124380D01*
X169955833Y-88177619D02*
X169622500Y-87701428D01*
X169384405Y-88177619D02*
X169384405Y-87177619D01*
X169384405Y-87177619D02*
X169765357Y-87177619D01*
X169765357Y-87177619D02*
X169860595Y-87225238D01*
X169860595Y-87225238D02*
X169908214Y-87272857D01*
X169908214Y-87272857D02*
X169955833Y-87368095D01*
X169955833Y-87368095D02*
X169955833Y-87510952D01*
X169955833Y-87510952D02*
X169908214Y-87606190D01*
X169908214Y-87606190D02*
X169860595Y-87653809D01*
X169860595Y-87653809D02*
X169765357Y-87701428D01*
X169765357Y-87701428D02*
X169384405Y-87701428D01*
X170908214Y-88177619D02*
X170336786Y-88177619D01*
X170622500Y-88177619D02*
X170622500Y-87177619D01*
X170622500Y-87177619D02*
X170527262Y-87320476D01*
X170527262Y-87320476D02*
X170432024Y-87415714D01*
X170432024Y-87415714D02*
X170336786Y-87463333D01*
X159278333Y-93425380D02*
X159230714Y-93473000D01*
X159230714Y-93473000D02*
X159087857Y-93520619D01*
X159087857Y-93520619D02*
X158992619Y-93520619D01*
X158992619Y-93520619D02*
X158849762Y-93473000D01*
X158849762Y-93473000D02*
X158754524Y-93377761D01*
X158754524Y-93377761D02*
X158706905Y-93282523D01*
X158706905Y-93282523D02*
X158659286Y-93092047D01*
X158659286Y-93092047D02*
X158659286Y-92949190D01*
X158659286Y-92949190D02*
X158706905Y-92758714D01*
X158706905Y-92758714D02*
X158754524Y-92663476D01*
X158754524Y-92663476D02*
X158849762Y-92568238D01*
X158849762Y-92568238D02*
X158992619Y-92520619D01*
X158992619Y-92520619D02*
X159087857Y-92520619D01*
X159087857Y-92520619D02*
X159230714Y-92568238D01*
X159230714Y-92568238D02*
X159278333Y-92615857D01*
X160183095Y-92520619D02*
X159706905Y-92520619D01*
X159706905Y-92520619D02*
X159659286Y-92996809D01*
X159659286Y-92996809D02*
X159706905Y-92949190D01*
X159706905Y-92949190D02*
X159802143Y-92901571D01*
X159802143Y-92901571D02*
X160040238Y-92901571D01*
X160040238Y-92901571D02*
X160135476Y-92949190D01*
X160135476Y-92949190D02*
X160183095Y-92996809D01*
X160183095Y-92996809D02*
X160230714Y-93092047D01*
X160230714Y-93092047D02*
X160230714Y-93330142D01*
X160230714Y-93330142D02*
X160183095Y-93425380D01*
X160183095Y-93425380D02*
X160135476Y-93473000D01*
X160135476Y-93473000D02*
X160040238Y-93520619D01*
X160040238Y-93520619D02*
X159802143Y-93520619D01*
X159802143Y-93520619D02*
X159706905Y-93473000D01*
X159706905Y-93473000D02*
X159659286Y-93425380D01*
X189607619Y-85256666D02*
X189131428Y-85589999D01*
X189607619Y-85828094D02*
X188607619Y-85828094D01*
X188607619Y-85828094D02*
X188607619Y-85447142D01*
X188607619Y-85447142D02*
X188655238Y-85351904D01*
X188655238Y-85351904D02*
X188702857Y-85304285D01*
X188702857Y-85304285D02*
X188798095Y-85256666D01*
X188798095Y-85256666D02*
X188940952Y-85256666D01*
X188940952Y-85256666D02*
X189036190Y-85304285D01*
X189036190Y-85304285D02*
X189083809Y-85351904D01*
X189083809Y-85351904D02*
X189131428Y-85447142D01*
X189131428Y-85447142D02*
X189131428Y-85828094D01*
X188702857Y-84875713D02*
X188655238Y-84828094D01*
X188655238Y-84828094D02*
X188607619Y-84732856D01*
X188607619Y-84732856D02*
X188607619Y-84494761D01*
X188607619Y-84494761D02*
X188655238Y-84399523D01*
X188655238Y-84399523D02*
X188702857Y-84351904D01*
X188702857Y-84351904D02*
X188798095Y-84304285D01*
X188798095Y-84304285D02*
X188893333Y-84304285D01*
X188893333Y-84304285D02*
X189036190Y-84351904D01*
X189036190Y-84351904D02*
X189607619Y-84923332D01*
X189607619Y-84923332D02*
X189607619Y-84304285D01*
X209738754Y-105645566D02*
X209691135Y-105693186D01*
X209691135Y-105693186D02*
X209548278Y-105740805D01*
X209548278Y-105740805D02*
X209453040Y-105740805D01*
X209453040Y-105740805D02*
X209310183Y-105693186D01*
X209310183Y-105693186D02*
X209214945Y-105597947D01*
X209214945Y-105597947D02*
X209167326Y-105502709D01*
X209167326Y-105502709D02*
X209119707Y-105312233D01*
X209119707Y-105312233D02*
X209119707Y-105169376D01*
X209119707Y-105169376D02*
X209167326Y-104978900D01*
X209167326Y-104978900D02*
X209214945Y-104883662D01*
X209214945Y-104883662D02*
X209310183Y-104788424D01*
X209310183Y-104788424D02*
X209453040Y-104740805D01*
X209453040Y-104740805D02*
X209548278Y-104740805D01*
X209548278Y-104740805D02*
X209691135Y-104788424D01*
X209691135Y-104788424D02*
X209738754Y-104836043D01*
X210072088Y-104740805D02*
X210738754Y-104740805D01*
X210738754Y-104740805D02*
X210310183Y-105740805D01*
D12*
X163367380Y-122380476D02*
X164367380Y-122380476D01*
X164367380Y-122380476D02*
X163653095Y-122713809D01*
X163653095Y-122713809D02*
X164367380Y-123047142D01*
X164367380Y-123047142D02*
X163367380Y-123047142D01*
X163367380Y-124047142D02*
X163367380Y-123475714D01*
X163367380Y-123761428D02*
X164367380Y-123761428D01*
X164367380Y-123761428D02*
X164224523Y-123666190D01*
X164224523Y-123666190D02*
X164129285Y-123570952D01*
X164129285Y-123570952D02*
X164081666Y-123475714D01*
D10*
X175285833Y-88177619D02*
X174952500Y-87701428D01*
X174714405Y-88177619D02*
X174714405Y-87177619D01*
X174714405Y-87177619D02*
X175095357Y-87177619D01*
X175095357Y-87177619D02*
X175190595Y-87225238D01*
X175190595Y-87225238D02*
X175238214Y-87272857D01*
X175238214Y-87272857D02*
X175285833Y-87368095D01*
X175285833Y-87368095D02*
X175285833Y-87510952D01*
X175285833Y-87510952D02*
X175238214Y-87606190D01*
X175238214Y-87606190D02*
X175190595Y-87653809D01*
X175190595Y-87653809D02*
X175095357Y-87701428D01*
X175095357Y-87701428D02*
X174714405Y-87701428D01*
X175619167Y-87177619D02*
X176238214Y-87177619D01*
X176238214Y-87177619D02*
X175904881Y-87558571D01*
X175904881Y-87558571D02*
X176047738Y-87558571D01*
X176047738Y-87558571D02*
X176142976Y-87606190D01*
X176142976Y-87606190D02*
X176190595Y-87653809D01*
X176190595Y-87653809D02*
X176238214Y-87749047D01*
X176238214Y-87749047D02*
X176238214Y-87987142D01*
X176238214Y-87987142D02*
X176190595Y-88082380D01*
X176190595Y-88082380D02*
X176142976Y-88130000D01*
X176142976Y-88130000D02*
X176047738Y-88177619D01*
X176047738Y-88177619D02*
X175762024Y-88177619D01*
X175762024Y-88177619D02*
X175666786Y-88130000D01*
X175666786Y-88130000D02*
X175619167Y-88082380D01*
D12*
X125784619Y-92495666D02*
X125784619Y-92971856D01*
X125784619Y-92971856D02*
X124784619Y-92971856D01*
X125784619Y-91638523D02*
X125784619Y-92209951D01*
X125784619Y-91924237D02*
X124784619Y-91924237D01*
X124784619Y-91924237D02*
X124927476Y-92019475D01*
X124927476Y-92019475D02*
X125022714Y-92114713D01*
X125022714Y-92114713D02*
X125070333Y-92209951D01*
D10*
X107682380Y-126880857D02*
X107730000Y-126928476D01*
X107730000Y-126928476D02*
X107777619Y-127071333D01*
X107777619Y-127071333D02*
X107777619Y-127166571D01*
X107777619Y-127166571D02*
X107730000Y-127309428D01*
X107730000Y-127309428D02*
X107634761Y-127404666D01*
X107634761Y-127404666D02*
X107539523Y-127452285D01*
X107539523Y-127452285D02*
X107349047Y-127499904D01*
X107349047Y-127499904D02*
X107206190Y-127499904D01*
X107206190Y-127499904D02*
X107015714Y-127452285D01*
X107015714Y-127452285D02*
X106920476Y-127404666D01*
X106920476Y-127404666D02*
X106825238Y-127309428D01*
X106825238Y-127309428D02*
X106777619Y-127166571D01*
X106777619Y-127166571D02*
X106777619Y-127071333D01*
X106777619Y-127071333D02*
X106825238Y-126928476D01*
X106825238Y-126928476D02*
X106872857Y-126880857D01*
X107777619Y-125928476D02*
X107777619Y-126499904D01*
X107777619Y-126214190D02*
X106777619Y-126214190D01*
X106777619Y-126214190D02*
X106920476Y-126309428D01*
X106920476Y-126309428D02*
X107015714Y-126404666D01*
X107015714Y-126404666D02*
X107063333Y-126499904D01*
X106777619Y-125309428D02*
X106777619Y-125214190D01*
X106777619Y-125214190D02*
X106825238Y-125118952D01*
X106825238Y-125118952D02*
X106872857Y-125071333D01*
X106872857Y-125071333D02*
X106968095Y-125023714D01*
X106968095Y-125023714D02*
X107158571Y-124976095D01*
X107158571Y-124976095D02*
X107396666Y-124976095D01*
X107396666Y-124976095D02*
X107587142Y-125023714D01*
X107587142Y-125023714D02*
X107682380Y-125071333D01*
X107682380Y-125071333D02*
X107730000Y-125118952D01*
X107730000Y-125118952D02*
X107777619Y-125214190D01*
X107777619Y-125214190D02*
X107777619Y-125309428D01*
X107777619Y-125309428D02*
X107730000Y-125404666D01*
X107730000Y-125404666D02*
X107682380Y-125452285D01*
X107682380Y-125452285D02*
X107587142Y-125499904D01*
X107587142Y-125499904D02*
X107396666Y-125547523D01*
X107396666Y-125547523D02*
X107158571Y-125547523D01*
X107158571Y-125547523D02*
X106968095Y-125499904D01*
X106968095Y-125499904D02*
X106872857Y-125452285D01*
X106872857Y-125452285D02*
X106825238Y-125404666D01*
X106825238Y-125404666D02*
X106777619Y-125309428D01*
X181873333Y-90255380D02*
X181825714Y-90303000D01*
X181825714Y-90303000D02*
X181682857Y-90350619D01*
X181682857Y-90350619D02*
X181587619Y-90350619D01*
X181587619Y-90350619D02*
X181444762Y-90303000D01*
X181444762Y-90303000D02*
X181349524Y-90207761D01*
X181349524Y-90207761D02*
X181301905Y-90112523D01*
X181301905Y-90112523D02*
X181254286Y-89922047D01*
X181254286Y-89922047D02*
X181254286Y-89779190D01*
X181254286Y-89779190D02*
X181301905Y-89588714D01*
X181301905Y-89588714D02*
X181349524Y-89493476D01*
X181349524Y-89493476D02*
X181444762Y-89398238D01*
X181444762Y-89398238D02*
X181587619Y-89350619D01*
X181587619Y-89350619D02*
X181682857Y-89350619D01*
X181682857Y-89350619D02*
X181825714Y-89398238D01*
X181825714Y-89398238D02*
X181873333Y-89445857D01*
X182444762Y-89779190D02*
X182349524Y-89731571D01*
X182349524Y-89731571D02*
X182301905Y-89683952D01*
X182301905Y-89683952D02*
X182254286Y-89588714D01*
X182254286Y-89588714D02*
X182254286Y-89541095D01*
X182254286Y-89541095D02*
X182301905Y-89445857D01*
X182301905Y-89445857D02*
X182349524Y-89398238D01*
X182349524Y-89398238D02*
X182444762Y-89350619D01*
X182444762Y-89350619D02*
X182635238Y-89350619D01*
X182635238Y-89350619D02*
X182730476Y-89398238D01*
X182730476Y-89398238D02*
X182778095Y-89445857D01*
X182778095Y-89445857D02*
X182825714Y-89541095D01*
X182825714Y-89541095D02*
X182825714Y-89588714D01*
X182825714Y-89588714D02*
X182778095Y-89683952D01*
X182778095Y-89683952D02*
X182730476Y-89731571D01*
X182730476Y-89731571D02*
X182635238Y-89779190D01*
X182635238Y-89779190D02*
X182444762Y-89779190D01*
X182444762Y-89779190D02*
X182349524Y-89826809D01*
X182349524Y-89826809D02*
X182301905Y-89874428D01*
X182301905Y-89874428D02*
X182254286Y-89969666D01*
X182254286Y-89969666D02*
X182254286Y-90160142D01*
X182254286Y-90160142D02*
X182301905Y-90255380D01*
X182301905Y-90255380D02*
X182349524Y-90303000D01*
X182349524Y-90303000D02*
X182444762Y-90350619D01*
X182444762Y-90350619D02*
X182635238Y-90350619D01*
X182635238Y-90350619D02*
X182730476Y-90303000D01*
X182730476Y-90303000D02*
X182778095Y-90255380D01*
X182778095Y-90255380D02*
X182825714Y-90160142D01*
X182825714Y-90160142D02*
X182825714Y-89969666D01*
X182825714Y-89969666D02*
X182778095Y-89874428D01*
X182778095Y-89874428D02*
X182730476Y-89826809D01*
X182730476Y-89826809D02*
X182635238Y-89779190D01*
X205017619Y-71286666D02*
X204541428Y-71619999D01*
X205017619Y-71858094D02*
X204017619Y-71858094D01*
X204017619Y-71858094D02*
X204017619Y-71477142D01*
X204017619Y-71477142D02*
X204065238Y-71381904D01*
X204065238Y-71381904D02*
X204112857Y-71334285D01*
X204112857Y-71334285D02*
X204208095Y-71286666D01*
X204208095Y-71286666D02*
X204350952Y-71286666D01*
X204350952Y-71286666D02*
X204446190Y-71334285D01*
X204446190Y-71334285D02*
X204493809Y-71381904D01*
X204493809Y-71381904D02*
X204541428Y-71477142D01*
X204541428Y-71477142D02*
X204541428Y-71858094D01*
X204017619Y-70953332D02*
X204017619Y-70286666D01*
X204017619Y-70286666D02*
X205017619Y-70715237D01*
X193346905Y-126482619D02*
X193346905Y-125482619D01*
X193346905Y-125482619D02*
X193585000Y-125482619D01*
X193585000Y-125482619D02*
X193727857Y-125530238D01*
X193727857Y-125530238D02*
X193823095Y-125625476D01*
X193823095Y-125625476D02*
X193870714Y-125720714D01*
X193870714Y-125720714D02*
X193918333Y-125911190D01*
X193918333Y-125911190D02*
X193918333Y-126054047D01*
X193918333Y-126054047D02*
X193870714Y-126244523D01*
X193870714Y-126244523D02*
X193823095Y-126339761D01*
X193823095Y-126339761D02*
X193727857Y-126435000D01*
X193727857Y-126435000D02*
X193585000Y-126482619D01*
X193585000Y-126482619D02*
X193346905Y-126482619D01*
X194870714Y-126482619D02*
X194299286Y-126482619D01*
X194585000Y-126482619D02*
X194585000Y-125482619D01*
X194585000Y-125482619D02*
X194489762Y-125625476D01*
X194489762Y-125625476D02*
X194394524Y-125720714D01*
X194394524Y-125720714D02*
X194299286Y-125768333D01*
X110317619Y-126404666D02*
X109841428Y-126737999D01*
X110317619Y-126976094D02*
X109317619Y-126976094D01*
X109317619Y-126976094D02*
X109317619Y-126595142D01*
X109317619Y-126595142D02*
X109365238Y-126499904D01*
X109365238Y-126499904D02*
X109412857Y-126452285D01*
X109412857Y-126452285D02*
X109508095Y-126404666D01*
X109508095Y-126404666D02*
X109650952Y-126404666D01*
X109650952Y-126404666D02*
X109746190Y-126452285D01*
X109746190Y-126452285D02*
X109793809Y-126499904D01*
X109793809Y-126499904D02*
X109841428Y-126595142D01*
X109841428Y-126595142D02*
X109841428Y-126976094D01*
X109317619Y-125499904D02*
X109317619Y-125976094D01*
X109317619Y-125976094D02*
X109793809Y-126023713D01*
X109793809Y-126023713D02*
X109746190Y-125976094D01*
X109746190Y-125976094D02*
X109698571Y-125880856D01*
X109698571Y-125880856D02*
X109698571Y-125642761D01*
X109698571Y-125642761D02*
X109746190Y-125547523D01*
X109746190Y-125547523D02*
X109793809Y-125499904D01*
X109793809Y-125499904D02*
X109889047Y-125452285D01*
X109889047Y-125452285D02*
X110127142Y-125452285D01*
X110127142Y-125452285D02*
X110222380Y-125499904D01*
X110222380Y-125499904D02*
X110270000Y-125547523D01*
X110270000Y-125547523D02*
X110317619Y-125642761D01*
X110317619Y-125642761D02*
X110317619Y-125880856D01*
X110317619Y-125880856D02*
X110270000Y-125976094D01*
X110270000Y-125976094D02*
X110222380Y-126023713D01*
X158583333Y-74027380D02*
X158535714Y-74075000D01*
X158535714Y-74075000D02*
X158392857Y-74122619D01*
X158392857Y-74122619D02*
X158297619Y-74122619D01*
X158297619Y-74122619D02*
X158154762Y-74075000D01*
X158154762Y-74075000D02*
X158059524Y-73979761D01*
X158059524Y-73979761D02*
X158011905Y-73884523D01*
X158011905Y-73884523D02*
X157964286Y-73694047D01*
X157964286Y-73694047D02*
X157964286Y-73551190D01*
X157964286Y-73551190D02*
X158011905Y-73360714D01*
X158011905Y-73360714D02*
X158059524Y-73265476D01*
X158059524Y-73265476D02*
X158154762Y-73170238D01*
X158154762Y-73170238D02*
X158297619Y-73122619D01*
X158297619Y-73122619D02*
X158392857Y-73122619D01*
X158392857Y-73122619D02*
X158535714Y-73170238D01*
X158535714Y-73170238D02*
X158583333Y-73217857D01*
X159440476Y-73455952D02*
X159440476Y-74122619D01*
X159202381Y-73075000D02*
X158964286Y-73789285D01*
X158964286Y-73789285D02*
X159583333Y-73789285D01*
D12*
X95787380Y-120316666D02*
X95073095Y-120316666D01*
X95073095Y-120316666D02*
X94930238Y-120269047D01*
X94930238Y-120269047D02*
X94835000Y-120173809D01*
X94835000Y-120173809D02*
X94787380Y-120030952D01*
X94787380Y-120030952D02*
X94787380Y-119935714D01*
X95692142Y-120745238D02*
X95739761Y-120792857D01*
X95739761Y-120792857D02*
X95787380Y-120888095D01*
X95787380Y-120888095D02*
X95787380Y-121126190D01*
X95787380Y-121126190D02*
X95739761Y-121221428D01*
X95739761Y-121221428D02*
X95692142Y-121269047D01*
X95692142Y-121269047D02*
X95596904Y-121316666D01*
X95596904Y-121316666D02*
X95501666Y-121316666D01*
X95501666Y-121316666D02*
X95358809Y-121269047D01*
X95358809Y-121269047D02*
X94787380Y-120697619D01*
X94787380Y-120697619D02*
X94787380Y-121316666D01*
D10*
X204644666Y-133066619D02*
X204644666Y-133780904D01*
X204644666Y-133780904D02*
X204597047Y-133923761D01*
X204597047Y-133923761D02*
X204501809Y-134019000D01*
X204501809Y-134019000D02*
X204358952Y-134066619D01*
X204358952Y-134066619D02*
X204263714Y-134066619D01*
X205025619Y-133066619D02*
X205644666Y-133066619D01*
X205644666Y-133066619D02*
X205311333Y-133447571D01*
X205311333Y-133447571D02*
X205454190Y-133447571D01*
X205454190Y-133447571D02*
X205549428Y-133495190D01*
X205549428Y-133495190D02*
X205597047Y-133542809D01*
X205597047Y-133542809D02*
X205644666Y-133638047D01*
X205644666Y-133638047D02*
X205644666Y-133876142D01*
X205644666Y-133876142D02*
X205597047Y-133971380D01*
X205597047Y-133971380D02*
X205549428Y-134019000D01*
X205549428Y-134019000D02*
X205454190Y-134066619D01*
X205454190Y-134066619D02*
X205168476Y-134066619D01*
X205168476Y-134066619D02*
X205073238Y-134019000D01*
X205073238Y-134019000D02*
X205025619Y-133971380D01*
X211288333Y-131780619D02*
X210812143Y-131780619D01*
X210812143Y-131780619D02*
X210812143Y-130780619D01*
X211526429Y-130780619D02*
X212145476Y-130780619D01*
X212145476Y-130780619D02*
X211812143Y-131161571D01*
X211812143Y-131161571D02*
X211955000Y-131161571D01*
X211955000Y-131161571D02*
X212050238Y-131209190D01*
X212050238Y-131209190D02*
X212097857Y-131256809D01*
X212097857Y-131256809D02*
X212145476Y-131352047D01*
X212145476Y-131352047D02*
X212145476Y-131590142D01*
X212145476Y-131590142D02*
X212097857Y-131685380D01*
X212097857Y-131685380D02*
X212050238Y-131733000D01*
X212050238Y-131733000D02*
X211955000Y-131780619D01*
X211955000Y-131780619D02*
X211669286Y-131780619D01*
X211669286Y-131780619D02*
X211574048Y-131733000D01*
X211574048Y-131733000D02*
X211526429Y-131685380D01*
D13*
X138886000Y-109132000D02*
X138886000Y-113372000D01*
X147626000Y-113372000D02*
X147626000Y-109132000D01*
X138886000Y-109132000D02*
X147626000Y-109132000D01*
X147626000Y-113372000D02*
X138886000Y-113372000D01*
X185010000Y-113474698D02*
X185010000Y-112674698D01*
X184610000Y-113074698D02*
X185410000Y-113074698D01*
X183245000Y-109065000D02*
X191405000Y-109065000D01*
X183245000Y-109025000D02*
X191405000Y-109025000D01*
X183245000Y-108985000D02*
X191405000Y-108985000D01*
X183246000Y-108945000D02*
X191404000Y-108945000D01*
X183248000Y-108905000D02*
X191402000Y-108905000D01*
X183249000Y-108865000D02*
X191401000Y-108865000D01*
X183251000Y-108825000D02*
X191399000Y-108825000D01*
X183254000Y-108785000D02*
X191396000Y-108785000D01*
X183257000Y-108745000D02*
X191393000Y-108745000D01*
X183260000Y-108705000D02*
X191390000Y-108705000D01*
X183264000Y-108665000D02*
X191386000Y-108665000D01*
X183268000Y-108625000D02*
X191382000Y-108625000D01*
X183273000Y-108585000D02*
X191377000Y-108585000D01*
X183277000Y-108545000D02*
X191373000Y-108545000D01*
X183283000Y-108505000D02*
X191367000Y-108505000D01*
X183288000Y-108465000D02*
X191362000Y-108465000D01*
X183295000Y-108425000D02*
X191355000Y-108425000D01*
X183301000Y-108385000D02*
X191349000Y-108385000D01*
X183308000Y-108344000D02*
X186285000Y-108344000D01*
X188365000Y-108344000D02*
X191342000Y-108344000D01*
X183315000Y-108304000D02*
X186285000Y-108304000D01*
X188365000Y-108304000D02*
X191335000Y-108304000D01*
X183323000Y-108264000D02*
X186285000Y-108264000D01*
X188365000Y-108264000D02*
X191327000Y-108264000D01*
X183331000Y-108224000D02*
X186285000Y-108224000D01*
X188365000Y-108224000D02*
X191319000Y-108224000D01*
X183340000Y-108184000D02*
X186285000Y-108184000D01*
X188365000Y-108184000D02*
X191310000Y-108184000D01*
X183349000Y-108144000D02*
X186285000Y-108144000D01*
X188365000Y-108144000D02*
X191301000Y-108144000D01*
X183358000Y-108104000D02*
X186285000Y-108104000D01*
X188365000Y-108104000D02*
X191292000Y-108104000D01*
X183368000Y-108064000D02*
X186285000Y-108064000D01*
X188365000Y-108064000D02*
X191282000Y-108064000D01*
X183378000Y-108024000D02*
X186285000Y-108024000D01*
X188365000Y-108024000D02*
X191272000Y-108024000D01*
X183389000Y-107984000D02*
X186285000Y-107984000D01*
X188365000Y-107984000D02*
X191261000Y-107984000D01*
X183400000Y-107944000D02*
X186285000Y-107944000D01*
X188365000Y-107944000D02*
X191250000Y-107944000D01*
X183411000Y-107904000D02*
X186285000Y-107904000D01*
X188365000Y-107904000D02*
X191239000Y-107904000D01*
X183423000Y-107864000D02*
X186285000Y-107864000D01*
X188365000Y-107864000D02*
X191227000Y-107864000D01*
X183436000Y-107824000D02*
X186285000Y-107824000D01*
X188365000Y-107824000D02*
X191214000Y-107824000D01*
X183448000Y-107784000D02*
X186285000Y-107784000D01*
X188365000Y-107784000D02*
X191202000Y-107784000D01*
X183462000Y-107744000D02*
X186285000Y-107744000D01*
X188365000Y-107744000D02*
X191188000Y-107744000D01*
X183475000Y-107704000D02*
X186285000Y-107704000D01*
X188365000Y-107704000D02*
X191175000Y-107704000D01*
X183490000Y-107664000D02*
X186285000Y-107664000D01*
X188365000Y-107664000D02*
X191160000Y-107664000D01*
X183504000Y-107624000D02*
X186285000Y-107624000D01*
X188365000Y-107624000D02*
X191146000Y-107624000D01*
X183520000Y-107584000D02*
X186285000Y-107584000D01*
X188365000Y-107584000D02*
X191130000Y-107584000D01*
X183535000Y-107544000D02*
X186285000Y-107544000D01*
X188365000Y-107544000D02*
X191115000Y-107544000D01*
X183551000Y-107504000D02*
X186285000Y-107504000D01*
X188365000Y-107504000D02*
X191099000Y-107504000D01*
X183568000Y-107464000D02*
X186285000Y-107464000D01*
X188365000Y-107464000D02*
X191082000Y-107464000D01*
X183585000Y-107424000D02*
X186285000Y-107424000D01*
X188365000Y-107424000D02*
X191065000Y-107424000D01*
X183603000Y-107384000D02*
X186285000Y-107384000D01*
X188365000Y-107384000D02*
X191047000Y-107384000D01*
X183621000Y-107344000D02*
X186285000Y-107344000D01*
X188365000Y-107344000D02*
X191029000Y-107344000D01*
X183639000Y-107304000D02*
X186285000Y-107304000D01*
X188365000Y-107304000D02*
X191011000Y-107304000D01*
X183659000Y-107264000D02*
X186285000Y-107264000D01*
X188365000Y-107264000D02*
X190991000Y-107264000D01*
X183678000Y-107224000D02*
X186285000Y-107224000D01*
X188365000Y-107224000D02*
X190972000Y-107224000D01*
X183698000Y-107184000D02*
X186285000Y-107184000D01*
X188365000Y-107184000D02*
X190952000Y-107184000D01*
X183719000Y-107144000D02*
X186285000Y-107144000D01*
X188365000Y-107144000D02*
X190931000Y-107144000D01*
X183741000Y-107104000D02*
X186285000Y-107104000D01*
X188365000Y-107104000D02*
X190909000Y-107104000D01*
X183763000Y-107064000D02*
X186285000Y-107064000D01*
X188365000Y-107064000D02*
X190887000Y-107064000D01*
X183785000Y-107024000D02*
X186285000Y-107024000D01*
X188365000Y-107024000D02*
X190865000Y-107024000D01*
X183808000Y-106984000D02*
X186285000Y-106984000D01*
X188365000Y-106984000D02*
X190842000Y-106984000D01*
X183832000Y-106944000D02*
X186285000Y-106944000D01*
X188365000Y-106944000D02*
X190818000Y-106944000D01*
X183856000Y-106904000D02*
X186285000Y-106904000D01*
X188365000Y-106904000D02*
X190794000Y-106904000D01*
X183881000Y-106864000D02*
X186285000Y-106864000D01*
X188365000Y-106864000D02*
X190769000Y-106864000D01*
X183907000Y-106824000D02*
X186285000Y-106824000D01*
X188365000Y-106824000D02*
X190743000Y-106824000D01*
X183933000Y-106784000D02*
X186285000Y-106784000D01*
X188365000Y-106784000D02*
X190717000Y-106784000D01*
X183960000Y-106744000D02*
X186285000Y-106744000D01*
X188365000Y-106744000D02*
X190690000Y-106744000D01*
X183987000Y-106704000D02*
X186285000Y-106704000D01*
X188365000Y-106704000D02*
X190663000Y-106704000D01*
X184016000Y-106664000D02*
X186285000Y-106664000D01*
X188365000Y-106664000D02*
X190634000Y-106664000D01*
X184045000Y-106624000D02*
X186285000Y-106624000D01*
X188365000Y-106624000D02*
X190605000Y-106624000D01*
X184075000Y-106584000D02*
X186285000Y-106584000D01*
X188365000Y-106584000D02*
X190575000Y-106584000D01*
X184105000Y-106544000D02*
X186285000Y-106544000D01*
X188365000Y-106544000D02*
X190545000Y-106544000D01*
X184136000Y-106504000D02*
X186285000Y-106504000D01*
X188365000Y-106504000D02*
X190514000Y-106504000D01*
X184169000Y-106464000D02*
X186285000Y-106464000D01*
X188365000Y-106464000D02*
X190481000Y-106464000D01*
X184201000Y-106424000D02*
X186285000Y-106424000D01*
X188365000Y-106424000D02*
X190449000Y-106424000D01*
X184235000Y-106384000D02*
X186285000Y-106384000D01*
X188365000Y-106384000D02*
X190415000Y-106384000D01*
X184270000Y-106344000D02*
X186285000Y-106344000D01*
X188365000Y-106344000D02*
X190380000Y-106344000D01*
X184306000Y-106304000D02*
X186285000Y-106304000D01*
X188365000Y-106304000D02*
X190344000Y-106304000D01*
X184342000Y-106264000D02*
X190308000Y-106264000D01*
X184380000Y-106224000D02*
X190270000Y-106224000D01*
X184418000Y-106184000D02*
X190232000Y-106184000D01*
X184458000Y-106144000D02*
X190192000Y-106144000D01*
X184499000Y-106104000D02*
X190151000Y-106104000D01*
X184541000Y-106064000D02*
X190109000Y-106064000D01*
X184584000Y-106024000D02*
X190066000Y-106024000D01*
X184628000Y-105984000D02*
X190022000Y-105984000D01*
X184674000Y-105944000D02*
X189976000Y-105944000D01*
X184721000Y-105904000D02*
X189929000Y-105904000D01*
X184769000Y-105864000D02*
X189881000Y-105864000D01*
X184820000Y-105824000D02*
X189830000Y-105824000D01*
X184871000Y-105784000D02*
X189779000Y-105784000D01*
X184925000Y-105744000D02*
X189725000Y-105744000D01*
X184980000Y-105704000D02*
X189670000Y-105704000D01*
X185038000Y-105664000D02*
X189612000Y-105664000D01*
X185097000Y-105624000D02*
X189553000Y-105624000D01*
X185159000Y-105584000D02*
X189491000Y-105584000D01*
X185223000Y-105544000D02*
X189427000Y-105544000D01*
X185291000Y-105504000D02*
X189359000Y-105504000D01*
X185361000Y-105464000D02*
X189289000Y-105464000D01*
X185435000Y-105424000D02*
X189215000Y-105424000D01*
X185512000Y-105384000D02*
X189138000Y-105384000D01*
X185594000Y-105344000D02*
X189056000Y-105344000D01*
X185680000Y-105304000D02*
X188970000Y-105304000D01*
X185773000Y-105264000D02*
X188877000Y-105264000D01*
X185872000Y-105224000D02*
X188778000Y-105224000D01*
X185979000Y-105184000D02*
X188671000Y-105184000D01*
X186096000Y-105144000D02*
X188554000Y-105144000D01*
X186227000Y-105104000D02*
X188423000Y-105104000D01*
X186377000Y-105064000D02*
X188273000Y-105064000D01*
X186557000Y-105024000D02*
X188093000Y-105024000D01*
X186792000Y-104984000D02*
X187858000Y-104984000D01*
X191445000Y-109065000D02*
G75*
G03*
X191445000Y-109065000I-4120000J0D01*
G01*
X205465000Y-66574564D02*
X205465000Y-65120436D01*
X207285000Y-66574564D02*
X207285000Y-65120436D01*
X128378000Y-119616000D02*
X128378000Y-115231000D01*
X128378000Y-119616000D02*
X104138000Y-119616000D01*
X128378000Y-112861000D02*
X128378000Y-108476000D01*
X128378000Y-108476000D02*
X104138000Y-108476000D01*
X104138000Y-119616000D02*
X104138000Y-115231000D01*
X104138000Y-112861000D02*
X104138000Y-108476000D01*
D12*
X112395000Y-132588000D02*
X117475000Y-132588000D01*
X117475000Y-132588000D02*
X117475000Y-137668000D01*
X117475000Y-137668000D02*
X112395000Y-137668000D01*
X112395000Y-137668000D02*
X112395000Y-132588000D01*
D13*
X154765000Y-52398000D02*
X154765000Y-54072000D01*
X154765000Y-52398000D02*
X164005000Y-52398000D01*
X154765000Y-55964000D02*
X154765000Y-57638000D01*
X154765000Y-57638000D02*
X164005000Y-57638000D01*
X164005000Y-52398000D02*
X164005000Y-54072000D01*
X164005000Y-55964000D02*
X164005000Y-57638000D01*
X184850000Y-93245000D02*
X179650000Y-93245000D01*
X179650000Y-93245000D02*
X179650000Y-98545000D01*
X184850000Y-94895000D02*
X184850000Y-93245000D01*
X184850000Y-98545000D02*
X184850000Y-96895000D01*
X179650000Y-98545000D02*
X184850000Y-98545000D01*
X184850000Y-94895000D02*
G75*
G03*
X184850000Y-96895000I0J-1000000D01*
G01*
X207285000Y-75472936D02*
X207285000Y-76927064D01*
X205465000Y-75472936D02*
X205465000Y-76927064D01*
D12*
X125095000Y-137668000D02*
X120015000Y-137668000D01*
X120015000Y-137668000D02*
X120015000Y-132588000D01*
X120015000Y-132588000D02*
X125095000Y-132588000D01*
X125095000Y-132588000D02*
X125095000Y-137668000D01*
D13*
X201835000Y-56500000D02*
X197400000Y-56500000D01*
X201835000Y-56500000D02*
X201835000Y-85740000D01*
X195030000Y-56500000D02*
X190595000Y-56500000D01*
X190595000Y-56500000D02*
X190595000Y-85740000D01*
X201835000Y-85740000D02*
X197400000Y-85740000D01*
X195030000Y-85740000D02*
X190595000Y-85740000D01*
X188235000Y-89442936D02*
X188235000Y-90897064D01*
X186415000Y-89442936D02*
X186415000Y-90897064D01*
D12*
X211074000Y-75946000D02*
X218186000Y-75946000D01*
X218186000Y-75946000D02*
X218186000Y-82804000D01*
X218186000Y-82804000D02*
X211074000Y-82804000D01*
X211074000Y-82804000D02*
X211074000Y-75946000D01*
D13*
X194590000Y-111850000D02*
X195540000Y-111850000D01*
X195540000Y-111850000D02*
X195540000Y-116975000D01*
X204040000Y-111850000D02*
X204040000Y-112950000D01*
X204990000Y-111850000D02*
X204040000Y-111850000D01*
X194590000Y-110350000D02*
X194590000Y-111850000D01*
X204990000Y-110350000D02*
X204990000Y-111850000D01*
D12*
X211074000Y-58166000D02*
X218186000Y-58166000D01*
X218186000Y-58166000D02*
X218186000Y-65024000D01*
X218186000Y-65024000D02*
X211074000Y-65024000D01*
X211074000Y-65024000D02*
X211074000Y-58166000D01*
X83820000Y-53340000D02*
X85064600Y-53340000D01*
X85064600Y-53340000D02*
X85064600Y-77597000D01*
X85064600Y-77597000D02*
X83820000Y-77597000D01*
X83820000Y-77597000D02*
X83820000Y-53340000D01*
X85064600Y-53340000D02*
X95504000Y-53340000D01*
X95504000Y-53340000D02*
X95504000Y-77597000D01*
X95504000Y-77597000D02*
X85064600Y-77597000D01*
X85064600Y-77597000D02*
X85064600Y-53340000D01*
X143256000Y-67945000D02*
X143256000Y-55245000D01*
X134366000Y-70485000D02*
X134366000Y-52705000D01*
X116586000Y-70485000D02*
X116586000Y-52705000D01*
X107696000Y-67945000D02*
X107696000Y-55245000D01*
X147066000Y-75311000D02*
X103886000Y-75311000D01*
X103886000Y-75311000D02*
X103886000Y-48133000D01*
X103886000Y-48133000D02*
X147066000Y-48133000D01*
X147066000Y-48133000D02*
X147066000Y-75311000D01*
D13*
X84600000Y-105285000D02*
X88985000Y-105285000D01*
X84600000Y-105285000D02*
X84600000Y-81045000D01*
X91355000Y-105285000D02*
X95740000Y-105285000D01*
X95740000Y-105285000D02*
X95740000Y-81045000D01*
X84600000Y-81045000D02*
X88985000Y-81045000D01*
X91355000Y-81045000D02*
X95740000Y-81045000D01*
X169395436Y-88625000D02*
X170849564Y-88625000D01*
X169395436Y-90445000D02*
X170849564Y-90445000D01*
X164065000Y-91928000D02*
X164065000Y-90254000D01*
X164065000Y-91928000D02*
X154825000Y-91928000D01*
X164065000Y-88362000D02*
X164065000Y-86688000D01*
X164065000Y-86688000D02*
X154825000Y-86688000D01*
X154825000Y-91928000D02*
X154825000Y-90254000D01*
X154825000Y-88362000D02*
X154825000Y-86688000D01*
X188235000Y-84362936D02*
X188235000Y-85817064D01*
X186415000Y-84362936D02*
X186415000Y-85817064D01*
X211680000Y-113474698D02*
X211680000Y-112674698D01*
X211280000Y-113074698D02*
X212080000Y-113074698D01*
X209915000Y-109065000D02*
X218075000Y-109065000D01*
X209915000Y-109025000D02*
X218075000Y-109025000D01*
X209915000Y-108985000D02*
X218075000Y-108985000D01*
X209916000Y-108945000D02*
X218074000Y-108945000D01*
X209918000Y-108905000D02*
X218072000Y-108905000D01*
X209919000Y-108865000D02*
X218071000Y-108865000D01*
X209921000Y-108825000D02*
X218069000Y-108825000D01*
X209924000Y-108785000D02*
X218066000Y-108785000D01*
X209927000Y-108745000D02*
X218063000Y-108745000D01*
X209930000Y-108705000D02*
X218060000Y-108705000D01*
X209934000Y-108665000D02*
X218056000Y-108665000D01*
X209938000Y-108625000D02*
X218052000Y-108625000D01*
X209943000Y-108585000D02*
X218047000Y-108585000D01*
X209947000Y-108545000D02*
X218043000Y-108545000D01*
X209953000Y-108505000D02*
X218037000Y-108505000D01*
X209958000Y-108465000D02*
X218032000Y-108465000D01*
X209965000Y-108425000D02*
X218025000Y-108425000D01*
X209971000Y-108385000D02*
X218019000Y-108385000D01*
X209978000Y-108344000D02*
X212955000Y-108344000D01*
X215035000Y-108344000D02*
X218012000Y-108344000D01*
X209985000Y-108304000D02*
X212955000Y-108304000D01*
X215035000Y-108304000D02*
X218005000Y-108304000D01*
X209993000Y-108264000D02*
X212955000Y-108264000D01*
X215035000Y-108264000D02*
X217997000Y-108264000D01*
X210001000Y-108224000D02*
X212955000Y-108224000D01*
X215035000Y-108224000D02*
X217989000Y-108224000D01*
X210010000Y-108184000D02*
X212955000Y-108184000D01*
X215035000Y-108184000D02*
X217980000Y-108184000D01*
X210019000Y-108144000D02*
X212955000Y-108144000D01*
X215035000Y-108144000D02*
X217971000Y-108144000D01*
X210028000Y-108104000D02*
X212955000Y-108104000D01*
X215035000Y-108104000D02*
X217962000Y-108104000D01*
X210038000Y-108064000D02*
X212955000Y-108064000D01*
X215035000Y-108064000D02*
X217952000Y-108064000D01*
X210048000Y-108024000D02*
X212955000Y-108024000D01*
X215035000Y-108024000D02*
X217942000Y-108024000D01*
X210059000Y-107984000D02*
X212955000Y-107984000D01*
X215035000Y-107984000D02*
X217931000Y-107984000D01*
X210070000Y-107944000D02*
X212955000Y-107944000D01*
X215035000Y-107944000D02*
X217920000Y-107944000D01*
X210081000Y-107904000D02*
X212955000Y-107904000D01*
X215035000Y-107904000D02*
X217909000Y-107904000D01*
X210093000Y-107864000D02*
X212955000Y-107864000D01*
X215035000Y-107864000D02*
X217897000Y-107864000D01*
X210106000Y-107824000D02*
X212955000Y-107824000D01*
X215035000Y-107824000D02*
X217884000Y-107824000D01*
X210118000Y-107784000D02*
X212955000Y-107784000D01*
X215035000Y-107784000D02*
X217872000Y-107784000D01*
X210132000Y-107744000D02*
X212955000Y-107744000D01*
X215035000Y-107744000D02*
X217858000Y-107744000D01*
X210145000Y-107704000D02*
X212955000Y-107704000D01*
X215035000Y-107704000D02*
X217845000Y-107704000D01*
X210160000Y-107664000D02*
X212955000Y-107664000D01*
X215035000Y-107664000D02*
X217830000Y-107664000D01*
X210174000Y-107624000D02*
X212955000Y-107624000D01*
X215035000Y-107624000D02*
X217816000Y-107624000D01*
X210190000Y-107584000D02*
X212955000Y-107584000D01*
X215035000Y-107584000D02*
X217800000Y-107584000D01*
X210205000Y-107544000D02*
X212955000Y-107544000D01*
X215035000Y-107544000D02*
X217785000Y-107544000D01*
X210221000Y-107504000D02*
X212955000Y-107504000D01*
X215035000Y-107504000D02*
X217769000Y-107504000D01*
X210238000Y-107464000D02*
X212955000Y-107464000D01*
X215035000Y-107464000D02*
X217752000Y-107464000D01*
X210255000Y-107424000D02*
X212955000Y-107424000D01*
X215035000Y-107424000D02*
X217735000Y-107424000D01*
X210273000Y-107384000D02*
X212955000Y-107384000D01*
X215035000Y-107384000D02*
X217717000Y-107384000D01*
X210291000Y-107344000D02*
X212955000Y-107344000D01*
X215035000Y-107344000D02*
X217699000Y-107344000D01*
X210309000Y-107304000D02*
X212955000Y-107304000D01*
X215035000Y-107304000D02*
X217681000Y-107304000D01*
X210329000Y-107264000D02*
X212955000Y-107264000D01*
X215035000Y-107264000D02*
X217661000Y-107264000D01*
X210348000Y-107224000D02*
X212955000Y-107224000D01*
X215035000Y-107224000D02*
X217642000Y-107224000D01*
X210368000Y-107184000D02*
X212955000Y-107184000D01*
X215035000Y-107184000D02*
X217622000Y-107184000D01*
X210389000Y-107144000D02*
X212955000Y-107144000D01*
X215035000Y-107144000D02*
X217601000Y-107144000D01*
X210411000Y-107104000D02*
X212955000Y-107104000D01*
X215035000Y-107104000D02*
X217579000Y-107104000D01*
X210433000Y-107064000D02*
X212955000Y-107064000D01*
X215035000Y-107064000D02*
X217557000Y-107064000D01*
X210455000Y-107024000D02*
X212955000Y-107024000D01*
X215035000Y-107024000D02*
X217535000Y-107024000D01*
X210478000Y-106984000D02*
X212955000Y-106984000D01*
X215035000Y-106984000D02*
X217512000Y-106984000D01*
X210502000Y-106944000D02*
X212955000Y-106944000D01*
X215035000Y-106944000D02*
X217488000Y-106944000D01*
X210526000Y-106904000D02*
X212955000Y-106904000D01*
X215035000Y-106904000D02*
X217464000Y-106904000D01*
X210551000Y-106864000D02*
X212955000Y-106864000D01*
X215035000Y-106864000D02*
X217439000Y-106864000D01*
X210577000Y-106824000D02*
X212955000Y-106824000D01*
X215035000Y-106824000D02*
X217413000Y-106824000D01*
X210603000Y-106784000D02*
X212955000Y-106784000D01*
X215035000Y-106784000D02*
X217387000Y-106784000D01*
X210630000Y-106744000D02*
X212955000Y-106744000D01*
X215035000Y-106744000D02*
X217360000Y-106744000D01*
X210657000Y-106704000D02*
X212955000Y-106704000D01*
X215035000Y-106704000D02*
X217333000Y-106704000D01*
X210686000Y-106664000D02*
X212955000Y-106664000D01*
X215035000Y-106664000D02*
X217304000Y-106664000D01*
X210715000Y-106624000D02*
X212955000Y-106624000D01*
X215035000Y-106624000D02*
X217275000Y-106624000D01*
X210745000Y-106584000D02*
X212955000Y-106584000D01*
X215035000Y-106584000D02*
X217245000Y-106584000D01*
X210775000Y-106544000D02*
X212955000Y-106544000D01*
X215035000Y-106544000D02*
X217215000Y-106544000D01*
X210806000Y-106504000D02*
X212955000Y-106504000D01*
X215035000Y-106504000D02*
X217184000Y-106504000D01*
X210839000Y-106464000D02*
X212955000Y-106464000D01*
X215035000Y-106464000D02*
X217151000Y-106464000D01*
X210871000Y-106424000D02*
X212955000Y-106424000D01*
X215035000Y-106424000D02*
X217119000Y-106424000D01*
X210905000Y-106384000D02*
X212955000Y-106384000D01*
X215035000Y-106384000D02*
X217085000Y-106384000D01*
X210940000Y-106344000D02*
X212955000Y-106344000D01*
X215035000Y-106344000D02*
X217050000Y-106344000D01*
X210976000Y-106304000D02*
X212955000Y-106304000D01*
X215035000Y-106304000D02*
X217014000Y-106304000D01*
X211012000Y-106264000D02*
X216978000Y-106264000D01*
X211050000Y-106224000D02*
X216940000Y-106224000D01*
X211088000Y-106184000D02*
X216902000Y-106184000D01*
X211128000Y-106144000D02*
X216862000Y-106144000D01*
X211169000Y-106104000D02*
X216821000Y-106104000D01*
X211211000Y-106064000D02*
X216779000Y-106064000D01*
X211254000Y-106024000D02*
X216736000Y-106024000D01*
X211298000Y-105984000D02*
X216692000Y-105984000D01*
X211344000Y-105944000D02*
X216646000Y-105944000D01*
X211391000Y-105904000D02*
X216599000Y-105904000D01*
X211439000Y-105864000D02*
X216551000Y-105864000D01*
X211490000Y-105824000D02*
X216500000Y-105824000D01*
X211541000Y-105784000D02*
X216449000Y-105784000D01*
X211595000Y-105744000D02*
X216395000Y-105744000D01*
X211650000Y-105704000D02*
X216340000Y-105704000D01*
X211708000Y-105664000D02*
X216282000Y-105664000D01*
X211767000Y-105624000D02*
X216223000Y-105624000D01*
X211829000Y-105584000D02*
X216161000Y-105584000D01*
X211893000Y-105544000D02*
X216097000Y-105544000D01*
X211961000Y-105504000D02*
X216029000Y-105504000D01*
X212031000Y-105464000D02*
X215959000Y-105464000D01*
X212105000Y-105424000D02*
X215885000Y-105424000D01*
X212182000Y-105384000D02*
X215808000Y-105384000D01*
X212264000Y-105344000D02*
X215726000Y-105344000D01*
X212350000Y-105304000D02*
X215640000Y-105304000D01*
X212443000Y-105264000D02*
X215547000Y-105264000D01*
X212542000Y-105224000D02*
X215448000Y-105224000D01*
X212649000Y-105184000D02*
X215341000Y-105184000D01*
X212766000Y-105144000D02*
X215224000Y-105144000D01*
X212897000Y-105104000D02*
X215093000Y-105104000D01*
X213047000Y-105064000D02*
X214943000Y-105064000D01*
X213227000Y-105024000D02*
X214763000Y-105024000D01*
X213462000Y-104984000D02*
X214528000Y-104984000D01*
X218115000Y-109065000D02*
G75*
G03*
X218115000Y-109065000I-4120000J0D01*
G01*
D12*
X175895000Y-94107000D02*
X155575000Y-94107000D01*
X155575000Y-94107000D02*
X155575000Y-125603000D01*
X155575000Y-125603000D02*
X175895000Y-125603000D01*
X175895000Y-125603000D02*
X175895000Y-94107000D01*
D13*
X174725436Y-88625000D02*
X176179564Y-88625000D01*
X174725436Y-90445000D02*
X176179564Y-90445000D01*
D12*
X143256000Y-99060000D02*
X143256000Y-86360000D01*
X134366000Y-101600000D02*
X134366000Y-83820000D01*
X116586000Y-101600000D02*
X116586000Y-83820000D01*
X107696000Y-99060000D02*
X107696000Y-86360000D01*
X147066000Y-106426000D02*
X103886000Y-106426000D01*
X103886000Y-106426000D02*
X103886000Y-79248000D01*
X103886000Y-79248000D02*
X147066000Y-79248000D01*
X147066000Y-79248000D02*
X147066000Y-106426000D01*
D13*
X108225000Y-129336748D02*
X108225000Y-130759252D01*
X106405000Y-129336748D02*
X106405000Y-130759252D01*
X182751252Y-88948000D02*
X181328748Y-88948000D01*
X182751252Y-87128000D02*
X181328748Y-87128000D01*
X205465000Y-71847064D02*
X205465000Y-70392936D01*
X207285000Y-71847064D02*
X207285000Y-70392936D01*
X198995000Y-125170000D02*
X190485000Y-125170000D01*
X198995000Y-118670000D02*
X198995000Y-125170000D01*
X198995000Y-118670000D02*
X190485000Y-118670000D01*
X108945000Y-130775064D02*
X108945000Y-129320936D01*
X110765000Y-130775064D02*
X110765000Y-129320936D01*
X153815000Y-84738000D02*
X158200000Y-84738000D01*
X153815000Y-84738000D02*
X153815000Y-60498000D01*
X160570000Y-84738000D02*
X164955000Y-84738000D01*
X164955000Y-84738000D02*
X164955000Y-60498000D01*
X153815000Y-60498000D02*
X158200000Y-60498000D01*
X160570000Y-60498000D02*
X164955000Y-60498000D01*
D12*
X91440000Y-122555000D02*
X92684600Y-122555000D01*
X92684600Y-122555000D02*
X92684600Y-139192000D01*
X92684600Y-139192000D02*
X91440000Y-139192000D01*
X91440000Y-139192000D02*
X91440000Y-122555000D01*
X92684600Y-122555000D02*
X103124000Y-122555000D01*
X103124000Y-122555000D02*
X103124000Y-139192000D01*
X103124000Y-139192000D02*
X92684600Y-139192000D01*
X92684600Y-139192000D02*
X92684600Y-122555000D01*
D13*
X187460000Y-139300000D02*
X188460000Y-139300000D01*
X188460000Y-139300000D02*
X187960000Y-138300000D01*
X187960000Y-138300000D02*
X187460000Y-139300000D01*
X182750000Y-137910000D02*
X182750000Y-128790000D01*
X190990000Y-137910000D02*
X190990000Y-136600000D01*
X203330000Y-137910000D02*
X182750000Y-137910000D01*
X184050000Y-136600000D02*
X184050000Y-130100000D01*
X190990000Y-136600000D02*
X184050000Y-136600000D01*
X195090000Y-136600000D02*
X195090000Y-137910000D01*
X195090000Y-136600000D02*
X195090000Y-136600000D01*
X202030000Y-136600000D02*
X195090000Y-136600000D01*
X184050000Y-130100000D02*
X202030000Y-130100000D01*
X202030000Y-130100000D02*
X202030000Y-136600000D01*
X182750000Y-128790000D02*
X203330000Y-128790000D01*
X203330000Y-128790000D02*
X203330000Y-137910000D01*
X206425000Y-116890000D02*
X219025000Y-116890000D01*
X206425000Y-119890000D02*
X206425000Y-116890000D01*
X206425000Y-129490000D02*
X206425000Y-126490000D01*
X219025000Y-116890000D02*
X219025000Y-119890000D01*
X219025000Y-126490000D02*
X219025000Y-129490000D01*
X219025000Y-129490000D02*
X206425000Y-129490000D01*
%LPC*%
D14*
X140716000Y-111252000D03*
X145796000Y-111262000D03*
D15*
X83820000Y-49530000D03*
D16*
X187325000Y-110815000D03*
D17*
X187325000Y-107315000D03*
D18*
X206375000Y-67310000D03*
X206375000Y-64385000D03*
D19*
X127508000Y-114046000D03*
X105008000Y-114046000D03*
D20*
X114935000Y-135128000D03*
D14*
X155635000Y-55018000D03*
X163135000Y-55018000D03*
D16*
X183520000Y-92085000D03*
D21*
X180980000Y-92085000D03*
X180980000Y-99705000D03*
X183520000Y-99705000D03*
D22*
X206375000Y-74737500D03*
X206375000Y-77662500D03*
D20*
X122555000Y-135128000D03*
D19*
X196215000Y-57370000D03*
X196215000Y-84870000D03*
D22*
X187325000Y-88707500D03*
X187325000Y-91632500D03*
D23*
X214630000Y-79375000D03*
D15*
X182880000Y-72798000D03*
D24*
X196390000Y-114675000D03*
X198090000Y-114675000D03*
X199790000Y-114675000D03*
D25*
X199790000Y-105525000D03*
D24*
X201490000Y-114675000D03*
X203190000Y-114675000D03*
D23*
X214630000Y-61595000D03*
D15*
X83820000Y-137160000D03*
D20*
X90170000Y-57785000D03*
X90170000Y-65405000D03*
X90170000Y-73025000D03*
D26*
X143510000Y-71501000D03*
X134620000Y-73279000D03*
X116586000Y-73279000D03*
X107950000Y-71501000D03*
X116586000Y-50165000D03*
X107950000Y-51435000D03*
X143510000Y-51435000D03*
X134620000Y-50165000D03*
D19*
X90170000Y-104415000D03*
X90170000Y-81915000D03*
D27*
X168660000Y-89535000D03*
X171585000Y-89535000D03*
D15*
X219710000Y-137160000D03*
D14*
X163195000Y-89308000D03*
X155695000Y-89308000D03*
D22*
X187325000Y-83627500D03*
X187325000Y-86552500D03*
D16*
X213995000Y-110815000D03*
D17*
X213995000Y-107315000D03*
D28*
X173355000Y-95885000D03*
X168275000Y-95885000D03*
X158115000Y-123825000D03*
X168275000Y-123825000D03*
D27*
X173990000Y-89535000D03*
X176915000Y-89535000D03*
D26*
X143510000Y-102616000D03*
X134620000Y-104394000D03*
X116586000Y-104394000D03*
X107950000Y-102616000D03*
X116586000Y-81280000D03*
X107950000Y-82550000D03*
X143510000Y-82550000D03*
X134620000Y-81280000D03*
D29*
X107315000Y-128573000D03*
X107315000Y-131523000D03*
D30*
X183515000Y-88038000D03*
X180565000Y-88038000D03*
D18*
X206375000Y-72582500D03*
X206375000Y-69657500D03*
D31*
X197485000Y-121920000D03*
X190685000Y-121920000D03*
D15*
X219710000Y-49530000D03*
D18*
X109855000Y-131510500D03*
X109855000Y-128585500D03*
D19*
X159385000Y-83868000D03*
X159385000Y-61368000D03*
D20*
X97790000Y-127000000D03*
X97790000Y-134620000D03*
D32*
X187960000Y-134620000D03*
D33*
X187960000Y-132080000D03*
X190500000Y-134620000D03*
X190500000Y-132080000D03*
X193040000Y-134620000D03*
X193040000Y-132080000D03*
X195580000Y-134620000D03*
X195580000Y-132080000D03*
X198120000Y-134620000D03*
X198120000Y-132080000D03*
D34*
X207137000Y-123190000D03*
X218313000Y-123190000D03*
D35*
X168275000Y-80645000D03*
D15*
X168275000Y-75565000D03*
X168275000Y-70485000D03*
X168275000Y-65405000D03*
%LPD*%
M02*
