%TF.GenerationSoftware,KiCad,Pcbnew,7.0.2*%
%TF.CreationDate,2023-10-13T15:39:27+02:00*%
%TF.ProjectId,Module_3,4d6f6475-6c65-45f3-932e-6b696361645f,rev?*%
%TF.SameCoordinates,Original*%
%TF.FileFunction,Drillmap*%
%TF.FilePolarity,Positive*%
%FSLAX45Y45*%
G04 Gerber Fmt 4.5, Leading zero omitted, Abs format (unit mm)*
G04 Created by KiCad (PCBNEW 7.0.2) date 2023-10-13 15:39:27*
%MOMM*%
%LPD*%
G01*
G04 APERTURE LIST*
%ADD10C,0.100000*%
%ADD11C,0.200000*%
%ADD12C,0.050000*%
%ADD13C,0.080000*%
%ADD14C,0.120000*%
%ADD15C,0.160000*%
%ADD16C,0.180000*%
%ADD17C,0.300000*%
G04 APERTURE END LIST*
D10*
X7988300Y-4612800D02*
X22352000Y-4612800D01*
X22352000Y-14010800D01*
X7988300Y-14010800D01*
X7988300Y-4612800D01*
D11*
D12*
X17247000Y-12421000D02*
X17297000Y-12471000D01*
X17297000Y-12421000D02*
X17247000Y-12471000D01*
X17628000Y-12421000D02*
X17678000Y-12471000D01*
X17678000Y-12421000D02*
X17628000Y-12471000D01*
X18009000Y-10389000D02*
X18059000Y-10439000D01*
X18059000Y-10389000D02*
X18009000Y-10439000D01*
X18009000Y-10897000D02*
X18059000Y-10947000D01*
X18059000Y-10897000D02*
X18009000Y-10947000D01*
X18009000Y-11405000D02*
X18059000Y-11455000D01*
X18059000Y-11405000D02*
X18009000Y-11455000D01*
X18009000Y-11913000D02*
X18059000Y-11963000D01*
X18059000Y-11913000D02*
X18009000Y-11963000D01*
X18009000Y-12421000D02*
X18059000Y-12471000D01*
X18059000Y-12421000D02*
X18009000Y-12471000D01*
X18440800Y-12573400D02*
X18490800Y-12623400D01*
X18490800Y-12573400D02*
X18440800Y-12623400D01*
X18517000Y-13437000D02*
X18567000Y-13487000D01*
X18567000Y-13437000D02*
X18517000Y-13487000D01*
X18771000Y-10389000D02*
X18821000Y-10439000D01*
X18821000Y-10389000D02*
X18771000Y-10439000D01*
X18771000Y-11659000D02*
X18821000Y-11709000D01*
X18821000Y-11659000D02*
X18771000Y-11709000D01*
X18771000Y-12167000D02*
X18821000Y-12217000D01*
X18821000Y-12167000D02*
X18771000Y-12217000D01*
X19025000Y-12675000D02*
X19075000Y-12725000D01*
X19075000Y-12675000D02*
X19025000Y-12725000D01*
X19279000Y-10135000D02*
X19329000Y-10185000D01*
X19329000Y-10135000D02*
X19279000Y-10185000D01*
X19279000Y-10643000D02*
X19329000Y-10693000D01*
X19329000Y-10643000D02*
X19279000Y-10693000D01*
X19279000Y-11151000D02*
X19329000Y-11201000D01*
X19329000Y-11151000D02*
X19279000Y-11201000D01*
X20041000Y-12675000D02*
X20091000Y-12725000D01*
X20091000Y-12675000D02*
X20041000Y-12725000D01*
X20549000Y-11405000D02*
X20599000Y-11455000D01*
X20599000Y-11405000D02*
X20549000Y-11455000D01*
X20803000Y-10389000D02*
X20853000Y-10439000D01*
X20853000Y-10389000D02*
X20803000Y-10439000D01*
X20803000Y-10897000D02*
X20853000Y-10947000D01*
X20853000Y-10897000D02*
X20803000Y-10947000D01*
X20803000Y-13183000D02*
X20853000Y-13233000D01*
X20853000Y-13183000D02*
X20803000Y-13233000D01*
X20803000Y-13691000D02*
X20853000Y-13741000D01*
X20853000Y-13691000D02*
X20803000Y-13741000D01*
X21057000Y-10135000D02*
X21107000Y-10185000D01*
X21107000Y-10135000D02*
X21057000Y-10185000D01*
X21057000Y-11405000D02*
X21107000Y-11455000D01*
X21107000Y-11405000D02*
X21057000Y-11455000D01*
X21057000Y-12167000D02*
X21107000Y-12217000D01*
X21107000Y-12167000D02*
X21057000Y-12217000D01*
X21057000Y-12675000D02*
X21107000Y-12725000D01*
X21107000Y-12675000D02*
X21057000Y-12725000D01*
X21311000Y-13183000D02*
X21361000Y-13233000D01*
X21361000Y-13183000D02*
X21311000Y-13233000D01*
X21311000Y-13691000D02*
X21361000Y-13741000D01*
X21361000Y-13691000D02*
X21311000Y-13741000D01*
X21565000Y-10135000D02*
X21615000Y-10185000D01*
X21615000Y-10135000D02*
X21565000Y-10185000D01*
X21819000Y-11405000D02*
X21869000Y-11455000D01*
X21869000Y-11405000D02*
X21819000Y-11455000D01*
X22073000Y-10135000D02*
X22123000Y-10185000D01*
X22123000Y-10135000D02*
X22073000Y-10185000D01*
X22073000Y-13183000D02*
X22123000Y-13233000D01*
X22123000Y-13183000D02*
X22073000Y-13233000D01*
D13*
X18138000Y-9208500D02*
G75*
G03*
X18138000Y-9208500I-40000J0D01*
G01*
X18138000Y-9970500D02*
G75*
G03*
X18138000Y-9970500I-40000J0D01*
G01*
X18392000Y-9208500D02*
G75*
G03*
X18392000Y-9208500I-40000J0D01*
G01*
X18392000Y-9970500D02*
G75*
G03*
X18392000Y-9970500I-40000J0D01*
G01*
X18772500Y-10731500D02*
G75*
G03*
X18772500Y-10731500I-40000J0D01*
G01*
X18772500Y-11081500D02*
G75*
G03*
X18772500Y-11081500I-40000J0D01*
G01*
X21439500Y-10731500D02*
G75*
G03*
X21439500Y-10731500I-40000J0D01*
G01*
X21439500Y-11081500D02*
G75*
G03*
X21439500Y-11081500I-40000J0D01*
G01*
D10*
X14071600Y-11075200D02*
X14071600Y-11175200D01*
X14021600Y-11125200D02*
X14121600Y-11125200D01*
X14579600Y-11076200D02*
X14579600Y-11176200D01*
X14529600Y-11126200D02*
X14629600Y-11126200D01*
X15563500Y-5451800D02*
X15563500Y-5551800D01*
X15513500Y-5501800D02*
X15613500Y-5501800D01*
X15569500Y-8880800D02*
X15569500Y-8980800D01*
X15519500Y-8930800D02*
X15619500Y-8930800D01*
X15811500Y-12332500D02*
X15811500Y-12432500D01*
X15761500Y-12382500D02*
X15861500Y-12382500D01*
X16313500Y-5451800D02*
X16313500Y-5551800D01*
X16263500Y-5501800D02*
X16363500Y-5501800D01*
X16319500Y-8880800D02*
X16319500Y-8980800D01*
X16269500Y-8930800D02*
X16369500Y-8930800D01*
X16827500Y-9538500D02*
X16827500Y-9638500D01*
X16777500Y-9588500D02*
X16877500Y-9588500D01*
X16827500Y-12332500D02*
X16827500Y-12432500D01*
X16777500Y-12382500D02*
X16877500Y-12382500D01*
X17335500Y-9538500D02*
X17335500Y-9638500D01*
X17285500Y-9588500D02*
X17385500Y-9588500D01*
X18796000Y-13158000D02*
X18796000Y-13258000D01*
X18746000Y-13208000D02*
X18846000Y-13208000D01*
X18796000Y-13412000D02*
X18796000Y-13512000D01*
X18746000Y-13462000D02*
X18846000Y-13462000D01*
X19050000Y-13158000D02*
X19050000Y-13258000D01*
X19000000Y-13208000D02*
X19100000Y-13208000D01*
X19050000Y-13412000D02*
X19050000Y-13512000D01*
X19000000Y-13462000D02*
X19100000Y-13462000D01*
X19304000Y-13158000D02*
X19304000Y-13258000D01*
X19254000Y-13208000D02*
X19354000Y-13208000D01*
X19304000Y-13412000D02*
X19304000Y-13512000D01*
X19254000Y-13462000D02*
X19354000Y-13462000D01*
X19558000Y-13158000D02*
X19558000Y-13258000D01*
X19508000Y-13208000D02*
X19608000Y-13208000D01*
X19558000Y-13412000D02*
X19558000Y-13512000D01*
X19508000Y-13462000D02*
X19608000Y-13462000D01*
X19812000Y-13158000D02*
X19812000Y-13258000D01*
X19762000Y-13208000D02*
X19862000Y-13208000D01*
X19812000Y-13412000D02*
X19812000Y-13512000D01*
X19762000Y-13462000D02*
X19862000Y-13462000D01*
D14*
X9059427Y-8233927D02*
X9059427Y-8149073D01*
X8974573Y-8149073D01*
X8974573Y-8233927D01*
X9059427Y-8233927D01*
X9059427Y-10483927D02*
X9059427Y-10399073D01*
X8974573Y-10399073D01*
X8974573Y-10483927D01*
X9059427Y-10483927D01*
X10543227Y-11447027D02*
X10543227Y-11362173D01*
X10458373Y-11362173D01*
X10458373Y-11447027D01*
X10543227Y-11447027D01*
X12793227Y-11447027D02*
X12793227Y-11362173D01*
X12708373Y-11362173D01*
X12708373Y-11447027D01*
X12793227Y-11447027D01*
X15980927Y-6179227D02*
X15980927Y-6094373D01*
X15896073Y-6094373D01*
X15896073Y-6179227D01*
X15980927Y-6179227D01*
X15980927Y-8429227D02*
X15980927Y-8344373D01*
X15896073Y-8344373D01*
X15896073Y-8429227D01*
X15980927Y-8429227D01*
X19663927Y-5779427D02*
X19663927Y-5694573D01*
X19579073Y-5694573D01*
X19579073Y-5779427D01*
X19663927Y-5779427D01*
X19663927Y-8529427D02*
X19663927Y-8444573D01*
X19579073Y-8444573D01*
X19579073Y-8529427D01*
X19663927Y-8529427D01*
D15*
X11493500Y-13592800D02*
X11573500Y-13512800D01*
X11493500Y-13432800D01*
X11413500Y-13512800D01*
X11493500Y-13592800D01*
X12255500Y-13592800D02*
X12335500Y-13512800D01*
X12255500Y-13432800D01*
X12175500Y-13512800D01*
X12255500Y-13592800D01*
X16827500Y-6620500D02*
X16907500Y-6540500D01*
X16827500Y-6460500D01*
X16747500Y-6540500D01*
X16827500Y-6620500D01*
X16827500Y-7128500D02*
X16907500Y-7048500D01*
X16827500Y-6968500D01*
X16747500Y-7048500D01*
X16827500Y-7128500D01*
X16827500Y-7636500D02*
X16907500Y-7556500D01*
X16827500Y-7476500D01*
X16747500Y-7556500D01*
X16827500Y-7636500D01*
X16827500Y-8144500D02*
X16907500Y-8064500D01*
X16827500Y-7984500D01*
X16747500Y-8064500D01*
X16827500Y-8144500D01*
D16*
X8927000Y-5688500D02*
X9107000Y-5868500D01*
X9107000Y-5688500D02*
X8927000Y-5868500D01*
X9107000Y-5778500D02*
G75*
G03*
X9107000Y-5778500I-90000J0D01*
G01*
X8927000Y-6450500D02*
X9107000Y-6630500D01*
X9107000Y-6450500D02*
X8927000Y-6630500D01*
X9107000Y-6540500D02*
G75*
G03*
X9107000Y-6540500I-90000J0D01*
G01*
X8927000Y-7212500D02*
X9107000Y-7392500D01*
X9107000Y-7212500D02*
X8927000Y-7392500D01*
X9107000Y-7302500D02*
G75*
G03*
X9107000Y-7302500I-90000J0D01*
G01*
X9689000Y-12610000D02*
X9869000Y-12790000D01*
X9869000Y-12610000D02*
X9689000Y-12790000D01*
X9869000Y-12700000D02*
G75*
G03*
X9869000Y-12700000I-90000J0D01*
G01*
X9689000Y-13372000D02*
X9869000Y-13552000D01*
X9869000Y-13372000D02*
X9689000Y-13552000D01*
X9869000Y-13462000D02*
G75*
G03*
X9869000Y-13462000I-90000J0D01*
G01*
D11*
X10695000Y-5043500D02*
X10895000Y-5243500D01*
X10895000Y-5043500D02*
X10695000Y-5243500D01*
X10795000Y-5043500D02*
X10795000Y-5243500D01*
X10695000Y-5143500D02*
X10895000Y-5143500D01*
X10695000Y-7050100D02*
X10895000Y-7250100D01*
X10895000Y-7050100D02*
X10695000Y-7250100D01*
X10795000Y-7050100D02*
X10795000Y-7250100D01*
X10695000Y-7150100D02*
X10895000Y-7150100D01*
X10695000Y-8155000D02*
X10895000Y-8355000D01*
X10895000Y-8155000D02*
X10695000Y-8355000D01*
X10795000Y-8155000D02*
X10795000Y-8355000D01*
X10695000Y-8255000D02*
X10895000Y-8255000D01*
X10695000Y-10161600D02*
X10895000Y-10361600D01*
X10895000Y-10161600D02*
X10695000Y-10361600D01*
X10795000Y-10161600D02*
X10795000Y-10361600D01*
X10695000Y-10261600D02*
X10895000Y-10261600D01*
X11558600Y-4916500D02*
X11758600Y-5116500D01*
X11758600Y-4916500D02*
X11558600Y-5116500D01*
X11658600Y-4916500D02*
X11658600Y-5116500D01*
X11558600Y-5016500D02*
X11758600Y-5016500D01*
X11558600Y-7227900D02*
X11758600Y-7427900D01*
X11758600Y-7227900D02*
X11558600Y-7427900D01*
X11658600Y-7227900D02*
X11658600Y-7427900D01*
X11558600Y-7327900D02*
X11758600Y-7327900D01*
X11558600Y-8028000D02*
X11758600Y-8228000D01*
X11758600Y-8028000D02*
X11558600Y-8228000D01*
X11658600Y-8028000D02*
X11658600Y-8228000D01*
X11558600Y-8128000D02*
X11758600Y-8128000D01*
X11558600Y-10339400D02*
X11758600Y-10539400D01*
X11758600Y-10339400D02*
X11558600Y-10539400D01*
X11658600Y-10339400D02*
X11658600Y-10539400D01*
X11558600Y-10439400D02*
X11758600Y-10439400D01*
X13362000Y-4916500D02*
X13562000Y-5116500D01*
X13562000Y-4916500D02*
X13362000Y-5116500D01*
X13462000Y-4916500D02*
X13462000Y-5116500D01*
X13362000Y-5016500D02*
X13562000Y-5016500D01*
X13362000Y-7227900D02*
X13562000Y-7427900D01*
X13562000Y-7227900D02*
X13362000Y-7427900D01*
X13462000Y-7227900D02*
X13462000Y-7427900D01*
X13362000Y-7327900D02*
X13562000Y-7327900D01*
X13362000Y-8028000D02*
X13562000Y-8228000D01*
X13562000Y-8028000D02*
X13362000Y-8228000D01*
X13462000Y-8028000D02*
X13462000Y-8228000D01*
X13362000Y-8128000D02*
X13562000Y-8128000D01*
X13362000Y-10339400D02*
X13562000Y-10539400D01*
X13562000Y-10339400D02*
X13362000Y-10539400D01*
X13462000Y-10339400D02*
X13462000Y-10539400D01*
X13362000Y-10439400D02*
X13562000Y-10439400D01*
X14251000Y-5043500D02*
X14451000Y-5243500D01*
X14451000Y-5043500D02*
X14251000Y-5243500D01*
X14351000Y-5043500D02*
X14351000Y-5243500D01*
X14251000Y-5143500D02*
X14451000Y-5143500D01*
X14251000Y-7050100D02*
X14451000Y-7250100D01*
X14451000Y-7050100D02*
X14251000Y-7250100D01*
X14351000Y-7050100D02*
X14351000Y-7250100D01*
X14251000Y-7150100D02*
X14451000Y-7150100D01*
X14251000Y-8155000D02*
X14451000Y-8355000D01*
X14451000Y-8155000D02*
X14251000Y-8355000D01*
X14351000Y-8155000D02*
X14351000Y-8355000D01*
X14251000Y-8255000D02*
X14451000Y-8255000D01*
X14251000Y-10161600D02*
X14451000Y-10361600D01*
X14451000Y-10161600D02*
X14251000Y-10361600D01*
X14351000Y-10161600D02*
X14351000Y-10361600D01*
X14251000Y-10261600D02*
X14451000Y-10261600D01*
D17*
X21313000Y-6009500D02*
X21613000Y-6309500D01*
X21613000Y-6009500D02*
X21313000Y-6309500D01*
X21569067Y-6265567D02*
X21569067Y-6053433D01*
X21356933Y-6053433D01*
X21356933Y-6265567D01*
X21569067Y-6265567D01*
X21313000Y-7787500D02*
X21613000Y-8087500D01*
X21613000Y-7787500D02*
X21313000Y-8087500D01*
X21569067Y-8043567D02*
X21569067Y-7831433D01*
X21356933Y-7831433D01*
X21356933Y-8043567D01*
X21569067Y-8043567D01*
D11*
X8230919Y-14328324D02*
X8230919Y-14128324D01*
X8230919Y-14128324D02*
X8278538Y-14128324D01*
X8278538Y-14128324D02*
X8307109Y-14137848D01*
X8307109Y-14137848D02*
X8326157Y-14156895D01*
X8326157Y-14156895D02*
X8335681Y-14175943D01*
X8335681Y-14175943D02*
X8345205Y-14214038D01*
X8345205Y-14214038D02*
X8345205Y-14242609D01*
X8345205Y-14242609D02*
X8335681Y-14280705D01*
X8335681Y-14280705D02*
X8326157Y-14299752D01*
X8326157Y-14299752D02*
X8307109Y-14318800D01*
X8307109Y-14318800D02*
X8278538Y-14328324D01*
X8278538Y-14328324D02*
X8230919Y-14328324D01*
X8430919Y-14328324D02*
X8430919Y-14194990D01*
X8430919Y-14233086D02*
X8440443Y-14214038D01*
X8440443Y-14214038D02*
X8449967Y-14204514D01*
X8449967Y-14204514D02*
X8469014Y-14194990D01*
X8469014Y-14194990D02*
X8488062Y-14194990D01*
X8554729Y-14328324D02*
X8554729Y-14194990D01*
X8554729Y-14128324D02*
X8545205Y-14137848D01*
X8545205Y-14137848D02*
X8554729Y-14147371D01*
X8554729Y-14147371D02*
X8564252Y-14137848D01*
X8564252Y-14137848D02*
X8554729Y-14128324D01*
X8554729Y-14128324D02*
X8554729Y-14147371D01*
X8678538Y-14328324D02*
X8659490Y-14318800D01*
X8659490Y-14318800D02*
X8649967Y-14299752D01*
X8649967Y-14299752D02*
X8649967Y-14128324D01*
X8783300Y-14328324D02*
X8764252Y-14318800D01*
X8764252Y-14318800D02*
X8754729Y-14299752D01*
X8754729Y-14299752D02*
X8754729Y-14128324D01*
X9011871Y-14328324D02*
X9011871Y-14128324D01*
X9011871Y-14128324D02*
X9078538Y-14271181D01*
X9078538Y-14271181D02*
X9145205Y-14128324D01*
X9145205Y-14128324D02*
X9145205Y-14328324D01*
X9326157Y-14328324D02*
X9326157Y-14223562D01*
X9326157Y-14223562D02*
X9316633Y-14204514D01*
X9316633Y-14204514D02*
X9297586Y-14194990D01*
X9297586Y-14194990D02*
X9259490Y-14194990D01*
X9259490Y-14194990D02*
X9240443Y-14204514D01*
X9326157Y-14318800D02*
X9307110Y-14328324D01*
X9307110Y-14328324D02*
X9259490Y-14328324D01*
X9259490Y-14328324D02*
X9240443Y-14318800D01*
X9240443Y-14318800D02*
X9230919Y-14299752D01*
X9230919Y-14299752D02*
X9230919Y-14280705D01*
X9230919Y-14280705D02*
X9240443Y-14261657D01*
X9240443Y-14261657D02*
X9259490Y-14252133D01*
X9259490Y-14252133D02*
X9307110Y-14252133D01*
X9307110Y-14252133D02*
X9326157Y-14242609D01*
X9421395Y-14194990D02*
X9421395Y-14394990D01*
X9421395Y-14204514D02*
X9440443Y-14194990D01*
X9440443Y-14194990D02*
X9478538Y-14194990D01*
X9478538Y-14194990D02*
X9497586Y-14204514D01*
X9497586Y-14204514D02*
X9507110Y-14214038D01*
X9507110Y-14214038D02*
X9516633Y-14233086D01*
X9516633Y-14233086D02*
X9516633Y-14290228D01*
X9516633Y-14290228D02*
X9507110Y-14309276D01*
X9507110Y-14309276D02*
X9497586Y-14318800D01*
X9497586Y-14318800D02*
X9478538Y-14328324D01*
X9478538Y-14328324D02*
X9440443Y-14328324D01*
X9440443Y-14328324D02*
X9421395Y-14318800D01*
X9602348Y-14309276D02*
X9611871Y-14318800D01*
X9611871Y-14318800D02*
X9602348Y-14328324D01*
X9602348Y-14328324D02*
X9592824Y-14318800D01*
X9592824Y-14318800D02*
X9602348Y-14309276D01*
X9602348Y-14309276D02*
X9602348Y-14328324D01*
X9602348Y-14204514D02*
X9611871Y-14214038D01*
X9611871Y-14214038D02*
X9602348Y-14223562D01*
X9602348Y-14223562D02*
X9592824Y-14214038D01*
X9592824Y-14214038D02*
X9602348Y-14204514D01*
X9602348Y-14204514D02*
X9602348Y-14223562D01*
D12*
X7933300Y-14630800D02*
X7983300Y-14680800D01*
X7983300Y-14630800D02*
X7933300Y-14680800D01*
D11*
X8269014Y-14548324D02*
X8288062Y-14548324D01*
X8288062Y-14548324D02*
X8307109Y-14557848D01*
X8307109Y-14557848D02*
X8316633Y-14567371D01*
X8316633Y-14567371D02*
X8326157Y-14586419D01*
X8326157Y-14586419D02*
X8335681Y-14624514D01*
X8335681Y-14624514D02*
X8335681Y-14672133D01*
X8335681Y-14672133D02*
X8326157Y-14710228D01*
X8326157Y-14710228D02*
X8316633Y-14729276D01*
X8316633Y-14729276D02*
X8307109Y-14738800D01*
X8307109Y-14738800D02*
X8288062Y-14748324D01*
X8288062Y-14748324D02*
X8269014Y-14748324D01*
X8269014Y-14748324D02*
X8249967Y-14738800D01*
X8249967Y-14738800D02*
X8240443Y-14729276D01*
X8240443Y-14729276D02*
X8230919Y-14710228D01*
X8230919Y-14710228D02*
X8221395Y-14672133D01*
X8221395Y-14672133D02*
X8221395Y-14624514D01*
X8221395Y-14624514D02*
X8230919Y-14586419D01*
X8230919Y-14586419D02*
X8240443Y-14567371D01*
X8240443Y-14567371D02*
X8249967Y-14557848D01*
X8249967Y-14557848D02*
X8269014Y-14548324D01*
X8421395Y-14729276D02*
X8430919Y-14738800D01*
X8430919Y-14738800D02*
X8421395Y-14748324D01*
X8421395Y-14748324D02*
X8411871Y-14738800D01*
X8411871Y-14738800D02*
X8421395Y-14729276D01*
X8421395Y-14729276D02*
X8421395Y-14748324D01*
X8611871Y-14548324D02*
X8516633Y-14548324D01*
X8516633Y-14548324D02*
X8507110Y-14643562D01*
X8507110Y-14643562D02*
X8516633Y-14634038D01*
X8516633Y-14634038D02*
X8535681Y-14624514D01*
X8535681Y-14624514D02*
X8583300Y-14624514D01*
X8583300Y-14624514D02*
X8602348Y-14634038D01*
X8602348Y-14634038D02*
X8611871Y-14643562D01*
X8611871Y-14643562D02*
X8621395Y-14662609D01*
X8621395Y-14662609D02*
X8621395Y-14710228D01*
X8621395Y-14710228D02*
X8611871Y-14729276D01*
X8611871Y-14729276D02*
X8602348Y-14738800D01*
X8602348Y-14738800D02*
X8583300Y-14748324D01*
X8583300Y-14748324D02*
X8535681Y-14748324D01*
X8535681Y-14748324D02*
X8516633Y-14738800D01*
X8516633Y-14738800D02*
X8507110Y-14729276D01*
X8745205Y-14548324D02*
X8764252Y-14548324D01*
X8764252Y-14548324D02*
X8783300Y-14557848D01*
X8783300Y-14557848D02*
X8792824Y-14567371D01*
X8792824Y-14567371D02*
X8802348Y-14586419D01*
X8802348Y-14586419D02*
X8811871Y-14624514D01*
X8811871Y-14624514D02*
X8811871Y-14672133D01*
X8811871Y-14672133D02*
X8802348Y-14710228D01*
X8802348Y-14710228D02*
X8792824Y-14729276D01*
X8792824Y-14729276D02*
X8783300Y-14738800D01*
X8783300Y-14738800D02*
X8764252Y-14748324D01*
X8764252Y-14748324D02*
X8745205Y-14748324D01*
X8745205Y-14748324D02*
X8726157Y-14738800D01*
X8726157Y-14738800D02*
X8716633Y-14729276D01*
X8716633Y-14729276D02*
X8707110Y-14710228D01*
X8707110Y-14710228D02*
X8697586Y-14672133D01*
X8697586Y-14672133D02*
X8697586Y-14624514D01*
X8697586Y-14624514D02*
X8707110Y-14586419D01*
X8707110Y-14586419D02*
X8716633Y-14567371D01*
X8716633Y-14567371D02*
X8726157Y-14557848D01*
X8726157Y-14557848D02*
X8745205Y-14548324D01*
X8935681Y-14548324D02*
X8954729Y-14548324D01*
X8954729Y-14548324D02*
X8973776Y-14557848D01*
X8973776Y-14557848D02*
X8983300Y-14567371D01*
X8983300Y-14567371D02*
X8992824Y-14586419D01*
X8992824Y-14586419D02*
X9002348Y-14624514D01*
X9002348Y-14624514D02*
X9002348Y-14672133D01*
X9002348Y-14672133D02*
X8992824Y-14710228D01*
X8992824Y-14710228D02*
X8983300Y-14729276D01*
X8983300Y-14729276D02*
X8973776Y-14738800D01*
X8973776Y-14738800D02*
X8954729Y-14748324D01*
X8954729Y-14748324D02*
X8935681Y-14748324D01*
X8935681Y-14748324D02*
X8916633Y-14738800D01*
X8916633Y-14738800D02*
X8907110Y-14729276D01*
X8907110Y-14729276D02*
X8897586Y-14710228D01*
X8897586Y-14710228D02*
X8888062Y-14672133D01*
X8888062Y-14672133D02*
X8888062Y-14624514D01*
X8888062Y-14624514D02*
X8897586Y-14586419D01*
X8897586Y-14586419D02*
X8907110Y-14567371D01*
X8907110Y-14567371D02*
X8916633Y-14557848D01*
X8916633Y-14557848D02*
X8935681Y-14548324D01*
X9088062Y-14748324D02*
X9088062Y-14614990D01*
X9088062Y-14634038D02*
X9097586Y-14624514D01*
X9097586Y-14624514D02*
X9116633Y-14614990D01*
X9116633Y-14614990D02*
X9145205Y-14614990D01*
X9145205Y-14614990D02*
X9164252Y-14624514D01*
X9164252Y-14624514D02*
X9173776Y-14643562D01*
X9173776Y-14643562D02*
X9173776Y-14748324D01*
X9173776Y-14643562D02*
X9183300Y-14624514D01*
X9183300Y-14624514D02*
X9202348Y-14614990D01*
X9202348Y-14614990D02*
X9230919Y-14614990D01*
X9230919Y-14614990D02*
X9249967Y-14624514D01*
X9249967Y-14624514D02*
X9259491Y-14643562D01*
X9259491Y-14643562D02*
X9259491Y-14748324D01*
X9354729Y-14748324D02*
X9354729Y-14614990D01*
X9354729Y-14634038D02*
X9364252Y-14624514D01*
X9364252Y-14624514D02*
X9383300Y-14614990D01*
X9383300Y-14614990D02*
X9411872Y-14614990D01*
X9411872Y-14614990D02*
X9430919Y-14624514D01*
X9430919Y-14624514D02*
X9440443Y-14643562D01*
X9440443Y-14643562D02*
X9440443Y-14748324D01*
X9440443Y-14643562D02*
X9449967Y-14624514D01*
X9449967Y-14624514D02*
X9469014Y-14614990D01*
X9469014Y-14614990D02*
X9497586Y-14614990D01*
X9497586Y-14614990D02*
X9516633Y-14624514D01*
X9516633Y-14624514D02*
X9526157Y-14643562D01*
X9526157Y-14643562D02*
X9526157Y-14748324D01*
X9916633Y-14538800D02*
X9745205Y-14795943D01*
X10173776Y-14548324D02*
X10192824Y-14548324D01*
X10192824Y-14548324D02*
X10211872Y-14557848D01*
X10211872Y-14557848D02*
X10221395Y-14567371D01*
X10221395Y-14567371D02*
X10230919Y-14586419D01*
X10230919Y-14586419D02*
X10240443Y-14624514D01*
X10240443Y-14624514D02*
X10240443Y-14672133D01*
X10240443Y-14672133D02*
X10230919Y-14710228D01*
X10230919Y-14710228D02*
X10221395Y-14729276D01*
X10221395Y-14729276D02*
X10211872Y-14738800D01*
X10211872Y-14738800D02*
X10192824Y-14748324D01*
X10192824Y-14748324D02*
X10173776Y-14748324D01*
X10173776Y-14748324D02*
X10154729Y-14738800D01*
X10154729Y-14738800D02*
X10145205Y-14729276D01*
X10145205Y-14729276D02*
X10135681Y-14710228D01*
X10135681Y-14710228D02*
X10126157Y-14672133D01*
X10126157Y-14672133D02*
X10126157Y-14624514D01*
X10126157Y-14624514D02*
X10135681Y-14586419D01*
X10135681Y-14586419D02*
X10145205Y-14567371D01*
X10145205Y-14567371D02*
X10154729Y-14557848D01*
X10154729Y-14557848D02*
X10173776Y-14548324D01*
X10326157Y-14729276D02*
X10335681Y-14738800D01*
X10335681Y-14738800D02*
X10326157Y-14748324D01*
X10326157Y-14748324D02*
X10316634Y-14738800D01*
X10316634Y-14738800D02*
X10326157Y-14729276D01*
X10326157Y-14729276D02*
X10326157Y-14748324D01*
X10459491Y-14548324D02*
X10478538Y-14548324D01*
X10478538Y-14548324D02*
X10497586Y-14557848D01*
X10497586Y-14557848D02*
X10507110Y-14567371D01*
X10507110Y-14567371D02*
X10516634Y-14586419D01*
X10516634Y-14586419D02*
X10526157Y-14624514D01*
X10526157Y-14624514D02*
X10526157Y-14672133D01*
X10526157Y-14672133D02*
X10516634Y-14710228D01*
X10516634Y-14710228D02*
X10507110Y-14729276D01*
X10507110Y-14729276D02*
X10497586Y-14738800D01*
X10497586Y-14738800D02*
X10478538Y-14748324D01*
X10478538Y-14748324D02*
X10459491Y-14748324D01*
X10459491Y-14748324D02*
X10440443Y-14738800D01*
X10440443Y-14738800D02*
X10430919Y-14729276D01*
X10430919Y-14729276D02*
X10421395Y-14710228D01*
X10421395Y-14710228D02*
X10411872Y-14672133D01*
X10411872Y-14672133D02*
X10411872Y-14624514D01*
X10411872Y-14624514D02*
X10421395Y-14586419D01*
X10421395Y-14586419D02*
X10430919Y-14567371D01*
X10430919Y-14567371D02*
X10440443Y-14557848D01*
X10440443Y-14557848D02*
X10459491Y-14548324D01*
X10716634Y-14748324D02*
X10602348Y-14748324D01*
X10659491Y-14748324D02*
X10659491Y-14548324D01*
X10659491Y-14548324D02*
X10640443Y-14576895D01*
X10640443Y-14576895D02*
X10621395Y-14595943D01*
X10621395Y-14595943D02*
X10602348Y-14605467D01*
X10811872Y-14748324D02*
X10849967Y-14748324D01*
X10849967Y-14748324D02*
X10869015Y-14738800D01*
X10869015Y-14738800D02*
X10878538Y-14729276D01*
X10878538Y-14729276D02*
X10897586Y-14700705D01*
X10897586Y-14700705D02*
X10907110Y-14662609D01*
X10907110Y-14662609D02*
X10907110Y-14586419D01*
X10907110Y-14586419D02*
X10897586Y-14567371D01*
X10897586Y-14567371D02*
X10888062Y-14557848D01*
X10888062Y-14557848D02*
X10869015Y-14548324D01*
X10869015Y-14548324D02*
X10830919Y-14548324D01*
X10830919Y-14548324D02*
X10811872Y-14557848D01*
X10811872Y-14557848D02*
X10802348Y-14567371D01*
X10802348Y-14567371D02*
X10792824Y-14586419D01*
X10792824Y-14586419D02*
X10792824Y-14634038D01*
X10792824Y-14634038D02*
X10802348Y-14653086D01*
X10802348Y-14653086D02*
X10811872Y-14662609D01*
X10811872Y-14662609D02*
X10830919Y-14672133D01*
X10830919Y-14672133D02*
X10869015Y-14672133D01*
X10869015Y-14672133D02*
X10888062Y-14662609D01*
X10888062Y-14662609D02*
X10897586Y-14653086D01*
X10897586Y-14653086D02*
X10907110Y-14634038D01*
X10973776Y-14548324D02*
X11107110Y-14548324D01*
X11107110Y-14548324D02*
X11021395Y-14748324D01*
X11173776Y-14548324D02*
X11173776Y-14586419D01*
X11249967Y-14548324D02*
X11249967Y-14586419D01*
X11545205Y-14824514D02*
X11535681Y-14814990D01*
X11535681Y-14814990D02*
X11516634Y-14786419D01*
X11516634Y-14786419D02*
X11507110Y-14767371D01*
X11507110Y-14767371D02*
X11497586Y-14738800D01*
X11497586Y-14738800D02*
X11488062Y-14691181D01*
X11488062Y-14691181D02*
X11488062Y-14653086D01*
X11488062Y-14653086D02*
X11497586Y-14605467D01*
X11497586Y-14605467D02*
X11507110Y-14576895D01*
X11507110Y-14576895D02*
X11516634Y-14557848D01*
X11516634Y-14557848D02*
X11535681Y-14529276D01*
X11535681Y-14529276D02*
X11545205Y-14519752D01*
X11602348Y-14548324D02*
X11726157Y-14548324D01*
X11726157Y-14548324D02*
X11659491Y-14624514D01*
X11659491Y-14624514D02*
X11688062Y-14624514D01*
X11688062Y-14624514D02*
X11707110Y-14634038D01*
X11707110Y-14634038D02*
X11716634Y-14643562D01*
X11716634Y-14643562D02*
X11726157Y-14662609D01*
X11726157Y-14662609D02*
X11726157Y-14710228D01*
X11726157Y-14710228D02*
X11716634Y-14729276D01*
X11716634Y-14729276D02*
X11707110Y-14738800D01*
X11707110Y-14738800D02*
X11688062Y-14748324D01*
X11688062Y-14748324D02*
X11630919Y-14748324D01*
X11630919Y-14748324D02*
X11611872Y-14738800D01*
X11611872Y-14738800D02*
X11602348Y-14729276D01*
X11802348Y-14567371D02*
X11811872Y-14557848D01*
X11811872Y-14557848D02*
X11830919Y-14548324D01*
X11830919Y-14548324D02*
X11878538Y-14548324D01*
X11878538Y-14548324D02*
X11897586Y-14557848D01*
X11897586Y-14557848D02*
X11907110Y-14567371D01*
X11907110Y-14567371D02*
X11916634Y-14586419D01*
X11916634Y-14586419D02*
X11916634Y-14605467D01*
X11916634Y-14605467D02*
X11907110Y-14634038D01*
X11907110Y-14634038D02*
X11792824Y-14748324D01*
X11792824Y-14748324D02*
X11916634Y-14748324D01*
X12154729Y-14748324D02*
X12154729Y-14548324D01*
X12240443Y-14748324D02*
X12240443Y-14643562D01*
X12240443Y-14643562D02*
X12230919Y-14624514D01*
X12230919Y-14624514D02*
X12211872Y-14614990D01*
X12211872Y-14614990D02*
X12183300Y-14614990D01*
X12183300Y-14614990D02*
X12164253Y-14624514D01*
X12164253Y-14624514D02*
X12154729Y-14634038D01*
X12364253Y-14748324D02*
X12345205Y-14738800D01*
X12345205Y-14738800D02*
X12335681Y-14729276D01*
X12335681Y-14729276D02*
X12326157Y-14710228D01*
X12326157Y-14710228D02*
X12326157Y-14653086D01*
X12326157Y-14653086D02*
X12335681Y-14634038D01*
X12335681Y-14634038D02*
X12345205Y-14624514D01*
X12345205Y-14624514D02*
X12364253Y-14614990D01*
X12364253Y-14614990D02*
X12392824Y-14614990D01*
X12392824Y-14614990D02*
X12411872Y-14624514D01*
X12411872Y-14624514D02*
X12421396Y-14634038D01*
X12421396Y-14634038D02*
X12430919Y-14653086D01*
X12430919Y-14653086D02*
X12430919Y-14710228D01*
X12430919Y-14710228D02*
X12421396Y-14729276D01*
X12421396Y-14729276D02*
X12411872Y-14738800D01*
X12411872Y-14738800D02*
X12392824Y-14748324D01*
X12392824Y-14748324D02*
X12364253Y-14748324D01*
X12545205Y-14748324D02*
X12526157Y-14738800D01*
X12526157Y-14738800D02*
X12516634Y-14719752D01*
X12516634Y-14719752D02*
X12516634Y-14548324D01*
X12697586Y-14738800D02*
X12678538Y-14748324D01*
X12678538Y-14748324D02*
X12640443Y-14748324D01*
X12640443Y-14748324D02*
X12621396Y-14738800D01*
X12621396Y-14738800D02*
X12611872Y-14719752D01*
X12611872Y-14719752D02*
X12611872Y-14643562D01*
X12611872Y-14643562D02*
X12621396Y-14624514D01*
X12621396Y-14624514D02*
X12640443Y-14614990D01*
X12640443Y-14614990D02*
X12678538Y-14614990D01*
X12678538Y-14614990D02*
X12697586Y-14624514D01*
X12697586Y-14624514D02*
X12707110Y-14643562D01*
X12707110Y-14643562D02*
X12707110Y-14662609D01*
X12707110Y-14662609D02*
X12611872Y-14681657D01*
X12783300Y-14738800D02*
X12802348Y-14748324D01*
X12802348Y-14748324D02*
X12840443Y-14748324D01*
X12840443Y-14748324D02*
X12859491Y-14738800D01*
X12859491Y-14738800D02*
X12869015Y-14719752D01*
X12869015Y-14719752D02*
X12869015Y-14710228D01*
X12869015Y-14710228D02*
X12859491Y-14691181D01*
X12859491Y-14691181D02*
X12840443Y-14681657D01*
X12840443Y-14681657D02*
X12811872Y-14681657D01*
X12811872Y-14681657D02*
X12792824Y-14672133D01*
X12792824Y-14672133D02*
X12783300Y-14653086D01*
X12783300Y-14653086D02*
X12783300Y-14643562D01*
X12783300Y-14643562D02*
X12792824Y-14624514D01*
X12792824Y-14624514D02*
X12811872Y-14614990D01*
X12811872Y-14614990D02*
X12840443Y-14614990D01*
X12840443Y-14614990D02*
X12859491Y-14624514D01*
X12935681Y-14824514D02*
X12945205Y-14814990D01*
X12945205Y-14814990D02*
X12964253Y-14786419D01*
X12964253Y-14786419D02*
X12973777Y-14767371D01*
X12973777Y-14767371D02*
X12983300Y-14738800D01*
X12983300Y-14738800D02*
X12992824Y-14691181D01*
X12992824Y-14691181D02*
X12992824Y-14653086D01*
X12992824Y-14653086D02*
X12983300Y-14605467D01*
X12983300Y-14605467D02*
X12973777Y-14576895D01*
X12973777Y-14576895D02*
X12964253Y-14557848D01*
X12964253Y-14557848D02*
X12945205Y-14529276D01*
X12945205Y-14529276D02*
X12935681Y-14519752D01*
D13*
X7983300Y-14919800D02*
G75*
G03*
X7983300Y-14919800I-40000J0D01*
G01*
D11*
X8269014Y-14812324D02*
X8288062Y-14812324D01*
X8288062Y-14812324D02*
X8307109Y-14821848D01*
X8307109Y-14821848D02*
X8316633Y-14831371D01*
X8316633Y-14831371D02*
X8326157Y-14850419D01*
X8326157Y-14850419D02*
X8335681Y-14888514D01*
X8335681Y-14888514D02*
X8335681Y-14936133D01*
X8335681Y-14936133D02*
X8326157Y-14974228D01*
X8326157Y-14974228D02*
X8316633Y-14993276D01*
X8316633Y-14993276D02*
X8307109Y-15002800D01*
X8307109Y-15002800D02*
X8288062Y-15012324D01*
X8288062Y-15012324D02*
X8269014Y-15012324D01*
X8269014Y-15012324D02*
X8249967Y-15002800D01*
X8249967Y-15002800D02*
X8240443Y-14993276D01*
X8240443Y-14993276D02*
X8230919Y-14974228D01*
X8230919Y-14974228D02*
X8221395Y-14936133D01*
X8221395Y-14936133D02*
X8221395Y-14888514D01*
X8221395Y-14888514D02*
X8230919Y-14850419D01*
X8230919Y-14850419D02*
X8240443Y-14831371D01*
X8240443Y-14831371D02*
X8249967Y-14821848D01*
X8249967Y-14821848D02*
X8269014Y-14812324D01*
X8421395Y-14993276D02*
X8430919Y-15002800D01*
X8430919Y-15002800D02*
X8421395Y-15012324D01*
X8421395Y-15012324D02*
X8411871Y-15002800D01*
X8411871Y-15002800D02*
X8421395Y-14993276D01*
X8421395Y-14993276D02*
X8421395Y-15012324D01*
X8545205Y-14898038D02*
X8526157Y-14888514D01*
X8526157Y-14888514D02*
X8516633Y-14878990D01*
X8516633Y-14878990D02*
X8507110Y-14859943D01*
X8507110Y-14859943D02*
X8507110Y-14850419D01*
X8507110Y-14850419D02*
X8516633Y-14831371D01*
X8516633Y-14831371D02*
X8526157Y-14821848D01*
X8526157Y-14821848D02*
X8545205Y-14812324D01*
X8545205Y-14812324D02*
X8583300Y-14812324D01*
X8583300Y-14812324D02*
X8602348Y-14821848D01*
X8602348Y-14821848D02*
X8611871Y-14831371D01*
X8611871Y-14831371D02*
X8621395Y-14850419D01*
X8621395Y-14850419D02*
X8621395Y-14859943D01*
X8621395Y-14859943D02*
X8611871Y-14878990D01*
X8611871Y-14878990D02*
X8602348Y-14888514D01*
X8602348Y-14888514D02*
X8583300Y-14898038D01*
X8583300Y-14898038D02*
X8545205Y-14898038D01*
X8545205Y-14898038D02*
X8526157Y-14907562D01*
X8526157Y-14907562D02*
X8516633Y-14917086D01*
X8516633Y-14917086D02*
X8507110Y-14936133D01*
X8507110Y-14936133D02*
X8507110Y-14974228D01*
X8507110Y-14974228D02*
X8516633Y-14993276D01*
X8516633Y-14993276D02*
X8526157Y-15002800D01*
X8526157Y-15002800D02*
X8545205Y-15012324D01*
X8545205Y-15012324D02*
X8583300Y-15012324D01*
X8583300Y-15012324D02*
X8602348Y-15002800D01*
X8602348Y-15002800D02*
X8611871Y-14993276D01*
X8611871Y-14993276D02*
X8621395Y-14974228D01*
X8621395Y-14974228D02*
X8621395Y-14936133D01*
X8621395Y-14936133D02*
X8611871Y-14917086D01*
X8611871Y-14917086D02*
X8602348Y-14907562D01*
X8602348Y-14907562D02*
X8583300Y-14898038D01*
X8745205Y-14812324D02*
X8764252Y-14812324D01*
X8764252Y-14812324D02*
X8783300Y-14821848D01*
X8783300Y-14821848D02*
X8792824Y-14831371D01*
X8792824Y-14831371D02*
X8802348Y-14850419D01*
X8802348Y-14850419D02*
X8811871Y-14888514D01*
X8811871Y-14888514D02*
X8811871Y-14936133D01*
X8811871Y-14936133D02*
X8802348Y-14974228D01*
X8802348Y-14974228D02*
X8792824Y-14993276D01*
X8792824Y-14993276D02*
X8783300Y-15002800D01*
X8783300Y-15002800D02*
X8764252Y-15012324D01*
X8764252Y-15012324D02*
X8745205Y-15012324D01*
X8745205Y-15012324D02*
X8726157Y-15002800D01*
X8726157Y-15002800D02*
X8716633Y-14993276D01*
X8716633Y-14993276D02*
X8707110Y-14974228D01*
X8707110Y-14974228D02*
X8697586Y-14936133D01*
X8697586Y-14936133D02*
X8697586Y-14888514D01*
X8697586Y-14888514D02*
X8707110Y-14850419D01*
X8707110Y-14850419D02*
X8716633Y-14831371D01*
X8716633Y-14831371D02*
X8726157Y-14821848D01*
X8726157Y-14821848D02*
X8745205Y-14812324D01*
X8935681Y-14812324D02*
X8954729Y-14812324D01*
X8954729Y-14812324D02*
X8973776Y-14821848D01*
X8973776Y-14821848D02*
X8983300Y-14831371D01*
X8983300Y-14831371D02*
X8992824Y-14850419D01*
X8992824Y-14850419D02*
X9002348Y-14888514D01*
X9002348Y-14888514D02*
X9002348Y-14936133D01*
X9002348Y-14936133D02*
X8992824Y-14974228D01*
X8992824Y-14974228D02*
X8983300Y-14993276D01*
X8983300Y-14993276D02*
X8973776Y-15002800D01*
X8973776Y-15002800D02*
X8954729Y-15012324D01*
X8954729Y-15012324D02*
X8935681Y-15012324D01*
X8935681Y-15012324D02*
X8916633Y-15002800D01*
X8916633Y-15002800D02*
X8907110Y-14993276D01*
X8907110Y-14993276D02*
X8897586Y-14974228D01*
X8897586Y-14974228D02*
X8888062Y-14936133D01*
X8888062Y-14936133D02*
X8888062Y-14888514D01*
X8888062Y-14888514D02*
X8897586Y-14850419D01*
X8897586Y-14850419D02*
X8907110Y-14831371D01*
X8907110Y-14831371D02*
X8916633Y-14821848D01*
X8916633Y-14821848D02*
X8935681Y-14812324D01*
X9088062Y-15012324D02*
X9088062Y-14878990D01*
X9088062Y-14898038D02*
X9097586Y-14888514D01*
X9097586Y-14888514D02*
X9116633Y-14878990D01*
X9116633Y-14878990D02*
X9145205Y-14878990D01*
X9145205Y-14878990D02*
X9164252Y-14888514D01*
X9164252Y-14888514D02*
X9173776Y-14907562D01*
X9173776Y-14907562D02*
X9173776Y-15012324D01*
X9173776Y-14907562D02*
X9183300Y-14888514D01*
X9183300Y-14888514D02*
X9202348Y-14878990D01*
X9202348Y-14878990D02*
X9230919Y-14878990D01*
X9230919Y-14878990D02*
X9249967Y-14888514D01*
X9249967Y-14888514D02*
X9259491Y-14907562D01*
X9259491Y-14907562D02*
X9259491Y-15012324D01*
X9354729Y-15012324D02*
X9354729Y-14878990D01*
X9354729Y-14898038D02*
X9364252Y-14888514D01*
X9364252Y-14888514D02*
X9383300Y-14878990D01*
X9383300Y-14878990D02*
X9411872Y-14878990D01*
X9411872Y-14878990D02*
X9430919Y-14888514D01*
X9430919Y-14888514D02*
X9440443Y-14907562D01*
X9440443Y-14907562D02*
X9440443Y-15012324D01*
X9440443Y-14907562D02*
X9449967Y-14888514D01*
X9449967Y-14888514D02*
X9469014Y-14878990D01*
X9469014Y-14878990D02*
X9497586Y-14878990D01*
X9497586Y-14878990D02*
X9516633Y-14888514D01*
X9516633Y-14888514D02*
X9526157Y-14907562D01*
X9526157Y-14907562D02*
X9526157Y-15012324D01*
X9916633Y-14802800D02*
X9745205Y-15059943D01*
X10173776Y-14812324D02*
X10192824Y-14812324D01*
X10192824Y-14812324D02*
X10211872Y-14821848D01*
X10211872Y-14821848D02*
X10221395Y-14831371D01*
X10221395Y-14831371D02*
X10230919Y-14850419D01*
X10230919Y-14850419D02*
X10240443Y-14888514D01*
X10240443Y-14888514D02*
X10240443Y-14936133D01*
X10240443Y-14936133D02*
X10230919Y-14974228D01*
X10230919Y-14974228D02*
X10221395Y-14993276D01*
X10221395Y-14993276D02*
X10211872Y-15002800D01*
X10211872Y-15002800D02*
X10192824Y-15012324D01*
X10192824Y-15012324D02*
X10173776Y-15012324D01*
X10173776Y-15012324D02*
X10154729Y-15002800D01*
X10154729Y-15002800D02*
X10145205Y-14993276D01*
X10145205Y-14993276D02*
X10135681Y-14974228D01*
X10135681Y-14974228D02*
X10126157Y-14936133D01*
X10126157Y-14936133D02*
X10126157Y-14888514D01*
X10126157Y-14888514D02*
X10135681Y-14850419D01*
X10135681Y-14850419D02*
X10145205Y-14831371D01*
X10145205Y-14831371D02*
X10154729Y-14821848D01*
X10154729Y-14821848D02*
X10173776Y-14812324D01*
X10326157Y-14993276D02*
X10335681Y-15002800D01*
X10335681Y-15002800D02*
X10326157Y-15012324D01*
X10326157Y-15012324D02*
X10316634Y-15002800D01*
X10316634Y-15002800D02*
X10326157Y-14993276D01*
X10326157Y-14993276D02*
X10326157Y-15012324D01*
X10459491Y-14812324D02*
X10478538Y-14812324D01*
X10478538Y-14812324D02*
X10497586Y-14821848D01*
X10497586Y-14821848D02*
X10507110Y-14831371D01*
X10507110Y-14831371D02*
X10516634Y-14850419D01*
X10516634Y-14850419D02*
X10526157Y-14888514D01*
X10526157Y-14888514D02*
X10526157Y-14936133D01*
X10526157Y-14936133D02*
X10516634Y-14974228D01*
X10516634Y-14974228D02*
X10507110Y-14993276D01*
X10507110Y-14993276D02*
X10497586Y-15002800D01*
X10497586Y-15002800D02*
X10478538Y-15012324D01*
X10478538Y-15012324D02*
X10459491Y-15012324D01*
X10459491Y-15012324D02*
X10440443Y-15002800D01*
X10440443Y-15002800D02*
X10430919Y-14993276D01*
X10430919Y-14993276D02*
X10421395Y-14974228D01*
X10421395Y-14974228D02*
X10411872Y-14936133D01*
X10411872Y-14936133D02*
X10411872Y-14888514D01*
X10411872Y-14888514D02*
X10421395Y-14850419D01*
X10421395Y-14850419D02*
X10430919Y-14831371D01*
X10430919Y-14831371D02*
X10440443Y-14821848D01*
X10440443Y-14821848D02*
X10459491Y-14812324D01*
X10592824Y-14812324D02*
X10716634Y-14812324D01*
X10716634Y-14812324D02*
X10649967Y-14888514D01*
X10649967Y-14888514D02*
X10678538Y-14888514D01*
X10678538Y-14888514D02*
X10697586Y-14898038D01*
X10697586Y-14898038D02*
X10707110Y-14907562D01*
X10707110Y-14907562D02*
X10716634Y-14926609D01*
X10716634Y-14926609D02*
X10716634Y-14974228D01*
X10716634Y-14974228D02*
X10707110Y-14993276D01*
X10707110Y-14993276D02*
X10697586Y-15002800D01*
X10697586Y-15002800D02*
X10678538Y-15012324D01*
X10678538Y-15012324D02*
X10621395Y-15012324D01*
X10621395Y-15012324D02*
X10602348Y-15002800D01*
X10602348Y-15002800D02*
X10592824Y-14993276D01*
X10907110Y-15012324D02*
X10792824Y-15012324D01*
X10849967Y-15012324D02*
X10849967Y-14812324D01*
X10849967Y-14812324D02*
X10830919Y-14840895D01*
X10830919Y-14840895D02*
X10811872Y-14859943D01*
X10811872Y-14859943D02*
X10792824Y-14869467D01*
X11088062Y-14812324D02*
X10992824Y-14812324D01*
X10992824Y-14812324D02*
X10983300Y-14907562D01*
X10983300Y-14907562D02*
X10992824Y-14898038D01*
X10992824Y-14898038D02*
X11011872Y-14888514D01*
X11011872Y-14888514D02*
X11059491Y-14888514D01*
X11059491Y-14888514D02*
X11078538Y-14898038D01*
X11078538Y-14898038D02*
X11088062Y-14907562D01*
X11088062Y-14907562D02*
X11097586Y-14926609D01*
X11097586Y-14926609D02*
X11097586Y-14974228D01*
X11097586Y-14974228D02*
X11088062Y-14993276D01*
X11088062Y-14993276D02*
X11078538Y-15002800D01*
X11078538Y-15002800D02*
X11059491Y-15012324D01*
X11059491Y-15012324D02*
X11011872Y-15012324D01*
X11011872Y-15012324D02*
X10992824Y-15002800D01*
X10992824Y-15002800D02*
X10983300Y-14993276D01*
X11173776Y-14812324D02*
X11173776Y-14850419D01*
X11249967Y-14812324D02*
X11249967Y-14850419D01*
X11545205Y-15088514D02*
X11535681Y-15078990D01*
X11535681Y-15078990D02*
X11516634Y-15050419D01*
X11516634Y-15050419D02*
X11507110Y-15031371D01*
X11507110Y-15031371D02*
X11497586Y-15002800D01*
X11497586Y-15002800D02*
X11488062Y-14955181D01*
X11488062Y-14955181D02*
X11488062Y-14917086D01*
X11488062Y-14917086D02*
X11497586Y-14869467D01*
X11497586Y-14869467D02*
X11507110Y-14840895D01*
X11507110Y-14840895D02*
X11516634Y-14821848D01*
X11516634Y-14821848D02*
X11535681Y-14793276D01*
X11535681Y-14793276D02*
X11545205Y-14783752D01*
X11649967Y-14898038D02*
X11630919Y-14888514D01*
X11630919Y-14888514D02*
X11621395Y-14878990D01*
X11621395Y-14878990D02*
X11611872Y-14859943D01*
X11611872Y-14859943D02*
X11611872Y-14850419D01*
X11611872Y-14850419D02*
X11621395Y-14831371D01*
X11621395Y-14831371D02*
X11630919Y-14821848D01*
X11630919Y-14821848D02*
X11649967Y-14812324D01*
X11649967Y-14812324D02*
X11688062Y-14812324D01*
X11688062Y-14812324D02*
X11707110Y-14821848D01*
X11707110Y-14821848D02*
X11716634Y-14831371D01*
X11716634Y-14831371D02*
X11726157Y-14850419D01*
X11726157Y-14850419D02*
X11726157Y-14859943D01*
X11726157Y-14859943D02*
X11716634Y-14878990D01*
X11716634Y-14878990D02*
X11707110Y-14888514D01*
X11707110Y-14888514D02*
X11688062Y-14898038D01*
X11688062Y-14898038D02*
X11649967Y-14898038D01*
X11649967Y-14898038D02*
X11630919Y-14907562D01*
X11630919Y-14907562D02*
X11621395Y-14917086D01*
X11621395Y-14917086D02*
X11611872Y-14936133D01*
X11611872Y-14936133D02*
X11611872Y-14974228D01*
X11611872Y-14974228D02*
X11621395Y-14993276D01*
X11621395Y-14993276D02*
X11630919Y-15002800D01*
X11630919Y-15002800D02*
X11649967Y-15012324D01*
X11649967Y-15012324D02*
X11688062Y-15012324D01*
X11688062Y-15012324D02*
X11707110Y-15002800D01*
X11707110Y-15002800D02*
X11716634Y-14993276D01*
X11716634Y-14993276D02*
X11726157Y-14974228D01*
X11726157Y-14974228D02*
X11726157Y-14936133D01*
X11726157Y-14936133D02*
X11716634Y-14917086D01*
X11716634Y-14917086D02*
X11707110Y-14907562D01*
X11707110Y-14907562D02*
X11688062Y-14898038D01*
X11964253Y-15012324D02*
X11964253Y-14812324D01*
X12049967Y-15012324D02*
X12049967Y-14907562D01*
X12049967Y-14907562D02*
X12040443Y-14888514D01*
X12040443Y-14888514D02*
X12021396Y-14878990D01*
X12021396Y-14878990D02*
X11992824Y-14878990D01*
X11992824Y-14878990D02*
X11973776Y-14888514D01*
X11973776Y-14888514D02*
X11964253Y-14898038D01*
X12173776Y-15012324D02*
X12154729Y-15002800D01*
X12154729Y-15002800D02*
X12145205Y-14993276D01*
X12145205Y-14993276D02*
X12135681Y-14974228D01*
X12135681Y-14974228D02*
X12135681Y-14917086D01*
X12135681Y-14917086D02*
X12145205Y-14898038D01*
X12145205Y-14898038D02*
X12154729Y-14888514D01*
X12154729Y-14888514D02*
X12173776Y-14878990D01*
X12173776Y-14878990D02*
X12202348Y-14878990D01*
X12202348Y-14878990D02*
X12221396Y-14888514D01*
X12221396Y-14888514D02*
X12230919Y-14898038D01*
X12230919Y-14898038D02*
X12240443Y-14917086D01*
X12240443Y-14917086D02*
X12240443Y-14974228D01*
X12240443Y-14974228D02*
X12230919Y-14993276D01*
X12230919Y-14993276D02*
X12221396Y-15002800D01*
X12221396Y-15002800D02*
X12202348Y-15012324D01*
X12202348Y-15012324D02*
X12173776Y-15012324D01*
X12354729Y-15012324D02*
X12335681Y-15002800D01*
X12335681Y-15002800D02*
X12326157Y-14983752D01*
X12326157Y-14983752D02*
X12326157Y-14812324D01*
X12507110Y-15002800D02*
X12488062Y-15012324D01*
X12488062Y-15012324D02*
X12449967Y-15012324D01*
X12449967Y-15012324D02*
X12430919Y-15002800D01*
X12430919Y-15002800D02*
X12421396Y-14983752D01*
X12421396Y-14983752D02*
X12421396Y-14907562D01*
X12421396Y-14907562D02*
X12430919Y-14888514D01*
X12430919Y-14888514D02*
X12449967Y-14878990D01*
X12449967Y-14878990D02*
X12488062Y-14878990D01*
X12488062Y-14878990D02*
X12507110Y-14888514D01*
X12507110Y-14888514D02*
X12516634Y-14907562D01*
X12516634Y-14907562D02*
X12516634Y-14926609D01*
X12516634Y-14926609D02*
X12421396Y-14945657D01*
X12592824Y-15002800D02*
X12611872Y-15012324D01*
X12611872Y-15012324D02*
X12649967Y-15012324D01*
X12649967Y-15012324D02*
X12669015Y-15002800D01*
X12669015Y-15002800D02*
X12678538Y-14983752D01*
X12678538Y-14983752D02*
X12678538Y-14974228D01*
X12678538Y-14974228D02*
X12669015Y-14955181D01*
X12669015Y-14955181D02*
X12649967Y-14945657D01*
X12649967Y-14945657D02*
X12621396Y-14945657D01*
X12621396Y-14945657D02*
X12602348Y-14936133D01*
X12602348Y-14936133D02*
X12592824Y-14917086D01*
X12592824Y-14917086D02*
X12592824Y-14907562D01*
X12592824Y-14907562D02*
X12602348Y-14888514D01*
X12602348Y-14888514D02*
X12621396Y-14878990D01*
X12621396Y-14878990D02*
X12649967Y-14878990D01*
X12649967Y-14878990D02*
X12669015Y-14888514D01*
X12745205Y-15088514D02*
X12754729Y-15078990D01*
X12754729Y-15078990D02*
X12773777Y-15050419D01*
X12773777Y-15050419D02*
X12783300Y-15031371D01*
X12783300Y-15031371D02*
X12792824Y-15002800D01*
X12792824Y-15002800D02*
X12802348Y-14955181D01*
X12802348Y-14955181D02*
X12802348Y-14917086D01*
X12802348Y-14917086D02*
X12792824Y-14869467D01*
X12792824Y-14869467D02*
X12783300Y-14840895D01*
X12783300Y-14840895D02*
X12773777Y-14821848D01*
X12773777Y-14821848D02*
X12754729Y-14793276D01*
X12754729Y-14793276D02*
X12745205Y-14783752D01*
D10*
X7933300Y-15133800D02*
X7933300Y-15233800D01*
X7883300Y-15183800D02*
X7983300Y-15183800D01*
D11*
X8335681Y-15276324D02*
X8221395Y-15276324D01*
X8278538Y-15276324D02*
X8278538Y-15076324D01*
X8278538Y-15076324D02*
X8259490Y-15104895D01*
X8259490Y-15104895D02*
X8240443Y-15123943D01*
X8240443Y-15123943D02*
X8221395Y-15133467D01*
X8421395Y-15257276D02*
X8430919Y-15266800D01*
X8430919Y-15266800D02*
X8421395Y-15276324D01*
X8421395Y-15276324D02*
X8411871Y-15266800D01*
X8411871Y-15266800D02*
X8421395Y-15257276D01*
X8421395Y-15257276D02*
X8421395Y-15276324D01*
X8554729Y-15076324D02*
X8573776Y-15076324D01*
X8573776Y-15076324D02*
X8592824Y-15085848D01*
X8592824Y-15085848D02*
X8602348Y-15095371D01*
X8602348Y-15095371D02*
X8611871Y-15114419D01*
X8611871Y-15114419D02*
X8621395Y-15152514D01*
X8621395Y-15152514D02*
X8621395Y-15200133D01*
X8621395Y-15200133D02*
X8611871Y-15238228D01*
X8611871Y-15238228D02*
X8602348Y-15257276D01*
X8602348Y-15257276D02*
X8592824Y-15266800D01*
X8592824Y-15266800D02*
X8573776Y-15276324D01*
X8573776Y-15276324D02*
X8554729Y-15276324D01*
X8554729Y-15276324D02*
X8535681Y-15266800D01*
X8535681Y-15266800D02*
X8526157Y-15257276D01*
X8526157Y-15257276D02*
X8516633Y-15238228D01*
X8516633Y-15238228D02*
X8507110Y-15200133D01*
X8507110Y-15200133D02*
X8507110Y-15152514D01*
X8507110Y-15152514D02*
X8516633Y-15114419D01*
X8516633Y-15114419D02*
X8526157Y-15095371D01*
X8526157Y-15095371D02*
X8535681Y-15085848D01*
X8535681Y-15085848D02*
X8554729Y-15076324D01*
X8745205Y-15076324D02*
X8764252Y-15076324D01*
X8764252Y-15076324D02*
X8783300Y-15085848D01*
X8783300Y-15085848D02*
X8792824Y-15095371D01*
X8792824Y-15095371D02*
X8802348Y-15114419D01*
X8802348Y-15114419D02*
X8811871Y-15152514D01*
X8811871Y-15152514D02*
X8811871Y-15200133D01*
X8811871Y-15200133D02*
X8802348Y-15238228D01*
X8802348Y-15238228D02*
X8792824Y-15257276D01*
X8792824Y-15257276D02*
X8783300Y-15266800D01*
X8783300Y-15266800D02*
X8764252Y-15276324D01*
X8764252Y-15276324D02*
X8745205Y-15276324D01*
X8745205Y-15276324D02*
X8726157Y-15266800D01*
X8726157Y-15266800D02*
X8716633Y-15257276D01*
X8716633Y-15257276D02*
X8707110Y-15238228D01*
X8707110Y-15238228D02*
X8697586Y-15200133D01*
X8697586Y-15200133D02*
X8697586Y-15152514D01*
X8697586Y-15152514D02*
X8707110Y-15114419D01*
X8707110Y-15114419D02*
X8716633Y-15095371D01*
X8716633Y-15095371D02*
X8726157Y-15085848D01*
X8726157Y-15085848D02*
X8745205Y-15076324D01*
X8935681Y-15076324D02*
X8954729Y-15076324D01*
X8954729Y-15076324D02*
X8973776Y-15085848D01*
X8973776Y-15085848D02*
X8983300Y-15095371D01*
X8983300Y-15095371D02*
X8992824Y-15114419D01*
X8992824Y-15114419D02*
X9002348Y-15152514D01*
X9002348Y-15152514D02*
X9002348Y-15200133D01*
X9002348Y-15200133D02*
X8992824Y-15238228D01*
X8992824Y-15238228D02*
X8983300Y-15257276D01*
X8983300Y-15257276D02*
X8973776Y-15266800D01*
X8973776Y-15266800D02*
X8954729Y-15276324D01*
X8954729Y-15276324D02*
X8935681Y-15276324D01*
X8935681Y-15276324D02*
X8916633Y-15266800D01*
X8916633Y-15266800D02*
X8907110Y-15257276D01*
X8907110Y-15257276D02*
X8897586Y-15238228D01*
X8897586Y-15238228D02*
X8888062Y-15200133D01*
X8888062Y-15200133D02*
X8888062Y-15152514D01*
X8888062Y-15152514D02*
X8897586Y-15114419D01*
X8897586Y-15114419D02*
X8907110Y-15095371D01*
X8907110Y-15095371D02*
X8916633Y-15085848D01*
X8916633Y-15085848D02*
X8935681Y-15076324D01*
X9088062Y-15276324D02*
X9088062Y-15142990D01*
X9088062Y-15162038D02*
X9097586Y-15152514D01*
X9097586Y-15152514D02*
X9116633Y-15142990D01*
X9116633Y-15142990D02*
X9145205Y-15142990D01*
X9145205Y-15142990D02*
X9164252Y-15152514D01*
X9164252Y-15152514D02*
X9173776Y-15171562D01*
X9173776Y-15171562D02*
X9173776Y-15276324D01*
X9173776Y-15171562D02*
X9183300Y-15152514D01*
X9183300Y-15152514D02*
X9202348Y-15142990D01*
X9202348Y-15142990D02*
X9230919Y-15142990D01*
X9230919Y-15142990D02*
X9249967Y-15152514D01*
X9249967Y-15152514D02*
X9259491Y-15171562D01*
X9259491Y-15171562D02*
X9259491Y-15276324D01*
X9354729Y-15276324D02*
X9354729Y-15142990D01*
X9354729Y-15162038D02*
X9364252Y-15152514D01*
X9364252Y-15152514D02*
X9383300Y-15142990D01*
X9383300Y-15142990D02*
X9411872Y-15142990D01*
X9411872Y-15142990D02*
X9430919Y-15152514D01*
X9430919Y-15152514D02*
X9440443Y-15171562D01*
X9440443Y-15171562D02*
X9440443Y-15276324D01*
X9440443Y-15171562D02*
X9449967Y-15152514D01*
X9449967Y-15152514D02*
X9469014Y-15142990D01*
X9469014Y-15142990D02*
X9497586Y-15142990D01*
X9497586Y-15142990D02*
X9516633Y-15152514D01*
X9516633Y-15152514D02*
X9526157Y-15171562D01*
X9526157Y-15171562D02*
X9526157Y-15276324D01*
X9916633Y-15066800D02*
X9745205Y-15323943D01*
X10173776Y-15076324D02*
X10192824Y-15076324D01*
X10192824Y-15076324D02*
X10211872Y-15085848D01*
X10211872Y-15085848D02*
X10221395Y-15095371D01*
X10221395Y-15095371D02*
X10230919Y-15114419D01*
X10230919Y-15114419D02*
X10240443Y-15152514D01*
X10240443Y-15152514D02*
X10240443Y-15200133D01*
X10240443Y-15200133D02*
X10230919Y-15238228D01*
X10230919Y-15238228D02*
X10221395Y-15257276D01*
X10221395Y-15257276D02*
X10211872Y-15266800D01*
X10211872Y-15266800D02*
X10192824Y-15276324D01*
X10192824Y-15276324D02*
X10173776Y-15276324D01*
X10173776Y-15276324D02*
X10154729Y-15266800D01*
X10154729Y-15266800D02*
X10145205Y-15257276D01*
X10145205Y-15257276D02*
X10135681Y-15238228D01*
X10135681Y-15238228D02*
X10126157Y-15200133D01*
X10126157Y-15200133D02*
X10126157Y-15152514D01*
X10126157Y-15152514D02*
X10135681Y-15114419D01*
X10135681Y-15114419D02*
X10145205Y-15095371D01*
X10145205Y-15095371D02*
X10154729Y-15085848D01*
X10154729Y-15085848D02*
X10173776Y-15076324D01*
X10326157Y-15257276D02*
X10335681Y-15266800D01*
X10335681Y-15266800D02*
X10326157Y-15276324D01*
X10326157Y-15276324D02*
X10316634Y-15266800D01*
X10316634Y-15266800D02*
X10326157Y-15257276D01*
X10326157Y-15257276D02*
X10326157Y-15276324D01*
X10459491Y-15076324D02*
X10478538Y-15076324D01*
X10478538Y-15076324D02*
X10497586Y-15085848D01*
X10497586Y-15085848D02*
X10507110Y-15095371D01*
X10507110Y-15095371D02*
X10516634Y-15114419D01*
X10516634Y-15114419D02*
X10526157Y-15152514D01*
X10526157Y-15152514D02*
X10526157Y-15200133D01*
X10526157Y-15200133D02*
X10516634Y-15238228D01*
X10516634Y-15238228D02*
X10507110Y-15257276D01*
X10507110Y-15257276D02*
X10497586Y-15266800D01*
X10497586Y-15266800D02*
X10478538Y-15276324D01*
X10478538Y-15276324D02*
X10459491Y-15276324D01*
X10459491Y-15276324D02*
X10440443Y-15266800D01*
X10440443Y-15266800D02*
X10430919Y-15257276D01*
X10430919Y-15257276D02*
X10421395Y-15238228D01*
X10421395Y-15238228D02*
X10411872Y-15200133D01*
X10411872Y-15200133D02*
X10411872Y-15152514D01*
X10411872Y-15152514D02*
X10421395Y-15114419D01*
X10421395Y-15114419D02*
X10430919Y-15095371D01*
X10430919Y-15095371D02*
X10440443Y-15085848D01*
X10440443Y-15085848D02*
X10459491Y-15076324D01*
X10592824Y-15076324D02*
X10716634Y-15076324D01*
X10716634Y-15076324D02*
X10649967Y-15152514D01*
X10649967Y-15152514D02*
X10678538Y-15152514D01*
X10678538Y-15152514D02*
X10697586Y-15162038D01*
X10697586Y-15162038D02*
X10707110Y-15171562D01*
X10707110Y-15171562D02*
X10716634Y-15190609D01*
X10716634Y-15190609D02*
X10716634Y-15238228D01*
X10716634Y-15238228D02*
X10707110Y-15257276D01*
X10707110Y-15257276D02*
X10697586Y-15266800D01*
X10697586Y-15266800D02*
X10678538Y-15276324D01*
X10678538Y-15276324D02*
X10621395Y-15276324D01*
X10621395Y-15276324D02*
X10602348Y-15266800D01*
X10602348Y-15266800D02*
X10592824Y-15257276D01*
X10811872Y-15276324D02*
X10849967Y-15276324D01*
X10849967Y-15276324D02*
X10869015Y-15266800D01*
X10869015Y-15266800D02*
X10878538Y-15257276D01*
X10878538Y-15257276D02*
X10897586Y-15228705D01*
X10897586Y-15228705D02*
X10907110Y-15190609D01*
X10907110Y-15190609D02*
X10907110Y-15114419D01*
X10907110Y-15114419D02*
X10897586Y-15095371D01*
X10897586Y-15095371D02*
X10888062Y-15085848D01*
X10888062Y-15085848D02*
X10869015Y-15076324D01*
X10869015Y-15076324D02*
X10830919Y-15076324D01*
X10830919Y-15076324D02*
X10811872Y-15085848D01*
X10811872Y-15085848D02*
X10802348Y-15095371D01*
X10802348Y-15095371D02*
X10792824Y-15114419D01*
X10792824Y-15114419D02*
X10792824Y-15162038D01*
X10792824Y-15162038D02*
X10802348Y-15181086D01*
X10802348Y-15181086D02*
X10811872Y-15190609D01*
X10811872Y-15190609D02*
X10830919Y-15200133D01*
X10830919Y-15200133D02*
X10869015Y-15200133D01*
X10869015Y-15200133D02*
X10888062Y-15190609D01*
X10888062Y-15190609D02*
X10897586Y-15181086D01*
X10897586Y-15181086D02*
X10907110Y-15162038D01*
X11078538Y-15142990D02*
X11078538Y-15276324D01*
X11030919Y-15066800D02*
X10983300Y-15209657D01*
X10983300Y-15209657D02*
X11107110Y-15209657D01*
X11173776Y-15076324D02*
X11173776Y-15114419D01*
X11249967Y-15076324D02*
X11249967Y-15114419D01*
X11545205Y-15352514D02*
X11535681Y-15342990D01*
X11535681Y-15342990D02*
X11516634Y-15314419D01*
X11516634Y-15314419D02*
X11507110Y-15295371D01*
X11507110Y-15295371D02*
X11497586Y-15266800D01*
X11497586Y-15266800D02*
X11488062Y-15219181D01*
X11488062Y-15219181D02*
X11488062Y-15181086D01*
X11488062Y-15181086D02*
X11497586Y-15133467D01*
X11497586Y-15133467D02*
X11507110Y-15104895D01*
X11507110Y-15104895D02*
X11516634Y-15085848D01*
X11516634Y-15085848D02*
X11535681Y-15057276D01*
X11535681Y-15057276D02*
X11545205Y-15047752D01*
X11611872Y-15095371D02*
X11621395Y-15085848D01*
X11621395Y-15085848D02*
X11640443Y-15076324D01*
X11640443Y-15076324D02*
X11688062Y-15076324D01*
X11688062Y-15076324D02*
X11707110Y-15085848D01*
X11707110Y-15085848D02*
X11716634Y-15095371D01*
X11716634Y-15095371D02*
X11726157Y-15114419D01*
X11726157Y-15114419D02*
X11726157Y-15133467D01*
X11726157Y-15133467D02*
X11716634Y-15162038D01*
X11716634Y-15162038D02*
X11602348Y-15276324D01*
X11602348Y-15276324D02*
X11726157Y-15276324D01*
X11849967Y-15076324D02*
X11869015Y-15076324D01*
X11869015Y-15076324D02*
X11888062Y-15085848D01*
X11888062Y-15085848D02*
X11897586Y-15095371D01*
X11897586Y-15095371D02*
X11907110Y-15114419D01*
X11907110Y-15114419D02*
X11916634Y-15152514D01*
X11916634Y-15152514D02*
X11916634Y-15200133D01*
X11916634Y-15200133D02*
X11907110Y-15238228D01*
X11907110Y-15238228D02*
X11897586Y-15257276D01*
X11897586Y-15257276D02*
X11888062Y-15266800D01*
X11888062Y-15266800D02*
X11869015Y-15276324D01*
X11869015Y-15276324D02*
X11849967Y-15276324D01*
X11849967Y-15276324D02*
X11830919Y-15266800D01*
X11830919Y-15266800D02*
X11821395Y-15257276D01*
X11821395Y-15257276D02*
X11811872Y-15238228D01*
X11811872Y-15238228D02*
X11802348Y-15200133D01*
X11802348Y-15200133D02*
X11802348Y-15152514D01*
X11802348Y-15152514D02*
X11811872Y-15114419D01*
X11811872Y-15114419D02*
X11821395Y-15095371D01*
X11821395Y-15095371D02*
X11830919Y-15085848D01*
X11830919Y-15085848D02*
X11849967Y-15076324D01*
X12154729Y-15276324D02*
X12154729Y-15076324D01*
X12240443Y-15276324D02*
X12240443Y-15171562D01*
X12240443Y-15171562D02*
X12230919Y-15152514D01*
X12230919Y-15152514D02*
X12211872Y-15142990D01*
X12211872Y-15142990D02*
X12183300Y-15142990D01*
X12183300Y-15142990D02*
X12164253Y-15152514D01*
X12164253Y-15152514D02*
X12154729Y-15162038D01*
X12364253Y-15276324D02*
X12345205Y-15266800D01*
X12345205Y-15266800D02*
X12335681Y-15257276D01*
X12335681Y-15257276D02*
X12326157Y-15238228D01*
X12326157Y-15238228D02*
X12326157Y-15181086D01*
X12326157Y-15181086D02*
X12335681Y-15162038D01*
X12335681Y-15162038D02*
X12345205Y-15152514D01*
X12345205Y-15152514D02*
X12364253Y-15142990D01*
X12364253Y-15142990D02*
X12392824Y-15142990D01*
X12392824Y-15142990D02*
X12411872Y-15152514D01*
X12411872Y-15152514D02*
X12421396Y-15162038D01*
X12421396Y-15162038D02*
X12430919Y-15181086D01*
X12430919Y-15181086D02*
X12430919Y-15238228D01*
X12430919Y-15238228D02*
X12421396Y-15257276D01*
X12421396Y-15257276D02*
X12411872Y-15266800D01*
X12411872Y-15266800D02*
X12392824Y-15276324D01*
X12392824Y-15276324D02*
X12364253Y-15276324D01*
X12545205Y-15276324D02*
X12526157Y-15266800D01*
X12526157Y-15266800D02*
X12516634Y-15247752D01*
X12516634Y-15247752D02*
X12516634Y-15076324D01*
X12697586Y-15266800D02*
X12678538Y-15276324D01*
X12678538Y-15276324D02*
X12640443Y-15276324D01*
X12640443Y-15276324D02*
X12621396Y-15266800D01*
X12621396Y-15266800D02*
X12611872Y-15247752D01*
X12611872Y-15247752D02*
X12611872Y-15171562D01*
X12611872Y-15171562D02*
X12621396Y-15152514D01*
X12621396Y-15152514D02*
X12640443Y-15142990D01*
X12640443Y-15142990D02*
X12678538Y-15142990D01*
X12678538Y-15142990D02*
X12697586Y-15152514D01*
X12697586Y-15152514D02*
X12707110Y-15171562D01*
X12707110Y-15171562D02*
X12707110Y-15190609D01*
X12707110Y-15190609D02*
X12611872Y-15209657D01*
X12783300Y-15266800D02*
X12802348Y-15276324D01*
X12802348Y-15276324D02*
X12840443Y-15276324D01*
X12840443Y-15276324D02*
X12859491Y-15266800D01*
X12859491Y-15266800D02*
X12869015Y-15247752D01*
X12869015Y-15247752D02*
X12869015Y-15238228D01*
X12869015Y-15238228D02*
X12859491Y-15219181D01*
X12859491Y-15219181D02*
X12840443Y-15209657D01*
X12840443Y-15209657D02*
X12811872Y-15209657D01*
X12811872Y-15209657D02*
X12792824Y-15200133D01*
X12792824Y-15200133D02*
X12783300Y-15181086D01*
X12783300Y-15181086D02*
X12783300Y-15171562D01*
X12783300Y-15171562D02*
X12792824Y-15152514D01*
X12792824Y-15152514D02*
X12811872Y-15142990D01*
X12811872Y-15142990D02*
X12840443Y-15142990D01*
X12840443Y-15142990D02*
X12859491Y-15152514D01*
X12935681Y-15352514D02*
X12945205Y-15342990D01*
X12945205Y-15342990D02*
X12964253Y-15314419D01*
X12964253Y-15314419D02*
X12973777Y-15295371D01*
X12973777Y-15295371D02*
X12983300Y-15266800D01*
X12983300Y-15266800D02*
X12992824Y-15219181D01*
X12992824Y-15219181D02*
X12992824Y-15181086D01*
X12992824Y-15181086D02*
X12983300Y-15133467D01*
X12983300Y-15133467D02*
X12973777Y-15104895D01*
X12973777Y-15104895D02*
X12964253Y-15085848D01*
X12964253Y-15085848D02*
X12945205Y-15057276D01*
X12945205Y-15057276D02*
X12935681Y-15047752D01*
D14*
X7965727Y-15490227D02*
X7965727Y-15405373D01*
X7880873Y-15405373D01*
X7880873Y-15490227D01*
X7965727Y-15490227D01*
D11*
X8335681Y-15540324D02*
X8221395Y-15540324D01*
X8278538Y-15540324D02*
X8278538Y-15340324D01*
X8278538Y-15340324D02*
X8259490Y-15368895D01*
X8259490Y-15368895D02*
X8240443Y-15387943D01*
X8240443Y-15387943D02*
X8221395Y-15397467D01*
X8421395Y-15521276D02*
X8430919Y-15530800D01*
X8430919Y-15530800D02*
X8421395Y-15540324D01*
X8421395Y-15540324D02*
X8411871Y-15530800D01*
X8411871Y-15530800D02*
X8421395Y-15521276D01*
X8421395Y-15521276D02*
X8421395Y-15540324D01*
X8507110Y-15359371D02*
X8516633Y-15349848D01*
X8516633Y-15349848D02*
X8535681Y-15340324D01*
X8535681Y-15340324D02*
X8583300Y-15340324D01*
X8583300Y-15340324D02*
X8602348Y-15349848D01*
X8602348Y-15349848D02*
X8611871Y-15359371D01*
X8611871Y-15359371D02*
X8621395Y-15378419D01*
X8621395Y-15378419D02*
X8621395Y-15397467D01*
X8621395Y-15397467D02*
X8611871Y-15426038D01*
X8611871Y-15426038D02*
X8497586Y-15540324D01*
X8497586Y-15540324D02*
X8621395Y-15540324D01*
X8745205Y-15340324D02*
X8764252Y-15340324D01*
X8764252Y-15340324D02*
X8783300Y-15349848D01*
X8783300Y-15349848D02*
X8792824Y-15359371D01*
X8792824Y-15359371D02*
X8802348Y-15378419D01*
X8802348Y-15378419D02*
X8811871Y-15416514D01*
X8811871Y-15416514D02*
X8811871Y-15464133D01*
X8811871Y-15464133D02*
X8802348Y-15502228D01*
X8802348Y-15502228D02*
X8792824Y-15521276D01*
X8792824Y-15521276D02*
X8783300Y-15530800D01*
X8783300Y-15530800D02*
X8764252Y-15540324D01*
X8764252Y-15540324D02*
X8745205Y-15540324D01*
X8745205Y-15540324D02*
X8726157Y-15530800D01*
X8726157Y-15530800D02*
X8716633Y-15521276D01*
X8716633Y-15521276D02*
X8707110Y-15502228D01*
X8707110Y-15502228D02*
X8697586Y-15464133D01*
X8697586Y-15464133D02*
X8697586Y-15416514D01*
X8697586Y-15416514D02*
X8707110Y-15378419D01*
X8707110Y-15378419D02*
X8716633Y-15359371D01*
X8716633Y-15359371D02*
X8726157Y-15349848D01*
X8726157Y-15349848D02*
X8745205Y-15340324D01*
X8935681Y-15340324D02*
X8954729Y-15340324D01*
X8954729Y-15340324D02*
X8973776Y-15349848D01*
X8973776Y-15349848D02*
X8983300Y-15359371D01*
X8983300Y-15359371D02*
X8992824Y-15378419D01*
X8992824Y-15378419D02*
X9002348Y-15416514D01*
X9002348Y-15416514D02*
X9002348Y-15464133D01*
X9002348Y-15464133D02*
X8992824Y-15502228D01*
X8992824Y-15502228D02*
X8983300Y-15521276D01*
X8983300Y-15521276D02*
X8973776Y-15530800D01*
X8973776Y-15530800D02*
X8954729Y-15540324D01*
X8954729Y-15540324D02*
X8935681Y-15540324D01*
X8935681Y-15540324D02*
X8916633Y-15530800D01*
X8916633Y-15530800D02*
X8907110Y-15521276D01*
X8907110Y-15521276D02*
X8897586Y-15502228D01*
X8897586Y-15502228D02*
X8888062Y-15464133D01*
X8888062Y-15464133D02*
X8888062Y-15416514D01*
X8888062Y-15416514D02*
X8897586Y-15378419D01*
X8897586Y-15378419D02*
X8907110Y-15359371D01*
X8907110Y-15359371D02*
X8916633Y-15349848D01*
X8916633Y-15349848D02*
X8935681Y-15340324D01*
X9088062Y-15540324D02*
X9088062Y-15406990D01*
X9088062Y-15426038D02*
X9097586Y-15416514D01*
X9097586Y-15416514D02*
X9116633Y-15406990D01*
X9116633Y-15406990D02*
X9145205Y-15406990D01*
X9145205Y-15406990D02*
X9164252Y-15416514D01*
X9164252Y-15416514D02*
X9173776Y-15435562D01*
X9173776Y-15435562D02*
X9173776Y-15540324D01*
X9173776Y-15435562D02*
X9183300Y-15416514D01*
X9183300Y-15416514D02*
X9202348Y-15406990D01*
X9202348Y-15406990D02*
X9230919Y-15406990D01*
X9230919Y-15406990D02*
X9249967Y-15416514D01*
X9249967Y-15416514D02*
X9259491Y-15435562D01*
X9259491Y-15435562D02*
X9259491Y-15540324D01*
X9354729Y-15540324D02*
X9354729Y-15406990D01*
X9354729Y-15426038D02*
X9364252Y-15416514D01*
X9364252Y-15416514D02*
X9383300Y-15406990D01*
X9383300Y-15406990D02*
X9411872Y-15406990D01*
X9411872Y-15406990D02*
X9430919Y-15416514D01*
X9430919Y-15416514D02*
X9440443Y-15435562D01*
X9440443Y-15435562D02*
X9440443Y-15540324D01*
X9440443Y-15435562D02*
X9449967Y-15416514D01*
X9449967Y-15416514D02*
X9469014Y-15406990D01*
X9469014Y-15406990D02*
X9497586Y-15406990D01*
X9497586Y-15406990D02*
X9516633Y-15416514D01*
X9516633Y-15416514D02*
X9526157Y-15435562D01*
X9526157Y-15435562D02*
X9526157Y-15540324D01*
X9916633Y-15330800D02*
X9745205Y-15587943D01*
X10173776Y-15340324D02*
X10192824Y-15340324D01*
X10192824Y-15340324D02*
X10211872Y-15349848D01*
X10211872Y-15349848D02*
X10221395Y-15359371D01*
X10221395Y-15359371D02*
X10230919Y-15378419D01*
X10230919Y-15378419D02*
X10240443Y-15416514D01*
X10240443Y-15416514D02*
X10240443Y-15464133D01*
X10240443Y-15464133D02*
X10230919Y-15502228D01*
X10230919Y-15502228D02*
X10221395Y-15521276D01*
X10221395Y-15521276D02*
X10211872Y-15530800D01*
X10211872Y-15530800D02*
X10192824Y-15540324D01*
X10192824Y-15540324D02*
X10173776Y-15540324D01*
X10173776Y-15540324D02*
X10154729Y-15530800D01*
X10154729Y-15530800D02*
X10145205Y-15521276D01*
X10145205Y-15521276D02*
X10135681Y-15502228D01*
X10135681Y-15502228D02*
X10126157Y-15464133D01*
X10126157Y-15464133D02*
X10126157Y-15416514D01*
X10126157Y-15416514D02*
X10135681Y-15378419D01*
X10135681Y-15378419D02*
X10145205Y-15359371D01*
X10145205Y-15359371D02*
X10154729Y-15349848D01*
X10154729Y-15349848D02*
X10173776Y-15340324D01*
X10326157Y-15521276D02*
X10335681Y-15530800D01*
X10335681Y-15530800D02*
X10326157Y-15540324D01*
X10326157Y-15540324D02*
X10316634Y-15530800D01*
X10316634Y-15530800D02*
X10326157Y-15521276D01*
X10326157Y-15521276D02*
X10326157Y-15540324D01*
X10459491Y-15340324D02*
X10478538Y-15340324D01*
X10478538Y-15340324D02*
X10497586Y-15349848D01*
X10497586Y-15349848D02*
X10507110Y-15359371D01*
X10507110Y-15359371D02*
X10516634Y-15378419D01*
X10516634Y-15378419D02*
X10526157Y-15416514D01*
X10526157Y-15416514D02*
X10526157Y-15464133D01*
X10526157Y-15464133D02*
X10516634Y-15502228D01*
X10516634Y-15502228D02*
X10507110Y-15521276D01*
X10507110Y-15521276D02*
X10497586Y-15530800D01*
X10497586Y-15530800D02*
X10478538Y-15540324D01*
X10478538Y-15540324D02*
X10459491Y-15540324D01*
X10459491Y-15540324D02*
X10440443Y-15530800D01*
X10440443Y-15530800D02*
X10430919Y-15521276D01*
X10430919Y-15521276D02*
X10421395Y-15502228D01*
X10421395Y-15502228D02*
X10411872Y-15464133D01*
X10411872Y-15464133D02*
X10411872Y-15416514D01*
X10411872Y-15416514D02*
X10421395Y-15378419D01*
X10421395Y-15378419D02*
X10430919Y-15359371D01*
X10430919Y-15359371D02*
X10440443Y-15349848D01*
X10440443Y-15349848D02*
X10459491Y-15340324D01*
X10697586Y-15406990D02*
X10697586Y-15540324D01*
X10649967Y-15330800D02*
X10602348Y-15473657D01*
X10602348Y-15473657D02*
X10726157Y-15473657D01*
X10783300Y-15340324D02*
X10916634Y-15340324D01*
X10916634Y-15340324D02*
X10830919Y-15540324D01*
X10983300Y-15359371D02*
X10992824Y-15349848D01*
X10992824Y-15349848D02*
X11011872Y-15340324D01*
X11011872Y-15340324D02*
X11059491Y-15340324D01*
X11059491Y-15340324D02*
X11078538Y-15349848D01*
X11078538Y-15349848D02*
X11088062Y-15359371D01*
X11088062Y-15359371D02*
X11097586Y-15378419D01*
X11097586Y-15378419D02*
X11097586Y-15397467D01*
X11097586Y-15397467D02*
X11088062Y-15426038D01*
X11088062Y-15426038D02*
X10973776Y-15540324D01*
X10973776Y-15540324D02*
X11097586Y-15540324D01*
X11173776Y-15340324D02*
X11173776Y-15378419D01*
X11249967Y-15340324D02*
X11249967Y-15378419D01*
X11545205Y-15616514D02*
X11535681Y-15606990D01*
X11535681Y-15606990D02*
X11516634Y-15578419D01*
X11516634Y-15578419D02*
X11507110Y-15559371D01*
X11507110Y-15559371D02*
X11497586Y-15530800D01*
X11497586Y-15530800D02*
X11488062Y-15483181D01*
X11488062Y-15483181D02*
X11488062Y-15445086D01*
X11488062Y-15445086D02*
X11497586Y-15397467D01*
X11497586Y-15397467D02*
X11507110Y-15368895D01*
X11507110Y-15368895D02*
X11516634Y-15349848D01*
X11516634Y-15349848D02*
X11535681Y-15321276D01*
X11535681Y-15321276D02*
X11545205Y-15311752D01*
X11649967Y-15426038D02*
X11630919Y-15416514D01*
X11630919Y-15416514D02*
X11621395Y-15406990D01*
X11621395Y-15406990D02*
X11611872Y-15387943D01*
X11611872Y-15387943D02*
X11611872Y-15378419D01*
X11611872Y-15378419D02*
X11621395Y-15359371D01*
X11621395Y-15359371D02*
X11630919Y-15349848D01*
X11630919Y-15349848D02*
X11649967Y-15340324D01*
X11649967Y-15340324D02*
X11688062Y-15340324D01*
X11688062Y-15340324D02*
X11707110Y-15349848D01*
X11707110Y-15349848D02*
X11716634Y-15359371D01*
X11716634Y-15359371D02*
X11726157Y-15378419D01*
X11726157Y-15378419D02*
X11726157Y-15387943D01*
X11726157Y-15387943D02*
X11716634Y-15406990D01*
X11716634Y-15406990D02*
X11707110Y-15416514D01*
X11707110Y-15416514D02*
X11688062Y-15426038D01*
X11688062Y-15426038D02*
X11649967Y-15426038D01*
X11649967Y-15426038D02*
X11630919Y-15435562D01*
X11630919Y-15435562D02*
X11621395Y-15445086D01*
X11621395Y-15445086D02*
X11611872Y-15464133D01*
X11611872Y-15464133D02*
X11611872Y-15502228D01*
X11611872Y-15502228D02*
X11621395Y-15521276D01*
X11621395Y-15521276D02*
X11630919Y-15530800D01*
X11630919Y-15530800D02*
X11649967Y-15540324D01*
X11649967Y-15540324D02*
X11688062Y-15540324D01*
X11688062Y-15540324D02*
X11707110Y-15530800D01*
X11707110Y-15530800D02*
X11716634Y-15521276D01*
X11716634Y-15521276D02*
X11726157Y-15502228D01*
X11726157Y-15502228D02*
X11726157Y-15464133D01*
X11726157Y-15464133D02*
X11716634Y-15445086D01*
X11716634Y-15445086D02*
X11707110Y-15435562D01*
X11707110Y-15435562D02*
X11688062Y-15426038D01*
X11964253Y-15540324D02*
X11964253Y-15340324D01*
X12049967Y-15540324D02*
X12049967Y-15435562D01*
X12049967Y-15435562D02*
X12040443Y-15416514D01*
X12040443Y-15416514D02*
X12021396Y-15406990D01*
X12021396Y-15406990D02*
X11992824Y-15406990D01*
X11992824Y-15406990D02*
X11973776Y-15416514D01*
X11973776Y-15416514D02*
X11964253Y-15426038D01*
X12173776Y-15540324D02*
X12154729Y-15530800D01*
X12154729Y-15530800D02*
X12145205Y-15521276D01*
X12145205Y-15521276D02*
X12135681Y-15502228D01*
X12135681Y-15502228D02*
X12135681Y-15445086D01*
X12135681Y-15445086D02*
X12145205Y-15426038D01*
X12145205Y-15426038D02*
X12154729Y-15416514D01*
X12154729Y-15416514D02*
X12173776Y-15406990D01*
X12173776Y-15406990D02*
X12202348Y-15406990D01*
X12202348Y-15406990D02*
X12221396Y-15416514D01*
X12221396Y-15416514D02*
X12230919Y-15426038D01*
X12230919Y-15426038D02*
X12240443Y-15445086D01*
X12240443Y-15445086D02*
X12240443Y-15502228D01*
X12240443Y-15502228D02*
X12230919Y-15521276D01*
X12230919Y-15521276D02*
X12221396Y-15530800D01*
X12221396Y-15530800D02*
X12202348Y-15540324D01*
X12202348Y-15540324D02*
X12173776Y-15540324D01*
X12354729Y-15540324D02*
X12335681Y-15530800D01*
X12335681Y-15530800D02*
X12326157Y-15511752D01*
X12326157Y-15511752D02*
X12326157Y-15340324D01*
X12507110Y-15530800D02*
X12488062Y-15540324D01*
X12488062Y-15540324D02*
X12449967Y-15540324D01*
X12449967Y-15540324D02*
X12430919Y-15530800D01*
X12430919Y-15530800D02*
X12421396Y-15511752D01*
X12421396Y-15511752D02*
X12421396Y-15435562D01*
X12421396Y-15435562D02*
X12430919Y-15416514D01*
X12430919Y-15416514D02*
X12449967Y-15406990D01*
X12449967Y-15406990D02*
X12488062Y-15406990D01*
X12488062Y-15406990D02*
X12507110Y-15416514D01*
X12507110Y-15416514D02*
X12516634Y-15435562D01*
X12516634Y-15435562D02*
X12516634Y-15454609D01*
X12516634Y-15454609D02*
X12421396Y-15473657D01*
X12592824Y-15530800D02*
X12611872Y-15540324D01*
X12611872Y-15540324D02*
X12649967Y-15540324D01*
X12649967Y-15540324D02*
X12669015Y-15530800D01*
X12669015Y-15530800D02*
X12678538Y-15511752D01*
X12678538Y-15511752D02*
X12678538Y-15502228D01*
X12678538Y-15502228D02*
X12669015Y-15483181D01*
X12669015Y-15483181D02*
X12649967Y-15473657D01*
X12649967Y-15473657D02*
X12621396Y-15473657D01*
X12621396Y-15473657D02*
X12602348Y-15464133D01*
X12602348Y-15464133D02*
X12592824Y-15445086D01*
X12592824Y-15445086D02*
X12592824Y-15435562D01*
X12592824Y-15435562D02*
X12602348Y-15416514D01*
X12602348Y-15416514D02*
X12621396Y-15406990D01*
X12621396Y-15406990D02*
X12649967Y-15406990D01*
X12649967Y-15406990D02*
X12669015Y-15416514D01*
X12745205Y-15616514D02*
X12754729Y-15606990D01*
X12754729Y-15606990D02*
X12773777Y-15578419D01*
X12773777Y-15578419D02*
X12783300Y-15559371D01*
X12783300Y-15559371D02*
X12792824Y-15530800D01*
X12792824Y-15530800D02*
X12802348Y-15483181D01*
X12802348Y-15483181D02*
X12802348Y-15445086D01*
X12802348Y-15445086D02*
X12792824Y-15397467D01*
X12792824Y-15397467D02*
X12783300Y-15368895D01*
X12783300Y-15368895D02*
X12773777Y-15349848D01*
X12773777Y-15349848D02*
X12754729Y-15321276D01*
X12754729Y-15321276D02*
X12745205Y-15311752D01*
D15*
X7903300Y-15791800D02*
X7983300Y-15711800D01*
X7903300Y-15631800D01*
X7823300Y-15711800D01*
X7903300Y-15791800D01*
D11*
X8335681Y-15804324D02*
X8221395Y-15804324D01*
X8278538Y-15804324D02*
X8278538Y-15604324D01*
X8278538Y-15604324D02*
X8259490Y-15632895D01*
X8259490Y-15632895D02*
X8240443Y-15651943D01*
X8240443Y-15651943D02*
X8221395Y-15661467D01*
X8421395Y-15785276D02*
X8430919Y-15794800D01*
X8430919Y-15794800D02*
X8421395Y-15804324D01*
X8421395Y-15804324D02*
X8411871Y-15794800D01*
X8411871Y-15794800D02*
X8421395Y-15785276D01*
X8421395Y-15785276D02*
X8421395Y-15804324D01*
X8602348Y-15604324D02*
X8564252Y-15604324D01*
X8564252Y-15604324D02*
X8545205Y-15613848D01*
X8545205Y-15613848D02*
X8535681Y-15623371D01*
X8535681Y-15623371D02*
X8516633Y-15651943D01*
X8516633Y-15651943D02*
X8507110Y-15690038D01*
X8507110Y-15690038D02*
X8507110Y-15766228D01*
X8507110Y-15766228D02*
X8516633Y-15785276D01*
X8516633Y-15785276D02*
X8526157Y-15794800D01*
X8526157Y-15794800D02*
X8545205Y-15804324D01*
X8545205Y-15804324D02*
X8583300Y-15804324D01*
X8583300Y-15804324D02*
X8602348Y-15794800D01*
X8602348Y-15794800D02*
X8611871Y-15785276D01*
X8611871Y-15785276D02*
X8621395Y-15766228D01*
X8621395Y-15766228D02*
X8621395Y-15718609D01*
X8621395Y-15718609D02*
X8611871Y-15699562D01*
X8611871Y-15699562D02*
X8602348Y-15690038D01*
X8602348Y-15690038D02*
X8583300Y-15680514D01*
X8583300Y-15680514D02*
X8545205Y-15680514D01*
X8545205Y-15680514D02*
X8526157Y-15690038D01*
X8526157Y-15690038D02*
X8516633Y-15699562D01*
X8516633Y-15699562D02*
X8507110Y-15718609D01*
X8745205Y-15604324D02*
X8764252Y-15604324D01*
X8764252Y-15604324D02*
X8783300Y-15613848D01*
X8783300Y-15613848D02*
X8792824Y-15623371D01*
X8792824Y-15623371D02*
X8802348Y-15642419D01*
X8802348Y-15642419D02*
X8811871Y-15680514D01*
X8811871Y-15680514D02*
X8811871Y-15728133D01*
X8811871Y-15728133D02*
X8802348Y-15766228D01*
X8802348Y-15766228D02*
X8792824Y-15785276D01*
X8792824Y-15785276D02*
X8783300Y-15794800D01*
X8783300Y-15794800D02*
X8764252Y-15804324D01*
X8764252Y-15804324D02*
X8745205Y-15804324D01*
X8745205Y-15804324D02*
X8726157Y-15794800D01*
X8726157Y-15794800D02*
X8716633Y-15785276D01*
X8716633Y-15785276D02*
X8707110Y-15766228D01*
X8707110Y-15766228D02*
X8697586Y-15728133D01*
X8697586Y-15728133D02*
X8697586Y-15680514D01*
X8697586Y-15680514D02*
X8707110Y-15642419D01*
X8707110Y-15642419D02*
X8716633Y-15623371D01*
X8716633Y-15623371D02*
X8726157Y-15613848D01*
X8726157Y-15613848D02*
X8745205Y-15604324D01*
X8935681Y-15604324D02*
X8954729Y-15604324D01*
X8954729Y-15604324D02*
X8973776Y-15613848D01*
X8973776Y-15613848D02*
X8983300Y-15623371D01*
X8983300Y-15623371D02*
X8992824Y-15642419D01*
X8992824Y-15642419D02*
X9002348Y-15680514D01*
X9002348Y-15680514D02*
X9002348Y-15728133D01*
X9002348Y-15728133D02*
X8992824Y-15766228D01*
X8992824Y-15766228D02*
X8983300Y-15785276D01*
X8983300Y-15785276D02*
X8973776Y-15794800D01*
X8973776Y-15794800D02*
X8954729Y-15804324D01*
X8954729Y-15804324D02*
X8935681Y-15804324D01*
X8935681Y-15804324D02*
X8916633Y-15794800D01*
X8916633Y-15794800D02*
X8907110Y-15785276D01*
X8907110Y-15785276D02*
X8897586Y-15766228D01*
X8897586Y-15766228D02*
X8888062Y-15728133D01*
X8888062Y-15728133D02*
X8888062Y-15680514D01*
X8888062Y-15680514D02*
X8897586Y-15642419D01*
X8897586Y-15642419D02*
X8907110Y-15623371D01*
X8907110Y-15623371D02*
X8916633Y-15613848D01*
X8916633Y-15613848D02*
X8935681Y-15604324D01*
X9088062Y-15804324D02*
X9088062Y-15670990D01*
X9088062Y-15690038D02*
X9097586Y-15680514D01*
X9097586Y-15680514D02*
X9116633Y-15670990D01*
X9116633Y-15670990D02*
X9145205Y-15670990D01*
X9145205Y-15670990D02*
X9164252Y-15680514D01*
X9164252Y-15680514D02*
X9173776Y-15699562D01*
X9173776Y-15699562D02*
X9173776Y-15804324D01*
X9173776Y-15699562D02*
X9183300Y-15680514D01*
X9183300Y-15680514D02*
X9202348Y-15670990D01*
X9202348Y-15670990D02*
X9230919Y-15670990D01*
X9230919Y-15670990D02*
X9249967Y-15680514D01*
X9249967Y-15680514D02*
X9259491Y-15699562D01*
X9259491Y-15699562D02*
X9259491Y-15804324D01*
X9354729Y-15804324D02*
X9354729Y-15670990D01*
X9354729Y-15690038D02*
X9364252Y-15680514D01*
X9364252Y-15680514D02*
X9383300Y-15670990D01*
X9383300Y-15670990D02*
X9411872Y-15670990D01*
X9411872Y-15670990D02*
X9430919Y-15680514D01*
X9430919Y-15680514D02*
X9440443Y-15699562D01*
X9440443Y-15699562D02*
X9440443Y-15804324D01*
X9440443Y-15699562D02*
X9449967Y-15680514D01*
X9449967Y-15680514D02*
X9469014Y-15670990D01*
X9469014Y-15670990D02*
X9497586Y-15670990D01*
X9497586Y-15670990D02*
X9516633Y-15680514D01*
X9516633Y-15680514D02*
X9526157Y-15699562D01*
X9526157Y-15699562D02*
X9526157Y-15804324D01*
X9916633Y-15594800D02*
X9745205Y-15851943D01*
X10173776Y-15604324D02*
X10192824Y-15604324D01*
X10192824Y-15604324D02*
X10211872Y-15613848D01*
X10211872Y-15613848D02*
X10221395Y-15623371D01*
X10221395Y-15623371D02*
X10230919Y-15642419D01*
X10230919Y-15642419D02*
X10240443Y-15680514D01*
X10240443Y-15680514D02*
X10240443Y-15728133D01*
X10240443Y-15728133D02*
X10230919Y-15766228D01*
X10230919Y-15766228D02*
X10221395Y-15785276D01*
X10221395Y-15785276D02*
X10211872Y-15794800D01*
X10211872Y-15794800D02*
X10192824Y-15804324D01*
X10192824Y-15804324D02*
X10173776Y-15804324D01*
X10173776Y-15804324D02*
X10154729Y-15794800D01*
X10154729Y-15794800D02*
X10145205Y-15785276D01*
X10145205Y-15785276D02*
X10135681Y-15766228D01*
X10135681Y-15766228D02*
X10126157Y-15728133D01*
X10126157Y-15728133D02*
X10126157Y-15680514D01*
X10126157Y-15680514D02*
X10135681Y-15642419D01*
X10135681Y-15642419D02*
X10145205Y-15623371D01*
X10145205Y-15623371D02*
X10154729Y-15613848D01*
X10154729Y-15613848D02*
X10173776Y-15604324D01*
X10326157Y-15785276D02*
X10335681Y-15794800D01*
X10335681Y-15794800D02*
X10326157Y-15804324D01*
X10326157Y-15804324D02*
X10316634Y-15794800D01*
X10316634Y-15794800D02*
X10326157Y-15785276D01*
X10326157Y-15785276D02*
X10326157Y-15804324D01*
X10459491Y-15604324D02*
X10478538Y-15604324D01*
X10478538Y-15604324D02*
X10497586Y-15613848D01*
X10497586Y-15613848D02*
X10507110Y-15623371D01*
X10507110Y-15623371D02*
X10516634Y-15642419D01*
X10516634Y-15642419D02*
X10526157Y-15680514D01*
X10526157Y-15680514D02*
X10526157Y-15728133D01*
X10526157Y-15728133D02*
X10516634Y-15766228D01*
X10516634Y-15766228D02*
X10507110Y-15785276D01*
X10507110Y-15785276D02*
X10497586Y-15794800D01*
X10497586Y-15794800D02*
X10478538Y-15804324D01*
X10478538Y-15804324D02*
X10459491Y-15804324D01*
X10459491Y-15804324D02*
X10440443Y-15794800D01*
X10440443Y-15794800D02*
X10430919Y-15785276D01*
X10430919Y-15785276D02*
X10421395Y-15766228D01*
X10421395Y-15766228D02*
X10411872Y-15728133D01*
X10411872Y-15728133D02*
X10411872Y-15680514D01*
X10411872Y-15680514D02*
X10421395Y-15642419D01*
X10421395Y-15642419D02*
X10430919Y-15623371D01*
X10430919Y-15623371D02*
X10440443Y-15613848D01*
X10440443Y-15613848D02*
X10459491Y-15604324D01*
X10697586Y-15604324D02*
X10659491Y-15604324D01*
X10659491Y-15604324D02*
X10640443Y-15613848D01*
X10640443Y-15613848D02*
X10630919Y-15623371D01*
X10630919Y-15623371D02*
X10611872Y-15651943D01*
X10611872Y-15651943D02*
X10602348Y-15690038D01*
X10602348Y-15690038D02*
X10602348Y-15766228D01*
X10602348Y-15766228D02*
X10611872Y-15785276D01*
X10611872Y-15785276D02*
X10621395Y-15794800D01*
X10621395Y-15794800D02*
X10640443Y-15804324D01*
X10640443Y-15804324D02*
X10678538Y-15804324D01*
X10678538Y-15804324D02*
X10697586Y-15794800D01*
X10697586Y-15794800D02*
X10707110Y-15785276D01*
X10707110Y-15785276D02*
X10716634Y-15766228D01*
X10716634Y-15766228D02*
X10716634Y-15718609D01*
X10716634Y-15718609D02*
X10707110Y-15699562D01*
X10707110Y-15699562D02*
X10697586Y-15690038D01*
X10697586Y-15690038D02*
X10678538Y-15680514D01*
X10678538Y-15680514D02*
X10640443Y-15680514D01*
X10640443Y-15680514D02*
X10621395Y-15690038D01*
X10621395Y-15690038D02*
X10611872Y-15699562D01*
X10611872Y-15699562D02*
X10602348Y-15718609D01*
X10783300Y-15604324D02*
X10907110Y-15604324D01*
X10907110Y-15604324D02*
X10840443Y-15680514D01*
X10840443Y-15680514D02*
X10869015Y-15680514D01*
X10869015Y-15680514D02*
X10888062Y-15690038D01*
X10888062Y-15690038D02*
X10897586Y-15699562D01*
X10897586Y-15699562D02*
X10907110Y-15718609D01*
X10907110Y-15718609D02*
X10907110Y-15766228D01*
X10907110Y-15766228D02*
X10897586Y-15785276D01*
X10897586Y-15785276D02*
X10888062Y-15794800D01*
X10888062Y-15794800D02*
X10869015Y-15804324D01*
X10869015Y-15804324D02*
X10811872Y-15804324D01*
X10811872Y-15804324D02*
X10792824Y-15794800D01*
X10792824Y-15794800D02*
X10783300Y-15785276D01*
X11030919Y-15604324D02*
X11049967Y-15604324D01*
X11049967Y-15604324D02*
X11069015Y-15613848D01*
X11069015Y-15613848D02*
X11078538Y-15623371D01*
X11078538Y-15623371D02*
X11088062Y-15642419D01*
X11088062Y-15642419D02*
X11097586Y-15680514D01*
X11097586Y-15680514D02*
X11097586Y-15728133D01*
X11097586Y-15728133D02*
X11088062Y-15766228D01*
X11088062Y-15766228D02*
X11078538Y-15785276D01*
X11078538Y-15785276D02*
X11069015Y-15794800D01*
X11069015Y-15794800D02*
X11049967Y-15804324D01*
X11049967Y-15804324D02*
X11030919Y-15804324D01*
X11030919Y-15804324D02*
X11011872Y-15794800D01*
X11011872Y-15794800D02*
X11002348Y-15785276D01*
X11002348Y-15785276D02*
X10992824Y-15766228D01*
X10992824Y-15766228D02*
X10983300Y-15728133D01*
X10983300Y-15728133D02*
X10983300Y-15680514D01*
X10983300Y-15680514D02*
X10992824Y-15642419D01*
X10992824Y-15642419D02*
X11002348Y-15623371D01*
X11002348Y-15623371D02*
X11011872Y-15613848D01*
X11011872Y-15613848D02*
X11030919Y-15604324D01*
X11173776Y-15604324D02*
X11173776Y-15642419D01*
X11249967Y-15604324D02*
X11249967Y-15642419D01*
X11545205Y-15880514D02*
X11535681Y-15870990D01*
X11535681Y-15870990D02*
X11516634Y-15842419D01*
X11516634Y-15842419D02*
X11507110Y-15823371D01*
X11507110Y-15823371D02*
X11497586Y-15794800D01*
X11497586Y-15794800D02*
X11488062Y-15747181D01*
X11488062Y-15747181D02*
X11488062Y-15709086D01*
X11488062Y-15709086D02*
X11497586Y-15661467D01*
X11497586Y-15661467D02*
X11507110Y-15632895D01*
X11507110Y-15632895D02*
X11516634Y-15613848D01*
X11516634Y-15613848D02*
X11535681Y-15585276D01*
X11535681Y-15585276D02*
X11545205Y-15575752D01*
X11707110Y-15604324D02*
X11669014Y-15604324D01*
X11669014Y-15604324D02*
X11649967Y-15613848D01*
X11649967Y-15613848D02*
X11640443Y-15623371D01*
X11640443Y-15623371D02*
X11621395Y-15651943D01*
X11621395Y-15651943D02*
X11611872Y-15690038D01*
X11611872Y-15690038D02*
X11611872Y-15766228D01*
X11611872Y-15766228D02*
X11621395Y-15785276D01*
X11621395Y-15785276D02*
X11630919Y-15794800D01*
X11630919Y-15794800D02*
X11649967Y-15804324D01*
X11649967Y-15804324D02*
X11688062Y-15804324D01*
X11688062Y-15804324D02*
X11707110Y-15794800D01*
X11707110Y-15794800D02*
X11716634Y-15785276D01*
X11716634Y-15785276D02*
X11726157Y-15766228D01*
X11726157Y-15766228D02*
X11726157Y-15718609D01*
X11726157Y-15718609D02*
X11716634Y-15699562D01*
X11716634Y-15699562D02*
X11707110Y-15690038D01*
X11707110Y-15690038D02*
X11688062Y-15680514D01*
X11688062Y-15680514D02*
X11649967Y-15680514D01*
X11649967Y-15680514D02*
X11630919Y-15690038D01*
X11630919Y-15690038D02*
X11621395Y-15699562D01*
X11621395Y-15699562D02*
X11611872Y-15718609D01*
X11964253Y-15804324D02*
X11964253Y-15604324D01*
X12049967Y-15804324D02*
X12049967Y-15699562D01*
X12049967Y-15699562D02*
X12040443Y-15680514D01*
X12040443Y-15680514D02*
X12021396Y-15670990D01*
X12021396Y-15670990D02*
X11992824Y-15670990D01*
X11992824Y-15670990D02*
X11973776Y-15680514D01*
X11973776Y-15680514D02*
X11964253Y-15690038D01*
X12173776Y-15804324D02*
X12154729Y-15794800D01*
X12154729Y-15794800D02*
X12145205Y-15785276D01*
X12145205Y-15785276D02*
X12135681Y-15766228D01*
X12135681Y-15766228D02*
X12135681Y-15709086D01*
X12135681Y-15709086D02*
X12145205Y-15690038D01*
X12145205Y-15690038D02*
X12154729Y-15680514D01*
X12154729Y-15680514D02*
X12173776Y-15670990D01*
X12173776Y-15670990D02*
X12202348Y-15670990D01*
X12202348Y-15670990D02*
X12221396Y-15680514D01*
X12221396Y-15680514D02*
X12230919Y-15690038D01*
X12230919Y-15690038D02*
X12240443Y-15709086D01*
X12240443Y-15709086D02*
X12240443Y-15766228D01*
X12240443Y-15766228D02*
X12230919Y-15785276D01*
X12230919Y-15785276D02*
X12221396Y-15794800D01*
X12221396Y-15794800D02*
X12202348Y-15804324D01*
X12202348Y-15804324D02*
X12173776Y-15804324D01*
X12354729Y-15804324D02*
X12335681Y-15794800D01*
X12335681Y-15794800D02*
X12326157Y-15775752D01*
X12326157Y-15775752D02*
X12326157Y-15604324D01*
X12507110Y-15794800D02*
X12488062Y-15804324D01*
X12488062Y-15804324D02*
X12449967Y-15804324D01*
X12449967Y-15804324D02*
X12430919Y-15794800D01*
X12430919Y-15794800D02*
X12421396Y-15775752D01*
X12421396Y-15775752D02*
X12421396Y-15699562D01*
X12421396Y-15699562D02*
X12430919Y-15680514D01*
X12430919Y-15680514D02*
X12449967Y-15670990D01*
X12449967Y-15670990D02*
X12488062Y-15670990D01*
X12488062Y-15670990D02*
X12507110Y-15680514D01*
X12507110Y-15680514D02*
X12516634Y-15699562D01*
X12516634Y-15699562D02*
X12516634Y-15718609D01*
X12516634Y-15718609D02*
X12421396Y-15737657D01*
X12592824Y-15794800D02*
X12611872Y-15804324D01*
X12611872Y-15804324D02*
X12649967Y-15804324D01*
X12649967Y-15804324D02*
X12669015Y-15794800D01*
X12669015Y-15794800D02*
X12678538Y-15775752D01*
X12678538Y-15775752D02*
X12678538Y-15766228D01*
X12678538Y-15766228D02*
X12669015Y-15747181D01*
X12669015Y-15747181D02*
X12649967Y-15737657D01*
X12649967Y-15737657D02*
X12621396Y-15737657D01*
X12621396Y-15737657D02*
X12602348Y-15728133D01*
X12602348Y-15728133D02*
X12592824Y-15709086D01*
X12592824Y-15709086D02*
X12592824Y-15699562D01*
X12592824Y-15699562D02*
X12602348Y-15680514D01*
X12602348Y-15680514D02*
X12621396Y-15670990D01*
X12621396Y-15670990D02*
X12649967Y-15670990D01*
X12649967Y-15670990D02*
X12669015Y-15680514D01*
X12745205Y-15880514D02*
X12754729Y-15870990D01*
X12754729Y-15870990D02*
X12773777Y-15842419D01*
X12773777Y-15842419D02*
X12783300Y-15823371D01*
X12783300Y-15823371D02*
X12792824Y-15794800D01*
X12792824Y-15794800D02*
X12802348Y-15747181D01*
X12802348Y-15747181D02*
X12802348Y-15709086D01*
X12802348Y-15709086D02*
X12792824Y-15661467D01*
X12792824Y-15661467D02*
X12783300Y-15632895D01*
X12783300Y-15632895D02*
X12773777Y-15613848D01*
X12773777Y-15613848D02*
X12754729Y-15585276D01*
X12754729Y-15585276D02*
X12745205Y-15575752D01*
D16*
X7803300Y-15901800D02*
X7983300Y-16081800D01*
X7983300Y-15901800D02*
X7803300Y-16081800D01*
X7983300Y-15991800D02*
G75*
G03*
X7983300Y-15991800I-90000J0D01*
G01*
D11*
X8335681Y-16084324D02*
X8221395Y-16084324D01*
X8278538Y-16084324D02*
X8278538Y-15884324D01*
X8278538Y-15884324D02*
X8259490Y-15912895D01*
X8259490Y-15912895D02*
X8240443Y-15931943D01*
X8240443Y-15931943D02*
X8221395Y-15941467D01*
X8421395Y-16065276D02*
X8430919Y-16074800D01*
X8430919Y-16074800D02*
X8421395Y-16084324D01*
X8421395Y-16084324D02*
X8411871Y-16074800D01*
X8411871Y-16074800D02*
X8421395Y-16065276D01*
X8421395Y-16065276D02*
X8421395Y-16084324D01*
X8545205Y-15970038D02*
X8526157Y-15960514D01*
X8526157Y-15960514D02*
X8516633Y-15950990D01*
X8516633Y-15950990D02*
X8507110Y-15931943D01*
X8507110Y-15931943D02*
X8507110Y-15922419D01*
X8507110Y-15922419D02*
X8516633Y-15903371D01*
X8516633Y-15903371D02*
X8526157Y-15893848D01*
X8526157Y-15893848D02*
X8545205Y-15884324D01*
X8545205Y-15884324D02*
X8583300Y-15884324D01*
X8583300Y-15884324D02*
X8602348Y-15893848D01*
X8602348Y-15893848D02*
X8611871Y-15903371D01*
X8611871Y-15903371D02*
X8621395Y-15922419D01*
X8621395Y-15922419D02*
X8621395Y-15931943D01*
X8621395Y-15931943D02*
X8611871Y-15950990D01*
X8611871Y-15950990D02*
X8602348Y-15960514D01*
X8602348Y-15960514D02*
X8583300Y-15970038D01*
X8583300Y-15970038D02*
X8545205Y-15970038D01*
X8545205Y-15970038D02*
X8526157Y-15979562D01*
X8526157Y-15979562D02*
X8516633Y-15989086D01*
X8516633Y-15989086D02*
X8507110Y-16008133D01*
X8507110Y-16008133D02*
X8507110Y-16046228D01*
X8507110Y-16046228D02*
X8516633Y-16065276D01*
X8516633Y-16065276D02*
X8526157Y-16074800D01*
X8526157Y-16074800D02*
X8545205Y-16084324D01*
X8545205Y-16084324D02*
X8583300Y-16084324D01*
X8583300Y-16084324D02*
X8602348Y-16074800D01*
X8602348Y-16074800D02*
X8611871Y-16065276D01*
X8611871Y-16065276D02*
X8621395Y-16046228D01*
X8621395Y-16046228D02*
X8621395Y-16008133D01*
X8621395Y-16008133D02*
X8611871Y-15989086D01*
X8611871Y-15989086D02*
X8602348Y-15979562D01*
X8602348Y-15979562D02*
X8583300Y-15970038D01*
X8745205Y-15884324D02*
X8764252Y-15884324D01*
X8764252Y-15884324D02*
X8783300Y-15893848D01*
X8783300Y-15893848D02*
X8792824Y-15903371D01*
X8792824Y-15903371D02*
X8802348Y-15922419D01*
X8802348Y-15922419D02*
X8811871Y-15960514D01*
X8811871Y-15960514D02*
X8811871Y-16008133D01*
X8811871Y-16008133D02*
X8802348Y-16046228D01*
X8802348Y-16046228D02*
X8792824Y-16065276D01*
X8792824Y-16065276D02*
X8783300Y-16074800D01*
X8783300Y-16074800D02*
X8764252Y-16084324D01*
X8764252Y-16084324D02*
X8745205Y-16084324D01*
X8745205Y-16084324D02*
X8726157Y-16074800D01*
X8726157Y-16074800D02*
X8716633Y-16065276D01*
X8716633Y-16065276D02*
X8707110Y-16046228D01*
X8707110Y-16046228D02*
X8697586Y-16008133D01*
X8697586Y-16008133D02*
X8697586Y-15960514D01*
X8697586Y-15960514D02*
X8707110Y-15922419D01*
X8707110Y-15922419D02*
X8716633Y-15903371D01*
X8716633Y-15903371D02*
X8726157Y-15893848D01*
X8726157Y-15893848D02*
X8745205Y-15884324D01*
X8935681Y-15884324D02*
X8954729Y-15884324D01*
X8954729Y-15884324D02*
X8973776Y-15893848D01*
X8973776Y-15893848D02*
X8983300Y-15903371D01*
X8983300Y-15903371D02*
X8992824Y-15922419D01*
X8992824Y-15922419D02*
X9002348Y-15960514D01*
X9002348Y-15960514D02*
X9002348Y-16008133D01*
X9002348Y-16008133D02*
X8992824Y-16046228D01*
X8992824Y-16046228D02*
X8983300Y-16065276D01*
X8983300Y-16065276D02*
X8973776Y-16074800D01*
X8973776Y-16074800D02*
X8954729Y-16084324D01*
X8954729Y-16084324D02*
X8935681Y-16084324D01*
X8935681Y-16084324D02*
X8916633Y-16074800D01*
X8916633Y-16074800D02*
X8907110Y-16065276D01*
X8907110Y-16065276D02*
X8897586Y-16046228D01*
X8897586Y-16046228D02*
X8888062Y-16008133D01*
X8888062Y-16008133D02*
X8888062Y-15960514D01*
X8888062Y-15960514D02*
X8897586Y-15922419D01*
X8897586Y-15922419D02*
X8907110Y-15903371D01*
X8907110Y-15903371D02*
X8916633Y-15893848D01*
X8916633Y-15893848D02*
X8935681Y-15884324D01*
X9088062Y-16084324D02*
X9088062Y-15950990D01*
X9088062Y-15970038D02*
X9097586Y-15960514D01*
X9097586Y-15960514D02*
X9116633Y-15950990D01*
X9116633Y-15950990D02*
X9145205Y-15950990D01*
X9145205Y-15950990D02*
X9164252Y-15960514D01*
X9164252Y-15960514D02*
X9173776Y-15979562D01*
X9173776Y-15979562D02*
X9173776Y-16084324D01*
X9173776Y-15979562D02*
X9183300Y-15960514D01*
X9183300Y-15960514D02*
X9202348Y-15950990D01*
X9202348Y-15950990D02*
X9230919Y-15950990D01*
X9230919Y-15950990D02*
X9249967Y-15960514D01*
X9249967Y-15960514D02*
X9259491Y-15979562D01*
X9259491Y-15979562D02*
X9259491Y-16084324D01*
X9354729Y-16084324D02*
X9354729Y-15950990D01*
X9354729Y-15970038D02*
X9364252Y-15960514D01*
X9364252Y-15960514D02*
X9383300Y-15950990D01*
X9383300Y-15950990D02*
X9411872Y-15950990D01*
X9411872Y-15950990D02*
X9430919Y-15960514D01*
X9430919Y-15960514D02*
X9440443Y-15979562D01*
X9440443Y-15979562D02*
X9440443Y-16084324D01*
X9440443Y-15979562D02*
X9449967Y-15960514D01*
X9449967Y-15960514D02*
X9469014Y-15950990D01*
X9469014Y-15950990D02*
X9497586Y-15950990D01*
X9497586Y-15950990D02*
X9516633Y-15960514D01*
X9516633Y-15960514D02*
X9526157Y-15979562D01*
X9526157Y-15979562D02*
X9526157Y-16084324D01*
X9916633Y-15874800D02*
X9745205Y-16131943D01*
X10173776Y-15884324D02*
X10192824Y-15884324D01*
X10192824Y-15884324D02*
X10211872Y-15893848D01*
X10211872Y-15893848D02*
X10221395Y-15903371D01*
X10221395Y-15903371D02*
X10230919Y-15922419D01*
X10230919Y-15922419D02*
X10240443Y-15960514D01*
X10240443Y-15960514D02*
X10240443Y-16008133D01*
X10240443Y-16008133D02*
X10230919Y-16046228D01*
X10230919Y-16046228D02*
X10221395Y-16065276D01*
X10221395Y-16065276D02*
X10211872Y-16074800D01*
X10211872Y-16074800D02*
X10192824Y-16084324D01*
X10192824Y-16084324D02*
X10173776Y-16084324D01*
X10173776Y-16084324D02*
X10154729Y-16074800D01*
X10154729Y-16074800D02*
X10145205Y-16065276D01*
X10145205Y-16065276D02*
X10135681Y-16046228D01*
X10135681Y-16046228D02*
X10126157Y-16008133D01*
X10126157Y-16008133D02*
X10126157Y-15960514D01*
X10126157Y-15960514D02*
X10135681Y-15922419D01*
X10135681Y-15922419D02*
X10145205Y-15903371D01*
X10145205Y-15903371D02*
X10154729Y-15893848D01*
X10154729Y-15893848D02*
X10173776Y-15884324D01*
X10326157Y-16065276D02*
X10335681Y-16074800D01*
X10335681Y-16074800D02*
X10326157Y-16084324D01*
X10326157Y-16084324D02*
X10316634Y-16074800D01*
X10316634Y-16074800D02*
X10326157Y-16065276D01*
X10326157Y-16065276D02*
X10326157Y-16084324D01*
X10459491Y-15884324D02*
X10478538Y-15884324D01*
X10478538Y-15884324D02*
X10497586Y-15893848D01*
X10497586Y-15893848D02*
X10507110Y-15903371D01*
X10507110Y-15903371D02*
X10516634Y-15922419D01*
X10516634Y-15922419D02*
X10526157Y-15960514D01*
X10526157Y-15960514D02*
X10526157Y-16008133D01*
X10526157Y-16008133D02*
X10516634Y-16046228D01*
X10516634Y-16046228D02*
X10507110Y-16065276D01*
X10507110Y-16065276D02*
X10497586Y-16074800D01*
X10497586Y-16074800D02*
X10478538Y-16084324D01*
X10478538Y-16084324D02*
X10459491Y-16084324D01*
X10459491Y-16084324D02*
X10440443Y-16074800D01*
X10440443Y-16074800D02*
X10430919Y-16065276D01*
X10430919Y-16065276D02*
X10421395Y-16046228D01*
X10421395Y-16046228D02*
X10411872Y-16008133D01*
X10411872Y-16008133D02*
X10411872Y-15960514D01*
X10411872Y-15960514D02*
X10421395Y-15922419D01*
X10421395Y-15922419D02*
X10430919Y-15903371D01*
X10430919Y-15903371D02*
X10440443Y-15893848D01*
X10440443Y-15893848D02*
X10459491Y-15884324D01*
X10592824Y-15884324D02*
X10726157Y-15884324D01*
X10726157Y-15884324D02*
X10640443Y-16084324D01*
X10840443Y-15884324D02*
X10859491Y-15884324D01*
X10859491Y-15884324D02*
X10878538Y-15893848D01*
X10878538Y-15893848D02*
X10888062Y-15903371D01*
X10888062Y-15903371D02*
X10897586Y-15922419D01*
X10897586Y-15922419D02*
X10907110Y-15960514D01*
X10907110Y-15960514D02*
X10907110Y-16008133D01*
X10907110Y-16008133D02*
X10897586Y-16046228D01*
X10897586Y-16046228D02*
X10888062Y-16065276D01*
X10888062Y-16065276D02*
X10878538Y-16074800D01*
X10878538Y-16074800D02*
X10859491Y-16084324D01*
X10859491Y-16084324D02*
X10840443Y-16084324D01*
X10840443Y-16084324D02*
X10821395Y-16074800D01*
X10821395Y-16074800D02*
X10811872Y-16065276D01*
X10811872Y-16065276D02*
X10802348Y-16046228D01*
X10802348Y-16046228D02*
X10792824Y-16008133D01*
X10792824Y-16008133D02*
X10792824Y-15960514D01*
X10792824Y-15960514D02*
X10802348Y-15922419D01*
X10802348Y-15922419D02*
X10811872Y-15903371D01*
X10811872Y-15903371D02*
X10821395Y-15893848D01*
X10821395Y-15893848D02*
X10840443Y-15884324D01*
X11002348Y-16084324D02*
X11040443Y-16084324D01*
X11040443Y-16084324D02*
X11059491Y-16074800D01*
X11059491Y-16074800D02*
X11069015Y-16065276D01*
X11069015Y-16065276D02*
X11088062Y-16036705D01*
X11088062Y-16036705D02*
X11097586Y-15998609D01*
X11097586Y-15998609D02*
X11097586Y-15922419D01*
X11097586Y-15922419D02*
X11088062Y-15903371D01*
X11088062Y-15903371D02*
X11078538Y-15893848D01*
X11078538Y-15893848D02*
X11059491Y-15884324D01*
X11059491Y-15884324D02*
X11021395Y-15884324D01*
X11021395Y-15884324D02*
X11002348Y-15893848D01*
X11002348Y-15893848D02*
X10992824Y-15903371D01*
X10992824Y-15903371D02*
X10983300Y-15922419D01*
X10983300Y-15922419D02*
X10983300Y-15970038D01*
X10983300Y-15970038D02*
X10992824Y-15989086D01*
X10992824Y-15989086D02*
X11002348Y-15998609D01*
X11002348Y-15998609D02*
X11021395Y-16008133D01*
X11021395Y-16008133D02*
X11059491Y-16008133D01*
X11059491Y-16008133D02*
X11078538Y-15998609D01*
X11078538Y-15998609D02*
X11088062Y-15989086D01*
X11088062Y-15989086D02*
X11097586Y-15970038D01*
X11173776Y-15884324D02*
X11173776Y-15922419D01*
X11249967Y-15884324D02*
X11249967Y-15922419D01*
X11545205Y-16160514D02*
X11535681Y-16150990D01*
X11535681Y-16150990D02*
X11516634Y-16122419D01*
X11516634Y-16122419D02*
X11507110Y-16103371D01*
X11507110Y-16103371D02*
X11497586Y-16074800D01*
X11497586Y-16074800D02*
X11488062Y-16027181D01*
X11488062Y-16027181D02*
X11488062Y-15989086D01*
X11488062Y-15989086D02*
X11497586Y-15941467D01*
X11497586Y-15941467D02*
X11507110Y-15912895D01*
X11507110Y-15912895D02*
X11516634Y-15893848D01*
X11516634Y-15893848D02*
X11535681Y-15865276D01*
X11535681Y-15865276D02*
X11545205Y-15855752D01*
X11716634Y-15884324D02*
X11621395Y-15884324D01*
X11621395Y-15884324D02*
X11611872Y-15979562D01*
X11611872Y-15979562D02*
X11621395Y-15970038D01*
X11621395Y-15970038D02*
X11640443Y-15960514D01*
X11640443Y-15960514D02*
X11688062Y-15960514D01*
X11688062Y-15960514D02*
X11707110Y-15970038D01*
X11707110Y-15970038D02*
X11716634Y-15979562D01*
X11716634Y-15979562D02*
X11726157Y-15998609D01*
X11726157Y-15998609D02*
X11726157Y-16046228D01*
X11726157Y-16046228D02*
X11716634Y-16065276D01*
X11716634Y-16065276D02*
X11707110Y-16074800D01*
X11707110Y-16074800D02*
X11688062Y-16084324D01*
X11688062Y-16084324D02*
X11640443Y-16084324D01*
X11640443Y-16084324D02*
X11621395Y-16074800D01*
X11621395Y-16074800D02*
X11611872Y-16065276D01*
X11964253Y-16084324D02*
X11964253Y-15884324D01*
X12049967Y-16084324D02*
X12049967Y-15979562D01*
X12049967Y-15979562D02*
X12040443Y-15960514D01*
X12040443Y-15960514D02*
X12021396Y-15950990D01*
X12021396Y-15950990D02*
X11992824Y-15950990D01*
X11992824Y-15950990D02*
X11973776Y-15960514D01*
X11973776Y-15960514D02*
X11964253Y-15970038D01*
X12173776Y-16084324D02*
X12154729Y-16074800D01*
X12154729Y-16074800D02*
X12145205Y-16065276D01*
X12145205Y-16065276D02*
X12135681Y-16046228D01*
X12135681Y-16046228D02*
X12135681Y-15989086D01*
X12135681Y-15989086D02*
X12145205Y-15970038D01*
X12145205Y-15970038D02*
X12154729Y-15960514D01*
X12154729Y-15960514D02*
X12173776Y-15950990D01*
X12173776Y-15950990D02*
X12202348Y-15950990D01*
X12202348Y-15950990D02*
X12221396Y-15960514D01*
X12221396Y-15960514D02*
X12230919Y-15970038D01*
X12230919Y-15970038D02*
X12240443Y-15989086D01*
X12240443Y-15989086D02*
X12240443Y-16046228D01*
X12240443Y-16046228D02*
X12230919Y-16065276D01*
X12230919Y-16065276D02*
X12221396Y-16074800D01*
X12221396Y-16074800D02*
X12202348Y-16084324D01*
X12202348Y-16084324D02*
X12173776Y-16084324D01*
X12354729Y-16084324D02*
X12335681Y-16074800D01*
X12335681Y-16074800D02*
X12326157Y-16055752D01*
X12326157Y-16055752D02*
X12326157Y-15884324D01*
X12507110Y-16074800D02*
X12488062Y-16084324D01*
X12488062Y-16084324D02*
X12449967Y-16084324D01*
X12449967Y-16084324D02*
X12430919Y-16074800D01*
X12430919Y-16074800D02*
X12421396Y-16055752D01*
X12421396Y-16055752D02*
X12421396Y-15979562D01*
X12421396Y-15979562D02*
X12430919Y-15960514D01*
X12430919Y-15960514D02*
X12449967Y-15950990D01*
X12449967Y-15950990D02*
X12488062Y-15950990D01*
X12488062Y-15950990D02*
X12507110Y-15960514D01*
X12507110Y-15960514D02*
X12516634Y-15979562D01*
X12516634Y-15979562D02*
X12516634Y-15998609D01*
X12516634Y-15998609D02*
X12421396Y-16017657D01*
X12592824Y-16074800D02*
X12611872Y-16084324D01*
X12611872Y-16084324D02*
X12649967Y-16084324D01*
X12649967Y-16084324D02*
X12669015Y-16074800D01*
X12669015Y-16074800D02*
X12678538Y-16055752D01*
X12678538Y-16055752D02*
X12678538Y-16046228D01*
X12678538Y-16046228D02*
X12669015Y-16027181D01*
X12669015Y-16027181D02*
X12649967Y-16017657D01*
X12649967Y-16017657D02*
X12621396Y-16017657D01*
X12621396Y-16017657D02*
X12602348Y-16008133D01*
X12602348Y-16008133D02*
X12592824Y-15989086D01*
X12592824Y-15989086D02*
X12592824Y-15979562D01*
X12592824Y-15979562D02*
X12602348Y-15960514D01*
X12602348Y-15960514D02*
X12621396Y-15950990D01*
X12621396Y-15950990D02*
X12649967Y-15950990D01*
X12649967Y-15950990D02*
X12669015Y-15960514D01*
X12745205Y-16160514D02*
X12754729Y-16150990D01*
X12754729Y-16150990D02*
X12773777Y-16122419D01*
X12773777Y-16122419D02*
X12783300Y-16103371D01*
X12783300Y-16103371D02*
X12792824Y-16074800D01*
X12792824Y-16074800D02*
X12802348Y-16027181D01*
X12802348Y-16027181D02*
X12802348Y-15989086D01*
X12802348Y-15989086D02*
X12792824Y-15941467D01*
X12792824Y-15941467D02*
X12783300Y-15912895D01*
X12783300Y-15912895D02*
X12773777Y-15893848D01*
X12773777Y-15893848D02*
X12754729Y-15865276D01*
X12754729Y-15865276D02*
X12745205Y-15855752D01*
X7783300Y-16191800D02*
X7983300Y-16391800D01*
X7983300Y-16191800D02*
X7783300Y-16391800D01*
X7883300Y-16191800D02*
X7883300Y-16391800D01*
X7783300Y-16291800D02*
X7983300Y-16291800D01*
X8221395Y-16203371D02*
X8230919Y-16193848D01*
X8230919Y-16193848D02*
X8249967Y-16184324D01*
X8249967Y-16184324D02*
X8297586Y-16184324D01*
X8297586Y-16184324D02*
X8316633Y-16193848D01*
X8316633Y-16193848D02*
X8326157Y-16203371D01*
X8326157Y-16203371D02*
X8335681Y-16222419D01*
X8335681Y-16222419D02*
X8335681Y-16241467D01*
X8335681Y-16241467D02*
X8326157Y-16270038D01*
X8326157Y-16270038D02*
X8211871Y-16384324D01*
X8211871Y-16384324D02*
X8335681Y-16384324D01*
X8421395Y-16365276D02*
X8430919Y-16374800D01*
X8430919Y-16374800D02*
X8421395Y-16384324D01*
X8421395Y-16384324D02*
X8411871Y-16374800D01*
X8411871Y-16374800D02*
X8421395Y-16365276D01*
X8421395Y-16365276D02*
X8421395Y-16384324D01*
X8554729Y-16184324D02*
X8573776Y-16184324D01*
X8573776Y-16184324D02*
X8592824Y-16193848D01*
X8592824Y-16193848D02*
X8602348Y-16203371D01*
X8602348Y-16203371D02*
X8611871Y-16222419D01*
X8611871Y-16222419D02*
X8621395Y-16260514D01*
X8621395Y-16260514D02*
X8621395Y-16308133D01*
X8621395Y-16308133D02*
X8611871Y-16346228D01*
X8611871Y-16346228D02*
X8602348Y-16365276D01*
X8602348Y-16365276D02*
X8592824Y-16374800D01*
X8592824Y-16374800D02*
X8573776Y-16384324D01*
X8573776Y-16384324D02*
X8554729Y-16384324D01*
X8554729Y-16384324D02*
X8535681Y-16374800D01*
X8535681Y-16374800D02*
X8526157Y-16365276D01*
X8526157Y-16365276D02*
X8516633Y-16346228D01*
X8516633Y-16346228D02*
X8507110Y-16308133D01*
X8507110Y-16308133D02*
X8507110Y-16260514D01*
X8507110Y-16260514D02*
X8516633Y-16222419D01*
X8516633Y-16222419D02*
X8526157Y-16203371D01*
X8526157Y-16203371D02*
X8535681Y-16193848D01*
X8535681Y-16193848D02*
X8554729Y-16184324D01*
X8745205Y-16184324D02*
X8764252Y-16184324D01*
X8764252Y-16184324D02*
X8783300Y-16193848D01*
X8783300Y-16193848D02*
X8792824Y-16203371D01*
X8792824Y-16203371D02*
X8802348Y-16222419D01*
X8802348Y-16222419D02*
X8811871Y-16260514D01*
X8811871Y-16260514D02*
X8811871Y-16308133D01*
X8811871Y-16308133D02*
X8802348Y-16346228D01*
X8802348Y-16346228D02*
X8792824Y-16365276D01*
X8792824Y-16365276D02*
X8783300Y-16374800D01*
X8783300Y-16374800D02*
X8764252Y-16384324D01*
X8764252Y-16384324D02*
X8745205Y-16384324D01*
X8745205Y-16384324D02*
X8726157Y-16374800D01*
X8726157Y-16374800D02*
X8716633Y-16365276D01*
X8716633Y-16365276D02*
X8707110Y-16346228D01*
X8707110Y-16346228D02*
X8697586Y-16308133D01*
X8697586Y-16308133D02*
X8697586Y-16260514D01*
X8697586Y-16260514D02*
X8707110Y-16222419D01*
X8707110Y-16222419D02*
X8716633Y-16203371D01*
X8716633Y-16203371D02*
X8726157Y-16193848D01*
X8726157Y-16193848D02*
X8745205Y-16184324D01*
X8935681Y-16184324D02*
X8954729Y-16184324D01*
X8954729Y-16184324D02*
X8973776Y-16193848D01*
X8973776Y-16193848D02*
X8983300Y-16203371D01*
X8983300Y-16203371D02*
X8992824Y-16222419D01*
X8992824Y-16222419D02*
X9002348Y-16260514D01*
X9002348Y-16260514D02*
X9002348Y-16308133D01*
X9002348Y-16308133D02*
X8992824Y-16346228D01*
X8992824Y-16346228D02*
X8983300Y-16365276D01*
X8983300Y-16365276D02*
X8973776Y-16374800D01*
X8973776Y-16374800D02*
X8954729Y-16384324D01*
X8954729Y-16384324D02*
X8935681Y-16384324D01*
X8935681Y-16384324D02*
X8916633Y-16374800D01*
X8916633Y-16374800D02*
X8907110Y-16365276D01*
X8907110Y-16365276D02*
X8897586Y-16346228D01*
X8897586Y-16346228D02*
X8888062Y-16308133D01*
X8888062Y-16308133D02*
X8888062Y-16260514D01*
X8888062Y-16260514D02*
X8897586Y-16222419D01*
X8897586Y-16222419D02*
X8907110Y-16203371D01*
X8907110Y-16203371D02*
X8916633Y-16193848D01*
X8916633Y-16193848D02*
X8935681Y-16184324D01*
X9088062Y-16384324D02*
X9088062Y-16250990D01*
X9088062Y-16270038D02*
X9097586Y-16260514D01*
X9097586Y-16260514D02*
X9116633Y-16250990D01*
X9116633Y-16250990D02*
X9145205Y-16250990D01*
X9145205Y-16250990D02*
X9164252Y-16260514D01*
X9164252Y-16260514D02*
X9173776Y-16279562D01*
X9173776Y-16279562D02*
X9173776Y-16384324D01*
X9173776Y-16279562D02*
X9183300Y-16260514D01*
X9183300Y-16260514D02*
X9202348Y-16250990D01*
X9202348Y-16250990D02*
X9230919Y-16250990D01*
X9230919Y-16250990D02*
X9249967Y-16260514D01*
X9249967Y-16260514D02*
X9259491Y-16279562D01*
X9259491Y-16279562D02*
X9259491Y-16384324D01*
X9354729Y-16384324D02*
X9354729Y-16250990D01*
X9354729Y-16270038D02*
X9364252Y-16260514D01*
X9364252Y-16260514D02*
X9383300Y-16250990D01*
X9383300Y-16250990D02*
X9411872Y-16250990D01*
X9411872Y-16250990D02*
X9430919Y-16260514D01*
X9430919Y-16260514D02*
X9440443Y-16279562D01*
X9440443Y-16279562D02*
X9440443Y-16384324D01*
X9440443Y-16279562D02*
X9449967Y-16260514D01*
X9449967Y-16260514D02*
X9469014Y-16250990D01*
X9469014Y-16250990D02*
X9497586Y-16250990D01*
X9497586Y-16250990D02*
X9516633Y-16260514D01*
X9516633Y-16260514D02*
X9526157Y-16279562D01*
X9526157Y-16279562D02*
X9526157Y-16384324D01*
X9916633Y-16174800D02*
X9745205Y-16431943D01*
X10173776Y-16184324D02*
X10192824Y-16184324D01*
X10192824Y-16184324D02*
X10211872Y-16193848D01*
X10211872Y-16193848D02*
X10221395Y-16203371D01*
X10221395Y-16203371D02*
X10230919Y-16222419D01*
X10230919Y-16222419D02*
X10240443Y-16260514D01*
X10240443Y-16260514D02*
X10240443Y-16308133D01*
X10240443Y-16308133D02*
X10230919Y-16346228D01*
X10230919Y-16346228D02*
X10221395Y-16365276D01*
X10221395Y-16365276D02*
X10211872Y-16374800D01*
X10211872Y-16374800D02*
X10192824Y-16384324D01*
X10192824Y-16384324D02*
X10173776Y-16384324D01*
X10173776Y-16384324D02*
X10154729Y-16374800D01*
X10154729Y-16374800D02*
X10145205Y-16365276D01*
X10145205Y-16365276D02*
X10135681Y-16346228D01*
X10135681Y-16346228D02*
X10126157Y-16308133D01*
X10126157Y-16308133D02*
X10126157Y-16260514D01*
X10126157Y-16260514D02*
X10135681Y-16222419D01*
X10135681Y-16222419D02*
X10145205Y-16203371D01*
X10145205Y-16203371D02*
X10154729Y-16193848D01*
X10154729Y-16193848D02*
X10173776Y-16184324D01*
X10326157Y-16365276D02*
X10335681Y-16374800D01*
X10335681Y-16374800D02*
X10326157Y-16384324D01*
X10326157Y-16384324D02*
X10316634Y-16374800D01*
X10316634Y-16374800D02*
X10326157Y-16365276D01*
X10326157Y-16365276D02*
X10326157Y-16384324D01*
X10459491Y-16184324D02*
X10478538Y-16184324D01*
X10478538Y-16184324D02*
X10497586Y-16193848D01*
X10497586Y-16193848D02*
X10507110Y-16203371D01*
X10507110Y-16203371D02*
X10516634Y-16222419D01*
X10516634Y-16222419D02*
X10526157Y-16260514D01*
X10526157Y-16260514D02*
X10526157Y-16308133D01*
X10526157Y-16308133D02*
X10516634Y-16346228D01*
X10516634Y-16346228D02*
X10507110Y-16365276D01*
X10507110Y-16365276D02*
X10497586Y-16374800D01*
X10497586Y-16374800D02*
X10478538Y-16384324D01*
X10478538Y-16384324D02*
X10459491Y-16384324D01*
X10459491Y-16384324D02*
X10440443Y-16374800D01*
X10440443Y-16374800D02*
X10430919Y-16365276D01*
X10430919Y-16365276D02*
X10421395Y-16346228D01*
X10421395Y-16346228D02*
X10411872Y-16308133D01*
X10411872Y-16308133D02*
X10411872Y-16260514D01*
X10411872Y-16260514D02*
X10421395Y-16222419D01*
X10421395Y-16222419D02*
X10430919Y-16203371D01*
X10430919Y-16203371D02*
X10440443Y-16193848D01*
X10440443Y-16193848D02*
X10459491Y-16184324D01*
X10592824Y-16184324D02*
X10726157Y-16184324D01*
X10726157Y-16184324D02*
X10640443Y-16384324D01*
X10830919Y-16270038D02*
X10811872Y-16260514D01*
X10811872Y-16260514D02*
X10802348Y-16250990D01*
X10802348Y-16250990D02*
X10792824Y-16231943D01*
X10792824Y-16231943D02*
X10792824Y-16222419D01*
X10792824Y-16222419D02*
X10802348Y-16203371D01*
X10802348Y-16203371D02*
X10811872Y-16193848D01*
X10811872Y-16193848D02*
X10830919Y-16184324D01*
X10830919Y-16184324D02*
X10869015Y-16184324D01*
X10869015Y-16184324D02*
X10888062Y-16193848D01*
X10888062Y-16193848D02*
X10897586Y-16203371D01*
X10897586Y-16203371D02*
X10907110Y-16222419D01*
X10907110Y-16222419D02*
X10907110Y-16231943D01*
X10907110Y-16231943D02*
X10897586Y-16250990D01*
X10897586Y-16250990D02*
X10888062Y-16260514D01*
X10888062Y-16260514D02*
X10869015Y-16270038D01*
X10869015Y-16270038D02*
X10830919Y-16270038D01*
X10830919Y-16270038D02*
X10811872Y-16279562D01*
X10811872Y-16279562D02*
X10802348Y-16289086D01*
X10802348Y-16289086D02*
X10792824Y-16308133D01*
X10792824Y-16308133D02*
X10792824Y-16346228D01*
X10792824Y-16346228D02*
X10802348Y-16365276D01*
X10802348Y-16365276D02*
X10811872Y-16374800D01*
X10811872Y-16374800D02*
X10830919Y-16384324D01*
X10830919Y-16384324D02*
X10869015Y-16384324D01*
X10869015Y-16384324D02*
X10888062Y-16374800D01*
X10888062Y-16374800D02*
X10897586Y-16365276D01*
X10897586Y-16365276D02*
X10907110Y-16346228D01*
X10907110Y-16346228D02*
X10907110Y-16308133D01*
X10907110Y-16308133D02*
X10897586Y-16289086D01*
X10897586Y-16289086D02*
X10888062Y-16279562D01*
X10888062Y-16279562D02*
X10869015Y-16270038D01*
X10973776Y-16184324D02*
X11107110Y-16184324D01*
X11107110Y-16184324D02*
X11021395Y-16384324D01*
X11173776Y-16184324D02*
X11173776Y-16222419D01*
X11249967Y-16184324D02*
X11249967Y-16222419D01*
X11545205Y-16460514D02*
X11535681Y-16450990D01*
X11535681Y-16450990D02*
X11516634Y-16422419D01*
X11516634Y-16422419D02*
X11507110Y-16403371D01*
X11507110Y-16403371D02*
X11497586Y-16374800D01*
X11497586Y-16374800D02*
X11488062Y-16327181D01*
X11488062Y-16327181D02*
X11488062Y-16289086D01*
X11488062Y-16289086D02*
X11497586Y-16241467D01*
X11497586Y-16241467D02*
X11507110Y-16212895D01*
X11507110Y-16212895D02*
X11516634Y-16193848D01*
X11516634Y-16193848D02*
X11535681Y-16165276D01*
X11535681Y-16165276D02*
X11545205Y-16155752D01*
X11726157Y-16384324D02*
X11611872Y-16384324D01*
X11669014Y-16384324D02*
X11669014Y-16184324D01*
X11669014Y-16184324D02*
X11649967Y-16212895D01*
X11649967Y-16212895D02*
X11630919Y-16231943D01*
X11630919Y-16231943D02*
X11611872Y-16241467D01*
X11897586Y-16184324D02*
X11859491Y-16184324D01*
X11859491Y-16184324D02*
X11840443Y-16193848D01*
X11840443Y-16193848D02*
X11830919Y-16203371D01*
X11830919Y-16203371D02*
X11811872Y-16231943D01*
X11811872Y-16231943D02*
X11802348Y-16270038D01*
X11802348Y-16270038D02*
X11802348Y-16346228D01*
X11802348Y-16346228D02*
X11811872Y-16365276D01*
X11811872Y-16365276D02*
X11821395Y-16374800D01*
X11821395Y-16374800D02*
X11840443Y-16384324D01*
X11840443Y-16384324D02*
X11878538Y-16384324D01*
X11878538Y-16384324D02*
X11897586Y-16374800D01*
X11897586Y-16374800D02*
X11907110Y-16365276D01*
X11907110Y-16365276D02*
X11916634Y-16346228D01*
X11916634Y-16346228D02*
X11916634Y-16298609D01*
X11916634Y-16298609D02*
X11907110Y-16279562D01*
X11907110Y-16279562D02*
X11897586Y-16270038D01*
X11897586Y-16270038D02*
X11878538Y-16260514D01*
X11878538Y-16260514D02*
X11840443Y-16260514D01*
X11840443Y-16260514D02*
X11821395Y-16270038D01*
X11821395Y-16270038D02*
X11811872Y-16279562D01*
X11811872Y-16279562D02*
X11802348Y-16298609D01*
X12154729Y-16384324D02*
X12154729Y-16184324D01*
X12240443Y-16384324D02*
X12240443Y-16279562D01*
X12240443Y-16279562D02*
X12230919Y-16260514D01*
X12230919Y-16260514D02*
X12211872Y-16250990D01*
X12211872Y-16250990D02*
X12183300Y-16250990D01*
X12183300Y-16250990D02*
X12164253Y-16260514D01*
X12164253Y-16260514D02*
X12154729Y-16270038D01*
X12364253Y-16384324D02*
X12345205Y-16374800D01*
X12345205Y-16374800D02*
X12335681Y-16365276D01*
X12335681Y-16365276D02*
X12326157Y-16346228D01*
X12326157Y-16346228D02*
X12326157Y-16289086D01*
X12326157Y-16289086D02*
X12335681Y-16270038D01*
X12335681Y-16270038D02*
X12345205Y-16260514D01*
X12345205Y-16260514D02*
X12364253Y-16250990D01*
X12364253Y-16250990D02*
X12392824Y-16250990D01*
X12392824Y-16250990D02*
X12411872Y-16260514D01*
X12411872Y-16260514D02*
X12421396Y-16270038D01*
X12421396Y-16270038D02*
X12430919Y-16289086D01*
X12430919Y-16289086D02*
X12430919Y-16346228D01*
X12430919Y-16346228D02*
X12421396Y-16365276D01*
X12421396Y-16365276D02*
X12411872Y-16374800D01*
X12411872Y-16374800D02*
X12392824Y-16384324D01*
X12392824Y-16384324D02*
X12364253Y-16384324D01*
X12545205Y-16384324D02*
X12526157Y-16374800D01*
X12526157Y-16374800D02*
X12516634Y-16355752D01*
X12516634Y-16355752D02*
X12516634Y-16184324D01*
X12697586Y-16374800D02*
X12678538Y-16384324D01*
X12678538Y-16384324D02*
X12640443Y-16384324D01*
X12640443Y-16384324D02*
X12621396Y-16374800D01*
X12621396Y-16374800D02*
X12611872Y-16355752D01*
X12611872Y-16355752D02*
X12611872Y-16279562D01*
X12611872Y-16279562D02*
X12621396Y-16260514D01*
X12621396Y-16260514D02*
X12640443Y-16250990D01*
X12640443Y-16250990D02*
X12678538Y-16250990D01*
X12678538Y-16250990D02*
X12697586Y-16260514D01*
X12697586Y-16260514D02*
X12707110Y-16279562D01*
X12707110Y-16279562D02*
X12707110Y-16298609D01*
X12707110Y-16298609D02*
X12611872Y-16317657D01*
X12783300Y-16374800D02*
X12802348Y-16384324D01*
X12802348Y-16384324D02*
X12840443Y-16384324D01*
X12840443Y-16384324D02*
X12859491Y-16374800D01*
X12859491Y-16374800D02*
X12869015Y-16355752D01*
X12869015Y-16355752D02*
X12869015Y-16346228D01*
X12869015Y-16346228D02*
X12859491Y-16327181D01*
X12859491Y-16327181D02*
X12840443Y-16317657D01*
X12840443Y-16317657D02*
X12811872Y-16317657D01*
X12811872Y-16317657D02*
X12792824Y-16308133D01*
X12792824Y-16308133D02*
X12783300Y-16289086D01*
X12783300Y-16289086D02*
X12783300Y-16279562D01*
X12783300Y-16279562D02*
X12792824Y-16260514D01*
X12792824Y-16260514D02*
X12811872Y-16250990D01*
X12811872Y-16250990D02*
X12840443Y-16250990D01*
X12840443Y-16250990D02*
X12859491Y-16260514D01*
X12935681Y-16460514D02*
X12945205Y-16450990D01*
X12945205Y-16450990D02*
X12964253Y-16422419D01*
X12964253Y-16422419D02*
X12973777Y-16403371D01*
X12973777Y-16403371D02*
X12983300Y-16374800D01*
X12983300Y-16374800D02*
X12992824Y-16327181D01*
X12992824Y-16327181D02*
X12992824Y-16289086D01*
X12992824Y-16289086D02*
X12983300Y-16241467D01*
X12983300Y-16241467D02*
X12973777Y-16212895D01*
X12973777Y-16212895D02*
X12964253Y-16193848D01*
X12964253Y-16193848D02*
X12945205Y-16165276D01*
X12945205Y-16165276D02*
X12935681Y-16155752D01*
X7783300Y-16511800D02*
X7983300Y-16711800D01*
X7983300Y-16511800D02*
X7783300Y-16711800D01*
X7954011Y-16682511D02*
X7954011Y-16541089D01*
X7812589Y-16541089D01*
X7812589Y-16682511D01*
X7954011Y-16682511D01*
X8211871Y-16504324D02*
X8335681Y-16504324D01*
X8335681Y-16504324D02*
X8269014Y-16580514D01*
X8269014Y-16580514D02*
X8297586Y-16580514D01*
X8297586Y-16580514D02*
X8316633Y-16590038D01*
X8316633Y-16590038D02*
X8326157Y-16599562D01*
X8326157Y-16599562D02*
X8335681Y-16618609D01*
X8335681Y-16618609D02*
X8335681Y-16666228D01*
X8335681Y-16666228D02*
X8326157Y-16685276D01*
X8326157Y-16685276D02*
X8316633Y-16694800D01*
X8316633Y-16694800D02*
X8297586Y-16704324D01*
X8297586Y-16704324D02*
X8240443Y-16704324D01*
X8240443Y-16704324D02*
X8221395Y-16694800D01*
X8221395Y-16694800D02*
X8211871Y-16685276D01*
X8421395Y-16685276D02*
X8430919Y-16694800D01*
X8430919Y-16694800D02*
X8421395Y-16704324D01*
X8421395Y-16704324D02*
X8411871Y-16694800D01*
X8411871Y-16694800D02*
X8421395Y-16685276D01*
X8421395Y-16685276D02*
X8421395Y-16704324D01*
X8554729Y-16504324D02*
X8573776Y-16504324D01*
X8573776Y-16504324D02*
X8592824Y-16513848D01*
X8592824Y-16513848D02*
X8602348Y-16523371D01*
X8602348Y-16523371D02*
X8611871Y-16542419D01*
X8611871Y-16542419D02*
X8621395Y-16580514D01*
X8621395Y-16580514D02*
X8621395Y-16628133D01*
X8621395Y-16628133D02*
X8611871Y-16666228D01*
X8611871Y-16666228D02*
X8602348Y-16685276D01*
X8602348Y-16685276D02*
X8592824Y-16694800D01*
X8592824Y-16694800D02*
X8573776Y-16704324D01*
X8573776Y-16704324D02*
X8554729Y-16704324D01*
X8554729Y-16704324D02*
X8535681Y-16694800D01*
X8535681Y-16694800D02*
X8526157Y-16685276D01*
X8526157Y-16685276D02*
X8516633Y-16666228D01*
X8516633Y-16666228D02*
X8507110Y-16628133D01*
X8507110Y-16628133D02*
X8507110Y-16580514D01*
X8507110Y-16580514D02*
X8516633Y-16542419D01*
X8516633Y-16542419D02*
X8526157Y-16523371D01*
X8526157Y-16523371D02*
X8535681Y-16513848D01*
X8535681Y-16513848D02*
X8554729Y-16504324D01*
X8745205Y-16504324D02*
X8764252Y-16504324D01*
X8764252Y-16504324D02*
X8783300Y-16513848D01*
X8783300Y-16513848D02*
X8792824Y-16523371D01*
X8792824Y-16523371D02*
X8802348Y-16542419D01*
X8802348Y-16542419D02*
X8811871Y-16580514D01*
X8811871Y-16580514D02*
X8811871Y-16628133D01*
X8811871Y-16628133D02*
X8802348Y-16666228D01*
X8802348Y-16666228D02*
X8792824Y-16685276D01*
X8792824Y-16685276D02*
X8783300Y-16694800D01*
X8783300Y-16694800D02*
X8764252Y-16704324D01*
X8764252Y-16704324D02*
X8745205Y-16704324D01*
X8745205Y-16704324D02*
X8726157Y-16694800D01*
X8726157Y-16694800D02*
X8716633Y-16685276D01*
X8716633Y-16685276D02*
X8707110Y-16666228D01*
X8707110Y-16666228D02*
X8697586Y-16628133D01*
X8697586Y-16628133D02*
X8697586Y-16580514D01*
X8697586Y-16580514D02*
X8707110Y-16542419D01*
X8707110Y-16542419D02*
X8716633Y-16523371D01*
X8716633Y-16523371D02*
X8726157Y-16513848D01*
X8726157Y-16513848D02*
X8745205Y-16504324D01*
X8935681Y-16504324D02*
X8954729Y-16504324D01*
X8954729Y-16504324D02*
X8973776Y-16513848D01*
X8973776Y-16513848D02*
X8983300Y-16523371D01*
X8983300Y-16523371D02*
X8992824Y-16542419D01*
X8992824Y-16542419D02*
X9002348Y-16580514D01*
X9002348Y-16580514D02*
X9002348Y-16628133D01*
X9002348Y-16628133D02*
X8992824Y-16666228D01*
X8992824Y-16666228D02*
X8983300Y-16685276D01*
X8983300Y-16685276D02*
X8973776Y-16694800D01*
X8973776Y-16694800D02*
X8954729Y-16704324D01*
X8954729Y-16704324D02*
X8935681Y-16704324D01*
X8935681Y-16704324D02*
X8916633Y-16694800D01*
X8916633Y-16694800D02*
X8907110Y-16685276D01*
X8907110Y-16685276D02*
X8897586Y-16666228D01*
X8897586Y-16666228D02*
X8888062Y-16628133D01*
X8888062Y-16628133D02*
X8888062Y-16580514D01*
X8888062Y-16580514D02*
X8897586Y-16542419D01*
X8897586Y-16542419D02*
X8907110Y-16523371D01*
X8907110Y-16523371D02*
X8916633Y-16513848D01*
X8916633Y-16513848D02*
X8935681Y-16504324D01*
X9088062Y-16704324D02*
X9088062Y-16570990D01*
X9088062Y-16590038D02*
X9097586Y-16580514D01*
X9097586Y-16580514D02*
X9116633Y-16570990D01*
X9116633Y-16570990D02*
X9145205Y-16570990D01*
X9145205Y-16570990D02*
X9164252Y-16580514D01*
X9164252Y-16580514D02*
X9173776Y-16599562D01*
X9173776Y-16599562D02*
X9173776Y-16704324D01*
X9173776Y-16599562D02*
X9183300Y-16580514D01*
X9183300Y-16580514D02*
X9202348Y-16570990D01*
X9202348Y-16570990D02*
X9230919Y-16570990D01*
X9230919Y-16570990D02*
X9249967Y-16580514D01*
X9249967Y-16580514D02*
X9259491Y-16599562D01*
X9259491Y-16599562D02*
X9259491Y-16704324D01*
X9354729Y-16704324D02*
X9354729Y-16570990D01*
X9354729Y-16590038D02*
X9364252Y-16580514D01*
X9364252Y-16580514D02*
X9383300Y-16570990D01*
X9383300Y-16570990D02*
X9411872Y-16570990D01*
X9411872Y-16570990D02*
X9430919Y-16580514D01*
X9430919Y-16580514D02*
X9440443Y-16599562D01*
X9440443Y-16599562D02*
X9440443Y-16704324D01*
X9440443Y-16599562D02*
X9449967Y-16580514D01*
X9449967Y-16580514D02*
X9469014Y-16570990D01*
X9469014Y-16570990D02*
X9497586Y-16570990D01*
X9497586Y-16570990D02*
X9516633Y-16580514D01*
X9516633Y-16580514D02*
X9526157Y-16599562D01*
X9526157Y-16599562D02*
X9526157Y-16704324D01*
X9916633Y-16494800D02*
X9745205Y-16751943D01*
X10173776Y-16504324D02*
X10192824Y-16504324D01*
X10192824Y-16504324D02*
X10211872Y-16513848D01*
X10211872Y-16513848D02*
X10221395Y-16523371D01*
X10221395Y-16523371D02*
X10230919Y-16542419D01*
X10230919Y-16542419D02*
X10240443Y-16580514D01*
X10240443Y-16580514D02*
X10240443Y-16628133D01*
X10240443Y-16628133D02*
X10230919Y-16666228D01*
X10230919Y-16666228D02*
X10221395Y-16685276D01*
X10221395Y-16685276D02*
X10211872Y-16694800D01*
X10211872Y-16694800D02*
X10192824Y-16704324D01*
X10192824Y-16704324D02*
X10173776Y-16704324D01*
X10173776Y-16704324D02*
X10154729Y-16694800D01*
X10154729Y-16694800D02*
X10145205Y-16685276D01*
X10145205Y-16685276D02*
X10135681Y-16666228D01*
X10135681Y-16666228D02*
X10126157Y-16628133D01*
X10126157Y-16628133D02*
X10126157Y-16580514D01*
X10126157Y-16580514D02*
X10135681Y-16542419D01*
X10135681Y-16542419D02*
X10145205Y-16523371D01*
X10145205Y-16523371D02*
X10154729Y-16513848D01*
X10154729Y-16513848D02*
X10173776Y-16504324D01*
X10326157Y-16685276D02*
X10335681Y-16694800D01*
X10335681Y-16694800D02*
X10326157Y-16704324D01*
X10326157Y-16704324D02*
X10316634Y-16694800D01*
X10316634Y-16694800D02*
X10326157Y-16685276D01*
X10326157Y-16685276D02*
X10326157Y-16704324D01*
X10526157Y-16704324D02*
X10411872Y-16704324D01*
X10469014Y-16704324D02*
X10469014Y-16504324D01*
X10469014Y-16504324D02*
X10449967Y-16532895D01*
X10449967Y-16532895D02*
X10430919Y-16551943D01*
X10430919Y-16551943D02*
X10411872Y-16561467D01*
X10716634Y-16704324D02*
X10602348Y-16704324D01*
X10659491Y-16704324D02*
X10659491Y-16504324D01*
X10659491Y-16504324D02*
X10640443Y-16532895D01*
X10640443Y-16532895D02*
X10621395Y-16551943D01*
X10621395Y-16551943D02*
X10602348Y-16561467D01*
X10830919Y-16590038D02*
X10811872Y-16580514D01*
X10811872Y-16580514D02*
X10802348Y-16570990D01*
X10802348Y-16570990D02*
X10792824Y-16551943D01*
X10792824Y-16551943D02*
X10792824Y-16542419D01*
X10792824Y-16542419D02*
X10802348Y-16523371D01*
X10802348Y-16523371D02*
X10811872Y-16513848D01*
X10811872Y-16513848D02*
X10830919Y-16504324D01*
X10830919Y-16504324D02*
X10869015Y-16504324D01*
X10869015Y-16504324D02*
X10888062Y-16513848D01*
X10888062Y-16513848D02*
X10897586Y-16523371D01*
X10897586Y-16523371D02*
X10907110Y-16542419D01*
X10907110Y-16542419D02*
X10907110Y-16551943D01*
X10907110Y-16551943D02*
X10897586Y-16570990D01*
X10897586Y-16570990D02*
X10888062Y-16580514D01*
X10888062Y-16580514D02*
X10869015Y-16590038D01*
X10869015Y-16590038D02*
X10830919Y-16590038D01*
X10830919Y-16590038D02*
X10811872Y-16599562D01*
X10811872Y-16599562D02*
X10802348Y-16609086D01*
X10802348Y-16609086D02*
X10792824Y-16628133D01*
X10792824Y-16628133D02*
X10792824Y-16666228D01*
X10792824Y-16666228D02*
X10802348Y-16685276D01*
X10802348Y-16685276D02*
X10811872Y-16694800D01*
X10811872Y-16694800D02*
X10830919Y-16704324D01*
X10830919Y-16704324D02*
X10869015Y-16704324D01*
X10869015Y-16704324D02*
X10888062Y-16694800D01*
X10888062Y-16694800D02*
X10897586Y-16685276D01*
X10897586Y-16685276D02*
X10907110Y-16666228D01*
X10907110Y-16666228D02*
X10907110Y-16628133D01*
X10907110Y-16628133D02*
X10897586Y-16609086D01*
X10897586Y-16609086D02*
X10888062Y-16599562D01*
X10888062Y-16599562D02*
X10869015Y-16590038D01*
X11097586Y-16704324D02*
X10983300Y-16704324D01*
X11040443Y-16704324D02*
X11040443Y-16504324D01*
X11040443Y-16504324D02*
X11021395Y-16532895D01*
X11021395Y-16532895D02*
X11002348Y-16551943D01*
X11002348Y-16551943D02*
X10983300Y-16561467D01*
X11173776Y-16504324D02*
X11173776Y-16542419D01*
X11249967Y-16504324D02*
X11249967Y-16542419D01*
X11545205Y-16780514D02*
X11535681Y-16770990D01*
X11535681Y-16770990D02*
X11516634Y-16742419D01*
X11516634Y-16742419D02*
X11507110Y-16723371D01*
X11507110Y-16723371D02*
X11497586Y-16694800D01*
X11497586Y-16694800D02*
X11488062Y-16647181D01*
X11488062Y-16647181D02*
X11488062Y-16609086D01*
X11488062Y-16609086D02*
X11497586Y-16561467D01*
X11497586Y-16561467D02*
X11507110Y-16532895D01*
X11507110Y-16532895D02*
X11516634Y-16513848D01*
X11516634Y-16513848D02*
X11535681Y-16485276D01*
X11535681Y-16485276D02*
X11545205Y-16475752D01*
X11611872Y-16523371D02*
X11621395Y-16513848D01*
X11621395Y-16513848D02*
X11640443Y-16504324D01*
X11640443Y-16504324D02*
X11688062Y-16504324D01*
X11688062Y-16504324D02*
X11707110Y-16513848D01*
X11707110Y-16513848D02*
X11716634Y-16523371D01*
X11716634Y-16523371D02*
X11726157Y-16542419D01*
X11726157Y-16542419D02*
X11726157Y-16561467D01*
X11726157Y-16561467D02*
X11716634Y-16590038D01*
X11716634Y-16590038D02*
X11602348Y-16704324D01*
X11602348Y-16704324D02*
X11726157Y-16704324D01*
X11964253Y-16704324D02*
X11964253Y-16504324D01*
X12049967Y-16704324D02*
X12049967Y-16599562D01*
X12049967Y-16599562D02*
X12040443Y-16580514D01*
X12040443Y-16580514D02*
X12021396Y-16570990D01*
X12021396Y-16570990D02*
X11992824Y-16570990D01*
X11992824Y-16570990D02*
X11973776Y-16580514D01*
X11973776Y-16580514D02*
X11964253Y-16590038D01*
X12173776Y-16704324D02*
X12154729Y-16694800D01*
X12154729Y-16694800D02*
X12145205Y-16685276D01*
X12145205Y-16685276D02*
X12135681Y-16666228D01*
X12135681Y-16666228D02*
X12135681Y-16609086D01*
X12135681Y-16609086D02*
X12145205Y-16590038D01*
X12145205Y-16590038D02*
X12154729Y-16580514D01*
X12154729Y-16580514D02*
X12173776Y-16570990D01*
X12173776Y-16570990D02*
X12202348Y-16570990D01*
X12202348Y-16570990D02*
X12221396Y-16580514D01*
X12221396Y-16580514D02*
X12230919Y-16590038D01*
X12230919Y-16590038D02*
X12240443Y-16609086D01*
X12240443Y-16609086D02*
X12240443Y-16666228D01*
X12240443Y-16666228D02*
X12230919Y-16685276D01*
X12230919Y-16685276D02*
X12221396Y-16694800D01*
X12221396Y-16694800D02*
X12202348Y-16704324D01*
X12202348Y-16704324D02*
X12173776Y-16704324D01*
X12354729Y-16704324D02*
X12335681Y-16694800D01*
X12335681Y-16694800D02*
X12326157Y-16675752D01*
X12326157Y-16675752D02*
X12326157Y-16504324D01*
X12507110Y-16694800D02*
X12488062Y-16704324D01*
X12488062Y-16704324D02*
X12449967Y-16704324D01*
X12449967Y-16704324D02*
X12430919Y-16694800D01*
X12430919Y-16694800D02*
X12421396Y-16675752D01*
X12421396Y-16675752D02*
X12421396Y-16599562D01*
X12421396Y-16599562D02*
X12430919Y-16580514D01*
X12430919Y-16580514D02*
X12449967Y-16570990D01*
X12449967Y-16570990D02*
X12488062Y-16570990D01*
X12488062Y-16570990D02*
X12507110Y-16580514D01*
X12507110Y-16580514D02*
X12516634Y-16599562D01*
X12516634Y-16599562D02*
X12516634Y-16618609D01*
X12516634Y-16618609D02*
X12421396Y-16637657D01*
X12592824Y-16694800D02*
X12611872Y-16704324D01*
X12611872Y-16704324D02*
X12649967Y-16704324D01*
X12649967Y-16704324D02*
X12669015Y-16694800D01*
X12669015Y-16694800D02*
X12678538Y-16675752D01*
X12678538Y-16675752D02*
X12678538Y-16666228D01*
X12678538Y-16666228D02*
X12669015Y-16647181D01*
X12669015Y-16647181D02*
X12649967Y-16637657D01*
X12649967Y-16637657D02*
X12621396Y-16637657D01*
X12621396Y-16637657D02*
X12602348Y-16628133D01*
X12602348Y-16628133D02*
X12592824Y-16609086D01*
X12592824Y-16609086D02*
X12592824Y-16599562D01*
X12592824Y-16599562D02*
X12602348Y-16580514D01*
X12602348Y-16580514D02*
X12621396Y-16570990D01*
X12621396Y-16570990D02*
X12649967Y-16570990D01*
X12649967Y-16570990D02*
X12669015Y-16580514D01*
X12745205Y-16780514D02*
X12754729Y-16770990D01*
X12754729Y-16770990D02*
X12773777Y-16742419D01*
X12773777Y-16742419D02*
X12783300Y-16723371D01*
X12783300Y-16723371D02*
X12792824Y-16694800D01*
X12792824Y-16694800D02*
X12802348Y-16647181D01*
X12802348Y-16647181D02*
X12802348Y-16609086D01*
X12802348Y-16609086D02*
X12792824Y-16561467D01*
X12792824Y-16561467D02*
X12783300Y-16532895D01*
X12783300Y-16532895D02*
X12773777Y-16513848D01*
X12773777Y-16513848D02*
X12754729Y-16485276D01*
X12754729Y-16485276D02*
X12745205Y-16475752D01*
M02*
