M48
; DRILL file {KiCad 7.0.2} date Tue May 30 11:20:41 2023
; FORMAT={-:-/ absolute / inch / decimal}
; #@! TF.CreationDate,2023-05-30T11:20:41+02:00
; #@! TF.GenerationSoftware,Kicad,Pcbnew,7.0.2
; #@! TF.FileFunction,Plated,1,2,PTH
FMAT,2
INCH
; #@! TA.AperFunction,Plated,PTH,ViaDrill
T1C0.0197
; #@! TA.AperFunction,Plated,PTH,ComponentDrill
T2C0.0315
; #@! TA.AperFunction,Plated,PTH,ComponentDrill
T3C0.0354
; #@! TA.AperFunction,Plated,PTH,ComponentDrill
T4C0.0394
; #@! TA.AperFunction,Plated,PTH,ComponentDrill
T5C0.0472
; #@! TA.AperFunction,Plated,PTH,ComponentDrill
T6C0.0512
; #@! TA.AperFunction,Plated,PTH,ComponentDrill
T7C0.0591
; #@! TA.AperFunction,Plated,PTH,ComponentDrill
T8C0.0787
; #@! TA.AperFunction,Plated,PTH,ComponentDrill
T9C0.1575
%
G90
G05
T1
X2.45Y-4.6
X2.45Y-4.8
X2.45Y-5.0
X2.45Y-5.2
X2.5Y-2.35
X2.5Y-2.55
X2.5Y-2.75
X2.5Y-2.95
X2.5Y-3.2
X2.5Y-3.4
X2.5Y-3.6
X2.5Y-4.2
X2.5Y-4.4
X2.6Y-1.7
X2.6877Y-3.8558
X2.7372Y-5.2779
X2.75Y-1.7
X2.8206Y-3.7116
X2.8213Y-3.6092
X2.8216Y-3.8475
X2.93Y-3.61
X2.96Y-4.89
X3.0Y-1.45
X3.0Y-5.0
X3.04Y-3.22
X3.05Y-2.8
X3.05Y-2.95
X3.05Y-3.1
X3.1439Y-4.2342
X3.1472Y-4.0425
X3.1636Y-5.2878
X3.2Y-1.45
X3.2Y-5.0
X3.25Y-4.3
X3.37Y-4.71
X3.4Y-2.1
X3.4Y-2.2
X3.4Y-4.27
X3.45Y-1.75
X3.45Y-1.85
X3.55Y-1.65
X3.55Y-1.75
X3.55Y-4.85
X3.6Y-2.0
X3.6Y-2.1
X3.61Y-3.32
X3.6102Y-3.5683
X3.6125Y-3.2146
X3.6147Y-3.0736
X3.65Y-2.45
X3.65Y-2.6
X3.7Y-1.95
X3.7662Y-1.5206
X3.8Y-1.75
X3.8Y-2.45
X3.8Y-2.6
X3.8Y-2.85
X3.805Y-3.7533
X3.8542Y-3.0685
X3.8593Y-3.2124
X3.8628Y-3.4591
X3.9Y-1.6
X3.927Y-4.003
X3.95Y-2.45
X4.02Y-4.95
X4.04Y-3.03
X4.09Y-1.56
X4.1Y-2.45
X4.11Y-4.8887
X4.19Y-4.98
X4.1907Y-4.0737
X4.2Y-3.15
X4.21Y-3.79
X4.22Y-1.81
X4.25Y-2.85
X4.27Y-3.51
X4.3Y-4.82
X4.32Y-3.7
X4.33Y-1.56
X4.37Y-5.02
X4.4Y-3.15
X4.4Y-3.9
X4.41Y-2.44
X4.55Y-1.6
X4.55Y-1.75
X4.64Y-5.3
X5.13Y-1.74
X5.6Y-3.38
X5.88Y-4.13
T2
X2.6884Y-1.8142
X2.6884Y-1.9142
X2.6884Y-2.0142
X2.6884Y-2.1142
X2.6884Y-2.2142
X2.6884Y-2.3142
X2.6884Y-2.4142
X2.6884Y-2.5142
X2.6884Y-2.6142
X2.6884Y-2.7142
X2.6884Y-2.8142
X2.6884Y-2.9142
X2.6884Y-3.0142
X2.6884Y-3.1142
X2.6884Y-3.2142
X2.6884Y-3.3142
X2.6884Y-3.4142
X2.6884Y-3.5142
X2.6884Y-3.6142
X2.6884Y-3.7142
X3.0004Y-5.1167
X3.0004Y-5.2167
X3.04Y-4.0096
X3.04Y-4.1096
X3.04Y-4.2096
X3.2884Y-1.8142
X3.2884Y-1.9142
X3.2884Y-2.0142
X3.2884Y-2.1142
X3.2884Y-2.2142
X3.2884Y-2.3142
X3.2884Y-2.4142
X3.2884Y-2.5142
X3.2884Y-2.6142
X3.2884Y-2.7142
X3.2884Y-2.8142
X3.2884Y-2.9142
X3.2884Y-3.0142
X3.2884Y-3.1142
X3.2884Y-3.2142
X3.2884Y-3.3142
X3.2884Y-3.4142
X3.2884Y-3.5142
X3.2884Y-3.6142
X3.2884Y-3.7142
X3.3004Y-5.1167
X3.3004Y-5.2167
X3.45Y-4.4099
X3.45Y-4.5477
X3.5496Y-4.9746
X3.5496Y-5.0746
X3.5496Y-5.1746
X3.5496Y-5.2746
X3.65Y-1.61
X3.65Y-1.7478
X3.8496Y-4.9746
X3.8496Y-5.0746
X3.8496Y-5.1746
X3.8496Y-5.2746
X4.38Y-5.23
X4.48Y-5.23
X4.58Y-5.23
X5.4316Y-1.83
X5.6284Y-1.83
X5.7316Y-2.58
X5.7816Y-3.66
X5.7816Y-4.32
X5.9284Y-2.58
X5.9784Y-3.66
X5.9784Y-4.32
T3
X2.48Y-1.4602
X2.48Y-1.5602
X2.66Y-1.4602
X2.66Y-1.5602
X3.35Y-1.4602
X3.35Y-1.5602
X3.7382Y-4.1101
X3.75Y-2.09
X3.8382Y-3.9101
X3.8382Y-4.3601
X3.85Y-1.89
X3.85Y-2.34
X4.3282Y-4.3601
X4.34Y-2.34
X4.4482Y-4.3601
X4.46Y-2.34
X4.77Y-5.0402
X4.77Y-5.1402
X4.9382Y-3.8101
X4.9382Y-4.3601
X4.9382Y-4.9101
X4.95Y-1.79
X4.95Y-2.34
X4.95Y-2.89
X5.0382Y-4.0601
X5.0382Y-4.6601
X5.05Y-2.04
X5.05Y-2.64
T4
X2.6191Y-4.0014
X2.6191Y-4.1014
X2.6191Y-4.2014
X2.6766Y-4.6913
X2.6766Y-4.7913
X2.6766Y-4.8913
X2.6766Y-4.9913
X2.6766Y-5.0913
X2.7766Y-4.6913
X2.7766Y-4.7913
X2.7766Y-4.8913
X2.7766Y-4.9913
X2.7766Y-5.0913
X2.8159Y-4.0014
X2.8159Y-4.1014
X2.8159Y-4.2014
X3.04Y-4.57
X3.04Y-4.67
X3.04Y-4.77
T5
X3.9882Y-3.7601
X4.0Y-1.74
X4.1Y-3.7
X4.11Y-1.68
X5.0942Y-3.37
X5.21Y-2.26
X5.21Y-2.99
X5.36Y-4.08
X5.36Y-4.75
X5.64Y-4.95
X5.64Y-5.12
X5.64Y-5.29
X5.98Y-3.37
X6.01Y-2.26
X6.01Y-2.99
X6.16Y-4.08
X6.16Y-4.75
X6.24Y-4.95
X6.24Y-5.12
X6.24Y-5.29
X8.11Y-1.64
X8.1102Y-1.9094
X8.1102Y-2.9921
T6
X5.33Y-2.76
X5.34Y-2.03
X5.36Y-3.85
X5.36Y-4.52
X5.93Y-2.76
X5.94Y-2.03
X5.96Y-3.85
X5.96Y-4.52
X6.47Y-1.78
X6.47Y-2.38
X6.47Y-2.58
X6.47Y-3.18
X6.47Y-3.52
X6.47Y-4.12
X6.47Y-4.35
X6.47Y-4.95
T7
X6.6929Y-2.6417
X6.6929Y-2.8563
X6.6929Y-3.0709
X6.6929Y-3.7008
X6.6929Y-3.9154
X6.6929Y-4.1299
X6.6972Y-1.9508
X6.6972Y-2.1654
X6.6972Y-2.3799
X6.6972Y-4.4134
X6.6972Y-4.628
X6.6972Y-4.8425
T8
X5.3937Y-5.2362
X6.18Y-3.36
T9
X8.1102Y-3.3858
X8.1102Y-4.8031
T0
M30
