G04 #@! TF.GenerationSoftware,KiCad,Pcbnew,7.0.2*
G04 #@! TF.CreationDate,2023-08-05T12:43:44+02:00*
G04 #@! TF.ProjectId,Module_2,4d6f6475-6c65-45f3-922e-6b696361645f,rev?*
G04 #@! TF.SameCoordinates,Original*
G04 #@! TF.FileFunction,Copper,L1,Top*
G04 #@! TF.FilePolarity,Positive*
%FSLAX46Y46*%
G04 Gerber Fmt 4.6, Leading zero omitted, Abs format (unit mm)*
G04 Created by KiCad (PCBNEW 7.0.2) date 2023-08-05 12:43:44*
%MOMM*%
%LPD*%
G01*
G04 APERTURE LIST*
G04 Aperture macros list*
%AMRoundRect*
0 Rectangle with rounded corners*
0 $1 Rounding radius*
0 $2 $3 $4 $5 $6 $7 $8 $9 X,Y pos of 4 corners*
0 Add a 4 corners polygon primitive as box body*
4,1,4,$2,$3,$4,$5,$6,$7,$8,$9,$2,$3,0*
0 Add four circle primitives for the rounded corners*
1,1,$1+$1,$2,$3*
1,1,$1+$1,$4,$5*
1,1,$1+$1,$6,$7*
1,1,$1+$1,$8,$9*
0 Add four rect primitives between the rounded corners*
20,1,$1+$1,$2,$3,$4,$5,0*
20,1,$1+$1,$4,$5,$6,$7,0*
20,1,$1+$1,$6,$7,$8,$9,0*
20,1,$1+$1,$8,$9,$2,$3,0*%
G04 Aperture macros list end*
G04 #@! TA.AperFunction,ComponentPad*
%ADD10RoundRect,0.250000X-0.600000X-0.600000X0.600000X-0.600000X0.600000X0.600000X-0.600000X0.600000X0*%
G04 #@! TD*
G04 #@! TA.AperFunction,ComponentPad*
%ADD11C,1.700000*%
G04 #@! TD*
G04 #@! TA.AperFunction,ComponentPad*
%ADD12R,1.600000X1.600000*%
G04 #@! TD*
G04 #@! TA.AperFunction,ComponentPad*
%ADD13C,1.600000*%
G04 #@! TD*
G04 #@! TA.AperFunction,ComponentPad*
%ADD14C,5.000000*%
G04 #@! TD*
G04 #@! TA.AperFunction,ComponentPad*
%ADD15C,2.400000*%
G04 #@! TD*
G04 #@! TA.AperFunction,ComponentPad*
%ADD16O,2.400000X2.400000*%
G04 #@! TD*
G04 #@! TA.AperFunction,ComponentPad*
%ADD17RoundRect,0.250000X0.600000X-0.600000X0.600000X0.600000X-0.600000X0.600000X-0.600000X-0.600000X0*%
G04 #@! TD*
G04 #@! TA.AperFunction,ComponentPad*
%ADD18R,1.800000X1.800000*%
G04 #@! TD*
G04 #@! TA.AperFunction,ComponentPad*
%ADD19C,1.800000*%
G04 #@! TD*
G04 #@! TA.AperFunction,ComponentPad*
%ADD20R,1.730000X2.030000*%
G04 #@! TD*
G04 #@! TA.AperFunction,ComponentPad*
%ADD21O,1.730000X2.030000*%
G04 #@! TD*
G04 #@! TA.AperFunction,ComponentPad*
%ADD22C,2.000000*%
G04 #@! TD*
G04 #@! TA.AperFunction,ComponentPad*
%ADD23C,1.500000*%
G04 #@! TD*
G04 #@! TA.AperFunction,ComponentPad*
%ADD24O,1.600000X1.600000*%
G04 #@! TD*
G04 #@! TA.AperFunction,ComponentPad*
%ADD25R,2.030000X1.730000*%
G04 #@! TD*
G04 #@! TA.AperFunction,ComponentPad*
%ADD26O,2.030000X1.730000*%
G04 #@! TD*
G04 #@! TA.AperFunction,ComponentPad*
%ADD27R,1.700000X1.700000*%
G04 #@! TD*
G04 #@! TA.AperFunction,ComponentPad*
%ADD28O,1.700000X1.700000*%
G04 #@! TD*
G04 #@! TA.AperFunction,ComponentPad*
%ADD29C,1.440000*%
G04 #@! TD*
G04 #@! TA.AperFunction,ComponentPad*
%ADD30R,4.500000X2.500000*%
G04 #@! TD*
G04 #@! TA.AperFunction,ComponentPad*
%ADD31O,4.500000X2.500000*%
G04 #@! TD*
G04 #@! TA.AperFunction,ViaPad*
%ADD32C,1.200000*%
G04 #@! TD*
G04 #@! TA.AperFunction,Conductor*
%ADD33C,1.000000*%
G04 #@! TD*
G04 #@! TA.AperFunction,Conductor*
%ADD34C,0.750000*%
G04 #@! TD*
G04 #@! TA.AperFunction,Conductor*
%ADD35C,0.500000*%
G04 #@! TD*
G04 APERTURE END LIST*
D10*
X45720000Y-102870000D03*
D11*
X48260000Y-102870000D03*
X45720000Y-105410000D03*
X48260000Y-105410000D03*
X45720000Y-107950000D03*
X48260000Y-107950000D03*
X45720000Y-110490000D03*
X48260000Y-110490000D03*
X45720000Y-113030000D03*
X48260000Y-113030000D03*
D12*
X62230000Y-94604651D03*
D13*
X62230000Y-89604651D03*
D12*
X116586000Y-98980000D03*
D13*
X116586000Y-93980000D03*
D14*
X130175000Y-71755000D03*
D15*
X71120000Y-46990000D03*
D16*
X71120000Y-67310000D03*
D12*
X78232000Y-94604651D03*
D13*
X78232000Y-89604651D03*
D17*
X118745000Y-140135000D03*
D11*
X118745000Y-137595000D03*
X121285000Y-140135000D03*
X121285000Y-137595000D03*
X123825000Y-140135000D03*
X123825000Y-137595000D03*
X126365000Y-140135000D03*
X126365000Y-137595000D03*
X128905000Y-140135000D03*
X128905000Y-137595000D03*
D17*
X86360000Y-140135000D03*
D11*
X86360000Y-137595000D03*
X88900000Y-140135000D03*
X88900000Y-137595000D03*
X91440000Y-140135000D03*
X91440000Y-137595000D03*
X93980000Y-140135000D03*
X93980000Y-137595000D03*
X96520000Y-140135000D03*
X96520000Y-137595000D03*
D12*
X153670000Y-104655000D03*
D13*
X153670000Y-109655000D03*
D14*
X142049500Y-62030000D03*
X142049500Y-51870000D03*
D18*
X71755000Y-138430000D03*
D19*
X71755000Y-140970000D03*
D20*
X57785000Y-138430000D03*
D21*
X60325000Y-138430000D03*
X62865000Y-138430000D03*
D22*
X158750000Y-83312000D03*
D14*
X65024000Y-47080500D03*
X65024000Y-57240500D03*
X65024000Y-67400500D03*
D23*
X92075000Y-100765000D03*
X96955000Y-100765000D03*
D15*
X79375000Y-46990000D03*
D16*
X79375000Y-67310000D03*
D12*
X119126000Y-127762000D03*
D24*
X121666000Y-127762000D03*
X121666000Y-120142000D03*
X119126000Y-120142000D03*
D15*
X111760000Y-33040000D03*
X111760000Y-60540000D03*
D22*
X116332000Y-87884000D03*
D13*
X46990000Y-95504000D03*
D24*
X46990000Y-85344000D03*
D13*
X84622000Y-68072000D03*
X94622000Y-68072000D03*
D14*
X78740000Y-35360000D03*
D15*
X128270000Y-33040000D03*
X128270000Y-60540000D03*
D25*
X47752000Y-123698000D03*
D26*
X47752000Y-126238000D03*
X47752000Y-128778000D03*
D27*
X65019000Y-125222000D03*
D28*
X67559000Y-125222000D03*
D25*
X75946000Y-101600000D03*
D26*
X75946000Y-104140000D03*
X75946000Y-106680000D03*
D22*
X146812000Y-83312000D03*
D14*
X109855000Y-71755000D03*
X96520000Y-35360000D03*
D29*
X158496000Y-78232000D03*
X155956000Y-78232000D03*
X153416000Y-78232000D03*
D12*
X129540000Y-98922651D03*
D13*
X129540000Y-93922651D03*
D12*
X153670000Y-123070000D03*
D13*
X153670000Y-128070000D03*
D29*
X153670000Y-93780000D03*
X153670000Y-96320000D03*
X153670000Y-98860000D03*
D30*
X75105000Y-51700000D03*
D31*
X75105000Y-57150000D03*
X75105000Y-62600000D03*
D32*
X149860000Y-121666000D03*
X120650000Y-103378000D03*
X135890000Y-103378000D03*
X53340000Y-118618000D03*
X136487884Y-124279541D03*
X56642000Y-108204000D03*
X56642000Y-113792000D03*
X53340000Y-124460000D03*
X104902000Y-117094000D03*
X93726000Y-111252000D03*
X110236000Y-110490000D03*
X95758000Y-110490000D03*
X102108000Y-111760000D03*
X150622000Y-102616000D03*
X156210000Y-102616000D03*
X148336000Y-114300000D03*
X102108000Y-114300000D03*
X116078000Y-116840000D03*
X100330000Y-115570000D03*
X114300000Y-81280000D03*
X114300000Y-76200000D03*
X114300000Y-66040000D03*
X114300000Y-60960000D03*
X114300000Y-63500000D03*
X114300000Y-71120000D03*
X114300000Y-68580000D03*
X114300000Y-78740000D03*
X114300000Y-73660000D03*
X114300000Y-83820000D03*
X123952000Y-132842000D03*
X136906000Y-112014000D03*
X76962000Y-109474000D03*
X81280000Y-112014000D03*
X111506000Y-129540000D03*
X107053026Y-118737026D03*
X116078000Y-118364000D03*
X73406000Y-110744000D03*
X86106000Y-111506000D03*
X144780000Y-91948000D03*
X139192000Y-91948000D03*
X97790000Y-113030000D03*
X143764000Y-104394000D03*
X56388000Y-116586000D03*
X60452000Y-116586000D03*
X92710000Y-86360000D03*
X165100000Y-116840000D03*
X86360000Y-96520000D03*
X147066115Y-91831065D03*
X134620000Y-91440000D03*
X110490000Y-127000000D03*
X96687739Y-108639362D03*
X60960000Y-106680000D03*
X109220000Y-143510000D03*
X161290000Y-95250000D03*
X125730000Y-68580000D03*
X165100000Y-85090000D03*
X165100000Y-97790000D03*
X165100000Y-142240000D03*
X43180000Y-86360000D03*
X136064191Y-116518374D03*
X125730000Y-66040000D03*
X110856038Y-105426502D03*
X161290000Y-107950000D03*
X102870000Y-88900000D03*
X71120000Y-106680000D03*
X115570000Y-132080000D03*
X83820000Y-143510000D03*
X165100000Y-135890000D03*
X57150000Y-97790000D03*
X161290000Y-101600000D03*
X52070000Y-92710000D03*
X63500000Y-121920000D03*
X143510000Y-83820000D03*
X93609411Y-113131899D03*
X152400000Y-86360000D03*
X153670000Y-143510000D03*
X115570000Y-143510000D03*
X161290000Y-133350000D03*
X73345889Y-116397840D03*
X54610000Y-86360000D03*
X165100000Y-104140000D03*
X66040000Y-106680000D03*
X125730000Y-71120000D03*
X114300000Y-91440000D03*
X52070000Y-134620000D03*
X125730000Y-78740000D03*
X60960000Y-86360000D03*
X143510000Y-138430000D03*
X110490000Y-121920000D03*
X161290000Y-120650000D03*
X80010000Y-86360000D03*
X125730000Y-83820000D03*
X151043481Y-93311690D03*
X103225207Y-97296458D03*
X160020000Y-143510000D03*
X43180000Y-91440000D03*
X125730000Y-106680000D03*
X68580000Y-121920000D03*
X74930000Y-134620000D03*
X71120000Y-143510000D03*
X99060000Y-86360000D03*
X105410000Y-121920000D03*
X115570000Y-127000000D03*
X94923247Y-99704949D03*
X43180000Y-134620000D03*
X90170000Y-143510000D03*
X127000000Y-91440000D03*
X110715429Y-100315772D03*
X54610000Y-95250000D03*
X134620000Y-143510000D03*
X81280000Y-101600000D03*
X106680000Y-139700000D03*
X125730000Y-81280000D03*
X127000000Y-129540000D03*
X66040000Y-101600000D03*
X71120000Y-101600000D03*
X140970000Y-143510000D03*
X60960000Y-101600000D03*
X80010000Y-132080000D03*
X125730000Y-110490000D03*
X43180000Y-109220000D03*
X125730000Y-63500000D03*
X73660000Y-86360000D03*
X52070000Y-105410000D03*
X125730000Y-76200000D03*
X110914102Y-108542589D03*
X161290000Y-127000000D03*
X43180000Y-102870000D03*
X43180000Y-115570000D03*
X73660000Y-121920000D03*
X58420000Y-143510000D03*
X107950000Y-91440000D03*
X81280000Y-96520000D03*
X105410000Y-127000000D03*
X124125845Y-127514594D03*
X100330000Y-139700000D03*
X96520000Y-143510000D03*
X43180000Y-128270000D03*
X161290000Y-114300000D03*
X110490000Y-132080000D03*
X125345183Y-120227596D03*
X45720000Y-143510000D03*
X165100000Y-91440000D03*
X80010000Y-125730000D03*
X66725877Y-136379912D03*
X127710992Y-122254154D03*
X67310000Y-86360000D03*
X165100000Y-129540000D03*
X43180000Y-140970000D03*
X102870000Y-143510000D03*
X74930000Y-129540000D03*
X113030000Y-138430000D03*
X137160000Y-138430000D03*
X128270000Y-143510000D03*
X86360000Y-86360000D03*
X52070000Y-143510000D03*
X139700000Y-83820000D03*
X86360000Y-101600000D03*
X121629104Y-124872695D03*
X50800000Y-96520000D03*
X165100000Y-123190000D03*
X103426529Y-109008050D03*
X43180000Y-96520000D03*
X105780012Y-99822230D03*
X105410000Y-132080000D03*
X146507684Y-114938701D03*
X121920000Y-110490000D03*
X129540000Y-106680000D03*
X77470000Y-143510000D03*
X102731666Y-100954473D03*
X138378761Y-116506421D03*
X66356467Y-116332518D03*
X147320000Y-143510000D03*
X43180000Y-121920000D03*
X121920000Y-143510000D03*
X54610000Y-101600000D03*
X64770000Y-143510000D03*
X161290000Y-87630000D03*
X149860000Y-138430000D03*
X50800000Y-100330000D03*
X81280000Y-139700000D03*
X121920000Y-106680000D03*
X125730000Y-73660000D03*
X165100000Y-110490000D03*
D33*
X133604000Y-135128000D02*
X121285000Y-135128000D01*
X136487884Y-132244116D02*
X133604000Y-135128000D01*
X136487884Y-124279541D02*
X148262459Y-124279541D01*
X149860000Y-106934000D02*
X149860000Y-121666000D01*
X148262459Y-124279541D02*
X149860000Y-122682000D01*
X136487884Y-124279541D02*
X136487884Y-132244116D01*
D34*
X56642000Y-113792000D02*
X56642000Y-108204000D01*
D33*
X135890000Y-103378000D02*
X136398000Y-102870000D01*
X136398000Y-102870000D02*
X145796000Y-102870000D01*
X135890000Y-103378000D02*
X120650000Y-103378000D01*
X121285000Y-135128000D02*
X121285000Y-137595000D01*
D34*
X53340000Y-124460000D02*
X53340000Y-118618000D01*
D33*
X145796000Y-102870000D02*
X149860000Y-106934000D01*
X149860000Y-122682000D02*
X149860000Y-121666000D01*
D35*
X97282000Y-115570000D02*
X97282000Y-114808000D01*
X98806000Y-117094000D02*
X97282000Y-115570000D01*
X97282000Y-114808000D02*
X93726000Y-111252000D01*
X104902000Y-117094000D02*
X98806000Y-117094000D01*
X95758000Y-110490000D02*
X110236000Y-110490000D01*
X112268000Y-111506000D02*
X112268000Y-101854000D01*
X103886000Y-112104500D02*
X111669500Y-112104500D01*
X102452500Y-112104500D02*
X102108000Y-111760000D01*
X103886000Y-112104500D02*
X102452500Y-112104500D01*
X115142000Y-98980000D02*
X116586000Y-98980000D01*
X111669500Y-112104500D02*
X112268000Y-111506000D01*
X112268000Y-101854000D02*
X115142000Y-98980000D01*
X150622000Y-102616000D02*
X156210000Y-102616000D01*
X132588000Y-114300000D02*
X102108000Y-114300000D01*
X148336000Y-114300000D02*
X148336000Y-111506000D01*
X148336000Y-111506000D02*
X147574000Y-110744000D01*
X147574000Y-110744000D02*
X136144000Y-110744000D01*
X136144000Y-110744000D02*
X132588000Y-114300000D01*
X114808000Y-115570000D02*
X100330000Y-115570000D01*
X116078000Y-116840000D02*
X114808000Y-115570000D01*
D34*
X123952000Y-132842000D02*
X132588000Y-132842000D01*
X132588000Y-132842000D02*
X134366000Y-131064000D01*
X134366000Y-131064000D02*
X134366000Y-114554000D01*
X134366000Y-114554000D02*
X136906000Y-112014000D01*
X81280000Y-112014000D02*
X78740000Y-109474000D01*
X78740000Y-109474000D02*
X76962000Y-109474000D01*
D33*
X106934000Y-118618000D02*
X65278000Y-118618000D01*
X59690000Y-108458000D02*
X54102000Y-102870000D01*
X59690000Y-113030000D02*
X59690000Y-108458000D01*
X117783000Y-137595000D02*
X118745000Y-137595000D01*
X113030000Y-132842000D02*
X117783000Y-137595000D01*
X65278000Y-118618000D02*
X59690000Y-113030000D01*
X113030000Y-131064000D02*
X113030000Y-132842000D01*
X111506000Y-129540000D02*
X113030000Y-131064000D01*
X54102000Y-102870000D02*
X48260000Y-102870000D01*
X107053026Y-118737026D02*
X106934000Y-118618000D01*
D35*
X116078000Y-118364000D02*
X114300000Y-120142000D01*
X114300000Y-120142000D02*
X57150000Y-120142000D01*
X49530000Y-110490000D02*
X48260000Y-110490000D01*
X51308000Y-114300000D02*
X51308000Y-112268000D01*
X51308000Y-112268000D02*
X49530000Y-110490000D01*
X57150000Y-120142000D02*
X51308000Y-114300000D01*
D34*
X76454000Y-113792000D02*
X83820000Y-113792000D01*
X83820000Y-113792000D02*
X86106000Y-111506000D01*
X73406000Y-110744000D02*
X76454000Y-113792000D01*
D35*
X139192000Y-91948000D02*
X144780000Y-91948000D01*
X132334000Y-113030000D02*
X97790000Y-113030000D01*
X143764000Y-104394000D02*
X140970000Y-104394000D01*
X140970000Y-104394000D02*
X132334000Y-113030000D01*
X60452000Y-116586000D02*
X56388000Y-116586000D01*
G04 #@! TA.AperFunction,Conductor*
G36*
X87827039Y-30753685D02*
G01*
X87872794Y-30806489D01*
X87884000Y-30858000D01*
X87884000Y-56082638D01*
X87864315Y-56149677D01*
X87847681Y-56170319D01*
X85380319Y-58637681D01*
X85318996Y-58671166D01*
X85292638Y-58674000D01*
X73468000Y-58674000D01*
X73400961Y-58654315D01*
X73368800Y-58624400D01*
X72668800Y-57691066D01*
X72644324Y-57625624D01*
X72644000Y-57616666D01*
X72644000Y-56450000D01*
X72663685Y-56382961D01*
X72693600Y-56350800D01*
X73626933Y-55650800D01*
X73692375Y-55626324D01*
X73701333Y-55626000D01*
X76454000Y-55626000D01*
X77724000Y-54864000D01*
X78740000Y-54102000D01*
X82296000Y-48768000D01*
X82296000Y-41148000D01*
X78316745Y-39300489D01*
X75255782Y-37879327D01*
X75203266Y-37833242D01*
X75184000Y-37766858D01*
X75184000Y-30858000D01*
X75203685Y-30790961D01*
X75256489Y-30745206D01*
X75308000Y-30734000D01*
X87760000Y-30734000D01*
X87827039Y-30753685D01*
G37*
G04 #@! TD.AperFunction*
G04 #@! TA.AperFunction,Conductor*
G36*
X118633677Y-58693685D02*
G01*
X118654319Y-58710319D01*
X118835681Y-58891681D01*
X118869166Y-58953004D01*
X118872000Y-58979362D01*
X118872000Y-84257792D01*
X118852315Y-84324831D01*
X118811797Y-84364121D01*
X117631450Y-85072329D01*
X117567655Y-85090000D01*
X108751257Y-85090000D01*
X108684218Y-85070315D01*
X108679896Y-85067408D01*
X106657407Y-83644175D01*
X101854000Y-80264000D01*
X101853999Y-80264000D01*
X61846000Y-80264000D01*
X61778961Y-80244315D01*
X61733206Y-80191511D01*
X61722000Y-80140000D01*
X61722000Y-63878000D01*
X61741685Y-63810961D01*
X61794489Y-63765206D01*
X61846000Y-63754000D01*
X67483415Y-63754000D01*
X67550454Y-63773685D01*
X67596209Y-63826489D01*
X67596728Y-63827639D01*
X68569313Y-66015954D01*
X68580000Y-66066315D01*
X68580000Y-69342000D01*
X69596000Y-70866000D01*
X101854000Y-70866000D01*
X101854001Y-70866000D01*
X101854001Y-70865999D01*
X109219999Y-62484001D01*
X109219998Y-62484001D01*
X109220000Y-62484000D01*
X110461737Y-58758787D01*
X110501611Y-58701413D01*
X110566175Y-58674705D01*
X110579374Y-58674000D01*
X118566638Y-58674000D01*
X118633677Y-58693685D01*
G37*
G04 #@! TD.AperFunction*
G04 #@! TA.AperFunction,Conductor*
G36*
X144795677Y-58185685D02*
G01*
X144816319Y-58202319D01*
X146267681Y-59653681D01*
X146301166Y-59715004D01*
X146304000Y-59741362D01*
X146304000Y-62230000D01*
X154055734Y-62230000D01*
X154122773Y-62249685D01*
X154168528Y-62302489D01*
X154179721Y-62352253D01*
X154203348Y-64029723D01*
X154424844Y-79755999D01*
X154424845Y-79755999D01*
X154424845Y-79756000D01*
X131318000Y-79756000D01*
X131318000Y-85090000D01*
X121478363Y-85090000D01*
X121411324Y-85070315D01*
X121375189Y-85034783D01*
X120924826Y-84359239D01*
X120904018Y-84292540D01*
X120904000Y-84290456D01*
X120904000Y-59248362D01*
X120923685Y-59181323D01*
X120959215Y-59145189D01*
X121634760Y-58694826D01*
X121701460Y-58674018D01*
X121703544Y-58674000D01*
X124154638Y-58674000D01*
X124221677Y-58693685D01*
X124242319Y-58710319D01*
X125195452Y-59663452D01*
X125228937Y-59724775D01*
X125229363Y-59726814D01*
X125476000Y-60960000D01*
X127000000Y-62484000D01*
X130301998Y-62484000D01*
X130302000Y-62484000D01*
X132080000Y-60960000D01*
X135347325Y-58195339D01*
X135411217Y-58167063D01*
X135427422Y-58166000D01*
X144728638Y-58166000D01*
X144795677Y-58185685D01*
G37*
G04 #@! TD.AperFunction*
G04 #@! TA.AperFunction,Conductor*
G36*
X67318278Y-53994685D02*
G01*
X67347210Y-54020479D01*
X67914988Y-54714430D01*
X73025000Y-60960000D01*
X76805728Y-60960000D01*
X76861182Y-60973091D01*
X78036454Y-61560727D01*
X78087613Y-61608314D01*
X78105000Y-61671636D01*
X78105000Y-63448637D01*
X78085315Y-63515676D01*
X78068681Y-63536318D01*
X77506319Y-64098681D01*
X77444996Y-64132166D01*
X77418638Y-64135000D01*
X72422133Y-64135000D01*
X72361913Y-64119396D01*
X71154547Y-63448637D01*
X66675000Y-60960000D01*
X66674999Y-60960000D01*
X61719000Y-60960000D01*
X61651961Y-60940315D01*
X61606206Y-60887511D01*
X61595000Y-60836000D01*
X61595000Y-54099000D01*
X61614685Y-54031961D01*
X61667489Y-53986206D01*
X61719000Y-53975000D01*
X67251239Y-53975000D01*
X67318278Y-53994685D01*
G37*
G04 #@! TD.AperFunction*
G04 #@! TA.AperFunction,Conductor*
G36*
X80588039Y-43199685D02*
G01*
X80633794Y-43252489D01*
X80645000Y-43304000D01*
X80645000Y-48855261D01*
X80625315Y-48922300D01*
X80621903Y-48927335D01*
X77507090Y-53288074D01*
X77452106Y-53331184D01*
X77406187Y-53340000D01*
X72425563Y-53340000D01*
X72359843Y-53321152D01*
X67310000Y-50165000D01*
X61719000Y-50165000D01*
X61651961Y-50145315D01*
X61606206Y-50092511D01*
X61595000Y-50041000D01*
X61595000Y-43304000D01*
X61614685Y-43236961D01*
X61667489Y-43191206D01*
X61719000Y-43180000D01*
X80521000Y-43180000D01*
X80588039Y-43199685D01*
G37*
G04 #@! TD.AperFunction*
G04 #@! TA.AperFunction,Conductor*
G36*
X90254855Y-138261545D02*
G01*
X90271571Y-138280837D01*
X90401505Y-138466401D01*
X90568599Y-138633495D01*
X90754596Y-138763732D01*
X90798219Y-138818307D01*
X90805412Y-138887806D01*
X90773890Y-138950160D01*
X90754594Y-138966881D01*
X90678626Y-139020073D01*
X91307466Y-139648913D01*
X91297685Y-139650320D01*
X91166900Y-139710048D01*
X91058239Y-139804202D01*
X90980507Y-139925156D01*
X90956923Y-140005476D01*
X90325072Y-139373625D01*
X90325072Y-139373626D01*
X90271574Y-139450030D01*
X90216998Y-139493655D01*
X90147499Y-139500849D01*
X90085144Y-139469326D01*
X90068424Y-139450030D01*
X90014925Y-139373626D01*
X90014925Y-139373625D01*
X89383076Y-140005475D01*
X89359493Y-139925156D01*
X89281761Y-139804202D01*
X89173100Y-139710048D01*
X89042315Y-139650320D01*
X89032531Y-139648913D01*
X89661373Y-139020073D01*
X89661373Y-139020072D01*
X89585405Y-138966880D01*
X89541780Y-138912304D01*
X89534586Y-138842805D01*
X89566108Y-138780451D01*
X89585399Y-138763734D01*
X89771401Y-138633495D01*
X89938495Y-138466401D01*
X90068426Y-138280839D01*
X90123002Y-138237216D01*
X90192500Y-138230022D01*
X90254855Y-138261545D01*
G37*
G04 #@! TD.AperFunction*
G04 #@! TA.AperFunction,Conductor*
G36*
X92794854Y-138261545D02*
G01*
X92811572Y-138280838D01*
X92941505Y-138466401D01*
X93108599Y-138633495D01*
X93294596Y-138763732D01*
X93338219Y-138818307D01*
X93345412Y-138887806D01*
X93313890Y-138950160D01*
X93294594Y-138966881D01*
X93218626Y-139020073D01*
X93847466Y-139648913D01*
X93837685Y-139650320D01*
X93706900Y-139710048D01*
X93598239Y-139804202D01*
X93520507Y-139925156D01*
X93496923Y-140005476D01*
X92865072Y-139373625D01*
X92865072Y-139373626D01*
X92811574Y-139450030D01*
X92756998Y-139493655D01*
X92687499Y-139500849D01*
X92625144Y-139469326D01*
X92608424Y-139450030D01*
X92554925Y-139373626D01*
X92554925Y-139373625D01*
X91923076Y-140005475D01*
X91899493Y-139925156D01*
X91821761Y-139804202D01*
X91713100Y-139710048D01*
X91582315Y-139650320D01*
X91572533Y-139648913D01*
X92201373Y-139020073D01*
X92201373Y-139020072D01*
X92125405Y-138966880D01*
X92081780Y-138912304D01*
X92074586Y-138842805D01*
X92106108Y-138780451D01*
X92125399Y-138763734D01*
X92311401Y-138633495D01*
X92478495Y-138466401D01*
X92608427Y-138280838D01*
X92663001Y-138237216D01*
X92732499Y-138230022D01*
X92794854Y-138261545D01*
G37*
G04 #@! TD.AperFunction*
G04 #@! TA.AperFunction,Conductor*
G36*
X95334855Y-138261545D02*
G01*
X95351571Y-138280837D01*
X95481505Y-138466401D01*
X95648599Y-138633495D01*
X95834596Y-138763732D01*
X95878219Y-138818307D01*
X95885412Y-138887806D01*
X95853890Y-138950160D01*
X95834594Y-138966881D01*
X95758626Y-139020073D01*
X96387466Y-139648913D01*
X96377685Y-139650320D01*
X96246900Y-139710048D01*
X96138239Y-139804202D01*
X96060507Y-139925156D01*
X96036923Y-140005476D01*
X95405072Y-139373625D01*
X95405072Y-139373626D01*
X95351574Y-139450030D01*
X95296998Y-139493655D01*
X95227499Y-139500849D01*
X95165144Y-139469326D01*
X95148424Y-139450030D01*
X95094925Y-139373626D01*
X95094925Y-139373625D01*
X94463076Y-140005474D01*
X94439493Y-139925156D01*
X94361761Y-139804202D01*
X94253100Y-139710048D01*
X94122315Y-139650320D01*
X94112533Y-139648913D01*
X94741373Y-139020073D01*
X94741373Y-139020072D01*
X94665405Y-138966880D01*
X94621780Y-138912304D01*
X94614586Y-138842805D01*
X94646108Y-138780451D01*
X94665399Y-138763734D01*
X94851401Y-138633495D01*
X95018495Y-138466401D01*
X95148426Y-138280839D01*
X95203002Y-138237216D01*
X95272500Y-138230022D01*
X95334855Y-138261545D01*
G37*
G04 #@! TD.AperFunction*
G04 #@! TA.AperFunction,Conductor*
G36*
X87714855Y-138261546D02*
G01*
X87731571Y-138280837D01*
X87861505Y-138466401D01*
X88028599Y-138633495D01*
X88214596Y-138763732D01*
X88258219Y-138818307D01*
X88265412Y-138887806D01*
X88233890Y-138950160D01*
X88214594Y-138966881D01*
X88138626Y-139020073D01*
X88767466Y-139648913D01*
X88757685Y-139650320D01*
X88626900Y-139710048D01*
X88518239Y-139804202D01*
X88440507Y-139925156D01*
X88416923Y-140005475D01*
X87780841Y-139369393D01*
X87728294Y-139358833D01*
X87678111Y-139310218D01*
X87668281Y-139288075D01*
X87644357Y-139215878D01*
X87552316Y-139066654D01*
X87428345Y-138942683D01*
X87279123Y-138850643D01*
X87270598Y-138847818D01*
X87213154Y-138808045D01*
X87186331Y-138743529D01*
X87198646Y-138674753D01*
X87225810Y-138643246D01*
X87223730Y-138641166D01*
X87310358Y-138554538D01*
X87398495Y-138466401D01*
X87528426Y-138280839D01*
X87583002Y-138237217D01*
X87652501Y-138230024D01*
X87714855Y-138261546D01*
G37*
G04 #@! TD.AperFunction*
G04 #@! TA.AperFunction,Conductor*
G36*
X120099855Y-138261545D02*
G01*
X120116571Y-138280837D01*
X120246505Y-138466401D01*
X120413599Y-138633495D01*
X120599596Y-138763732D01*
X120643219Y-138818307D01*
X120650412Y-138887806D01*
X120618890Y-138950160D01*
X120599594Y-138966881D01*
X120523625Y-139020073D01*
X121152465Y-139648913D01*
X121142685Y-139650320D01*
X121011900Y-139710048D01*
X120903239Y-139804202D01*
X120825507Y-139925156D01*
X120801923Y-140005476D01*
X120165840Y-139369393D01*
X120113294Y-139358833D01*
X120063111Y-139310218D01*
X120053281Y-139288075D01*
X120029357Y-139215878D01*
X119937316Y-139066654D01*
X119813345Y-138942683D01*
X119664123Y-138850643D01*
X119655598Y-138847818D01*
X119598154Y-138808045D01*
X119571331Y-138743529D01*
X119583646Y-138674753D01*
X119610810Y-138643246D01*
X119608730Y-138641166D01*
X119695358Y-138554538D01*
X119783495Y-138466401D01*
X119913426Y-138280839D01*
X119968002Y-138237216D01*
X120037500Y-138230022D01*
X120099855Y-138261545D01*
G37*
G04 #@! TD.AperFunction*
G04 #@! TA.AperFunction,Conductor*
G36*
X122639855Y-138261545D02*
G01*
X122656571Y-138280837D01*
X122786505Y-138466401D01*
X122953599Y-138633495D01*
X123139596Y-138763732D01*
X123183219Y-138818307D01*
X123190412Y-138887806D01*
X123158890Y-138950160D01*
X123139594Y-138966881D01*
X123063626Y-139020073D01*
X123692466Y-139648913D01*
X123682685Y-139650320D01*
X123551900Y-139710048D01*
X123443239Y-139804202D01*
X123365507Y-139925156D01*
X123341923Y-140005476D01*
X122710072Y-139373625D01*
X122710072Y-139373626D01*
X122656574Y-139450030D01*
X122601998Y-139493655D01*
X122532499Y-139500849D01*
X122470144Y-139469326D01*
X122453424Y-139450030D01*
X122399925Y-139373626D01*
X122399925Y-139373625D01*
X121768076Y-140005475D01*
X121744493Y-139925156D01*
X121666761Y-139804202D01*
X121558100Y-139710048D01*
X121427315Y-139650320D01*
X121417532Y-139648913D01*
X122046373Y-139020073D01*
X122046373Y-139020072D01*
X121970405Y-138966880D01*
X121926780Y-138912304D01*
X121919586Y-138842805D01*
X121951108Y-138780451D01*
X121970399Y-138763734D01*
X122156401Y-138633495D01*
X122323495Y-138466401D01*
X122453426Y-138280839D01*
X122508002Y-138237216D01*
X122577500Y-138230022D01*
X122639855Y-138261545D01*
G37*
G04 #@! TD.AperFunction*
G04 #@! TA.AperFunction,Conductor*
G36*
X125179855Y-138261545D02*
G01*
X125196571Y-138280837D01*
X125326505Y-138466401D01*
X125493599Y-138633495D01*
X125679596Y-138763732D01*
X125723219Y-138818307D01*
X125730412Y-138887806D01*
X125698890Y-138950160D01*
X125679594Y-138966881D01*
X125603626Y-139020073D01*
X126232466Y-139648913D01*
X126222685Y-139650320D01*
X126091900Y-139710048D01*
X125983239Y-139804202D01*
X125905507Y-139925156D01*
X125881923Y-140005475D01*
X125250073Y-139373625D01*
X125250072Y-139373626D01*
X125196574Y-139450030D01*
X125141998Y-139493655D01*
X125072499Y-139500849D01*
X125010144Y-139469326D01*
X124993424Y-139450030D01*
X124939925Y-139373626D01*
X124939925Y-139373625D01*
X124308076Y-140005474D01*
X124284493Y-139925156D01*
X124206761Y-139804202D01*
X124098100Y-139710048D01*
X123967315Y-139650320D01*
X123957533Y-139648913D01*
X124586373Y-139020073D01*
X124586373Y-139020072D01*
X124510405Y-138966880D01*
X124466780Y-138912304D01*
X124459586Y-138842805D01*
X124491108Y-138780451D01*
X124510399Y-138763734D01*
X124696401Y-138633495D01*
X124863495Y-138466401D01*
X124993426Y-138280839D01*
X125048002Y-138237216D01*
X125117500Y-138230022D01*
X125179855Y-138261545D01*
G37*
G04 #@! TD.AperFunction*
G04 #@! TA.AperFunction,Conductor*
G36*
X127719855Y-138261546D02*
G01*
X127736571Y-138280837D01*
X127866505Y-138466401D01*
X128033599Y-138633495D01*
X128219596Y-138763732D01*
X128263219Y-138818307D01*
X128270412Y-138887806D01*
X128238890Y-138950160D01*
X128219594Y-138966881D01*
X128143626Y-139020073D01*
X128772466Y-139648913D01*
X128762685Y-139650320D01*
X128631900Y-139710048D01*
X128523239Y-139804202D01*
X128445507Y-139925156D01*
X128421923Y-140005476D01*
X127790072Y-139373625D01*
X127790072Y-139373626D01*
X127736574Y-139450030D01*
X127681998Y-139493655D01*
X127612499Y-139500849D01*
X127550144Y-139469326D01*
X127533424Y-139450030D01*
X127479925Y-139373626D01*
X127479925Y-139373625D01*
X126848076Y-140005473D01*
X126824493Y-139925156D01*
X126746761Y-139804202D01*
X126638100Y-139710048D01*
X126507315Y-139650320D01*
X126497533Y-139648913D01*
X127126373Y-139020073D01*
X127126373Y-139020072D01*
X127050405Y-138966880D01*
X127006780Y-138912304D01*
X126999586Y-138842805D01*
X127031108Y-138780451D01*
X127050399Y-138763734D01*
X127236401Y-138633495D01*
X127403495Y-138466401D01*
X127533426Y-138280839D01*
X127588002Y-138237217D01*
X127657501Y-138230024D01*
X127719855Y-138261546D01*
G37*
G04 #@! TD.AperFunction*
G04 #@! TA.AperFunction,Conductor*
G36*
X147278809Y-111514185D02*
G01*
X147299451Y-111530819D01*
X147549181Y-111780549D01*
X147582666Y-111841872D01*
X147585500Y-111868230D01*
X147585500Y-113440261D01*
X147565815Y-113507300D01*
X147545040Y-113531897D01*
X147519235Y-113555421D01*
X147396324Y-113718181D01*
X147305418Y-113900748D01*
X147249602Y-114096916D01*
X147230785Y-114299999D01*
X147249602Y-114503083D01*
X147305418Y-114699251D01*
X147396324Y-114881818D01*
X147519236Y-115044580D01*
X147669958Y-115181981D01*
X147843361Y-115289347D01*
X147843363Y-115289348D01*
X148033544Y-115363024D01*
X148234024Y-115400500D01*
X148234026Y-115400500D01*
X148437974Y-115400500D01*
X148437976Y-115400500D01*
X148638456Y-115363024D01*
X148690707Y-115342781D01*
X148760329Y-115336919D01*
X148822069Y-115369629D01*
X148856324Y-115430525D01*
X148859500Y-115458408D01*
X148859500Y-121177171D01*
X148846501Y-121232441D01*
X148829417Y-121266749D01*
X148773602Y-121462916D01*
X148754785Y-121666000D01*
X148773602Y-121869083D01*
X148829417Y-122065250D01*
X148846499Y-122099553D01*
X148859500Y-122154826D01*
X148859500Y-122216217D01*
X148839815Y-122283256D01*
X148823181Y-122303898D01*
X147884358Y-123242722D01*
X147823035Y-123276207D01*
X147796677Y-123279041D01*
X136974914Y-123279041D01*
X136930121Y-123270668D01*
X136790341Y-123216517D01*
X136723513Y-123204025D01*
X136589860Y-123179041D01*
X136385908Y-123179041D01*
X136300454Y-123195015D01*
X136185426Y-123216517D01*
X135995245Y-123290193D01*
X135821842Y-123397559D01*
X135671120Y-123534960D01*
X135548208Y-123697722D01*
X135476500Y-123841734D01*
X135428997Y-123892972D01*
X135361335Y-123910393D01*
X135294994Y-123888468D01*
X135251039Y-123834156D01*
X135241500Y-123786463D01*
X135241500Y-114968004D01*
X135261185Y-114900965D01*
X135277814Y-114880328D01*
X137024692Y-113133449D01*
X137086013Y-113099966D01*
X137089556Y-113099249D01*
X137208456Y-113077024D01*
X137398637Y-113003348D01*
X137572041Y-112895981D01*
X137722764Y-112758579D01*
X137845673Y-112595821D01*
X137845673Y-112595819D01*
X137845675Y-112595818D01*
X137895703Y-112495347D01*
X137936582Y-112413250D01*
X137992397Y-112217083D01*
X138011215Y-112014000D01*
X137992397Y-111810917D01*
X137976114Y-111753688D01*
X137947305Y-111652434D01*
X137947891Y-111582567D01*
X137986158Y-111524108D01*
X138049955Y-111495618D01*
X138066571Y-111494500D01*
X147211770Y-111494500D01*
X147278809Y-111514185D01*
G37*
G04 #@! TD.AperFunction*
G04 #@! TA.AperFunction,Conductor*
G36*
X47180599Y-103709155D02*
G01*
X47211654Y-103735909D01*
X47213834Y-103733730D01*
X47221505Y-103741401D01*
X47388599Y-103908495D01*
X47574160Y-104038426D01*
X47617783Y-104093002D01*
X47624976Y-104162501D01*
X47593454Y-104224855D01*
X47574158Y-104241575D01*
X47394538Y-104367347D01*
X47388595Y-104371508D01*
X47221508Y-104538595D01*
X47221505Y-104538598D01*
X47221505Y-104538599D01*
X47142949Y-104650790D01*
X47091270Y-104724595D01*
X47036693Y-104768219D01*
X46967194Y-104775412D01*
X46904840Y-104743890D01*
X46888120Y-104724595D01*
X46834925Y-104648626D01*
X46834925Y-104648625D01*
X46203076Y-105280475D01*
X46179493Y-105200156D01*
X46101761Y-105079202D01*
X45993100Y-104985048D01*
X45862315Y-104925320D01*
X45852534Y-104923913D01*
X46485789Y-104290658D01*
X46496209Y-104238808D01*
X46544823Y-104188624D01*
X46566961Y-104178796D01*
X46639334Y-104154814D01*
X46788656Y-104062712D01*
X46912712Y-103938656D01*
X47004814Y-103789334D01*
X47007538Y-103781111D01*
X47047307Y-103723668D01*
X47111822Y-103696843D01*
X47180599Y-103709155D01*
G37*
G04 #@! TD.AperFunction*
G04 #@! TA.AperFunction,Conductor*
G36*
X53703256Y-103890185D02*
G01*
X53723898Y-103906819D01*
X56708898Y-106891819D01*
X56742383Y-106953142D01*
X56737399Y-107022834D01*
X56695527Y-107078767D01*
X56630063Y-107103184D01*
X56621217Y-107103500D01*
X56540024Y-107103500D01*
X56439783Y-107122238D01*
X56339542Y-107140976D01*
X56149361Y-107214652D01*
X55975958Y-107322018D01*
X55825236Y-107459419D01*
X55702324Y-107622181D01*
X55611418Y-107804748D01*
X55555602Y-108000916D01*
X55536785Y-108203999D01*
X55555602Y-108407083D01*
X55611418Y-108603251D01*
X55702324Y-108785818D01*
X55741454Y-108837633D01*
X55766146Y-108902994D01*
X55766500Y-108912360D01*
X55766500Y-113083639D01*
X55746815Y-113150678D01*
X55741454Y-113158365D01*
X55702326Y-113210178D01*
X55611418Y-113392748D01*
X55555602Y-113588916D01*
X55536785Y-113792000D01*
X55555602Y-113995083D01*
X55611418Y-114191251D01*
X55702324Y-114373818D01*
X55825236Y-114536580D01*
X55975958Y-114673981D01*
X56149361Y-114781347D01*
X56149363Y-114781348D01*
X56339544Y-114855024D01*
X56540024Y-114892500D01*
X56540026Y-114892500D01*
X56743974Y-114892500D01*
X56743976Y-114892500D01*
X56944456Y-114855024D01*
X57134637Y-114781348D01*
X57308041Y-114673981D01*
X57347431Y-114638072D01*
X57458763Y-114536580D01*
X57458764Y-114536579D01*
X57581673Y-114373821D01*
X57581673Y-114373819D01*
X57581675Y-114373818D01*
X57641205Y-114254264D01*
X57672582Y-114191250D01*
X57728397Y-113995083D01*
X57747215Y-113792000D01*
X57728397Y-113588917D01*
X57718866Y-113555421D01*
X57705175Y-113507300D01*
X57672582Y-113392750D01*
X57629711Y-113306652D01*
X57581673Y-113210178D01*
X57542546Y-113158365D01*
X57517854Y-113093004D01*
X57517500Y-113083639D01*
X57517500Y-108912360D01*
X57537185Y-108845321D01*
X57542546Y-108837633D01*
X57581675Y-108785818D01*
X57652058Y-108644468D01*
X57672582Y-108603250D01*
X57728397Y-108407083D01*
X57746067Y-108216378D01*
X57771853Y-108151443D01*
X57828653Y-108110755D01*
X57898434Y-108107235D01*
X57957219Y-108140140D01*
X58653181Y-108836102D01*
X58686666Y-108897425D01*
X58689500Y-108923783D01*
X58689500Y-113015721D01*
X58689460Y-113018863D01*
X58687242Y-113106362D01*
X58697648Y-113164420D01*
X58698957Y-113173749D01*
X58704926Y-113232438D01*
X58714033Y-113261467D01*
X58717772Y-113276702D01*
X58723141Y-113306652D01*
X58745020Y-113361425D01*
X58748180Y-113370300D01*
X58765841Y-113426588D01*
X58780607Y-113453191D01*
X58787337Y-113467364D01*
X58798622Y-113495617D01*
X58831080Y-113544867D01*
X58835961Y-113552923D01*
X58864590Y-113604501D01*
X58884404Y-113627581D01*
X58893856Y-113640116D01*
X58910599Y-113665520D01*
X58952300Y-113707221D01*
X58958705Y-113714132D01*
X58997130Y-113758891D01*
X58997131Y-113758892D01*
X58997134Y-113758895D01*
X59021198Y-113777522D01*
X59032968Y-113787889D01*
X60518898Y-115273819D01*
X60552383Y-115335142D01*
X60547399Y-115404834D01*
X60505527Y-115460767D01*
X60440063Y-115485184D01*
X60431217Y-115485500D01*
X60350024Y-115485500D01*
X60249784Y-115504238D01*
X60149542Y-115522976D01*
X59959361Y-115596652D01*
X59785958Y-115704018D01*
X59677231Y-115803137D01*
X59614427Y-115833754D01*
X59593693Y-115835500D01*
X57246307Y-115835500D01*
X57179268Y-115815815D01*
X57162769Y-115803137D01*
X57054041Y-115704018D01*
X56880638Y-115596652D01*
X56690457Y-115522976D01*
X56623629Y-115510484D01*
X56489976Y-115485500D01*
X56286024Y-115485500D01*
X56185784Y-115504238D01*
X56085542Y-115522976D01*
X55895361Y-115596652D01*
X55721958Y-115704018D01*
X55571236Y-115841419D01*
X55448324Y-116004181D01*
X55357418Y-116186748D01*
X55301602Y-116382916D01*
X55282785Y-116585999D01*
X55301602Y-116789083D01*
X55347172Y-116949241D01*
X55346586Y-117019109D01*
X55308319Y-117077567D01*
X55244522Y-117106058D01*
X55175449Y-117095534D01*
X55140225Y-117070857D01*
X52094819Y-114025451D01*
X52061334Y-113964128D01*
X52058500Y-113937770D01*
X52058500Y-112331705D01*
X52059809Y-112313735D01*
X52059961Y-112312691D01*
X52063289Y-112289977D01*
X52058972Y-112240629D01*
X52058500Y-112229823D01*
X52058500Y-112227901D01*
X52058500Y-112224291D01*
X52054903Y-112193520D01*
X52054536Y-112189929D01*
X52050870Y-112148019D01*
X52047999Y-112115203D01*
X52047998Y-112115201D01*
X52047889Y-112113949D01*
X52043672Y-112094930D01*
X52036162Y-112074297D01*
X52017591Y-112023273D01*
X52016408Y-112019868D01*
X52015682Y-112017676D01*
X51992814Y-111948666D01*
X51992812Y-111948663D01*
X51992415Y-111947464D01*
X51983929Y-111929936D01*
X51983237Y-111928884D01*
X51983237Y-111928883D01*
X51942001Y-111866188D01*
X51940086Y-111863181D01*
X51939096Y-111861576D01*
X51900712Y-111799345D01*
X51900711Y-111799344D01*
X51900048Y-111798269D01*
X51887748Y-111783170D01*
X51832273Y-111730832D01*
X51829686Y-111728319D01*
X50105728Y-110004360D01*
X50093946Y-109990727D01*
X50079609Y-109971469D01*
X50041666Y-109939631D01*
X50033691Y-109932323D01*
X50032329Y-109930961D01*
X50029777Y-109928409D01*
X50005444Y-109909169D01*
X50002647Y-109906890D01*
X49944251Y-109857890D01*
X49927821Y-109847422D01*
X49858691Y-109815186D01*
X49855447Y-109813615D01*
X49787306Y-109779394D01*
X49768903Y-109772997D01*
X49694211Y-109757574D01*
X49690692Y-109756794D01*
X49616490Y-109739208D01*
X49597121Y-109737229D01*
X49520869Y-109739448D01*
X49517263Y-109739500D01*
X49447701Y-109739500D01*
X49380662Y-109719815D01*
X49346126Y-109686623D01*
X49298494Y-109618598D01*
X49131402Y-109451505D01*
X49022243Y-109375072D01*
X48945839Y-109321573D01*
X48902216Y-109266998D01*
X48895022Y-109197500D01*
X48926545Y-109135145D01*
X48945837Y-109118428D01*
X49131401Y-108988495D01*
X49298495Y-108821401D01*
X49434035Y-108627830D01*
X49533903Y-108413663D01*
X49595063Y-108185408D01*
X49615659Y-107950000D01*
X49595063Y-107714592D01*
X49533903Y-107486337D01*
X49434035Y-107272171D01*
X49298495Y-107078599D01*
X49131401Y-106911505D01*
X48945839Y-106781573D01*
X48902216Y-106726998D01*
X48895022Y-106657500D01*
X48926545Y-106595145D01*
X48945837Y-106578428D01*
X49131401Y-106448495D01*
X49298495Y-106281401D01*
X49434035Y-106087830D01*
X49533903Y-105873663D01*
X49595063Y-105645408D01*
X49615659Y-105410000D01*
X49595063Y-105174592D01*
X49533903Y-104946337D01*
X49434035Y-104732171D01*
X49298495Y-104538599D01*
X49131401Y-104371505D01*
X48945839Y-104241573D01*
X48902216Y-104186998D01*
X48895022Y-104117500D01*
X48926545Y-104055145D01*
X48945837Y-104038428D01*
X49131401Y-103908495D01*
X49133077Y-103906819D01*
X49136334Y-103905040D01*
X49140288Y-103902272D01*
X49140596Y-103902712D01*
X49194400Y-103873334D01*
X49220758Y-103870500D01*
X53636217Y-103870500D01*
X53703256Y-103890185D01*
G37*
G04 #@! TD.AperFunction*
G04 #@! TA.AperFunction,Conductor*
G36*
X46834925Y-111251373D02*
G01*
X46888119Y-111175405D01*
X46942696Y-111131780D01*
X47012194Y-111124586D01*
X47074549Y-111156109D01*
X47091265Y-111175400D01*
X47221505Y-111361401D01*
X47388599Y-111528495D01*
X47574160Y-111658426D01*
X47617783Y-111713002D01*
X47624976Y-111782501D01*
X47593454Y-111844855D01*
X47574160Y-111861574D01*
X47406930Y-111978670D01*
X47388595Y-111991508D01*
X47221508Y-112158595D01*
X47221505Y-112158598D01*
X47221505Y-112158599D01*
X47100296Y-112331705D01*
X47091270Y-112344595D01*
X47036693Y-112388219D01*
X46967194Y-112395412D01*
X46904840Y-112363890D01*
X46888120Y-112344595D01*
X46834925Y-112268626D01*
X46834925Y-112268625D01*
X46203076Y-112900475D01*
X46179493Y-112820156D01*
X46101761Y-112699202D01*
X45993100Y-112605048D01*
X45862315Y-112545320D01*
X45852533Y-112543913D01*
X46481373Y-111915073D01*
X46481373Y-111915072D01*
X46404969Y-111861574D01*
X46361344Y-111806997D01*
X46354150Y-111737499D01*
X46385673Y-111675144D01*
X46404969Y-111658424D01*
X46481373Y-111604925D01*
X45852533Y-110976086D01*
X45862315Y-110974680D01*
X45993100Y-110914952D01*
X46101761Y-110820798D01*
X46179493Y-110699844D01*
X46203076Y-110619524D01*
X46834925Y-111251373D01*
G37*
G04 #@! TD.AperFunction*
G04 #@! TA.AperFunction,Conductor*
G36*
X46834925Y-108711373D02*
G01*
X46888119Y-108635405D01*
X46942696Y-108591780D01*
X47012194Y-108584586D01*
X47074549Y-108616109D01*
X47091265Y-108635400D01*
X47221505Y-108821401D01*
X47388599Y-108988495D01*
X47574160Y-109118426D01*
X47617783Y-109173002D01*
X47624976Y-109242501D01*
X47593454Y-109304855D01*
X47574159Y-109321575D01*
X47388595Y-109451508D01*
X47221508Y-109618595D01*
X47221505Y-109618598D01*
X47221505Y-109618599D01*
X47108520Y-109779960D01*
X47091270Y-109804595D01*
X47036693Y-109848219D01*
X46967194Y-109855412D01*
X46904840Y-109823890D01*
X46888120Y-109804595D01*
X46834925Y-109728626D01*
X46834925Y-109728625D01*
X46203076Y-110360474D01*
X46179493Y-110280156D01*
X46101761Y-110159202D01*
X45993100Y-110065048D01*
X45862315Y-110005320D01*
X45852532Y-110003913D01*
X46481373Y-109375073D01*
X46481373Y-109375072D01*
X46404969Y-109321574D01*
X46361344Y-109266997D01*
X46354150Y-109197499D01*
X46385673Y-109135144D01*
X46404969Y-109118424D01*
X46481373Y-109064925D01*
X45852533Y-108436086D01*
X45862315Y-108434680D01*
X45993100Y-108374952D01*
X46101761Y-108280798D01*
X46179493Y-108159844D01*
X46203076Y-108079524D01*
X46834925Y-108711373D01*
G37*
G04 #@! TD.AperFunction*
G04 #@! TA.AperFunction,Conductor*
G36*
X46834925Y-106171373D02*
G01*
X46888119Y-106095405D01*
X46942696Y-106051780D01*
X47012194Y-106044586D01*
X47074549Y-106076109D01*
X47091265Y-106095400D01*
X47221505Y-106281401D01*
X47388599Y-106448495D01*
X47574160Y-106578426D01*
X47617783Y-106633002D01*
X47624976Y-106702501D01*
X47593454Y-106764855D01*
X47574160Y-106781574D01*
X47465530Y-106857638D01*
X47388595Y-106911508D01*
X47221508Y-107078595D01*
X47221505Y-107078598D01*
X47221505Y-107078599D01*
X47144465Y-107188625D01*
X47091270Y-107264595D01*
X47036693Y-107308219D01*
X46967194Y-107315412D01*
X46904840Y-107283890D01*
X46888120Y-107264595D01*
X46834925Y-107188626D01*
X46834925Y-107188625D01*
X46203076Y-107820475D01*
X46179493Y-107740156D01*
X46101761Y-107619202D01*
X45993100Y-107525048D01*
X45862315Y-107465320D01*
X45852533Y-107463913D01*
X46481373Y-106835073D01*
X46481373Y-106835072D01*
X46404969Y-106781574D01*
X46361344Y-106726997D01*
X46354150Y-106657499D01*
X46385673Y-106595144D01*
X46404969Y-106578424D01*
X46481373Y-106524925D01*
X45852533Y-105896086D01*
X45862315Y-105894680D01*
X45993100Y-105834952D01*
X46101761Y-105740798D01*
X46179493Y-105619844D01*
X46203076Y-105539524D01*
X46834925Y-106171373D01*
G37*
G04 #@! TD.AperFunction*
G04 #@! TA.AperFunction,Conductor*
G36*
X166059039Y-79775685D02*
G01*
X166104794Y-79828489D01*
X166116000Y-79880000D01*
X166116000Y-144148000D01*
X166096315Y-144215039D01*
X166043511Y-144260794D01*
X165992000Y-144272000D01*
X41018000Y-144272000D01*
X40950961Y-144252315D01*
X40905206Y-144199511D01*
X40894000Y-144148000D01*
X40894000Y-139065000D01*
X45619389Y-139065000D01*
X45639804Y-139350429D01*
X45700629Y-139630041D01*
X45700631Y-139630046D01*
X45783271Y-139851613D01*
X45800634Y-139898163D01*
X45937772Y-140149313D01*
X45955028Y-140172364D01*
X46109261Y-140378395D01*
X46311605Y-140580739D01*
X46385961Y-140636401D01*
X46540686Y-140752227D01*
X46680435Y-140828535D01*
X46791839Y-140889367D01*
X47059954Y-140989369D01*
X47059957Y-140989369D01*
X47059958Y-140989370D01*
X47112217Y-141000738D01*
X47339572Y-141050196D01*
X47553552Y-141065500D01*
X47555767Y-141065500D01*
X47694233Y-141065500D01*
X47696448Y-141065500D01*
X47910428Y-141050196D01*
X48190046Y-140989369D01*
X48241976Y-140970000D01*
X70350201Y-140970000D01*
X70369361Y-141201217D01*
X70426319Y-141426139D01*
X70519516Y-141638609D01*
X70603811Y-141767633D01*
X71310550Y-141060896D01*
X71311327Y-141071265D01*
X71360887Y-141197541D01*
X71445465Y-141303599D01*
X71557547Y-141380016D01*
X71665299Y-141413253D01*
X70956199Y-142122351D01*
X70986650Y-142146051D01*
X71190700Y-142256477D01*
X71410140Y-142331811D01*
X71638993Y-142370000D01*
X71871007Y-142370000D01*
X72099859Y-142331811D01*
X72319296Y-142256478D01*
X72523353Y-142146048D01*
X72553798Y-142122351D01*
X71843231Y-141411784D01*
X71889138Y-141404865D01*
X72011357Y-141346007D01*
X72110798Y-141253740D01*
X72178625Y-141136260D01*
X72196499Y-141057946D01*
X72906186Y-141767634D01*
X72990483Y-141638607D01*
X73083680Y-141426138D01*
X73140638Y-141201217D01*
X73159798Y-140970000D01*
X73140638Y-140738782D01*
X73083680Y-140513860D01*
X72990484Y-140301392D01*
X72906186Y-140172364D01*
X72199449Y-140879101D01*
X72198673Y-140868735D01*
X72149113Y-140742459D01*
X72064535Y-140636401D01*
X71952453Y-140559984D01*
X71844700Y-140526747D01*
X72504628Y-139866818D01*
X72565951Y-139833333D01*
X72592308Y-139830499D01*
X72702872Y-139830499D01*
X72762483Y-139824091D01*
X72897331Y-139773796D01*
X73012546Y-139687546D01*
X73098796Y-139572331D01*
X73149091Y-139437483D01*
X73155500Y-139377873D01*
X73155499Y-137595000D01*
X85004340Y-137595000D01*
X85024936Y-137830407D01*
X85053130Y-137935627D01*
X85086097Y-138058663D01*
X85185965Y-138272830D01*
X85321505Y-138466401D01*
X85321508Y-138466404D01*
X85496270Y-138641166D01*
X85493681Y-138643754D01*
X85525140Y-138683102D01*
X85532340Y-138752600D01*
X85500824Y-138814958D01*
X85449402Y-138847817D01*
X85440879Y-138850641D01*
X85291654Y-138942683D01*
X85167683Y-139066654D01*
X85075642Y-139215877D01*
X85020493Y-139382303D01*
X85010319Y-139481890D01*
X85010000Y-139488168D01*
X85010000Y-139885000D01*
X85926314Y-139885000D01*
X85900507Y-139925156D01*
X85860000Y-140063111D01*
X85860000Y-140206889D01*
X85900507Y-140344844D01*
X85926314Y-140385000D01*
X85010001Y-140385000D01*
X85010001Y-140781829D01*
X85010321Y-140788111D01*
X85020493Y-140887695D01*
X85075642Y-141054122D01*
X85167683Y-141203345D01*
X85291654Y-141327316D01*
X85440877Y-141419357D01*
X85607303Y-141474506D01*
X85706890Y-141484680D01*
X85713168Y-141484999D01*
X86109999Y-141484999D01*
X86110000Y-141484998D01*
X86110000Y-140570501D01*
X86217685Y-140619680D01*
X86324237Y-140635000D01*
X86395763Y-140635000D01*
X86502315Y-140619680D01*
X86609999Y-140570501D01*
X86609999Y-141484999D01*
X87006829Y-141484999D01*
X87013111Y-141484678D01*
X87112695Y-141474506D01*
X87279122Y-141419357D01*
X87428345Y-141327316D01*
X87552316Y-141203345D01*
X87644357Y-141054122D01*
X87668282Y-140981923D01*
X87708055Y-140924478D01*
X87772570Y-140897655D01*
X87783911Y-140897535D01*
X88416922Y-140264523D01*
X88440507Y-140344844D01*
X88518239Y-140465798D01*
X88626900Y-140559952D01*
X88757685Y-140619680D01*
X88767466Y-140621086D01*
X88138625Y-141249925D01*
X88222420Y-141308599D01*
X88436507Y-141408430D01*
X88664681Y-141469569D01*
X88900000Y-141490157D01*
X89135318Y-141469569D01*
X89363492Y-141408430D01*
X89577576Y-141308600D01*
X89661373Y-141249925D01*
X89032533Y-140621086D01*
X89042315Y-140619680D01*
X89173100Y-140559952D01*
X89281761Y-140465798D01*
X89359493Y-140344844D01*
X89383076Y-140264524D01*
X90014925Y-140896373D01*
X90068424Y-140819969D01*
X90123001Y-140776344D01*
X90192499Y-140769150D01*
X90254854Y-140800673D01*
X90271574Y-140819969D01*
X90325072Y-140896373D01*
X90325073Y-140896373D01*
X90956923Y-140264523D01*
X90980507Y-140344844D01*
X91058239Y-140465798D01*
X91166900Y-140559952D01*
X91297685Y-140619680D01*
X91307466Y-140621086D01*
X90678625Y-141249925D01*
X90762420Y-141308599D01*
X90976507Y-141408430D01*
X91204681Y-141469569D01*
X91439999Y-141490157D01*
X91675318Y-141469569D01*
X91903492Y-141408430D01*
X92117576Y-141308600D01*
X92201373Y-141249925D01*
X91572533Y-140621086D01*
X91582315Y-140619680D01*
X91713100Y-140559952D01*
X91821761Y-140465798D01*
X91899493Y-140344844D01*
X91923076Y-140264524D01*
X92554925Y-140896373D01*
X92608424Y-140819969D01*
X92663001Y-140776344D01*
X92732499Y-140769150D01*
X92794854Y-140800673D01*
X92811574Y-140819969D01*
X92865072Y-140896373D01*
X92865073Y-140896373D01*
X93496923Y-140264523D01*
X93520507Y-140344844D01*
X93598239Y-140465798D01*
X93706900Y-140559952D01*
X93837685Y-140619680D01*
X93847466Y-140621086D01*
X93218625Y-141249925D01*
X93302420Y-141308599D01*
X93516507Y-141408430D01*
X93744681Y-141469569D01*
X93979999Y-141490157D01*
X94215318Y-141469569D01*
X94443492Y-141408430D01*
X94657576Y-141308600D01*
X94741373Y-141249925D01*
X94112533Y-140621086D01*
X94122315Y-140619680D01*
X94253100Y-140559952D01*
X94361761Y-140465798D01*
X94439493Y-140344844D01*
X94463076Y-140264524D01*
X95094925Y-140896373D01*
X95148424Y-140819969D01*
X95203001Y-140776344D01*
X95272499Y-140769150D01*
X95334854Y-140800673D01*
X95351574Y-140819969D01*
X95405072Y-140896373D01*
X95405073Y-140896373D01*
X96036923Y-140264523D01*
X96060507Y-140344844D01*
X96138239Y-140465798D01*
X96246900Y-140559952D01*
X96377685Y-140619680D01*
X96387466Y-140621086D01*
X95758625Y-141249925D01*
X95842420Y-141308599D01*
X96056507Y-141408430D01*
X96284681Y-141469569D01*
X96520000Y-141490157D01*
X96755318Y-141469569D01*
X96983492Y-141408430D01*
X97197576Y-141308600D01*
X97281373Y-141249925D01*
X96652533Y-140621086D01*
X96662315Y-140619680D01*
X96793100Y-140559952D01*
X96901761Y-140465798D01*
X96979493Y-140344844D01*
X97003076Y-140264524D01*
X97634925Y-140896373D01*
X97693600Y-140812576D01*
X97793430Y-140598492D01*
X97854569Y-140370318D01*
X97875157Y-140135000D01*
X97854569Y-139899681D01*
X97793430Y-139671507D01*
X97693599Y-139457421D01*
X97634926Y-139373626D01*
X97634925Y-139373625D01*
X97003076Y-140005474D01*
X96979493Y-139925156D01*
X96901761Y-139804202D01*
X96793100Y-139710048D01*
X96662315Y-139650320D01*
X96652533Y-139648913D01*
X97281373Y-139020073D01*
X97281373Y-139020072D01*
X97205405Y-138966880D01*
X97161780Y-138912304D01*
X97154586Y-138842805D01*
X97186108Y-138780451D01*
X97205399Y-138763734D01*
X97391401Y-138633495D01*
X97558495Y-138466401D01*
X97694035Y-138272830D01*
X97793903Y-138058663D01*
X97855063Y-137830408D01*
X97875659Y-137595000D01*
X97855063Y-137359592D01*
X97793903Y-137131337D01*
X97694035Y-136917171D01*
X97558495Y-136723599D01*
X97391401Y-136556505D01*
X97197830Y-136420965D01*
X96983663Y-136321097D01*
X96922502Y-136304709D01*
X96755407Y-136259936D01*
X96519999Y-136239340D01*
X96284592Y-136259936D01*
X96056336Y-136321097D01*
X95842170Y-136420965D01*
X95648598Y-136556505D01*
X95481505Y-136723598D01*
X95351575Y-136909159D01*
X95296998Y-136952784D01*
X95227500Y-136959978D01*
X95165145Y-136928455D01*
X95148425Y-136909159D01*
X95018494Y-136723598D01*
X94851404Y-136556508D01*
X94851401Y-136556505D01*
X94657830Y-136420965D01*
X94443663Y-136321097D01*
X94382501Y-136304709D01*
X94215407Y-136259936D01*
X93980000Y-136239340D01*
X93744592Y-136259936D01*
X93516336Y-136321097D01*
X93302170Y-136420965D01*
X93108598Y-136556505D01*
X92941505Y-136723598D01*
X92811575Y-136909159D01*
X92756998Y-136952784D01*
X92687500Y-136959978D01*
X92625145Y-136928455D01*
X92608425Y-136909159D01*
X92478494Y-136723598D01*
X92311404Y-136556508D01*
X92311403Y-136556507D01*
X92311401Y-136556505D01*
X92117830Y-136420965D01*
X91903663Y-136321097D01*
X91842501Y-136304709D01*
X91675407Y-136259936D01*
X91440000Y-136239340D01*
X91204592Y-136259936D01*
X90976336Y-136321097D01*
X90762170Y-136420965D01*
X90568598Y-136556505D01*
X90401505Y-136723598D01*
X90271575Y-136909159D01*
X90216998Y-136952784D01*
X90147500Y-136959978D01*
X90085145Y-136928455D01*
X90068425Y-136909159D01*
X89938494Y-136723598D01*
X89771404Y-136556508D01*
X89771403Y-136556507D01*
X89771401Y-136556505D01*
X89577830Y-136420965D01*
X89363663Y-136321097D01*
X89302502Y-136304709D01*
X89135407Y-136259936D01*
X88899999Y-136239340D01*
X88664592Y-136259936D01*
X88436336Y-136321097D01*
X88222170Y-136420965D01*
X88028598Y-136556505D01*
X87861505Y-136723598D01*
X87731575Y-136909159D01*
X87676998Y-136952784D01*
X87607500Y-136959978D01*
X87545145Y-136928455D01*
X87528425Y-136909159D01*
X87398494Y-136723598D01*
X87231404Y-136556508D01*
X87231403Y-136556507D01*
X87231401Y-136556505D01*
X87037830Y-136420965D01*
X86823663Y-136321097D01*
X86762502Y-136304709D01*
X86595407Y-136259936D01*
X86360000Y-136239340D01*
X86124592Y-136259936D01*
X85896336Y-136321097D01*
X85682170Y-136420965D01*
X85488598Y-136556505D01*
X85321505Y-136723598D01*
X85185965Y-136917170D01*
X85086097Y-137131336D01*
X85024936Y-137359592D01*
X85004340Y-137595000D01*
X73155499Y-137595000D01*
X73155499Y-137482128D01*
X73149091Y-137422517D01*
X73098796Y-137287669D01*
X73012546Y-137172454D01*
X72897331Y-137086204D01*
X72762483Y-137035909D01*
X72702873Y-137029500D01*
X72699550Y-137029500D01*
X70810439Y-137029500D01*
X70810420Y-137029500D01*
X70807128Y-137029501D01*
X70803848Y-137029853D01*
X70803840Y-137029854D01*
X70747515Y-137035909D01*
X70612669Y-137086204D01*
X70497454Y-137172454D01*
X70411204Y-137287668D01*
X70360910Y-137422515D01*
X70360909Y-137422517D01*
X70354500Y-137482127D01*
X70354500Y-137485448D01*
X70354500Y-137485449D01*
X70354500Y-139374560D01*
X70354500Y-139374578D01*
X70354501Y-139377872D01*
X70354853Y-139381152D01*
X70354854Y-139381159D01*
X70360909Y-139437484D01*
X70377472Y-139481890D01*
X70411204Y-139572331D01*
X70497454Y-139687546D01*
X70612669Y-139773796D01*
X70747517Y-139824091D01*
X70807127Y-139830500D01*
X70917692Y-139830499D01*
X70984729Y-139850183D01*
X71005371Y-139866818D01*
X71666768Y-140528215D01*
X71620862Y-140535135D01*
X71498643Y-140593993D01*
X71399202Y-140686260D01*
X71331375Y-140803740D01*
X71313500Y-140882053D01*
X70603812Y-140172365D01*
X70519516Y-140301390D01*
X70426319Y-140513860D01*
X70369361Y-140738782D01*
X70350201Y-140970000D01*
X48241976Y-140970000D01*
X48458161Y-140889367D01*
X48709315Y-140752226D01*
X48938395Y-140580739D01*
X49140739Y-140378395D01*
X49312226Y-140149315D01*
X49449367Y-139898161D01*
X49549369Y-139630046D01*
X49579926Y-139489578D01*
X56419500Y-139489578D01*
X56419501Y-139492872D01*
X56419853Y-139496152D01*
X56419854Y-139496159D01*
X56423267Y-139527909D01*
X56425909Y-139552483D01*
X56476204Y-139687331D01*
X56562454Y-139802546D01*
X56677669Y-139888796D01*
X56812517Y-139939091D01*
X56872127Y-139945500D01*
X58697872Y-139945499D01*
X58757483Y-139939091D01*
X58892331Y-139888796D01*
X59007546Y-139802546D01*
X59093796Y-139687331D01*
X59137133Y-139571137D01*
X59179004Y-139515204D01*
X59244469Y-139490787D01*
X59312742Y-139505639D01*
X59342837Y-139528670D01*
X59419586Y-139608749D01*
X59556552Y-139710048D01*
X59606470Y-139746967D01*
X59814024Y-139851613D01*
X60036277Y-139919678D01*
X60266837Y-139949202D01*
X60499070Y-139939337D01*
X60726295Y-139890366D01*
X60941976Y-139803699D01*
X61130619Y-139687546D01*
X61139904Y-139681829D01*
X61139904Y-139681828D01*
X61139907Y-139681827D01*
X61314395Y-139528259D01*
X61332660Y-139505639D01*
X61442670Y-139369393D01*
X61460420Y-139347410D01*
X61486970Y-139299882D01*
X61536850Y-139250955D01*
X61605263Y-139236762D01*
X61670489Y-139261809D01*
X61697960Y-139290918D01*
X61799144Y-139440623D01*
X61959913Y-139608367D01*
X62146735Y-139746540D01*
X62354209Y-139851146D01*
X62576383Y-139919186D01*
X62614999Y-139924131D01*
X62614999Y-138876494D01*
X62719839Y-138924373D01*
X62828527Y-138940000D01*
X62901473Y-138940000D01*
X63010161Y-138924373D01*
X63115000Y-138876494D01*
X63115000Y-139922459D01*
X63266150Y-139889884D01*
X63481747Y-139803251D01*
X63679610Y-139681422D01*
X63854034Y-139527909D01*
X64000002Y-139347132D01*
X64113324Y-139144277D01*
X64190732Y-138925191D01*
X64230000Y-138696181D01*
X64230000Y-138680000D01*
X63310572Y-138680000D01*
X63333682Y-138644040D01*
X63375000Y-138503327D01*
X63375000Y-138356673D01*
X63333682Y-138215960D01*
X63310572Y-138180000D01*
X64226424Y-138180000D01*
X64215230Y-138048481D01*
X64156681Y-137823618D01*
X64060973Y-137611890D01*
X63930855Y-137419376D01*
X63770086Y-137251632D01*
X63583264Y-137113459D01*
X63375789Y-137008852D01*
X63153613Y-136940811D01*
X63115000Y-136935866D01*
X63115000Y-137983505D01*
X63010161Y-137935627D01*
X62901473Y-137920000D01*
X62828527Y-137920000D01*
X62719839Y-137935627D01*
X62614999Y-137983505D01*
X62615000Y-136937539D01*
X62614999Y-136937539D01*
X62463850Y-136970114D01*
X62248252Y-137056748D01*
X62050389Y-137178577D01*
X61875965Y-137332090D01*
X61729997Y-137512867D01*
X61703614Y-137560095D01*
X61653734Y-137609020D01*
X61585320Y-137623212D01*
X61520095Y-137598164D01*
X61492626Y-137569056D01*
X61391249Y-137419064D01*
X61230412Y-137251250D01*
X61043530Y-137113033D01*
X60835978Y-137008388D01*
X60835977Y-137008387D01*
X60835976Y-137008387D01*
X60613723Y-136940322D01*
X60383163Y-136910798D01*
X60383159Y-136910798D01*
X60150932Y-136920662D01*
X59923702Y-136969634D01*
X59708022Y-137056301D01*
X59510095Y-137178170D01*
X59333399Y-137333682D01*
X59270069Y-137363196D01*
X59200836Y-137353786D01*
X59147681Y-137308440D01*
X59135294Y-137283931D01*
X59123105Y-137251251D01*
X59093796Y-137172669D01*
X59007546Y-137057454D01*
X58892331Y-136971204D01*
X58757483Y-136920909D01*
X58697873Y-136914500D01*
X58694550Y-136914500D01*
X56875439Y-136914500D01*
X56875420Y-136914500D01*
X56872128Y-136914501D01*
X56868848Y-136914853D01*
X56868840Y-136914854D01*
X56812515Y-136920909D01*
X56677669Y-136971204D01*
X56562454Y-137057454D01*
X56476204Y-137172668D01*
X56425909Y-137307516D01*
X56419923Y-137363196D01*
X56419500Y-137367127D01*
X56419500Y-137370448D01*
X56419500Y-137370449D01*
X56419500Y-139489560D01*
X56419500Y-139489578D01*
X49579926Y-139489578D01*
X49610196Y-139350428D01*
X49630610Y-139065000D01*
X49610196Y-138779572D01*
X49550103Y-138503327D01*
X49549370Y-138499958D01*
X49549168Y-138499416D01*
X49449367Y-138231839D01*
X49359375Y-138067032D01*
X49312227Y-137980686D01*
X49194647Y-137823618D01*
X49140739Y-137751605D01*
X48938395Y-137549261D01*
X48769085Y-137422517D01*
X48709313Y-137377772D01*
X48458163Y-137240634D01*
X48458162Y-137240633D01*
X48458161Y-137240633D01*
X48190046Y-137140631D01*
X48190041Y-137140629D01*
X47910429Y-137079804D01*
X47698658Y-137064658D01*
X47698656Y-137064657D01*
X47696448Y-137064500D01*
X47553552Y-137064500D01*
X47551344Y-137064657D01*
X47551341Y-137064658D01*
X47339570Y-137079804D01*
X47059958Y-137140629D01*
X46791836Y-137240634D01*
X46540686Y-137377772D01*
X46311602Y-137549263D01*
X46109263Y-137751602D01*
X45937772Y-137980686D01*
X45800634Y-138231836D01*
X45700629Y-138499958D01*
X45639804Y-138779570D01*
X45619389Y-139065000D01*
X40894000Y-139065000D01*
X40894000Y-126179840D01*
X46232798Y-126179840D01*
X46242662Y-126412067D01*
X46291634Y-126639297D01*
X46378301Y-126854977D01*
X46500170Y-127052904D01*
X46653742Y-127227397D01*
X46834586Y-127373418D01*
X46882118Y-127399971D01*
X46931045Y-127449851D01*
X46945237Y-127518264D01*
X46920189Y-127583490D01*
X46891081Y-127610960D01*
X46741376Y-127712143D01*
X46573632Y-127872913D01*
X46435459Y-128059735D01*
X46330853Y-128267209D01*
X46262813Y-128489383D01*
X46257869Y-128528000D01*
X47306428Y-128528000D01*
X47283318Y-128563960D01*
X47242000Y-128704673D01*
X47242000Y-128851327D01*
X47283318Y-128992040D01*
X47306428Y-129028000D01*
X46259539Y-129028000D01*
X46292114Y-129179149D01*
X46378748Y-129394747D01*
X46500577Y-129592610D01*
X46654090Y-129767034D01*
X46834867Y-129913002D01*
X47037722Y-130026324D01*
X47256808Y-130103732D01*
X47485819Y-130143000D01*
X47502000Y-130143000D01*
X47502000Y-129224494D01*
X47606839Y-129272373D01*
X47715527Y-129288000D01*
X47788473Y-129288000D01*
X47897161Y-129272373D01*
X48002000Y-129224494D01*
X48002000Y-130139423D01*
X48133517Y-130128230D01*
X48358381Y-130069681D01*
X48570109Y-129973973D01*
X48762623Y-129843855D01*
X48930367Y-129683086D01*
X49068540Y-129496264D01*
X49173146Y-129288790D01*
X49241186Y-129066616D01*
X49246131Y-129028000D01*
X48197572Y-129028000D01*
X48220682Y-128992040D01*
X48262000Y-128851327D01*
X48262000Y-128704673D01*
X48220682Y-128563960D01*
X48197572Y-128528000D01*
X49244461Y-128528000D01*
X49244460Y-128527999D01*
X49211885Y-128376850D01*
X49125251Y-128161252D01*
X49003422Y-127963389D01*
X48849909Y-127788965D01*
X48669130Y-127642995D01*
X48621905Y-127616614D01*
X48572979Y-127566734D01*
X48558787Y-127498321D01*
X48583835Y-127433096D01*
X48612940Y-127405627D01*
X48762936Y-127304249D01*
X48930749Y-127143413D01*
X49068967Y-126956530D01*
X49173613Y-126748976D01*
X49241678Y-126526723D01*
X49271202Y-126296163D01*
X49263573Y-126116578D01*
X63668500Y-126116578D01*
X63668501Y-126119872D01*
X63668853Y-126123152D01*
X63668854Y-126123159D01*
X63674909Y-126179484D01*
X63700056Y-126246906D01*
X63725204Y-126314331D01*
X63811454Y-126429546D01*
X63926669Y-126515796D01*
X64061517Y-126566091D01*
X64121127Y-126572500D01*
X65916872Y-126572499D01*
X65976483Y-126566091D01*
X66111331Y-126515796D01*
X66226546Y-126429546D01*
X66312796Y-126314331D01*
X66361810Y-126182916D01*
X66403681Y-126126983D01*
X66469146Y-126102566D01*
X66537419Y-126117418D01*
X66565672Y-126138568D01*
X66687599Y-126260495D01*
X66881170Y-126396035D01*
X67095337Y-126495903D01*
X67323592Y-126557063D01*
X67559000Y-126577659D01*
X67794408Y-126557063D01*
X68022663Y-126495903D01*
X68236830Y-126396035D01*
X68430401Y-126260495D01*
X68597495Y-126093401D01*
X68733035Y-125899830D01*
X68832903Y-125685663D01*
X68894063Y-125457408D01*
X68914659Y-125222000D01*
X68894063Y-124986592D01*
X68832903Y-124758337D01*
X68733035Y-124544171D01*
X68597495Y-124350599D01*
X68430401Y-124183505D01*
X68236830Y-124047965D01*
X68022663Y-123948097D01*
X67961502Y-123931709D01*
X67794407Y-123886936D01*
X67559000Y-123866340D01*
X67323592Y-123886936D01*
X67095336Y-123948097D01*
X66881170Y-124047965D01*
X66687601Y-124183503D01*
X66565673Y-124305431D01*
X66504350Y-124338915D01*
X66434658Y-124333931D01*
X66378725Y-124292059D01*
X66361810Y-124261082D01*
X66349301Y-124227545D01*
X66312796Y-124129669D01*
X66226546Y-124014454D01*
X66111331Y-123928204D01*
X65976483Y-123877909D01*
X65916873Y-123871500D01*
X65913550Y-123871500D01*
X64124439Y-123871500D01*
X64124420Y-123871500D01*
X64121128Y-123871501D01*
X64117848Y-123871853D01*
X64117840Y-123871854D01*
X64061515Y-123877909D01*
X63926669Y-123928204D01*
X63811454Y-124014454D01*
X63725204Y-124129668D01*
X63677744Y-124256917D01*
X63674909Y-124264517D01*
X63668500Y-124324127D01*
X63668500Y-124327448D01*
X63668500Y-124327449D01*
X63668500Y-126116560D01*
X63668500Y-126116578D01*
X49263573Y-126116578D01*
X49261337Y-126063930D01*
X49212366Y-125836705D01*
X49125699Y-125621024D01*
X49088433Y-125560500D01*
X49003829Y-125423095D01*
X48869600Y-125270581D01*
X48850259Y-125248605D01*
X48850257Y-125248604D01*
X48848318Y-125246400D01*
X48818803Y-125183070D01*
X48828212Y-125113837D01*
X48873559Y-125060681D01*
X48898065Y-125048295D01*
X49009331Y-125006796D01*
X49124546Y-124920546D01*
X49210796Y-124805331D01*
X49261091Y-124670483D01*
X49267500Y-124610873D01*
X49267499Y-122785128D01*
X49261091Y-122725517D01*
X49210796Y-122590669D01*
X49124546Y-122475454D01*
X49009331Y-122389204D01*
X48874483Y-122338909D01*
X48814873Y-122332500D01*
X48811550Y-122332500D01*
X46692439Y-122332500D01*
X46692420Y-122332500D01*
X46689128Y-122332501D01*
X46685848Y-122332853D01*
X46685840Y-122332854D01*
X46629515Y-122338909D01*
X46494669Y-122389204D01*
X46379454Y-122475454D01*
X46293204Y-122590668D01*
X46242910Y-122725515D01*
X46242909Y-122725517D01*
X46236500Y-122785127D01*
X46236500Y-122788448D01*
X46236500Y-122788449D01*
X46236500Y-124607560D01*
X46236500Y-124607578D01*
X46236501Y-124610872D01*
X46236853Y-124614152D01*
X46236854Y-124614159D01*
X46242909Y-124670484D01*
X46268056Y-124737907D01*
X46293204Y-124805331D01*
X46379454Y-124920546D01*
X46494669Y-125006796D01*
X46605931Y-125048294D01*
X46610862Y-125050133D01*
X46666795Y-125092005D01*
X46691212Y-125157469D01*
X46676360Y-125225742D01*
X46653329Y-125255837D01*
X46573251Y-125332586D01*
X46435033Y-125519469D01*
X46330388Y-125727021D01*
X46330387Y-125727023D01*
X46330387Y-125727024D01*
X46262322Y-125949277D01*
X46232844Y-126179484D01*
X46232798Y-126179840D01*
X40894000Y-126179840D01*
X40894000Y-113030000D01*
X44364842Y-113030000D01*
X44385430Y-113265318D01*
X44446569Y-113493492D01*
X44546400Y-113707580D01*
X44605073Y-113791373D01*
X45236923Y-113159523D01*
X45260507Y-113239844D01*
X45338239Y-113360798D01*
X45446900Y-113454952D01*
X45577685Y-113514680D01*
X45587466Y-113516086D01*
X44958625Y-114144925D01*
X45042420Y-114203599D01*
X45256507Y-114303430D01*
X45484681Y-114364569D01*
X45720000Y-114385157D01*
X45955318Y-114364569D01*
X46183492Y-114303430D01*
X46397576Y-114203600D01*
X46481373Y-114144925D01*
X45852533Y-113516086D01*
X45862315Y-113514680D01*
X45993100Y-113454952D01*
X46101761Y-113360798D01*
X46179493Y-113239844D01*
X46203076Y-113159524D01*
X46834925Y-113791373D01*
X46888119Y-113715405D01*
X46942696Y-113671780D01*
X47012194Y-113664586D01*
X47074549Y-113696109D01*
X47091265Y-113715400D01*
X47221505Y-113901401D01*
X47388599Y-114068495D01*
X47582170Y-114204035D01*
X47796337Y-114303903D01*
X48013082Y-114361979D01*
X48024592Y-114365063D01*
X48259999Y-114385659D01*
X48259999Y-114385658D01*
X48260000Y-114385659D01*
X48495408Y-114365063D01*
X48723663Y-114303903D01*
X48937830Y-114204035D01*
X49131401Y-114068495D01*
X49298495Y-113901401D01*
X49434035Y-113707830D01*
X49533903Y-113493663D01*
X49595063Y-113265408D01*
X49615659Y-113030000D01*
X49595063Y-112794592D01*
X49533903Y-112566337D01*
X49434035Y-112352171D01*
X49298495Y-112158599D01*
X49131401Y-111991505D01*
X48945839Y-111861573D01*
X48902216Y-111806998D01*
X48895022Y-111737500D01*
X48926545Y-111675145D01*
X48945837Y-111658428D01*
X49131401Y-111528495D01*
X49231582Y-111428313D01*
X49292906Y-111394828D01*
X49362598Y-111399812D01*
X49406945Y-111428313D01*
X50521181Y-112542549D01*
X50554666Y-112603872D01*
X50557500Y-112630230D01*
X50557500Y-114236294D01*
X50556191Y-114254264D01*
X50552711Y-114278023D01*
X50557028Y-114327368D01*
X50557500Y-114338175D01*
X50557500Y-114343709D01*
X50557916Y-114347272D01*
X50557917Y-114347282D01*
X50561098Y-114374496D01*
X50561464Y-114378082D01*
X50568109Y-114454041D01*
X50572329Y-114473071D01*
X50572758Y-114474251D01*
X50572759Y-114474255D01*
X50598413Y-114544742D01*
X50599582Y-114548107D01*
X50623580Y-114620524D01*
X50632075Y-114638072D01*
X50673979Y-114701784D01*
X50675889Y-114704782D01*
X50715288Y-114768656D01*
X50715952Y-114769732D01*
X50728253Y-114784830D01*
X50729168Y-114785693D01*
X50729170Y-114785696D01*
X50767333Y-114821701D01*
X50783709Y-114837151D01*
X50786296Y-114839664D01*
X52110370Y-116163738D01*
X53262179Y-117315546D01*
X53295664Y-117376869D01*
X53290680Y-117446561D01*
X53248808Y-117502494D01*
X53197283Y-117525115D01*
X53134596Y-117536834D01*
X53037543Y-117554976D01*
X52847361Y-117628652D01*
X52673958Y-117736018D01*
X52523236Y-117873419D01*
X52400324Y-118036181D01*
X52309418Y-118218748D01*
X52253602Y-118414916D01*
X52234785Y-118618000D01*
X52253602Y-118821083D01*
X52309418Y-119017251D01*
X52400324Y-119199818D01*
X52439454Y-119251633D01*
X52464146Y-119316994D01*
X52464500Y-119326360D01*
X52464500Y-123751639D01*
X52444815Y-123818678D01*
X52439454Y-123826365D01*
X52400326Y-123878178D01*
X52309418Y-124060748D01*
X52253602Y-124256916D01*
X52234785Y-124460000D01*
X52253602Y-124663083D01*
X52309418Y-124859251D01*
X52400324Y-125041818D01*
X52523236Y-125204580D01*
X52673958Y-125341981D01*
X52847361Y-125449347D01*
X52847363Y-125449348D01*
X53037544Y-125523024D01*
X53238024Y-125560500D01*
X53238026Y-125560500D01*
X53441974Y-125560500D01*
X53441976Y-125560500D01*
X53642456Y-125523024D01*
X53832637Y-125449348D01*
X54006041Y-125341981D01*
X54100537Y-125255837D01*
X54156763Y-125204580D01*
X54173665Y-125182198D01*
X54279673Y-125041821D01*
X54279673Y-125041819D01*
X54279675Y-125041818D01*
X54340061Y-124920545D01*
X54370582Y-124859250D01*
X54426397Y-124663083D01*
X54445215Y-124460000D01*
X54426397Y-124256917D01*
X54370582Y-124060750D01*
X54364215Y-124047964D01*
X54279673Y-123878178D01*
X54240546Y-123826365D01*
X54215854Y-123761004D01*
X54215500Y-123751639D01*
X54215500Y-119326360D01*
X54235185Y-119259321D01*
X54240546Y-119251633D01*
X54244814Y-119245981D01*
X54279673Y-119199821D01*
X54279673Y-119199819D01*
X54279675Y-119199818D01*
X54325313Y-119108161D01*
X54370582Y-119017250D01*
X54426397Y-118821083D01*
X54430970Y-118771729D01*
X54456755Y-118706792D01*
X54513556Y-118666104D01*
X54583336Y-118662584D01*
X54642122Y-118695489D01*
X56574267Y-120627634D01*
X56586048Y-120641266D01*
X56600390Y-120660530D01*
X56627997Y-120683695D01*
X56638339Y-120692373D01*
X56646314Y-120699681D01*
X56650224Y-120703591D01*
X56672026Y-120720830D01*
X56674541Y-120722818D01*
X56677304Y-120725069D01*
X56734786Y-120773302D01*
X56734788Y-120773303D01*
X56735750Y-120774110D01*
X56752180Y-120784578D01*
X56753322Y-120785110D01*
X56753323Y-120785111D01*
X56821350Y-120816832D01*
X56824527Y-120818371D01*
X56890667Y-120851588D01*
X56892702Y-120852610D01*
X56911085Y-120858999D01*
X56912322Y-120859254D01*
X56912328Y-120859257D01*
X56985852Y-120874437D01*
X56989286Y-120875199D01*
X57017510Y-120881889D01*
X57063506Y-120892791D01*
X57082879Y-120894770D01*
X57084141Y-120894733D01*
X57084145Y-120894734D01*
X57156534Y-120892627D01*
X57159132Y-120892552D01*
X57162738Y-120892500D01*
X114236294Y-120892500D01*
X114254264Y-120893809D01*
X114258320Y-120894402D01*
X114278023Y-120897289D01*
X114327368Y-120892972D01*
X114338176Y-120892500D01*
X114340100Y-120892500D01*
X114343709Y-120892500D01*
X114374550Y-120888894D01*
X114378031Y-120888539D01*
X114452797Y-120881999D01*
X114452797Y-120881998D01*
X114454052Y-120881889D01*
X114473062Y-120877674D01*
X114474250Y-120877241D01*
X114474255Y-120877241D01*
X114544820Y-120851557D01*
X114548095Y-120850419D01*
X114619334Y-120826814D01*
X114619336Y-120826812D01*
X114620536Y-120826415D01*
X114638063Y-120817929D01*
X114639112Y-120817238D01*
X114639117Y-120817237D01*
X114701806Y-120776005D01*
X114704798Y-120774099D01*
X114768656Y-120734712D01*
X114768656Y-120734711D01*
X114769729Y-120734050D01*
X114784824Y-120721753D01*
X114785692Y-120720832D01*
X114785696Y-120720830D01*
X114837184Y-120666254D01*
X114839629Y-120663737D01*
X115361366Y-120142000D01*
X117820531Y-120142000D01*
X117840364Y-120368689D01*
X117899261Y-120588497D01*
X117995432Y-120794735D01*
X118125953Y-120981140D01*
X118286859Y-121142046D01*
X118473264Y-121272567D01*
X118473265Y-121272567D01*
X118473266Y-121272568D01*
X118679504Y-121368739D01*
X118899308Y-121427635D01*
X119126000Y-121447468D01*
X119352692Y-121427635D01*
X119572496Y-121368739D01*
X119778734Y-121272568D01*
X119965139Y-121142047D01*
X120126047Y-120981139D01*
X120256568Y-120794734D01*
X120283893Y-120736134D01*
X120330065Y-120683695D01*
X120397258Y-120664543D01*
X120464139Y-120684758D01*
X120508657Y-120736133D01*
X120535866Y-120794482D01*
X120666341Y-120980819D01*
X120827180Y-121141658D01*
X121013519Y-121272134D01*
X121219673Y-121368266D01*
X121415999Y-121420871D01*
X121416000Y-121420871D01*
X121416000Y-120457685D01*
X121427955Y-120469641D01*
X121540852Y-120527165D01*
X121634519Y-120542000D01*
X121697481Y-120542000D01*
X121791148Y-120527165D01*
X121904045Y-120469641D01*
X121915999Y-120457687D01*
X121915999Y-121420871D01*
X122112326Y-121368266D01*
X122318480Y-121272134D01*
X122504819Y-121141658D01*
X122665658Y-120980819D01*
X122796134Y-120794480D01*
X122892266Y-120588326D01*
X122944872Y-120392000D01*
X121981686Y-120392000D01*
X121993641Y-120380045D01*
X122051165Y-120267148D01*
X122070986Y-120142000D01*
X122051165Y-120016852D01*
X121993641Y-119903955D01*
X121981686Y-119892000D01*
X122944872Y-119892000D01*
X122944871Y-119891999D01*
X122892266Y-119695673D01*
X122796134Y-119489519D01*
X122665658Y-119303180D01*
X122504819Y-119142341D01*
X122318480Y-119011865D01*
X122112326Y-118915733D01*
X121915999Y-118863127D01*
X121915999Y-119826312D01*
X121904045Y-119814359D01*
X121791148Y-119756835D01*
X121697481Y-119742000D01*
X121634519Y-119742000D01*
X121540852Y-119756835D01*
X121427955Y-119814359D01*
X121416000Y-119826314D01*
X121416000Y-118863127D01*
X121415999Y-118863126D01*
X121219673Y-118915733D01*
X121013519Y-119011865D01*
X120827180Y-119142341D01*
X120666341Y-119303180D01*
X120535863Y-119489522D01*
X120508656Y-119547866D01*
X120462483Y-119600305D01*
X120395290Y-119619456D01*
X120328409Y-119599239D01*
X120283893Y-119547865D01*
X120256567Y-119489264D01*
X120126046Y-119302859D01*
X119965140Y-119141953D01*
X119778735Y-119011432D01*
X119572497Y-118915261D01*
X119352689Y-118856364D01*
X119126000Y-118836531D01*
X118899310Y-118856364D01*
X118679502Y-118915261D01*
X118473264Y-119011432D01*
X118286859Y-119141953D01*
X118125953Y-119302859D01*
X117995432Y-119489264D01*
X117899261Y-119695502D01*
X117840364Y-119915310D01*
X117820531Y-120142000D01*
X115361366Y-120142000D01*
X116002548Y-119500819D01*
X116063872Y-119467334D01*
X116090230Y-119464500D01*
X116179974Y-119464500D01*
X116179976Y-119464500D01*
X116380456Y-119427024D01*
X116570637Y-119353348D01*
X116744041Y-119245981D01*
X116894764Y-119108579D01*
X117017673Y-118945821D01*
X117017673Y-118945819D01*
X117017675Y-118945818D01*
X117104359Y-118771730D01*
X117108582Y-118763250D01*
X117164397Y-118567083D01*
X117183215Y-118364000D01*
X117164397Y-118160917D01*
X117162772Y-118155207D01*
X117128906Y-118036181D01*
X117108582Y-117964750D01*
X117053956Y-117855045D01*
X117017675Y-117782181D01*
X116956730Y-117701477D01*
X116938038Y-117676725D01*
X116913347Y-117611366D01*
X116927912Y-117543031D01*
X116938036Y-117527276D01*
X117017673Y-117421821D01*
X117017673Y-117421819D01*
X117017675Y-117421818D01*
X117079785Y-117297083D01*
X117108582Y-117239250D01*
X117164397Y-117043083D01*
X117183215Y-116840000D01*
X117164397Y-116636917D01*
X117153432Y-116598381D01*
X117131740Y-116522140D01*
X117108582Y-116440750D01*
X117079785Y-116382917D01*
X117017675Y-116258181D01*
X116894763Y-116095419D01*
X116744041Y-115958018D01*
X116570638Y-115850652D01*
X116380457Y-115776976D01*
X116313629Y-115764483D01*
X116179976Y-115739500D01*
X116179974Y-115739500D01*
X116090230Y-115739500D01*
X116023191Y-115719815D01*
X116002549Y-115703181D01*
X115561549Y-115262181D01*
X115528064Y-115200858D01*
X115533048Y-115131166D01*
X115574920Y-115075233D01*
X115640384Y-115050816D01*
X115649230Y-115050500D01*
X132524294Y-115050500D01*
X132542264Y-115051809D01*
X132546320Y-115052402D01*
X132566023Y-115055289D01*
X132615368Y-115050972D01*
X132626176Y-115050500D01*
X132628100Y-115050500D01*
X132631709Y-115050500D01*
X132662550Y-115046894D01*
X132666031Y-115046539D01*
X132740797Y-115039999D01*
X132740797Y-115039998D01*
X132742052Y-115039889D01*
X132761062Y-115035674D01*
X132762250Y-115035241D01*
X132762255Y-115035241D01*
X132832820Y-115009557D01*
X132836095Y-115008419D01*
X132907334Y-114984814D01*
X132907336Y-114984812D01*
X132908536Y-114984415D01*
X132926063Y-114975929D01*
X132927112Y-114975238D01*
X132927117Y-114975237D01*
X132989806Y-114934005D01*
X132992798Y-114932099D01*
X133056656Y-114892712D01*
X133056656Y-114892711D01*
X133057729Y-114892050D01*
X133072824Y-114879753D01*
X133073692Y-114878832D01*
X133073696Y-114878830D01*
X133125185Y-114824253D01*
X133127631Y-114821735D01*
X133278821Y-114670545D01*
X133340142Y-114637062D01*
X133409834Y-114642046D01*
X133465767Y-114683918D01*
X133490184Y-114749382D01*
X133490500Y-114758228D01*
X133490500Y-130649993D01*
X133470815Y-130717032D01*
X133454181Y-130737674D01*
X132261675Y-131930181D01*
X132200352Y-131963666D01*
X132173994Y-131966500D01*
X124663789Y-131966500D01*
X124598512Y-131947927D01*
X124444637Y-131852652D01*
X124444635Y-131852651D01*
X124254457Y-131778976D01*
X124187629Y-131766484D01*
X124053976Y-131741500D01*
X123850024Y-131741500D01*
X123749783Y-131760238D01*
X123649542Y-131778976D01*
X123459361Y-131852652D01*
X123285958Y-131960018D01*
X123135236Y-132097419D01*
X123012324Y-132260181D01*
X122921418Y-132442748D01*
X122865602Y-132638916D01*
X122846785Y-132841999D01*
X122865602Y-133045083D01*
X122921418Y-133241251D01*
X123012324Y-133423818D01*
X123135236Y-133586580D01*
X123285958Y-133723981D01*
X123459361Y-133831347D01*
X123459363Y-133831348D01*
X123605274Y-133887873D01*
X123660675Y-133930446D01*
X123684266Y-133996212D01*
X123668555Y-134064293D01*
X123618531Y-134113072D01*
X123560480Y-134127500D01*
X121313500Y-134127500D01*
X121307221Y-134127341D01*
X121300819Y-134127016D01*
X121234064Y-134123631D01*
X121234063Y-134123631D01*
X121234061Y-134123631D01*
X121161676Y-134134719D01*
X121155448Y-134135513D01*
X121082561Y-134142926D01*
X121067189Y-134147749D01*
X121048856Y-134152003D01*
X121032930Y-134154443D01*
X120964246Y-134179880D01*
X120958305Y-134181911D01*
X120888408Y-134203842D01*
X120874322Y-134211660D01*
X120857220Y-134219518D01*
X120842113Y-134225113D01*
X120779957Y-134263854D01*
X120774547Y-134267039D01*
X120710499Y-134302589D01*
X120698283Y-134313077D01*
X120683110Y-134324220D01*
X120669429Y-134332748D01*
X120669427Y-134332749D01*
X120669428Y-134332749D01*
X120616337Y-134383214D01*
X120611680Y-134387422D01*
X120556102Y-134435136D01*
X120546244Y-134447871D01*
X120533631Y-134461833D01*
X120521948Y-134472939D01*
X120480112Y-134533046D01*
X120476395Y-134538107D01*
X120431550Y-134596042D01*
X120424452Y-134610513D01*
X120414907Y-134626729D01*
X120405706Y-134639949D01*
X120376819Y-134707261D01*
X120374197Y-134712966D01*
X120341938Y-134778731D01*
X120337901Y-134794322D01*
X120331814Y-134812131D01*
X120325460Y-134826937D01*
X120310716Y-134898687D01*
X120309296Y-134904806D01*
X120290936Y-134975714D01*
X120290120Y-134991808D01*
X120287742Y-135010475D01*
X120284499Y-135026255D01*
X120284500Y-135099499D01*
X120284341Y-135105779D01*
X120280631Y-135178937D01*
X120283070Y-135194861D01*
X120284499Y-135213632D01*
X120284499Y-136634242D01*
X120264814Y-136701281D01*
X120248185Y-136721919D01*
X120246505Y-136723598D01*
X120116575Y-136909159D01*
X120061998Y-136952784D01*
X119992500Y-136959978D01*
X119930145Y-136928455D01*
X119913425Y-136909159D01*
X119783494Y-136723598D01*
X119616404Y-136556508D01*
X119616403Y-136556508D01*
X119616401Y-136556505D01*
X119422830Y-136420965D01*
X119208663Y-136321097D01*
X119147501Y-136304709D01*
X118980407Y-136259936D01*
X118744999Y-136239340D01*
X118509592Y-136259936D01*
X118281333Y-136321097D01*
X118116340Y-136398035D01*
X118047263Y-136408527D01*
X117983479Y-136380007D01*
X117976255Y-136373334D01*
X114066819Y-132463898D01*
X114033334Y-132402575D01*
X114030500Y-132376217D01*
X114030500Y-131078237D01*
X114030540Y-131075095D01*
X114032756Y-130987639D01*
X114032755Y-130987638D01*
X114032756Y-130987636D01*
X114022345Y-130929554D01*
X114021042Y-130920263D01*
X114015074Y-130861562D01*
X114005964Y-130832528D01*
X114002223Y-130817286D01*
X113996857Y-130787343D01*
X113974976Y-130732565D01*
X113971816Y-130723689D01*
X113964809Y-130701356D01*
X113954159Y-130667412D01*
X113939395Y-130640812D01*
X113932660Y-130626631D01*
X113921377Y-130598383D01*
X113888917Y-130549131D01*
X113884036Y-130541074D01*
X113855409Y-130489498D01*
X113835582Y-130466403D01*
X113826146Y-130453888D01*
X113809402Y-130428481D01*
X113809400Y-130428479D01*
X113809399Y-130428477D01*
X113767693Y-130386772D01*
X113761287Y-130379860D01*
X113722864Y-130335102D01*
X113698804Y-130316478D01*
X113687026Y-130306105D01*
X112565284Y-129184363D01*
X112544797Y-129149494D01*
X112541704Y-129151035D01*
X112445675Y-128958181D01*
X112322763Y-128795419D01*
X112172041Y-128658018D01*
X112088962Y-128606578D01*
X117825500Y-128606578D01*
X117825501Y-128609872D01*
X117825853Y-128613152D01*
X117825854Y-128613159D01*
X117831909Y-128669483D01*
X117882204Y-128804331D01*
X117968454Y-128919546D01*
X118083669Y-129005796D01*
X118218517Y-129056091D01*
X118278127Y-129062500D01*
X119973872Y-129062499D01*
X120033483Y-129056091D01*
X120168331Y-129005796D01*
X120283546Y-128919546D01*
X120369796Y-128804331D01*
X120420091Y-128669483D01*
X120423943Y-128633646D01*
X120450681Y-128569098D01*
X120508073Y-128529249D01*
X120577898Y-128526754D01*
X120637987Y-128562406D01*
X120648808Y-128575780D01*
X120666338Y-128600816D01*
X120827180Y-128761658D01*
X121013519Y-128892134D01*
X121219673Y-128988266D01*
X121415999Y-129040871D01*
X121416000Y-129040871D01*
X121416000Y-128077686D01*
X121427955Y-128089641D01*
X121540852Y-128147165D01*
X121634519Y-128162000D01*
X121697481Y-128162000D01*
X121791148Y-128147165D01*
X121904045Y-128089641D01*
X121915999Y-128077687D01*
X121915999Y-129040871D01*
X122112326Y-128988266D01*
X122318480Y-128892134D01*
X122504819Y-128761658D01*
X122665658Y-128600819D01*
X122796134Y-128414480D01*
X122892266Y-128208326D01*
X122944872Y-128012000D01*
X121981686Y-128012000D01*
X121993641Y-128000045D01*
X122051165Y-127887148D01*
X122070986Y-127762000D01*
X122051165Y-127636852D01*
X121993641Y-127523955D01*
X121981686Y-127512000D01*
X122944872Y-127512000D01*
X122944871Y-127511999D01*
X122892266Y-127315673D01*
X122796134Y-127109519D01*
X122665658Y-126923180D01*
X122504819Y-126762341D01*
X122318480Y-126631865D01*
X122112326Y-126535733D01*
X121915999Y-126483127D01*
X121915999Y-127446313D01*
X121904045Y-127434359D01*
X121791148Y-127376835D01*
X121697481Y-127362000D01*
X121634519Y-127362000D01*
X121540852Y-127376835D01*
X121427955Y-127434359D01*
X121416000Y-127446314D01*
X121416000Y-126483127D01*
X121415999Y-126483126D01*
X121219673Y-126535733D01*
X121013519Y-126631865D01*
X120827180Y-126762341D01*
X120666340Y-126923181D01*
X120648805Y-126948223D01*
X120594226Y-126991846D01*
X120524728Y-126999037D01*
X120462374Y-126967512D01*
X120426962Y-126907281D01*
X120423943Y-126890358D01*
X120420091Y-126854517D01*
X120369796Y-126719669D01*
X120283546Y-126604454D01*
X120168331Y-126518204D01*
X120033483Y-126467909D01*
X119973873Y-126461500D01*
X119970550Y-126461500D01*
X118281439Y-126461500D01*
X118281420Y-126461500D01*
X118278128Y-126461501D01*
X118274848Y-126461853D01*
X118274840Y-126461854D01*
X118218515Y-126467909D01*
X118083669Y-126518204D01*
X117968454Y-126604454D01*
X117882204Y-126719668D01*
X117831909Y-126854516D01*
X117828057Y-126890348D01*
X117825500Y-126914127D01*
X117825500Y-126917448D01*
X117825500Y-126917449D01*
X117825500Y-128606560D01*
X117825500Y-128606578D01*
X112088962Y-128606578D01*
X111998638Y-128550652D01*
X111808457Y-128476976D01*
X111741629Y-128464483D01*
X111607976Y-128439500D01*
X111404024Y-128439500D01*
X111303783Y-128458238D01*
X111203542Y-128476976D01*
X111013361Y-128550652D01*
X110839958Y-128658018D01*
X110689236Y-128795419D01*
X110566324Y-128958181D01*
X110475418Y-129140748D01*
X110419602Y-129336916D01*
X110400785Y-129540000D01*
X110419602Y-129743083D01*
X110475418Y-129939251D01*
X110566324Y-130121818D01*
X110689236Y-130284580D01*
X110839958Y-130421981D01*
X111013359Y-130529346D01*
X111013361Y-130529346D01*
X111013363Y-130529348D01*
X111098448Y-130562309D01*
X111141334Y-130590254D01*
X111993182Y-131442103D01*
X112026666Y-131503424D01*
X112029500Y-131529782D01*
X112029500Y-132827721D01*
X112029460Y-132830863D01*
X112027242Y-132918362D01*
X112037648Y-132976420D01*
X112038957Y-132985749D01*
X112044926Y-133044438D01*
X112054033Y-133073467D01*
X112057772Y-133088702D01*
X112063141Y-133118652D01*
X112085020Y-133173425D01*
X112088180Y-133182300D01*
X112105841Y-133238588D01*
X112120607Y-133265191D01*
X112127337Y-133279364D01*
X112138622Y-133307617D01*
X112171080Y-133356867D01*
X112175961Y-133364923D01*
X112204590Y-133416501D01*
X112224404Y-133439581D01*
X112233856Y-133452116D01*
X112250599Y-133477520D01*
X112292300Y-133519221D01*
X112298705Y-133526132D01*
X112337134Y-133570896D01*
X112361193Y-133589519D01*
X112372972Y-133599893D01*
X117065431Y-138292351D01*
X117067624Y-138294600D01*
X117127942Y-138358054D01*
X117176362Y-138391755D01*
X117183871Y-138397416D01*
X117229593Y-138434698D01*
X117256562Y-138448785D01*
X117269982Y-138456916D01*
X117294949Y-138474294D01*
X117349163Y-138497559D01*
X117357663Y-138501595D01*
X117409951Y-138528909D01*
X117439196Y-138537277D01*
X117453986Y-138542543D01*
X117461464Y-138545752D01*
X117481942Y-138554540D01*
X117539737Y-138566416D01*
X117548854Y-138568654D01*
X117605582Y-138584887D01*
X117635916Y-138587196D01*
X117651453Y-138589374D01*
X117681259Y-138595500D01*
X117740241Y-138595500D01*
X117749655Y-138595857D01*
X117760030Y-138596647D01*
X117797285Y-138599485D01*
X117862636Y-138624203D01*
X117875550Y-138635446D01*
X117881270Y-138641166D01*
X117878681Y-138643754D01*
X117910140Y-138683102D01*
X117917340Y-138752600D01*
X117885824Y-138814958D01*
X117834402Y-138847817D01*
X117825879Y-138850641D01*
X117676654Y-138942683D01*
X117552683Y-139066654D01*
X117460642Y-139215877D01*
X117405493Y-139382303D01*
X117395319Y-139481890D01*
X117395000Y-139488168D01*
X117395000Y-139885000D01*
X118311314Y-139885000D01*
X118285507Y-139925156D01*
X118245000Y-140063111D01*
X118245000Y-140206889D01*
X118285507Y-140344844D01*
X118311314Y-140385000D01*
X117395001Y-140385000D01*
X117395001Y-140781829D01*
X117395321Y-140788111D01*
X117405493Y-140887695D01*
X117460642Y-141054122D01*
X117552683Y-141203345D01*
X117676654Y-141327316D01*
X117825877Y-141419357D01*
X117992303Y-141474506D01*
X118091890Y-141484680D01*
X118098168Y-141484999D01*
X118494999Y-141484999D01*
X118495000Y-141484998D01*
X118495000Y-140570501D01*
X118602685Y-140619680D01*
X118709237Y-140635000D01*
X118780763Y-140635000D01*
X118887315Y-140619680D01*
X118995000Y-140570501D01*
X118995000Y-141484999D01*
X119391829Y-141484999D01*
X119398111Y-141484678D01*
X119497695Y-141474506D01*
X119664122Y-141419357D01*
X119813345Y-141327316D01*
X119937316Y-141203345D01*
X120029357Y-141054122D01*
X120053282Y-140981923D01*
X120093055Y-140924478D01*
X120157570Y-140897655D01*
X120168911Y-140897535D01*
X120801922Y-140264523D01*
X120825507Y-140344844D01*
X120903239Y-140465798D01*
X121011900Y-140559952D01*
X121142685Y-140619680D01*
X121152466Y-140621086D01*
X120523625Y-141249925D01*
X120607420Y-141308599D01*
X120821507Y-141408430D01*
X121049681Y-141469569D01*
X121284999Y-141490157D01*
X121520318Y-141469569D01*
X121748492Y-141408430D01*
X121962576Y-141308600D01*
X122046373Y-141249925D01*
X121417533Y-140621086D01*
X121427315Y-140619680D01*
X121558100Y-140559952D01*
X121666761Y-140465798D01*
X121744493Y-140344844D01*
X121768076Y-140264524D01*
X122399925Y-140896373D01*
X122453424Y-140819969D01*
X122508001Y-140776344D01*
X122577499Y-140769150D01*
X122639854Y-140800673D01*
X122656574Y-140819969D01*
X122710072Y-140896373D01*
X122710073Y-140896373D01*
X123341923Y-140264523D01*
X123365507Y-140344844D01*
X123443239Y-140465798D01*
X123551900Y-140559952D01*
X123682685Y-140619680D01*
X123692466Y-140621086D01*
X123063625Y-141249925D01*
X123147420Y-141308599D01*
X123361507Y-141408430D01*
X123589681Y-141469569D01*
X123825000Y-141490157D01*
X124060318Y-141469569D01*
X124288492Y-141408430D01*
X124502576Y-141308600D01*
X124586373Y-141249925D01*
X123957533Y-140621086D01*
X123967315Y-140619680D01*
X124098100Y-140559952D01*
X124206761Y-140465798D01*
X124284493Y-140344844D01*
X124308076Y-140264524D01*
X124939925Y-140896373D01*
X124993424Y-140819969D01*
X125048001Y-140776344D01*
X125117499Y-140769150D01*
X125179854Y-140800673D01*
X125196574Y-140819969D01*
X125250072Y-140896373D01*
X125250073Y-140896373D01*
X125881923Y-140264523D01*
X125905507Y-140344844D01*
X125983239Y-140465798D01*
X126091900Y-140559952D01*
X126222685Y-140619680D01*
X126232466Y-140621086D01*
X125603625Y-141249925D01*
X125687420Y-141308599D01*
X125901507Y-141408430D01*
X126129681Y-141469569D01*
X126365000Y-141490157D01*
X126600318Y-141469569D01*
X126828492Y-141408430D01*
X127042576Y-141308600D01*
X127126373Y-141249925D01*
X126497533Y-140621086D01*
X126507315Y-140619680D01*
X126638100Y-140559952D01*
X126746761Y-140465798D01*
X126824493Y-140344844D01*
X126848076Y-140264525D01*
X127479925Y-140896373D01*
X127533424Y-140819969D01*
X127588001Y-140776344D01*
X127657499Y-140769150D01*
X127719854Y-140800673D01*
X127736574Y-140819969D01*
X127790072Y-140896373D01*
X127790073Y-140896373D01*
X128421923Y-140264523D01*
X128445507Y-140344844D01*
X128523239Y-140465798D01*
X128631900Y-140559952D01*
X128762685Y-140619680D01*
X128772466Y-140621086D01*
X128143625Y-141249925D01*
X128227420Y-141308599D01*
X128441507Y-141408430D01*
X128669681Y-141469569D01*
X128905000Y-141490157D01*
X129140318Y-141469569D01*
X129368492Y-141408430D01*
X129582576Y-141308600D01*
X129666373Y-141249925D01*
X129037533Y-140621086D01*
X129047315Y-140619680D01*
X129178100Y-140559952D01*
X129286761Y-140465798D01*
X129364493Y-140344844D01*
X129388076Y-140264524D01*
X130019925Y-140896373D01*
X130078600Y-140812576D01*
X130178430Y-140598492D01*
X130239569Y-140370318D01*
X130260157Y-140135000D01*
X130239569Y-139899681D01*
X130178430Y-139671507D01*
X130078599Y-139457421D01*
X130019926Y-139373626D01*
X130019925Y-139373625D01*
X129388076Y-140005475D01*
X129364493Y-139925156D01*
X129286761Y-139804202D01*
X129178100Y-139710048D01*
X129047315Y-139650320D01*
X129037533Y-139648913D01*
X129621446Y-139065000D01*
X156744389Y-139065000D01*
X156764804Y-139350429D01*
X156825629Y-139630041D01*
X156825631Y-139630046D01*
X156908271Y-139851613D01*
X156925634Y-139898163D01*
X157062772Y-140149313D01*
X157080028Y-140172364D01*
X157234261Y-140378395D01*
X157436605Y-140580739D01*
X157510961Y-140636401D01*
X157665686Y-140752227D01*
X157805435Y-140828535D01*
X157916839Y-140889367D01*
X158184954Y-140989369D01*
X158184957Y-140989369D01*
X158184958Y-140989370D01*
X158237217Y-141000738D01*
X158464572Y-141050196D01*
X158678552Y-141065500D01*
X158680767Y-141065500D01*
X158819233Y-141065500D01*
X158821448Y-141065500D01*
X159035428Y-141050196D01*
X159315046Y-140989369D01*
X159583161Y-140889367D01*
X159834315Y-140752226D01*
X160063395Y-140580739D01*
X160265739Y-140378395D01*
X160437226Y-140149315D01*
X160574367Y-139898161D01*
X160674369Y-139630046D01*
X160735196Y-139350428D01*
X160755610Y-139065000D01*
X160735196Y-138779572D01*
X160675103Y-138503327D01*
X160674370Y-138499958D01*
X160674168Y-138499416D01*
X160574367Y-138231839D01*
X160484375Y-138067032D01*
X160437227Y-137980686D01*
X160319647Y-137823618D01*
X160265739Y-137751605D01*
X160063395Y-137549261D01*
X159894085Y-137422517D01*
X159834313Y-137377772D01*
X159583163Y-137240634D01*
X159583162Y-137240633D01*
X159583161Y-137240633D01*
X159315046Y-137140631D01*
X159315041Y-137140629D01*
X159035429Y-137079804D01*
X158823658Y-137064658D01*
X158823656Y-137064657D01*
X158821448Y-137064500D01*
X158678552Y-137064500D01*
X158676344Y-137064657D01*
X158676341Y-137064658D01*
X158464570Y-137079804D01*
X158184958Y-137140629D01*
X157916836Y-137240634D01*
X157665686Y-137377772D01*
X157436602Y-137549263D01*
X157234263Y-137751602D01*
X157062772Y-137980686D01*
X156925634Y-138231836D01*
X156825629Y-138499958D01*
X156764804Y-138779570D01*
X156744389Y-139065000D01*
X129621446Y-139065000D01*
X129666373Y-139020073D01*
X129666373Y-139020072D01*
X129590405Y-138966880D01*
X129546780Y-138912304D01*
X129539586Y-138842805D01*
X129571108Y-138780451D01*
X129590399Y-138763734D01*
X129776401Y-138633495D01*
X129943495Y-138466401D01*
X130079035Y-138272830D01*
X130178903Y-138058663D01*
X130240063Y-137830408D01*
X130260659Y-137595000D01*
X130259569Y-137582547D01*
X130240063Y-137359592D01*
X130238507Y-137353786D01*
X130178903Y-137131337D01*
X130079035Y-136917171D01*
X129943495Y-136723599D01*
X129776401Y-136556505D01*
X129582830Y-136420965D01*
X129462557Y-136364881D01*
X129410120Y-136318710D01*
X129390968Y-136251516D01*
X129411184Y-136184635D01*
X129464349Y-136139301D01*
X129514964Y-136128500D01*
X133589721Y-136128500D01*
X133592862Y-136128539D01*
X133680363Y-136130757D01*
X133738432Y-136120348D01*
X133747736Y-136119043D01*
X133806438Y-136113074D01*
X133835467Y-136103965D01*
X133850700Y-136100226D01*
X133880653Y-136094858D01*
X133935426Y-136072978D01*
X133944301Y-136069819D01*
X133961675Y-136064367D01*
X134000588Y-136052159D01*
X134027194Y-136037390D01*
X134041362Y-136030662D01*
X134069617Y-136019377D01*
X134118879Y-135986909D01*
X134126910Y-135982043D01*
X134178502Y-135953409D01*
X134201587Y-135933589D01*
X134214114Y-135924144D01*
X134239519Y-135907402D01*
X134281251Y-135865668D01*
X134288123Y-135859300D01*
X134332895Y-135820866D01*
X134351524Y-135796798D01*
X134361883Y-135785036D01*
X137185273Y-132961645D01*
X137187443Y-132959529D01*
X137250937Y-132899175D01*
X137284643Y-132850746D01*
X137290312Y-132843229D01*
X137327582Y-132797523D01*
X137341667Y-132770555D01*
X137349802Y-132757131D01*
X137356257Y-132747856D01*
X137367179Y-132732165D01*
X137390452Y-132677931D01*
X137394482Y-132669447D01*
X137421792Y-132617167D01*
X137421793Y-132617165D01*
X137430162Y-132587913D01*
X137435418Y-132573148D01*
X137447424Y-132545174D01*
X137459302Y-132487372D01*
X137461535Y-132478272D01*
X137477771Y-132421534D01*
X137480081Y-132391193D01*
X137482260Y-132375651D01*
X137488384Y-132345857D01*
X137488384Y-132286872D01*
X137488742Y-132277458D01*
X137493221Y-132218640D01*
X137489377Y-132188455D01*
X137488384Y-132172792D01*
X137488384Y-128070000D01*
X152365033Y-128070000D01*
X152384858Y-128296602D01*
X152443733Y-128516326D01*
X152539866Y-128722484D01*
X152590972Y-128795471D01*
X152590974Y-128795472D01*
X153272046Y-128114399D01*
X153284835Y-128195148D01*
X153342359Y-128308045D01*
X153431955Y-128397641D01*
X153544852Y-128455165D01*
X153625599Y-128467953D01*
X152944526Y-129149025D01*
X152944526Y-129149026D01*
X153017515Y-129200133D01*
X153223673Y-129296266D01*
X153443397Y-129355141D01*
X153670000Y-129374966D01*
X153896602Y-129355141D01*
X154116326Y-129296266D01*
X154322480Y-129200134D01*
X154395472Y-129149025D01*
X153714401Y-128467953D01*
X153795148Y-128455165D01*
X153908045Y-128397641D01*
X153997641Y-128308045D01*
X154055165Y-128195148D01*
X154067953Y-128114400D01*
X154749025Y-128795472D01*
X154800134Y-128722480D01*
X154896266Y-128516326D01*
X154955141Y-128296602D01*
X154974966Y-128069999D01*
X154955141Y-127843397D01*
X154896266Y-127623673D01*
X154800133Y-127417515D01*
X154749025Y-127344526D01*
X154067953Y-128025598D01*
X154055165Y-127944852D01*
X153997641Y-127831955D01*
X153908045Y-127742359D01*
X153795148Y-127684835D01*
X153714400Y-127672046D01*
X154395472Y-126990974D01*
X154395471Y-126990972D01*
X154322484Y-126939866D01*
X154116326Y-126843733D01*
X153896602Y-126784858D01*
X153669999Y-126765033D01*
X153443397Y-126784858D01*
X153223672Y-126843733D01*
X153017516Y-126939865D01*
X152944527Y-126990973D01*
X152944526Y-126990973D01*
X153625600Y-127672046D01*
X153544852Y-127684835D01*
X153431955Y-127742359D01*
X153342359Y-127831955D01*
X153284835Y-127944852D01*
X153272046Y-128025599D01*
X152590973Y-127344526D01*
X152590973Y-127344527D01*
X152539865Y-127417516D01*
X152443733Y-127623672D01*
X152384858Y-127843397D01*
X152365033Y-128070000D01*
X137488384Y-128070000D01*
X137488384Y-125404041D01*
X137508069Y-125337002D01*
X137560873Y-125291247D01*
X137612384Y-125280041D01*
X148248180Y-125280041D01*
X148251321Y-125280080D01*
X148338822Y-125282298D01*
X148396891Y-125271889D01*
X148406195Y-125270584D01*
X148464897Y-125264615D01*
X148493926Y-125255506D01*
X148509159Y-125251767D01*
X148539112Y-125246399D01*
X148593885Y-125224519D01*
X148602760Y-125221360D01*
X148620134Y-125215908D01*
X148659047Y-125203700D01*
X148685653Y-125188931D01*
X148699821Y-125182203D01*
X148728076Y-125170918D01*
X148777338Y-125138450D01*
X148785369Y-125133584D01*
X148836961Y-125104950D01*
X148860046Y-125085130D01*
X148872573Y-125075685D01*
X148897978Y-125058943D01*
X148939710Y-125017209D01*
X148946582Y-125010841D01*
X148991354Y-124972407D01*
X149009983Y-124948339D01*
X149020342Y-124936577D01*
X150042340Y-123914578D01*
X152369500Y-123914578D01*
X152369501Y-123917872D01*
X152369853Y-123921152D01*
X152369854Y-123921159D01*
X152372750Y-123948097D01*
X152375909Y-123977483D01*
X152426204Y-124112331D01*
X152512454Y-124227546D01*
X152627669Y-124313796D01*
X152762517Y-124364091D01*
X152822127Y-124370500D01*
X154517872Y-124370499D01*
X154577483Y-124364091D01*
X154712331Y-124313796D01*
X154827546Y-124227546D01*
X154913796Y-124112331D01*
X154964091Y-123977483D01*
X154970500Y-123917873D01*
X154970499Y-122222128D01*
X154964091Y-122162517D01*
X154913796Y-122027669D01*
X154827546Y-121912454D01*
X154712331Y-121826204D01*
X154577483Y-121775909D01*
X154517873Y-121769500D01*
X154514550Y-121769500D01*
X152825439Y-121769500D01*
X152825420Y-121769500D01*
X152822128Y-121769501D01*
X152818848Y-121769853D01*
X152818840Y-121769854D01*
X152762515Y-121775909D01*
X152627669Y-121826204D01*
X152512454Y-121912454D01*
X152426204Y-122027668D01*
X152375910Y-122162515D01*
X152375909Y-122162517D01*
X152369500Y-122222127D01*
X152369500Y-122225448D01*
X152369500Y-122225449D01*
X152369500Y-123914560D01*
X152369500Y-123914578D01*
X150042340Y-123914578D01*
X150557390Y-123399528D01*
X150559560Y-123397412D01*
X150623053Y-123337059D01*
X150656759Y-123288630D01*
X150662428Y-123281113D01*
X150664118Y-123279041D01*
X150699698Y-123235407D01*
X150713783Y-123208439D01*
X150721918Y-123195015D01*
X150733036Y-123179041D01*
X150739295Y-123170049D01*
X150762568Y-123115815D01*
X150766588Y-123107350D01*
X150793909Y-123055049D01*
X150802275Y-123025808D01*
X150807539Y-123011019D01*
X150819540Y-122983058D01*
X150831417Y-122925256D01*
X150833652Y-122916148D01*
X150849886Y-122859418D01*
X150852196Y-122829078D01*
X150854376Y-122813540D01*
X150860500Y-122783742D01*
X150860500Y-122724754D01*
X150860858Y-122715339D01*
X150865337Y-122656524D01*
X150861493Y-122626339D01*
X150860500Y-122610676D01*
X150860500Y-122154826D01*
X150873501Y-122099553D01*
X150890582Y-122065250D01*
X150946397Y-121869083D01*
X150950370Y-121826204D01*
X150965215Y-121666000D01*
X150946397Y-121462917D01*
X150942002Y-121447468D01*
X150890582Y-121266749D01*
X150873499Y-121232441D01*
X150860500Y-121177171D01*
X150860500Y-109654999D01*
X152365033Y-109654999D01*
X152384858Y-109881602D01*
X152443733Y-110101326D01*
X152539866Y-110307484D01*
X152590972Y-110380471D01*
X152590974Y-110380472D01*
X153272046Y-109699399D01*
X153284835Y-109780148D01*
X153342359Y-109893045D01*
X153431955Y-109982641D01*
X153544852Y-110040165D01*
X153625599Y-110052953D01*
X152944526Y-110734025D01*
X152944526Y-110734026D01*
X153017515Y-110785133D01*
X153223673Y-110881266D01*
X153443397Y-110940141D01*
X153669999Y-110959966D01*
X153896602Y-110940141D01*
X154116326Y-110881266D01*
X154322480Y-110785134D01*
X154395472Y-110734025D01*
X153714401Y-110052953D01*
X153795148Y-110040165D01*
X153908045Y-109982641D01*
X153997641Y-109893045D01*
X154055165Y-109780148D01*
X154067953Y-109699400D01*
X154749025Y-110380472D01*
X154800134Y-110307480D01*
X154896266Y-110101326D01*
X154955141Y-109881602D01*
X154974966Y-109655000D01*
X154955141Y-109428397D01*
X154896266Y-109208673D01*
X154800133Y-109002515D01*
X154749025Y-108929526D01*
X154067953Y-109610598D01*
X154055165Y-109529852D01*
X153997641Y-109416955D01*
X153908045Y-109327359D01*
X153795148Y-109269835D01*
X153714400Y-109257046D01*
X154395472Y-108575974D01*
X154395471Y-108575972D01*
X154322484Y-108524866D01*
X154116326Y-108428733D01*
X153896602Y-108369858D01*
X153669999Y-108350033D01*
X153443397Y-108369858D01*
X153223672Y-108428733D01*
X153017516Y-108524865D01*
X152944527Y-108575973D01*
X152944526Y-108575973D01*
X153625600Y-109257046D01*
X153544852Y-109269835D01*
X153431955Y-109327359D01*
X153342359Y-109416955D01*
X153284835Y-109529852D01*
X153272046Y-109610599D01*
X152590973Y-108929526D01*
X152590973Y-108929527D01*
X152539865Y-109002516D01*
X152443733Y-109208672D01*
X152384858Y-109428397D01*
X152365033Y-109654999D01*
X150860500Y-109654999D01*
X150860500Y-106948277D01*
X150860540Y-106945135D01*
X150862757Y-106857638D01*
X150862117Y-106854070D01*
X150852349Y-106799573D01*
X150851041Y-106790242D01*
X150850160Y-106781575D01*
X150845074Y-106731562D01*
X150835962Y-106702520D01*
X150832226Y-106687297D01*
X150826858Y-106657347D01*
X150804976Y-106602566D01*
X150801816Y-106593689D01*
X150784159Y-106537412D01*
X150769395Y-106510812D01*
X150762660Y-106496631D01*
X150751377Y-106468383D01*
X150718917Y-106419131D01*
X150714036Y-106411074D01*
X150703048Y-106391277D01*
X150685409Y-106359498D01*
X150665582Y-106336403D01*
X150656146Y-106323888D01*
X150639402Y-106298481D01*
X150639400Y-106298479D01*
X150639399Y-106298477D01*
X150597693Y-106256772D01*
X150591287Y-106249860D01*
X150552864Y-106205102D01*
X150528804Y-106186478D01*
X150517026Y-106176105D01*
X146956919Y-102615999D01*
X149516785Y-102615999D01*
X149535602Y-102819083D01*
X149591418Y-103015251D01*
X149682324Y-103197818D01*
X149805236Y-103360580D01*
X149955958Y-103497981D01*
X150129361Y-103605347D01*
X150129363Y-103605348D01*
X150319544Y-103679024D01*
X150520024Y-103716500D01*
X150520026Y-103716500D01*
X150723974Y-103716500D01*
X150723976Y-103716500D01*
X150924456Y-103679024D01*
X151114637Y-103605348D01*
X151288041Y-103497981D01*
X151288619Y-103497454D01*
X151396769Y-103398863D01*
X151459573Y-103368246D01*
X151480307Y-103366500D01*
X152362764Y-103366500D01*
X152429803Y-103386185D01*
X152475558Y-103438989D01*
X152485502Y-103508147D01*
X152462031Y-103564811D01*
X152426204Y-103612668D01*
X152375910Y-103747515D01*
X152375909Y-103747517D01*
X152369500Y-103807127D01*
X152369500Y-103810448D01*
X152369500Y-103810449D01*
X152369500Y-105499560D01*
X152369500Y-105499578D01*
X152369501Y-105502872D01*
X152375909Y-105562483D01*
X152426204Y-105697331D01*
X152512454Y-105812546D01*
X152627669Y-105898796D01*
X152762517Y-105949091D01*
X152822127Y-105955500D01*
X154517872Y-105955499D01*
X154577483Y-105949091D01*
X154712331Y-105898796D01*
X154827546Y-105812546D01*
X154913796Y-105697331D01*
X154964091Y-105562483D01*
X154970500Y-105502873D01*
X154970499Y-103807128D01*
X154964091Y-103747517D01*
X154913796Y-103612669D01*
X154877968Y-103564809D01*
X154853552Y-103499346D01*
X154868404Y-103431073D01*
X154917809Y-103381668D01*
X154977236Y-103366500D01*
X155351693Y-103366500D01*
X155418732Y-103386185D01*
X155435231Y-103398863D01*
X155543958Y-103497981D01*
X155717361Y-103605347D01*
X155717363Y-103605348D01*
X155907544Y-103679024D01*
X156108024Y-103716500D01*
X156108026Y-103716500D01*
X156311974Y-103716500D01*
X156311976Y-103716500D01*
X156512456Y-103679024D01*
X156702637Y-103605348D01*
X156876041Y-103497981D01*
X156998676Y-103386185D01*
X157026763Y-103360580D01*
X157149675Y-103197818D01*
X157218467Y-103059663D01*
X157240582Y-103015250D01*
X157296397Y-102819083D01*
X157315215Y-102616000D01*
X157296397Y-102412917D01*
X157240582Y-102216750D01*
X157220855Y-102177132D01*
X157149675Y-102034181D01*
X157026763Y-101871419D01*
X156876041Y-101734018D01*
X156702638Y-101626652D01*
X156512457Y-101552976D01*
X156415950Y-101534936D01*
X156311976Y-101515500D01*
X156108024Y-101515500D01*
X156007783Y-101534238D01*
X155907542Y-101552976D01*
X155717361Y-101626652D01*
X155543958Y-101734018D01*
X155435231Y-101833137D01*
X155372427Y-101863754D01*
X155351693Y-101865500D01*
X151480307Y-101865500D01*
X151413268Y-101845815D01*
X151396769Y-101833137D01*
X151288041Y-101734018D01*
X151114638Y-101626652D01*
X150924457Y-101552976D01*
X150827950Y-101534936D01*
X150723976Y-101515500D01*
X150520024Y-101515500D01*
X150419783Y-101534238D01*
X150319542Y-101552976D01*
X150129361Y-101626652D01*
X149955958Y-101734018D01*
X149805236Y-101871419D01*
X149682324Y-102034181D01*
X149591418Y-102216748D01*
X149535602Y-102412916D01*
X149516785Y-102615999D01*
X146956919Y-102615999D01*
X146513567Y-102172647D01*
X146511412Y-102170438D01*
X146451059Y-102106947D01*
X146402640Y-102073246D01*
X146395118Y-102067575D01*
X146349405Y-102030300D01*
X146322440Y-102016215D01*
X146309019Y-102008084D01*
X146284049Y-101990705D01*
X146284048Y-101990704D01*
X146284046Y-101990703D01*
X146229845Y-101967443D01*
X146221336Y-101963402D01*
X146169053Y-101936092D01*
X146163126Y-101934396D01*
X146139798Y-101927721D01*
X146125020Y-101922459D01*
X146097058Y-101910460D01*
X146039272Y-101898583D01*
X146030128Y-101896338D01*
X145973421Y-101880113D01*
X145943075Y-101877802D01*
X145927534Y-101875622D01*
X145897742Y-101869500D01*
X145897741Y-101869500D01*
X145838758Y-101869500D01*
X145829344Y-101869142D01*
X145820198Y-101868445D01*
X145770524Y-101864663D01*
X145770523Y-101864663D01*
X145770522Y-101864663D01*
X145740349Y-101868506D01*
X145724683Y-101869500D01*
X136412238Y-101869500D01*
X136409096Y-101869460D01*
X136321635Y-101867243D01*
X136263581Y-101877648D01*
X136254253Y-101878957D01*
X136195561Y-101884926D01*
X136166527Y-101894035D01*
X136151288Y-101897775D01*
X136121345Y-101903142D01*
X136066568Y-101925021D01*
X136057698Y-101928179D01*
X136001410Y-101945841D01*
X135974809Y-101960605D01*
X135960639Y-101967335D01*
X135932385Y-101978622D01*
X135883121Y-102011087D01*
X135875070Y-102015964D01*
X135823498Y-102044590D01*
X135800414Y-102064407D01*
X135787887Y-102073853D01*
X135762481Y-102090598D01*
X135720776Y-102132302D01*
X135713869Y-102138702D01*
X135669105Y-102177132D01*
X135650480Y-102201193D01*
X135640108Y-102212969D01*
X135525333Y-102327744D01*
X135482449Y-102355688D01*
X135447767Y-102369125D01*
X135402970Y-102377500D01*
X121137030Y-102377500D01*
X121092237Y-102369127D01*
X120952457Y-102314976D01*
X120885629Y-102302484D01*
X120751976Y-102277500D01*
X120548024Y-102277500D01*
X120447783Y-102296238D01*
X120347542Y-102314976D01*
X120157361Y-102388652D01*
X119983958Y-102496018D01*
X119833236Y-102633419D01*
X119710324Y-102796181D01*
X119619418Y-102978748D01*
X119563602Y-103174916D01*
X119544785Y-103378000D01*
X119563602Y-103581083D01*
X119619418Y-103777251D01*
X119710324Y-103959818D01*
X119833236Y-104122580D01*
X119983958Y-104259981D01*
X120157361Y-104367347D01*
X120157363Y-104367348D01*
X120347544Y-104441024D01*
X120548024Y-104478500D01*
X120548026Y-104478500D01*
X120751974Y-104478500D01*
X120751976Y-104478500D01*
X120952456Y-104441024D01*
X121092236Y-104386873D01*
X121137030Y-104378500D01*
X135402970Y-104378500D01*
X135447763Y-104386873D01*
X135587544Y-104441024D01*
X135788024Y-104478500D01*
X135788026Y-104478500D01*
X135991974Y-104478500D01*
X135991976Y-104478500D01*
X136192456Y-104441024D01*
X136382637Y-104367348D01*
X136556041Y-104259981D01*
X136706764Y-104122579D01*
X136829673Y-103959821D01*
X136839925Y-103939230D01*
X136887429Y-103887992D01*
X136950927Y-103870500D01*
X140132769Y-103870500D01*
X140199808Y-103890185D01*
X140245563Y-103942989D01*
X140255507Y-104012147D01*
X140226482Y-104075703D01*
X140220450Y-104082181D01*
X132059451Y-112243181D01*
X131998128Y-112276666D01*
X131971770Y-112279500D01*
X112860005Y-112279500D01*
X112792966Y-112259815D01*
X112747211Y-112207011D01*
X112737267Y-112137853D01*
X112766292Y-112074297D01*
X112785958Y-112056036D01*
X112786068Y-112055953D01*
X112786530Y-112055610D01*
X112818366Y-112017667D01*
X112825680Y-112009688D01*
X112826264Y-112009103D01*
X112829591Y-112005777D01*
X112848833Y-111981439D01*
X112851090Y-111978670D01*
X112865853Y-111961075D01*
X112899302Y-111921214D01*
X112899303Y-111921211D01*
X112900115Y-111920244D01*
X112910573Y-111903827D01*
X112911106Y-111902682D01*
X112911111Y-111902677D01*
X112942833Y-111834646D01*
X112944362Y-111831488D01*
X112978040Y-111764433D01*
X112978040Y-111764432D01*
X112978612Y-111763294D01*
X112985000Y-111744914D01*
X112985255Y-111743675D01*
X112985257Y-111743673D01*
X113000447Y-111670103D01*
X113001186Y-111666770D01*
X113018500Y-111593721D01*
X113018500Y-111593716D01*
X113018791Y-111592489D01*
X113020770Y-111573121D01*
X113020733Y-111571859D01*
X113020734Y-111571856D01*
X113018552Y-111496868D01*
X113018500Y-111493262D01*
X113018500Y-102216229D01*
X113038185Y-102149190D01*
X113054819Y-102128548D01*
X113989037Y-101194330D01*
X115163456Y-100019910D01*
X115224777Y-99986427D01*
X115294469Y-99991411D01*
X115350402Y-100033282D01*
X115428315Y-100137361D01*
X115428454Y-100137546D01*
X115543669Y-100223796D01*
X115678517Y-100274091D01*
X115738127Y-100280500D01*
X117433872Y-100280499D01*
X117493483Y-100274091D01*
X117628331Y-100223796D01*
X117743546Y-100137546D01*
X117829796Y-100022331D01*
X117880091Y-99887483D01*
X117886500Y-99827873D01*
X117886500Y-99767229D01*
X128239500Y-99767229D01*
X128239501Y-99770523D01*
X128239853Y-99773803D01*
X128239854Y-99773810D01*
X128245909Y-99830135D01*
X128271056Y-99897558D01*
X128296204Y-99964982D01*
X128382454Y-100080197D01*
X128497669Y-100166447D01*
X128632517Y-100216742D01*
X128692127Y-100223151D01*
X130387872Y-100223150D01*
X130447483Y-100216742D01*
X130582331Y-100166447D01*
X130697546Y-100080197D01*
X130783796Y-99964982D01*
X130834091Y-99830134D01*
X130840500Y-99770524D01*
X130840499Y-98860000D01*
X152444837Y-98860000D01*
X152463450Y-99072744D01*
X152518724Y-99279031D01*
X152608979Y-99472582D01*
X152731471Y-99647520D01*
X152882479Y-99798528D01*
X153057417Y-99921020D01*
X153057418Y-99921020D01*
X153057419Y-99921021D01*
X153250970Y-100011276D01*
X153457253Y-100066549D01*
X153599084Y-100078957D01*
X153669999Y-100085162D01*
X153669999Y-100085161D01*
X153670000Y-100085162D01*
X153882747Y-100066549D01*
X154089030Y-100011276D01*
X154282581Y-99921021D01*
X154457519Y-99798529D01*
X154608529Y-99647519D01*
X154731021Y-99472581D01*
X154821276Y-99279030D01*
X154876549Y-99072747D01*
X154895162Y-98860000D01*
X154876549Y-98647253D01*
X154821276Y-98440970D01*
X154731021Y-98247419D01*
X154729159Y-98244759D01*
X154608528Y-98072479D01*
X154457520Y-97921471D01*
X154282582Y-97798979D01*
X154079198Y-97704139D01*
X154080195Y-97701999D01*
X154033294Y-97673413D01*
X154002762Y-97610567D01*
X154011055Y-97541191D01*
X154055539Y-97487312D01*
X154079446Y-97476393D01*
X154079198Y-97475861D01*
X154140121Y-97447451D01*
X154282581Y-97381021D01*
X154457519Y-97258529D01*
X154608529Y-97107519D01*
X154731021Y-96932581D01*
X154821276Y-96739030D01*
X154876549Y-96532747D01*
X154895162Y-96320000D01*
X154876549Y-96107253D01*
X154821276Y-95900970D01*
X154731021Y-95707419D01*
X154688703Y-95646981D01*
X154608528Y-95532479D01*
X154457520Y-95381471D01*
X154282582Y-95258979D01*
X154079198Y-95164139D01*
X154080195Y-95161999D01*
X154033294Y-95133413D01*
X154002762Y-95070567D01*
X154011055Y-95001191D01*
X154055539Y-94947312D01*
X154079446Y-94936393D01*
X154079198Y-94935861D01*
X154140121Y-94907451D01*
X154282581Y-94841021D01*
X154457519Y-94718529D01*
X154608529Y-94567519D01*
X154731021Y-94392581D01*
X154821276Y-94199030D01*
X154876549Y-93992747D01*
X154895162Y-93780000D01*
X154876549Y-93567253D01*
X154821276Y-93360970D01*
X154731021Y-93167419D01*
X154621513Y-93011023D01*
X154608528Y-92992479D01*
X154457520Y-92841471D01*
X154282582Y-92718979D01*
X154089031Y-92628724D01*
X153882744Y-92573450D01*
X153669999Y-92554837D01*
X153457255Y-92573450D01*
X153250968Y-92628724D01*
X153057417Y-92718979D01*
X152882479Y-92841471D01*
X152731471Y-92992479D01*
X152608979Y-93167417D01*
X152518724Y-93360968D01*
X152463450Y-93567255D01*
X152444837Y-93780000D01*
X152463450Y-93992744D01*
X152518724Y-94199031D01*
X152608979Y-94392582D01*
X152731471Y-94567520D01*
X152882479Y-94718528D01*
X153057417Y-94841020D01*
X153260802Y-94935861D01*
X153259804Y-94938000D01*
X153306709Y-94966591D01*
X153337237Y-95029438D01*
X153328942Y-95098814D01*
X153284456Y-95152691D01*
X153260554Y-95163607D01*
X153260802Y-95164139D01*
X153057417Y-95258979D01*
X152882479Y-95381471D01*
X152731471Y-95532479D01*
X152608979Y-95707417D01*
X152518724Y-95900968D01*
X152463450Y-96107255D01*
X152444837Y-96320000D01*
X152463450Y-96532744D01*
X152518724Y-96739031D01*
X152608979Y-96932582D01*
X152731471Y-97107520D01*
X152882479Y-97258528D01*
X153057417Y-97381020D01*
X153260802Y-97475861D01*
X153259804Y-97478000D01*
X153306709Y-97506591D01*
X153337237Y-97569438D01*
X153328942Y-97638814D01*
X153284456Y-97692691D01*
X153260554Y-97703607D01*
X153260802Y-97704139D01*
X153057417Y-97798979D01*
X152882479Y-97921471D01*
X152731471Y-98072479D01*
X152608979Y-98247417D01*
X152518724Y-98440968D01*
X152463450Y-98647255D01*
X152444837Y-98860000D01*
X130840499Y-98860000D01*
X130840499Y-98074779D01*
X130834091Y-98015168D01*
X130783796Y-97880320D01*
X130697546Y-97765105D01*
X130582331Y-97678855D01*
X130447483Y-97628560D01*
X130387873Y-97622151D01*
X130384550Y-97622151D01*
X128695439Y-97622151D01*
X128695420Y-97622151D01*
X128692128Y-97622152D01*
X128688848Y-97622504D01*
X128688840Y-97622505D01*
X128632515Y-97628560D01*
X128497669Y-97678855D01*
X128382454Y-97765105D01*
X128296204Y-97880319D01*
X128245910Y-98015166D01*
X128245909Y-98015168D01*
X128239500Y-98074778D01*
X128239500Y-98078099D01*
X128239500Y-98078100D01*
X128239500Y-99767211D01*
X128239500Y-99767229D01*
X117886500Y-99767229D01*
X117886499Y-98132128D01*
X117880091Y-98072517D01*
X117829796Y-97937669D01*
X117743546Y-97822454D01*
X117628331Y-97736204D01*
X117493483Y-97685909D01*
X117433873Y-97679500D01*
X117430550Y-97679500D01*
X115741439Y-97679500D01*
X115741420Y-97679500D01*
X115738128Y-97679501D01*
X115734848Y-97679853D01*
X115734840Y-97679854D01*
X115678515Y-97685909D01*
X115543669Y-97736204D01*
X115428454Y-97822454D01*
X115342204Y-97937668D01*
X115291909Y-98072516D01*
X115287506Y-98113471D01*
X115260767Y-98178022D01*
X115203375Y-98217870D01*
X115175024Y-98223744D01*
X115121159Y-98228456D01*
X115114630Y-98229028D01*
X115103824Y-98229500D01*
X115098291Y-98229500D01*
X115094730Y-98229916D01*
X115094715Y-98229917D01*
X115067501Y-98233098D01*
X115063916Y-98233464D01*
X114987961Y-98240109D01*
X114968921Y-98244330D01*
X114897232Y-98270421D01*
X114893831Y-98271603D01*
X114821474Y-98295580D01*
X114803927Y-98304075D01*
X114740221Y-98345975D01*
X114737181Y-98347912D01*
X114672280Y-98387944D01*
X114657164Y-98400257D01*
X114604831Y-98455726D01*
X114602319Y-98458312D01*
X111782358Y-101278272D01*
X111768727Y-101290053D01*
X111749468Y-101304391D01*
X111717635Y-101342328D01*
X111710338Y-101350292D01*
X111708972Y-101351657D01*
X111708950Y-101351681D01*
X111706409Y-101354223D01*
X111704173Y-101357050D01*
X111704171Y-101357053D01*
X111687176Y-101378546D01*
X111684902Y-101381337D01*
X111635894Y-101439744D01*
X111625418Y-101456187D01*
X111593192Y-101525294D01*
X111591622Y-101528536D01*
X111557393Y-101596692D01*
X111550996Y-101615098D01*
X111535573Y-101689788D01*
X111534793Y-101693305D01*
X111517208Y-101767506D01*
X111515229Y-101786879D01*
X111517448Y-101863129D01*
X111517500Y-101866735D01*
X111517500Y-110083707D01*
X111497815Y-110150746D01*
X111445011Y-110196501D01*
X111375853Y-110206445D01*
X111312297Y-110177420D01*
X111274523Y-110118642D01*
X111274234Y-110117642D01*
X111266581Y-110090748D01*
X111175675Y-109908181D01*
X111052763Y-109745419D01*
X110902041Y-109608018D01*
X110728638Y-109500652D01*
X110538457Y-109426976D01*
X110471629Y-109414484D01*
X110337976Y-109389500D01*
X110134024Y-109389500D01*
X110033784Y-109408238D01*
X109933542Y-109426976D01*
X109743361Y-109500652D01*
X109569958Y-109608018D01*
X109461231Y-109707137D01*
X109398427Y-109737754D01*
X109377693Y-109739500D01*
X96616307Y-109739500D01*
X96549268Y-109719815D01*
X96532769Y-109707137D01*
X96424041Y-109608018D01*
X96250638Y-109500652D01*
X96060457Y-109426976D01*
X95993629Y-109414484D01*
X95859976Y-109389500D01*
X95656024Y-109389500D01*
X95555783Y-109408238D01*
X95455542Y-109426976D01*
X95265361Y-109500652D01*
X95091958Y-109608018D01*
X94941236Y-109745419D01*
X94818324Y-109908181D01*
X94727418Y-110090748D01*
X94671602Y-110286916D01*
X94665703Y-110350584D01*
X94639917Y-110415522D01*
X94583116Y-110456209D01*
X94513335Y-110459729D01*
X94458694Y-110430781D01*
X94430962Y-110405500D01*
X94392041Y-110370019D01*
X94369369Y-110355981D01*
X94218638Y-110262652D01*
X94028457Y-110188976D01*
X93961629Y-110176483D01*
X93827976Y-110151500D01*
X93624024Y-110151500D01*
X93523783Y-110170238D01*
X93423542Y-110188976D01*
X93233361Y-110262652D01*
X93059958Y-110370018D01*
X92909236Y-110507419D01*
X92786324Y-110670181D01*
X92695418Y-110852748D01*
X92639602Y-111048916D01*
X92620785Y-111251999D01*
X92639602Y-111455083D01*
X92695418Y-111651251D01*
X92786324Y-111833818D01*
X92909236Y-111996580D01*
X93059958Y-112133981D01*
X93233361Y-112241347D01*
X93233363Y-112241348D01*
X93423544Y-112315024D01*
X93624024Y-112352500D01*
X93713770Y-112352500D01*
X93780809Y-112372185D01*
X93801451Y-112388819D01*
X96495181Y-115082548D01*
X96528666Y-115143871D01*
X96531500Y-115170229D01*
X96531500Y-115506294D01*
X96530191Y-115524264D01*
X96526711Y-115548023D01*
X96531028Y-115597368D01*
X96531500Y-115608175D01*
X96531500Y-115613709D01*
X96531916Y-115617272D01*
X96531917Y-115617282D01*
X96535098Y-115644496D01*
X96535464Y-115648082D01*
X96542109Y-115724041D01*
X96546329Y-115743071D01*
X96546758Y-115744251D01*
X96546759Y-115744255D01*
X96572413Y-115814742D01*
X96573582Y-115818107D01*
X96597580Y-115890524D01*
X96606075Y-115908072D01*
X96647979Y-115971784D01*
X96649889Y-115974782D01*
X96689288Y-116038656D01*
X96689952Y-116039732D01*
X96702253Y-116054830D01*
X96703168Y-116055693D01*
X96703170Y-116055696D01*
X96745274Y-116095419D01*
X96757709Y-116107151D01*
X96760296Y-116109664D01*
X97490632Y-116840000D01*
X98056452Y-117405819D01*
X98089937Y-117467142D01*
X98084953Y-117536834D01*
X98043081Y-117592767D01*
X97977617Y-117617184D01*
X97968771Y-117617500D01*
X65743783Y-117617500D01*
X65676744Y-117597815D01*
X65656102Y-117581181D01*
X60726819Y-112651897D01*
X60693334Y-112590574D01*
X60690500Y-112564216D01*
X60690500Y-110743999D01*
X72300785Y-110743999D01*
X72319602Y-110947083D01*
X72375418Y-111143251D01*
X72466324Y-111325818D01*
X72589236Y-111488580D01*
X72739958Y-111625981D01*
X72913361Y-111733347D01*
X72913363Y-111733348D01*
X73103544Y-111807024D01*
X73222412Y-111829243D01*
X73284692Y-111860911D01*
X73287307Y-111863451D01*
X75806200Y-114382344D01*
X75813016Y-114389736D01*
X75848369Y-114431357D01*
X75913428Y-114480813D01*
X75916012Y-114482832D01*
X75928771Y-114493089D01*
X75979700Y-114534028D01*
X75979701Y-114534028D01*
X75979703Y-114534030D01*
X75979869Y-114534112D01*
X75999819Y-114546486D01*
X75999971Y-114546602D01*
X76074171Y-114580930D01*
X76077120Y-114582344D01*
X76095110Y-114591266D01*
X76150304Y-114618640D01*
X76150305Y-114618640D01*
X76150307Y-114618641D01*
X76150479Y-114618683D01*
X76172624Y-114626479D01*
X76172803Y-114626562D01*
X76252579Y-114644121D01*
X76255827Y-114644882D01*
X76335111Y-114664600D01*
X76335295Y-114664604D01*
X76358600Y-114667459D01*
X76358784Y-114667500D01*
X76440463Y-114667500D01*
X76443821Y-114667545D01*
X76525473Y-114669757D01*
X76525657Y-114669721D01*
X76549024Y-114667500D01*
X83779379Y-114667500D01*
X83789442Y-114667909D01*
X83794041Y-114668283D01*
X83843848Y-114672339D01*
X83924797Y-114661308D01*
X83928123Y-114660902D01*
X84009316Y-114652073D01*
X84009488Y-114652014D01*
X84032356Y-114646655D01*
X84032537Y-114646631D01*
X84032538Y-114646630D01*
X84032541Y-114646630D01*
X84067611Y-114633745D01*
X84109261Y-114618442D01*
X84112288Y-114617376D01*
X84189780Y-114591267D01*
X84189940Y-114591170D01*
X84211114Y-114581024D01*
X84211288Y-114580961D01*
X84280150Y-114536944D01*
X84282951Y-114535207D01*
X84336344Y-114503083D01*
X84352948Y-114493093D01*
X84352949Y-114493091D01*
X84352954Y-114493089D01*
X84353085Y-114492964D01*
X84371587Y-114478499D01*
X84371744Y-114478400D01*
X84429538Y-114420604D01*
X84431869Y-114418335D01*
X84491207Y-114362129D01*
X84491311Y-114361974D01*
X84506263Y-114343879D01*
X86224693Y-112625449D01*
X86286014Y-112591966D01*
X86289547Y-112591251D01*
X86408456Y-112569024D01*
X86598637Y-112495348D01*
X86772041Y-112387981D01*
X86902967Y-112268626D01*
X86922763Y-112250580D01*
X86925363Y-112247137D01*
X87045673Y-112087821D01*
X87045673Y-112087819D01*
X87045675Y-112087818D01*
X87107785Y-111963083D01*
X87136582Y-111905250D01*
X87192397Y-111709083D01*
X87211215Y-111506000D01*
X87192397Y-111302917D01*
X87192396Y-111302915D01*
X87147115Y-111143770D01*
X87136582Y-111106750D01*
X87107785Y-111048917D01*
X87045675Y-110924181D01*
X86922763Y-110761419D01*
X86772041Y-110624018D01*
X86598638Y-110516652D01*
X86408457Y-110442976D01*
X86341629Y-110430484D01*
X86207976Y-110405500D01*
X86004024Y-110405500D01*
X85936561Y-110418111D01*
X85803542Y-110442976D01*
X85613361Y-110516652D01*
X85439958Y-110624018D01*
X85289236Y-110761419D01*
X85166324Y-110924181D01*
X85075418Y-111106748D01*
X85019602Y-111302915D01*
X85018491Y-111314915D01*
X84992705Y-111379852D01*
X84982700Y-111391154D01*
X84236003Y-112137853D01*
X83493675Y-112880181D01*
X83432352Y-112913666D01*
X83405994Y-112916500D01*
X82226533Y-112916500D01*
X82159494Y-112896815D01*
X82113739Y-112844011D01*
X82103795Y-112774853D01*
X82127579Y-112717773D01*
X82193297Y-112630748D01*
X82219673Y-112595821D01*
X82219673Y-112595819D01*
X82219675Y-112595818D01*
X82269703Y-112495347D01*
X82310582Y-112413250D01*
X82366397Y-112217083D01*
X82385215Y-112014000D01*
X82366397Y-111810917D01*
X82365289Y-111807024D01*
X82326360Y-111670204D01*
X82310582Y-111614750D01*
X82300111Y-111593721D01*
X82219675Y-111432181D01*
X82096763Y-111269419D01*
X81946041Y-111132018D01*
X81772638Y-111024652D01*
X81683189Y-110990000D01*
X81582456Y-110950976D01*
X81582453Y-110950975D01*
X81582452Y-110950975D01*
X81463586Y-110928754D01*
X81401305Y-110897086D01*
X81398691Y-110894547D01*
X79387793Y-108883649D01*
X79380965Y-108876242D01*
X79345634Y-108834646D01*
X79345632Y-108834645D01*
X79345631Y-108834643D01*
X79280590Y-108785201D01*
X79277961Y-108783145D01*
X79261785Y-108770142D01*
X79214297Y-108731970D01*
X79214294Y-108731968D01*
X79214290Y-108731965D01*
X79214120Y-108731881D01*
X79194187Y-108719517D01*
X79194035Y-108719401D01*
X79119896Y-108685100D01*
X79116872Y-108683650D01*
X79043692Y-108647358D01*
X79043499Y-108647310D01*
X79021375Y-108639520D01*
X79021196Y-108639437D01*
X78941412Y-108621874D01*
X78938146Y-108621109D01*
X78858885Y-108601399D01*
X78858689Y-108601394D01*
X78835418Y-108598544D01*
X78835218Y-108598500D01*
X78835216Y-108598500D01*
X78753537Y-108598500D01*
X78750179Y-108598455D01*
X78668528Y-108596243D01*
X78668527Y-108596243D01*
X78668342Y-108596278D01*
X78644976Y-108598500D01*
X77673789Y-108598500D01*
X77608512Y-108579927D01*
X77454637Y-108484652D01*
X77454635Y-108484651D01*
X77264457Y-108410976D01*
X77197629Y-108398484D01*
X77063976Y-108373500D01*
X76860024Y-108373500D01*
X76759783Y-108392238D01*
X76659542Y-108410976D01*
X76469361Y-108484652D01*
X76295958Y-108592018D01*
X76145236Y-108729419D01*
X76022324Y-108892181D01*
X75931418Y-109074748D01*
X75875602Y-109270916D01*
X75856785Y-109474000D01*
X75875602Y-109677083D01*
X75931418Y-109873251D01*
X76022324Y-110055818D01*
X76145236Y-110218580D01*
X76295958Y-110355981D01*
X76416765Y-110430781D01*
X76469363Y-110463348D01*
X76659544Y-110537024D01*
X76860024Y-110574500D01*
X76860026Y-110574500D01*
X77063974Y-110574500D01*
X77063976Y-110574500D01*
X77264456Y-110537024D01*
X77454637Y-110463348D01*
X77608512Y-110368072D01*
X77673789Y-110349500D01*
X78325994Y-110349500D01*
X78393033Y-110369185D01*
X78413675Y-110385819D01*
X80156700Y-112128843D01*
X80190185Y-112190166D01*
X80192490Y-112205079D01*
X80193602Y-112217083D01*
X80249418Y-112413251D01*
X80340324Y-112595818D01*
X80432421Y-112717773D01*
X80457113Y-112783134D01*
X80442548Y-112851469D01*
X80393351Y-112901082D01*
X80333467Y-112916500D01*
X76868006Y-112916500D01*
X76800967Y-112896815D01*
X76780325Y-112880181D01*
X74529298Y-110629154D01*
X74495813Y-110567831D01*
X74493508Y-110552910D01*
X74492397Y-110540917D01*
X74443772Y-110370019D01*
X74436582Y-110344749D01*
X74345675Y-110162181D01*
X74222763Y-109999419D01*
X74072041Y-109862018D01*
X73898638Y-109754652D01*
X73708457Y-109680976D01*
X73641629Y-109668483D01*
X73507976Y-109643500D01*
X73304024Y-109643500D01*
X73203783Y-109662238D01*
X73103542Y-109680976D01*
X72913361Y-109754652D01*
X72739958Y-109862018D01*
X72589236Y-109999419D01*
X72466324Y-110162181D01*
X72375418Y-110344748D01*
X72319602Y-110540916D01*
X72300785Y-110743999D01*
X60690500Y-110743999D01*
X60690500Y-108472237D01*
X60690540Y-108469095D01*
X60692756Y-108381639D01*
X60692755Y-108381638D01*
X60692756Y-108381636D01*
X60682345Y-108323554D01*
X60681042Y-108314263D01*
X60675074Y-108255562D01*
X60665964Y-108226528D01*
X60662223Y-108211286D01*
X60660917Y-108204000D01*
X60656858Y-108181347D01*
X60656857Y-108181345D01*
X60656857Y-108181343D01*
X60634976Y-108126565D01*
X60631816Y-108117689D01*
X60628536Y-108107235D01*
X60614159Y-108061412D01*
X60599395Y-108034812D01*
X60592660Y-108020631D01*
X60586903Y-108006218D01*
X60581377Y-107992383D01*
X60548917Y-107943131D01*
X60544036Y-107935074D01*
X60540543Y-107928781D01*
X60515409Y-107883498D01*
X60495582Y-107860403D01*
X60486146Y-107847888D01*
X60469402Y-107822481D01*
X60469400Y-107822479D01*
X60469399Y-107822477D01*
X60427693Y-107780772D01*
X60421287Y-107773860D01*
X60382864Y-107729102D01*
X60358804Y-107710478D01*
X60347026Y-107700105D01*
X59268761Y-106621840D01*
X74426798Y-106621840D01*
X74436662Y-106854067D01*
X74485634Y-107081297D01*
X74572301Y-107296977D01*
X74694170Y-107494904D01*
X74847742Y-107669397D01*
X75028586Y-107815418D01*
X75231514Y-107928781D01*
X75450682Y-108006218D01*
X75679777Y-108045500D01*
X75679779Y-108045500D01*
X76151376Y-108045500D01*
X76154007Y-108045500D01*
X76327605Y-108030725D01*
X76552547Y-107972154D01*
X76764355Y-107876411D01*
X76956936Y-107746249D01*
X77124749Y-107585413D01*
X77262967Y-107398530D01*
X77367613Y-107190976D01*
X77435678Y-106968723D01*
X77465202Y-106738163D01*
X77455337Y-106505930D01*
X77406366Y-106278705D01*
X77319699Y-106063024D01*
X77308346Y-106044586D01*
X77197829Y-105865095D01*
X77044257Y-105690602D01*
X76863411Y-105544579D01*
X76815880Y-105518027D01*
X76766954Y-105468147D01*
X76752762Y-105399734D01*
X76777810Y-105334509D01*
X76806918Y-105307039D01*
X76956624Y-105205855D01*
X77124367Y-105045086D01*
X77262540Y-104858264D01*
X77367146Y-104650790D01*
X77435186Y-104428616D01*
X77440131Y-104390000D01*
X76391572Y-104390000D01*
X76414682Y-104354040D01*
X76456000Y-104213327D01*
X76456000Y-104066673D01*
X76414682Y-103925960D01*
X76391572Y-103890000D01*
X77438461Y-103890000D01*
X77438460Y-103889999D01*
X77405885Y-103738850D01*
X77319251Y-103523252D01*
X77197422Y-103325389D01*
X77041816Y-103148587D01*
X77012301Y-103085257D01*
X77021710Y-103016024D01*
X77067056Y-102962868D01*
X77091561Y-102950483D01*
X77203331Y-102908796D01*
X77318546Y-102822546D01*
X77404796Y-102707331D01*
X77455091Y-102572483D01*
X77461500Y-102512873D01*
X77461499Y-100764999D01*
X90819722Y-100764999D01*
X90838792Y-100982974D01*
X90838793Y-100982977D01*
X90895425Y-101194330D01*
X90987898Y-101392639D01*
X91113402Y-101571877D01*
X91268123Y-101726598D01*
X91447361Y-101852102D01*
X91645670Y-101944575D01*
X91857023Y-102001207D01*
X91999537Y-102013675D01*
X92074999Y-102020277D01*
X92074999Y-102020276D01*
X92075000Y-102020277D01*
X92292977Y-102001207D01*
X92504330Y-101944575D01*
X92702639Y-101852102D01*
X92881877Y-101726598D01*
X93036598Y-101571877D01*
X93162102Y-101392639D01*
X93254575Y-101194330D01*
X93311207Y-100982977D01*
X93330277Y-100765000D01*
X93330277Y-100764999D01*
X95699722Y-100764999D01*
X95718792Y-100982974D01*
X95718793Y-100982977D01*
X95775425Y-101194330D01*
X95867898Y-101392639D01*
X95993402Y-101571877D01*
X96148123Y-101726598D01*
X96327361Y-101852102D01*
X96525670Y-101944575D01*
X96737023Y-102001207D01*
X96879537Y-102013675D01*
X96954999Y-102020277D01*
X96954999Y-102020276D01*
X96955000Y-102020277D01*
X97172977Y-102001207D01*
X97384330Y-101944575D01*
X97582639Y-101852102D01*
X97761877Y-101726598D01*
X97916598Y-101571877D01*
X98042102Y-101392639D01*
X98134575Y-101194330D01*
X98191207Y-100982977D01*
X98210277Y-100765000D01*
X98191207Y-100547023D01*
X98134575Y-100335670D01*
X98042102Y-100137362D01*
X97916598Y-99958123D01*
X97761877Y-99803402D01*
X97582639Y-99677898D01*
X97491205Y-99635261D01*
X97384331Y-99585425D01*
X97172974Y-99528792D01*
X96954999Y-99509722D01*
X96737025Y-99528792D01*
X96525668Y-99585425D01*
X96327361Y-99677898D01*
X96148122Y-99803402D01*
X95993402Y-99958122D01*
X95867898Y-100137361D01*
X95775425Y-100335668D01*
X95718792Y-100547025D01*
X95699722Y-100764999D01*
X93330277Y-100764999D01*
X93311207Y-100547023D01*
X93254575Y-100335670D01*
X93162102Y-100137362D01*
X93036598Y-99958123D01*
X92881877Y-99803402D01*
X92702639Y-99677898D01*
X92611205Y-99635261D01*
X92504331Y-99585425D01*
X92292974Y-99528792D01*
X92074999Y-99509722D01*
X91857025Y-99528792D01*
X91645668Y-99585425D01*
X91447361Y-99677898D01*
X91268122Y-99803402D01*
X91113402Y-99958122D01*
X90987898Y-100137361D01*
X90895425Y-100335668D01*
X90838792Y-100547025D01*
X90819722Y-100764999D01*
X77461499Y-100764999D01*
X77461499Y-100687128D01*
X77455091Y-100627517D01*
X77404796Y-100492669D01*
X77318546Y-100377454D01*
X77203331Y-100291204D01*
X77068483Y-100240909D01*
X77008873Y-100234500D01*
X77005550Y-100234500D01*
X74886439Y-100234500D01*
X74886420Y-100234500D01*
X74883128Y-100234501D01*
X74879848Y-100234853D01*
X74879840Y-100234854D01*
X74823515Y-100240909D01*
X74688669Y-100291204D01*
X74573454Y-100377454D01*
X74487204Y-100492668D01*
X74436910Y-100627515D01*
X74436909Y-100627517D01*
X74430500Y-100687127D01*
X74430500Y-100690448D01*
X74430500Y-100690449D01*
X74430500Y-102509560D01*
X74430500Y-102509578D01*
X74430501Y-102512872D01*
X74436909Y-102572483D01*
X74487204Y-102707331D01*
X74573454Y-102822546D01*
X74688669Y-102908796D01*
X74805382Y-102952327D01*
X74861316Y-102994198D01*
X74885733Y-103059663D01*
X74870881Y-103127936D01*
X74847850Y-103158031D01*
X74767630Y-103234916D01*
X74629459Y-103421735D01*
X74524853Y-103629209D01*
X74456813Y-103851383D01*
X74451869Y-103890000D01*
X75500428Y-103890000D01*
X75477318Y-103925960D01*
X75436000Y-104066673D01*
X75436000Y-104213327D01*
X75477318Y-104354040D01*
X75500428Y-104390000D01*
X74453539Y-104390000D01*
X74486114Y-104541149D01*
X74572748Y-104756747D01*
X74694577Y-104954610D01*
X74848090Y-105129034D01*
X75028867Y-105275002D01*
X75076093Y-105301384D01*
X75125019Y-105351264D01*
X75139212Y-105419677D01*
X75114165Y-105484903D01*
X75085056Y-105512373D01*
X74935064Y-105613750D01*
X74767250Y-105774587D01*
X74629033Y-105961469D01*
X74524388Y-106169021D01*
X74524387Y-106169023D01*
X74524387Y-106169024D01*
X74456322Y-106391277D01*
X74430403Y-106593689D01*
X74426798Y-106621840D01*
X59268761Y-106621840D01*
X54819567Y-102172647D01*
X54817412Y-102170438D01*
X54757059Y-102106947D01*
X54708640Y-102073246D01*
X54701118Y-102067575D01*
X54655405Y-102030300D01*
X54628440Y-102016215D01*
X54615019Y-102008084D01*
X54590049Y-101990705D01*
X54590048Y-101990704D01*
X54590046Y-101990703D01*
X54535845Y-101967443D01*
X54527336Y-101963402D01*
X54475053Y-101936092D01*
X54469126Y-101934396D01*
X54445798Y-101927721D01*
X54431020Y-101922459D01*
X54403058Y-101910460D01*
X54345272Y-101898583D01*
X54336128Y-101896338D01*
X54279421Y-101880113D01*
X54249075Y-101877802D01*
X54233534Y-101875622D01*
X54203742Y-101869500D01*
X54203741Y-101869500D01*
X54144758Y-101869500D01*
X54135344Y-101869142D01*
X54126198Y-101868445D01*
X54076524Y-101864663D01*
X54076523Y-101864663D01*
X54076522Y-101864663D01*
X54046349Y-101868506D01*
X54030683Y-101869500D01*
X49220758Y-101869500D01*
X49153719Y-101849815D01*
X49133077Y-101833181D01*
X49131404Y-101831508D01*
X49131404Y-101831507D01*
X49131401Y-101831505D01*
X48937830Y-101695965D01*
X48723663Y-101596097D01*
X48633272Y-101571877D01*
X48495407Y-101534936D01*
X48259999Y-101514340D01*
X48024592Y-101534936D01*
X47796336Y-101596097D01*
X47582170Y-101695965D01*
X47388598Y-101831505D01*
X47213834Y-102006270D01*
X47211128Y-102003564D01*
X47172151Y-102034671D01*
X47102647Y-102041809D01*
X47040317Y-102010237D01*
X47007539Y-101958890D01*
X47004814Y-101950666D01*
X46968856Y-101892369D01*
X46912711Y-101801342D01*
X46788657Y-101677288D01*
X46639334Y-101585186D01*
X46472797Y-101530000D01*
X46373141Y-101519819D01*
X46373122Y-101519818D01*
X46370009Y-101519500D01*
X46366860Y-101519500D01*
X45073140Y-101519500D01*
X45073120Y-101519500D01*
X45069992Y-101519501D01*
X45066860Y-101519820D01*
X45066858Y-101519821D01*
X44967203Y-101530000D01*
X44800665Y-101585186D01*
X44651342Y-101677288D01*
X44527288Y-101801342D01*
X44435186Y-101950665D01*
X44380000Y-102117202D01*
X44369819Y-102216858D01*
X44369817Y-102216878D01*
X44369500Y-102219991D01*
X44369500Y-102223138D01*
X44369500Y-102223139D01*
X44369500Y-103516859D01*
X44369500Y-103516878D01*
X44369501Y-103520008D01*
X44369820Y-103523140D01*
X44369821Y-103523141D01*
X44380000Y-103622796D01*
X44435186Y-103789334D01*
X44527288Y-103938657D01*
X44651342Y-104062711D01*
X44651344Y-104062712D01*
X44800666Y-104154814D01*
X44873032Y-104178793D01*
X44930476Y-104218566D01*
X44957299Y-104283081D01*
X44957412Y-104293859D01*
X45587466Y-104923913D01*
X45577685Y-104925320D01*
X45446900Y-104985048D01*
X45338239Y-105079202D01*
X45260507Y-105200156D01*
X45236923Y-105280476D01*
X44605072Y-104648625D01*
X44546399Y-104732422D01*
X44446569Y-104946507D01*
X44385430Y-105174681D01*
X44364842Y-105409999D01*
X44385430Y-105645318D01*
X44446569Y-105873492D01*
X44546400Y-106087580D01*
X44605073Y-106171373D01*
X45236923Y-105539523D01*
X45260507Y-105619844D01*
X45338239Y-105740798D01*
X45446900Y-105834952D01*
X45577685Y-105894680D01*
X45587466Y-105896086D01*
X44958625Y-106524925D01*
X45035031Y-106578425D01*
X45078655Y-106633002D01*
X45085848Y-106702501D01*
X45054326Y-106764855D01*
X45035029Y-106781576D01*
X44958625Y-106835072D01*
X45587466Y-107463913D01*
X45577685Y-107465320D01*
X45446900Y-107525048D01*
X45338239Y-107619202D01*
X45260507Y-107740156D01*
X45236923Y-107820476D01*
X44605072Y-107188625D01*
X44546399Y-107272422D01*
X44446569Y-107486507D01*
X44385430Y-107714681D01*
X44364842Y-107950000D01*
X44385430Y-108185318D01*
X44446569Y-108413492D01*
X44546400Y-108627580D01*
X44605073Y-108711373D01*
X45236923Y-108079523D01*
X45260507Y-108159844D01*
X45338239Y-108280798D01*
X45446900Y-108374952D01*
X45577685Y-108434680D01*
X45587466Y-108436086D01*
X44958625Y-109064925D01*
X45035031Y-109118425D01*
X45078655Y-109173002D01*
X45085848Y-109242501D01*
X45054326Y-109304855D01*
X45035029Y-109321576D01*
X44958625Y-109375072D01*
X44958625Y-109375073D01*
X45587465Y-110003913D01*
X45577685Y-110005320D01*
X45446900Y-110065048D01*
X45338239Y-110159202D01*
X45260507Y-110280156D01*
X45236923Y-110360476D01*
X44605072Y-109728625D01*
X44546399Y-109812422D01*
X44446569Y-110026507D01*
X44385430Y-110254681D01*
X44364842Y-110490000D01*
X44385430Y-110725318D01*
X44446569Y-110953492D01*
X44546400Y-111167580D01*
X44605073Y-111251373D01*
X45236923Y-110619523D01*
X45260507Y-110699844D01*
X45338239Y-110820798D01*
X45446900Y-110914952D01*
X45577685Y-110974680D01*
X45587466Y-110976086D01*
X44958625Y-111604925D01*
X45035031Y-111658425D01*
X45078655Y-111713002D01*
X45085848Y-111782501D01*
X45054326Y-111844855D01*
X45035029Y-111861576D01*
X44958625Y-111915072D01*
X45587466Y-112543913D01*
X45577685Y-112545320D01*
X45446900Y-112605048D01*
X45338239Y-112699202D01*
X45260507Y-112820156D01*
X45236923Y-112900476D01*
X44605072Y-112268625D01*
X44546399Y-112352422D01*
X44446569Y-112566507D01*
X44385430Y-112794681D01*
X44364842Y-113030000D01*
X40894000Y-113030000D01*
X40894000Y-95504000D01*
X45684531Y-95504000D01*
X45704364Y-95730689D01*
X45763261Y-95950497D01*
X45859432Y-96156735D01*
X45989953Y-96343140D01*
X46150859Y-96504046D01*
X46337264Y-96634567D01*
X46337265Y-96634567D01*
X46337266Y-96634568D01*
X46543504Y-96730739D01*
X46763308Y-96789635D01*
X46990000Y-96809468D01*
X47216692Y-96789635D01*
X47436496Y-96730739D01*
X47642734Y-96634568D01*
X47829139Y-96504047D01*
X47990047Y-96343139D01*
X48120568Y-96156734D01*
X48216739Y-95950496D01*
X48275635Y-95730692D01*
X48295468Y-95504000D01*
X48290676Y-95449229D01*
X60929500Y-95449229D01*
X60929501Y-95452523D01*
X60929853Y-95455803D01*
X60929854Y-95455810D01*
X60935909Y-95512134D01*
X60986204Y-95646982D01*
X61072454Y-95762197D01*
X61187669Y-95848447D01*
X61322517Y-95898742D01*
X61382127Y-95905151D01*
X63077872Y-95905150D01*
X63137483Y-95898742D01*
X63272331Y-95848447D01*
X63387546Y-95762197D01*
X63473796Y-95646982D01*
X63524091Y-95512134D01*
X63530500Y-95452524D01*
X63530500Y-95449229D01*
X76931500Y-95449229D01*
X76931501Y-95452523D01*
X76931853Y-95455803D01*
X76931854Y-95455810D01*
X76937909Y-95512134D01*
X76988204Y-95646982D01*
X77074454Y-95762197D01*
X77189669Y-95848447D01*
X77324517Y-95898742D01*
X77384127Y-95905151D01*
X79079872Y-95905150D01*
X79139483Y-95898742D01*
X79274331Y-95848447D01*
X79389546Y-95762197D01*
X79475796Y-95646982D01*
X79526091Y-95512134D01*
X79532500Y-95452524D01*
X79532499Y-93980000D01*
X115281033Y-93980000D01*
X115300858Y-94206602D01*
X115359733Y-94426326D01*
X115455866Y-94632484D01*
X115506972Y-94705471D01*
X115506974Y-94705472D01*
X116188046Y-94024399D01*
X116200835Y-94105148D01*
X116258359Y-94218045D01*
X116347955Y-94307641D01*
X116460852Y-94365165D01*
X116541599Y-94377953D01*
X115860526Y-95059025D01*
X115860526Y-95059026D01*
X115933515Y-95110133D01*
X116139673Y-95206266D01*
X116359397Y-95265141D01*
X116586000Y-95284966D01*
X116812602Y-95265141D01*
X117032326Y-95206266D01*
X117238480Y-95110134D01*
X117311472Y-95059025D01*
X116630401Y-94377953D01*
X116711148Y-94365165D01*
X116824045Y-94307641D01*
X116913641Y-94218045D01*
X116971165Y-94105148D01*
X116983953Y-94024400D01*
X117665025Y-94705472D01*
X117716134Y-94632480D01*
X117812266Y-94426326D01*
X117871141Y-94206602D01*
X117890966Y-93980000D01*
X117885949Y-93922651D01*
X128235033Y-93922651D01*
X128254858Y-94149253D01*
X128313733Y-94368977D01*
X128409866Y-94575135D01*
X128460972Y-94648122D01*
X128460974Y-94648123D01*
X129142046Y-93967050D01*
X129154835Y-94047799D01*
X129212359Y-94160696D01*
X129301955Y-94250292D01*
X129414852Y-94307816D01*
X129495599Y-94320604D01*
X128814526Y-95001676D01*
X128814526Y-95001677D01*
X128887515Y-95052784D01*
X129093673Y-95148917D01*
X129313397Y-95207792D01*
X129540000Y-95227617D01*
X129766602Y-95207792D01*
X129986326Y-95148917D01*
X130192480Y-95052785D01*
X130265472Y-95001676D01*
X129584401Y-94320604D01*
X129665148Y-94307816D01*
X129778045Y-94250292D01*
X129867641Y-94160696D01*
X129925165Y-94047799D01*
X129937953Y-93967051D01*
X130619025Y-94648123D01*
X130670134Y-94575131D01*
X130766266Y-94368977D01*
X130825141Y-94149253D01*
X130844966Y-93922651D01*
X130825141Y-93696048D01*
X130766266Y-93476324D01*
X130670133Y-93270166D01*
X130619025Y-93197177D01*
X129937953Y-93878249D01*
X129925165Y-93797503D01*
X129867641Y-93684606D01*
X129778045Y-93595010D01*
X129665148Y-93537486D01*
X129584400Y-93524697D01*
X130265472Y-92843625D01*
X130265471Y-92843623D01*
X130192484Y-92792517D01*
X129986326Y-92696384D01*
X129766602Y-92637509D01*
X129540000Y-92617684D01*
X129313397Y-92637509D01*
X129093672Y-92696384D01*
X128887516Y-92792516D01*
X128814527Y-92843624D01*
X128814526Y-92843624D01*
X129495600Y-93524697D01*
X129414852Y-93537486D01*
X129301955Y-93595010D01*
X129212359Y-93684606D01*
X129154835Y-93797503D01*
X129142046Y-93878250D01*
X128460973Y-93197177D01*
X128460973Y-93197178D01*
X128409865Y-93270167D01*
X128313733Y-93476323D01*
X128254858Y-93696048D01*
X128235033Y-93922651D01*
X117885949Y-93922651D01*
X117871141Y-93753397D01*
X117812266Y-93533673D01*
X117716133Y-93327515D01*
X117665025Y-93254526D01*
X116983953Y-93935598D01*
X116971165Y-93854852D01*
X116913641Y-93741955D01*
X116824045Y-93652359D01*
X116711148Y-93594835D01*
X116630400Y-93582046D01*
X117311472Y-92900974D01*
X117311471Y-92900972D01*
X117238484Y-92849866D01*
X117032326Y-92753733D01*
X116812602Y-92694858D01*
X116586000Y-92675033D01*
X116359397Y-92694858D01*
X116139672Y-92753733D01*
X115933516Y-92849865D01*
X115860527Y-92900973D01*
X115860526Y-92900973D01*
X116541600Y-93582046D01*
X116460852Y-93594835D01*
X116347955Y-93652359D01*
X116258359Y-93741955D01*
X116200835Y-93854852D01*
X116188046Y-93935599D01*
X115506973Y-93254526D01*
X115506973Y-93254527D01*
X115455865Y-93327516D01*
X115359733Y-93533672D01*
X115300858Y-93753397D01*
X115281033Y-93980000D01*
X79532499Y-93980000D01*
X79532499Y-93756779D01*
X79526091Y-93697168D01*
X79475796Y-93562320D01*
X79389546Y-93447105D01*
X79274331Y-93360855D01*
X79139483Y-93310560D01*
X79079873Y-93304151D01*
X79076550Y-93304151D01*
X77387439Y-93304151D01*
X77387420Y-93304151D01*
X77384128Y-93304152D01*
X77380848Y-93304504D01*
X77380840Y-93304505D01*
X77324515Y-93310560D01*
X77189669Y-93360855D01*
X77074454Y-93447105D01*
X76988204Y-93562319D01*
X76937909Y-93697167D01*
X76931864Y-93753397D01*
X76931500Y-93756778D01*
X76931500Y-93760099D01*
X76931500Y-93760100D01*
X76931500Y-95449211D01*
X76931500Y-95449229D01*
X63530500Y-95449229D01*
X63530499Y-93756779D01*
X63524091Y-93697168D01*
X63473796Y-93562320D01*
X63387546Y-93447105D01*
X63272331Y-93360855D01*
X63137483Y-93310560D01*
X63077873Y-93304151D01*
X63074550Y-93304151D01*
X61385439Y-93304151D01*
X61385420Y-93304151D01*
X61382128Y-93304152D01*
X61378848Y-93304504D01*
X61378840Y-93304505D01*
X61322515Y-93310560D01*
X61187669Y-93360855D01*
X61072454Y-93447105D01*
X60986204Y-93562319D01*
X60935909Y-93697167D01*
X60929864Y-93753397D01*
X60929500Y-93756778D01*
X60929500Y-93760099D01*
X60929500Y-93760100D01*
X60929500Y-95449211D01*
X60929500Y-95449229D01*
X48290676Y-95449229D01*
X48275635Y-95277308D01*
X48216739Y-95057504D01*
X48120568Y-94851266D01*
X48113395Y-94841021D01*
X47990046Y-94664859D01*
X47829140Y-94503953D01*
X47642735Y-94373432D01*
X47436497Y-94277261D01*
X47216689Y-94218364D01*
X46990000Y-94198531D01*
X46763310Y-94218364D01*
X46543502Y-94277261D01*
X46337264Y-94373432D01*
X46150859Y-94503953D01*
X45989953Y-94664859D01*
X45859432Y-94851264D01*
X45763261Y-95057502D01*
X45704364Y-95277310D01*
X45684531Y-95504000D01*
X40894000Y-95504000D01*
X40894000Y-91947999D01*
X138086785Y-91947999D01*
X138105602Y-92151083D01*
X138161418Y-92347251D01*
X138252324Y-92529818D01*
X138375236Y-92692580D01*
X138525958Y-92829981D01*
X138699361Y-92937347D01*
X138699363Y-92937348D01*
X138889544Y-93011024D01*
X139090024Y-93048500D01*
X139090026Y-93048500D01*
X139293974Y-93048500D01*
X139293976Y-93048500D01*
X139494456Y-93011024D01*
X139684637Y-92937348D01*
X139858041Y-92829981D01*
X139899138Y-92792516D01*
X139966769Y-92730863D01*
X140029573Y-92700246D01*
X140050307Y-92698500D01*
X143921693Y-92698500D01*
X143988732Y-92718185D01*
X144005231Y-92730863D01*
X144113958Y-92829981D01*
X144287361Y-92937347D01*
X144287363Y-92937348D01*
X144477544Y-93011024D01*
X144678024Y-93048500D01*
X144678026Y-93048500D01*
X144881974Y-93048500D01*
X144881976Y-93048500D01*
X145082456Y-93011024D01*
X145272637Y-92937348D01*
X145446041Y-92829981D01*
X145596764Y-92692579D01*
X145719673Y-92529821D01*
X145719673Y-92529819D01*
X145719675Y-92529818D01*
X145765313Y-92438161D01*
X145810582Y-92347250D01*
X145866397Y-92151083D01*
X145885215Y-91948000D01*
X145866397Y-91744917D01*
X145810582Y-91548750D01*
X145810209Y-91548001D01*
X145719675Y-91366181D01*
X145596763Y-91203419D01*
X145446041Y-91066018D01*
X145272638Y-90958652D01*
X145082457Y-90884976D01*
X145015629Y-90872484D01*
X144881976Y-90847500D01*
X144678024Y-90847500D01*
X144577784Y-90866238D01*
X144477542Y-90884976D01*
X144287361Y-90958652D01*
X144113958Y-91066018D01*
X144005231Y-91165137D01*
X143942427Y-91195754D01*
X143921693Y-91197500D01*
X140050307Y-91197500D01*
X139983268Y-91177815D01*
X139966769Y-91165137D01*
X139858041Y-91066018D01*
X139684638Y-90958652D01*
X139494457Y-90884976D01*
X139427629Y-90872484D01*
X139293976Y-90847500D01*
X139090024Y-90847500D01*
X138989783Y-90866238D01*
X138889542Y-90884976D01*
X138699361Y-90958652D01*
X138525958Y-91066018D01*
X138375236Y-91203419D01*
X138252324Y-91366181D01*
X138161418Y-91548748D01*
X138105602Y-91744916D01*
X138086785Y-91947999D01*
X40894000Y-91947999D01*
X40894000Y-89604651D01*
X60925033Y-89604651D01*
X60944858Y-89831253D01*
X61003733Y-90050977D01*
X61099866Y-90257135D01*
X61150972Y-90330122D01*
X61150974Y-90330123D01*
X61832046Y-89649050D01*
X61844835Y-89729799D01*
X61902359Y-89842696D01*
X61991955Y-89932292D01*
X62104852Y-89989816D01*
X62185599Y-90002604D01*
X61504526Y-90683676D01*
X61504526Y-90683677D01*
X61577515Y-90734784D01*
X61783673Y-90830917D01*
X62003397Y-90889792D01*
X62230000Y-90909617D01*
X62456602Y-90889792D01*
X62676326Y-90830917D01*
X62882480Y-90734785D01*
X62955472Y-90683676D01*
X62274401Y-90002604D01*
X62355148Y-89989816D01*
X62468045Y-89932292D01*
X62557641Y-89842696D01*
X62615165Y-89729799D01*
X62627953Y-89649051D01*
X63309025Y-90330123D01*
X63360134Y-90257131D01*
X63456266Y-90050977D01*
X63515141Y-89831253D01*
X63534966Y-89604651D01*
X76927033Y-89604651D01*
X76946858Y-89831253D01*
X77005733Y-90050977D01*
X77101866Y-90257135D01*
X77152972Y-90330122D01*
X77152974Y-90330123D01*
X77834046Y-89649050D01*
X77846835Y-89729799D01*
X77904359Y-89842696D01*
X77993955Y-89932292D01*
X78106852Y-89989816D01*
X78187599Y-90002604D01*
X77506526Y-90683676D01*
X77506526Y-90683677D01*
X77579515Y-90734784D01*
X77785673Y-90830917D01*
X78005397Y-90889792D01*
X78232000Y-90909617D01*
X78458602Y-90889792D01*
X78678326Y-90830917D01*
X78884480Y-90734785D01*
X78957472Y-90683676D01*
X78276401Y-90002604D01*
X78357148Y-89989816D01*
X78470045Y-89932292D01*
X78559641Y-89842696D01*
X78617165Y-89729799D01*
X78629953Y-89649051D01*
X79311025Y-90330123D01*
X79362134Y-90257131D01*
X79458266Y-90050977D01*
X79517141Y-89831253D01*
X79536966Y-89604650D01*
X79517141Y-89378048D01*
X79458266Y-89158324D01*
X79362133Y-88952166D01*
X79311025Y-88879177D01*
X78629953Y-89560249D01*
X78617165Y-89479503D01*
X78559641Y-89366606D01*
X78470045Y-89277010D01*
X78357148Y-89219486D01*
X78276400Y-89206697D01*
X78957472Y-88525625D01*
X78957471Y-88525623D01*
X78884484Y-88474517D01*
X78678326Y-88378384D01*
X78458602Y-88319509D01*
X78232000Y-88299684D01*
X78005397Y-88319509D01*
X77785672Y-88378384D01*
X77579516Y-88474516D01*
X77506527Y-88525624D01*
X77506526Y-88525624D01*
X78187600Y-89206697D01*
X78106852Y-89219486D01*
X77993955Y-89277010D01*
X77904359Y-89366606D01*
X77846835Y-89479503D01*
X77834046Y-89560250D01*
X77152973Y-88879177D01*
X77152973Y-88879178D01*
X77101865Y-88952167D01*
X77005733Y-89158323D01*
X76946858Y-89378048D01*
X76927033Y-89604651D01*
X63534966Y-89604651D01*
X63515141Y-89378048D01*
X63456266Y-89158324D01*
X63360133Y-88952166D01*
X63309025Y-88879177D01*
X62627953Y-89560249D01*
X62615165Y-89479503D01*
X62557641Y-89366606D01*
X62468045Y-89277010D01*
X62355148Y-89219486D01*
X62274400Y-89206697D01*
X62955472Y-88525625D01*
X62955471Y-88525623D01*
X62882484Y-88474517D01*
X62676326Y-88378384D01*
X62456602Y-88319509D01*
X62230000Y-88299684D01*
X62003397Y-88319509D01*
X61783672Y-88378384D01*
X61577516Y-88474516D01*
X61504527Y-88525624D01*
X61504526Y-88525624D01*
X62185600Y-89206697D01*
X62104852Y-89219486D01*
X61991955Y-89277010D01*
X61902359Y-89366606D01*
X61844835Y-89479503D01*
X61832046Y-89560250D01*
X61150973Y-88879177D01*
X61150973Y-88879178D01*
X61099865Y-88952167D01*
X61003733Y-89158323D01*
X60944858Y-89378048D01*
X60925033Y-89604651D01*
X40894000Y-89604651D01*
X40894000Y-84452000D01*
X40913685Y-84384961D01*
X40966489Y-84339206D01*
X41018000Y-84328000D01*
X45875590Y-84328000D01*
X45942629Y-84347685D01*
X45988384Y-84400489D01*
X45998328Y-84469647D01*
X45977165Y-84523123D01*
X45859432Y-84691264D01*
X45763261Y-84897502D01*
X45704364Y-85117310D01*
X45684531Y-85344000D01*
X45704364Y-85570689D01*
X45763261Y-85790497D01*
X45859432Y-85996735D01*
X45989953Y-86183140D01*
X46150859Y-86344046D01*
X46337264Y-86474567D01*
X46337265Y-86474567D01*
X46337266Y-86474568D01*
X46543504Y-86570739D01*
X46763308Y-86629635D01*
X46990000Y-86649468D01*
X47216692Y-86629635D01*
X47436496Y-86570739D01*
X47642734Y-86474568D01*
X47829139Y-86344047D01*
X47990047Y-86183139D01*
X48120568Y-85996734D01*
X48216739Y-85790496D01*
X48275635Y-85570692D01*
X48295468Y-85344000D01*
X48275635Y-85117308D01*
X48216739Y-84897504D01*
X48120568Y-84691266D01*
X48120262Y-84690829D01*
X48002835Y-84523123D01*
X47980508Y-84456916D01*
X47997519Y-84389149D01*
X48048467Y-84341337D01*
X48104410Y-84328000D01*
X100292456Y-84328000D01*
X100359495Y-84347685D01*
X100361239Y-84348826D01*
X107950000Y-89408000D01*
X131318000Y-89408000D01*
X131318000Y-83312000D01*
X157244356Y-83312000D01*
X157264891Y-83559816D01*
X157264891Y-83559819D01*
X157264892Y-83559821D01*
X157325937Y-83800881D01*
X157370960Y-83903523D01*
X157425825Y-84028604D01*
X157425827Y-84028607D01*
X157561836Y-84236785D01*
X157730256Y-84419738D01*
X157730259Y-84419740D01*
X157926485Y-84572470D01*
X157926487Y-84572471D01*
X157926491Y-84572474D01*
X158145190Y-84690828D01*
X158380386Y-84771571D01*
X158625665Y-84812500D01*
X158874335Y-84812500D01*
X159119614Y-84771571D01*
X159354810Y-84690828D01*
X159573509Y-84572474D01*
X159769744Y-84419738D01*
X159938164Y-84236785D01*
X160074173Y-84028607D01*
X160174063Y-83800881D01*
X160235108Y-83559821D01*
X160255643Y-83312000D01*
X160235108Y-83064179D01*
X160174063Y-82823119D01*
X160074173Y-82595393D01*
X159938164Y-82387215D01*
X159769744Y-82204262D01*
X159747612Y-82187036D01*
X159573514Y-82051529D01*
X159573510Y-82051526D01*
X159573509Y-82051526D01*
X159354810Y-81933172D01*
X159354806Y-81933170D01*
X159354805Y-81933170D01*
X159119615Y-81852429D01*
X158874335Y-81811500D01*
X158625665Y-81811500D01*
X158380384Y-81852429D01*
X158145194Y-81933170D01*
X157926485Y-82051529D01*
X157730259Y-82204259D01*
X157561837Y-82387214D01*
X157425825Y-82595395D01*
X157354950Y-82756976D01*
X157325937Y-82823119D01*
X157296840Y-82938019D01*
X157264891Y-83064183D01*
X157244356Y-83312000D01*
X131318000Y-83312000D01*
X131318000Y-79756000D01*
X154424845Y-79756000D01*
X154424846Y-79756000D01*
X165992000Y-79756000D01*
X166059039Y-79775685D01*
G37*
G04 #@! TD.AperFunction*
G04 #@! TA.AperFunction,Conductor*
G36*
X141491896Y-30753685D02*
G01*
X141514650Y-30772483D01*
X141596095Y-30858000D01*
X146523793Y-36032083D01*
X146555773Y-36094203D01*
X146558000Y-36117599D01*
X146558000Y-53288638D01*
X146538315Y-53355677D01*
X146521681Y-53376319D01*
X144562319Y-55335681D01*
X144500996Y-55369166D01*
X144474638Y-55372000D01*
X139238592Y-55372000D01*
X139171553Y-55352315D01*
X139156937Y-55341319D01*
X137202345Y-53631050D01*
X137164855Y-53572091D01*
X137160000Y-53537731D01*
X137160000Y-48514000D01*
X137159999Y-48513999D01*
X124460001Y-39624000D01*
X124460000Y-39624000D01*
X91818000Y-39624000D01*
X91750961Y-39604315D01*
X91705206Y-39551511D01*
X91694000Y-39500000D01*
X91694000Y-30858000D01*
X91713685Y-30790961D01*
X91766489Y-30745206D01*
X91818000Y-30734000D01*
X141424857Y-30734000D01*
X141491896Y-30753685D01*
G37*
G04 #@! TD.AperFunction*
M02*
