G04 #@! TF.GenerationSoftware,KiCad,Pcbnew,7.0.2*
G04 #@! TF.CreationDate,2023-08-07T12:58:25+02:00*
G04 #@! TF.ProjectId,Module_3,4d6f6475-6c65-45f3-932e-6b696361645f,rev?*
G04 #@! TF.SameCoordinates,Original*
G04 #@! TF.FileFunction,Legend,Top*
G04 #@! TF.FilePolarity,Positive*
%FSLAX46Y46*%
G04 Gerber Fmt 4.6, Leading zero omitted, Abs format (unit mm)*
G04 Created by KiCad (PCBNEW 7.0.2) date 2023-08-07 12:58:25*
%MOMM*%
%LPD*%
G01*
G04 APERTURE LIST*
G04 Aperture macros list*
%AMRoundRect*
0 Rectangle with rounded corners*
0 $1 Rounding radius*
0 $2 $3 $4 $5 $6 $7 $8 $9 X,Y pos of 4 corners*
0 Add a 4 corners polygon primitive as box body*
4,1,4,$2,$3,$4,$5,$6,$7,$8,$9,$2,$3,0*
0 Add four circle primitives for the rounded corners*
1,1,$1+$1,$2,$3*
1,1,$1+$1,$4,$5*
1,1,$1+$1,$6,$7*
1,1,$1+$1,$8,$9*
0 Add four rect primitives between the rounded corners*
20,1,$1+$1,$2,$3,$4,$5,0*
20,1,$1+$1,$4,$5,$6,$7,0*
20,1,$1+$1,$6,$7,$8,$9,0*
20,1,$1+$1,$8,$9,$2,$3,0*%
G04 Aperture macros list end*
%ADD10C,0.150000*%
%ADD11C,0.300000*%
%ADD12C,0.100000*%
%ADD13C,0.120000*%
%ADD14C,3.200000*%
%ADD15R,1.600000X1.600000*%
%ADD16C,1.600000*%
%ADD17C,2.400000*%
%ADD18C,3.000000*%
%ADD19C,2.000000*%
%ADD20O,1.600000X1.600000*%
%ADD21RoundRect,0.250000X0.312500X0.625000X-0.312500X0.625000X-0.312500X-0.625000X0.312500X-0.625000X0*%
%ADD22RoundRect,0.675000X-0.675000X0.675000X-0.675000X-0.675000X0.675000X-0.675000X0.675000X0.675000X0*%
%ADD23C,2.700000*%
%ADD24C,7.000000*%
%ADD25RoundRect,0.250000X0.300000X-2.050000X0.300000X2.050000X-0.300000X2.050000X-0.300000X-2.050000X0*%
%ADD26RoundRect,0.250002X5.149998X-4.449998X5.149998X4.449998X-5.149998X4.449998X-5.149998X-4.449998X0*%
%ADD27C,3.500000*%
%ADD28RoundRect,0.250000X-0.312500X-0.625000X0.312500X-0.625000X0.312500X0.625000X-0.312500X0.625000X0*%
%ADD29RoundRect,0.250000X0.325000X0.650000X-0.325000X0.650000X-0.325000X-0.650000X0.325000X-0.650000X0*%
%ADD30RoundRect,0.250000X-1.000000X1.400000X-1.000000X-1.400000X1.000000X-1.400000X1.000000X1.400000X0*%
%ADD31RoundRect,0.250000X0.600000X0.600000X-0.600000X0.600000X-0.600000X-0.600000X0.600000X-0.600000X0*%
%ADD32C,1.700000*%
%ADD33R,4.000000X5.800000*%
%ADD34R,3.200000X3.200000*%
G04 APERTURE END LIST*
D10*
X190753809Y-133203095D02*
X190563333Y-133084047D01*
X190563333Y-133084047D02*
X190277619Y-133084047D01*
X190277619Y-133084047D02*
X189991904Y-133203095D01*
X189991904Y-133203095D02*
X189801428Y-133441190D01*
X189801428Y-133441190D02*
X189706190Y-133679285D01*
X189706190Y-133679285D02*
X189610952Y-134155476D01*
X189610952Y-134155476D02*
X189610952Y-134512619D01*
X189610952Y-134512619D02*
X189706190Y-134988809D01*
X189706190Y-134988809D02*
X189801428Y-135226904D01*
X189801428Y-135226904D02*
X189991904Y-135465000D01*
X189991904Y-135465000D02*
X190277619Y-135584047D01*
X190277619Y-135584047D02*
X190468095Y-135584047D01*
X190468095Y-135584047D02*
X190753809Y-135465000D01*
X190753809Y-135465000D02*
X190849047Y-135345952D01*
X190849047Y-135345952D02*
X190849047Y-134512619D01*
X190849047Y-134512619D02*
X190468095Y-134512619D01*
X191706190Y-135584047D02*
X191706190Y-133084047D01*
X191706190Y-133084047D02*
X192849047Y-135584047D01*
X192849047Y-135584047D02*
X192849047Y-133084047D01*
X193801428Y-135584047D02*
X193801428Y-133084047D01*
X193801428Y-133084047D02*
X194277618Y-133084047D01*
X194277618Y-133084047D02*
X194563333Y-133203095D01*
X194563333Y-133203095D02*
X194753809Y-133441190D01*
X194753809Y-133441190D02*
X194849047Y-133679285D01*
X194849047Y-133679285D02*
X194944285Y-134155476D01*
X194944285Y-134155476D02*
X194944285Y-134512619D01*
X194944285Y-134512619D02*
X194849047Y-134988809D01*
X194849047Y-134988809D02*
X194753809Y-135226904D01*
X194753809Y-135226904D02*
X194563333Y-135465000D01*
X194563333Y-135465000D02*
X194277618Y-135584047D01*
X194277618Y-135584047D02*
X193801428Y-135584047D01*
X169386190Y-135584047D02*
X169386190Y-133084047D01*
X169386190Y-133084047D02*
X170148095Y-133084047D01*
X170148095Y-133084047D02*
X170338571Y-133203095D01*
X170338571Y-133203095D02*
X170433809Y-133322142D01*
X170433809Y-133322142D02*
X170529047Y-133560238D01*
X170529047Y-133560238D02*
X170529047Y-133917380D01*
X170529047Y-133917380D02*
X170433809Y-134155476D01*
X170433809Y-134155476D02*
X170338571Y-134274523D01*
X170338571Y-134274523D02*
X170148095Y-134393571D01*
X170148095Y-134393571D02*
X169386190Y-134393571D01*
X171671904Y-135584047D02*
X171481428Y-135465000D01*
X171481428Y-135465000D02*
X171386190Y-135345952D01*
X171386190Y-135345952D02*
X171290952Y-135107857D01*
X171290952Y-135107857D02*
X171290952Y-134393571D01*
X171290952Y-134393571D02*
X171386190Y-134155476D01*
X171386190Y-134155476D02*
X171481428Y-134036428D01*
X171481428Y-134036428D02*
X171671904Y-133917380D01*
X171671904Y-133917380D02*
X171957619Y-133917380D01*
X171957619Y-133917380D02*
X172148095Y-134036428D01*
X172148095Y-134036428D02*
X172243333Y-134155476D01*
X172243333Y-134155476D02*
X172338571Y-134393571D01*
X172338571Y-134393571D02*
X172338571Y-135107857D01*
X172338571Y-135107857D02*
X172243333Y-135345952D01*
X172243333Y-135345952D02*
X172148095Y-135465000D01*
X172148095Y-135465000D02*
X171957619Y-135584047D01*
X171957619Y-135584047D02*
X171671904Y-135584047D01*
X172910000Y-133917380D02*
X173671904Y-133917380D01*
X173195714Y-133084047D02*
X173195714Y-135226904D01*
X173195714Y-135226904D02*
X173290952Y-135465000D01*
X173290952Y-135465000D02*
X173481428Y-135584047D01*
X173481428Y-135584047D02*
X173671904Y-135584047D01*
X175100476Y-135465000D02*
X174910000Y-135584047D01*
X174910000Y-135584047D02*
X174529047Y-135584047D01*
X174529047Y-135584047D02*
X174338571Y-135465000D01*
X174338571Y-135465000D02*
X174243333Y-135226904D01*
X174243333Y-135226904D02*
X174243333Y-134274523D01*
X174243333Y-134274523D02*
X174338571Y-134036428D01*
X174338571Y-134036428D02*
X174529047Y-133917380D01*
X174529047Y-133917380D02*
X174910000Y-133917380D01*
X174910000Y-133917380D02*
X175100476Y-134036428D01*
X175100476Y-134036428D02*
X175195714Y-134274523D01*
X175195714Y-134274523D02*
X175195714Y-134512619D01*
X175195714Y-134512619D02*
X174243333Y-134750714D01*
X176052857Y-133917380D02*
X176052857Y-135584047D01*
X176052857Y-134155476D02*
X176148095Y-134036428D01*
X176148095Y-134036428D02*
X176338571Y-133917380D01*
X176338571Y-133917380D02*
X176624286Y-133917380D01*
X176624286Y-133917380D02*
X176814762Y-134036428D01*
X176814762Y-134036428D02*
X176910000Y-134274523D01*
X176910000Y-134274523D02*
X176910000Y-135584047D01*
X178719524Y-135465000D02*
X178529048Y-135584047D01*
X178529048Y-135584047D02*
X178148095Y-135584047D01*
X178148095Y-135584047D02*
X177957619Y-135465000D01*
X177957619Y-135465000D02*
X177862381Y-135345952D01*
X177862381Y-135345952D02*
X177767143Y-135107857D01*
X177767143Y-135107857D02*
X177767143Y-134393571D01*
X177767143Y-134393571D02*
X177862381Y-134155476D01*
X177862381Y-134155476D02*
X177957619Y-134036428D01*
X177957619Y-134036428D02*
X178148095Y-133917380D01*
X178148095Y-133917380D02*
X178529048Y-133917380D01*
X178529048Y-133917380D02*
X178719524Y-134036428D01*
X179576667Y-135584047D02*
X179576667Y-133917380D01*
X179576667Y-133084047D02*
X179481429Y-133203095D01*
X179481429Y-133203095D02*
X179576667Y-133322142D01*
X179576667Y-133322142D02*
X179671905Y-133203095D01*
X179671905Y-133203095D02*
X179576667Y-133084047D01*
X179576667Y-133084047D02*
X179576667Y-133322142D01*
X181386191Y-135584047D02*
X181386191Y-134274523D01*
X181386191Y-134274523D02*
X181290953Y-134036428D01*
X181290953Y-134036428D02*
X181100477Y-133917380D01*
X181100477Y-133917380D02*
X180719524Y-133917380D01*
X180719524Y-133917380D02*
X180529048Y-134036428D01*
X181386191Y-135465000D02*
X181195715Y-135584047D01*
X181195715Y-135584047D02*
X180719524Y-135584047D01*
X180719524Y-135584047D02*
X180529048Y-135465000D01*
X180529048Y-135465000D02*
X180433810Y-135226904D01*
X180433810Y-135226904D02*
X180433810Y-134988809D01*
X180433810Y-134988809D02*
X180529048Y-134750714D01*
X180529048Y-134750714D02*
X180719524Y-134631666D01*
X180719524Y-134631666D02*
X181195715Y-134631666D01*
X181195715Y-134631666D02*
X181386191Y-134512619D01*
X182624286Y-135584047D02*
X182433810Y-135465000D01*
X182433810Y-135465000D02*
X182338572Y-135226904D01*
X182338572Y-135226904D02*
X182338572Y-133084047D01*
X182910001Y-135822142D02*
X184433810Y-135822142D01*
X184910001Y-135584047D02*
X184910001Y-133084047D01*
X185862382Y-133917380D02*
X185862382Y-135584047D01*
X185862382Y-134155476D02*
X185957620Y-134036428D01*
X185957620Y-134036428D02*
X186148096Y-133917380D01*
X186148096Y-133917380D02*
X186433811Y-133917380D01*
X186433811Y-133917380D02*
X186624287Y-134036428D01*
X186624287Y-134036428D02*
X186719525Y-134274523D01*
X186719525Y-134274523D02*
X186719525Y-135584047D01*
X48755416Y-65356466D02*
X48755416Y-64404085D01*
X48755416Y-64404085D02*
X51255416Y-64404085D01*
D11*
X222047810Y-86591639D02*
X223571620Y-86591639D01*
X222809715Y-87544020D02*
X222809715Y-85639258D01*
X224333524Y-85044020D02*
X225571619Y-85044020D01*
X225571619Y-85044020D02*
X224904952Y-85996401D01*
X224904952Y-85996401D02*
X225190667Y-85996401D01*
X225190667Y-85996401D02*
X225381143Y-86115449D01*
X225381143Y-86115449D02*
X225476381Y-86234496D01*
X225476381Y-86234496D02*
X225571619Y-86472592D01*
X225571619Y-86472592D02*
X225571619Y-87067830D01*
X225571619Y-87067830D02*
X225476381Y-87305925D01*
X225476381Y-87305925D02*
X225381143Y-87424973D01*
X225381143Y-87424973D02*
X225190667Y-87544020D01*
X225190667Y-87544020D02*
X224619238Y-87544020D01*
X224619238Y-87544020D02*
X224428762Y-87424973D01*
X224428762Y-87424973D02*
X224333524Y-87305925D01*
X226809714Y-85044020D02*
X227000191Y-85044020D01*
X227000191Y-85044020D02*
X227190667Y-85163068D01*
X227190667Y-85163068D02*
X227285905Y-85282115D01*
X227285905Y-85282115D02*
X227381143Y-85520211D01*
X227381143Y-85520211D02*
X227476381Y-85996401D01*
X227476381Y-85996401D02*
X227476381Y-86591639D01*
X227476381Y-86591639D02*
X227381143Y-87067830D01*
X227381143Y-87067830D02*
X227285905Y-87305925D01*
X227285905Y-87305925D02*
X227190667Y-87424973D01*
X227190667Y-87424973D02*
X227000191Y-87544020D01*
X227000191Y-87544020D02*
X226809714Y-87544020D01*
X226809714Y-87544020D02*
X226619238Y-87424973D01*
X226619238Y-87424973D02*
X226524000Y-87305925D01*
X226524000Y-87305925D02*
X226428762Y-87067830D01*
X226428762Y-87067830D02*
X226333524Y-86591639D01*
X226333524Y-86591639D02*
X226333524Y-85996401D01*
X226333524Y-85996401D02*
X226428762Y-85520211D01*
X226428762Y-85520211D02*
X226524000Y-85282115D01*
X226524000Y-85282115D02*
X226619238Y-85163068D01*
X226619238Y-85163068D02*
X226809714Y-85044020D01*
X228714476Y-85044020D02*
X228904953Y-85044020D01*
X228904953Y-85044020D02*
X229095429Y-85163068D01*
X229095429Y-85163068D02*
X229190667Y-85282115D01*
X229190667Y-85282115D02*
X229285905Y-85520211D01*
X229285905Y-85520211D02*
X229381143Y-85996401D01*
X229381143Y-85996401D02*
X229381143Y-86591639D01*
X229381143Y-86591639D02*
X229285905Y-87067830D01*
X229285905Y-87067830D02*
X229190667Y-87305925D01*
X229190667Y-87305925D02*
X229095429Y-87424973D01*
X229095429Y-87424973D02*
X228904953Y-87544020D01*
X228904953Y-87544020D02*
X228714476Y-87544020D01*
X228714476Y-87544020D02*
X228524000Y-87424973D01*
X228524000Y-87424973D02*
X228428762Y-87305925D01*
X228428762Y-87305925D02*
X228333524Y-87067830D01*
X228333524Y-87067830D02*
X228238286Y-86591639D01*
X228238286Y-86591639D02*
X228238286Y-85996401D01*
X228238286Y-85996401D02*
X228333524Y-85520211D01*
X228333524Y-85520211D02*
X228428762Y-85282115D01*
X228428762Y-85282115D02*
X228524000Y-85163068D01*
X228524000Y-85163068D02*
X228714476Y-85044020D01*
X229952572Y-85044020D02*
X230619238Y-87544020D01*
X230619238Y-87544020D02*
X231285905Y-85044020D01*
D10*
X54752857Y-58935000D02*
X54824285Y-58863571D01*
X54824285Y-58863571D02*
X54967142Y-58792142D01*
X54967142Y-58792142D02*
X55252857Y-58935000D01*
X55252857Y-58935000D02*
X55395714Y-58863571D01*
X55395714Y-58863571D02*
X55467142Y-58792142D01*
X55967143Y-58149285D02*
X56038571Y-58077857D01*
X56038571Y-58077857D02*
X56181429Y-58006428D01*
X56181429Y-58006428D02*
X56538571Y-58006428D01*
X56538571Y-58006428D02*
X56681429Y-58077857D01*
X56681429Y-58077857D02*
X56752857Y-58149285D01*
X56752857Y-58149285D02*
X56824286Y-58292142D01*
X56824286Y-58292142D02*
X56824286Y-58435000D01*
X56824286Y-58435000D02*
X56752857Y-58649285D01*
X56752857Y-58649285D02*
X55895714Y-59506428D01*
X55895714Y-59506428D02*
X56824286Y-59506428D01*
X57395714Y-58149285D02*
X57467142Y-58077857D01*
X57467142Y-58077857D02*
X57610000Y-58006428D01*
X57610000Y-58006428D02*
X57967142Y-58006428D01*
X57967142Y-58006428D02*
X58110000Y-58077857D01*
X58110000Y-58077857D02*
X58181428Y-58149285D01*
X58181428Y-58149285D02*
X58252857Y-58292142D01*
X58252857Y-58292142D02*
X58252857Y-58435000D01*
X58252857Y-58435000D02*
X58181428Y-58649285D01*
X58181428Y-58649285D02*
X57324285Y-59506428D01*
X57324285Y-59506428D02*
X58252857Y-59506428D01*
X59181428Y-58006428D02*
X59324285Y-58006428D01*
X59324285Y-58006428D02*
X59467142Y-58077857D01*
X59467142Y-58077857D02*
X59538571Y-58149285D01*
X59538571Y-58149285D02*
X59609999Y-58292142D01*
X59609999Y-58292142D02*
X59681428Y-58577857D01*
X59681428Y-58577857D02*
X59681428Y-58935000D01*
X59681428Y-58935000D02*
X59609999Y-59220714D01*
X59609999Y-59220714D02*
X59538571Y-59363571D01*
X59538571Y-59363571D02*
X59467142Y-59435000D01*
X59467142Y-59435000D02*
X59324285Y-59506428D01*
X59324285Y-59506428D02*
X59181428Y-59506428D01*
X59181428Y-59506428D02*
X59038571Y-59435000D01*
X59038571Y-59435000D02*
X58967142Y-59363571D01*
X58967142Y-59363571D02*
X58895713Y-59220714D01*
X58895713Y-59220714D02*
X58824285Y-58935000D01*
X58824285Y-58935000D02*
X58824285Y-58577857D01*
X58824285Y-58577857D02*
X58895713Y-58292142D01*
X58895713Y-58292142D02*
X58967142Y-58149285D01*
X58967142Y-58149285D02*
X59038571Y-58077857D01*
X59038571Y-58077857D02*
X59181428Y-58006428D01*
X209110878Y-130390512D02*
X208920402Y-130271464D01*
X208920402Y-130271464D02*
X208634688Y-130271464D01*
X208634688Y-130271464D02*
X208348973Y-130390512D01*
X208348973Y-130390512D02*
X208158497Y-130628607D01*
X208158497Y-130628607D02*
X208063259Y-130866702D01*
X208063259Y-130866702D02*
X207968021Y-131342893D01*
X207968021Y-131342893D02*
X207968021Y-131700036D01*
X207968021Y-131700036D02*
X208063259Y-132176226D01*
X208063259Y-132176226D02*
X208158497Y-132414321D01*
X208158497Y-132414321D02*
X208348973Y-132652417D01*
X208348973Y-132652417D02*
X208634688Y-132771464D01*
X208634688Y-132771464D02*
X208825164Y-132771464D01*
X208825164Y-132771464D02*
X209110878Y-132652417D01*
X209110878Y-132652417D02*
X209206116Y-132533369D01*
X209206116Y-132533369D02*
X209206116Y-131700036D01*
X209206116Y-131700036D02*
X208825164Y-131700036D01*
X210063259Y-132771464D02*
X210063259Y-130271464D01*
X210063259Y-130271464D02*
X211206116Y-132771464D01*
X211206116Y-132771464D02*
X211206116Y-130271464D01*
X212158497Y-132771464D02*
X212158497Y-130271464D01*
X212158497Y-130271464D02*
X212634687Y-130271464D01*
X212634687Y-130271464D02*
X212920402Y-130390512D01*
X212920402Y-130390512D02*
X213110878Y-130628607D01*
X213110878Y-130628607D02*
X213206116Y-130866702D01*
X213206116Y-130866702D02*
X213301354Y-131342893D01*
X213301354Y-131342893D02*
X213301354Y-131700036D01*
X213301354Y-131700036D02*
X213206116Y-132176226D01*
X213206116Y-132176226D02*
X213110878Y-132414321D01*
X213110878Y-132414321D02*
X212920402Y-132652417D01*
X212920402Y-132652417D02*
X212634687Y-132771464D01*
X212634687Y-132771464D02*
X212158497Y-132771464D01*
X198199907Y-131856025D02*
X199723717Y-131856025D01*
X198961812Y-132808406D02*
X198961812Y-130903644D01*
X201723716Y-132808406D02*
X200580859Y-132808406D01*
X201152287Y-132808406D02*
X201152287Y-130308406D01*
X201152287Y-130308406D02*
X200961811Y-130665549D01*
X200961811Y-130665549D02*
X200771335Y-130903644D01*
X200771335Y-130903644D02*
X200580859Y-131022692D01*
X202485621Y-130546501D02*
X202580859Y-130427454D01*
X202580859Y-130427454D02*
X202771335Y-130308406D01*
X202771335Y-130308406D02*
X203247526Y-130308406D01*
X203247526Y-130308406D02*
X203438002Y-130427454D01*
X203438002Y-130427454D02*
X203533240Y-130546501D01*
X203533240Y-130546501D02*
X203628478Y-130784597D01*
X203628478Y-130784597D02*
X203628478Y-131022692D01*
X203628478Y-131022692D02*
X203533240Y-131379835D01*
X203533240Y-131379835D02*
X202390383Y-132808406D01*
X202390383Y-132808406D02*
X203628478Y-132808406D01*
X204199907Y-130308406D02*
X204866573Y-132808406D01*
X204866573Y-132808406D02*
X205533240Y-130308406D01*
D11*
X221549101Y-68555003D02*
X223072911Y-68555003D01*
X223834815Y-67007384D02*
X225072910Y-67007384D01*
X225072910Y-67007384D02*
X224406243Y-67959765D01*
X224406243Y-67959765D02*
X224691958Y-67959765D01*
X224691958Y-67959765D02*
X224882434Y-68078813D01*
X224882434Y-68078813D02*
X224977672Y-68197860D01*
X224977672Y-68197860D02*
X225072910Y-68435956D01*
X225072910Y-68435956D02*
X225072910Y-69031194D01*
X225072910Y-69031194D02*
X224977672Y-69269289D01*
X224977672Y-69269289D02*
X224882434Y-69388337D01*
X224882434Y-69388337D02*
X224691958Y-69507384D01*
X224691958Y-69507384D02*
X224120529Y-69507384D01*
X224120529Y-69507384D02*
X223930053Y-69388337D01*
X223930053Y-69388337D02*
X223834815Y-69269289D01*
X226311005Y-67007384D02*
X226501482Y-67007384D01*
X226501482Y-67007384D02*
X226691958Y-67126432D01*
X226691958Y-67126432D02*
X226787196Y-67245479D01*
X226787196Y-67245479D02*
X226882434Y-67483575D01*
X226882434Y-67483575D02*
X226977672Y-67959765D01*
X226977672Y-67959765D02*
X226977672Y-68555003D01*
X226977672Y-68555003D02*
X226882434Y-69031194D01*
X226882434Y-69031194D02*
X226787196Y-69269289D01*
X226787196Y-69269289D02*
X226691958Y-69388337D01*
X226691958Y-69388337D02*
X226501482Y-69507384D01*
X226501482Y-69507384D02*
X226311005Y-69507384D01*
X226311005Y-69507384D02*
X226120529Y-69388337D01*
X226120529Y-69388337D02*
X226025291Y-69269289D01*
X226025291Y-69269289D02*
X225930053Y-69031194D01*
X225930053Y-69031194D02*
X225834815Y-68555003D01*
X225834815Y-68555003D02*
X225834815Y-67959765D01*
X225834815Y-67959765D02*
X225930053Y-67483575D01*
X225930053Y-67483575D02*
X226025291Y-67245479D01*
X226025291Y-67245479D02*
X226120529Y-67126432D01*
X226120529Y-67126432D02*
X226311005Y-67007384D01*
X228215767Y-67007384D02*
X228406244Y-67007384D01*
X228406244Y-67007384D02*
X228596720Y-67126432D01*
X228596720Y-67126432D02*
X228691958Y-67245479D01*
X228691958Y-67245479D02*
X228787196Y-67483575D01*
X228787196Y-67483575D02*
X228882434Y-67959765D01*
X228882434Y-67959765D02*
X228882434Y-68555003D01*
X228882434Y-68555003D02*
X228787196Y-69031194D01*
X228787196Y-69031194D02*
X228691958Y-69269289D01*
X228691958Y-69269289D02*
X228596720Y-69388337D01*
X228596720Y-69388337D02*
X228406244Y-69507384D01*
X228406244Y-69507384D02*
X228215767Y-69507384D01*
X228215767Y-69507384D02*
X228025291Y-69388337D01*
X228025291Y-69388337D02*
X227930053Y-69269289D01*
X227930053Y-69269289D02*
X227834815Y-69031194D01*
X227834815Y-69031194D02*
X227739577Y-68555003D01*
X227739577Y-68555003D02*
X227739577Y-67959765D01*
X227739577Y-67959765D02*
X227834815Y-67483575D01*
X227834815Y-67483575D02*
X227930053Y-67245479D01*
X227930053Y-67245479D02*
X228025291Y-67126432D01*
X228025291Y-67126432D02*
X228215767Y-67007384D01*
X229453863Y-67007384D02*
X230120529Y-69507384D01*
X230120529Y-69507384D02*
X230787196Y-67007384D01*
D10*
X48672298Y-72134072D02*
X51172298Y-72134072D01*
X51172298Y-72134072D02*
X48672298Y-73276929D01*
X48672298Y-73276929D02*
X51172298Y-73276929D01*
X50231176Y-78451051D02*
X50231176Y-79117718D01*
X48921652Y-79403432D02*
X48921652Y-78451051D01*
X48921652Y-78451051D02*
X51421652Y-78451051D01*
X51421652Y-78451051D02*
X51421652Y-79403432D01*
X48921652Y-81117718D02*
X50231176Y-81117718D01*
X50231176Y-81117718D02*
X50469271Y-81022480D01*
X50469271Y-81022480D02*
X50588319Y-80832004D01*
X50588319Y-80832004D02*
X50588319Y-80451051D01*
X50588319Y-80451051D02*
X50469271Y-80260575D01*
X49040700Y-81117718D02*
X48921652Y-80927242D01*
X48921652Y-80927242D02*
X48921652Y-80451051D01*
X48921652Y-80451051D02*
X49040700Y-80260575D01*
X49040700Y-80260575D02*
X49278795Y-80165337D01*
X49278795Y-80165337D02*
X49516890Y-80165337D01*
X49516890Y-80165337D02*
X49754985Y-80260575D01*
X49754985Y-80260575D02*
X49874033Y-80451051D01*
X49874033Y-80451051D02*
X49874033Y-80927242D01*
X49874033Y-80927242D02*
X49993080Y-81117718D01*
X48921652Y-82070099D02*
X50588319Y-82070099D01*
X50112128Y-82070099D02*
X50350223Y-82165337D01*
X50350223Y-82165337D02*
X50469271Y-82260575D01*
X50469271Y-82260575D02*
X50588319Y-82451051D01*
X50588319Y-82451051D02*
X50588319Y-82641528D01*
X50588319Y-83022480D02*
X50588319Y-83784384D01*
X51421652Y-83308194D02*
X49278795Y-83308194D01*
X49278795Y-83308194D02*
X49040700Y-83403432D01*
X49040700Y-83403432D02*
X48921652Y-83593908D01*
X48921652Y-83593908D02*
X48921652Y-83784384D01*
X48921652Y-84451051D02*
X51421652Y-84451051D01*
X48921652Y-85308194D02*
X50231176Y-85308194D01*
X50231176Y-85308194D02*
X50469271Y-85212956D01*
X50469271Y-85212956D02*
X50588319Y-85022480D01*
X50588319Y-85022480D02*
X50588319Y-84736765D01*
X50588319Y-84736765D02*
X50469271Y-84546289D01*
X50469271Y-84546289D02*
X50350223Y-84451051D01*
X147153333Y-110857380D02*
X147105714Y-110905000D01*
X147105714Y-110905000D02*
X146962857Y-110952619D01*
X146962857Y-110952619D02*
X146867619Y-110952619D01*
X146867619Y-110952619D02*
X146724762Y-110905000D01*
X146724762Y-110905000D02*
X146629524Y-110809761D01*
X146629524Y-110809761D02*
X146581905Y-110714523D01*
X146581905Y-110714523D02*
X146534286Y-110524047D01*
X146534286Y-110524047D02*
X146534286Y-110381190D01*
X146534286Y-110381190D02*
X146581905Y-110190714D01*
X146581905Y-110190714D02*
X146629524Y-110095476D01*
X146629524Y-110095476D02*
X146724762Y-110000238D01*
X146724762Y-110000238D02*
X146867619Y-109952619D01*
X146867619Y-109952619D02*
X146962857Y-109952619D01*
X146962857Y-109952619D02*
X147105714Y-110000238D01*
X147105714Y-110000238D02*
X147153333Y-110047857D01*
X148105714Y-110952619D02*
X147534286Y-110952619D01*
X147820000Y-110952619D02*
X147820000Y-109952619D01*
X147820000Y-109952619D02*
X147724762Y-110095476D01*
X147724762Y-110095476D02*
X147629524Y-110190714D01*
X147629524Y-110190714D02*
X147534286Y-110238333D01*
X74763333Y-71487380D02*
X74715714Y-71535000D01*
X74715714Y-71535000D02*
X74572857Y-71582619D01*
X74572857Y-71582619D02*
X74477619Y-71582619D01*
X74477619Y-71582619D02*
X74334762Y-71535000D01*
X74334762Y-71535000D02*
X74239524Y-71439761D01*
X74239524Y-71439761D02*
X74191905Y-71344523D01*
X74191905Y-71344523D02*
X74144286Y-71154047D01*
X74144286Y-71154047D02*
X74144286Y-71011190D01*
X74144286Y-71011190D02*
X74191905Y-70820714D01*
X74191905Y-70820714D02*
X74239524Y-70725476D01*
X74239524Y-70725476D02*
X74334762Y-70630238D01*
X74334762Y-70630238D02*
X74477619Y-70582619D01*
X74477619Y-70582619D02*
X74572857Y-70582619D01*
X74572857Y-70582619D02*
X74715714Y-70630238D01*
X74715714Y-70630238D02*
X74763333Y-70677857D01*
X75144286Y-70677857D02*
X75191905Y-70630238D01*
X75191905Y-70630238D02*
X75287143Y-70582619D01*
X75287143Y-70582619D02*
X75525238Y-70582619D01*
X75525238Y-70582619D02*
X75620476Y-70630238D01*
X75620476Y-70630238D02*
X75668095Y-70677857D01*
X75668095Y-70677857D02*
X75715714Y-70773095D01*
X75715714Y-70773095D02*
X75715714Y-70868333D01*
X75715714Y-70868333D02*
X75668095Y-71011190D01*
X75668095Y-71011190D02*
X75096667Y-71582619D01*
X75096667Y-71582619D02*
X75715714Y-71582619D01*
D12*
X202866666Y-121382619D02*
X202866666Y-122096904D01*
X202866666Y-122096904D02*
X202819047Y-122239761D01*
X202819047Y-122239761D02*
X202723809Y-122335000D01*
X202723809Y-122335000D02*
X202580952Y-122382619D01*
X202580952Y-122382619D02*
X202485714Y-122382619D01*
X203771428Y-121715952D02*
X203771428Y-122382619D01*
X203533333Y-121335000D02*
X203295238Y-122049285D01*
X203295238Y-122049285D02*
X203914285Y-122049285D01*
D10*
X159218333Y-51635380D02*
X159170714Y-51683000D01*
X159170714Y-51683000D02*
X159027857Y-51730619D01*
X159027857Y-51730619D02*
X158932619Y-51730619D01*
X158932619Y-51730619D02*
X158789762Y-51683000D01*
X158789762Y-51683000D02*
X158694524Y-51587761D01*
X158694524Y-51587761D02*
X158646905Y-51492523D01*
X158646905Y-51492523D02*
X158599286Y-51302047D01*
X158599286Y-51302047D02*
X158599286Y-51159190D01*
X158599286Y-51159190D02*
X158646905Y-50968714D01*
X158646905Y-50968714D02*
X158694524Y-50873476D01*
X158694524Y-50873476D02*
X158789762Y-50778238D01*
X158789762Y-50778238D02*
X158932619Y-50730619D01*
X158932619Y-50730619D02*
X159027857Y-50730619D01*
X159027857Y-50730619D02*
X159170714Y-50778238D01*
X159170714Y-50778238D02*
X159218333Y-50825857D01*
X160075476Y-50730619D02*
X159885000Y-50730619D01*
X159885000Y-50730619D02*
X159789762Y-50778238D01*
X159789762Y-50778238D02*
X159742143Y-50825857D01*
X159742143Y-50825857D02*
X159646905Y-50968714D01*
X159646905Y-50968714D02*
X159599286Y-51159190D01*
X159599286Y-51159190D02*
X159599286Y-51540142D01*
X159599286Y-51540142D02*
X159646905Y-51635380D01*
X159646905Y-51635380D02*
X159694524Y-51683000D01*
X159694524Y-51683000D02*
X159789762Y-51730619D01*
X159789762Y-51730619D02*
X159980238Y-51730619D01*
X159980238Y-51730619D02*
X160075476Y-51683000D01*
X160075476Y-51683000D02*
X160123095Y-51635380D01*
X160123095Y-51635380D02*
X160170714Y-51540142D01*
X160170714Y-51540142D02*
X160170714Y-51302047D01*
X160170714Y-51302047D02*
X160123095Y-51206809D01*
X160123095Y-51206809D02*
X160075476Y-51159190D01*
X160075476Y-51159190D02*
X159980238Y-51111571D01*
X159980238Y-51111571D02*
X159789762Y-51111571D01*
X159789762Y-51111571D02*
X159694524Y-51159190D01*
X159694524Y-51159190D02*
X159646905Y-51206809D01*
X159646905Y-51206809D02*
X159599286Y-51302047D01*
X185312619Y-96429904D02*
X186122142Y-96429904D01*
X186122142Y-96429904D02*
X186217380Y-96382285D01*
X186217380Y-96382285D02*
X186265000Y-96334666D01*
X186265000Y-96334666D02*
X186312619Y-96239428D01*
X186312619Y-96239428D02*
X186312619Y-96048952D01*
X186312619Y-96048952D02*
X186265000Y-95953714D01*
X186265000Y-95953714D02*
X186217380Y-95906095D01*
X186217380Y-95906095D02*
X186122142Y-95858476D01*
X186122142Y-95858476D02*
X185312619Y-95858476D01*
X185407857Y-95429904D02*
X185360238Y-95382285D01*
X185360238Y-95382285D02*
X185312619Y-95287047D01*
X185312619Y-95287047D02*
X185312619Y-95048952D01*
X185312619Y-95048952D02*
X185360238Y-94953714D01*
X185360238Y-94953714D02*
X185407857Y-94906095D01*
X185407857Y-94906095D02*
X185503095Y-94858476D01*
X185503095Y-94858476D02*
X185598333Y-94858476D01*
X185598333Y-94858476D02*
X185741190Y-94906095D01*
X185741190Y-94906095D02*
X186312619Y-95477523D01*
X186312619Y-95477523D02*
X186312619Y-94858476D01*
D12*
X209216666Y-121382619D02*
X209216666Y-122096904D01*
X209216666Y-122096904D02*
X209169047Y-122239761D01*
X209169047Y-122239761D02*
X209073809Y-122335000D01*
X209073809Y-122335000D02*
X208930952Y-122382619D01*
X208930952Y-122382619D02*
X208835714Y-122382619D01*
X209597619Y-121382619D02*
X210264285Y-121382619D01*
X210264285Y-121382619D02*
X209835714Y-122382619D01*
D10*
X200493333Y-53707380D02*
X200445714Y-53755000D01*
X200445714Y-53755000D02*
X200302857Y-53802619D01*
X200302857Y-53802619D02*
X200207619Y-53802619D01*
X200207619Y-53802619D02*
X200064762Y-53755000D01*
X200064762Y-53755000D02*
X199969524Y-53659761D01*
X199969524Y-53659761D02*
X199921905Y-53564523D01*
X199921905Y-53564523D02*
X199874286Y-53374047D01*
X199874286Y-53374047D02*
X199874286Y-53231190D01*
X199874286Y-53231190D02*
X199921905Y-53040714D01*
X199921905Y-53040714D02*
X199969524Y-52945476D01*
X199969524Y-52945476D02*
X200064762Y-52850238D01*
X200064762Y-52850238D02*
X200207619Y-52802619D01*
X200207619Y-52802619D02*
X200302857Y-52802619D01*
X200302857Y-52802619D02*
X200445714Y-52850238D01*
X200445714Y-52850238D02*
X200493333Y-52897857D01*
X200969524Y-53802619D02*
X201160000Y-53802619D01*
X201160000Y-53802619D02*
X201255238Y-53755000D01*
X201255238Y-53755000D02*
X201302857Y-53707380D01*
X201302857Y-53707380D02*
X201398095Y-53564523D01*
X201398095Y-53564523D02*
X201445714Y-53374047D01*
X201445714Y-53374047D02*
X201445714Y-52993095D01*
X201445714Y-52993095D02*
X201398095Y-52897857D01*
X201398095Y-52897857D02*
X201350476Y-52850238D01*
X201350476Y-52850238D02*
X201255238Y-52802619D01*
X201255238Y-52802619D02*
X201064762Y-52802619D01*
X201064762Y-52802619D02*
X200969524Y-52850238D01*
X200969524Y-52850238D02*
X200921905Y-52897857D01*
X200921905Y-52897857D02*
X200874286Y-52993095D01*
X200874286Y-52993095D02*
X200874286Y-53231190D01*
X200874286Y-53231190D02*
X200921905Y-53326428D01*
X200921905Y-53326428D02*
X200969524Y-53374047D01*
X200969524Y-53374047D02*
X201064762Y-53421666D01*
X201064762Y-53421666D02*
X201255238Y-53421666D01*
X201255238Y-53421666D02*
X201350476Y-53374047D01*
X201350476Y-53374047D02*
X201398095Y-53326428D01*
X201398095Y-53326428D02*
X201445714Y-53231190D01*
X188620833Y-91817619D02*
X188287500Y-91341428D01*
X188049405Y-91817619D02*
X188049405Y-90817619D01*
X188049405Y-90817619D02*
X188430357Y-90817619D01*
X188430357Y-90817619D02*
X188525595Y-90865238D01*
X188525595Y-90865238D02*
X188573214Y-90912857D01*
X188573214Y-90912857D02*
X188620833Y-91008095D01*
X188620833Y-91008095D02*
X188620833Y-91150952D01*
X188620833Y-91150952D02*
X188573214Y-91246190D01*
X188573214Y-91246190D02*
X188525595Y-91293809D01*
X188525595Y-91293809D02*
X188430357Y-91341428D01*
X188430357Y-91341428D02*
X188049405Y-91341428D01*
X189477976Y-91150952D02*
X189477976Y-91817619D01*
X189239881Y-90770000D02*
X189001786Y-91484285D01*
X189001786Y-91484285D02*
X189620833Y-91484285D01*
X52008809Y-110538333D02*
X52008809Y-110871666D01*
X52532619Y-110871666D02*
X51532619Y-110871666D01*
X51532619Y-110871666D02*
X51532619Y-110395476D01*
X52532619Y-109490714D02*
X52532619Y-110062142D01*
X52532619Y-109776428D02*
X51532619Y-109776428D01*
X51532619Y-109776428D02*
X51675476Y-109871666D01*
X51675476Y-109871666D02*
X51770714Y-109966904D01*
X51770714Y-109966904D02*
X51818333Y-110062142D01*
D12*
X221916666Y-74392619D02*
X221916666Y-75106904D01*
X221916666Y-75106904D02*
X221869047Y-75249761D01*
X221869047Y-75249761D02*
X221773809Y-75345000D01*
X221773809Y-75345000D02*
X221630952Y-75392619D01*
X221630952Y-75392619D02*
X221535714Y-75392619D01*
X222821428Y-74392619D02*
X222630952Y-74392619D01*
X222630952Y-74392619D02*
X222535714Y-74440238D01*
X222535714Y-74440238D02*
X222488095Y-74487857D01*
X222488095Y-74487857D02*
X222392857Y-74630714D01*
X222392857Y-74630714D02*
X222345238Y-74821190D01*
X222345238Y-74821190D02*
X222345238Y-75202142D01*
X222345238Y-75202142D02*
X222392857Y-75297380D01*
X222392857Y-75297380D02*
X222440476Y-75345000D01*
X222440476Y-75345000D02*
X222535714Y-75392619D01*
X222535714Y-75392619D02*
X222726190Y-75392619D01*
X222726190Y-75392619D02*
X222821428Y-75345000D01*
X222821428Y-75345000D02*
X222869047Y-75297380D01*
X222869047Y-75297380D02*
X222916666Y-75202142D01*
X222916666Y-75202142D02*
X222916666Y-74964047D01*
X222916666Y-74964047D02*
X222869047Y-74868809D01*
X222869047Y-74868809D02*
X222821428Y-74821190D01*
X222821428Y-74821190D02*
X222726190Y-74773571D01*
X222726190Y-74773571D02*
X222535714Y-74773571D01*
X222535714Y-74773571D02*
X222440476Y-74821190D01*
X222440476Y-74821190D02*
X222392857Y-74868809D01*
X222392857Y-74868809D02*
X222345238Y-74964047D01*
D10*
X171958095Y-101062619D02*
X171958095Y-101872142D01*
X171958095Y-101872142D02*
X172005714Y-101967380D01*
X172005714Y-101967380D02*
X172053333Y-102015000D01*
X172053333Y-102015000D02*
X172148571Y-102062619D01*
X172148571Y-102062619D02*
X172339047Y-102062619D01*
X172339047Y-102062619D02*
X172434285Y-102015000D01*
X172434285Y-102015000D02*
X172481904Y-101967380D01*
X172481904Y-101967380D02*
X172529523Y-101872142D01*
X172529523Y-101872142D02*
X172529523Y-101062619D01*
X173529523Y-102062619D02*
X172958095Y-102062619D01*
X173243809Y-102062619D02*
X173243809Y-101062619D01*
X173243809Y-101062619D02*
X173148571Y-101205476D01*
X173148571Y-101205476D02*
X173053333Y-101300714D01*
X173053333Y-101300714D02*
X172958095Y-101348333D01*
D12*
X221916666Y-56612619D02*
X221916666Y-57326904D01*
X221916666Y-57326904D02*
X221869047Y-57469761D01*
X221869047Y-57469761D02*
X221773809Y-57565000D01*
X221773809Y-57565000D02*
X221630952Y-57612619D01*
X221630952Y-57612619D02*
X221535714Y-57612619D01*
X222869047Y-56612619D02*
X222392857Y-56612619D01*
X222392857Y-56612619D02*
X222345238Y-57088809D01*
X222345238Y-57088809D02*
X222392857Y-57041190D01*
X222392857Y-57041190D02*
X222488095Y-56993571D01*
X222488095Y-56993571D02*
X222726190Y-56993571D01*
X222726190Y-56993571D02*
X222821428Y-57041190D01*
X222821428Y-57041190D02*
X222869047Y-57088809D01*
X222869047Y-57088809D02*
X222916666Y-57184047D01*
X222916666Y-57184047D02*
X222916666Y-57422142D01*
X222916666Y-57422142D02*
X222869047Y-57517380D01*
X222869047Y-57517380D02*
X222821428Y-57565000D01*
X222821428Y-57565000D02*
X222726190Y-57612619D01*
X222726190Y-57612619D02*
X222488095Y-57612619D01*
X222488095Y-57612619D02*
X222392857Y-57565000D01*
X222392857Y-57565000D02*
X222345238Y-57517380D01*
X57507619Y-54541319D02*
X57507619Y-55969890D01*
X57507619Y-55969890D02*
X57412380Y-56255604D01*
X57412380Y-56255604D02*
X57221904Y-56446081D01*
X57221904Y-56446081D02*
X56936190Y-56541319D01*
X56936190Y-56541319D02*
X56745714Y-56541319D01*
X59507619Y-56541319D02*
X58364762Y-56541319D01*
X58936190Y-56541319D02*
X58936190Y-54541319D01*
X58936190Y-54541319D02*
X58745714Y-54827033D01*
X58745714Y-54827033D02*
X58555238Y-55017509D01*
X58555238Y-55017509D02*
X58364762Y-55112747D01*
X136152333Y-73260619D02*
X135676143Y-73260619D01*
X135676143Y-73260619D02*
X135676143Y-72260619D01*
X136438048Y-72355857D02*
X136485667Y-72308238D01*
X136485667Y-72308238D02*
X136580905Y-72260619D01*
X136580905Y-72260619D02*
X136819000Y-72260619D01*
X136819000Y-72260619D02*
X136914238Y-72308238D01*
X136914238Y-72308238D02*
X136961857Y-72355857D01*
X136961857Y-72355857D02*
X137009476Y-72451095D01*
X137009476Y-72451095D02*
X137009476Y-72546333D01*
X137009476Y-72546333D02*
X136961857Y-72689190D01*
X136961857Y-72689190D02*
X136390429Y-73260619D01*
X136390429Y-73260619D02*
X137009476Y-73260619D01*
D10*
X119213333Y-72757380D02*
X119165714Y-72805000D01*
X119165714Y-72805000D02*
X119022857Y-72852619D01*
X119022857Y-72852619D02*
X118927619Y-72852619D01*
X118927619Y-72852619D02*
X118784762Y-72805000D01*
X118784762Y-72805000D02*
X118689524Y-72709761D01*
X118689524Y-72709761D02*
X118641905Y-72614523D01*
X118641905Y-72614523D02*
X118594286Y-72424047D01*
X118594286Y-72424047D02*
X118594286Y-72281190D01*
X118594286Y-72281190D02*
X118641905Y-72090714D01*
X118641905Y-72090714D02*
X118689524Y-71995476D01*
X118689524Y-71995476D02*
X118784762Y-71900238D01*
X118784762Y-71900238D02*
X118927619Y-71852619D01*
X118927619Y-71852619D02*
X119022857Y-71852619D01*
X119022857Y-71852619D02*
X119165714Y-71900238D01*
X119165714Y-71900238D02*
X119213333Y-71947857D01*
X119546667Y-71852619D02*
X120165714Y-71852619D01*
X120165714Y-71852619D02*
X119832381Y-72233571D01*
X119832381Y-72233571D02*
X119975238Y-72233571D01*
X119975238Y-72233571D02*
X120070476Y-72281190D01*
X120070476Y-72281190D02*
X120118095Y-72328809D01*
X120118095Y-72328809D02*
X120165714Y-72424047D01*
X120165714Y-72424047D02*
X120165714Y-72662142D01*
X120165714Y-72662142D02*
X120118095Y-72757380D01*
X120118095Y-72757380D02*
X120070476Y-72805000D01*
X120070476Y-72805000D02*
X119975238Y-72852619D01*
X119975238Y-72852619D02*
X119689524Y-72852619D01*
X119689524Y-72852619D02*
X119594286Y-72805000D01*
X119594286Y-72805000D02*
X119546667Y-72757380D01*
X169955833Y-88177619D02*
X169622500Y-87701428D01*
X169384405Y-88177619D02*
X169384405Y-87177619D01*
X169384405Y-87177619D02*
X169765357Y-87177619D01*
X169765357Y-87177619D02*
X169860595Y-87225238D01*
X169860595Y-87225238D02*
X169908214Y-87272857D01*
X169908214Y-87272857D02*
X169955833Y-87368095D01*
X169955833Y-87368095D02*
X169955833Y-87510952D01*
X169955833Y-87510952D02*
X169908214Y-87606190D01*
X169908214Y-87606190D02*
X169860595Y-87653809D01*
X169860595Y-87653809D02*
X169765357Y-87701428D01*
X169765357Y-87701428D02*
X169384405Y-87701428D01*
X170908214Y-88177619D02*
X170336786Y-88177619D01*
X170622500Y-88177619D02*
X170622500Y-87177619D01*
X170622500Y-87177619D02*
X170527262Y-87320476D01*
X170527262Y-87320476D02*
X170432024Y-87415714D01*
X170432024Y-87415714D02*
X170336786Y-87463333D01*
X159278333Y-93425380D02*
X159230714Y-93473000D01*
X159230714Y-93473000D02*
X159087857Y-93520619D01*
X159087857Y-93520619D02*
X158992619Y-93520619D01*
X158992619Y-93520619D02*
X158849762Y-93473000D01*
X158849762Y-93473000D02*
X158754524Y-93377761D01*
X158754524Y-93377761D02*
X158706905Y-93282523D01*
X158706905Y-93282523D02*
X158659286Y-93092047D01*
X158659286Y-93092047D02*
X158659286Y-92949190D01*
X158659286Y-92949190D02*
X158706905Y-92758714D01*
X158706905Y-92758714D02*
X158754524Y-92663476D01*
X158754524Y-92663476D02*
X158849762Y-92568238D01*
X158849762Y-92568238D02*
X158992619Y-92520619D01*
X158992619Y-92520619D02*
X159087857Y-92520619D01*
X159087857Y-92520619D02*
X159230714Y-92568238D01*
X159230714Y-92568238D02*
X159278333Y-92615857D01*
X160183095Y-92520619D02*
X159706905Y-92520619D01*
X159706905Y-92520619D02*
X159659286Y-92996809D01*
X159659286Y-92996809D02*
X159706905Y-92949190D01*
X159706905Y-92949190D02*
X159802143Y-92901571D01*
X159802143Y-92901571D02*
X160040238Y-92901571D01*
X160040238Y-92901571D02*
X160135476Y-92949190D01*
X160135476Y-92949190D02*
X160183095Y-92996809D01*
X160183095Y-92996809D02*
X160230714Y-93092047D01*
X160230714Y-93092047D02*
X160230714Y-93330142D01*
X160230714Y-93330142D02*
X160183095Y-93425380D01*
X160183095Y-93425380D02*
X160135476Y-93473000D01*
X160135476Y-93473000D02*
X160040238Y-93520619D01*
X160040238Y-93520619D02*
X159802143Y-93520619D01*
X159802143Y-93520619D02*
X159706905Y-93473000D01*
X159706905Y-93473000D02*
X159659286Y-93425380D01*
X193950833Y-91817619D02*
X193617500Y-91341428D01*
X193379405Y-91817619D02*
X193379405Y-90817619D01*
X193379405Y-90817619D02*
X193760357Y-90817619D01*
X193760357Y-90817619D02*
X193855595Y-90865238D01*
X193855595Y-90865238D02*
X193903214Y-90912857D01*
X193903214Y-90912857D02*
X193950833Y-91008095D01*
X193950833Y-91008095D02*
X193950833Y-91150952D01*
X193950833Y-91150952D02*
X193903214Y-91246190D01*
X193903214Y-91246190D02*
X193855595Y-91293809D01*
X193855595Y-91293809D02*
X193760357Y-91341428D01*
X193760357Y-91341428D02*
X193379405Y-91341428D01*
X194331786Y-90912857D02*
X194379405Y-90865238D01*
X194379405Y-90865238D02*
X194474643Y-90817619D01*
X194474643Y-90817619D02*
X194712738Y-90817619D01*
X194712738Y-90817619D02*
X194807976Y-90865238D01*
X194807976Y-90865238D02*
X194855595Y-90912857D01*
X194855595Y-90912857D02*
X194903214Y-91008095D01*
X194903214Y-91008095D02*
X194903214Y-91103333D01*
X194903214Y-91103333D02*
X194855595Y-91246190D01*
X194855595Y-91246190D02*
X194284167Y-91817619D01*
X194284167Y-91817619D02*
X194903214Y-91817619D01*
X174178754Y-107550566D02*
X174131135Y-107598186D01*
X174131135Y-107598186D02*
X173988278Y-107645805D01*
X173988278Y-107645805D02*
X173893040Y-107645805D01*
X173893040Y-107645805D02*
X173750183Y-107598186D01*
X173750183Y-107598186D02*
X173654945Y-107502947D01*
X173654945Y-107502947D02*
X173607326Y-107407709D01*
X173607326Y-107407709D02*
X173559707Y-107217233D01*
X173559707Y-107217233D02*
X173559707Y-107074376D01*
X173559707Y-107074376D02*
X173607326Y-106883900D01*
X173607326Y-106883900D02*
X173654945Y-106788662D01*
X173654945Y-106788662D02*
X173750183Y-106693424D01*
X173750183Y-106693424D02*
X173893040Y-106645805D01*
X173893040Y-106645805D02*
X173988278Y-106645805D01*
X173988278Y-106645805D02*
X174131135Y-106693424D01*
X174131135Y-106693424D02*
X174178754Y-106741043D01*
X174512088Y-106645805D02*
X175178754Y-106645805D01*
X175178754Y-106645805D02*
X174750183Y-107645805D01*
D12*
X98758476Y-110444619D02*
X98758476Y-109444619D01*
X98758476Y-109444619D02*
X99091809Y-110158904D01*
X99091809Y-110158904D02*
X99425142Y-109444619D01*
X99425142Y-109444619D02*
X99425142Y-110444619D01*
X100425142Y-110444619D02*
X99853714Y-110444619D01*
X100139428Y-110444619D02*
X100139428Y-109444619D01*
X100139428Y-109444619D02*
X100044190Y-109587476D01*
X100044190Y-109587476D02*
X99948952Y-109682714D01*
X99948952Y-109682714D02*
X99853714Y-109730333D01*
D10*
X175285833Y-88177619D02*
X174952500Y-87701428D01*
X174714405Y-88177619D02*
X174714405Y-87177619D01*
X174714405Y-87177619D02*
X175095357Y-87177619D01*
X175095357Y-87177619D02*
X175190595Y-87225238D01*
X175190595Y-87225238D02*
X175238214Y-87272857D01*
X175238214Y-87272857D02*
X175285833Y-87368095D01*
X175285833Y-87368095D02*
X175285833Y-87510952D01*
X175285833Y-87510952D02*
X175238214Y-87606190D01*
X175238214Y-87606190D02*
X175190595Y-87653809D01*
X175190595Y-87653809D02*
X175095357Y-87701428D01*
X175095357Y-87701428D02*
X174714405Y-87701428D01*
X175619167Y-87177619D02*
X176238214Y-87177619D01*
X176238214Y-87177619D02*
X175904881Y-87558571D01*
X175904881Y-87558571D02*
X176047738Y-87558571D01*
X176047738Y-87558571D02*
X176142976Y-87606190D01*
X176142976Y-87606190D02*
X176190595Y-87653809D01*
X176190595Y-87653809D02*
X176238214Y-87749047D01*
X176238214Y-87749047D02*
X176238214Y-87987142D01*
X176238214Y-87987142D02*
X176190595Y-88082380D01*
X176190595Y-88082380D02*
X176142976Y-88130000D01*
X176142976Y-88130000D02*
X176047738Y-88177619D01*
X176047738Y-88177619D02*
X175762024Y-88177619D01*
X175762024Y-88177619D02*
X175666786Y-88130000D01*
X175666786Y-88130000D02*
X175619167Y-88082380D01*
D12*
X98893333Y-72852619D02*
X98417143Y-72852619D01*
X98417143Y-72852619D02*
X98417143Y-71852619D01*
X99750476Y-72852619D02*
X99179048Y-72852619D01*
X99464762Y-72852619D02*
X99464762Y-71852619D01*
X99464762Y-71852619D02*
X99369524Y-71995476D01*
X99369524Y-71995476D02*
X99274286Y-72090714D01*
X99274286Y-72090714D02*
X99179048Y-72138333D01*
D10*
X181873333Y-90255380D02*
X181825714Y-90303000D01*
X181825714Y-90303000D02*
X181682857Y-90350619D01*
X181682857Y-90350619D02*
X181587619Y-90350619D01*
X181587619Y-90350619D02*
X181444762Y-90303000D01*
X181444762Y-90303000D02*
X181349524Y-90207761D01*
X181349524Y-90207761D02*
X181301905Y-90112523D01*
X181301905Y-90112523D02*
X181254286Y-89922047D01*
X181254286Y-89922047D02*
X181254286Y-89779190D01*
X181254286Y-89779190D02*
X181301905Y-89588714D01*
X181301905Y-89588714D02*
X181349524Y-89493476D01*
X181349524Y-89493476D02*
X181444762Y-89398238D01*
X181444762Y-89398238D02*
X181587619Y-89350619D01*
X181587619Y-89350619D02*
X181682857Y-89350619D01*
X181682857Y-89350619D02*
X181825714Y-89398238D01*
X181825714Y-89398238D02*
X181873333Y-89445857D01*
X182444762Y-89779190D02*
X182349524Y-89731571D01*
X182349524Y-89731571D02*
X182301905Y-89683952D01*
X182301905Y-89683952D02*
X182254286Y-89588714D01*
X182254286Y-89588714D02*
X182254286Y-89541095D01*
X182254286Y-89541095D02*
X182301905Y-89445857D01*
X182301905Y-89445857D02*
X182349524Y-89398238D01*
X182349524Y-89398238D02*
X182444762Y-89350619D01*
X182444762Y-89350619D02*
X182635238Y-89350619D01*
X182635238Y-89350619D02*
X182730476Y-89398238D01*
X182730476Y-89398238D02*
X182778095Y-89445857D01*
X182778095Y-89445857D02*
X182825714Y-89541095D01*
X182825714Y-89541095D02*
X182825714Y-89588714D01*
X182825714Y-89588714D02*
X182778095Y-89683952D01*
X182778095Y-89683952D02*
X182730476Y-89731571D01*
X182730476Y-89731571D02*
X182635238Y-89779190D01*
X182635238Y-89779190D02*
X182444762Y-89779190D01*
X182444762Y-89779190D02*
X182349524Y-89826809D01*
X182349524Y-89826809D02*
X182301905Y-89874428D01*
X182301905Y-89874428D02*
X182254286Y-89969666D01*
X182254286Y-89969666D02*
X182254286Y-90160142D01*
X182254286Y-90160142D02*
X182301905Y-90255380D01*
X182301905Y-90255380D02*
X182349524Y-90303000D01*
X182349524Y-90303000D02*
X182444762Y-90350619D01*
X182444762Y-90350619D02*
X182635238Y-90350619D01*
X182635238Y-90350619D02*
X182730476Y-90303000D01*
X182730476Y-90303000D02*
X182778095Y-90255380D01*
X182778095Y-90255380D02*
X182825714Y-90160142D01*
X182825714Y-90160142D02*
X182825714Y-89969666D01*
X182825714Y-89969666D02*
X182778095Y-89874428D01*
X182778095Y-89874428D02*
X182730476Y-89826809D01*
X182730476Y-89826809D02*
X182635238Y-89779190D01*
X150166905Y-129430619D02*
X150166905Y-128430619D01*
X150166905Y-128430619D02*
X150405000Y-128430619D01*
X150405000Y-128430619D02*
X150547857Y-128478238D01*
X150547857Y-128478238D02*
X150643095Y-128573476D01*
X150643095Y-128573476D02*
X150690714Y-128668714D01*
X150690714Y-128668714D02*
X150738333Y-128859190D01*
X150738333Y-128859190D02*
X150738333Y-129002047D01*
X150738333Y-129002047D02*
X150690714Y-129192523D01*
X150690714Y-129192523D02*
X150643095Y-129287761D01*
X150643095Y-129287761D02*
X150547857Y-129383000D01*
X150547857Y-129383000D02*
X150405000Y-129430619D01*
X150405000Y-129430619D02*
X150166905Y-129430619D01*
X151690714Y-129430619D02*
X151119286Y-129430619D01*
X151405000Y-129430619D02*
X151405000Y-128430619D01*
X151405000Y-128430619D02*
X151309762Y-128573476D01*
X151309762Y-128573476D02*
X151214524Y-128668714D01*
X151214524Y-128668714D02*
X151119286Y-128716333D01*
X158583333Y-74027380D02*
X158535714Y-74075000D01*
X158535714Y-74075000D02*
X158392857Y-74122619D01*
X158392857Y-74122619D02*
X158297619Y-74122619D01*
X158297619Y-74122619D02*
X158154762Y-74075000D01*
X158154762Y-74075000D02*
X158059524Y-73979761D01*
X158059524Y-73979761D02*
X158011905Y-73884523D01*
X158011905Y-73884523D02*
X157964286Y-73694047D01*
X157964286Y-73694047D02*
X157964286Y-73551190D01*
X157964286Y-73551190D02*
X158011905Y-73360714D01*
X158011905Y-73360714D02*
X158059524Y-73265476D01*
X158059524Y-73265476D02*
X158154762Y-73170238D01*
X158154762Y-73170238D02*
X158297619Y-73122619D01*
X158297619Y-73122619D02*
X158392857Y-73122619D01*
X158392857Y-73122619D02*
X158535714Y-73170238D01*
X158535714Y-73170238D02*
X158583333Y-73217857D01*
X159440476Y-73455952D02*
X159440476Y-74122619D01*
X159202381Y-73075000D02*
X158964286Y-73789285D01*
X158964286Y-73789285D02*
X159583333Y-73789285D01*
D12*
X177466666Y-127224619D02*
X177466666Y-127938904D01*
X177466666Y-127938904D02*
X177419047Y-128081761D01*
X177419047Y-128081761D02*
X177323809Y-128177000D01*
X177323809Y-128177000D02*
X177180952Y-128224619D01*
X177180952Y-128224619D02*
X177085714Y-128224619D01*
X177895238Y-127319857D02*
X177942857Y-127272238D01*
X177942857Y-127272238D02*
X178038095Y-127224619D01*
X178038095Y-127224619D02*
X178276190Y-127224619D01*
X178276190Y-127224619D02*
X178371428Y-127272238D01*
X178371428Y-127272238D02*
X178419047Y-127319857D01*
X178419047Y-127319857D02*
X178466666Y-127415095D01*
X178466666Y-127415095D02*
X178466666Y-127510333D01*
X178466666Y-127510333D02*
X178419047Y-127653190D01*
X178419047Y-127653190D02*
X177847619Y-128224619D01*
X177847619Y-128224619D02*
X178466666Y-128224619D01*
D10*
X225726666Y-122402619D02*
X225726666Y-123116904D01*
X225726666Y-123116904D02*
X225679047Y-123259761D01*
X225679047Y-123259761D02*
X225583809Y-123355000D01*
X225583809Y-123355000D02*
X225440952Y-123402619D01*
X225440952Y-123402619D02*
X225345714Y-123402619D01*
X226107619Y-122402619D02*
X226726666Y-122402619D01*
X226726666Y-122402619D02*
X226393333Y-122783571D01*
X226393333Y-122783571D02*
X226536190Y-122783571D01*
X226536190Y-122783571D02*
X226631428Y-122831190D01*
X226631428Y-122831190D02*
X226679047Y-122878809D01*
X226679047Y-122878809D02*
X226726666Y-122974047D01*
X226726666Y-122974047D02*
X226726666Y-123212142D01*
X226726666Y-123212142D02*
X226679047Y-123307380D01*
X226679047Y-123307380D02*
X226631428Y-123355000D01*
X226631428Y-123355000D02*
X226536190Y-123402619D01*
X226536190Y-123402619D02*
X226250476Y-123402619D01*
X226250476Y-123402619D02*
X226155238Y-123355000D01*
X226155238Y-123355000D02*
X226107619Y-123307380D01*
X176363333Y-126192619D02*
X175887143Y-126192619D01*
X175887143Y-126192619D02*
X175887143Y-125192619D01*
X176601429Y-125192619D02*
X177220476Y-125192619D01*
X177220476Y-125192619D02*
X176887143Y-125573571D01*
X176887143Y-125573571D02*
X177030000Y-125573571D01*
X177030000Y-125573571D02*
X177125238Y-125621190D01*
X177125238Y-125621190D02*
X177172857Y-125668809D01*
X177172857Y-125668809D02*
X177220476Y-125764047D01*
X177220476Y-125764047D02*
X177220476Y-126002142D01*
X177220476Y-126002142D02*
X177172857Y-126097380D01*
X177172857Y-126097380D02*
X177125238Y-126145000D01*
X177125238Y-126145000D02*
X177030000Y-126192619D01*
X177030000Y-126192619D02*
X176744286Y-126192619D01*
X176744286Y-126192619D02*
X176649048Y-126145000D01*
X176649048Y-126145000D02*
X176601429Y-126097380D01*
D13*
X148180000Y-119597698D02*
X148180000Y-118797698D01*
X147780000Y-119197698D02*
X148580000Y-119197698D01*
X146415000Y-115188000D02*
X154575000Y-115188000D01*
X146415000Y-115148000D02*
X154575000Y-115148000D01*
X146415000Y-115108000D02*
X154575000Y-115108000D01*
X146416000Y-115068000D02*
X154574000Y-115068000D01*
X146418000Y-115028000D02*
X154572000Y-115028000D01*
X146419000Y-114988000D02*
X154571000Y-114988000D01*
X146421000Y-114948000D02*
X154569000Y-114948000D01*
X146424000Y-114908000D02*
X154566000Y-114908000D01*
X146427000Y-114868000D02*
X154563000Y-114868000D01*
X146430000Y-114828000D02*
X154560000Y-114828000D01*
X146434000Y-114788000D02*
X154556000Y-114788000D01*
X146438000Y-114748000D02*
X154552000Y-114748000D01*
X146443000Y-114708000D02*
X154547000Y-114708000D01*
X146447000Y-114668000D02*
X154543000Y-114668000D01*
X146453000Y-114628000D02*
X154537000Y-114628000D01*
X146458000Y-114588000D02*
X154532000Y-114588000D01*
X146465000Y-114548000D02*
X154525000Y-114548000D01*
X146471000Y-114508000D02*
X154519000Y-114508000D01*
X146478000Y-114467000D02*
X149455000Y-114467000D01*
X151535000Y-114467000D02*
X154512000Y-114467000D01*
X146485000Y-114427000D02*
X149455000Y-114427000D01*
X151535000Y-114427000D02*
X154505000Y-114427000D01*
X146493000Y-114387000D02*
X149455000Y-114387000D01*
X151535000Y-114387000D02*
X154497000Y-114387000D01*
X146501000Y-114347000D02*
X149455000Y-114347000D01*
X151535000Y-114347000D02*
X154489000Y-114347000D01*
X146510000Y-114307000D02*
X149455000Y-114307000D01*
X151535000Y-114307000D02*
X154480000Y-114307000D01*
X146519000Y-114267000D02*
X149455000Y-114267000D01*
X151535000Y-114267000D02*
X154471000Y-114267000D01*
X146528000Y-114227000D02*
X149455000Y-114227000D01*
X151535000Y-114227000D02*
X154462000Y-114227000D01*
X146538000Y-114187000D02*
X149455000Y-114187000D01*
X151535000Y-114187000D02*
X154452000Y-114187000D01*
X146548000Y-114147000D02*
X149455000Y-114147000D01*
X151535000Y-114147000D02*
X154442000Y-114147000D01*
X146559000Y-114107000D02*
X149455000Y-114107000D01*
X151535000Y-114107000D02*
X154431000Y-114107000D01*
X146570000Y-114067000D02*
X149455000Y-114067000D01*
X151535000Y-114067000D02*
X154420000Y-114067000D01*
X146581000Y-114027000D02*
X149455000Y-114027000D01*
X151535000Y-114027000D02*
X154409000Y-114027000D01*
X146593000Y-113987000D02*
X149455000Y-113987000D01*
X151535000Y-113987000D02*
X154397000Y-113987000D01*
X146606000Y-113947000D02*
X149455000Y-113947000D01*
X151535000Y-113947000D02*
X154384000Y-113947000D01*
X146618000Y-113907000D02*
X149455000Y-113907000D01*
X151535000Y-113907000D02*
X154372000Y-113907000D01*
X146632000Y-113867000D02*
X149455000Y-113867000D01*
X151535000Y-113867000D02*
X154358000Y-113867000D01*
X146645000Y-113827000D02*
X149455000Y-113827000D01*
X151535000Y-113827000D02*
X154345000Y-113827000D01*
X146660000Y-113787000D02*
X149455000Y-113787000D01*
X151535000Y-113787000D02*
X154330000Y-113787000D01*
X146674000Y-113747000D02*
X149455000Y-113747000D01*
X151535000Y-113747000D02*
X154316000Y-113747000D01*
X146690000Y-113707000D02*
X149455000Y-113707000D01*
X151535000Y-113707000D02*
X154300000Y-113707000D01*
X146705000Y-113667000D02*
X149455000Y-113667000D01*
X151535000Y-113667000D02*
X154285000Y-113667000D01*
X146721000Y-113627000D02*
X149455000Y-113627000D01*
X151535000Y-113627000D02*
X154269000Y-113627000D01*
X146738000Y-113587000D02*
X149455000Y-113587000D01*
X151535000Y-113587000D02*
X154252000Y-113587000D01*
X146755000Y-113547000D02*
X149455000Y-113547000D01*
X151535000Y-113547000D02*
X154235000Y-113547000D01*
X146773000Y-113507000D02*
X149455000Y-113507000D01*
X151535000Y-113507000D02*
X154217000Y-113507000D01*
X146791000Y-113467000D02*
X149455000Y-113467000D01*
X151535000Y-113467000D02*
X154199000Y-113467000D01*
X146809000Y-113427000D02*
X149455000Y-113427000D01*
X151535000Y-113427000D02*
X154181000Y-113427000D01*
X146829000Y-113387000D02*
X149455000Y-113387000D01*
X151535000Y-113387000D02*
X154161000Y-113387000D01*
X146848000Y-113347000D02*
X149455000Y-113347000D01*
X151535000Y-113347000D02*
X154142000Y-113347000D01*
X146868000Y-113307000D02*
X149455000Y-113307000D01*
X151535000Y-113307000D02*
X154122000Y-113307000D01*
X146889000Y-113267000D02*
X149455000Y-113267000D01*
X151535000Y-113267000D02*
X154101000Y-113267000D01*
X146911000Y-113227000D02*
X149455000Y-113227000D01*
X151535000Y-113227000D02*
X154079000Y-113227000D01*
X146933000Y-113187000D02*
X149455000Y-113187000D01*
X151535000Y-113187000D02*
X154057000Y-113187000D01*
X146955000Y-113147000D02*
X149455000Y-113147000D01*
X151535000Y-113147000D02*
X154035000Y-113147000D01*
X146978000Y-113107000D02*
X149455000Y-113107000D01*
X151535000Y-113107000D02*
X154012000Y-113107000D01*
X147002000Y-113067000D02*
X149455000Y-113067000D01*
X151535000Y-113067000D02*
X153988000Y-113067000D01*
X147026000Y-113027000D02*
X149455000Y-113027000D01*
X151535000Y-113027000D02*
X153964000Y-113027000D01*
X147051000Y-112987000D02*
X149455000Y-112987000D01*
X151535000Y-112987000D02*
X153939000Y-112987000D01*
X147077000Y-112947000D02*
X149455000Y-112947000D01*
X151535000Y-112947000D02*
X153913000Y-112947000D01*
X147103000Y-112907000D02*
X149455000Y-112907000D01*
X151535000Y-112907000D02*
X153887000Y-112907000D01*
X147130000Y-112867000D02*
X149455000Y-112867000D01*
X151535000Y-112867000D02*
X153860000Y-112867000D01*
X147157000Y-112827000D02*
X149455000Y-112827000D01*
X151535000Y-112827000D02*
X153833000Y-112827000D01*
X147186000Y-112787000D02*
X149455000Y-112787000D01*
X151535000Y-112787000D02*
X153804000Y-112787000D01*
X147215000Y-112747000D02*
X149455000Y-112747000D01*
X151535000Y-112747000D02*
X153775000Y-112747000D01*
X147245000Y-112707000D02*
X149455000Y-112707000D01*
X151535000Y-112707000D02*
X153745000Y-112707000D01*
X147275000Y-112667000D02*
X149455000Y-112667000D01*
X151535000Y-112667000D02*
X153715000Y-112667000D01*
X147306000Y-112627000D02*
X149455000Y-112627000D01*
X151535000Y-112627000D02*
X153684000Y-112627000D01*
X147339000Y-112587000D02*
X149455000Y-112587000D01*
X151535000Y-112587000D02*
X153651000Y-112587000D01*
X147371000Y-112547000D02*
X149455000Y-112547000D01*
X151535000Y-112547000D02*
X153619000Y-112547000D01*
X147405000Y-112507000D02*
X149455000Y-112507000D01*
X151535000Y-112507000D02*
X153585000Y-112507000D01*
X147440000Y-112467000D02*
X149455000Y-112467000D01*
X151535000Y-112467000D02*
X153550000Y-112467000D01*
X147476000Y-112427000D02*
X149455000Y-112427000D01*
X151535000Y-112427000D02*
X153514000Y-112427000D01*
X147512000Y-112387000D02*
X153478000Y-112387000D01*
X147550000Y-112347000D02*
X153440000Y-112347000D01*
X147588000Y-112307000D02*
X153402000Y-112307000D01*
X147628000Y-112267000D02*
X153362000Y-112267000D01*
X147669000Y-112227000D02*
X153321000Y-112227000D01*
X147711000Y-112187000D02*
X153279000Y-112187000D01*
X147754000Y-112147000D02*
X153236000Y-112147000D01*
X147798000Y-112107000D02*
X153192000Y-112107000D01*
X147844000Y-112067000D02*
X153146000Y-112067000D01*
X147891000Y-112027000D02*
X153099000Y-112027000D01*
X147939000Y-111987000D02*
X153051000Y-111987000D01*
X147990000Y-111947000D02*
X153000000Y-111947000D01*
X148041000Y-111907000D02*
X152949000Y-111907000D01*
X148095000Y-111867000D02*
X152895000Y-111867000D01*
X148150000Y-111827000D02*
X152840000Y-111827000D01*
X148208000Y-111787000D02*
X152782000Y-111787000D01*
X148267000Y-111747000D02*
X152723000Y-111747000D01*
X148329000Y-111707000D02*
X152661000Y-111707000D01*
X148393000Y-111667000D02*
X152597000Y-111667000D01*
X148461000Y-111627000D02*
X152529000Y-111627000D01*
X148531000Y-111587000D02*
X152459000Y-111587000D01*
X148605000Y-111547000D02*
X152385000Y-111547000D01*
X148682000Y-111507000D02*
X152308000Y-111507000D01*
X148764000Y-111467000D02*
X152226000Y-111467000D01*
X148850000Y-111427000D02*
X152140000Y-111427000D01*
X148943000Y-111387000D02*
X152047000Y-111387000D01*
X149042000Y-111347000D02*
X151948000Y-111347000D01*
X149149000Y-111307000D02*
X151841000Y-111307000D01*
X149266000Y-111267000D02*
X151724000Y-111267000D01*
X149397000Y-111227000D02*
X151593000Y-111227000D01*
X149547000Y-111187000D02*
X151443000Y-111187000D01*
X149727000Y-111147000D02*
X151263000Y-111147000D01*
X149962000Y-111107000D02*
X151028000Y-111107000D01*
X154615000Y-115188000D02*
G75*
G03*
X154615000Y-115188000I-4120000J0D01*
G01*
X69360000Y-84738000D02*
X73745000Y-84738000D01*
X69360000Y-84738000D02*
X69360000Y-60498000D01*
X76115000Y-84738000D02*
X80500000Y-84738000D01*
X80500000Y-84738000D02*
X80500000Y-60498000D01*
X69360000Y-60498000D02*
X73745000Y-60498000D01*
X76115000Y-60498000D02*
X80500000Y-60498000D01*
D12*
X205740000Y-128270000D02*
X200660000Y-128270000D01*
X200660000Y-128270000D02*
X200660000Y-123190000D01*
X200660000Y-123190000D02*
X205740000Y-123190000D01*
X205740000Y-123190000D02*
X205740000Y-128270000D01*
D13*
X154765000Y-52398000D02*
X154765000Y-54072000D01*
X154765000Y-52398000D02*
X164005000Y-52398000D01*
X154765000Y-55964000D02*
X154765000Y-57638000D01*
X154765000Y-57638000D02*
X164005000Y-57638000D01*
X164005000Y-52398000D02*
X164005000Y-54072000D01*
X164005000Y-55964000D02*
X164005000Y-57638000D01*
X184850000Y-93018000D02*
X179650000Y-93018000D01*
X179650000Y-93018000D02*
X179650000Y-98318000D01*
X184850000Y-94668000D02*
X184850000Y-93018000D01*
X184850000Y-98318000D02*
X184850000Y-96668000D01*
X179650000Y-98318000D02*
X184850000Y-98318000D01*
X184850000Y-94668000D02*
G75*
G03*
X184850000Y-96668000I0J-1000000D01*
G01*
D12*
X207010000Y-123190000D02*
X212090000Y-123190000D01*
X212090000Y-123190000D02*
X212090000Y-128270000D01*
X212090000Y-128270000D02*
X207010000Y-128270000D01*
X207010000Y-128270000D02*
X207010000Y-123190000D01*
D13*
X206280000Y-56688000D02*
X201845000Y-56688000D01*
X206280000Y-56688000D02*
X206280000Y-85928000D01*
X199475000Y-56688000D02*
X195040000Y-56688000D01*
X195040000Y-56688000D02*
X195040000Y-85928000D01*
X206280000Y-85928000D02*
X201845000Y-85928000D01*
X199475000Y-85928000D02*
X195040000Y-85928000D01*
X189514564Y-90445000D02*
X188060436Y-90445000D01*
X189514564Y-88625000D02*
X188060436Y-88625000D01*
X59690000Y-98905000D02*
X58315000Y-98905000D01*
X53340000Y-98905000D02*
X54715000Y-98905000D01*
X59690000Y-105155000D02*
X59690000Y-98905000D01*
X59690000Y-105155000D02*
X58315000Y-105155000D01*
X53340000Y-105155000D02*
X53340000Y-98905000D01*
X53340000Y-105155000D02*
X54715000Y-105155000D01*
X59690000Y-115255000D02*
X58115000Y-115255000D01*
X59015000Y-115255000D02*
X59015000Y-105155000D01*
X54015000Y-115255000D02*
X54015000Y-105155000D01*
X53340000Y-115255000D02*
X54915000Y-115255000D01*
X53340000Y-115255000D02*
X53340000Y-121505000D01*
X59690000Y-121505000D02*
X59690000Y-115255000D01*
X58115000Y-121505000D02*
X59690000Y-121505000D01*
X54915000Y-121505000D02*
X53340000Y-121505000D01*
D12*
X218440000Y-76200000D02*
X226060000Y-76200000D01*
X226060000Y-76200000D02*
X226060000Y-83820000D01*
X226060000Y-83820000D02*
X218440000Y-83820000D01*
X218440000Y-83820000D02*
X218440000Y-76200000D01*
D13*
X160535000Y-111100000D02*
X161485000Y-111100000D01*
X161485000Y-111100000D02*
X161485000Y-116225000D01*
X169985000Y-111100000D02*
X169985000Y-112200000D01*
X170935000Y-111100000D02*
X169985000Y-111100000D01*
X160535000Y-109600000D02*
X160535000Y-111100000D01*
X170935000Y-109600000D02*
X170935000Y-111100000D01*
D12*
X218440000Y-58420000D02*
X226060000Y-58420000D01*
X226060000Y-58420000D02*
X226060000Y-66040000D01*
X226060000Y-66040000D02*
X218440000Y-66040000D01*
X218440000Y-66040000D02*
X218440000Y-58420000D01*
X52070000Y-60325000D02*
X53314600Y-60325000D01*
X53314600Y-60325000D02*
X53314600Y-84582000D01*
X53314600Y-84582000D02*
X52070000Y-84582000D01*
X52070000Y-84582000D02*
X52070000Y-60325000D01*
X53314600Y-60325000D02*
X63754000Y-60325000D01*
X63754000Y-60325000D02*
X63754000Y-84582000D01*
X63754000Y-84582000D02*
X53314600Y-84582000D01*
X53314600Y-84582000D02*
X53314600Y-60325000D01*
X132969000Y-90578000D02*
X145669000Y-90578000D01*
X130429000Y-81688000D02*
X148209000Y-81688000D01*
X130429000Y-63908000D02*
X148209000Y-63908000D01*
X132969000Y-55018000D02*
X145669000Y-55018000D01*
X125603000Y-94388000D02*
X152781000Y-94388000D01*
X152781000Y-94388000D02*
X152781000Y-51208000D01*
X152781000Y-51208000D02*
X125603000Y-51208000D01*
X125603000Y-51208000D02*
X125603000Y-94388000D01*
D13*
X113175000Y-84918000D02*
X117560000Y-84918000D01*
X113175000Y-84918000D02*
X113175000Y-60678000D01*
X119930000Y-84918000D02*
X124315000Y-84918000D01*
X124315000Y-84918000D02*
X124315000Y-60678000D01*
X113175000Y-60678000D02*
X117560000Y-60678000D01*
X119930000Y-60678000D02*
X124315000Y-60678000D01*
X169395436Y-88625000D02*
X170849564Y-88625000D01*
X169395436Y-90445000D02*
X170849564Y-90445000D01*
X164065000Y-91928000D02*
X164065000Y-90254000D01*
X164065000Y-91928000D02*
X154825000Y-91928000D01*
X164065000Y-88362000D02*
X164065000Y-86688000D01*
X164065000Y-86688000D02*
X154825000Y-86688000D01*
X154825000Y-91928000D02*
X154825000Y-90254000D01*
X154825000Y-88362000D02*
X154825000Y-86688000D01*
X194844564Y-90445000D02*
X193390436Y-90445000D01*
X194844564Y-88625000D02*
X193390436Y-88625000D01*
X176120000Y-115379698D02*
X176120000Y-114579698D01*
X175720000Y-114979698D02*
X176520000Y-114979698D01*
X174355000Y-110970000D02*
X182515000Y-110970000D01*
X174355000Y-110930000D02*
X182515000Y-110930000D01*
X174355000Y-110890000D02*
X182515000Y-110890000D01*
X174356000Y-110850000D02*
X182514000Y-110850000D01*
X174358000Y-110810000D02*
X182512000Y-110810000D01*
X174359000Y-110770000D02*
X182511000Y-110770000D01*
X174361000Y-110730000D02*
X182509000Y-110730000D01*
X174364000Y-110690000D02*
X182506000Y-110690000D01*
X174367000Y-110650000D02*
X182503000Y-110650000D01*
X174370000Y-110610000D02*
X182500000Y-110610000D01*
X174374000Y-110570000D02*
X182496000Y-110570000D01*
X174378000Y-110530000D02*
X182492000Y-110530000D01*
X174383000Y-110490000D02*
X182487000Y-110490000D01*
X174387000Y-110450000D02*
X182483000Y-110450000D01*
X174393000Y-110410000D02*
X182477000Y-110410000D01*
X174398000Y-110370000D02*
X182472000Y-110370000D01*
X174405000Y-110330000D02*
X182465000Y-110330000D01*
X174411000Y-110290000D02*
X182459000Y-110290000D01*
X174418000Y-110249000D02*
X177395000Y-110249000D01*
X179475000Y-110249000D02*
X182452000Y-110249000D01*
X174425000Y-110209000D02*
X177395000Y-110209000D01*
X179475000Y-110209000D02*
X182445000Y-110209000D01*
X174433000Y-110169000D02*
X177395000Y-110169000D01*
X179475000Y-110169000D02*
X182437000Y-110169000D01*
X174441000Y-110129000D02*
X177395000Y-110129000D01*
X179475000Y-110129000D02*
X182429000Y-110129000D01*
X174450000Y-110089000D02*
X177395000Y-110089000D01*
X179475000Y-110089000D02*
X182420000Y-110089000D01*
X174459000Y-110049000D02*
X177395000Y-110049000D01*
X179475000Y-110049000D02*
X182411000Y-110049000D01*
X174468000Y-110009000D02*
X177395000Y-110009000D01*
X179475000Y-110009000D02*
X182402000Y-110009000D01*
X174478000Y-109969000D02*
X177395000Y-109969000D01*
X179475000Y-109969000D02*
X182392000Y-109969000D01*
X174488000Y-109929000D02*
X177395000Y-109929000D01*
X179475000Y-109929000D02*
X182382000Y-109929000D01*
X174499000Y-109889000D02*
X177395000Y-109889000D01*
X179475000Y-109889000D02*
X182371000Y-109889000D01*
X174510000Y-109849000D02*
X177395000Y-109849000D01*
X179475000Y-109849000D02*
X182360000Y-109849000D01*
X174521000Y-109809000D02*
X177395000Y-109809000D01*
X179475000Y-109809000D02*
X182349000Y-109809000D01*
X174533000Y-109769000D02*
X177395000Y-109769000D01*
X179475000Y-109769000D02*
X182337000Y-109769000D01*
X174546000Y-109729000D02*
X177395000Y-109729000D01*
X179475000Y-109729000D02*
X182324000Y-109729000D01*
X174558000Y-109689000D02*
X177395000Y-109689000D01*
X179475000Y-109689000D02*
X182312000Y-109689000D01*
X174572000Y-109649000D02*
X177395000Y-109649000D01*
X179475000Y-109649000D02*
X182298000Y-109649000D01*
X174585000Y-109609000D02*
X177395000Y-109609000D01*
X179475000Y-109609000D02*
X182285000Y-109609000D01*
X174600000Y-109569000D02*
X177395000Y-109569000D01*
X179475000Y-109569000D02*
X182270000Y-109569000D01*
X174614000Y-109529000D02*
X177395000Y-109529000D01*
X179475000Y-109529000D02*
X182256000Y-109529000D01*
X174630000Y-109489000D02*
X177395000Y-109489000D01*
X179475000Y-109489000D02*
X182240000Y-109489000D01*
X174645000Y-109449000D02*
X177395000Y-109449000D01*
X179475000Y-109449000D02*
X182225000Y-109449000D01*
X174661000Y-109409000D02*
X177395000Y-109409000D01*
X179475000Y-109409000D02*
X182209000Y-109409000D01*
X174678000Y-109369000D02*
X177395000Y-109369000D01*
X179475000Y-109369000D02*
X182192000Y-109369000D01*
X174695000Y-109329000D02*
X177395000Y-109329000D01*
X179475000Y-109329000D02*
X182175000Y-109329000D01*
X174713000Y-109289000D02*
X177395000Y-109289000D01*
X179475000Y-109289000D02*
X182157000Y-109289000D01*
X174731000Y-109249000D02*
X177395000Y-109249000D01*
X179475000Y-109249000D02*
X182139000Y-109249000D01*
X174749000Y-109209000D02*
X177395000Y-109209000D01*
X179475000Y-109209000D02*
X182121000Y-109209000D01*
X174769000Y-109169000D02*
X177395000Y-109169000D01*
X179475000Y-109169000D02*
X182101000Y-109169000D01*
X174788000Y-109129000D02*
X177395000Y-109129000D01*
X179475000Y-109129000D02*
X182082000Y-109129000D01*
X174808000Y-109089000D02*
X177395000Y-109089000D01*
X179475000Y-109089000D02*
X182062000Y-109089000D01*
X174829000Y-109049000D02*
X177395000Y-109049000D01*
X179475000Y-109049000D02*
X182041000Y-109049000D01*
X174851000Y-109009000D02*
X177395000Y-109009000D01*
X179475000Y-109009000D02*
X182019000Y-109009000D01*
X174873000Y-108969000D02*
X177395000Y-108969000D01*
X179475000Y-108969000D02*
X181997000Y-108969000D01*
X174895000Y-108929000D02*
X177395000Y-108929000D01*
X179475000Y-108929000D02*
X181975000Y-108929000D01*
X174918000Y-108889000D02*
X177395000Y-108889000D01*
X179475000Y-108889000D02*
X181952000Y-108889000D01*
X174942000Y-108849000D02*
X177395000Y-108849000D01*
X179475000Y-108849000D02*
X181928000Y-108849000D01*
X174966000Y-108809000D02*
X177395000Y-108809000D01*
X179475000Y-108809000D02*
X181904000Y-108809000D01*
X174991000Y-108769000D02*
X177395000Y-108769000D01*
X179475000Y-108769000D02*
X181879000Y-108769000D01*
X175017000Y-108729000D02*
X177395000Y-108729000D01*
X179475000Y-108729000D02*
X181853000Y-108729000D01*
X175043000Y-108689000D02*
X177395000Y-108689000D01*
X179475000Y-108689000D02*
X181827000Y-108689000D01*
X175070000Y-108649000D02*
X177395000Y-108649000D01*
X179475000Y-108649000D02*
X181800000Y-108649000D01*
X175097000Y-108609000D02*
X177395000Y-108609000D01*
X179475000Y-108609000D02*
X181773000Y-108609000D01*
X175126000Y-108569000D02*
X177395000Y-108569000D01*
X179475000Y-108569000D02*
X181744000Y-108569000D01*
X175155000Y-108529000D02*
X177395000Y-108529000D01*
X179475000Y-108529000D02*
X181715000Y-108529000D01*
X175185000Y-108489000D02*
X177395000Y-108489000D01*
X179475000Y-108489000D02*
X181685000Y-108489000D01*
X175215000Y-108449000D02*
X177395000Y-108449000D01*
X179475000Y-108449000D02*
X181655000Y-108449000D01*
X175246000Y-108409000D02*
X177395000Y-108409000D01*
X179475000Y-108409000D02*
X181624000Y-108409000D01*
X175279000Y-108369000D02*
X177395000Y-108369000D01*
X179475000Y-108369000D02*
X181591000Y-108369000D01*
X175311000Y-108329000D02*
X177395000Y-108329000D01*
X179475000Y-108329000D02*
X181559000Y-108329000D01*
X175345000Y-108289000D02*
X177395000Y-108289000D01*
X179475000Y-108289000D02*
X181525000Y-108289000D01*
X175380000Y-108249000D02*
X177395000Y-108249000D01*
X179475000Y-108249000D02*
X181490000Y-108249000D01*
X175416000Y-108209000D02*
X177395000Y-108209000D01*
X179475000Y-108209000D02*
X181454000Y-108209000D01*
X175452000Y-108169000D02*
X181418000Y-108169000D01*
X175490000Y-108129000D02*
X181380000Y-108129000D01*
X175528000Y-108089000D02*
X181342000Y-108089000D01*
X175568000Y-108049000D02*
X181302000Y-108049000D01*
X175609000Y-108009000D02*
X181261000Y-108009000D01*
X175651000Y-107969000D02*
X181219000Y-107969000D01*
X175694000Y-107929000D02*
X181176000Y-107929000D01*
X175738000Y-107889000D02*
X181132000Y-107889000D01*
X175784000Y-107849000D02*
X181086000Y-107849000D01*
X175831000Y-107809000D02*
X181039000Y-107809000D01*
X175879000Y-107769000D02*
X180991000Y-107769000D01*
X175930000Y-107729000D02*
X180940000Y-107729000D01*
X175981000Y-107689000D02*
X180889000Y-107689000D01*
X176035000Y-107649000D02*
X180835000Y-107649000D01*
X176090000Y-107609000D02*
X180780000Y-107609000D01*
X176148000Y-107569000D02*
X180722000Y-107569000D01*
X176207000Y-107529000D02*
X180663000Y-107529000D01*
X176269000Y-107489000D02*
X180601000Y-107489000D01*
X176333000Y-107449000D02*
X180537000Y-107449000D01*
X176401000Y-107409000D02*
X180469000Y-107409000D01*
X176471000Y-107369000D02*
X180399000Y-107369000D01*
X176545000Y-107329000D02*
X180325000Y-107329000D01*
X176622000Y-107289000D02*
X180248000Y-107289000D01*
X176704000Y-107249000D02*
X180166000Y-107249000D01*
X176790000Y-107209000D02*
X180080000Y-107209000D01*
X176883000Y-107169000D02*
X179987000Y-107169000D01*
X176982000Y-107129000D02*
X179888000Y-107129000D01*
X177089000Y-107089000D02*
X179781000Y-107089000D01*
X177206000Y-107049000D02*
X179664000Y-107049000D01*
X177337000Y-107009000D02*
X179533000Y-107009000D01*
X177487000Y-106969000D02*
X179383000Y-106969000D01*
X177667000Y-106929000D02*
X179203000Y-106929000D01*
X177902000Y-106889000D02*
X178968000Y-106889000D01*
X182555000Y-110970000D02*
G75*
G03*
X182555000Y-110970000I-4120000J0D01*
G01*
D12*
X68580000Y-100838000D02*
X133350000Y-100838000D01*
X133350000Y-100838000D02*
X133350000Y-131318000D01*
X133350000Y-131318000D02*
X68580000Y-131318000D01*
X68580000Y-131318000D02*
X68580000Y-100838000D01*
X68580000Y-109093000D02*
X62230000Y-109093000D01*
X62230000Y-109093000D02*
X62230000Y-123063000D01*
X62230000Y-123063000D02*
X68580000Y-123063000D01*
X68580000Y-123063000D02*
X68580000Y-109093000D01*
X133350000Y-108966000D02*
X139700000Y-108966000D01*
X139700000Y-108966000D02*
X139700000Y-122936000D01*
X139700000Y-122936000D02*
X133350000Y-122936000D01*
X133350000Y-122936000D02*
X133350000Y-108966000D01*
D13*
X174725436Y-88625000D02*
X176179564Y-88625000D01*
X174725436Y-90445000D02*
X176179564Y-90445000D01*
D12*
X92329000Y-90324000D02*
X105029000Y-90324000D01*
X89789000Y-81434000D02*
X107569000Y-81434000D01*
X89789000Y-63654000D02*
X107569000Y-63654000D01*
X92329000Y-54764000D02*
X105029000Y-54764000D01*
X84963000Y-94134000D02*
X112141000Y-94134000D01*
X112141000Y-94134000D02*
X112141000Y-50954000D01*
X112141000Y-50954000D02*
X84963000Y-50954000D01*
X84963000Y-50954000D02*
X84963000Y-94134000D01*
D13*
X182751252Y-88948000D02*
X181328748Y-88948000D01*
X182751252Y-87128000D02*
X181328748Y-87128000D01*
X155815000Y-128118000D02*
X147305000Y-128118000D01*
X155815000Y-121618000D02*
X155815000Y-128118000D01*
X155815000Y-121618000D02*
X147305000Y-121618000D01*
X153815000Y-84738000D02*
X158200000Y-84738000D01*
X153815000Y-84738000D02*
X153815000Y-60498000D01*
X160570000Y-84738000D02*
X164955000Y-84738000D01*
X164955000Y-84738000D02*
X164955000Y-60498000D01*
X153815000Y-60498000D02*
X158200000Y-60498000D01*
X160570000Y-60498000D02*
X164955000Y-60498000D01*
D12*
X179705000Y-131572000D02*
X196342000Y-131572000D01*
X196342000Y-131572000D02*
X196342000Y-130327400D01*
X196342000Y-130327400D02*
X179705000Y-130327400D01*
X179705000Y-130327400D02*
X179705000Y-131572000D01*
X179705000Y-130327400D02*
X196342000Y-130327400D01*
X196342000Y-130327400D02*
X196342000Y-119888000D01*
X196342000Y-119888000D02*
X179705000Y-119888000D01*
X179705000Y-119888000D02*
X179705000Y-130327400D01*
D13*
X232010000Y-117340000D02*
X232010000Y-116340000D01*
X232010000Y-116340000D02*
X231010000Y-116840000D01*
X231010000Y-116840000D02*
X232010000Y-117340000D01*
X230620000Y-122050000D02*
X221500000Y-122050000D01*
X230620000Y-113810000D02*
X229310000Y-113810000D01*
X230620000Y-101470000D02*
X230620000Y-122050000D01*
X229310000Y-120750000D02*
X222810000Y-120750000D01*
X229310000Y-113810000D02*
X229310000Y-120750000D01*
X229310000Y-109710000D02*
X230620000Y-109710000D01*
X229310000Y-109710000D02*
X229310000Y-109710000D01*
X229310000Y-102770000D02*
X229310000Y-109710000D01*
X222810000Y-120750000D02*
X222810000Y-102770000D01*
X222810000Y-102770000D02*
X229310000Y-102770000D01*
X221500000Y-122050000D02*
X221500000Y-101470000D01*
X221500000Y-101470000D02*
X230620000Y-101470000D01*
X160197000Y-118568000D02*
X172797000Y-118568000D01*
X160197000Y-121568000D02*
X160197000Y-118568000D01*
X160197000Y-131168000D02*
X160197000Y-128168000D01*
X172797000Y-118568000D02*
X172797000Y-121568000D01*
X172797000Y-128168000D02*
X172797000Y-131168000D01*
X172797000Y-131168000D02*
X160197000Y-131168000D01*
%LPC*%
D14*
X52705000Y-51208000D03*
D15*
X150495000Y-116938000D03*
D16*
X150495000Y-113438000D03*
D17*
X74930000Y-83868000D03*
X74930000Y-61368000D03*
D18*
X203200000Y-125730000D03*
D19*
X155635000Y-55018000D03*
X163135000Y-55018000D03*
D15*
X183520000Y-91858000D03*
D20*
X180980000Y-91858000D03*
X180980000Y-99478000D03*
X183520000Y-99478000D03*
D18*
X209550000Y-125730000D03*
D17*
X200660000Y-57558000D03*
X200660000Y-85058000D03*
D21*
X190250000Y-89535000D03*
X187325000Y-89535000D03*
D22*
X56515000Y-98650000D03*
X56515000Y-105410000D03*
D23*
X56515000Y-115000000D03*
X56515000Y-121760000D03*
D24*
X222250000Y-80010000D03*
D14*
X182880000Y-72798000D03*
D25*
X162335000Y-113925000D03*
X164035000Y-113925000D03*
X165735000Y-113925000D03*
D26*
X165735000Y-104775000D03*
D25*
X167435000Y-113925000D03*
X169135000Y-113925000D03*
D24*
X222250000Y-62230000D03*
D14*
X52705000Y-131218000D03*
D18*
X58420000Y-64770000D03*
X58420000Y-72390000D03*
X58420000Y-80010000D03*
D27*
X129413000Y-90832000D03*
X127635000Y-81942000D03*
X127635000Y-63908000D03*
X129413000Y-55272000D03*
X150749000Y-63908000D03*
X149479000Y-55272000D03*
X149479000Y-90832000D03*
X150749000Y-81942000D03*
D17*
X118745000Y-84048000D03*
X118745000Y-61548000D03*
D28*
X168660000Y-89535000D03*
X171585000Y-89535000D03*
D14*
X229235000Y-131218000D03*
D19*
X163195000Y-89308000D03*
X155695000Y-89308000D03*
D21*
X195580000Y-89535000D03*
X192655000Y-89535000D03*
D15*
X178435000Y-112720000D03*
D16*
X178435000Y-109220000D03*
D18*
X70866000Y-104140000D03*
X70866000Y-128270000D03*
X130810000Y-104140000D03*
X130810000Y-128270000D03*
X64770000Y-112903000D03*
X76200000Y-112776000D03*
X86868000Y-107442000D03*
X64770000Y-119253000D03*
X76200000Y-119126000D03*
X86868000Y-112522000D03*
X114808000Y-115062000D03*
X125222000Y-112776000D03*
X137160000Y-112776000D03*
X114808000Y-125222000D03*
X125222000Y-119126000D03*
X137160000Y-119126000D03*
X114808000Y-120142000D03*
D28*
X173990000Y-89535000D03*
X176915000Y-89535000D03*
D27*
X88773000Y-90578000D03*
X86995000Y-81688000D03*
X86995000Y-63654000D03*
X88773000Y-55018000D03*
X110109000Y-63654000D03*
X108839000Y-55018000D03*
X108839000Y-90578000D03*
X110109000Y-81688000D03*
D29*
X183515000Y-88038000D03*
X180565000Y-88038000D03*
D30*
X154305000Y-124868000D03*
X147505000Y-124868000D03*
D14*
X229235000Y-51208000D03*
D17*
X159385000Y-83868000D03*
X159385000Y-61368000D03*
D18*
X184150000Y-125222000D03*
X191770000Y-125222000D03*
D31*
X227330000Y-116840000D03*
D32*
X224790000Y-116840000D03*
X227330000Y-114300000D03*
X224790000Y-114300000D03*
X227330000Y-111760000D03*
X224790000Y-111760000D03*
X227330000Y-109220000D03*
X224790000Y-109220000D03*
X227330000Y-106680000D03*
X224790000Y-106680000D03*
D33*
X160909000Y-124868000D03*
X172085000Y-124868000D03*
D34*
X168275000Y-80645000D03*
D14*
X168275000Y-75565000D03*
X168275000Y-70485000D03*
X168275000Y-65405000D03*
%LPD*%
M02*
