G04 #@! TF.GenerationSoftware,KiCad,Pcbnew,7.0.2*
G04 #@! TF.CreationDate,2023-08-07T12:58:25+02:00*
G04 #@! TF.ProjectId,Module_3,4d6f6475-6c65-45f3-932e-6b696361645f,rev?*
G04 #@! TF.SameCoordinates,Original*
G04 #@! TF.FileFunction,Copper,L1,Top*
G04 #@! TF.FilePolarity,Positive*
%FSLAX46Y46*%
G04 Gerber Fmt 4.6, Leading zero omitted, Abs format (unit mm)*
G04 Created by KiCad (PCBNEW 7.0.2) date 2023-08-07 12:58:25*
%MOMM*%
%LPD*%
G01*
G04 APERTURE LIST*
G04 Aperture macros list*
%AMRoundRect*
0 Rectangle with rounded corners*
0 $1 Rounding radius*
0 $2 $3 $4 $5 $6 $7 $8 $9 X,Y pos of 4 corners*
0 Add a 4 corners polygon primitive as box body*
4,1,4,$2,$3,$4,$5,$6,$7,$8,$9,$2,$3,0*
0 Add four circle primitives for the rounded corners*
1,1,$1+$1,$2,$3*
1,1,$1+$1,$4,$5*
1,1,$1+$1,$6,$7*
1,1,$1+$1,$8,$9*
0 Add four rect primitives between the rounded corners*
20,1,$1+$1,$2,$3,$4,$5,0*
20,1,$1+$1,$4,$5,$6,$7,0*
20,1,$1+$1,$6,$7,$8,$9,0*
20,1,$1+$1,$8,$9,$2,$3,0*%
G04 Aperture macros list end*
G04 #@! TA.AperFunction,ComponentPad*
%ADD10R,1.600000X1.600000*%
G04 #@! TD*
G04 #@! TA.AperFunction,ComponentPad*
%ADD11C,1.600000*%
G04 #@! TD*
G04 #@! TA.AperFunction,ComponentPad*
%ADD12C,2.400000*%
G04 #@! TD*
G04 #@! TA.AperFunction,ComponentPad*
%ADD13C,3.000000*%
G04 #@! TD*
G04 #@! TA.AperFunction,ComponentPad*
%ADD14C,2.000000*%
G04 #@! TD*
G04 #@! TA.AperFunction,ComponentPad*
%ADD15O,1.600000X1.600000*%
G04 #@! TD*
G04 #@! TA.AperFunction,SMDPad,CuDef*
%ADD16RoundRect,0.250000X0.312500X0.625000X-0.312500X0.625000X-0.312500X-0.625000X0.312500X-0.625000X0*%
G04 #@! TD*
G04 #@! TA.AperFunction,ComponentPad*
%ADD17RoundRect,0.675000X-0.675000X0.675000X-0.675000X-0.675000X0.675000X-0.675000X0.675000X0.675000X0*%
G04 #@! TD*
G04 #@! TA.AperFunction,ComponentPad*
%ADD18C,2.700000*%
G04 #@! TD*
G04 #@! TA.AperFunction,ComponentPad*
%ADD19C,7.000000*%
G04 #@! TD*
G04 #@! TA.AperFunction,SMDPad,CuDef*
%ADD20RoundRect,0.250000X0.300000X-2.050000X0.300000X2.050000X-0.300000X2.050000X-0.300000X-2.050000X0*%
G04 #@! TD*
G04 #@! TA.AperFunction,SMDPad,CuDef*
%ADD21RoundRect,0.250000X2.375000X-2.025000X2.375000X2.025000X-2.375000X2.025000X-2.375000X-2.025000X0*%
G04 #@! TD*
G04 #@! TA.AperFunction,SMDPad,CuDef*
%ADD22RoundRect,0.250002X5.149998X-4.449998X5.149998X4.449998X-5.149998X4.449998X-5.149998X-4.449998X0*%
G04 #@! TD*
G04 #@! TA.AperFunction,ComponentPad*
%ADD23C,3.500000*%
G04 #@! TD*
G04 #@! TA.AperFunction,SMDPad,CuDef*
%ADD24RoundRect,0.250000X-0.312500X-0.625000X0.312500X-0.625000X0.312500X0.625000X-0.312500X0.625000X0*%
G04 #@! TD*
G04 #@! TA.AperFunction,SMDPad,CuDef*
%ADD25RoundRect,0.250000X0.325000X0.650000X-0.325000X0.650000X-0.325000X-0.650000X0.325000X-0.650000X0*%
G04 #@! TD*
G04 #@! TA.AperFunction,SMDPad,CuDef*
%ADD26RoundRect,0.250000X-1.000000X1.400000X-1.000000X-1.400000X1.000000X-1.400000X1.000000X1.400000X0*%
G04 #@! TD*
G04 #@! TA.AperFunction,ComponentPad*
%ADD27RoundRect,0.250000X0.600000X0.600000X-0.600000X0.600000X-0.600000X-0.600000X0.600000X-0.600000X0*%
G04 #@! TD*
G04 #@! TA.AperFunction,ComponentPad*
%ADD28C,1.700000*%
G04 #@! TD*
G04 #@! TA.AperFunction,SMDPad,CuDef*
%ADD29R,4.000000X5.800000*%
G04 #@! TD*
G04 #@! TA.AperFunction,ComponentPad*
%ADD30R,3.200000X3.200000*%
G04 #@! TD*
G04 #@! TA.AperFunction,ComponentPad*
%ADD31C,3.200000*%
G04 #@! TD*
G04 #@! TA.AperFunction,ViaPad*
%ADD32C,1.200000*%
G04 #@! TD*
G04 #@! TA.AperFunction,Conductor*
%ADD33C,2.000000*%
G04 #@! TD*
G04 #@! TA.AperFunction,Conductor*
%ADD34C,1.000000*%
G04 #@! TD*
G04 APERTURE END LIST*
D10*
X150495000Y-116938000D03*
D11*
X150495000Y-113438000D03*
D12*
X74930000Y-83868000D03*
X74930000Y-61368000D03*
D13*
X203200000Y-125730000D03*
D14*
X155635000Y-55018000D03*
X163135000Y-55018000D03*
D10*
X183520000Y-91858000D03*
D15*
X180980000Y-91858000D03*
X180980000Y-99478000D03*
X183520000Y-99478000D03*
D13*
X209550000Y-125730000D03*
D12*
X200660000Y-57558000D03*
X200660000Y-85058000D03*
D16*
X190250000Y-89535000D03*
X187325000Y-89535000D03*
D17*
X56515000Y-98650000D03*
X56515000Y-105410000D03*
D18*
X56515000Y-115000000D03*
X56515000Y-121760000D03*
D19*
X222250000Y-80010000D03*
D20*
X162335000Y-113925000D03*
X164035000Y-113925000D03*
X165735000Y-113925000D03*
D21*
X162960000Y-107200000D03*
X168510000Y-107200000D03*
D22*
X165735000Y-104775000D03*
D21*
X162960000Y-102350000D03*
X168510000Y-102350000D03*
D20*
X167435000Y-113925000D03*
X169135000Y-113925000D03*
D19*
X222250000Y-62230000D03*
D13*
X58420000Y-64770000D03*
X58420000Y-72390000D03*
X58420000Y-80010000D03*
D23*
X129413000Y-90832000D03*
X127635000Y-81942000D03*
X127635000Y-63908000D03*
X129413000Y-55272000D03*
X150749000Y-63908000D03*
X149479000Y-55272000D03*
X149479000Y-90832000D03*
X150749000Y-81942000D03*
D12*
X118745000Y-84048000D03*
X118745000Y-61548000D03*
D24*
X168660000Y-89535000D03*
X171585000Y-89535000D03*
D14*
X163195000Y-89308000D03*
X155695000Y-89308000D03*
D16*
X195580000Y-89535000D03*
X192655000Y-89535000D03*
D10*
X178435000Y-112720000D03*
D11*
X178435000Y-109220000D03*
D13*
X64770000Y-112903000D03*
X76200000Y-112776000D03*
X86868000Y-107442000D03*
X64770000Y-119253000D03*
X76200000Y-119126000D03*
X86868000Y-112522000D03*
X114808000Y-115062000D03*
X125222000Y-112776000D03*
X137160000Y-112776000D03*
X114808000Y-125222000D03*
X125222000Y-119126000D03*
X137160000Y-119126000D03*
X114808000Y-120142000D03*
D24*
X173990000Y-89535000D03*
X176915000Y-89535000D03*
D23*
X88773000Y-90578000D03*
X86995000Y-81688000D03*
X86995000Y-63654000D03*
X88773000Y-55018000D03*
X110109000Y-63654000D03*
X108839000Y-55018000D03*
X108839000Y-90578000D03*
X110109000Y-81688000D03*
D25*
X183515000Y-88038000D03*
X180565000Y-88038000D03*
D26*
X154305000Y-124868000D03*
X147505000Y-124868000D03*
D12*
X159385000Y-83868000D03*
X159385000Y-61368000D03*
D13*
X184150000Y-125222000D03*
X191770000Y-125222000D03*
D27*
X227330000Y-116840000D03*
D28*
X224790000Y-116840000D03*
X227330000Y-114300000D03*
X224790000Y-114300000D03*
X227330000Y-111760000D03*
X224790000Y-111760000D03*
X227330000Y-109220000D03*
X224790000Y-109220000D03*
X227330000Y-106680000D03*
X224790000Y-106680000D03*
D29*
X160909000Y-124868000D03*
X172085000Y-124868000D03*
D30*
X168275000Y-80645000D03*
D31*
X168275000Y-75565000D03*
X168275000Y-70485000D03*
X168275000Y-65405000D03*
D32*
X119380000Y-132080000D03*
X231140000Y-104140000D03*
X231140000Y-121920000D03*
X213360000Y-104140000D03*
X220980000Y-104140000D03*
X175260000Y-104140000D03*
X215900000Y-116840000D03*
X215900000Y-127000000D03*
X157480000Y-106680000D03*
X205740000Y-104140000D03*
X153670000Y-120650000D03*
X144780000Y-121920000D03*
X111760000Y-132080000D03*
X134620000Y-132080000D03*
X198120000Y-104140000D03*
X149860000Y-106680000D03*
X190500000Y-104140000D03*
X154940000Y-129540000D03*
X157480000Y-120650000D03*
X127000000Y-132080000D03*
X215900000Y-121920000D03*
X157480000Y-110490000D03*
X142240000Y-124460000D03*
X144780000Y-127000000D03*
X157480000Y-114300000D03*
X147320000Y-129540000D03*
X182880000Y-104140000D03*
D33*
X154305000Y-124868000D02*
X160909000Y-124868000D01*
D34*
X164035000Y-121742000D02*
X160909000Y-124868000D01*
X164035000Y-113925000D02*
X164035000Y-121742000D01*
D33*
X86868000Y-107442000D02*
X81534000Y-107442000D01*
X88773000Y-90578000D02*
X88773000Y-105537000D01*
X88773000Y-105537000D02*
X86868000Y-107442000D01*
X76200000Y-112776000D02*
X64897000Y-112776000D01*
X81534000Y-107442000D02*
X76200000Y-112776000D01*
X64897000Y-112776000D02*
X64770000Y-112903000D01*
X148307000Y-119126000D02*
X150495000Y-116938000D01*
X137160000Y-128270000D02*
X142875000Y-133985000D01*
X224790000Y-116840000D02*
X227330000Y-116840000D01*
X203200000Y-133985000D02*
X203200000Y-125730000D01*
X142875000Y-133985000D02*
X203200000Y-133985000D01*
X160557000Y-116938000D02*
X150495000Y-116938000D01*
X114808000Y-125222000D02*
X119126000Y-125222000D01*
X222250000Y-128270000D02*
X222250000Y-119380000D01*
X161290000Y-116205000D02*
X160557000Y-116938000D01*
X137160000Y-119126000D02*
X137160000Y-128270000D01*
X216535000Y-133985000D02*
X222250000Y-128270000D01*
X119126000Y-125222000D02*
X125222000Y-119126000D01*
X203200000Y-133985000D02*
X216535000Y-133985000D01*
X125222000Y-119126000D02*
X137160000Y-119126000D01*
X222250000Y-119380000D02*
X224790000Y-116840000D01*
X137160000Y-119126000D02*
X148307000Y-119126000D01*
X161290000Y-113030000D02*
X161290000Y-116205000D01*
X224790000Y-114300000D02*
X224790000Y-111760000D01*
D34*
X167435000Y-113925000D02*
X167435000Y-120218000D01*
D33*
X172085000Y-123288000D02*
X178435000Y-116938000D01*
X187325000Y-113030000D02*
X188595000Y-111760000D01*
X172085000Y-124868000D02*
X172085000Y-123288000D01*
X178435000Y-116938000D02*
X178435000Y-113030000D01*
X188595000Y-111760000D02*
X224790000Y-111760000D01*
X178435000Y-113030000D02*
X187325000Y-113030000D01*
D34*
X167435000Y-120218000D02*
X172085000Y-124868000D01*
X224790000Y-104775000D02*
X224790000Y-106680000D01*
X219493000Y-99478000D02*
X224790000Y-104775000D01*
X183520000Y-99478000D02*
X219493000Y-99478000D01*
D33*
X56515000Y-98650000D02*
X67310000Y-87855000D01*
X63500000Y-64770000D02*
X58420000Y-64770000D01*
X67310000Y-68580000D02*
X63500000Y-64770000D01*
X56515000Y-105410000D02*
X56515000Y-98650000D01*
X67310000Y-87855000D02*
X67310000Y-68580000D01*
X56515000Y-121760000D02*
X56515000Y-118745000D01*
X64643000Y-119380000D02*
X57150000Y-119380000D01*
X64770000Y-119253000D02*
X76073000Y-119253000D01*
X56515000Y-118745000D02*
X56515000Y-115000000D01*
X57150000Y-119380000D02*
X56515000Y-118745000D01*
X80264000Y-119126000D02*
X86868000Y-112522000D01*
X76200000Y-119126000D02*
X80264000Y-119126000D01*
X64770000Y-119253000D02*
X64643000Y-119380000D01*
X76073000Y-119253000D02*
X76200000Y-119126000D01*
D34*
X171585000Y-89535000D02*
X173990000Y-89535000D01*
X190250000Y-89535000D02*
X192655000Y-89535000D01*
X163422000Y-89535000D02*
X163195000Y-89308000D01*
X168660000Y-89535000D02*
X163422000Y-89535000D01*
X165735000Y-85090000D02*
X173990000Y-85090000D01*
X173990000Y-85090000D02*
X175895000Y-83185000D01*
X195580000Y-84455000D02*
X195580000Y-89535000D01*
X163195000Y-73025000D02*
X163195000Y-82550000D01*
X194310000Y-83185000D02*
X195580000Y-84455000D01*
X165735000Y-70485000D02*
X163195000Y-73025000D01*
X168275000Y-70485000D02*
X165735000Y-70485000D01*
X175895000Y-83185000D02*
X194310000Y-83185000D01*
X163195000Y-82550000D02*
X165735000Y-85090000D01*
X182880000Y-85725000D02*
X183515000Y-86360000D01*
X183515000Y-88038000D02*
X183515000Y-91853000D01*
X182880000Y-85725000D02*
X177800000Y-85725000D01*
X183515000Y-86360000D02*
X183515000Y-88038000D01*
X183515000Y-91853000D02*
X183520000Y-91858000D01*
X177800000Y-85725000D02*
X177165000Y-86360000D01*
X177165000Y-86360000D02*
X177165000Y-89285000D01*
X177165000Y-89285000D02*
X176915000Y-89535000D01*
X184785000Y-93980000D02*
X187325000Y-91440000D01*
X187325000Y-91440000D02*
X187325000Y-89535000D01*
X180565000Y-91443000D02*
X180980000Y-91858000D01*
X180565000Y-88038000D02*
X180565000Y-91443000D01*
X180980000Y-91858000D02*
X180980000Y-92705000D01*
X180975000Y-92710000D02*
X182245000Y-93980000D01*
X182245000Y-93980000D02*
X184785000Y-93980000D01*
X180980000Y-92705000D02*
X180975000Y-92710000D01*
G04 #@! TA.AperFunction,Conductor*
G36*
X179651582Y-99079685D02*
G01*
X179697337Y-99132489D01*
X179707281Y-99201647D01*
X179704318Y-99216093D01*
X179701127Y-99227999D01*
X179701128Y-99228000D01*
X180664314Y-99228000D01*
X180652359Y-99239955D01*
X180594835Y-99352852D01*
X180575014Y-99478000D01*
X180594835Y-99603148D01*
X180652359Y-99716045D01*
X180664314Y-99728000D01*
X179701128Y-99728000D01*
X179753733Y-99924326D01*
X179849865Y-100130480D01*
X179980341Y-100316819D01*
X180141180Y-100477658D01*
X180327519Y-100608134D01*
X180533673Y-100704266D01*
X180729999Y-100756871D01*
X180730000Y-100756871D01*
X180730000Y-99793686D01*
X180741955Y-99805641D01*
X180854852Y-99863165D01*
X180948519Y-99878000D01*
X181011481Y-99878000D01*
X181105148Y-99863165D01*
X181218045Y-99805641D01*
X181230000Y-99793686D01*
X181230000Y-100756871D01*
X181426326Y-100704266D01*
X181632480Y-100608134D01*
X181818819Y-100477658D01*
X181979658Y-100316819D01*
X182110135Y-100130479D01*
X182137342Y-100072135D01*
X182183514Y-100019695D01*
X182250707Y-100000543D01*
X182317589Y-100020758D01*
X182362106Y-100072133D01*
X182389433Y-100130736D01*
X182519953Y-100317140D01*
X182680859Y-100478046D01*
X182867264Y-100608567D01*
X182867265Y-100608567D01*
X182867266Y-100608568D01*
X183073504Y-100704739D01*
X183293308Y-100763635D01*
X183520000Y-100783468D01*
X183746692Y-100763635D01*
X183966496Y-100704739D01*
X184172734Y-100608568D01*
X184326465Y-100500924D01*
X184392671Y-100478598D01*
X184397588Y-100478500D01*
X219027217Y-100478500D01*
X219094256Y-100498185D01*
X219114898Y-100514819D01*
X223753181Y-105153101D01*
X223786666Y-105214424D01*
X223789500Y-105240782D01*
X223789500Y-105719241D01*
X223769815Y-105786280D01*
X223753186Y-105806918D01*
X223751505Y-105808598D01*
X223615965Y-106002170D01*
X223516097Y-106216336D01*
X223454936Y-106444592D01*
X223434340Y-106679999D01*
X223454936Y-106915407D01*
X223480496Y-107010798D01*
X223516097Y-107143663D01*
X223615965Y-107357830D01*
X223751505Y-107551401D01*
X223918599Y-107718495D01*
X224104160Y-107848426D01*
X224147783Y-107903002D01*
X224154976Y-107972501D01*
X224123454Y-108034855D01*
X224104160Y-108051574D01*
X223976487Y-108140972D01*
X223918595Y-108181508D01*
X223751505Y-108348598D01*
X223615965Y-108542170D01*
X223516097Y-108756336D01*
X223454936Y-108984592D01*
X223434340Y-109219999D01*
X223454936Y-109455407D01*
X223479650Y-109547641D01*
X223516097Y-109683663D01*
X223615965Y-109897830D01*
X223732584Y-110064379D01*
X223754910Y-110130582D01*
X223737900Y-110198350D01*
X223686952Y-110246163D01*
X223631008Y-110259500D01*
X188695864Y-110259500D01*
X188680526Y-110258548D01*
X188657219Y-110255642D01*
X188566536Y-110259394D01*
X188561411Y-110259500D01*
X188532933Y-110259500D01*
X188530406Y-110259709D01*
X188530389Y-110259710D01*
X188504538Y-110261852D01*
X188499428Y-110262169D01*
X188408761Y-110265920D01*
X188385781Y-110270738D01*
X188370581Y-110272952D01*
X188347180Y-110274891D01*
X188259191Y-110297172D01*
X188254202Y-110298326D01*
X188165386Y-110316950D01*
X188143515Y-110325484D01*
X188128890Y-110330169D01*
X188106120Y-110335936D01*
X188023020Y-110372386D01*
X188018288Y-110374346D01*
X187933726Y-110407343D01*
X187913545Y-110419368D01*
X187899891Y-110426396D01*
X187878392Y-110435826D01*
X187802417Y-110485462D01*
X187798074Y-110488174D01*
X187720102Y-110534636D01*
X187702183Y-110549813D01*
X187689868Y-110558995D01*
X187670215Y-110571835D01*
X187603447Y-110633299D01*
X187599613Y-110636685D01*
X187577874Y-110655098D01*
X187576059Y-110656911D01*
X187576061Y-110656911D01*
X187557738Y-110675233D01*
X187554045Y-110678775D01*
X187487262Y-110740254D01*
X187472832Y-110758793D01*
X187462664Y-110770306D01*
X186739791Y-111493181D01*
X186678468Y-111526666D01*
X186652110Y-111529500D01*
X179589797Y-111529500D01*
X179522758Y-111509815D01*
X179515487Y-111504767D01*
X179477333Y-111476205D01*
X179477331Y-111476204D01*
X179342483Y-111425909D01*
X179282873Y-111419500D01*
X179279550Y-111419500D01*
X177590439Y-111419500D01*
X177590420Y-111419500D01*
X177587128Y-111419501D01*
X177583848Y-111419853D01*
X177583840Y-111419854D01*
X177527515Y-111425909D01*
X177392669Y-111476204D01*
X177277454Y-111562454D01*
X177191204Y-111677668D01*
X177156944Y-111769526D01*
X177140909Y-111812517D01*
X177134500Y-111872127D01*
X177134500Y-111875430D01*
X177134499Y-111875449D01*
X177134500Y-112240242D01*
X177114815Y-112307281D01*
X177114309Y-112308062D01*
X177110826Y-112313393D01*
X177087872Y-112365722D01*
X177083372Y-112374928D01*
X177056171Y-112425190D01*
X177037615Y-112479244D01*
X177033890Y-112488791D01*
X177010937Y-112541119D01*
X176996911Y-112596502D01*
X176993989Y-112606318D01*
X176975428Y-112660388D01*
X176966020Y-112716762D01*
X176963918Y-112726787D01*
X176949891Y-112782180D01*
X176945172Y-112839127D01*
X176943905Y-112849293D01*
X176934500Y-112905662D01*
X176934500Y-116265109D01*
X176914815Y-116332148D01*
X176898181Y-116352790D01*
X171819790Y-121431181D01*
X171758467Y-121464666D01*
X171732109Y-121467500D01*
X170150783Y-121467500D01*
X170083744Y-121447815D01*
X170063102Y-121431181D01*
X168471819Y-119839898D01*
X168438334Y-119778575D01*
X168435500Y-119752217D01*
X168435500Y-116804443D01*
X168455185Y-116737404D01*
X168507989Y-116691649D01*
X168577147Y-116681705D01*
X168598505Y-116686737D01*
X168682305Y-116714506D01*
X168781890Y-116724680D01*
X168788168Y-116724999D01*
X168885000Y-116724998D01*
X168885000Y-114175000D01*
X169385000Y-114175000D01*
X169385000Y-116724999D01*
X169481829Y-116724999D01*
X169488111Y-116724678D01*
X169587695Y-116714506D01*
X169754122Y-116659357D01*
X169903345Y-116567316D01*
X170027316Y-116443345D01*
X170119357Y-116294122D01*
X170174506Y-116127696D01*
X170184680Y-116028109D01*
X170185000Y-116021831D01*
X170185000Y-114175000D01*
X169385000Y-114175000D01*
X168885000Y-114175000D01*
X168885000Y-111125000D01*
X169385000Y-111125000D01*
X169385000Y-113675000D01*
X170184999Y-113675000D01*
X170184999Y-111828170D01*
X170184678Y-111821888D01*
X170174506Y-111722304D01*
X170119357Y-111555877D01*
X170027316Y-111406654D01*
X169903345Y-111282683D01*
X169754122Y-111190642D01*
X169587696Y-111135493D01*
X169488109Y-111125319D01*
X169481832Y-111125000D01*
X169385000Y-111125000D01*
X168885000Y-111125000D01*
X168885000Y-111124999D01*
X168788172Y-111125000D01*
X168781888Y-111125321D01*
X168682304Y-111135493D01*
X168515879Y-111190641D01*
X168354321Y-111290292D01*
X168352582Y-111287474D01*
X168311680Y-111309795D01*
X168241989Y-111304793D01*
X168216795Y-111288596D01*
X168215993Y-111289897D01*
X168054334Y-111190186D01*
X167887797Y-111135000D01*
X167788141Y-111124819D01*
X167788122Y-111124818D01*
X167785009Y-111124500D01*
X167781860Y-111124500D01*
X167088141Y-111124500D01*
X167088121Y-111124500D01*
X167084992Y-111124501D01*
X167081860Y-111124820D01*
X167081858Y-111124821D01*
X166982203Y-111135000D01*
X166815665Y-111190186D01*
X166654008Y-111289897D01*
X166652352Y-111287213D01*
X166610976Y-111309794D01*
X166541285Y-111304794D01*
X166516545Y-111288890D01*
X166515681Y-111290292D01*
X166354122Y-111190642D01*
X166187696Y-111135493D01*
X166088109Y-111125319D01*
X166081832Y-111125000D01*
X165985000Y-111125000D01*
X165985000Y-116724999D01*
X166081829Y-116724999D01*
X166088111Y-116724678D01*
X166187695Y-116714506D01*
X166271496Y-116686737D01*
X166341324Y-116684335D01*
X166401366Y-116720067D01*
X166432559Y-116782587D01*
X166434500Y-116804443D01*
X166434500Y-120203721D01*
X166434460Y-120206863D01*
X166432242Y-120294362D01*
X166442648Y-120352420D01*
X166443957Y-120361749D01*
X166449926Y-120420438D01*
X166459033Y-120449467D01*
X166462772Y-120464702D01*
X166468141Y-120494652D01*
X166490020Y-120549425D01*
X166493180Y-120558300D01*
X166510556Y-120613682D01*
X166510841Y-120614588D01*
X166525607Y-120641191D01*
X166532337Y-120655364D01*
X166543622Y-120683617D01*
X166576080Y-120732867D01*
X166580961Y-120740923D01*
X166609590Y-120792501D01*
X166629404Y-120815581D01*
X166638856Y-120828116D01*
X166655599Y-120853520D01*
X166697300Y-120895221D01*
X166703705Y-120902132D01*
X166742134Y-120946896D01*
X166766193Y-120965519D01*
X166777972Y-120975893D01*
X169548181Y-123746101D01*
X169581666Y-123807424D01*
X169584500Y-123833782D01*
X169584500Y-127812560D01*
X169584500Y-127812578D01*
X169584501Y-127815872D01*
X169590909Y-127875483D01*
X169641204Y-128010331D01*
X169727454Y-128125546D01*
X169842669Y-128211796D01*
X169977517Y-128262091D01*
X170037127Y-128268500D01*
X174132872Y-128268499D01*
X174192483Y-128262091D01*
X174327331Y-128211796D01*
X174442546Y-128125546D01*
X174528796Y-128010331D01*
X174579091Y-127875483D01*
X174585500Y-127815873D01*
X174585499Y-125222000D01*
X182144389Y-125222000D01*
X182164804Y-125507429D01*
X182225629Y-125787041D01*
X182225631Y-125787046D01*
X182310813Y-126015428D01*
X182325634Y-126055163D01*
X182462772Y-126306313D01*
X182502530Y-126359423D01*
X182634261Y-126535395D01*
X182836605Y-126737739D01*
X183000878Y-126860712D01*
X183065686Y-126909227D01*
X183144673Y-126952357D01*
X183316839Y-127046367D01*
X183584954Y-127146369D01*
X183584957Y-127146369D01*
X183584958Y-127146370D01*
X183637217Y-127157738D01*
X183864572Y-127207196D01*
X184150000Y-127227610D01*
X184435428Y-127207196D01*
X184715046Y-127146369D01*
X184983161Y-127046367D01*
X185234315Y-126909226D01*
X185463395Y-126737739D01*
X185665739Y-126535395D01*
X185837226Y-126306315D01*
X185974367Y-126055161D01*
X186074369Y-125787046D01*
X186135196Y-125507428D01*
X186155610Y-125222000D01*
X186155610Y-125221999D01*
X189764890Y-125221999D01*
X189785300Y-125507357D01*
X189846111Y-125786902D01*
X189946088Y-126054952D01*
X190083193Y-126306042D01*
X190189883Y-126448562D01*
X190979409Y-125659036D01*
X190986284Y-125674478D01*
X191097486Y-125827534D01*
X191238080Y-125954126D01*
X191335297Y-126010254D01*
X190543436Y-126802115D01*
X190685958Y-126908806D01*
X190937047Y-127045911D01*
X191205097Y-127145888D01*
X191484642Y-127206699D01*
X191770000Y-127227109D01*
X192055357Y-127206699D01*
X192334902Y-127145888D01*
X192602952Y-127045911D01*
X192854041Y-126908806D01*
X192996562Y-126802115D01*
X192204702Y-126010254D01*
X192301920Y-125954126D01*
X192442514Y-125827534D01*
X192553716Y-125674479D01*
X192560590Y-125659037D01*
X193350115Y-126448562D01*
X193456806Y-126306041D01*
X193593911Y-126054952D01*
X193693888Y-125786902D01*
X193754699Y-125507357D01*
X193775109Y-125222000D01*
X193754699Y-124936642D01*
X193693888Y-124657097D01*
X193593911Y-124389047D01*
X193456806Y-124137958D01*
X193350115Y-123995436D01*
X192560590Y-124784961D01*
X192553716Y-124769522D01*
X192442514Y-124616466D01*
X192301920Y-124489874D01*
X192204701Y-124433745D01*
X192996562Y-123641883D01*
X192854042Y-123535193D01*
X192602952Y-123398088D01*
X192334902Y-123298111D01*
X192055357Y-123237300D01*
X191769999Y-123216890D01*
X191484642Y-123237300D01*
X191205097Y-123298111D01*
X190937047Y-123398088D01*
X190685954Y-123535195D01*
X190543437Y-123641882D01*
X190543436Y-123641883D01*
X191335298Y-124433745D01*
X191238080Y-124489874D01*
X191097486Y-124616466D01*
X190986284Y-124769521D01*
X190979409Y-124784962D01*
X190189883Y-123995436D01*
X190189882Y-123995437D01*
X190083195Y-124137954D01*
X189946088Y-124389047D01*
X189846111Y-124657097D01*
X189785300Y-124936642D01*
X189764890Y-125221999D01*
X186155610Y-125221999D01*
X186135196Y-124936572D01*
X186074369Y-124656954D01*
X185974367Y-124388839D01*
X185843887Y-124149883D01*
X185837227Y-124137686D01*
X185766490Y-124043193D01*
X185665739Y-123908605D01*
X185463395Y-123706261D01*
X185348855Y-123620517D01*
X185234313Y-123534772D01*
X184983163Y-123397634D01*
X184983162Y-123397633D01*
X184983161Y-123397633D01*
X184762429Y-123315304D01*
X184715041Y-123297629D01*
X184435429Y-123236804D01*
X184150000Y-123216389D01*
X183864570Y-123236804D01*
X183584958Y-123297629D01*
X183316836Y-123397634D01*
X183065686Y-123534772D01*
X182836602Y-123706263D01*
X182634263Y-123908602D01*
X182462772Y-124137686D01*
X182325634Y-124388836D01*
X182225629Y-124656958D01*
X182164804Y-124936570D01*
X182144389Y-125222000D01*
X174585499Y-125222000D01*
X174585499Y-122960888D01*
X174605184Y-122893850D01*
X174621813Y-122873213D01*
X179424701Y-118070325D01*
X179436203Y-118060167D01*
X179454744Y-118045738D01*
X179516235Y-117978939D01*
X179519714Y-117975313D01*
X179539902Y-117955126D01*
X179558315Y-117933383D01*
X179561701Y-117929551D01*
X179623160Y-117862789D01*
X179623164Y-117862785D01*
X179636006Y-117843126D01*
X179645188Y-117830813D01*
X179660366Y-117812894D01*
X179706830Y-117734916D01*
X179709533Y-117730586D01*
X179759173Y-117654607D01*
X179768605Y-117633101D01*
X179775628Y-117619456D01*
X179787656Y-117599274D01*
X179820656Y-117514699D01*
X179822599Y-117510008D01*
X179859063Y-117426881D01*
X179864827Y-117404116D01*
X179869510Y-117389496D01*
X179878049Y-117367614D01*
X179896669Y-117278809D01*
X179897822Y-117273825D01*
X179920108Y-117185821D01*
X179922046Y-117162413D01*
X179924263Y-117147205D01*
X179929080Y-117124237D01*
X179932830Y-117033544D01*
X179933148Y-117028441D01*
X179935500Y-117000067D01*
X179935500Y-116971588D01*
X179935606Y-116966463D01*
X179939357Y-116875780D01*
X179936452Y-116852473D01*
X179935500Y-116837135D01*
X179935500Y-114654500D01*
X179955185Y-114587461D01*
X180007989Y-114541706D01*
X180059500Y-114530500D01*
X187224135Y-114530500D01*
X187239473Y-114531452D01*
X187262779Y-114534357D01*
X187262779Y-114534356D01*
X187262780Y-114534357D01*
X187333017Y-114531452D01*
X187353473Y-114530605D01*
X187358596Y-114530500D01*
X187384498Y-114530500D01*
X187387067Y-114530500D01*
X187415447Y-114528147D01*
X187420540Y-114527831D01*
X187511237Y-114524081D01*
X187534209Y-114519263D01*
X187549413Y-114517047D01*
X187572821Y-114515108D01*
X187660838Y-114492818D01*
X187665754Y-114491680D01*
X187754614Y-114473049D01*
X187776496Y-114464510D01*
X187791116Y-114459827D01*
X187813881Y-114454063D01*
X187897008Y-114417599D01*
X187901699Y-114415656D01*
X187986274Y-114382656D01*
X188006456Y-114370628D01*
X188020101Y-114363605D01*
X188041607Y-114354173D01*
X188117593Y-114304528D01*
X188121916Y-114301830D01*
X188199894Y-114255366D01*
X188217813Y-114240188D01*
X188230126Y-114231006D01*
X188249785Y-114218164D01*
X188296673Y-114175000D01*
X188316551Y-114156701D01*
X188320383Y-114153315D01*
X188342126Y-114134902D01*
X188362313Y-114114714D01*
X188365939Y-114111235D01*
X188432738Y-114049744D01*
X188447167Y-114031203D01*
X188457325Y-114019701D01*
X189180208Y-113296819D01*
X189241532Y-113263334D01*
X189267890Y-113260500D01*
X223165500Y-113260500D01*
X223232539Y-113280185D01*
X223278294Y-113332989D01*
X223289500Y-113384500D01*
X223289500Y-114362067D01*
X223297989Y-114464515D01*
X223303465Y-114530606D01*
X223304892Y-114547821D01*
X223365937Y-114788881D01*
X223407159Y-114882857D01*
X223465825Y-115016604D01*
X223465827Y-115016607D01*
X223601836Y-115224785D01*
X223721608Y-115354892D01*
X223770259Y-115407741D01*
X223849855Y-115469693D01*
X223890668Y-115526403D01*
X223894343Y-115596176D01*
X223859711Y-115656859D01*
X223857675Y-115658777D01*
X223798446Y-115713300D01*
X223794610Y-115716687D01*
X223774836Y-115733436D01*
X223774819Y-115733451D01*
X223772874Y-115735099D01*
X223771068Y-115736903D01*
X223771070Y-115736903D01*
X223752750Y-115755222D01*
X223749057Y-115758764D01*
X223682261Y-115820255D01*
X223667832Y-115838793D01*
X223657663Y-115850308D01*
X221260306Y-118247664D01*
X221248793Y-118257832D01*
X221230254Y-118272262D01*
X221168775Y-118339045D01*
X221165233Y-118342738D01*
X221145098Y-118362874D01*
X221143437Y-118364834D01*
X221143437Y-118364835D01*
X221126689Y-118384609D01*
X221123299Y-118388447D01*
X221061835Y-118455215D01*
X221048995Y-118474868D01*
X221039813Y-118487183D01*
X221024636Y-118505102D01*
X220978174Y-118583074D01*
X220975462Y-118587417D01*
X220925826Y-118663392D01*
X220916396Y-118684891D01*
X220909368Y-118698545D01*
X220897343Y-118718726D01*
X220864346Y-118803288D01*
X220862386Y-118808020D01*
X220825936Y-118891120D01*
X220820169Y-118913890D01*
X220815484Y-118928515D01*
X220806951Y-118950385D01*
X220788324Y-119039211D01*
X220787170Y-119044200D01*
X220764891Y-119132180D01*
X220762952Y-119155578D01*
X220760738Y-119170777D01*
X220755919Y-119193762D01*
X220752168Y-119284440D01*
X220751851Y-119289551D01*
X220749710Y-119315390D01*
X220749709Y-119315406D01*
X220749500Y-119317933D01*
X220749500Y-119320486D01*
X220749500Y-119346402D01*
X220749394Y-119351527D01*
X220745642Y-119442223D01*
X220748547Y-119465529D01*
X220749499Y-119480864D01*
X220749500Y-127597110D01*
X220729815Y-127664149D01*
X220713181Y-127684791D01*
X215949791Y-132448181D01*
X215888468Y-132481666D01*
X215862110Y-132484500D01*
X204824500Y-132484500D01*
X204757461Y-132464815D01*
X204711706Y-132412011D01*
X204700500Y-132360500D01*
X204700500Y-127105023D01*
X204720185Y-127037984D01*
X204725233Y-127030713D01*
X204887225Y-126814316D01*
X204887375Y-126814042D01*
X205024367Y-126563161D01*
X205124369Y-126295046D01*
X205185196Y-126015428D01*
X205205610Y-125730000D01*
X207544890Y-125730000D01*
X207565300Y-126015357D01*
X207626111Y-126294902D01*
X207726088Y-126562952D01*
X207863193Y-126814042D01*
X207969883Y-126956562D01*
X208833338Y-126093107D01*
X208920577Y-126231948D01*
X209048052Y-126359423D01*
X209186891Y-126446661D01*
X208323436Y-127310115D01*
X208465958Y-127416806D01*
X208717047Y-127553911D01*
X208985097Y-127653888D01*
X209264642Y-127714699D01*
X209550000Y-127735109D01*
X209835357Y-127714699D01*
X210114902Y-127653888D01*
X210382952Y-127553911D01*
X210634041Y-127416806D01*
X210776562Y-127310115D01*
X209913108Y-126446661D01*
X210051948Y-126359423D01*
X210179423Y-126231948D01*
X210266661Y-126093108D01*
X211130115Y-126956562D01*
X211236806Y-126814041D01*
X211373911Y-126562952D01*
X211473888Y-126294902D01*
X211534699Y-126015357D01*
X211555109Y-125729999D01*
X211534699Y-125444642D01*
X211473888Y-125165097D01*
X211373911Y-124897047D01*
X211236806Y-124645958D01*
X211130115Y-124503436D01*
X210266660Y-125366890D01*
X210179423Y-125228052D01*
X210051948Y-125100577D01*
X209913108Y-125013338D01*
X210776562Y-124149883D01*
X210634042Y-124043193D01*
X210382952Y-123906088D01*
X210114902Y-123806111D01*
X209835357Y-123745300D01*
X209550000Y-123724890D01*
X209264642Y-123745300D01*
X208985097Y-123806111D01*
X208717047Y-123906088D01*
X208465954Y-124043195D01*
X208323437Y-124149882D01*
X208323436Y-124149883D01*
X209186891Y-125013338D01*
X209048052Y-125100577D01*
X208920577Y-125228052D01*
X208833338Y-125366891D01*
X207969883Y-124503436D01*
X207969882Y-124503437D01*
X207863195Y-124645954D01*
X207726088Y-124897047D01*
X207626111Y-125165097D01*
X207565300Y-125444642D01*
X207544890Y-125730000D01*
X205205610Y-125730000D01*
X205185196Y-125444572D01*
X205124369Y-125164954D01*
X205024367Y-124896839D01*
X204954846Y-124769521D01*
X204887227Y-124645686D01*
X204844354Y-124588415D01*
X204715739Y-124416605D01*
X204513395Y-124214261D01*
X204398854Y-124128517D01*
X204284313Y-124042772D01*
X204033163Y-123905634D01*
X204033162Y-123905633D01*
X204033161Y-123905633D01*
X203840522Y-123833782D01*
X203765041Y-123805629D01*
X203485429Y-123744804D01*
X203200000Y-123724389D01*
X202914570Y-123744804D01*
X202634958Y-123805629D01*
X202366836Y-123905634D01*
X202115686Y-124042772D01*
X201886602Y-124214263D01*
X201684263Y-124416602D01*
X201512772Y-124645686D01*
X201375634Y-124896836D01*
X201275629Y-125164958D01*
X201214804Y-125444570D01*
X201194389Y-125729999D01*
X201214804Y-126015429D01*
X201275629Y-126295041D01*
X201275631Y-126295046D01*
X201372811Y-126555596D01*
X201375634Y-126563163D01*
X201512772Y-126814313D01*
X201547506Y-126860712D01*
X201674768Y-127030713D01*
X201699184Y-127096176D01*
X201699500Y-127105022D01*
X201699500Y-132360500D01*
X201679815Y-132427539D01*
X201627011Y-132473294D01*
X201575500Y-132484500D01*
X143547889Y-132484500D01*
X143480850Y-132464815D01*
X143460208Y-132448181D01*
X138696819Y-127684791D01*
X138663334Y-127623468D01*
X138660500Y-127597110D01*
X138660500Y-125118000D01*
X145755001Y-125118000D01*
X145755001Y-126314829D01*
X145755321Y-126321111D01*
X145765493Y-126420695D01*
X145820642Y-126587122D01*
X145912683Y-126736345D01*
X146036654Y-126860316D01*
X146185877Y-126952357D01*
X146352303Y-127007506D01*
X146451890Y-127017680D01*
X146458168Y-127017999D01*
X147254999Y-127017999D01*
X147255000Y-127017998D01*
X147255000Y-125118000D01*
X147755000Y-125118000D01*
X147755000Y-127017999D01*
X148551829Y-127017999D01*
X148558111Y-127017678D01*
X148657695Y-127007506D01*
X148824122Y-126952357D01*
X148973345Y-126860316D01*
X149097316Y-126736345D01*
X149189357Y-126587122D01*
X149244506Y-126420696D01*
X149254680Y-126321109D01*
X149255000Y-126314831D01*
X149255000Y-125118000D01*
X147755000Y-125118000D01*
X147255000Y-125118000D01*
X145755001Y-125118000D01*
X138660500Y-125118000D01*
X138660500Y-124618000D01*
X145755000Y-124618000D01*
X147255000Y-124618000D01*
X147255000Y-122718000D01*
X147755000Y-122718000D01*
X147755000Y-124618000D01*
X149254999Y-124618000D01*
X149254999Y-123421170D01*
X149254678Y-123414888D01*
X149244506Y-123315304D01*
X149189357Y-123148877D01*
X149097316Y-122999654D01*
X148973345Y-122875683D01*
X148824122Y-122783642D01*
X148657696Y-122728493D01*
X148558109Y-122718319D01*
X148551832Y-122718000D01*
X147755000Y-122718000D01*
X147255000Y-122718000D01*
X146458171Y-122718000D01*
X146451888Y-122718321D01*
X146352304Y-122728493D01*
X146185877Y-122783642D01*
X146036654Y-122875683D01*
X145912683Y-122999654D01*
X145820642Y-123148877D01*
X145765493Y-123315303D01*
X145755319Y-123414890D01*
X145755000Y-123421168D01*
X145755000Y-124618000D01*
X138660500Y-124618000D01*
X138660500Y-120750500D01*
X138680185Y-120683461D01*
X138732989Y-120637706D01*
X138784500Y-120626500D01*
X148206135Y-120626500D01*
X148221473Y-120627452D01*
X148244779Y-120630357D01*
X148244779Y-120630356D01*
X148244780Y-120630357D01*
X148315017Y-120627452D01*
X148335473Y-120626605D01*
X148340596Y-120626500D01*
X148366498Y-120626500D01*
X148369067Y-120626500D01*
X148397447Y-120624147D01*
X148402540Y-120623831D01*
X148493237Y-120620081D01*
X148516209Y-120615263D01*
X148531413Y-120613047D01*
X148554821Y-120611108D01*
X148642838Y-120588818D01*
X148647754Y-120587680D01*
X148736614Y-120569049D01*
X148758496Y-120560510D01*
X148773116Y-120555827D01*
X148795881Y-120550063D01*
X148879008Y-120513599D01*
X148883699Y-120511656D01*
X148968274Y-120478656D01*
X148988456Y-120466628D01*
X149002101Y-120459605D01*
X149023607Y-120450173D01*
X149099593Y-120400528D01*
X149103916Y-120397830D01*
X149181894Y-120351366D01*
X149199813Y-120336188D01*
X149212126Y-120327006D01*
X149231785Y-120314164D01*
X149254352Y-120293388D01*
X149298551Y-120252701D01*
X149302383Y-120249315D01*
X149324126Y-120230902D01*
X149344313Y-120210714D01*
X149347939Y-120207235D01*
X149414738Y-120145744D01*
X149429167Y-120127203D01*
X149439325Y-120115701D01*
X151080208Y-118474819D01*
X151141532Y-118441334D01*
X151167890Y-118438500D01*
X160456135Y-118438500D01*
X160471473Y-118439452D01*
X160494779Y-118442357D01*
X160494779Y-118442356D01*
X160494780Y-118442357D01*
X160565017Y-118439452D01*
X160585473Y-118438605D01*
X160590596Y-118438500D01*
X160616498Y-118438500D01*
X160619067Y-118438500D01*
X160647447Y-118436147D01*
X160652540Y-118435831D01*
X160743237Y-118432081D01*
X160766209Y-118427263D01*
X160781413Y-118425047D01*
X160804821Y-118423108D01*
X160892838Y-118400818D01*
X160897754Y-118399680D01*
X160986614Y-118381049D01*
X161008496Y-118372510D01*
X161023116Y-118367827D01*
X161045881Y-118362063D01*
X161129008Y-118325599D01*
X161133699Y-118323656D01*
X161218274Y-118290656D01*
X161238456Y-118278628D01*
X161252101Y-118271605D01*
X161273607Y-118262173D01*
X161349593Y-118212528D01*
X161353916Y-118209830D01*
X161431894Y-118163366D01*
X161449813Y-118148188D01*
X161462126Y-118139006D01*
X161481785Y-118126164D01*
X161504352Y-118105388D01*
X161548551Y-118064701D01*
X161552383Y-118061315D01*
X161574126Y-118042902D01*
X161594313Y-118022714D01*
X161597939Y-118019235D01*
X161664738Y-117957744D01*
X161679167Y-117939203D01*
X161689325Y-117927701D01*
X162279697Y-117337328D01*
X162291199Y-117327171D01*
X162309744Y-117312738D01*
X162371246Y-117245927D01*
X162374725Y-117242301D01*
X162394902Y-117222125D01*
X162413308Y-117200390D01*
X162416690Y-117196563D01*
X162455186Y-117154745D01*
X162478164Y-117129785D01*
X162491006Y-117110126D01*
X162500188Y-117097813D01*
X162515366Y-117079894D01*
X162561848Y-117001884D01*
X162564505Y-116997627D01*
X162614173Y-116921607D01*
X162623604Y-116900105D01*
X162630635Y-116886445D01*
X162642656Y-116866273D01*
X162670567Y-116794740D01*
X162713272Y-116739446D01*
X162773482Y-116716461D01*
X162787797Y-116714999D01*
X162871498Y-116687262D01*
X162941324Y-116684861D01*
X163001366Y-116720592D01*
X163032559Y-116783113D01*
X163034500Y-116804969D01*
X163034500Y-121276217D01*
X163014815Y-121343256D01*
X162998185Y-121363893D01*
X162930898Y-121431181D01*
X162930897Y-121431182D01*
X162869573Y-121464666D01*
X162843216Y-121467500D01*
X158864439Y-121467500D01*
X158864420Y-121467500D01*
X158861128Y-121467501D01*
X158857848Y-121467853D01*
X158857840Y-121467854D01*
X158801515Y-121473909D01*
X158666669Y-121524204D01*
X158551454Y-121610454D01*
X158465204Y-121725668D01*
X158426580Y-121829226D01*
X158414909Y-121860517D01*
X158408500Y-121920127D01*
X158408499Y-121923449D01*
X158408500Y-121923449D01*
X158408500Y-123243500D01*
X158388815Y-123310539D01*
X158336011Y-123356294D01*
X158284500Y-123367500D01*
X156151870Y-123367500D01*
X156084831Y-123347815D01*
X156039076Y-123295011D01*
X156034164Y-123282505D01*
X156012421Y-123216890D01*
X155989814Y-123148666D01*
X155897712Y-122999344D01*
X155897711Y-122999342D01*
X155773657Y-122875288D01*
X155624334Y-122783186D01*
X155457797Y-122728000D01*
X155358141Y-122717819D01*
X155358122Y-122717818D01*
X155355009Y-122717500D01*
X155351860Y-122717500D01*
X153258140Y-122717500D01*
X153258120Y-122717500D01*
X153254992Y-122717501D01*
X153251860Y-122717820D01*
X153251858Y-122717821D01*
X153152203Y-122728000D01*
X152985665Y-122783186D01*
X152836342Y-122875288D01*
X152712288Y-122999342D01*
X152620186Y-123148665D01*
X152565000Y-123315202D01*
X152554819Y-123414858D01*
X152554817Y-123414878D01*
X152554500Y-123417991D01*
X152554500Y-123421138D01*
X152554500Y-123421139D01*
X152554500Y-126314859D01*
X152554500Y-126314878D01*
X152554501Y-126318008D01*
X152554820Y-126321140D01*
X152554821Y-126321141D01*
X152565000Y-126420796D01*
X152620186Y-126587334D01*
X152712288Y-126736657D01*
X152836342Y-126860711D01*
X152836344Y-126860712D01*
X152985666Y-126952814D01*
X153077350Y-126983195D01*
X153152202Y-127007999D01*
X153251858Y-127018180D01*
X153251859Y-127018180D01*
X153254991Y-127018500D01*
X155355008Y-127018499D01*
X155457797Y-127007999D01*
X155624334Y-126952814D01*
X155773656Y-126860712D01*
X155897712Y-126736656D01*
X155989814Y-126587334D01*
X156034163Y-126453495D01*
X156073937Y-126396051D01*
X156138453Y-126369228D01*
X156151870Y-126368500D01*
X158284501Y-126368500D01*
X158351540Y-126388185D01*
X158397295Y-126440989D01*
X158408501Y-126492499D01*
X158408501Y-127815872D01*
X158414909Y-127875483D01*
X158465204Y-128010331D01*
X158551454Y-128125546D01*
X158666669Y-128211796D01*
X158801517Y-128262091D01*
X158861127Y-128268500D01*
X162956872Y-128268499D01*
X163016483Y-128262091D01*
X163151331Y-128211796D01*
X163266546Y-128125546D01*
X163352796Y-128010331D01*
X163403091Y-127875483D01*
X163409500Y-127815873D01*
X163409499Y-123833781D01*
X163429184Y-123766743D01*
X163445813Y-123746106D01*
X164732409Y-122459510D01*
X164734579Y-122457394D01*
X164798053Y-122397059D01*
X164831765Y-122348622D01*
X164837408Y-122341138D01*
X164874698Y-122295407D01*
X164888786Y-122268435D01*
X164896911Y-122255024D01*
X164914295Y-122230049D01*
X164937568Y-122175815D01*
X164941598Y-122167331D01*
X164968908Y-122115051D01*
X164968909Y-122115049D01*
X164977278Y-122085797D01*
X164982534Y-122071032D01*
X164994540Y-122043058D01*
X165006418Y-121985256D01*
X165008651Y-121976156D01*
X165024887Y-121919418D01*
X165027197Y-121889077D01*
X165029376Y-121873535D01*
X165035500Y-121843741D01*
X165035500Y-121784732D01*
X165035855Y-121775370D01*
X165040337Y-121716523D01*
X165036493Y-121686338D01*
X165035500Y-121670675D01*
X165035500Y-116804443D01*
X165055185Y-116737404D01*
X165107989Y-116691649D01*
X165177147Y-116681705D01*
X165198505Y-116686737D01*
X165282305Y-116714506D01*
X165381890Y-116724680D01*
X165388168Y-116724999D01*
X165485000Y-116724998D01*
X165485000Y-111124999D01*
X165388172Y-111125000D01*
X165381888Y-111125321D01*
X165282304Y-111135493D01*
X165115879Y-111190641D01*
X164954321Y-111290292D01*
X164952582Y-111287474D01*
X164911680Y-111309795D01*
X164841989Y-111304793D01*
X164816795Y-111288596D01*
X164815993Y-111289897D01*
X164654334Y-111190186D01*
X164487797Y-111135000D01*
X164388141Y-111124819D01*
X164388122Y-111124818D01*
X164385009Y-111124500D01*
X164381860Y-111124500D01*
X163688141Y-111124500D01*
X163688121Y-111124500D01*
X163684992Y-111124501D01*
X163681860Y-111124820D01*
X163681858Y-111124821D01*
X163582203Y-111135000D01*
X163415665Y-111190186D01*
X163254007Y-111289897D01*
X163252276Y-111287091D01*
X163211358Y-111309435D01*
X163141666Y-111304451D01*
X163116852Y-111288503D01*
X163115993Y-111289897D01*
X162954334Y-111190186D01*
X162787797Y-111135000D01*
X162688141Y-111124819D01*
X162688122Y-111124818D01*
X162685009Y-111124500D01*
X162681860Y-111124500D01*
X161988141Y-111124500D01*
X161988121Y-111124500D01*
X161984992Y-111124501D01*
X161981860Y-111124820D01*
X161981858Y-111124821D01*
X161882203Y-111135000D01*
X161715665Y-111190186D01*
X161566342Y-111282288D01*
X161442288Y-111406342D01*
X161402657Y-111470596D01*
X161350709Y-111517321D01*
X161297118Y-111529500D01*
X161165665Y-111529500D01*
X160920384Y-111570429D01*
X160685194Y-111651170D01*
X160685190Y-111651171D01*
X160685190Y-111651172D01*
X160609824Y-111691958D01*
X160466485Y-111769529D01*
X160270259Y-111922259D01*
X160101837Y-112105214D01*
X159965825Y-112313395D01*
X159916788Y-112425190D01*
X159865937Y-112541119D01*
X159835810Y-112660087D01*
X159804892Y-112782177D01*
X159804615Y-112785516D01*
X159789500Y-112967933D01*
X159789500Y-112970503D01*
X159789500Y-115313500D01*
X159769815Y-115380539D01*
X159717011Y-115426294D01*
X159665500Y-115437500D01*
X150595864Y-115437500D01*
X150580526Y-115436548D01*
X150557219Y-115433642D01*
X150466536Y-115437394D01*
X150461411Y-115437500D01*
X150432933Y-115437500D01*
X150430406Y-115437709D01*
X150430389Y-115437710D01*
X150404538Y-115439852D01*
X150399428Y-115440169D01*
X150308761Y-115443920D01*
X150285781Y-115448738D01*
X150270581Y-115450952D01*
X150247180Y-115452891D01*
X150159191Y-115475172D01*
X150154202Y-115476326D01*
X150065389Y-115494950D01*
X150065386Y-115494950D01*
X150065386Y-115494951D01*
X150043512Y-115503485D01*
X150028889Y-115508170D01*
X150006118Y-115513936D01*
X149923008Y-115550392D01*
X149918275Y-115552353D01*
X149833722Y-115585346D01*
X149813548Y-115597366D01*
X149799900Y-115604391D01*
X149778395Y-115613825D01*
X149773060Y-115617311D01*
X149706169Y-115637497D01*
X149705243Y-115637500D01*
X149650439Y-115637500D01*
X149650421Y-115637500D01*
X149647128Y-115637501D01*
X149643848Y-115637853D01*
X149643840Y-115637854D01*
X149587515Y-115643909D01*
X149452669Y-115694204D01*
X149337454Y-115780454D01*
X149251204Y-115895668D01*
X149200909Y-116030516D01*
X149196003Y-116076150D01*
X149169265Y-116140701D01*
X149160394Y-116150576D01*
X147721791Y-117589181D01*
X147660468Y-117622666D01*
X147634110Y-117625500D01*
X138535023Y-117625500D01*
X138467984Y-117605815D01*
X138460713Y-117600767D01*
X138244316Y-117438774D01*
X137993163Y-117301634D01*
X137993162Y-117301633D01*
X137993161Y-117301633D01*
X137818123Y-117236347D01*
X137725041Y-117201629D01*
X137445429Y-117140804D01*
X137160000Y-117120389D01*
X136874570Y-117140804D01*
X136594958Y-117201629D01*
X136326836Y-117301634D01*
X136075683Y-117438774D01*
X135859287Y-117600767D01*
X135793823Y-117625184D01*
X135784977Y-117625500D01*
X126597023Y-117625500D01*
X126529984Y-117605815D01*
X126522713Y-117600767D01*
X126306316Y-117438774D01*
X126055163Y-117301634D01*
X126055162Y-117301633D01*
X126055161Y-117301633D01*
X125880123Y-117236347D01*
X125787041Y-117201629D01*
X125507429Y-117140804D01*
X125222000Y-117120389D01*
X124936570Y-117140804D01*
X124656958Y-117201629D01*
X124388836Y-117301634D01*
X124137686Y-117438772D01*
X123908602Y-117610263D01*
X123706263Y-117812602D01*
X123534772Y-118041686D01*
X123397634Y-118292836D01*
X123297629Y-118560958D01*
X123236804Y-118840571D01*
X123228656Y-118954483D01*
X123204238Y-119019947D01*
X123192653Y-119033317D01*
X118540791Y-123685181D01*
X118479468Y-123718666D01*
X118453110Y-123721500D01*
X116183023Y-123721500D01*
X116115984Y-123701815D01*
X116108713Y-123696767D01*
X115892316Y-123534774D01*
X115641163Y-123397634D01*
X115641162Y-123397633D01*
X115641161Y-123397633D01*
X115420429Y-123315304D01*
X115373041Y-123297629D01*
X115093429Y-123236804D01*
X114808000Y-123216389D01*
X114522570Y-123236804D01*
X114242958Y-123297629D01*
X113974836Y-123397634D01*
X113723686Y-123534772D01*
X113494602Y-123706263D01*
X113292263Y-123908602D01*
X113120772Y-124137686D01*
X112983634Y-124388836D01*
X112883629Y-124656958D01*
X112822804Y-124936570D01*
X112802389Y-125222000D01*
X112822804Y-125507429D01*
X112883629Y-125787041D01*
X112883631Y-125787046D01*
X112968813Y-126015428D01*
X112983634Y-126055163D01*
X113120772Y-126306313D01*
X113160530Y-126359423D01*
X113292261Y-126535395D01*
X113494605Y-126737739D01*
X113658878Y-126860712D01*
X113723686Y-126909227D01*
X113802673Y-126952357D01*
X113974839Y-127046367D01*
X114242954Y-127146369D01*
X114242957Y-127146369D01*
X114242958Y-127146370D01*
X114295217Y-127157738D01*
X114522572Y-127207196D01*
X114808000Y-127227610D01*
X115093428Y-127207196D01*
X115373046Y-127146369D01*
X115641161Y-127046367D01*
X115892315Y-126909226D01*
X116019100Y-126814316D01*
X116108713Y-126747233D01*
X116174177Y-126722816D01*
X116183023Y-126722500D01*
X119025135Y-126722500D01*
X119040473Y-126723452D01*
X119063779Y-126726357D01*
X119063779Y-126726356D01*
X119063780Y-126726357D01*
X119134017Y-126723452D01*
X119154473Y-126722605D01*
X119159596Y-126722500D01*
X119185498Y-126722500D01*
X119188067Y-126722500D01*
X119216447Y-126720147D01*
X119221540Y-126719831D01*
X119312237Y-126716081D01*
X119335209Y-126711263D01*
X119350413Y-126709047D01*
X119373821Y-126707108D01*
X119461838Y-126684818D01*
X119466754Y-126683680D01*
X119555614Y-126665049D01*
X119577496Y-126656510D01*
X119592116Y-126651827D01*
X119614881Y-126646063D01*
X119698008Y-126609599D01*
X119702699Y-126607656D01*
X119787274Y-126574656D01*
X119807456Y-126562628D01*
X119821101Y-126555605D01*
X119842607Y-126546173D01*
X119918593Y-126496528D01*
X119922916Y-126493830D01*
X120000894Y-126447366D01*
X120018813Y-126432188D01*
X120031126Y-126423006D01*
X120050785Y-126410164D01*
X120074660Y-126388185D01*
X120117551Y-126348701D01*
X120121383Y-126345315D01*
X120143126Y-126326902D01*
X120163313Y-126306714D01*
X120166939Y-126303235D01*
X120233738Y-126241744D01*
X120248167Y-126223203D01*
X120258325Y-126211701D01*
X125314683Y-121155343D01*
X125376004Y-121121860D01*
X125393507Y-121119343D01*
X125507428Y-121111196D01*
X125787046Y-121050369D01*
X126055161Y-120950367D01*
X126306315Y-120813226D01*
X126458918Y-120698989D01*
X126522713Y-120651233D01*
X126588177Y-120626816D01*
X126597023Y-120626500D01*
X135535500Y-120626500D01*
X135602539Y-120646185D01*
X135648294Y-120698989D01*
X135659500Y-120750500D01*
X135659500Y-128169135D01*
X135658548Y-128184473D01*
X135655642Y-128207780D01*
X135659394Y-128298471D01*
X135659500Y-128303595D01*
X135659500Y-128332067D01*
X135659709Y-128334594D01*
X135659710Y-128334609D01*
X135661851Y-128360448D01*
X135662168Y-128365559D01*
X135665919Y-128456237D01*
X135670737Y-128479217D01*
X135670738Y-128479220D01*
X135672952Y-128494421D01*
X135674891Y-128517819D01*
X135697171Y-128605803D01*
X135698325Y-128610793D01*
X135716950Y-128699614D01*
X135725484Y-128721485D01*
X135730171Y-128736114D01*
X135735936Y-128758880D01*
X135772393Y-128841993D01*
X135774354Y-128846728D01*
X135807344Y-128931275D01*
X135819364Y-128951448D01*
X135826395Y-128965107D01*
X135835824Y-128986603D01*
X135835827Y-128986607D01*
X135885481Y-129062609D01*
X135888153Y-129066890D01*
X135934634Y-129144894D01*
X135949806Y-129162807D01*
X135958991Y-129175125D01*
X135971837Y-129194788D01*
X136033293Y-129261546D01*
X136036687Y-129265388D01*
X136055098Y-129287126D01*
X136056911Y-129288939D01*
X136075227Y-129307255D01*
X136078776Y-129310953D01*
X136140258Y-129377740D01*
X136158787Y-129392162D01*
X136170307Y-129402335D01*
X141742665Y-134974692D01*
X141752830Y-134986202D01*
X141767262Y-135004744D01*
X141834057Y-135066233D01*
X141837755Y-135069782D01*
X141857875Y-135089902D01*
X141859834Y-135091561D01*
X141879600Y-135108302D01*
X141883441Y-135111694D01*
X141950215Y-135173164D01*
X141969873Y-135186006D01*
X141982184Y-135195187D01*
X142000106Y-135210366D01*
X142078078Y-135256827D01*
X142082407Y-135259529D01*
X142158393Y-135309173D01*
X142179906Y-135318609D01*
X142193549Y-135325633D01*
X142213727Y-135337656D01*
X142298302Y-135370657D01*
X142302985Y-135372596D01*
X142386119Y-135409063D01*
X142408876Y-135414825D01*
X142423511Y-135419514D01*
X142423514Y-135419515D01*
X142445386Y-135428050D01*
X142534226Y-135446678D01*
X142539193Y-135447827D01*
X142627179Y-135470108D01*
X142635633Y-135470808D01*
X142650573Y-135472047D01*
X142665781Y-135474262D01*
X142688763Y-135479081D01*
X142779454Y-135482831D01*
X142784559Y-135483148D01*
X142812933Y-135485500D01*
X142841404Y-135485500D01*
X142846526Y-135485605D01*
X142866983Y-135486452D01*
X142937220Y-135489357D01*
X142937220Y-135489356D01*
X142937222Y-135489357D01*
X142960527Y-135486452D01*
X142975866Y-135485500D01*
X203075665Y-135485500D01*
X203137933Y-135485500D01*
X216434135Y-135485500D01*
X216449473Y-135486452D01*
X216472779Y-135489357D01*
X216472779Y-135489356D01*
X216472780Y-135489357D01*
X216543017Y-135486452D01*
X216563473Y-135485605D01*
X216568596Y-135485500D01*
X216594498Y-135485500D01*
X216597067Y-135485500D01*
X216625447Y-135483147D01*
X216630540Y-135482831D01*
X216721237Y-135479081D01*
X216744209Y-135474263D01*
X216759413Y-135472047D01*
X216782821Y-135470108D01*
X216870838Y-135447818D01*
X216875754Y-135446680D01*
X216964614Y-135428049D01*
X216986496Y-135419510D01*
X217001116Y-135414827D01*
X217023881Y-135409063D01*
X217107008Y-135372599D01*
X217111699Y-135370656D01*
X217196274Y-135337656D01*
X217216456Y-135325628D01*
X217230101Y-135318605D01*
X217251607Y-135309173D01*
X217327593Y-135259528D01*
X217331916Y-135256830D01*
X217409894Y-135210366D01*
X217427813Y-135195188D01*
X217440126Y-135186006D01*
X217459785Y-135173164D01*
X217482352Y-135152388D01*
X217526551Y-135111701D01*
X217530383Y-135108315D01*
X217552126Y-135089902D01*
X217572313Y-135069714D01*
X217575942Y-135066233D01*
X217642738Y-135004744D01*
X217657167Y-134986203D01*
X217667325Y-134974701D01*
X223239697Y-129402328D01*
X223251199Y-129392171D01*
X223269744Y-129377738D01*
X223331246Y-129310927D01*
X223334725Y-129307301D01*
X223354902Y-129287125D01*
X223373308Y-129265390D01*
X223376690Y-129261563D01*
X223438160Y-129194789D01*
X223438161Y-129194788D01*
X223438164Y-129194785D01*
X223451008Y-129175125D01*
X223460188Y-129162813D01*
X223475366Y-129144894D01*
X223521848Y-129066884D01*
X223524505Y-129062627D01*
X223574173Y-128986607D01*
X223583604Y-128965105D01*
X223590635Y-128951445D01*
X223602656Y-128931273D01*
X223635663Y-128846679D01*
X223637606Y-128841993D01*
X223674063Y-128758881D01*
X223679828Y-128736114D01*
X223684516Y-128721483D01*
X223686820Y-128715578D01*
X223693050Y-128699614D01*
X223711678Y-128610772D01*
X223712824Y-128605816D01*
X223735108Y-128517821D01*
X223735905Y-128508199D01*
X223737047Y-128494426D01*
X223739263Y-128479217D01*
X223744081Y-128456238D01*
X223747831Y-128365550D01*
X223748149Y-128360429D01*
X223750500Y-128332067D01*
X223750500Y-128303594D01*
X223750606Y-128298470D01*
X223754357Y-128207777D01*
X223751452Y-128184475D01*
X223750499Y-128169150D01*
X223750499Y-120052888D01*
X223770184Y-119985850D01*
X223786818Y-119965208D01*
X225375208Y-118376819D01*
X225436531Y-118343334D01*
X225462889Y-118340500D01*
X227389497Y-118340500D01*
X227392067Y-118340500D01*
X227577821Y-118325108D01*
X227818881Y-118264063D01*
X227970753Y-118197444D01*
X228007959Y-118187643D01*
X228082797Y-118179999D01*
X228249334Y-118124814D01*
X228398656Y-118032712D01*
X228522712Y-117908656D01*
X228614814Y-117759334D01*
X228669999Y-117592797D01*
X228677082Y-117523456D01*
X228691386Y-117477039D01*
X228708829Y-117444808D01*
X228757981Y-117301633D01*
X228789571Y-117209614D01*
X228830500Y-116964335D01*
X228830500Y-116715665D01*
X228789571Y-116470386D01*
X228742114Y-116332148D01*
X228708829Y-116235191D01*
X228691385Y-116202959D01*
X228677081Y-116156540D01*
X228672988Y-116116471D01*
X228669999Y-116087203D01*
X228614814Y-115920666D01*
X228522712Y-115771344D01*
X228522711Y-115771342D01*
X228398657Y-115647288D01*
X228249334Y-115555186D01*
X228176967Y-115531206D01*
X228119522Y-115491433D01*
X228092699Y-115426917D01*
X228092585Y-115416137D01*
X227462534Y-114786086D01*
X227472315Y-114784680D01*
X227603100Y-114724952D01*
X227711761Y-114630798D01*
X227789493Y-114509844D01*
X227813076Y-114429524D01*
X228444925Y-115061373D01*
X228503600Y-114977576D01*
X228603430Y-114763492D01*
X228664569Y-114535318D01*
X228685157Y-114299999D01*
X228664569Y-114064681D01*
X228603430Y-113836507D01*
X228503599Y-113622421D01*
X228444926Y-113538626D01*
X228444925Y-113538625D01*
X227813076Y-114170475D01*
X227789493Y-114090156D01*
X227711761Y-113969202D01*
X227603100Y-113875048D01*
X227472315Y-113815320D01*
X227462533Y-113813913D01*
X228091373Y-113185073D01*
X228091373Y-113185072D01*
X228014969Y-113131574D01*
X227971344Y-113076997D01*
X227964150Y-113007499D01*
X227995673Y-112945144D01*
X228014969Y-112928424D01*
X228091373Y-112874925D01*
X227462533Y-112246086D01*
X227472315Y-112244680D01*
X227603100Y-112184952D01*
X227711761Y-112090798D01*
X227789493Y-111969844D01*
X227813076Y-111889524D01*
X228444925Y-112521373D01*
X228503600Y-112437576D01*
X228603430Y-112223492D01*
X228664569Y-111995318D01*
X228685157Y-111760000D01*
X228664569Y-111524681D01*
X228603430Y-111296507D01*
X228503599Y-111082421D01*
X228444926Y-110998626D01*
X228444925Y-110998625D01*
X227813076Y-111630475D01*
X227789493Y-111550156D01*
X227711761Y-111429202D01*
X227603100Y-111335048D01*
X227472315Y-111275320D01*
X227462531Y-111273913D01*
X228091373Y-110645073D01*
X228091373Y-110645072D01*
X228014969Y-110591574D01*
X227971344Y-110536997D01*
X227964150Y-110467499D01*
X227995673Y-110405144D01*
X228014969Y-110388424D01*
X228091373Y-110334925D01*
X227462533Y-109706086D01*
X227472315Y-109704680D01*
X227603100Y-109644952D01*
X227711761Y-109550798D01*
X227789493Y-109429844D01*
X227813076Y-109349524D01*
X228444925Y-109981373D01*
X228503600Y-109897576D01*
X228603430Y-109683492D01*
X228664569Y-109455318D01*
X228685157Y-109220000D01*
X228664569Y-108984681D01*
X228603430Y-108756507D01*
X228503599Y-108542421D01*
X228444926Y-108458626D01*
X228444925Y-108458625D01*
X227813076Y-109090475D01*
X227789493Y-109010156D01*
X227711761Y-108889202D01*
X227603100Y-108795048D01*
X227472315Y-108735320D01*
X227462532Y-108733913D01*
X228091373Y-108105073D01*
X228091373Y-108105072D01*
X228014969Y-108051574D01*
X227971344Y-107996997D01*
X227964150Y-107927499D01*
X227995673Y-107865144D01*
X228014969Y-107848424D01*
X228091373Y-107794925D01*
X227462533Y-107166086D01*
X227472315Y-107164680D01*
X227603100Y-107104952D01*
X227711761Y-107010798D01*
X227789493Y-106889844D01*
X227813076Y-106809524D01*
X228444925Y-107441373D01*
X228503600Y-107357576D01*
X228603430Y-107143492D01*
X228664569Y-106915318D01*
X228685157Y-106680000D01*
X228664569Y-106444681D01*
X228603430Y-106216507D01*
X228503599Y-106002421D01*
X228444926Y-105918626D01*
X228444925Y-105918625D01*
X227813076Y-106550475D01*
X227789493Y-106470156D01*
X227711761Y-106349202D01*
X227603100Y-106255048D01*
X227472315Y-106195320D01*
X227462533Y-106193913D01*
X228091373Y-105565073D01*
X228091373Y-105565072D01*
X228007580Y-105506400D01*
X227793492Y-105406569D01*
X227565318Y-105345430D01*
X227330000Y-105324842D01*
X227094681Y-105345430D01*
X226866507Y-105406569D01*
X226652422Y-105506399D01*
X226568625Y-105565072D01*
X227197466Y-106193913D01*
X227187685Y-106195320D01*
X227056900Y-106255048D01*
X226948239Y-106349202D01*
X226870507Y-106470156D01*
X226846923Y-106550475D01*
X226215073Y-105918626D01*
X226161881Y-105994594D01*
X226107304Y-106038219D01*
X226037806Y-106045413D01*
X225975451Y-106013891D01*
X225958730Y-105994595D01*
X225828495Y-105808599D01*
X225826818Y-105806922D01*
X225825040Y-105803667D01*
X225822272Y-105799713D01*
X225822712Y-105799404D01*
X225793333Y-105745599D01*
X225790499Y-105719241D01*
X225790499Y-105324842D01*
X225790499Y-104789158D01*
X225790537Y-104786177D01*
X225792756Y-104698637D01*
X225782349Y-104640576D01*
X225781042Y-104631253D01*
X225775074Y-104572562D01*
X225765967Y-104543537D01*
X225762223Y-104528286D01*
X225756857Y-104498343D01*
X225734976Y-104443565D01*
X225731816Y-104434689D01*
X225729056Y-104425892D01*
X225714159Y-104378412D01*
X225699395Y-104351812D01*
X225692660Y-104337631D01*
X225681377Y-104309383D01*
X225648917Y-104260131D01*
X225644036Y-104252074D01*
X225615409Y-104200498D01*
X225595582Y-104177403D01*
X225586146Y-104164888D01*
X225569402Y-104139481D01*
X225569400Y-104139479D01*
X225569399Y-104139477D01*
X225527693Y-104097772D01*
X225521287Y-104090860D01*
X225482864Y-104046102D01*
X225458804Y-104027478D01*
X225447026Y-104017105D01*
X220701601Y-99271681D01*
X220668116Y-99210358D01*
X220673100Y-99140666D01*
X220714972Y-99084733D01*
X220780436Y-99060316D01*
X220789282Y-99060000D01*
X233556000Y-99060000D01*
X233623039Y-99079685D01*
X233668794Y-99132489D01*
X233680000Y-99184000D01*
X233680000Y-124336000D01*
X233660315Y-124403039D01*
X233607511Y-124448794D01*
X233556000Y-124460000D01*
X224155000Y-124460000D01*
X224155000Y-135766000D01*
X224135315Y-135833039D01*
X224082511Y-135878794D01*
X224031000Y-135890000D01*
X107439000Y-135890000D01*
X107371961Y-135870315D01*
X107326206Y-135817511D01*
X107315000Y-135766000D01*
X107315000Y-128401182D01*
X129059500Y-128401182D01*
X129098604Y-128660615D01*
X129175937Y-128911323D01*
X129289772Y-129147704D01*
X129384828Y-129287125D01*
X129437571Y-129364485D01*
X129616015Y-129556801D01*
X129616019Y-129556805D01*
X129821143Y-129720386D01*
X130048357Y-129851568D01*
X130292584Y-129947420D01*
X130548370Y-130005802D01*
X130744506Y-130020500D01*
X130746823Y-130020500D01*
X130873177Y-130020500D01*
X130875494Y-130020500D01*
X131071630Y-130005802D01*
X131327416Y-129947420D01*
X131571643Y-129851568D01*
X131798857Y-129720386D01*
X132003981Y-129556805D01*
X132156749Y-129392160D01*
X132182428Y-129364485D01*
X132182429Y-129364482D01*
X132182433Y-129364479D01*
X132330228Y-129147704D01*
X132444063Y-128911323D01*
X132521396Y-128660615D01*
X132560500Y-128401182D01*
X132560500Y-128138818D01*
X132521396Y-127879385D01*
X132444063Y-127628677D01*
X132330228Y-127392296D01*
X132182433Y-127175521D01*
X132182432Y-127175520D01*
X132182428Y-127175514D01*
X132003984Y-126983198D01*
X132003983Y-126983197D01*
X132003981Y-126983195D01*
X131798857Y-126819614D01*
X131798856Y-126819613D01*
X131608449Y-126709682D01*
X131571643Y-126688432D01*
X131571642Y-126688431D01*
X131571641Y-126688431D01*
X131327418Y-126592580D01*
X131071627Y-126534197D01*
X130877808Y-126519673D01*
X130877797Y-126519672D01*
X130875494Y-126519500D01*
X130744506Y-126519500D01*
X130742203Y-126519672D01*
X130742191Y-126519673D01*
X130548372Y-126534197D01*
X130292581Y-126592580D01*
X130048358Y-126688431D01*
X129821143Y-126819613D01*
X129616015Y-126983198D01*
X129437571Y-127175514D01*
X129402053Y-127227610D01*
X129289772Y-127392296D01*
X129175937Y-127628677D01*
X129098604Y-127879385D01*
X129059500Y-128138818D01*
X129059500Y-128401182D01*
X107315000Y-128401182D01*
X107315000Y-120142000D01*
X112802389Y-120142000D01*
X112822804Y-120427429D01*
X112883629Y-120707041D01*
X112915504Y-120792501D01*
X112974385Y-120950367D01*
X112983634Y-120975163D01*
X113120772Y-121226313D01*
X113158130Y-121276217D01*
X113292261Y-121455395D01*
X113494605Y-121657739D01*
X113664284Y-121784759D01*
X113723686Y-121829227D01*
X113833295Y-121889078D01*
X113974839Y-121966367D01*
X114242954Y-122066369D01*
X114242957Y-122066369D01*
X114242958Y-122066370D01*
X114295217Y-122077738D01*
X114522572Y-122127196D01*
X114808000Y-122147610D01*
X115093428Y-122127196D01*
X115373046Y-122066369D01*
X115641161Y-121966367D01*
X115892315Y-121829226D01*
X116121395Y-121657739D01*
X116323739Y-121455395D01*
X116495226Y-121226315D01*
X116632367Y-120975161D01*
X116732369Y-120707046D01*
X116793196Y-120427428D01*
X116813610Y-120142000D01*
X116793196Y-119856572D01*
X116732369Y-119576954D01*
X116632367Y-119308839D01*
X116556979Y-119170777D01*
X116495227Y-119057686D01*
X116414902Y-118950385D01*
X116323739Y-118828605D01*
X116121395Y-118626261D01*
X115959551Y-118505106D01*
X115892313Y-118454772D01*
X115641163Y-118317634D01*
X115641162Y-118317633D01*
X115641161Y-118317633D01*
X115373046Y-118217631D01*
X115373041Y-118217629D01*
X115093429Y-118156804D01*
X114808000Y-118136389D01*
X114522570Y-118156804D01*
X114242958Y-118217629D01*
X113974836Y-118317634D01*
X113723686Y-118454772D01*
X113494602Y-118626263D01*
X113292263Y-118828602D01*
X113120772Y-119057686D01*
X112983634Y-119308836D01*
X112883629Y-119576958D01*
X112822804Y-119856570D01*
X112802389Y-120142000D01*
X107315000Y-120142000D01*
X107315000Y-115061999D01*
X112802890Y-115061999D01*
X112823300Y-115347357D01*
X112884111Y-115626902D01*
X112984088Y-115894952D01*
X113121193Y-116146042D01*
X113227883Y-116288562D01*
X114091338Y-115425107D01*
X114178577Y-115563948D01*
X114306052Y-115691423D01*
X114444891Y-115778661D01*
X113581436Y-116642115D01*
X113723958Y-116748806D01*
X113975047Y-116885911D01*
X114243097Y-116985888D01*
X114522642Y-117046699D01*
X114808000Y-117067109D01*
X115093357Y-117046699D01*
X115372902Y-116985888D01*
X115640952Y-116885911D01*
X115892041Y-116748806D01*
X116034562Y-116642115D01*
X115171108Y-115778661D01*
X115309948Y-115691423D01*
X115437423Y-115563948D01*
X115524661Y-115425108D01*
X116388115Y-116288562D01*
X116494806Y-116146041D01*
X116631911Y-115894952D01*
X116731888Y-115626902D01*
X116792699Y-115347357D01*
X116813109Y-115062000D01*
X116792699Y-114776642D01*
X116731888Y-114497097D01*
X116631911Y-114229047D01*
X116494806Y-113977958D01*
X116388115Y-113835436D01*
X115524660Y-114698890D01*
X115437423Y-114560052D01*
X115309948Y-114432577D01*
X115171108Y-114345338D01*
X116034562Y-113481883D01*
X115892042Y-113375193D01*
X115640952Y-113238088D01*
X115372902Y-113138111D01*
X115093357Y-113077300D01*
X114808000Y-113056890D01*
X114522642Y-113077300D01*
X114243097Y-113138111D01*
X113975047Y-113238088D01*
X113723954Y-113375195D01*
X113581437Y-113481882D01*
X113581436Y-113481883D01*
X114444891Y-114345338D01*
X114306052Y-114432577D01*
X114178577Y-114560052D01*
X114091338Y-114698891D01*
X113227883Y-113835436D01*
X113227882Y-113835437D01*
X113121195Y-113977954D01*
X112984088Y-114229047D01*
X112884111Y-114497097D01*
X112823300Y-114776642D01*
X112802890Y-115061999D01*
X107315000Y-115061999D01*
X107315000Y-112775999D01*
X123216890Y-112775999D01*
X123237300Y-113061357D01*
X123298111Y-113340902D01*
X123398088Y-113608952D01*
X123535193Y-113860042D01*
X123641883Y-114002562D01*
X124505338Y-113139107D01*
X124592577Y-113277948D01*
X124720052Y-113405423D01*
X124858891Y-113492661D01*
X123995436Y-114356115D01*
X124137958Y-114462806D01*
X124389047Y-114599911D01*
X124657097Y-114699888D01*
X124936642Y-114760699D01*
X125221999Y-114781109D01*
X125507357Y-114760699D01*
X125786902Y-114699888D01*
X126054952Y-114599911D01*
X126306041Y-114462806D01*
X126448562Y-114356115D01*
X125585108Y-113492661D01*
X125723948Y-113405423D01*
X125851423Y-113277948D01*
X125938661Y-113139108D01*
X126802115Y-114002562D01*
X126908806Y-113860041D01*
X127045911Y-113608952D01*
X127145888Y-113340902D01*
X127206699Y-113061357D01*
X127227109Y-112775999D01*
X135154890Y-112775999D01*
X135175300Y-113061357D01*
X135236111Y-113340902D01*
X135336088Y-113608952D01*
X135473193Y-113860042D01*
X135579883Y-114002562D01*
X136443338Y-113139107D01*
X136530577Y-113277948D01*
X136658052Y-113405423D01*
X136796891Y-113492661D01*
X135933436Y-114356115D01*
X136075958Y-114462806D01*
X136327047Y-114599911D01*
X136595097Y-114699888D01*
X136874642Y-114760699D01*
X137160000Y-114781109D01*
X137445357Y-114760699D01*
X137724902Y-114699888D01*
X137992952Y-114599911D01*
X138244041Y-114462806D01*
X138386562Y-114356115D01*
X137523108Y-113492661D01*
X137661948Y-113405423D01*
X137789423Y-113277948D01*
X137876661Y-113139108D01*
X138740115Y-114002562D01*
X138846806Y-113860041D01*
X138983911Y-113608952D01*
X139047672Y-113438000D01*
X149190033Y-113438000D01*
X149209858Y-113664602D01*
X149268733Y-113884326D01*
X149364866Y-114090484D01*
X149415972Y-114163471D01*
X149415974Y-114163472D01*
X150097046Y-113482399D01*
X150109835Y-113563148D01*
X150167359Y-113676045D01*
X150256955Y-113765641D01*
X150369852Y-113823165D01*
X150450599Y-113835953D01*
X149769526Y-114517025D01*
X149769526Y-114517026D01*
X149842515Y-114568133D01*
X150048673Y-114664266D01*
X150268397Y-114723141D01*
X150494999Y-114742966D01*
X150721602Y-114723141D01*
X150941326Y-114664266D01*
X151147480Y-114568134D01*
X151220472Y-114517025D01*
X150539401Y-113835953D01*
X150620148Y-113823165D01*
X150733045Y-113765641D01*
X150822641Y-113676045D01*
X150880165Y-113563148D01*
X150892953Y-113482400D01*
X151574025Y-114163472D01*
X151625134Y-114090480D01*
X151721266Y-113884326D01*
X151780141Y-113664602D01*
X151799966Y-113437999D01*
X151780141Y-113211397D01*
X151721266Y-112991673D01*
X151625133Y-112785515D01*
X151574025Y-112712526D01*
X150892953Y-113393598D01*
X150880165Y-113312852D01*
X150822641Y-113199955D01*
X150733045Y-113110359D01*
X150620148Y-113052835D01*
X150539400Y-113040046D01*
X151220472Y-112358974D01*
X151220471Y-112358972D01*
X151147484Y-112307866D01*
X150941326Y-112211733D01*
X150721602Y-112152858D01*
X150494999Y-112133033D01*
X150268397Y-112152858D01*
X150048672Y-112211733D01*
X149842516Y-112307865D01*
X149769527Y-112358973D01*
X149769526Y-112358973D01*
X150450600Y-113040046D01*
X150369852Y-113052835D01*
X150256955Y-113110359D01*
X150167359Y-113199955D01*
X150109835Y-113312852D01*
X150097046Y-113393599D01*
X149415973Y-112712526D01*
X149415973Y-112712527D01*
X149364865Y-112785516D01*
X149268733Y-112991672D01*
X149209858Y-113211397D01*
X149190033Y-113438000D01*
X139047672Y-113438000D01*
X139083888Y-113340902D01*
X139144699Y-113061357D01*
X139165109Y-112776000D01*
X139144699Y-112490642D01*
X139083888Y-112211097D01*
X138983911Y-111943047D01*
X138846806Y-111691958D01*
X138740115Y-111549436D01*
X137876660Y-112412890D01*
X137789423Y-112274052D01*
X137661948Y-112146577D01*
X137523108Y-112059338D01*
X138386562Y-111195883D01*
X138244042Y-111089193D01*
X137992952Y-110952088D01*
X137724902Y-110852111D01*
X137445357Y-110791300D01*
X137160000Y-110770890D01*
X136874642Y-110791300D01*
X136595097Y-110852111D01*
X136327047Y-110952088D01*
X136075954Y-111089195D01*
X135933437Y-111195882D01*
X135933436Y-111195883D01*
X136796891Y-112059338D01*
X136658052Y-112146577D01*
X136530577Y-112274052D01*
X136443338Y-112412891D01*
X135579883Y-111549436D01*
X135579882Y-111549437D01*
X135473195Y-111691954D01*
X135336088Y-111943047D01*
X135236111Y-112211097D01*
X135175300Y-112490642D01*
X135154890Y-112775999D01*
X127227109Y-112775999D01*
X127206699Y-112490642D01*
X127145888Y-112211097D01*
X127045911Y-111943047D01*
X126908806Y-111691958D01*
X126802115Y-111549436D01*
X125938660Y-112412890D01*
X125851423Y-112274052D01*
X125723948Y-112146577D01*
X125585108Y-112059338D01*
X126448562Y-111195883D01*
X126306042Y-111089193D01*
X126054952Y-110952088D01*
X125786902Y-110852111D01*
X125507357Y-110791300D01*
X125221999Y-110770890D01*
X124936642Y-110791300D01*
X124657097Y-110852111D01*
X124389047Y-110952088D01*
X124137954Y-111089195D01*
X123995437Y-111195882D01*
X123995436Y-111195883D01*
X124858891Y-112059338D01*
X124720052Y-112146577D01*
X124592577Y-112274052D01*
X124505338Y-112412891D01*
X123641883Y-111549436D01*
X123641882Y-111549437D01*
X123535195Y-111691954D01*
X123398088Y-111943047D01*
X123298111Y-112211097D01*
X123237300Y-112490642D01*
X123216890Y-112775999D01*
X107315000Y-112775999D01*
X107315000Y-111162544D01*
X107334685Y-111095505D01*
X107335826Y-111093761D01*
X108585001Y-109219999D01*
X177130033Y-109219999D01*
X177149858Y-109446602D01*
X177208733Y-109666326D01*
X177304866Y-109872484D01*
X177355972Y-109945471D01*
X177355973Y-109945472D01*
X178037045Y-109264399D01*
X178049835Y-109345148D01*
X178107359Y-109458045D01*
X178196955Y-109547641D01*
X178309852Y-109605165D01*
X178390599Y-109617953D01*
X177709526Y-110299025D01*
X177709526Y-110299026D01*
X177782515Y-110350133D01*
X177988673Y-110446266D01*
X178208397Y-110505141D01*
X178435000Y-110524966D01*
X178661602Y-110505141D01*
X178881326Y-110446266D01*
X179087480Y-110350134D01*
X179160472Y-110299025D01*
X178479401Y-109617953D01*
X178560148Y-109605165D01*
X178673045Y-109547641D01*
X178762641Y-109458045D01*
X178820165Y-109345148D01*
X178832953Y-109264400D01*
X179514025Y-109945472D01*
X179565134Y-109872480D01*
X179661266Y-109666326D01*
X179720141Y-109446602D01*
X179739966Y-109220000D01*
X179720141Y-108993397D01*
X179661266Y-108773673D01*
X179565133Y-108567515D01*
X179514025Y-108494526D01*
X178832953Y-109175598D01*
X178820165Y-109094852D01*
X178762641Y-108981955D01*
X178673045Y-108892359D01*
X178560148Y-108834835D01*
X178479400Y-108822046D01*
X179160472Y-108140974D01*
X179160471Y-108140972D01*
X179087484Y-108089866D01*
X178881326Y-107993733D01*
X178661602Y-107934858D01*
X178435000Y-107915033D01*
X178208397Y-107934858D01*
X177988672Y-107993733D01*
X177782516Y-108089865D01*
X177709527Y-108140973D01*
X177709526Y-108140973D01*
X178390600Y-108822046D01*
X178309852Y-108834835D01*
X178196955Y-108892359D01*
X178107359Y-108981955D01*
X178049835Y-109094852D01*
X178037046Y-109175598D01*
X177355973Y-108494527D01*
X177304865Y-108567516D01*
X177208733Y-108773672D01*
X177149858Y-108993397D01*
X177130033Y-109219999D01*
X108585001Y-109219999D01*
X109818189Y-107370217D01*
X109871754Y-107325356D01*
X109921363Y-107315000D01*
X140335000Y-107315000D01*
X143473681Y-104176319D01*
X143535004Y-104142834D01*
X143561362Y-104140000D01*
X156844998Y-104140000D01*
X156845000Y-104140000D01*
X159983575Y-99118279D01*
X160035799Y-99071864D01*
X160088727Y-99060000D01*
X179584543Y-99060000D01*
X179651582Y-99079685D01*
G37*
G04 #@! TD.AperFunction*
G04 #@! TA.AperFunction,Conductor*
G36*
X226870507Y-109429844D02*
G01*
X226948239Y-109550798D01*
X227056900Y-109644952D01*
X227187685Y-109704680D01*
X227197466Y-109706086D01*
X226568625Y-110334925D01*
X226645031Y-110388425D01*
X226688655Y-110443002D01*
X226695848Y-110512501D01*
X226664326Y-110574855D01*
X226645029Y-110591576D01*
X226568625Y-110645072D01*
X227197466Y-111273913D01*
X227187685Y-111275320D01*
X227056900Y-111335048D01*
X226948239Y-111429202D01*
X226870507Y-111550156D01*
X226846923Y-111630476D01*
X226215072Y-110998625D01*
X226171130Y-111002470D01*
X226102630Y-110988703D01*
X226056961Y-110944461D01*
X226056784Y-110944599D01*
X226055804Y-110943340D01*
X226052447Y-110940088D01*
X226051268Y-110937959D01*
X226050474Y-110936491D01*
X226015371Y-110891391D01*
X226009416Y-110883050D01*
X225978165Y-110835216D01*
X225974510Y-110831246D01*
X225939458Y-110793169D01*
X225932843Y-110785358D01*
X225897739Y-110740257D01*
X225897736Y-110740254D01*
X225855685Y-110701543D01*
X225848455Y-110694313D01*
X225809744Y-110652262D01*
X225800508Y-110645073D01*
X225764646Y-110617160D01*
X225756826Y-110610537D01*
X225714782Y-110571833D01*
X225666943Y-110540578D01*
X225658603Y-110534624D01*
X225605665Y-110493421D01*
X225564852Y-110436710D01*
X225561177Y-110366937D01*
X225595808Y-110306254D01*
X225610690Y-110294002D01*
X225661401Y-110258495D01*
X225828495Y-110091401D01*
X225958732Y-109905403D01*
X226013307Y-109861780D01*
X226082805Y-109854586D01*
X226145160Y-109886109D01*
X226161880Y-109905405D01*
X226215073Y-109981373D01*
X226846923Y-109349523D01*
X226870507Y-109429844D01*
G37*
G04 #@! TD.AperFunction*
G04 #@! TA.AperFunction,Conductor*
G36*
X226870507Y-106889844D02*
G01*
X226948239Y-107010798D01*
X227056900Y-107104952D01*
X227187685Y-107164680D01*
X227197466Y-107166086D01*
X226568625Y-107794925D01*
X226645031Y-107848425D01*
X226688655Y-107903002D01*
X226695848Y-107972501D01*
X226664326Y-108034855D01*
X226645029Y-108051576D01*
X226568625Y-108105072D01*
X226568625Y-108105073D01*
X227197465Y-108733913D01*
X227187685Y-108735320D01*
X227056900Y-108795048D01*
X226948239Y-108889202D01*
X226870507Y-109010156D01*
X226846923Y-109090474D01*
X226215073Y-108458626D01*
X226161881Y-108534594D01*
X226107304Y-108578219D01*
X226037806Y-108585413D01*
X225975451Y-108553891D01*
X225958730Y-108534595D01*
X225828495Y-108348599D01*
X225661401Y-108181505D01*
X225475839Y-108051573D01*
X225432217Y-107996998D01*
X225425024Y-107927499D01*
X225456546Y-107865145D01*
X225475837Y-107848428D01*
X225661401Y-107718495D01*
X225828495Y-107551401D01*
X225958732Y-107365403D01*
X226013307Y-107321780D01*
X226082805Y-107314586D01*
X226145160Y-107346109D01*
X226161880Y-107365405D01*
X226215073Y-107441373D01*
X226846923Y-106809523D01*
X226870507Y-106889844D01*
G37*
G04 #@! TD.AperFunction*
M02*
