G04 #@! TF.GenerationSoftware,KiCad,Pcbnew,7.0.2*
G04 #@! TF.CreationDate,2023-08-07T12:58:25+02:00*
G04 #@! TF.ProjectId,Module_3,4d6f6475-6c65-45f3-932e-6b696361645f,rev?*
G04 #@! TF.SameCoordinates,Original*
G04 #@! TF.FileFunction,AssemblyDrawing,Bot*
%FSLAX46Y46*%
G04 Gerber Fmt 4.6, Leading zero omitted, Abs format (unit mm)*
G04 Created by KiCad (PCBNEW 7.0.2) date 2023-08-07 12:58:25*
%MOMM*%
%LPD*%
G01*
G04 APERTURE LIST*
%ADD10C,0.150000*%
%ADD11C,0.100000*%
%ADD12C,0.120000*%
G04 APERTURE END LIST*
D10*
X168137619Y-72256905D02*
X167137619Y-72256905D01*
X167137619Y-72256905D02*
X167137619Y-72495000D01*
X167137619Y-72495000D02*
X167185238Y-72637857D01*
X167185238Y-72637857D02*
X167280476Y-72733095D01*
X167280476Y-72733095D02*
X167375714Y-72780714D01*
X167375714Y-72780714D02*
X167566190Y-72828333D01*
X167566190Y-72828333D02*
X167709047Y-72828333D01*
X167709047Y-72828333D02*
X167899523Y-72780714D01*
X167899523Y-72780714D02*
X167994761Y-72733095D01*
X167994761Y-72733095D02*
X168090000Y-72637857D01*
X168090000Y-72637857D02*
X168137619Y-72495000D01*
X168137619Y-72495000D02*
X168137619Y-72256905D01*
X167232857Y-73209286D02*
X167185238Y-73256905D01*
X167185238Y-73256905D02*
X167137619Y-73352143D01*
X167137619Y-73352143D02*
X167137619Y-73590238D01*
X167137619Y-73590238D02*
X167185238Y-73685476D01*
X167185238Y-73685476D02*
X167232857Y-73733095D01*
X167232857Y-73733095D02*
X167328095Y-73780714D01*
X167328095Y-73780714D02*
X167423333Y-73780714D01*
X167423333Y-73780714D02*
X167566190Y-73733095D01*
X167566190Y-73733095D02*
X168137619Y-73161667D01*
X168137619Y-73161667D02*
X168137619Y-73780714D01*
D11*
X166975000Y-84045000D02*
X169375000Y-84045000D01*
X169375000Y-84045000D02*
X169375000Y-61945000D01*
X165975000Y-83145000D02*
X166975000Y-84045000D01*
X165975000Y-80945000D02*
X169375000Y-80945000D01*
X165975000Y-61945000D02*
X165975000Y-83145000D01*
D12*
X169375000Y-61945000D02*
X165975000Y-61945000D01*
M02*
