%TF.GenerationSoftware,KiCad,Pcbnew,7.0.2*%
%TF.CreationDate,2023-10-15T13:02:00+02:00*%
%TF.ProjectId,Module_2,4d6f6475-6c65-45f3-922e-6b696361645f,rev?*%
%TF.SameCoordinates,Original*%
%TF.FileFunction,Drillmap*%
%TF.FilePolarity,Positive*%
%FSLAX45Y45*%
G04 Gerber Fmt 4.5, Leading zero omitted, Abs format (unit mm)*
G04 Created by KiCad (PCBNEW 7.0.2) date 2023-10-15 13:02:00*
%MOMM*%
%LPD*%
G01*
G04 APERTURE LIST*
%ADD10C,0.100000*%
%ADD11C,0.200000*%
%ADD12C,0.050000*%
%ADD13C,0.080000*%
%ADD14C,0.090000*%
%ADD15C,0.102000*%
%ADD16C,0.120000*%
%ADD17C,0.150000*%
%ADD18C,0.300000*%
G04 APERTURE END LIST*
D10*
X4061460Y-3028000D02*
X16637000Y-3028000D01*
X16637000Y-14508800D01*
X4061460Y-14508800D01*
X4061460Y-3028000D01*
D11*
D12*
X4293000Y-8611000D02*
X4343000Y-8661000D01*
X4343000Y-8611000D02*
X4293000Y-8661000D01*
X4293000Y-9119000D02*
X4343000Y-9169000D01*
X4343000Y-9119000D02*
X4293000Y-9169000D01*
X4293000Y-9627000D02*
X4343000Y-9677000D01*
X4343000Y-9627000D02*
X4293000Y-9677000D01*
X4293000Y-10262000D02*
X4343000Y-10312000D01*
X4343000Y-10262000D02*
X4293000Y-10312000D01*
X4293000Y-10897000D02*
X4343000Y-10947000D01*
X4343000Y-10897000D02*
X4293000Y-10947000D01*
X4293000Y-11532000D02*
X4343000Y-11582000D01*
X4343000Y-11532000D02*
X4293000Y-11582000D01*
X4293000Y-12167000D02*
X4343000Y-12217000D01*
X4343000Y-12167000D02*
X4293000Y-12217000D01*
X4293000Y-12802000D02*
X4343000Y-12852000D01*
X4343000Y-12802000D02*
X4293000Y-12852000D01*
X4293000Y-13437000D02*
X4343000Y-13487000D01*
X4343000Y-13437000D02*
X4293000Y-13487000D01*
X4293000Y-14072000D02*
X4343000Y-14122000D01*
X4343000Y-14072000D02*
X4293000Y-14122000D01*
X4547000Y-14326000D02*
X4597000Y-14376000D01*
X4597000Y-14326000D02*
X4547000Y-14376000D01*
X5055000Y-9627000D02*
X5105000Y-9677000D01*
X5105000Y-9627000D02*
X5055000Y-9677000D01*
X5055000Y-10008000D02*
X5105000Y-10058000D01*
X5105000Y-10008000D02*
X5055000Y-10058000D01*
X5182000Y-9246000D02*
X5232000Y-9296000D01*
X5232000Y-9246000D02*
X5182000Y-9296000D01*
X5182000Y-10516000D02*
X5232000Y-10566000D01*
X5232000Y-10516000D02*
X5182000Y-10566000D01*
X5182000Y-13437000D02*
X5232000Y-13487000D01*
X5232000Y-13437000D02*
X5182000Y-13487000D01*
X5182000Y-14326000D02*
X5232000Y-14376000D01*
X5232000Y-14326000D02*
X5182000Y-14376000D01*
X5309000Y-11836800D02*
X5359000Y-11886800D01*
X5359000Y-11836800D02*
X5309000Y-11886800D01*
X5309000Y-12421000D02*
X5359000Y-12471000D01*
X5359000Y-12421000D02*
X5309000Y-12471000D01*
X5436000Y-8611000D02*
X5486000Y-8661000D01*
X5486000Y-8611000D02*
X5436000Y-8661000D01*
X5436000Y-9500000D02*
X5486000Y-9550000D01*
X5486000Y-9500000D02*
X5436000Y-9550000D01*
X5436000Y-10135000D02*
X5486000Y-10185000D01*
X5486000Y-10135000D02*
X5436000Y-10185000D01*
X5613800Y-11633600D02*
X5663800Y-11683600D01*
X5663800Y-11633600D02*
X5613800Y-11683600D01*
X5639200Y-10795400D02*
X5689200Y-10845400D01*
X5689200Y-10795400D02*
X5639200Y-10845400D01*
X5639200Y-11354200D02*
X5689200Y-11404200D01*
X5689200Y-11354200D02*
X5639200Y-11404200D01*
X5690000Y-9754000D02*
X5740000Y-9804000D01*
X5740000Y-9754000D02*
X5690000Y-9804000D01*
X5817000Y-14326000D02*
X5867000Y-14376000D01*
X5867000Y-14326000D02*
X5817000Y-14376000D01*
X6020200Y-11633600D02*
X6070200Y-11683600D01*
X6070200Y-11633600D02*
X6020200Y-11683600D01*
X6071000Y-8611000D02*
X6121000Y-8661000D01*
X6121000Y-8611000D02*
X6071000Y-8661000D01*
X6071000Y-10135000D02*
X6121000Y-10185000D01*
X6121000Y-10135000D02*
X6071000Y-10185000D01*
X6071000Y-10643000D02*
X6121000Y-10693000D01*
X6121000Y-10643000D02*
X6071000Y-10693000D01*
X6325000Y-12167000D02*
X6375000Y-12217000D01*
X6375000Y-12167000D02*
X6325000Y-12217000D01*
X6452000Y-14326000D02*
X6502000Y-14376000D01*
X6502000Y-14326000D02*
X6452000Y-14376000D01*
X6579000Y-10135000D02*
X6629000Y-10185000D01*
X6629000Y-10135000D02*
X6579000Y-10185000D01*
X6579000Y-10643000D02*
X6629000Y-10693000D01*
X6629000Y-10643000D02*
X6579000Y-10693000D01*
X6610647Y-11608252D02*
X6660647Y-11658252D01*
X6660647Y-11608252D02*
X6610647Y-11658252D01*
X6647588Y-13612991D02*
X6697588Y-13662991D01*
X6697588Y-13612991D02*
X6647588Y-13662991D01*
X6706000Y-8611000D02*
X6756000Y-8661000D01*
X6756000Y-8611000D02*
X6706000Y-8661000D01*
X6833000Y-12167000D02*
X6883000Y-12217000D01*
X6883000Y-12167000D02*
X6833000Y-12217000D01*
X7087000Y-10135000D02*
X7137000Y-10185000D01*
X7137000Y-10135000D02*
X7087000Y-10185000D01*
X7087000Y-10643000D02*
X7137000Y-10693000D01*
X7137000Y-10643000D02*
X7087000Y-10693000D01*
X7087000Y-14326000D02*
X7137000Y-14376000D01*
X7137000Y-14326000D02*
X7087000Y-14376000D01*
X7309589Y-11614784D02*
X7359589Y-11664784D01*
X7359589Y-11614784D02*
X7309589Y-11664784D01*
X7315600Y-11049400D02*
X7365600Y-11099400D01*
X7365600Y-11049400D02*
X7315600Y-11099400D01*
X7341000Y-8611000D02*
X7391000Y-8661000D01*
X7391000Y-8611000D02*
X7341000Y-8661000D01*
X7341000Y-12167000D02*
X7391000Y-12217000D01*
X7391000Y-12167000D02*
X7341000Y-12217000D01*
X7468000Y-12929000D02*
X7518000Y-12979000D01*
X7518000Y-12929000D02*
X7468000Y-12979000D01*
X7468000Y-13437000D02*
X7518000Y-13487000D01*
X7518000Y-13437000D02*
X7468000Y-13487000D01*
X7671200Y-10922400D02*
X7721200Y-10972400D01*
X7721200Y-10922400D02*
X7671200Y-10972400D01*
X7722000Y-14326000D02*
X7772000Y-14376000D01*
X7772000Y-14326000D02*
X7722000Y-14376000D01*
X7976000Y-8611000D02*
X8026000Y-8661000D01*
X8026000Y-8611000D02*
X7976000Y-8661000D01*
X7976000Y-12548000D02*
X8026000Y-12598000D01*
X8026000Y-12548000D02*
X7976000Y-12598000D01*
X7976000Y-13183000D02*
X8026000Y-13233000D01*
X8026000Y-13183000D02*
X7976000Y-13233000D01*
X8103000Y-9627000D02*
X8153000Y-9677000D01*
X8153000Y-9627000D02*
X8103000Y-9677000D01*
X8103000Y-10135000D02*
X8153000Y-10185000D01*
X8153000Y-10135000D02*
X8103000Y-10185000D01*
X8103000Y-11176400D02*
X8153000Y-11226400D01*
X8153000Y-11176400D02*
X8103000Y-11226400D01*
X8103000Y-13945000D02*
X8153000Y-13995000D01*
X8153000Y-13945000D02*
X8103000Y-13995000D01*
X8357000Y-14326000D02*
X8407000Y-14376000D01*
X8407000Y-14326000D02*
X8357000Y-14376000D01*
X8585600Y-11125600D02*
X8635600Y-11175600D01*
X8635600Y-11125600D02*
X8585600Y-11175600D01*
X8611000Y-8611000D02*
X8661000Y-8661000D01*
X8661000Y-8611000D02*
X8611000Y-8661000D01*
X8611000Y-9627000D02*
X8661000Y-9677000D01*
X8661000Y-9627000D02*
X8611000Y-9677000D01*
X8611000Y-10135000D02*
X8661000Y-10185000D01*
X8661000Y-10135000D02*
X8611000Y-10185000D01*
X8992000Y-14326000D02*
X9042000Y-14376000D01*
X9042000Y-14326000D02*
X8992000Y-14376000D01*
X9246000Y-8611000D02*
X9296000Y-8661000D01*
X9296000Y-8611000D02*
X9246000Y-8661000D01*
X9335941Y-11288190D02*
X9385941Y-11338190D01*
X9385941Y-11288190D02*
X9335941Y-11338190D01*
X9347600Y-11100200D02*
X9397600Y-11150200D01*
X9397600Y-11100200D02*
X9347600Y-11150200D01*
X9467325Y-9945495D02*
X9517325Y-9995495D01*
X9517325Y-9945495D02*
X9467325Y-9995495D01*
X9550800Y-11024000D02*
X9600800Y-11074000D01*
X9600800Y-11024000D02*
X9550800Y-11074000D01*
X9627000Y-14326000D02*
X9677000Y-14376000D01*
X9677000Y-14326000D02*
X9627000Y-14376000D01*
X9643774Y-10838936D02*
X9693774Y-10888936D01*
X9693774Y-10838936D02*
X9643774Y-10888936D01*
X9754000Y-11278000D02*
X9804000Y-11328000D01*
X9804000Y-11278000D02*
X9754000Y-11328000D01*
X9881000Y-8611000D02*
X9931000Y-8661000D01*
X9931000Y-8611000D02*
X9881000Y-8661000D01*
X10008000Y-11532000D02*
X10058000Y-11582000D01*
X10058000Y-11532000D02*
X10008000Y-11582000D01*
X10008000Y-13945000D02*
X10058000Y-13995000D01*
X10058000Y-13945000D02*
X10008000Y-13995000D01*
X10185800Y-11151000D02*
X10235800Y-11201000D01*
X10235800Y-11151000D02*
X10185800Y-11201000D01*
X10185800Y-11405000D02*
X10235800Y-11455000D01*
X10235800Y-11405000D02*
X10185800Y-11455000D01*
X10248167Y-10070447D02*
X10298167Y-10120447D01*
X10298167Y-10070447D02*
X10248167Y-10120447D01*
X10262000Y-8865000D02*
X10312000Y-8915000D01*
X10312000Y-8865000D02*
X10262000Y-8915000D01*
X10262000Y-14326000D02*
X10312000Y-14376000D01*
X10312000Y-14326000D02*
X10262000Y-14376000D01*
X10297521Y-9704646D02*
X10347521Y-9754646D01*
X10347521Y-9704646D02*
X10297521Y-9754646D01*
X10317653Y-10875805D02*
X10367653Y-10925805D01*
X10367653Y-10875805D02*
X10317653Y-10925805D01*
X10465200Y-11684400D02*
X10515200Y-11734400D01*
X10515200Y-11684400D02*
X10465200Y-11734400D01*
X10516000Y-12167000D02*
X10566000Y-12217000D01*
X10566000Y-12167000D02*
X10516000Y-12217000D01*
X10516000Y-12675000D02*
X10566000Y-12725000D01*
X10566000Y-12675000D02*
X10516000Y-12725000D01*
X10516000Y-13183000D02*
X10566000Y-13233000D01*
X10566000Y-13183000D02*
X10516000Y-13233000D01*
X10553001Y-9957223D02*
X10603001Y-10007223D01*
X10603001Y-9957223D02*
X10553001Y-10007223D01*
X10643000Y-13945000D02*
X10693000Y-13995000D01*
X10693000Y-13945000D02*
X10643000Y-13995000D01*
X10680303Y-11848703D02*
X10730303Y-11898703D01*
X10730303Y-11848703D02*
X10680303Y-11898703D01*
X10770000Y-9119000D02*
X10820000Y-9169000D01*
X10820000Y-9119000D02*
X10770000Y-9169000D01*
X10897000Y-14326000D02*
X10947000Y-14376000D01*
X10947000Y-14326000D02*
X10897000Y-14376000D01*
X10998600Y-11024000D02*
X11048600Y-11074000D01*
X11048600Y-11024000D02*
X10998600Y-11074000D01*
X11024000Y-12167000D02*
X11074000Y-12217000D01*
X11074000Y-12167000D02*
X11024000Y-12217000D01*
X11024000Y-12675000D02*
X11074000Y-12725000D01*
X11074000Y-12675000D02*
X11024000Y-12725000D01*
X11024000Y-13183000D02*
X11074000Y-13233000D01*
X11074000Y-13183000D02*
X11024000Y-13233000D01*
X11046543Y-10006577D02*
X11096543Y-10056577D01*
X11096543Y-10006577D02*
X11046543Y-10056577D01*
X11060604Y-10517650D02*
X11110604Y-10567650D01*
X11110604Y-10517650D02*
X11060604Y-10567650D01*
X11066410Y-10829259D02*
X11116410Y-10879259D01*
X11116410Y-10829259D02*
X11066410Y-10879259D01*
X11125600Y-12929000D02*
X11175600Y-12979000D01*
X11175600Y-12929000D02*
X11125600Y-12979000D01*
X11278000Y-13818000D02*
X11328000Y-13868000D01*
X11328000Y-13818000D02*
X11278000Y-13868000D01*
X11405000Y-6325000D02*
X11455000Y-6375000D01*
X11455000Y-6325000D02*
X11405000Y-6375000D01*
X11405000Y-6579000D02*
X11455000Y-6629000D01*
X11455000Y-6579000D02*
X11405000Y-6629000D01*
X11405000Y-6833000D02*
X11455000Y-6883000D01*
X11455000Y-6833000D02*
X11405000Y-6883000D01*
X11405000Y-7087000D02*
X11455000Y-7137000D01*
X11455000Y-7087000D02*
X11405000Y-7137000D01*
X11405000Y-7341000D02*
X11455000Y-7391000D01*
X11455000Y-7341000D02*
X11405000Y-7391000D01*
X11405000Y-7595000D02*
X11455000Y-7645000D01*
X11455000Y-7595000D02*
X11405000Y-7645000D01*
X11405000Y-7849000D02*
X11455000Y-7899000D01*
X11455000Y-7849000D02*
X11405000Y-7899000D01*
X11405000Y-8103000D02*
X11455000Y-8153000D01*
X11455000Y-8103000D02*
X11405000Y-8153000D01*
X11405000Y-8357000D02*
X11455000Y-8407000D01*
X11455000Y-8357000D02*
X11405000Y-8407000D01*
X11405000Y-9119000D02*
X11455000Y-9169000D01*
X11455000Y-9119000D02*
X11405000Y-9169000D01*
X11532000Y-12675000D02*
X11582000Y-12725000D01*
X11582000Y-12675000D02*
X11532000Y-12725000D01*
X11532000Y-13183000D02*
X11582000Y-13233000D01*
X11582000Y-13183000D02*
X11532000Y-13233000D01*
X11532000Y-14326000D02*
X11582000Y-14376000D01*
X11582000Y-14326000D02*
X11532000Y-14376000D01*
X11582800Y-11659000D02*
X11632800Y-11709000D01*
X11632800Y-11659000D02*
X11582800Y-11709000D01*
X11582800Y-11811400D02*
X11632800Y-11861400D01*
X11632800Y-11811400D02*
X11582800Y-11861400D01*
X12040000Y-10312800D02*
X12090000Y-10362800D01*
X12090000Y-10312800D02*
X12040000Y-10362800D01*
X12137910Y-12462269D02*
X12187910Y-12512269D01*
X12187910Y-12462269D02*
X12137910Y-12512269D01*
X12167000Y-10643000D02*
X12217000Y-10693000D01*
X12217000Y-10643000D02*
X12167000Y-10693000D01*
X12167000Y-11024000D02*
X12217000Y-11074000D01*
X12217000Y-11024000D02*
X12167000Y-11074000D01*
X12167000Y-14326000D02*
X12217000Y-14376000D01*
X12217000Y-14326000D02*
X12167000Y-14376000D01*
X12370200Y-13259200D02*
X12420200Y-13309200D01*
X12420200Y-13259200D02*
X12370200Y-13309200D01*
X12387584Y-12726459D02*
X12437584Y-12776459D01*
X12437584Y-12726459D02*
X12387584Y-12776459D01*
X12509518Y-11997760D02*
X12559518Y-12047760D01*
X12559518Y-11997760D02*
X12509518Y-12047760D01*
X12548000Y-6325000D02*
X12598000Y-6375000D01*
X12598000Y-6325000D02*
X12548000Y-6375000D01*
X12548000Y-6579000D02*
X12598000Y-6629000D01*
X12598000Y-6579000D02*
X12548000Y-6629000D01*
X12548000Y-6833000D02*
X12598000Y-6883000D01*
X12598000Y-6833000D02*
X12548000Y-6883000D01*
X12548000Y-7087000D02*
X12598000Y-7137000D01*
X12598000Y-7087000D02*
X12548000Y-7137000D01*
X12548000Y-7341000D02*
X12598000Y-7391000D01*
X12598000Y-7341000D02*
X12548000Y-7391000D01*
X12548000Y-7595000D02*
X12598000Y-7645000D01*
X12598000Y-7595000D02*
X12548000Y-7645000D01*
X12548000Y-7849000D02*
X12598000Y-7899000D01*
X12598000Y-7849000D02*
X12548000Y-7899000D01*
X12548000Y-8103000D02*
X12598000Y-8153000D01*
X12598000Y-8103000D02*
X12548000Y-8153000D01*
X12548000Y-8357000D02*
X12598000Y-8407000D01*
X12598000Y-8357000D02*
X12548000Y-8407000D01*
X12548000Y-10643000D02*
X12598000Y-10693000D01*
X12598000Y-10643000D02*
X12548000Y-10693000D01*
X12548000Y-11024000D02*
X12598000Y-11074000D01*
X12598000Y-11024000D02*
X12548000Y-11074000D01*
X12675000Y-9119000D02*
X12725000Y-9169000D01*
X12725000Y-9119000D02*
X12675000Y-9169000D01*
X12675000Y-12929000D02*
X12725000Y-12979000D01*
X12725000Y-12929000D02*
X12675000Y-12979000D01*
X12746099Y-12200415D02*
X12796099Y-12250415D01*
X12796099Y-12200415D02*
X12746099Y-12250415D01*
X12802000Y-14326000D02*
X12852000Y-14376000D01*
X12852000Y-14326000D02*
X12802000Y-14376000D01*
X12929000Y-10643000D02*
X12979000Y-10693000D01*
X12979000Y-10643000D02*
X12929000Y-10693000D01*
X13437000Y-9119000D02*
X13487000Y-9169000D01*
X13487000Y-9119000D02*
X13437000Y-9169000D01*
X13437000Y-14326000D02*
X13487000Y-14376000D01*
X13487000Y-14326000D02*
X13437000Y-14376000D01*
X13564000Y-10312800D02*
X13614000Y-10362800D01*
X13614000Y-10312800D02*
X13564000Y-10362800D01*
X13581419Y-11626837D02*
X13631419Y-11676837D01*
X13631419Y-11626837D02*
X13581419Y-11676837D01*
X13623788Y-12402954D02*
X13673788Y-12452954D01*
X13673788Y-12402954D02*
X13623788Y-12452954D01*
X13665600Y-11176400D02*
X13715600Y-11226400D01*
X13715600Y-11176400D02*
X13665600Y-11226400D01*
X13691000Y-13818000D02*
X13741000Y-13868000D01*
X13741000Y-13818000D02*
X13691000Y-13868000D01*
X13812876Y-11625642D02*
X13862876Y-11675642D01*
X13862876Y-11625642D02*
X13812876Y-11675642D01*
X13894200Y-9169800D02*
X13944200Y-9219800D01*
X13944200Y-9169800D02*
X13894200Y-9219800D01*
X13945000Y-8357000D02*
X13995000Y-8407000D01*
X13995000Y-8357000D02*
X13945000Y-8407000D01*
X14072000Y-14326000D02*
X14122000Y-14376000D01*
X14122000Y-14326000D02*
X14072000Y-14376000D01*
X14326000Y-8357000D02*
X14376000Y-8407000D01*
X14376000Y-8357000D02*
X14326000Y-8407000D01*
X14326000Y-13818000D02*
X14376000Y-13868000D01*
X14376000Y-13818000D02*
X14326000Y-13868000D01*
X14351400Y-10414400D02*
X14401400Y-10464400D01*
X14401400Y-10414400D02*
X14351400Y-10464400D01*
X14453000Y-9169800D02*
X14503000Y-9219800D01*
X14503000Y-9169800D02*
X14453000Y-9219800D01*
X14625768Y-11468870D02*
X14675768Y-11518870D01*
X14675768Y-11468870D02*
X14625768Y-11518870D01*
X14681611Y-9158107D02*
X14731611Y-9208107D01*
X14731611Y-9158107D02*
X14681611Y-9208107D01*
X14707000Y-14326000D02*
X14757000Y-14376000D01*
X14757000Y-14326000D02*
X14707000Y-14376000D01*
X14808600Y-11405000D02*
X14858600Y-11455000D01*
X14858600Y-11405000D02*
X14808600Y-11455000D01*
X14961000Y-12141600D02*
X15011000Y-12191600D01*
X15011000Y-12141600D02*
X14961000Y-12191600D01*
X14961000Y-13818000D02*
X15011000Y-13868000D01*
X15011000Y-13818000D02*
X14961000Y-13868000D01*
X15037200Y-10236600D02*
X15087200Y-10286600D01*
X15087200Y-10236600D02*
X15037200Y-10286600D01*
X15079348Y-9306169D02*
X15129348Y-9356169D01*
X15129348Y-9306169D02*
X15079348Y-9356169D01*
X15215000Y-8611000D02*
X15265000Y-8661000D01*
X15265000Y-8611000D02*
X15215000Y-8661000D01*
X15342000Y-14326000D02*
X15392000Y-14376000D01*
X15392000Y-14326000D02*
X15342000Y-14376000D01*
X15596000Y-10236600D02*
X15646000Y-10286600D01*
X15646000Y-10236600D02*
X15596000Y-10286600D01*
X15977000Y-14326000D02*
X16027000Y-14376000D01*
X16027000Y-14326000D02*
X15977000Y-14376000D01*
X16104000Y-8738000D02*
X16154000Y-8788000D01*
X16154000Y-8738000D02*
X16104000Y-8788000D01*
X16104000Y-9500000D02*
X16154000Y-9550000D01*
X16154000Y-9500000D02*
X16104000Y-9550000D01*
X16104000Y-10135000D02*
X16154000Y-10185000D01*
X16154000Y-10135000D02*
X16104000Y-10185000D01*
X16104000Y-10770000D02*
X16154000Y-10820000D01*
X16154000Y-10770000D02*
X16104000Y-10820000D01*
X16104000Y-11405000D02*
X16154000Y-11455000D01*
X16154000Y-11405000D02*
X16104000Y-11455000D01*
X16104000Y-12040000D02*
X16154000Y-12090000D01*
X16154000Y-12040000D02*
X16104000Y-12090000D01*
X16104000Y-12675000D02*
X16154000Y-12725000D01*
X16154000Y-12675000D02*
X16104000Y-12725000D01*
X16104000Y-13310000D02*
X16154000Y-13360000D01*
X16154000Y-13310000D02*
X16104000Y-13360000D01*
X16485000Y-8484000D02*
X16535000Y-8534000D01*
X16535000Y-8484000D02*
X16485000Y-8534000D01*
X16485000Y-9119000D02*
X16535000Y-9169000D01*
X16535000Y-9119000D02*
X16485000Y-9169000D01*
X16485000Y-9754000D02*
X16535000Y-9804000D01*
X16535000Y-9754000D02*
X16485000Y-9804000D01*
X16485000Y-10389000D02*
X16535000Y-10439000D01*
X16535000Y-10389000D02*
X16485000Y-10439000D01*
X16485000Y-11024000D02*
X16535000Y-11074000D01*
X16535000Y-11024000D02*
X16485000Y-11074000D01*
X16485000Y-11659000D02*
X16535000Y-11709000D01*
X16535000Y-11659000D02*
X16485000Y-11709000D01*
X16485000Y-12294000D02*
X16535000Y-12344000D01*
X16535000Y-12294000D02*
X16485000Y-12344000D01*
X16485000Y-12929000D02*
X16535000Y-12979000D01*
X16535000Y-12929000D02*
X16485000Y-12979000D01*
X16485000Y-13564000D02*
X16535000Y-13614000D01*
X16535000Y-13564000D02*
X16485000Y-13614000D01*
X16485000Y-14199000D02*
X16535000Y-14249000D01*
X16535000Y-14199000D02*
X16485000Y-14249000D01*
D13*
X4739000Y-8534400D02*
G75*
G03*
X4739000Y-8534400I-40000J0D01*
G01*
X4739000Y-9550400D02*
G75*
G03*
X4739000Y-9550400I-40000J0D01*
G01*
X6263000Y-8960465D02*
G75*
G03*
X6263000Y-8960465I-40000J0D01*
G01*
X6263000Y-9460465D02*
G75*
G03*
X6263000Y-9460465I-40000J0D01*
G01*
X7863200Y-8960465D02*
G75*
G03*
X7863200Y-8960465I-40000J0D01*
G01*
X7863200Y-9460465D02*
G75*
G03*
X7863200Y-9460465I-40000J0D01*
G01*
X8502200Y-6807200D02*
G75*
G03*
X8502200Y-6807200I-40000J0D01*
G01*
X9247500Y-10076500D02*
G75*
G03*
X9247500Y-10076500I-40000J0D01*
G01*
X9502200Y-6807200D02*
G75*
G03*
X9502200Y-6807200I-40000J0D01*
G01*
X9735500Y-10076500D02*
G75*
G03*
X9735500Y-10076500I-40000J0D01*
G01*
X11698600Y-9398000D02*
G75*
G03*
X11698600Y-9398000I-40000J0D01*
G01*
X11698600Y-9898000D02*
G75*
G03*
X11698600Y-9898000I-40000J0D01*
G01*
X11952600Y-12014200D02*
G75*
G03*
X11952600Y-12014200I-40000J0D01*
G01*
X11952600Y-12776200D02*
G75*
G03*
X11952600Y-12776200I-40000J0D01*
G01*
X12206600Y-12014200D02*
G75*
G03*
X12206600Y-12014200I-40000J0D01*
G01*
X12206600Y-12776200D02*
G75*
G03*
X12206600Y-12776200I-40000J0D01*
G01*
X12994000Y-9392265D02*
G75*
G03*
X12994000Y-9392265I-40000J0D01*
G01*
X12994000Y-9892265D02*
G75*
G03*
X12994000Y-9892265I-40000J0D01*
G01*
X15407000Y-9378000D02*
G75*
G03*
X15407000Y-9378000I-40000J0D01*
G01*
X15407000Y-9632000D02*
G75*
G03*
X15407000Y-9632000I-40000J0D01*
G01*
X15407000Y-9886000D02*
G75*
G03*
X15407000Y-9886000I-40000J0D01*
G01*
X15407000Y-10465500D02*
G75*
G03*
X15407000Y-10465500I-40000J0D01*
G01*
X15407000Y-10965500D02*
G75*
G03*
X15407000Y-10965500I-40000J0D01*
G01*
X15407000Y-12307000D02*
G75*
G03*
X15407000Y-12307000I-40000J0D01*
G01*
X15407000Y-12807000D02*
G75*
G03*
X15407000Y-12807000I-40000J0D01*
G01*
X15813400Y-4978400D02*
G75*
G03*
X15813400Y-4978400I-40000J0D01*
G01*
X15813400Y-5232400D02*
G75*
G03*
X15813400Y-5232400I-40000J0D01*
G01*
X15813400Y-5486400D02*
G75*
G03*
X15813400Y-5486400I-40000J0D01*
G01*
D14*
X7175500Y-13798000D02*
X7175500Y-13888000D01*
X7130500Y-13843000D02*
X7220500Y-13843000D01*
X7175500Y-14052000D02*
X7175500Y-14142000D01*
X7130500Y-14097000D02*
X7220500Y-14097000D01*
D10*
X4607356Y-10322356D02*
X4607356Y-10251644D01*
X4536644Y-10251644D01*
X4536644Y-10322356D01*
X4607356Y-10322356D01*
X4607356Y-10576356D02*
X4607356Y-10505644D01*
X4536644Y-10505644D01*
X4536644Y-10576356D01*
X4607356Y-10576356D01*
X4607356Y-10830356D02*
X4607356Y-10759644D01*
X4536644Y-10759644D01*
X4536644Y-10830356D01*
X4607356Y-10830356D01*
X4607356Y-11084356D02*
X4607356Y-11013644D01*
X4536644Y-11013644D01*
X4536644Y-11084356D01*
X4607356Y-11084356D01*
X4607356Y-11338356D02*
X4607356Y-11267644D01*
X4536644Y-11267644D01*
X4536644Y-11338356D01*
X4607356Y-11338356D01*
X4861356Y-10322356D02*
X4861356Y-10251644D01*
X4790644Y-10251644D01*
X4790644Y-10322356D01*
X4861356Y-10322356D01*
X4861356Y-10576356D02*
X4861356Y-10505644D01*
X4790644Y-10505644D01*
X4790644Y-10576356D01*
X4861356Y-10576356D01*
X4861356Y-10830356D02*
X4861356Y-10759644D01*
X4790644Y-10759644D01*
X4790644Y-10830356D01*
X4861356Y-10830356D01*
X4861356Y-11084356D02*
X4861356Y-11013644D01*
X4790644Y-11013644D01*
X4790644Y-11084356D01*
X4861356Y-11084356D01*
X4861356Y-11338356D02*
X4861356Y-11267644D01*
X4790644Y-11267644D01*
X4790644Y-11338356D01*
X4861356Y-11338356D01*
X6537256Y-12557556D02*
X6537256Y-12486844D01*
X6466544Y-12486844D01*
X6466544Y-12557556D01*
X6537256Y-12557556D01*
X6791256Y-12557556D02*
X6791256Y-12486844D01*
X6720544Y-12486844D01*
X6720544Y-12557556D01*
X6791256Y-12557556D01*
X8671356Y-13794856D02*
X8671356Y-13724144D01*
X8600644Y-13724144D01*
X8600644Y-13794856D01*
X8671356Y-13794856D01*
X8671356Y-14048856D02*
X8671356Y-13978144D01*
X8600644Y-13978144D01*
X8600644Y-14048856D01*
X8671356Y-14048856D01*
X8925356Y-13794856D02*
X8925356Y-13724144D01*
X8854644Y-13724144D01*
X8854644Y-13794856D01*
X8925356Y-13794856D01*
X8925356Y-14048856D02*
X8925356Y-13978144D01*
X8854644Y-13978144D01*
X8854644Y-14048856D01*
X8925356Y-14048856D01*
X9179356Y-13794856D02*
X9179356Y-13724144D01*
X9108644Y-13724144D01*
X9108644Y-13794856D01*
X9179356Y-13794856D01*
X9179356Y-14048856D02*
X9179356Y-13978144D01*
X9108644Y-13978144D01*
X9108644Y-14048856D01*
X9179356Y-14048856D01*
X9433356Y-13794856D02*
X9433356Y-13724144D01*
X9362644Y-13724144D01*
X9362644Y-13794856D01*
X9433356Y-13794856D01*
X9433356Y-14048856D02*
X9433356Y-13978144D01*
X9362644Y-13978144D01*
X9362644Y-14048856D01*
X9433356Y-14048856D01*
X9687356Y-13794856D02*
X9687356Y-13724144D01*
X9616644Y-13724144D01*
X9616644Y-13794856D01*
X9687356Y-13794856D01*
X9687356Y-14048856D02*
X9687356Y-13978144D01*
X9616644Y-13978144D01*
X9616644Y-14048856D01*
X9687356Y-14048856D01*
X11668556Y-8823756D02*
X11668556Y-8753044D01*
X11597844Y-8753044D01*
X11597844Y-8823756D01*
X11668556Y-8823756D01*
X11909856Y-13794856D02*
X11909856Y-13724144D01*
X11839144Y-13724144D01*
X11839144Y-13794856D01*
X11909856Y-13794856D01*
X11909856Y-14048856D02*
X11909856Y-13978144D01*
X11839144Y-13978144D01*
X11839144Y-14048856D01*
X11909856Y-14048856D01*
X12163856Y-13794856D02*
X12163856Y-13724144D01*
X12093144Y-13724144D01*
X12093144Y-13794856D01*
X12163856Y-13794856D01*
X12163856Y-14048856D02*
X12163856Y-13978144D01*
X12093144Y-13978144D01*
X12093144Y-14048856D01*
X12163856Y-14048856D01*
X12417856Y-13794856D02*
X12417856Y-13724144D01*
X12347144Y-13724144D01*
X12347144Y-13794856D01*
X12417856Y-13794856D01*
X12417856Y-14048856D02*
X12417856Y-13978144D01*
X12347144Y-13978144D01*
X12347144Y-14048856D01*
X12417856Y-14048856D01*
X12671856Y-13794856D02*
X12671856Y-13724144D01*
X12601144Y-13724144D01*
X12601144Y-13794856D01*
X12671856Y-13794856D01*
X12671856Y-14048856D02*
X12671856Y-13978144D01*
X12601144Y-13978144D01*
X12601144Y-14048856D01*
X12671856Y-14048856D01*
X12925856Y-13794856D02*
X12925856Y-13724144D01*
X12855144Y-13724144D01*
X12855144Y-13794856D01*
X12925856Y-13794856D01*
X12925856Y-14048856D02*
X12925856Y-13978144D01*
X12855144Y-13978144D01*
X12855144Y-14048856D01*
X12925856Y-14048856D01*
X15732556Y-8798356D02*
X15732556Y-8727644D01*
X15661844Y-8727644D01*
X15661844Y-8798356D01*
X15732556Y-8798356D01*
X15884956Y-6156756D02*
X15884956Y-6086044D01*
X15814244Y-6086044D01*
X15814244Y-6156756D01*
X15884956Y-6156756D01*
D15*
X4775200Y-12420800D02*
X4826200Y-12369800D01*
X4775200Y-12318800D01*
X4724200Y-12369800D01*
X4775200Y-12420800D01*
X4775200Y-12674800D02*
X4826200Y-12623800D01*
X4775200Y-12572800D01*
X4724200Y-12623800D01*
X4775200Y-12674800D01*
X4775200Y-12928800D02*
X4826200Y-12877800D01*
X4775200Y-12826800D01*
X4724200Y-12877800D01*
X4775200Y-12928800D01*
X5778500Y-13894000D02*
X5829500Y-13843000D01*
X5778500Y-13792000D01*
X5727500Y-13843000D01*
X5778500Y-13894000D01*
X6032500Y-13894000D02*
X6083500Y-13843000D01*
X6032500Y-13792000D01*
X5981500Y-13843000D01*
X6032500Y-13894000D01*
X6286500Y-13894000D02*
X6337500Y-13843000D01*
X6286500Y-13792000D01*
X6235500Y-13843000D01*
X6286500Y-13894000D01*
X7594600Y-10211000D02*
X7645600Y-10160000D01*
X7594600Y-10109000D01*
X7543600Y-10160000D01*
X7594600Y-10211000D01*
X7594600Y-10465000D02*
X7645600Y-10414000D01*
X7594600Y-10363000D01*
X7543600Y-10414000D01*
X7594600Y-10465000D01*
X7594600Y-10719000D02*
X7645600Y-10668000D01*
X7594600Y-10617000D01*
X7543600Y-10668000D01*
X7594600Y-10719000D01*
D16*
X7052000Y-4639000D02*
X7172000Y-4759000D01*
X7172000Y-4639000D02*
X7052000Y-4759000D01*
X7172000Y-4699000D02*
G75*
G03*
X7172000Y-4699000I-60000J0D01*
G01*
X7052000Y-6671000D02*
X7172000Y-6791000D01*
X7172000Y-6671000D02*
X7052000Y-6791000D01*
X7172000Y-6731000D02*
G75*
G03*
X7172000Y-6731000I-60000J0D01*
G01*
X7096000Y-3750000D02*
X7216000Y-3870000D01*
X7216000Y-3750000D02*
X7096000Y-3870000D01*
X7216000Y-3810000D02*
G75*
G03*
X7216000Y-3810000I-60000J0D01*
G01*
X7877500Y-4639000D02*
X7997500Y-4759000D01*
X7997500Y-4639000D02*
X7877500Y-4759000D01*
X7997500Y-4699000D02*
G75*
G03*
X7997500Y-4699000I-60000J0D01*
G01*
X7877500Y-6671000D02*
X7997500Y-6791000D01*
X7997500Y-6671000D02*
X7877500Y-6791000D01*
X7997500Y-6731000D02*
G75*
G03*
X7997500Y-6731000I-60000J0D01*
G01*
X9846000Y-3750000D02*
X9966000Y-3870000D01*
X9966000Y-3750000D02*
X9846000Y-3870000D01*
X9966000Y-3810000D02*
G75*
G03*
X9966000Y-3810000I-60000J0D01*
G01*
X10757000Y-6671000D02*
X10877000Y-6791000D01*
X10877000Y-6671000D02*
X10757000Y-6791000D01*
X10877000Y-6731000D02*
G75*
G03*
X10877000Y-6731000I-60000J0D01*
G01*
X13507000Y-6671000D02*
X13627000Y-6791000D01*
X13627000Y-6671000D02*
X13507000Y-6791000D01*
X13627000Y-6731000D02*
G75*
G03*
X13627000Y-6731000I-60000J0D01*
G01*
D17*
X7435500Y-5095000D02*
X7585500Y-5245000D01*
X7585500Y-5095000D02*
X7435500Y-5245000D01*
X7510500Y-5095000D02*
X7510500Y-5245000D01*
X7435500Y-5170000D02*
X7585500Y-5170000D01*
X7435500Y-5640000D02*
X7585500Y-5790000D01*
X7585500Y-5640000D02*
X7435500Y-5790000D01*
X7510500Y-5640000D02*
X7510500Y-5790000D01*
X7435500Y-5715000D02*
X7585500Y-5715000D01*
X7435500Y-6185000D02*
X7585500Y-6335000D01*
X7585500Y-6185000D02*
X7435500Y-6335000D01*
X7510500Y-6185000D02*
X7510500Y-6335000D01*
X7435500Y-6260000D02*
X7585500Y-6260000D01*
D11*
X6402400Y-4608050D02*
X6602400Y-4808050D01*
X6602400Y-4608050D02*
X6402400Y-4808050D01*
X6573111Y-4778761D02*
X6573111Y-4637339D01*
X6431689Y-4637339D01*
X6431689Y-4778761D01*
X6573111Y-4778761D01*
X6402400Y-5624050D02*
X6602400Y-5824050D01*
X6602400Y-5624050D02*
X6402400Y-5824050D01*
X6573111Y-5794761D02*
X6573111Y-5653339D01*
X6431689Y-5653339D01*
X6431689Y-5794761D01*
X6573111Y-5794761D01*
X6402400Y-6640050D02*
X6602400Y-6840050D01*
X6602400Y-6640050D02*
X6402400Y-6840050D01*
X6573111Y-6810761D02*
X6573111Y-6669339D01*
X6431689Y-6669339D01*
X6431689Y-6810761D01*
X6573111Y-6810761D01*
X14314500Y-6834200D02*
X14514500Y-7034200D01*
X14514500Y-6834200D02*
X14314500Y-7034200D01*
X14485211Y-7004911D02*
X14485211Y-6863489D01*
X14343789Y-6863489D01*
X14343789Y-7004911D01*
X14485211Y-7004911D01*
X14314500Y-7850200D02*
X14514500Y-8050200D01*
X14514500Y-7850200D02*
X14314500Y-8050200D01*
X14485211Y-8020911D02*
X14485211Y-7879489D01*
X14343789Y-7879489D01*
X14343789Y-8020911D01*
X14485211Y-8020911D01*
D18*
X10695800Y-4930000D02*
X10995800Y-5230000D01*
X10995800Y-4930000D02*
X10695800Y-5230000D01*
X10845800Y-5230000D02*
X10995800Y-5080000D01*
X10845800Y-4930000D01*
X10695800Y-5080000D01*
X10845800Y-5230000D01*
X14455000Y-4930000D02*
X14755000Y-5230000D01*
X14755000Y-4930000D02*
X14455000Y-5230000D01*
X14605000Y-5230000D02*
X14755000Y-5080000D01*
X14605000Y-4930000D01*
X14455000Y-5080000D01*
X14605000Y-5230000D01*
D11*
X4304079Y-14826324D02*
X4304079Y-14626324D01*
X4304079Y-14626324D02*
X4351698Y-14626324D01*
X4351698Y-14626324D02*
X4380270Y-14635848D01*
X4380270Y-14635848D02*
X4399317Y-14654895D01*
X4399317Y-14654895D02*
X4408841Y-14673943D01*
X4408841Y-14673943D02*
X4418365Y-14712038D01*
X4418365Y-14712038D02*
X4418365Y-14740609D01*
X4418365Y-14740609D02*
X4408841Y-14778705D01*
X4408841Y-14778705D02*
X4399317Y-14797752D01*
X4399317Y-14797752D02*
X4380270Y-14816800D01*
X4380270Y-14816800D02*
X4351698Y-14826324D01*
X4351698Y-14826324D02*
X4304079Y-14826324D01*
X4504079Y-14826324D02*
X4504079Y-14692990D01*
X4504079Y-14731086D02*
X4513603Y-14712038D01*
X4513603Y-14712038D02*
X4523127Y-14702514D01*
X4523127Y-14702514D02*
X4542174Y-14692990D01*
X4542174Y-14692990D02*
X4561222Y-14692990D01*
X4627889Y-14826324D02*
X4627889Y-14692990D01*
X4627889Y-14626324D02*
X4618365Y-14635848D01*
X4618365Y-14635848D02*
X4627889Y-14645371D01*
X4627889Y-14645371D02*
X4637412Y-14635848D01*
X4637412Y-14635848D02*
X4627889Y-14626324D01*
X4627889Y-14626324D02*
X4627889Y-14645371D01*
X4751698Y-14826324D02*
X4732650Y-14816800D01*
X4732650Y-14816800D02*
X4723127Y-14797752D01*
X4723127Y-14797752D02*
X4723127Y-14626324D01*
X4856460Y-14826324D02*
X4837412Y-14816800D01*
X4837412Y-14816800D02*
X4827889Y-14797752D01*
X4827889Y-14797752D02*
X4827889Y-14626324D01*
X5085031Y-14826324D02*
X5085031Y-14626324D01*
X5085031Y-14626324D02*
X5151698Y-14769181D01*
X5151698Y-14769181D02*
X5218365Y-14626324D01*
X5218365Y-14626324D02*
X5218365Y-14826324D01*
X5399317Y-14826324D02*
X5399317Y-14721562D01*
X5399317Y-14721562D02*
X5389793Y-14702514D01*
X5389793Y-14702514D02*
X5370746Y-14692990D01*
X5370746Y-14692990D02*
X5332650Y-14692990D01*
X5332650Y-14692990D02*
X5313603Y-14702514D01*
X5399317Y-14816800D02*
X5380270Y-14826324D01*
X5380270Y-14826324D02*
X5332650Y-14826324D01*
X5332650Y-14826324D02*
X5313603Y-14816800D01*
X5313603Y-14816800D02*
X5304079Y-14797752D01*
X5304079Y-14797752D02*
X5304079Y-14778705D01*
X5304079Y-14778705D02*
X5313603Y-14759657D01*
X5313603Y-14759657D02*
X5332650Y-14750133D01*
X5332650Y-14750133D02*
X5380270Y-14750133D01*
X5380270Y-14750133D02*
X5399317Y-14740609D01*
X5494555Y-14692990D02*
X5494555Y-14892990D01*
X5494555Y-14702514D02*
X5513603Y-14692990D01*
X5513603Y-14692990D02*
X5551698Y-14692990D01*
X5551698Y-14692990D02*
X5570746Y-14702514D01*
X5570746Y-14702514D02*
X5580270Y-14712038D01*
X5580270Y-14712038D02*
X5589793Y-14731086D01*
X5589793Y-14731086D02*
X5589793Y-14788228D01*
X5589793Y-14788228D02*
X5580270Y-14807276D01*
X5580270Y-14807276D02*
X5570746Y-14816800D01*
X5570746Y-14816800D02*
X5551698Y-14826324D01*
X5551698Y-14826324D02*
X5513603Y-14826324D01*
X5513603Y-14826324D02*
X5494555Y-14816800D01*
X5675508Y-14807276D02*
X5685031Y-14816800D01*
X5685031Y-14816800D02*
X5675508Y-14826324D01*
X5675508Y-14826324D02*
X5665984Y-14816800D01*
X5665984Y-14816800D02*
X5675508Y-14807276D01*
X5675508Y-14807276D02*
X5675508Y-14826324D01*
X5675508Y-14702514D02*
X5685031Y-14712038D01*
X5685031Y-14712038D02*
X5675508Y-14721562D01*
X5675508Y-14721562D02*
X5665984Y-14712038D01*
X5665984Y-14712038D02*
X5675508Y-14702514D01*
X5675508Y-14702514D02*
X5675508Y-14721562D01*
D12*
X4006460Y-15128800D02*
X4056460Y-15178800D01*
X4056460Y-15128800D02*
X4006460Y-15178800D01*
D11*
X4342174Y-15046324D02*
X4361222Y-15046324D01*
X4361222Y-15046324D02*
X4380270Y-15055848D01*
X4380270Y-15055848D02*
X4389793Y-15065371D01*
X4389793Y-15065371D02*
X4399317Y-15084419D01*
X4399317Y-15084419D02*
X4408841Y-15122514D01*
X4408841Y-15122514D02*
X4408841Y-15170133D01*
X4408841Y-15170133D02*
X4399317Y-15208228D01*
X4399317Y-15208228D02*
X4389793Y-15227276D01*
X4389793Y-15227276D02*
X4380270Y-15236800D01*
X4380270Y-15236800D02*
X4361222Y-15246324D01*
X4361222Y-15246324D02*
X4342174Y-15246324D01*
X4342174Y-15246324D02*
X4323127Y-15236800D01*
X4323127Y-15236800D02*
X4313603Y-15227276D01*
X4313603Y-15227276D02*
X4304079Y-15208228D01*
X4304079Y-15208228D02*
X4294555Y-15170133D01*
X4294555Y-15170133D02*
X4294555Y-15122514D01*
X4294555Y-15122514D02*
X4304079Y-15084419D01*
X4304079Y-15084419D02*
X4313603Y-15065371D01*
X4313603Y-15065371D02*
X4323127Y-15055848D01*
X4323127Y-15055848D02*
X4342174Y-15046324D01*
X4494555Y-15227276D02*
X4504079Y-15236800D01*
X4504079Y-15236800D02*
X4494555Y-15246324D01*
X4494555Y-15246324D02*
X4485031Y-15236800D01*
X4485031Y-15236800D02*
X4494555Y-15227276D01*
X4494555Y-15227276D02*
X4494555Y-15246324D01*
X4685031Y-15046324D02*
X4589793Y-15046324D01*
X4589793Y-15046324D02*
X4580270Y-15141562D01*
X4580270Y-15141562D02*
X4589793Y-15132038D01*
X4589793Y-15132038D02*
X4608841Y-15122514D01*
X4608841Y-15122514D02*
X4656460Y-15122514D01*
X4656460Y-15122514D02*
X4675508Y-15132038D01*
X4675508Y-15132038D02*
X4685031Y-15141562D01*
X4685031Y-15141562D02*
X4694555Y-15160609D01*
X4694555Y-15160609D02*
X4694555Y-15208228D01*
X4694555Y-15208228D02*
X4685031Y-15227276D01*
X4685031Y-15227276D02*
X4675508Y-15236800D01*
X4675508Y-15236800D02*
X4656460Y-15246324D01*
X4656460Y-15246324D02*
X4608841Y-15246324D01*
X4608841Y-15246324D02*
X4589793Y-15236800D01*
X4589793Y-15236800D02*
X4580270Y-15227276D01*
X4818365Y-15046324D02*
X4837412Y-15046324D01*
X4837412Y-15046324D02*
X4856460Y-15055848D01*
X4856460Y-15055848D02*
X4865984Y-15065371D01*
X4865984Y-15065371D02*
X4875508Y-15084419D01*
X4875508Y-15084419D02*
X4885031Y-15122514D01*
X4885031Y-15122514D02*
X4885031Y-15170133D01*
X4885031Y-15170133D02*
X4875508Y-15208228D01*
X4875508Y-15208228D02*
X4865984Y-15227276D01*
X4865984Y-15227276D02*
X4856460Y-15236800D01*
X4856460Y-15236800D02*
X4837412Y-15246324D01*
X4837412Y-15246324D02*
X4818365Y-15246324D01*
X4818365Y-15246324D02*
X4799317Y-15236800D01*
X4799317Y-15236800D02*
X4789793Y-15227276D01*
X4789793Y-15227276D02*
X4780270Y-15208228D01*
X4780270Y-15208228D02*
X4770746Y-15170133D01*
X4770746Y-15170133D02*
X4770746Y-15122514D01*
X4770746Y-15122514D02*
X4780270Y-15084419D01*
X4780270Y-15084419D02*
X4789793Y-15065371D01*
X4789793Y-15065371D02*
X4799317Y-15055848D01*
X4799317Y-15055848D02*
X4818365Y-15046324D01*
X5008841Y-15046324D02*
X5027889Y-15046324D01*
X5027889Y-15046324D02*
X5046936Y-15055848D01*
X5046936Y-15055848D02*
X5056460Y-15065371D01*
X5056460Y-15065371D02*
X5065984Y-15084419D01*
X5065984Y-15084419D02*
X5075508Y-15122514D01*
X5075508Y-15122514D02*
X5075508Y-15170133D01*
X5075508Y-15170133D02*
X5065984Y-15208228D01*
X5065984Y-15208228D02*
X5056460Y-15227276D01*
X5056460Y-15227276D02*
X5046936Y-15236800D01*
X5046936Y-15236800D02*
X5027889Y-15246324D01*
X5027889Y-15246324D02*
X5008841Y-15246324D01*
X5008841Y-15246324D02*
X4989793Y-15236800D01*
X4989793Y-15236800D02*
X4980270Y-15227276D01*
X4980270Y-15227276D02*
X4970746Y-15208228D01*
X4970746Y-15208228D02*
X4961222Y-15170133D01*
X4961222Y-15170133D02*
X4961222Y-15122514D01*
X4961222Y-15122514D02*
X4970746Y-15084419D01*
X4970746Y-15084419D02*
X4980270Y-15065371D01*
X4980270Y-15065371D02*
X4989793Y-15055848D01*
X4989793Y-15055848D02*
X5008841Y-15046324D01*
X5161222Y-15246324D02*
X5161222Y-15112990D01*
X5161222Y-15132038D02*
X5170746Y-15122514D01*
X5170746Y-15122514D02*
X5189793Y-15112990D01*
X5189793Y-15112990D02*
X5218365Y-15112990D01*
X5218365Y-15112990D02*
X5237412Y-15122514D01*
X5237412Y-15122514D02*
X5246936Y-15141562D01*
X5246936Y-15141562D02*
X5246936Y-15246324D01*
X5246936Y-15141562D02*
X5256460Y-15122514D01*
X5256460Y-15122514D02*
X5275508Y-15112990D01*
X5275508Y-15112990D02*
X5304079Y-15112990D01*
X5304079Y-15112990D02*
X5323127Y-15122514D01*
X5323127Y-15122514D02*
X5332651Y-15141562D01*
X5332651Y-15141562D02*
X5332651Y-15246324D01*
X5427889Y-15246324D02*
X5427889Y-15112990D01*
X5427889Y-15132038D02*
X5437412Y-15122514D01*
X5437412Y-15122514D02*
X5456460Y-15112990D01*
X5456460Y-15112990D02*
X5485032Y-15112990D01*
X5485032Y-15112990D02*
X5504079Y-15122514D01*
X5504079Y-15122514D02*
X5513603Y-15141562D01*
X5513603Y-15141562D02*
X5513603Y-15246324D01*
X5513603Y-15141562D02*
X5523127Y-15122514D01*
X5523127Y-15122514D02*
X5542174Y-15112990D01*
X5542174Y-15112990D02*
X5570746Y-15112990D01*
X5570746Y-15112990D02*
X5589793Y-15122514D01*
X5589793Y-15122514D02*
X5599317Y-15141562D01*
X5599317Y-15141562D02*
X5599317Y-15246324D01*
X5989793Y-15036800D02*
X5818365Y-15293943D01*
X6246936Y-15046324D02*
X6265984Y-15046324D01*
X6265984Y-15046324D02*
X6285032Y-15055848D01*
X6285032Y-15055848D02*
X6294555Y-15065371D01*
X6294555Y-15065371D02*
X6304079Y-15084419D01*
X6304079Y-15084419D02*
X6313603Y-15122514D01*
X6313603Y-15122514D02*
X6313603Y-15170133D01*
X6313603Y-15170133D02*
X6304079Y-15208228D01*
X6304079Y-15208228D02*
X6294555Y-15227276D01*
X6294555Y-15227276D02*
X6285032Y-15236800D01*
X6285032Y-15236800D02*
X6265984Y-15246324D01*
X6265984Y-15246324D02*
X6246936Y-15246324D01*
X6246936Y-15246324D02*
X6227889Y-15236800D01*
X6227889Y-15236800D02*
X6218365Y-15227276D01*
X6218365Y-15227276D02*
X6208841Y-15208228D01*
X6208841Y-15208228D02*
X6199317Y-15170133D01*
X6199317Y-15170133D02*
X6199317Y-15122514D01*
X6199317Y-15122514D02*
X6208841Y-15084419D01*
X6208841Y-15084419D02*
X6218365Y-15065371D01*
X6218365Y-15065371D02*
X6227889Y-15055848D01*
X6227889Y-15055848D02*
X6246936Y-15046324D01*
X6399317Y-15227276D02*
X6408841Y-15236800D01*
X6408841Y-15236800D02*
X6399317Y-15246324D01*
X6399317Y-15246324D02*
X6389793Y-15236800D01*
X6389793Y-15236800D02*
X6399317Y-15227276D01*
X6399317Y-15227276D02*
X6399317Y-15246324D01*
X6532651Y-15046324D02*
X6551698Y-15046324D01*
X6551698Y-15046324D02*
X6570746Y-15055848D01*
X6570746Y-15055848D02*
X6580270Y-15065371D01*
X6580270Y-15065371D02*
X6589793Y-15084419D01*
X6589793Y-15084419D02*
X6599317Y-15122514D01*
X6599317Y-15122514D02*
X6599317Y-15170133D01*
X6599317Y-15170133D02*
X6589793Y-15208228D01*
X6589793Y-15208228D02*
X6580270Y-15227276D01*
X6580270Y-15227276D02*
X6570746Y-15236800D01*
X6570746Y-15236800D02*
X6551698Y-15246324D01*
X6551698Y-15246324D02*
X6532651Y-15246324D01*
X6532651Y-15246324D02*
X6513603Y-15236800D01*
X6513603Y-15236800D02*
X6504079Y-15227276D01*
X6504079Y-15227276D02*
X6494555Y-15208228D01*
X6494555Y-15208228D02*
X6485032Y-15170133D01*
X6485032Y-15170133D02*
X6485032Y-15122514D01*
X6485032Y-15122514D02*
X6494555Y-15084419D01*
X6494555Y-15084419D02*
X6504079Y-15065371D01*
X6504079Y-15065371D02*
X6513603Y-15055848D01*
X6513603Y-15055848D02*
X6532651Y-15046324D01*
X6789793Y-15246324D02*
X6675508Y-15246324D01*
X6732651Y-15246324D02*
X6732651Y-15046324D01*
X6732651Y-15046324D02*
X6713603Y-15074895D01*
X6713603Y-15074895D02*
X6694555Y-15093943D01*
X6694555Y-15093943D02*
X6675508Y-15103467D01*
X6885032Y-15246324D02*
X6923127Y-15246324D01*
X6923127Y-15246324D02*
X6942174Y-15236800D01*
X6942174Y-15236800D02*
X6951698Y-15227276D01*
X6951698Y-15227276D02*
X6970746Y-15198705D01*
X6970746Y-15198705D02*
X6980270Y-15160609D01*
X6980270Y-15160609D02*
X6980270Y-15084419D01*
X6980270Y-15084419D02*
X6970746Y-15065371D01*
X6970746Y-15065371D02*
X6961222Y-15055848D01*
X6961222Y-15055848D02*
X6942174Y-15046324D01*
X6942174Y-15046324D02*
X6904079Y-15046324D01*
X6904079Y-15046324D02*
X6885032Y-15055848D01*
X6885032Y-15055848D02*
X6875508Y-15065371D01*
X6875508Y-15065371D02*
X6865984Y-15084419D01*
X6865984Y-15084419D02*
X6865984Y-15132038D01*
X6865984Y-15132038D02*
X6875508Y-15151086D01*
X6875508Y-15151086D02*
X6885032Y-15160609D01*
X6885032Y-15160609D02*
X6904079Y-15170133D01*
X6904079Y-15170133D02*
X6942174Y-15170133D01*
X6942174Y-15170133D02*
X6961222Y-15160609D01*
X6961222Y-15160609D02*
X6970746Y-15151086D01*
X6970746Y-15151086D02*
X6980270Y-15132038D01*
X7046936Y-15046324D02*
X7180270Y-15046324D01*
X7180270Y-15046324D02*
X7094555Y-15246324D01*
X7246936Y-15046324D02*
X7246936Y-15084419D01*
X7323127Y-15046324D02*
X7323127Y-15084419D01*
X7618365Y-15322514D02*
X7608841Y-15312990D01*
X7608841Y-15312990D02*
X7589794Y-15284419D01*
X7589794Y-15284419D02*
X7580270Y-15265371D01*
X7580270Y-15265371D02*
X7570746Y-15236800D01*
X7570746Y-15236800D02*
X7561222Y-15189181D01*
X7561222Y-15189181D02*
X7561222Y-15151086D01*
X7561222Y-15151086D02*
X7570746Y-15103467D01*
X7570746Y-15103467D02*
X7580270Y-15074895D01*
X7580270Y-15074895D02*
X7589794Y-15055848D01*
X7589794Y-15055848D02*
X7608841Y-15027276D01*
X7608841Y-15027276D02*
X7618365Y-15017752D01*
X7799317Y-15246324D02*
X7685032Y-15246324D01*
X7742174Y-15246324D02*
X7742174Y-15046324D01*
X7742174Y-15046324D02*
X7723127Y-15074895D01*
X7723127Y-15074895D02*
X7704079Y-15093943D01*
X7704079Y-15093943D02*
X7685032Y-15103467D01*
X7913603Y-15132038D02*
X7894555Y-15122514D01*
X7894555Y-15122514D02*
X7885032Y-15112990D01*
X7885032Y-15112990D02*
X7875508Y-15093943D01*
X7875508Y-15093943D02*
X7875508Y-15084419D01*
X7875508Y-15084419D02*
X7885032Y-15065371D01*
X7885032Y-15065371D02*
X7894555Y-15055848D01*
X7894555Y-15055848D02*
X7913603Y-15046324D01*
X7913603Y-15046324D02*
X7951698Y-15046324D01*
X7951698Y-15046324D02*
X7970746Y-15055848D01*
X7970746Y-15055848D02*
X7980270Y-15065371D01*
X7980270Y-15065371D02*
X7989794Y-15084419D01*
X7989794Y-15084419D02*
X7989794Y-15093943D01*
X7989794Y-15093943D02*
X7980270Y-15112990D01*
X7980270Y-15112990D02*
X7970746Y-15122514D01*
X7970746Y-15122514D02*
X7951698Y-15132038D01*
X7951698Y-15132038D02*
X7913603Y-15132038D01*
X7913603Y-15132038D02*
X7894555Y-15141562D01*
X7894555Y-15141562D02*
X7885032Y-15151086D01*
X7885032Y-15151086D02*
X7875508Y-15170133D01*
X7875508Y-15170133D02*
X7875508Y-15208228D01*
X7875508Y-15208228D02*
X7885032Y-15227276D01*
X7885032Y-15227276D02*
X7894555Y-15236800D01*
X7894555Y-15236800D02*
X7913603Y-15246324D01*
X7913603Y-15246324D02*
X7951698Y-15246324D01*
X7951698Y-15246324D02*
X7970746Y-15236800D01*
X7970746Y-15236800D02*
X7980270Y-15227276D01*
X7980270Y-15227276D02*
X7989794Y-15208228D01*
X7989794Y-15208228D02*
X7989794Y-15170133D01*
X7989794Y-15170133D02*
X7980270Y-15151086D01*
X7980270Y-15151086D02*
X7970746Y-15141562D01*
X7970746Y-15141562D02*
X7951698Y-15132038D01*
X8056460Y-15046324D02*
X8180270Y-15046324D01*
X8180270Y-15046324D02*
X8113603Y-15122514D01*
X8113603Y-15122514D02*
X8142175Y-15122514D01*
X8142175Y-15122514D02*
X8161222Y-15132038D01*
X8161222Y-15132038D02*
X8170746Y-15141562D01*
X8170746Y-15141562D02*
X8180270Y-15160609D01*
X8180270Y-15160609D02*
X8180270Y-15208228D01*
X8180270Y-15208228D02*
X8170746Y-15227276D01*
X8170746Y-15227276D02*
X8161222Y-15236800D01*
X8161222Y-15236800D02*
X8142175Y-15246324D01*
X8142175Y-15246324D02*
X8085032Y-15246324D01*
X8085032Y-15246324D02*
X8065984Y-15236800D01*
X8065984Y-15236800D02*
X8056460Y-15227276D01*
X8418365Y-15246324D02*
X8418365Y-15046324D01*
X8504079Y-15246324D02*
X8504079Y-15141562D01*
X8504079Y-15141562D02*
X8494556Y-15122514D01*
X8494556Y-15122514D02*
X8475508Y-15112990D01*
X8475508Y-15112990D02*
X8446937Y-15112990D01*
X8446937Y-15112990D02*
X8427889Y-15122514D01*
X8427889Y-15122514D02*
X8418365Y-15132038D01*
X8627889Y-15246324D02*
X8608841Y-15236800D01*
X8608841Y-15236800D02*
X8599318Y-15227276D01*
X8599318Y-15227276D02*
X8589794Y-15208228D01*
X8589794Y-15208228D02*
X8589794Y-15151086D01*
X8589794Y-15151086D02*
X8599318Y-15132038D01*
X8599318Y-15132038D02*
X8608841Y-15122514D01*
X8608841Y-15122514D02*
X8627889Y-15112990D01*
X8627889Y-15112990D02*
X8656460Y-15112990D01*
X8656460Y-15112990D02*
X8675508Y-15122514D01*
X8675508Y-15122514D02*
X8685032Y-15132038D01*
X8685032Y-15132038D02*
X8694556Y-15151086D01*
X8694556Y-15151086D02*
X8694556Y-15208228D01*
X8694556Y-15208228D02*
X8685032Y-15227276D01*
X8685032Y-15227276D02*
X8675508Y-15236800D01*
X8675508Y-15236800D02*
X8656460Y-15246324D01*
X8656460Y-15246324D02*
X8627889Y-15246324D01*
X8808841Y-15246324D02*
X8789794Y-15236800D01*
X8789794Y-15236800D02*
X8780270Y-15217752D01*
X8780270Y-15217752D02*
X8780270Y-15046324D01*
X8961222Y-15236800D02*
X8942175Y-15246324D01*
X8942175Y-15246324D02*
X8904079Y-15246324D01*
X8904079Y-15246324D02*
X8885032Y-15236800D01*
X8885032Y-15236800D02*
X8875508Y-15217752D01*
X8875508Y-15217752D02*
X8875508Y-15141562D01*
X8875508Y-15141562D02*
X8885032Y-15122514D01*
X8885032Y-15122514D02*
X8904079Y-15112990D01*
X8904079Y-15112990D02*
X8942175Y-15112990D01*
X8942175Y-15112990D02*
X8961222Y-15122514D01*
X8961222Y-15122514D02*
X8970746Y-15141562D01*
X8970746Y-15141562D02*
X8970746Y-15160609D01*
X8970746Y-15160609D02*
X8875508Y-15179657D01*
X9046937Y-15236800D02*
X9065984Y-15246324D01*
X9065984Y-15246324D02*
X9104079Y-15246324D01*
X9104079Y-15246324D02*
X9123127Y-15236800D01*
X9123127Y-15236800D02*
X9132651Y-15217752D01*
X9132651Y-15217752D02*
X9132651Y-15208228D01*
X9132651Y-15208228D02*
X9123127Y-15189181D01*
X9123127Y-15189181D02*
X9104079Y-15179657D01*
X9104079Y-15179657D02*
X9075508Y-15179657D01*
X9075508Y-15179657D02*
X9056460Y-15170133D01*
X9056460Y-15170133D02*
X9046937Y-15151086D01*
X9046937Y-15151086D02*
X9046937Y-15141562D01*
X9046937Y-15141562D02*
X9056460Y-15122514D01*
X9056460Y-15122514D02*
X9075508Y-15112990D01*
X9075508Y-15112990D02*
X9104079Y-15112990D01*
X9104079Y-15112990D02*
X9123127Y-15122514D01*
X9199318Y-15322514D02*
X9208841Y-15312990D01*
X9208841Y-15312990D02*
X9227889Y-15284419D01*
X9227889Y-15284419D02*
X9237413Y-15265371D01*
X9237413Y-15265371D02*
X9246937Y-15236800D01*
X9246937Y-15236800D02*
X9256460Y-15189181D01*
X9256460Y-15189181D02*
X9256460Y-15151086D01*
X9256460Y-15151086D02*
X9246937Y-15103467D01*
X9246937Y-15103467D02*
X9237413Y-15074895D01*
X9237413Y-15074895D02*
X9227889Y-15055848D01*
X9227889Y-15055848D02*
X9208841Y-15027276D01*
X9208841Y-15027276D02*
X9199318Y-15017752D01*
D13*
X4056460Y-15417800D02*
G75*
G03*
X4056460Y-15417800I-40000J0D01*
G01*
D11*
X4342174Y-15310324D02*
X4361222Y-15310324D01*
X4361222Y-15310324D02*
X4380270Y-15319848D01*
X4380270Y-15319848D02*
X4389793Y-15329371D01*
X4389793Y-15329371D02*
X4399317Y-15348419D01*
X4399317Y-15348419D02*
X4408841Y-15386514D01*
X4408841Y-15386514D02*
X4408841Y-15434133D01*
X4408841Y-15434133D02*
X4399317Y-15472228D01*
X4399317Y-15472228D02*
X4389793Y-15491276D01*
X4389793Y-15491276D02*
X4380270Y-15500800D01*
X4380270Y-15500800D02*
X4361222Y-15510324D01*
X4361222Y-15510324D02*
X4342174Y-15510324D01*
X4342174Y-15510324D02*
X4323127Y-15500800D01*
X4323127Y-15500800D02*
X4313603Y-15491276D01*
X4313603Y-15491276D02*
X4304079Y-15472228D01*
X4304079Y-15472228D02*
X4294555Y-15434133D01*
X4294555Y-15434133D02*
X4294555Y-15386514D01*
X4294555Y-15386514D02*
X4304079Y-15348419D01*
X4304079Y-15348419D02*
X4313603Y-15329371D01*
X4313603Y-15329371D02*
X4323127Y-15319848D01*
X4323127Y-15319848D02*
X4342174Y-15310324D01*
X4494555Y-15491276D02*
X4504079Y-15500800D01*
X4504079Y-15500800D02*
X4494555Y-15510324D01*
X4494555Y-15510324D02*
X4485031Y-15500800D01*
X4485031Y-15500800D02*
X4494555Y-15491276D01*
X4494555Y-15491276D02*
X4494555Y-15510324D01*
X4618365Y-15396038D02*
X4599317Y-15386514D01*
X4599317Y-15386514D02*
X4589793Y-15376990D01*
X4589793Y-15376990D02*
X4580270Y-15357943D01*
X4580270Y-15357943D02*
X4580270Y-15348419D01*
X4580270Y-15348419D02*
X4589793Y-15329371D01*
X4589793Y-15329371D02*
X4599317Y-15319848D01*
X4599317Y-15319848D02*
X4618365Y-15310324D01*
X4618365Y-15310324D02*
X4656460Y-15310324D01*
X4656460Y-15310324D02*
X4675508Y-15319848D01*
X4675508Y-15319848D02*
X4685031Y-15329371D01*
X4685031Y-15329371D02*
X4694555Y-15348419D01*
X4694555Y-15348419D02*
X4694555Y-15357943D01*
X4694555Y-15357943D02*
X4685031Y-15376990D01*
X4685031Y-15376990D02*
X4675508Y-15386514D01*
X4675508Y-15386514D02*
X4656460Y-15396038D01*
X4656460Y-15396038D02*
X4618365Y-15396038D01*
X4618365Y-15396038D02*
X4599317Y-15405562D01*
X4599317Y-15405562D02*
X4589793Y-15415086D01*
X4589793Y-15415086D02*
X4580270Y-15434133D01*
X4580270Y-15434133D02*
X4580270Y-15472228D01*
X4580270Y-15472228D02*
X4589793Y-15491276D01*
X4589793Y-15491276D02*
X4599317Y-15500800D01*
X4599317Y-15500800D02*
X4618365Y-15510324D01*
X4618365Y-15510324D02*
X4656460Y-15510324D01*
X4656460Y-15510324D02*
X4675508Y-15500800D01*
X4675508Y-15500800D02*
X4685031Y-15491276D01*
X4685031Y-15491276D02*
X4694555Y-15472228D01*
X4694555Y-15472228D02*
X4694555Y-15434133D01*
X4694555Y-15434133D02*
X4685031Y-15415086D01*
X4685031Y-15415086D02*
X4675508Y-15405562D01*
X4675508Y-15405562D02*
X4656460Y-15396038D01*
X4818365Y-15310324D02*
X4837412Y-15310324D01*
X4837412Y-15310324D02*
X4856460Y-15319848D01*
X4856460Y-15319848D02*
X4865984Y-15329371D01*
X4865984Y-15329371D02*
X4875508Y-15348419D01*
X4875508Y-15348419D02*
X4885031Y-15386514D01*
X4885031Y-15386514D02*
X4885031Y-15434133D01*
X4885031Y-15434133D02*
X4875508Y-15472228D01*
X4875508Y-15472228D02*
X4865984Y-15491276D01*
X4865984Y-15491276D02*
X4856460Y-15500800D01*
X4856460Y-15500800D02*
X4837412Y-15510324D01*
X4837412Y-15510324D02*
X4818365Y-15510324D01*
X4818365Y-15510324D02*
X4799317Y-15500800D01*
X4799317Y-15500800D02*
X4789793Y-15491276D01*
X4789793Y-15491276D02*
X4780270Y-15472228D01*
X4780270Y-15472228D02*
X4770746Y-15434133D01*
X4770746Y-15434133D02*
X4770746Y-15386514D01*
X4770746Y-15386514D02*
X4780270Y-15348419D01*
X4780270Y-15348419D02*
X4789793Y-15329371D01*
X4789793Y-15329371D02*
X4799317Y-15319848D01*
X4799317Y-15319848D02*
X4818365Y-15310324D01*
X5008841Y-15310324D02*
X5027889Y-15310324D01*
X5027889Y-15310324D02*
X5046936Y-15319848D01*
X5046936Y-15319848D02*
X5056460Y-15329371D01*
X5056460Y-15329371D02*
X5065984Y-15348419D01*
X5065984Y-15348419D02*
X5075508Y-15386514D01*
X5075508Y-15386514D02*
X5075508Y-15434133D01*
X5075508Y-15434133D02*
X5065984Y-15472228D01*
X5065984Y-15472228D02*
X5056460Y-15491276D01*
X5056460Y-15491276D02*
X5046936Y-15500800D01*
X5046936Y-15500800D02*
X5027889Y-15510324D01*
X5027889Y-15510324D02*
X5008841Y-15510324D01*
X5008841Y-15510324D02*
X4989793Y-15500800D01*
X4989793Y-15500800D02*
X4980270Y-15491276D01*
X4980270Y-15491276D02*
X4970746Y-15472228D01*
X4970746Y-15472228D02*
X4961222Y-15434133D01*
X4961222Y-15434133D02*
X4961222Y-15386514D01*
X4961222Y-15386514D02*
X4970746Y-15348419D01*
X4970746Y-15348419D02*
X4980270Y-15329371D01*
X4980270Y-15329371D02*
X4989793Y-15319848D01*
X4989793Y-15319848D02*
X5008841Y-15310324D01*
X5161222Y-15510324D02*
X5161222Y-15376990D01*
X5161222Y-15396038D02*
X5170746Y-15386514D01*
X5170746Y-15386514D02*
X5189793Y-15376990D01*
X5189793Y-15376990D02*
X5218365Y-15376990D01*
X5218365Y-15376990D02*
X5237412Y-15386514D01*
X5237412Y-15386514D02*
X5246936Y-15405562D01*
X5246936Y-15405562D02*
X5246936Y-15510324D01*
X5246936Y-15405562D02*
X5256460Y-15386514D01*
X5256460Y-15386514D02*
X5275508Y-15376990D01*
X5275508Y-15376990D02*
X5304079Y-15376990D01*
X5304079Y-15376990D02*
X5323127Y-15386514D01*
X5323127Y-15386514D02*
X5332651Y-15405562D01*
X5332651Y-15405562D02*
X5332651Y-15510324D01*
X5427889Y-15510324D02*
X5427889Y-15376990D01*
X5427889Y-15396038D02*
X5437412Y-15386514D01*
X5437412Y-15386514D02*
X5456460Y-15376990D01*
X5456460Y-15376990D02*
X5485032Y-15376990D01*
X5485032Y-15376990D02*
X5504079Y-15386514D01*
X5504079Y-15386514D02*
X5513603Y-15405562D01*
X5513603Y-15405562D02*
X5513603Y-15510324D01*
X5513603Y-15405562D02*
X5523127Y-15386514D01*
X5523127Y-15386514D02*
X5542174Y-15376990D01*
X5542174Y-15376990D02*
X5570746Y-15376990D01*
X5570746Y-15376990D02*
X5589793Y-15386514D01*
X5589793Y-15386514D02*
X5599317Y-15405562D01*
X5599317Y-15405562D02*
X5599317Y-15510324D01*
X5989793Y-15300800D02*
X5818365Y-15557943D01*
X6246936Y-15310324D02*
X6265984Y-15310324D01*
X6265984Y-15310324D02*
X6285032Y-15319848D01*
X6285032Y-15319848D02*
X6294555Y-15329371D01*
X6294555Y-15329371D02*
X6304079Y-15348419D01*
X6304079Y-15348419D02*
X6313603Y-15386514D01*
X6313603Y-15386514D02*
X6313603Y-15434133D01*
X6313603Y-15434133D02*
X6304079Y-15472228D01*
X6304079Y-15472228D02*
X6294555Y-15491276D01*
X6294555Y-15491276D02*
X6285032Y-15500800D01*
X6285032Y-15500800D02*
X6265984Y-15510324D01*
X6265984Y-15510324D02*
X6246936Y-15510324D01*
X6246936Y-15510324D02*
X6227889Y-15500800D01*
X6227889Y-15500800D02*
X6218365Y-15491276D01*
X6218365Y-15491276D02*
X6208841Y-15472228D01*
X6208841Y-15472228D02*
X6199317Y-15434133D01*
X6199317Y-15434133D02*
X6199317Y-15386514D01*
X6199317Y-15386514D02*
X6208841Y-15348419D01*
X6208841Y-15348419D02*
X6218365Y-15329371D01*
X6218365Y-15329371D02*
X6227889Y-15319848D01*
X6227889Y-15319848D02*
X6246936Y-15310324D01*
X6399317Y-15491276D02*
X6408841Y-15500800D01*
X6408841Y-15500800D02*
X6399317Y-15510324D01*
X6399317Y-15510324D02*
X6389793Y-15500800D01*
X6389793Y-15500800D02*
X6399317Y-15491276D01*
X6399317Y-15491276D02*
X6399317Y-15510324D01*
X6532651Y-15310324D02*
X6551698Y-15310324D01*
X6551698Y-15310324D02*
X6570746Y-15319848D01*
X6570746Y-15319848D02*
X6580270Y-15329371D01*
X6580270Y-15329371D02*
X6589793Y-15348419D01*
X6589793Y-15348419D02*
X6599317Y-15386514D01*
X6599317Y-15386514D02*
X6599317Y-15434133D01*
X6599317Y-15434133D02*
X6589793Y-15472228D01*
X6589793Y-15472228D02*
X6580270Y-15491276D01*
X6580270Y-15491276D02*
X6570746Y-15500800D01*
X6570746Y-15500800D02*
X6551698Y-15510324D01*
X6551698Y-15510324D02*
X6532651Y-15510324D01*
X6532651Y-15510324D02*
X6513603Y-15500800D01*
X6513603Y-15500800D02*
X6504079Y-15491276D01*
X6504079Y-15491276D02*
X6494555Y-15472228D01*
X6494555Y-15472228D02*
X6485032Y-15434133D01*
X6485032Y-15434133D02*
X6485032Y-15386514D01*
X6485032Y-15386514D02*
X6494555Y-15348419D01*
X6494555Y-15348419D02*
X6504079Y-15329371D01*
X6504079Y-15329371D02*
X6513603Y-15319848D01*
X6513603Y-15319848D02*
X6532651Y-15310324D01*
X6665984Y-15310324D02*
X6789793Y-15310324D01*
X6789793Y-15310324D02*
X6723127Y-15386514D01*
X6723127Y-15386514D02*
X6751698Y-15386514D01*
X6751698Y-15386514D02*
X6770746Y-15396038D01*
X6770746Y-15396038D02*
X6780270Y-15405562D01*
X6780270Y-15405562D02*
X6789793Y-15424609D01*
X6789793Y-15424609D02*
X6789793Y-15472228D01*
X6789793Y-15472228D02*
X6780270Y-15491276D01*
X6780270Y-15491276D02*
X6770746Y-15500800D01*
X6770746Y-15500800D02*
X6751698Y-15510324D01*
X6751698Y-15510324D02*
X6694555Y-15510324D01*
X6694555Y-15510324D02*
X6675508Y-15500800D01*
X6675508Y-15500800D02*
X6665984Y-15491276D01*
X6980270Y-15510324D02*
X6865984Y-15510324D01*
X6923127Y-15510324D02*
X6923127Y-15310324D01*
X6923127Y-15310324D02*
X6904079Y-15338895D01*
X6904079Y-15338895D02*
X6885032Y-15357943D01*
X6885032Y-15357943D02*
X6865984Y-15367467D01*
X7161222Y-15310324D02*
X7065984Y-15310324D01*
X7065984Y-15310324D02*
X7056460Y-15405562D01*
X7056460Y-15405562D02*
X7065984Y-15396038D01*
X7065984Y-15396038D02*
X7085032Y-15386514D01*
X7085032Y-15386514D02*
X7132651Y-15386514D01*
X7132651Y-15386514D02*
X7151698Y-15396038D01*
X7151698Y-15396038D02*
X7161222Y-15405562D01*
X7161222Y-15405562D02*
X7170746Y-15424609D01*
X7170746Y-15424609D02*
X7170746Y-15472228D01*
X7170746Y-15472228D02*
X7161222Y-15491276D01*
X7161222Y-15491276D02*
X7151698Y-15500800D01*
X7151698Y-15500800D02*
X7132651Y-15510324D01*
X7132651Y-15510324D02*
X7085032Y-15510324D01*
X7085032Y-15510324D02*
X7065984Y-15500800D01*
X7065984Y-15500800D02*
X7056460Y-15491276D01*
X7246936Y-15310324D02*
X7246936Y-15348419D01*
X7323127Y-15310324D02*
X7323127Y-15348419D01*
X7618365Y-15586514D02*
X7608841Y-15576990D01*
X7608841Y-15576990D02*
X7589794Y-15548419D01*
X7589794Y-15548419D02*
X7580270Y-15529371D01*
X7580270Y-15529371D02*
X7570746Y-15500800D01*
X7570746Y-15500800D02*
X7561222Y-15453181D01*
X7561222Y-15453181D02*
X7561222Y-15415086D01*
X7561222Y-15415086D02*
X7570746Y-15367467D01*
X7570746Y-15367467D02*
X7580270Y-15338895D01*
X7580270Y-15338895D02*
X7589794Y-15319848D01*
X7589794Y-15319848D02*
X7608841Y-15291276D01*
X7608841Y-15291276D02*
X7618365Y-15281752D01*
X7685032Y-15329371D02*
X7694555Y-15319848D01*
X7694555Y-15319848D02*
X7713603Y-15310324D01*
X7713603Y-15310324D02*
X7761222Y-15310324D01*
X7761222Y-15310324D02*
X7780270Y-15319848D01*
X7780270Y-15319848D02*
X7789794Y-15329371D01*
X7789794Y-15329371D02*
X7799317Y-15348419D01*
X7799317Y-15348419D02*
X7799317Y-15367467D01*
X7799317Y-15367467D02*
X7789794Y-15396038D01*
X7789794Y-15396038D02*
X7675508Y-15510324D01*
X7675508Y-15510324D02*
X7799317Y-15510324D01*
X7913603Y-15396038D02*
X7894555Y-15386514D01*
X7894555Y-15386514D02*
X7885032Y-15376990D01*
X7885032Y-15376990D02*
X7875508Y-15357943D01*
X7875508Y-15357943D02*
X7875508Y-15348419D01*
X7875508Y-15348419D02*
X7885032Y-15329371D01*
X7885032Y-15329371D02*
X7894555Y-15319848D01*
X7894555Y-15319848D02*
X7913603Y-15310324D01*
X7913603Y-15310324D02*
X7951698Y-15310324D01*
X7951698Y-15310324D02*
X7970746Y-15319848D01*
X7970746Y-15319848D02*
X7980270Y-15329371D01*
X7980270Y-15329371D02*
X7989794Y-15348419D01*
X7989794Y-15348419D02*
X7989794Y-15357943D01*
X7989794Y-15357943D02*
X7980270Y-15376990D01*
X7980270Y-15376990D02*
X7970746Y-15386514D01*
X7970746Y-15386514D02*
X7951698Y-15396038D01*
X7951698Y-15396038D02*
X7913603Y-15396038D01*
X7913603Y-15396038D02*
X7894555Y-15405562D01*
X7894555Y-15405562D02*
X7885032Y-15415086D01*
X7885032Y-15415086D02*
X7875508Y-15434133D01*
X7875508Y-15434133D02*
X7875508Y-15472228D01*
X7875508Y-15472228D02*
X7885032Y-15491276D01*
X7885032Y-15491276D02*
X7894555Y-15500800D01*
X7894555Y-15500800D02*
X7913603Y-15510324D01*
X7913603Y-15510324D02*
X7951698Y-15510324D01*
X7951698Y-15510324D02*
X7970746Y-15500800D01*
X7970746Y-15500800D02*
X7980270Y-15491276D01*
X7980270Y-15491276D02*
X7989794Y-15472228D01*
X7989794Y-15472228D02*
X7989794Y-15434133D01*
X7989794Y-15434133D02*
X7980270Y-15415086D01*
X7980270Y-15415086D02*
X7970746Y-15405562D01*
X7970746Y-15405562D02*
X7951698Y-15396038D01*
X8227889Y-15510324D02*
X8227889Y-15310324D01*
X8313603Y-15510324D02*
X8313603Y-15405562D01*
X8313603Y-15405562D02*
X8304079Y-15386514D01*
X8304079Y-15386514D02*
X8285032Y-15376990D01*
X8285032Y-15376990D02*
X8256460Y-15376990D01*
X8256460Y-15376990D02*
X8237413Y-15386514D01*
X8237413Y-15386514D02*
X8227889Y-15396038D01*
X8437413Y-15510324D02*
X8418365Y-15500800D01*
X8418365Y-15500800D02*
X8408841Y-15491276D01*
X8408841Y-15491276D02*
X8399318Y-15472228D01*
X8399318Y-15472228D02*
X8399318Y-15415086D01*
X8399318Y-15415086D02*
X8408841Y-15396038D01*
X8408841Y-15396038D02*
X8418365Y-15386514D01*
X8418365Y-15386514D02*
X8437413Y-15376990D01*
X8437413Y-15376990D02*
X8465984Y-15376990D01*
X8465984Y-15376990D02*
X8485032Y-15386514D01*
X8485032Y-15386514D02*
X8494556Y-15396038D01*
X8494556Y-15396038D02*
X8504079Y-15415086D01*
X8504079Y-15415086D02*
X8504079Y-15472228D01*
X8504079Y-15472228D02*
X8494556Y-15491276D01*
X8494556Y-15491276D02*
X8485032Y-15500800D01*
X8485032Y-15500800D02*
X8465984Y-15510324D01*
X8465984Y-15510324D02*
X8437413Y-15510324D01*
X8618365Y-15510324D02*
X8599318Y-15500800D01*
X8599318Y-15500800D02*
X8589794Y-15481752D01*
X8589794Y-15481752D02*
X8589794Y-15310324D01*
X8770746Y-15500800D02*
X8751699Y-15510324D01*
X8751699Y-15510324D02*
X8713603Y-15510324D01*
X8713603Y-15510324D02*
X8694556Y-15500800D01*
X8694556Y-15500800D02*
X8685032Y-15481752D01*
X8685032Y-15481752D02*
X8685032Y-15405562D01*
X8685032Y-15405562D02*
X8694556Y-15386514D01*
X8694556Y-15386514D02*
X8713603Y-15376990D01*
X8713603Y-15376990D02*
X8751699Y-15376990D01*
X8751699Y-15376990D02*
X8770746Y-15386514D01*
X8770746Y-15386514D02*
X8780270Y-15405562D01*
X8780270Y-15405562D02*
X8780270Y-15424609D01*
X8780270Y-15424609D02*
X8685032Y-15443657D01*
X8856460Y-15500800D02*
X8875508Y-15510324D01*
X8875508Y-15510324D02*
X8913603Y-15510324D01*
X8913603Y-15510324D02*
X8932651Y-15500800D01*
X8932651Y-15500800D02*
X8942175Y-15481752D01*
X8942175Y-15481752D02*
X8942175Y-15472228D01*
X8942175Y-15472228D02*
X8932651Y-15453181D01*
X8932651Y-15453181D02*
X8913603Y-15443657D01*
X8913603Y-15443657D02*
X8885032Y-15443657D01*
X8885032Y-15443657D02*
X8865984Y-15434133D01*
X8865984Y-15434133D02*
X8856460Y-15415086D01*
X8856460Y-15415086D02*
X8856460Y-15405562D01*
X8856460Y-15405562D02*
X8865984Y-15386514D01*
X8865984Y-15386514D02*
X8885032Y-15376990D01*
X8885032Y-15376990D02*
X8913603Y-15376990D01*
X8913603Y-15376990D02*
X8932651Y-15386514D01*
X9008841Y-15586514D02*
X9018365Y-15576990D01*
X9018365Y-15576990D02*
X9037413Y-15548419D01*
X9037413Y-15548419D02*
X9046937Y-15529371D01*
X9046937Y-15529371D02*
X9056460Y-15500800D01*
X9056460Y-15500800D02*
X9065984Y-15453181D01*
X9065984Y-15453181D02*
X9065984Y-15415086D01*
X9065984Y-15415086D02*
X9056460Y-15367467D01*
X9056460Y-15367467D02*
X9046937Y-15338895D01*
X9046937Y-15338895D02*
X9037413Y-15319848D01*
X9037413Y-15319848D02*
X9018365Y-15291276D01*
X9018365Y-15291276D02*
X9008841Y-15281752D01*
D14*
X4011460Y-15636800D02*
X4011460Y-15726800D01*
X3966460Y-15681800D02*
X4056460Y-15681800D01*
D11*
X4342174Y-15574324D02*
X4361222Y-15574324D01*
X4361222Y-15574324D02*
X4380270Y-15583848D01*
X4380270Y-15583848D02*
X4389793Y-15593371D01*
X4389793Y-15593371D02*
X4399317Y-15612419D01*
X4399317Y-15612419D02*
X4408841Y-15650514D01*
X4408841Y-15650514D02*
X4408841Y-15698133D01*
X4408841Y-15698133D02*
X4399317Y-15736228D01*
X4399317Y-15736228D02*
X4389793Y-15755276D01*
X4389793Y-15755276D02*
X4380270Y-15764800D01*
X4380270Y-15764800D02*
X4361222Y-15774324D01*
X4361222Y-15774324D02*
X4342174Y-15774324D01*
X4342174Y-15774324D02*
X4323127Y-15764800D01*
X4323127Y-15764800D02*
X4313603Y-15755276D01*
X4313603Y-15755276D02*
X4304079Y-15736228D01*
X4304079Y-15736228D02*
X4294555Y-15698133D01*
X4294555Y-15698133D02*
X4294555Y-15650514D01*
X4294555Y-15650514D02*
X4304079Y-15612419D01*
X4304079Y-15612419D02*
X4313603Y-15593371D01*
X4313603Y-15593371D02*
X4323127Y-15583848D01*
X4323127Y-15583848D02*
X4342174Y-15574324D01*
X4494555Y-15755276D02*
X4504079Y-15764800D01*
X4504079Y-15764800D02*
X4494555Y-15774324D01*
X4494555Y-15774324D02*
X4485031Y-15764800D01*
X4485031Y-15764800D02*
X4494555Y-15755276D01*
X4494555Y-15755276D02*
X4494555Y-15774324D01*
X4599317Y-15774324D02*
X4637412Y-15774324D01*
X4637412Y-15774324D02*
X4656460Y-15764800D01*
X4656460Y-15764800D02*
X4665984Y-15755276D01*
X4665984Y-15755276D02*
X4685031Y-15726705D01*
X4685031Y-15726705D02*
X4694555Y-15688609D01*
X4694555Y-15688609D02*
X4694555Y-15612419D01*
X4694555Y-15612419D02*
X4685031Y-15593371D01*
X4685031Y-15593371D02*
X4675508Y-15583848D01*
X4675508Y-15583848D02*
X4656460Y-15574324D01*
X4656460Y-15574324D02*
X4618365Y-15574324D01*
X4618365Y-15574324D02*
X4599317Y-15583848D01*
X4599317Y-15583848D02*
X4589793Y-15593371D01*
X4589793Y-15593371D02*
X4580270Y-15612419D01*
X4580270Y-15612419D02*
X4580270Y-15660038D01*
X4580270Y-15660038D02*
X4589793Y-15679086D01*
X4589793Y-15679086D02*
X4599317Y-15688609D01*
X4599317Y-15688609D02*
X4618365Y-15698133D01*
X4618365Y-15698133D02*
X4656460Y-15698133D01*
X4656460Y-15698133D02*
X4675508Y-15688609D01*
X4675508Y-15688609D02*
X4685031Y-15679086D01*
X4685031Y-15679086D02*
X4694555Y-15660038D01*
X4818365Y-15574324D02*
X4837412Y-15574324D01*
X4837412Y-15574324D02*
X4856460Y-15583848D01*
X4856460Y-15583848D02*
X4865984Y-15593371D01*
X4865984Y-15593371D02*
X4875508Y-15612419D01*
X4875508Y-15612419D02*
X4885031Y-15650514D01*
X4885031Y-15650514D02*
X4885031Y-15698133D01*
X4885031Y-15698133D02*
X4875508Y-15736228D01*
X4875508Y-15736228D02*
X4865984Y-15755276D01*
X4865984Y-15755276D02*
X4856460Y-15764800D01*
X4856460Y-15764800D02*
X4837412Y-15774324D01*
X4837412Y-15774324D02*
X4818365Y-15774324D01*
X4818365Y-15774324D02*
X4799317Y-15764800D01*
X4799317Y-15764800D02*
X4789793Y-15755276D01*
X4789793Y-15755276D02*
X4780270Y-15736228D01*
X4780270Y-15736228D02*
X4770746Y-15698133D01*
X4770746Y-15698133D02*
X4770746Y-15650514D01*
X4770746Y-15650514D02*
X4780270Y-15612419D01*
X4780270Y-15612419D02*
X4789793Y-15593371D01*
X4789793Y-15593371D02*
X4799317Y-15583848D01*
X4799317Y-15583848D02*
X4818365Y-15574324D01*
X5008841Y-15574324D02*
X5027889Y-15574324D01*
X5027889Y-15574324D02*
X5046936Y-15583848D01*
X5046936Y-15583848D02*
X5056460Y-15593371D01*
X5056460Y-15593371D02*
X5065984Y-15612419D01*
X5065984Y-15612419D02*
X5075508Y-15650514D01*
X5075508Y-15650514D02*
X5075508Y-15698133D01*
X5075508Y-15698133D02*
X5065984Y-15736228D01*
X5065984Y-15736228D02*
X5056460Y-15755276D01*
X5056460Y-15755276D02*
X5046936Y-15764800D01*
X5046936Y-15764800D02*
X5027889Y-15774324D01*
X5027889Y-15774324D02*
X5008841Y-15774324D01*
X5008841Y-15774324D02*
X4989793Y-15764800D01*
X4989793Y-15764800D02*
X4980270Y-15755276D01*
X4980270Y-15755276D02*
X4970746Y-15736228D01*
X4970746Y-15736228D02*
X4961222Y-15698133D01*
X4961222Y-15698133D02*
X4961222Y-15650514D01*
X4961222Y-15650514D02*
X4970746Y-15612419D01*
X4970746Y-15612419D02*
X4980270Y-15593371D01*
X4980270Y-15593371D02*
X4989793Y-15583848D01*
X4989793Y-15583848D02*
X5008841Y-15574324D01*
X5161222Y-15774324D02*
X5161222Y-15640990D01*
X5161222Y-15660038D02*
X5170746Y-15650514D01*
X5170746Y-15650514D02*
X5189793Y-15640990D01*
X5189793Y-15640990D02*
X5218365Y-15640990D01*
X5218365Y-15640990D02*
X5237412Y-15650514D01*
X5237412Y-15650514D02*
X5246936Y-15669562D01*
X5246936Y-15669562D02*
X5246936Y-15774324D01*
X5246936Y-15669562D02*
X5256460Y-15650514D01*
X5256460Y-15650514D02*
X5275508Y-15640990D01*
X5275508Y-15640990D02*
X5304079Y-15640990D01*
X5304079Y-15640990D02*
X5323127Y-15650514D01*
X5323127Y-15650514D02*
X5332651Y-15669562D01*
X5332651Y-15669562D02*
X5332651Y-15774324D01*
X5427889Y-15774324D02*
X5427889Y-15640990D01*
X5427889Y-15660038D02*
X5437412Y-15650514D01*
X5437412Y-15650514D02*
X5456460Y-15640990D01*
X5456460Y-15640990D02*
X5485032Y-15640990D01*
X5485032Y-15640990D02*
X5504079Y-15650514D01*
X5504079Y-15650514D02*
X5513603Y-15669562D01*
X5513603Y-15669562D02*
X5513603Y-15774324D01*
X5513603Y-15669562D02*
X5523127Y-15650514D01*
X5523127Y-15650514D02*
X5542174Y-15640990D01*
X5542174Y-15640990D02*
X5570746Y-15640990D01*
X5570746Y-15640990D02*
X5589793Y-15650514D01*
X5589793Y-15650514D02*
X5599317Y-15669562D01*
X5599317Y-15669562D02*
X5599317Y-15774324D01*
X5989793Y-15564800D02*
X5818365Y-15821943D01*
X6246936Y-15574324D02*
X6265984Y-15574324D01*
X6265984Y-15574324D02*
X6285032Y-15583848D01*
X6285032Y-15583848D02*
X6294555Y-15593371D01*
X6294555Y-15593371D02*
X6304079Y-15612419D01*
X6304079Y-15612419D02*
X6313603Y-15650514D01*
X6313603Y-15650514D02*
X6313603Y-15698133D01*
X6313603Y-15698133D02*
X6304079Y-15736228D01*
X6304079Y-15736228D02*
X6294555Y-15755276D01*
X6294555Y-15755276D02*
X6285032Y-15764800D01*
X6285032Y-15764800D02*
X6265984Y-15774324D01*
X6265984Y-15774324D02*
X6246936Y-15774324D01*
X6246936Y-15774324D02*
X6227889Y-15764800D01*
X6227889Y-15764800D02*
X6218365Y-15755276D01*
X6218365Y-15755276D02*
X6208841Y-15736228D01*
X6208841Y-15736228D02*
X6199317Y-15698133D01*
X6199317Y-15698133D02*
X6199317Y-15650514D01*
X6199317Y-15650514D02*
X6208841Y-15612419D01*
X6208841Y-15612419D02*
X6218365Y-15593371D01*
X6218365Y-15593371D02*
X6227889Y-15583848D01*
X6227889Y-15583848D02*
X6246936Y-15574324D01*
X6399317Y-15755276D02*
X6408841Y-15764800D01*
X6408841Y-15764800D02*
X6399317Y-15774324D01*
X6399317Y-15774324D02*
X6389793Y-15764800D01*
X6389793Y-15764800D02*
X6399317Y-15755276D01*
X6399317Y-15755276D02*
X6399317Y-15774324D01*
X6532651Y-15574324D02*
X6551698Y-15574324D01*
X6551698Y-15574324D02*
X6570746Y-15583848D01*
X6570746Y-15583848D02*
X6580270Y-15593371D01*
X6580270Y-15593371D02*
X6589793Y-15612419D01*
X6589793Y-15612419D02*
X6599317Y-15650514D01*
X6599317Y-15650514D02*
X6599317Y-15698133D01*
X6599317Y-15698133D02*
X6589793Y-15736228D01*
X6589793Y-15736228D02*
X6580270Y-15755276D01*
X6580270Y-15755276D02*
X6570746Y-15764800D01*
X6570746Y-15764800D02*
X6551698Y-15774324D01*
X6551698Y-15774324D02*
X6532651Y-15774324D01*
X6532651Y-15774324D02*
X6513603Y-15764800D01*
X6513603Y-15764800D02*
X6504079Y-15755276D01*
X6504079Y-15755276D02*
X6494555Y-15736228D01*
X6494555Y-15736228D02*
X6485032Y-15698133D01*
X6485032Y-15698133D02*
X6485032Y-15650514D01*
X6485032Y-15650514D02*
X6494555Y-15612419D01*
X6494555Y-15612419D02*
X6504079Y-15593371D01*
X6504079Y-15593371D02*
X6513603Y-15583848D01*
X6513603Y-15583848D02*
X6532651Y-15574324D01*
X6665984Y-15574324D02*
X6789793Y-15574324D01*
X6789793Y-15574324D02*
X6723127Y-15650514D01*
X6723127Y-15650514D02*
X6751698Y-15650514D01*
X6751698Y-15650514D02*
X6770746Y-15660038D01*
X6770746Y-15660038D02*
X6780270Y-15669562D01*
X6780270Y-15669562D02*
X6789793Y-15688609D01*
X6789793Y-15688609D02*
X6789793Y-15736228D01*
X6789793Y-15736228D02*
X6780270Y-15755276D01*
X6780270Y-15755276D02*
X6770746Y-15764800D01*
X6770746Y-15764800D02*
X6751698Y-15774324D01*
X6751698Y-15774324D02*
X6694555Y-15774324D01*
X6694555Y-15774324D02*
X6675508Y-15764800D01*
X6675508Y-15764800D02*
X6665984Y-15755276D01*
X6970746Y-15574324D02*
X6875508Y-15574324D01*
X6875508Y-15574324D02*
X6865984Y-15669562D01*
X6865984Y-15669562D02*
X6875508Y-15660038D01*
X6875508Y-15660038D02*
X6894555Y-15650514D01*
X6894555Y-15650514D02*
X6942174Y-15650514D01*
X6942174Y-15650514D02*
X6961222Y-15660038D01*
X6961222Y-15660038D02*
X6970746Y-15669562D01*
X6970746Y-15669562D02*
X6980270Y-15688609D01*
X6980270Y-15688609D02*
X6980270Y-15736228D01*
X6980270Y-15736228D02*
X6970746Y-15755276D01*
X6970746Y-15755276D02*
X6961222Y-15764800D01*
X6961222Y-15764800D02*
X6942174Y-15774324D01*
X6942174Y-15774324D02*
X6894555Y-15774324D01*
X6894555Y-15774324D02*
X6875508Y-15764800D01*
X6875508Y-15764800D02*
X6865984Y-15755276D01*
X7151698Y-15640990D02*
X7151698Y-15774324D01*
X7104079Y-15564800D02*
X7056460Y-15707657D01*
X7056460Y-15707657D02*
X7180270Y-15707657D01*
X7246936Y-15574324D02*
X7246936Y-15612419D01*
X7323127Y-15574324D02*
X7323127Y-15612419D01*
X7618365Y-15850514D02*
X7608841Y-15840990D01*
X7608841Y-15840990D02*
X7589794Y-15812419D01*
X7589794Y-15812419D02*
X7580270Y-15793371D01*
X7580270Y-15793371D02*
X7570746Y-15764800D01*
X7570746Y-15764800D02*
X7561222Y-15717181D01*
X7561222Y-15717181D02*
X7561222Y-15679086D01*
X7561222Y-15679086D02*
X7570746Y-15631467D01*
X7570746Y-15631467D02*
X7580270Y-15602895D01*
X7580270Y-15602895D02*
X7589794Y-15583848D01*
X7589794Y-15583848D02*
X7608841Y-15555276D01*
X7608841Y-15555276D02*
X7618365Y-15545752D01*
X7685032Y-15593371D02*
X7694555Y-15583848D01*
X7694555Y-15583848D02*
X7713603Y-15574324D01*
X7713603Y-15574324D02*
X7761222Y-15574324D01*
X7761222Y-15574324D02*
X7780270Y-15583848D01*
X7780270Y-15583848D02*
X7789794Y-15593371D01*
X7789794Y-15593371D02*
X7799317Y-15612419D01*
X7799317Y-15612419D02*
X7799317Y-15631467D01*
X7799317Y-15631467D02*
X7789794Y-15660038D01*
X7789794Y-15660038D02*
X7675508Y-15774324D01*
X7675508Y-15774324D02*
X7799317Y-15774324D01*
X8037413Y-15774324D02*
X8037413Y-15574324D01*
X8123127Y-15774324D02*
X8123127Y-15669562D01*
X8123127Y-15669562D02*
X8113603Y-15650514D01*
X8113603Y-15650514D02*
X8094556Y-15640990D01*
X8094556Y-15640990D02*
X8065984Y-15640990D01*
X8065984Y-15640990D02*
X8046936Y-15650514D01*
X8046936Y-15650514D02*
X8037413Y-15660038D01*
X8246936Y-15774324D02*
X8227889Y-15764800D01*
X8227889Y-15764800D02*
X8218365Y-15755276D01*
X8218365Y-15755276D02*
X8208841Y-15736228D01*
X8208841Y-15736228D02*
X8208841Y-15679086D01*
X8208841Y-15679086D02*
X8218365Y-15660038D01*
X8218365Y-15660038D02*
X8227889Y-15650514D01*
X8227889Y-15650514D02*
X8246936Y-15640990D01*
X8246936Y-15640990D02*
X8275508Y-15640990D01*
X8275508Y-15640990D02*
X8294556Y-15650514D01*
X8294556Y-15650514D02*
X8304079Y-15660038D01*
X8304079Y-15660038D02*
X8313603Y-15679086D01*
X8313603Y-15679086D02*
X8313603Y-15736228D01*
X8313603Y-15736228D02*
X8304079Y-15755276D01*
X8304079Y-15755276D02*
X8294556Y-15764800D01*
X8294556Y-15764800D02*
X8275508Y-15774324D01*
X8275508Y-15774324D02*
X8246936Y-15774324D01*
X8427889Y-15774324D02*
X8408841Y-15764800D01*
X8408841Y-15764800D02*
X8399318Y-15745752D01*
X8399318Y-15745752D02*
X8399318Y-15574324D01*
X8580270Y-15764800D02*
X8561222Y-15774324D01*
X8561222Y-15774324D02*
X8523127Y-15774324D01*
X8523127Y-15774324D02*
X8504079Y-15764800D01*
X8504079Y-15764800D02*
X8494556Y-15745752D01*
X8494556Y-15745752D02*
X8494556Y-15669562D01*
X8494556Y-15669562D02*
X8504079Y-15650514D01*
X8504079Y-15650514D02*
X8523127Y-15640990D01*
X8523127Y-15640990D02*
X8561222Y-15640990D01*
X8561222Y-15640990D02*
X8580270Y-15650514D01*
X8580270Y-15650514D02*
X8589794Y-15669562D01*
X8589794Y-15669562D02*
X8589794Y-15688609D01*
X8589794Y-15688609D02*
X8494556Y-15707657D01*
X8665984Y-15764800D02*
X8685032Y-15774324D01*
X8685032Y-15774324D02*
X8723127Y-15774324D01*
X8723127Y-15774324D02*
X8742175Y-15764800D01*
X8742175Y-15764800D02*
X8751699Y-15745752D01*
X8751699Y-15745752D02*
X8751699Y-15736228D01*
X8751699Y-15736228D02*
X8742175Y-15717181D01*
X8742175Y-15717181D02*
X8723127Y-15707657D01*
X8723127Y-15707657D02*
X8694556Y-15707657D01*
X8694556Y-15707657D02*
X8675508Y-15698133D01*
X8675508Y-15698133D02*
X8665984Y-15679086D01*
X8665984Y-15679086D02*
X8665984Y-15669562D01*
X8665984Y-15669562D02*
X8675508Y-15650514D01*
X8675508Y-15650514D02*
X8694556Y-15640990D01*
X8694556Y-15640990D02*
X8723127Y-15640990D01*
X8723127Y-15640990D02*
X8742175Y-15650514D01*
X8818365Y-15850514D02*
X8827889Y-15840990D01*
X8827889Y-15840990D02*
X8846937Y-15812419D01*
X8846937Y-15812419D02*
X8856460Y-15793371D01*
X8856460Y-15793371D02*
X8865984Y-15764800D01*
X8865984Y-15764800D02*
X8875508Y-15717181D01*
X8875508Y-15717181D02*
X8875508Y-15679086D01*
X8875508Y-15679086D02*
X8865984Y-15631467D01*
X8865984Y-15631467D02*
X8856460Y-15602895D01*
X8856460Y-15602895D02*
X8846937Y-15583848D01*
X8846937Y-15583848D02*
X8827889Y-15555276D01*
X8827889Y-15555276D02*
X8818365Y-15545752D01*
D10*
X4041816Y-15981156D02*
X4041816Y-15910444D01*
X3971104Y-15910444D01*
X3971104Y-15981156D01*
X4041816Y-15981156D01*
D11*
X4408841Y-16038324D02*
X4294555Y-16038324D01*
X4351698Y-16038324D02*
X4351698Y-15838324D01*
X4351698Y-15838324D02*
X4332650Y-15866895D01*
X4332650Y-15866895D02*
X4313603Y-15885943D01*
X4313603Y-15885943D02*
X4294555Y-15895467D01*
X4494555Y-16019276D02*
X4504079Y-16028800D01*
X4504079Y-16028800D02*
X4494555Y-16038324D01*
X4494555Y-16038324D02*
X4485031Y-16028800D01*
X4485031Y-16028800D02*
X4494555Y-16019276D01*
X4494555Y-16019276D02*
X4494555Y-16038324D01*
X4627889Y-15838324D02*
X4646936Y-15838324D01*
X4646936Y-15838324D02*
X4665984Y-15847848D01*
X4665984Y-15847848D02*
X4675508Y-15857371D01*
X4675508Y-15857371D02*
X4685031Y-15876419D01*
X4685031Y-15876419D02*
X4694555Y-15914514D01*
X4694555Y-15914514D02*
X4694555Y-15962133D01*
X4694555Y-15962133D02*
X4685031Y-16000228D01*
X4685031Y-16000228D02*
X4675508Y-16019276D01*
X4675508Y-16019276D02*
X4665984Y-16028800D01*
X4665984Y-16028800D02*
X4646936Y-16038324D01*
X4646936Y-16038324D02*
X4627889Y-16038324D01*
X4627889Y-16038324D02*
X4608841Y-16028800D01*
X4608841Y-16028800D02*
X4599317Y-16019276D01*
X4599317Y-16019276D02*
X4589793Y-16000228D01*
X4589793Y-16000228D02*
X4580270Y-15962133D01*
X4580270Y-15962133D02*
X4580270Y-15914514D01*
X4580270Y-15914514D02*
X4589793Y-15876419D01*
X4589793Y-15876419D02*
X4599317Y-15857371D01*
X4599317Y-15857371D02*
X4608841Y-15847848D01*
X4608841Y-15847848D02*
X4627889Y-15838324D01*
X4818365Y-15838324D02*
X4837412Y-15838324D01*
X4837412Y-15838324D02*
X4856460Y-15847848D01*
X4856460Y-15847848D02*
X4865984Y-15857371D01*
X4865984Y-15857371D02*
X4875508Y-15876419D01*
X4875508Y-15876419D02*
X4885031Y-15914514D01*
X4885031Y-15914514D02*
X4885031Y-15962133D01*
X4885031Y-15962133D02*
X4875508Y-16000228D01*
X4875508Y-16000228D02*
X4865984Y-16019276D01*
X4865984Y-16019276D02*
X4856460Y-16028800D01*
X4856460Y-16028800D02*
X4837412Y-16038324D01*
X4837412Y-16038324D02*
X4818365Y-16038324D01*
X4818365Y-16038324D02*
X4799317Y-16028800D01*
X4799317Y-16028800D02*
X4789793Y-16019276D01*
X4789793Y-16019276D02*
X4780270Y-16000228D01*
X4780270Y-16000228D02*
X4770746Y-15962133D01*
X4770746Y-15962133D02*
X4770746Y-15914514D01*
X4770746Y-15914514D02*
X4780270Y-15876419D01*
X4780270Y-15876419D02*
X4789793Y-15857371D01*
X4789793Y-15857371D02*
X4799317Y-15847848D01*
X4799317Y-15847848D02*
X4818365Y-15838324D01*
X5008841Y-15838324D02*
X5027889Y-15838324D01*
X5027889Y-15838324D02*
X5046936Y-15847848D01*
X5046936Y-15847848D02*
X5056460Y-15857371D01*
X5056460Y-15857371D02*
X5065984Y-15876419D01*
X5065984Y-15876419D02*
X5075508Y-15914514D01*
X5075508Y-15914514D02*
X5075508Y-15962133D01*
X5075508Y-15962133D02*
X5065984Y-16000228D01*
X5065984Y-16000228D02*
X5056460Y-16019276D01*
X5056460Y-16019276D02*
X5046936Y-16028800D01*
X5046936Y-16028800D02*
X5027889Y-16038324D01*
X5027889Y-16038324D02*
X5008841Y-16038324D01*
X5008841Y-16038324D02*
X4989793Y-16028800D01*
X4989793Y-16028800D02*
X4980270Y-16019276D01*
X4980270Y-16019276D02*
X4970746Y-16000228D01*
X4970746Y-16000228D02*
X4961222Y-15962133D01*
X4961222Y-15962133D02*
X4961222Y-15914514D01*
X4961222Y-15914514D02*
X4970746Y-15876419D01*
X4970746Y-15876419D02*
X4980270Y-15857371D01*
X4980270Y-15857371D02*
X4989793Y-15847848D01*
X4989793Y-15847848D02*
X5008841Y-15838324D01*
X5161222Y-16038324D02*
X5161222Y-15904990D01*
X5161222Y-15924038D02*
X5170746Y-15914514D01*
X5170746Y-15914514D02*
X5189793Y-15904990D01*
X5189793Y-15904990D02*
X5218365Y-15904990D01*
X5218365Y-15904990D02*
X5237412Y-15914514D01*
X5237412Y-15914514D02*
X5246936Y-15933562D01*
X5246936Y-15933562D02*
X5246936Y-16038324D01*
X5246936Y-15933562D02*
X5256460Y-15914514D01*
X5256460Y-15914514D02*
X5275508Y-15904990D01*
X5275508Y-15904990D02*
X5304079Y-15904990D01*
X5304079Y-15904990D02*
X5323127Y-15914514D01*
X5323127Y-15914514D02*
X5332651Y-15933562D01*
X5332651Y-15933562D02*
X5332651Y-16038324D01*
X5427889Y-16038324D02*
X5427889Y-15904990D01*
X5427889Y-15924038D02*
X5437412Y-15914514D01*
X5437412Y-15914514D02*
X5456460Y-15904990D01*
X5456460Y-15904990D02*
X5485032Y-15904990D01*
X5485032Y-15904990D02*
X5504079Y-15914514D01*
X5504079Y-15914514D02*
X5513603Y-15933562D01*
X5513603Y-15933562D02*
X5513603Y-16038324D01*
X5513603Y-15933562D02*
X5523127Y-15914514D01*
X5523127Y-15914514D02*
X5542174Y-15904990D01*
X5542174Y-15904990D02*
X5570746Y-15904990D01*
X5570746Y-15904990D02*
X5589793Y-15914514D01*
X5589793Y-15914514D02*
X5599317Y-15933562D01*
X5599317Y-15933562D02*
X5599317Y-16038324D01*
X5989793Y-15828800D02*
X5818365Y-16085943D01*
X6246936Y-15838324D02*
X6265984Y-15838324D01*
X6265984Y-15838324D02*
X6285032Y-15847848D01*
X6285032Y-15847848D02*
X6294555Y-15857371D01*
X6294555Y-15857371D02*
X6304079Y-15876419D01*
X6304079Y-15876419D02*
X6313603Y-15914514D01*
X6313603Y-15914514D02*
X6313603Y-15962133D01*
X6313603Y-15962133D02*
X6304079Y-16000228D01*
X6304079Y-16000228D02*
X6294555Y-16019276D01*
X6294555Y-16019276D02*
X6285032Y-16028800D01*
X6285032Y-16028800D02*
X6265984Y-16038324D01*
X6265984Y-16038324D02*
X6246936Y-16038324D01*
X6246936Y-16038324D02*
X6227889Y-16028800D01*
X6227889Y-16028800D02*
X6218365Y-16019276D01*
X6218365Y-16019276D02*
X6208841Y-16000228D01*
X6208841Y-16000228D02*
X6199317Y-15962133D01*
X6199317Y-15962133D02*
X6199317Y-15914514D01*
X6199317Y-15914514D02*
X6208841Y-15876419D01*
X6208841Y-15876419D02*
X6218365Y-15857371D01*
X6218365Y-15857371D02*
X6227889Y-15847848D01*
X6227889Y-15847848D02*
X6246936Y-15838324D01*
X6399317Y-16019276D02*
X6408841Y-16028800D01*
X6408841Y-16028800D02*
X6399317Y-16038324D01*
X6399317Y-16038324D02*
X6389793Y-16028800D01*
X6389793Y-16028800D02*
X6399317Y-16019276D01*
X6399317Y-16019276D02*
X6399317Y-16038324D01*
X6532651Y-15838324D02*
X6551698Y-15838324D01*
X6551698Y-15838324D02*
X6570746Y-15847848D01*
X6570746Y-15847848D02*
X6580270Y-15857371D01*
X6580270Y-15857371D02*
X6589793Y-15876419D01*
X6589793Y-15876419D02*
X6599317Y-15914514D01*
X6599317Y-15914514D02*
X6599317Y-15962133D01*
X6599317Y-15962133D02*
X6589793Y-16000228D01*
X6589793Y-16000228D02*
X6580270Y-16019276D01*
X6580270Y-16019276D02*
X6570746Y-16028800D01*
X6570746Y-16028800D02*
X6551698Y-16038324D01*
X6551698Y-16038324D02*
X6532651Y-16038324D01*
X6532651Y-16038324D02*
X6513603Y-16028800D01*
X6513603Y-16028800D02*
X6504079Y-16019276D01*
X6504079Y-16019276D02*
X6494555Y-16000228D01*
X6494555Y-16000228D02*
X6485032Y-15962133D01*
X6485032Y-15962133D02*
X6485032Y-15914514D01*
X6485032Y-15914514D02*
X6494555Y-15876419D01*
X6494555Y-15876419D02*
X6504079Y-15857371D01*
X6504079Y-15857371D02*
X6513603Y-15847848D01*
X6513603Y-15847848D02*
X6532651Y-15838324D01*
X6665984Y-15838324D02*
X6789793Y-15838324D01*
X6789793Y-15838324D02*
X6723127Y-15914514D01*
X6723127Y-15914514D02*
X6751698Y-15914514D01*
X6751698Y-15914514D02*
X6770746Y-15924038D01*
X6770746Y-15924038D02*
X6780270Y-15933562D01*
X6780270Y-15933562D02*
X6789793Y-15952609D01*
X6789793Y-15952609D02*
X6789793Y-16000228D01*
X6789793Y-16000228D02*
X6780270Y-16019276D01*
X6780270Y-16019276D02*
X6770746Y-16028800D01*
X6770746Y-16028800D02*
X6751698Y-16038324D01*
X6751698Y-16038324D02*
X6694555Y-16038324D01*
X6694555Y-16038324D02*
X6675508Y-16028800D01*
X6675508Y-16028800D02*
X6665984Y-16019276D01*
X6885032Y-16038324D02*
X6923127Y-16038324D01*
X6923127Y-16038324D02*
X6942174Y-16028800D01*
X6942174Y-16028800D02*
X6951698Y-16019276D01*
X6951698Y-16019276D02*
X6970746Y-15990705D01*
X6970746Y-15990705D02*
X6980270Y-15952609D01*
X6980270Y-15952609D02*
X6980270Y-15876419D01*
X6980270Y-15876419D02*
X6970746Y-15857371D01*
X6970746Y-15857371D02*
X6961222Y-15847848D01*
X6961222Y-15847848D02*
X6942174Y-15838324D01*
X6942174Y-15838324D02*
X6904079Y-15838324D01*
X6904079Y-15838324D02*
X6885032Y-15847848D01*
X6885032Y-15847848D02*
X6875508Y-15857371D01*
X6875508Y-15857371D02*
X6865984Y-15876419D01*
X6865984Y-15876419D02*
X6865984Y-15924038D01*
X6865984Y-15924038D02*
X6875508Y-15943086D01*
X6875508Y-15943086D02*
X6885032Y-15952609D01*
X6885032Y-15952609D02*
X6904079Y-15962133D01*
X6904079Y-15962133D02*
X6942174Y-15962133D01*
X6942174Y-15962133D02*
X6961222Y-15952609D01*
X6961222Y-15952609D02*
X6970746Y-15943086D01*
X6970746Y-15943086D02*
X6980270Y-15924038D01*
X7151698Y-15904990D02*
X7151698Y-16038324D01*
X7104079Y-15828800D02*
X7056460Y-15971657D01*
X7056460Y-15971657D02*
X7180270Y-15971657D01*
X7246936Y-15838324D02*
X7246936Y-15876419D01*
X7323127Y-15838324D02*
X7323127Y-15876419D01*
X7618365Y-16114514D02*
X7608841Y-16104990D01*
X7608841Y-16104990D02*
X7589794Y-16076419D01*
X7589794Y-16076419D02*
X7580270Y-16057371D01*
X7580270Y-16057371D02*
X7570746Y-16028800D01*
X7570746Y-16028800D02*
X7561222Y-15981181D01*
X7561222Y-15981181D02*
X7561222Y-15943086D01*
X7561222Y-15943086D02*
X7570746Y-15895467D01*
X7570746Y-15895467D02*
X7580270Y-15866895D01*
X7580270Y-15866895D02*
X7589794Y-15847848D01*
X7589794Y-15847848D02*
X7608841Y-15819276D01*
X7608841Y-15819276D02*
X7618365Y-15809752D01*
X7675508Y-15838324D02*
X7799317Y-15838324D01*
X7799317Y-15838324D02*
X7732651Y-15914514D01*
X7732651Y-15914514D02*
X7761222Y-15914514D01*
X7761222Y-15914514D02*
X7780270Y-15924038D01*
X7780270Y-15924038D02*
X7789794Y-15933562D01*
X7789794Y-15933562D02*
X7799317Y-15952609D01*
X7799317Y-15952609D02*
X7799317Y-16000228D01*
X7799317Y-16000228D02*
X7789794Y-16019276D01*
X7789794Y-16019276D02*
X7780270Y-16028800D01*
X7780270Y-16028800D02*
X7761222Y-16038324D01*
X7761222Y-16038324D02*
X7704079Y-16038324D01*
X7704079Y-16038324D02*
X7685032Y-16028800D01*
X7685032Y-16028800D02*
X7675508Y-16019276D01*
X7980270Y-15838324D02*
X7885032Y-15838324D01*
X7885032Y-15838324D02*
X7875508Y-15933562D01*
X7875508Y-15933562D02*
X7885032Y-15924038D01*
X7885032Y-15924038D02*
X7904079Y-15914514D01*
X7904079Y-15914514D02*
X7951698Y-15914514D01*
X7951698Y-15914514D02*
X7970746Y-15924038D01*
X7970746Y-15924038D02*
X7980270Y-15933562D01*
X7980270Y-15933562D02*
X7989794Y-15952609D01*
X7989794Y-15952609D02*
X7989794Y-16000228D01*
X7989794Y-16000228D02*
X7980270Y-16019276D01*
X7980270Y-16019276D02*
X7970746Y-16028800D01*
X7970746Y-16028800D02*
X7951698Y-16038324D01*
X7951698Y-16038324D02*
X7904079Y-16038324D01*
X7904079Y-16038324D02*
X7885032Y-16028800D01*
X7885032Y-16028800D02*
X7875508Y-16019276D01*
X8227889Y-16038324D02*
X8227889Y-15838324D01*
X8313603Y-16038324D02*
X8313603Y-15933562D01*
X8313603Y-15933562D02*
X8304079Y-15914514D01*
X8304079Y-15914514D02*
X8285032Y-15904990D01*
X8285032Y-15904990D02*
X8256460Y-15904990D01*
X8256460Y-15904990D02*
X8237413Y-15914514D01*
X8237413Y-15914514D02*
X8227889Y-15924038D01*
X8437413Y-16038324D02*
X8418365Y-16028800D01*
X8418365Y-16028800D02*
X8408841Y-16019276D01*
X8408841Y-16019276D02*
X8399318Y-16000228D01*
X8399318Y-16000228D02*
X8399318Y-15943086D01*
X8399318Y-15943086D02*
X8408841Y-15924038D01*
X8408841Y-15924038D02*
X8418365Y-15914514D01*
X8418365Y-15914514D02*
X8437413Y-15904990D01*
X8437413Y-15904990D02*
X8465984Y-15904990D01*
X8465984Y-15904990D02*
X8485032Y-15914514D01*
X8485032Y-15914514D02*
X8494556Y-15924038D01*
X8494556Y-15924038D02*
X8504079Y-15943086D01*
X8504079Y-15943086D02*
X8504079Y-16000228D01*
X8504079Y-16000228D02*
X8494556Y-16019276D01*
X8494556Y-16019276D02*
X8485032Y-16028800D01*
X8485032Y-16028800D02*
X8465984Y-16038324D01*
X8465984Y-16038324D02*
X8437413Y-16038324D01*
X8618365Y-16038324D02*
X8599318Y-16028800D01*
X8599318Y-16028800D02*
X8589794Y-16009752D01*
X8589794Y-16009752D02*
X8589794Y-15838324D01*
X8770746Y-16028800D02*
X8751699Y-16038324D01*
X8751699Y-16038324D02*
X8713603Y-16038324D01*
X8713603Y-16038324D02*
X8694556Y-16028800D01*
X8694556Y-16028800D02*
X8685032Y-16009752D01*
X8685032Y-16009752D02*
X8685032Y-15933562D01*
X8685032Y-15933562D02*
X8694556Y-15914514D01*
X8694556Y-15914514D02*
X8713603Y-15904990D01*
X8713603Y-15904990D02*
X8751699Y-15904990D01*
X8751699Y-15904990D02*
X8770746Y-15914514D01*
X8770746Y-15914514D02*
X8780270Y-15933562D01*
X8780270Y-15933562D02*
X8780270Y-15952609D01*
X8780270Y-15952609D02*
X8685032Y-15971657D01*
X8856460Y-16028800D02*
X8875508Y-16038324D01*
X8875508Y-16038324D02*
X8913603Y-16038324D01*
X8913603Y-16038324D02*
X8932651Y-16028800D01*
X8932651Y-16028800D02*
X8942175Y-16009752D01*
X8942175Y-16009752D02*
X8942175Y-16000228D01*
X8942175Y-16000228D02*
X8932651Y-15981181D01*
X8932651Y-15981181D02*
X8913603Y-15971657D01*
X8913603Y-15971657D02*
X8885032Y-15971657D01*
X8885032Y-15971657D02*
X8865984Y-15962133D01*
X8865984Y-15962133D02*
X8856460Y-15943086D01*
X8856460Y-15943086D02*
X8856460Y-15933562D01*
X8856460Y-15933562D02*
X8865984Y-15914514D01*
X8865984Y-15914514D02*
X8885032Y-15904990D01*
X8885032Y-15904990D02*
X8913603Y-15904990D01*
X8913603Y-15904990D02*
X8932651Y-15914514D01*
X9008841Y-16114514D02*
X9018365Y-16104990D01*
X9018365Y-16104990D02*
X9037413Y-16076419D01*
X9037413Y-16076419D02*
X9046937Y-16057371D01*
X9046937Y-16057371D02*
X9056460Y-16028800D01*
X9056460Y-16028800D02*
X9065984Y-15981181D01*
X9065984Y-15981181D02*
X9065984Y-15943086D01*
X9065984Y-15943086D02*
X9056460Y-15895467D01*
X9056460Y-15895467D02*
X9046937Y-15866895D01*
X9046937Y-15866895D02*
X9037413Y-15847848D01*
X9037413Y-15847848D02*
X9018365Y-15819276D01*
X9018365Y-15819276D02*
X9008841Y-15809752D01*
D15*
X4005460Y-16260800D02*
X4056460Y-16209800D01*
X4005460Y-16158800D01*
X3954460Y-16209800D01*
X4005460Y-16260800D01*
D11*
X4408841Y-16302324D02*
X4294555Y-16302324D01*
X4351698Y-16302324D02*
X4351698Y-16102324D01*
X4351698Y-16102324D02*
X4332650Y-16130895D01*
X4332650Y-16130895D02*
X4313603Y-16149943D01*
X4313603Y-16149943D02*
X4294555Y-16159467D01*
X4494555Y-16283276D02*
X4504079Y-16292800D01*
X4504079Y-16292800D02*
X4494555Y-16302324D01*
X4494555Y-16302324D02*
X4485031Y-16292800D01*
X4485031Y-16292800D02*
X4494555Y-16283276D01*
X4494555Y-16283276D02*
X4494555Y-16302324D01*
X4627889Y-16102324D02*
X4646936Y-16102324D01*
X4646936Y-16102324D02*
X4665984Y-16111848D01*
X4665984Y-16111848D02*
X4675508Y-16121371D01*
X4675508Y-16121371D02*
X4685031Y-16140419D01*
X4685031Y-16140419D02*
X4694555Y-16178514D01*
X4694555Y-16178514D02*
X4694555Y-16226133D01*
X4694555Y-16226133D02*
X4685031Y-16264228D01*
X4685031Y-16264228D02*
X4675508Y-16283276D01*
X4675508Y-16283276D02*
X4665984Y-16292800D01*
X4665984Y-16292800D02*
X4646936Y-16302324D01*
X4646936Y-16302324D02*
X4627889Y-16302324D01*
X4627889Y-16302324D02*
X4608841Y-16292800D01*
X4608841Y-16292800D02*
X4599317Y-16283276D01*
X4599317Y-16283276D02*
X4589793Y-16264228D01*
X4589793Y-16264228D02*
X4580270Y-16226133D01*
X4580270Y-16226133D02*
X4580270Y-16178514D01*
X4580270Y-16178514D02*
X4589793Y-16140419D01*
X4589793Y-16140419D02*
X4599317Y-16121371D01*
X4599317Y-16121371D02*
X4608841Y-16111848D01*
X4608841Y-16111848D02*
X4627889Y-16102324D01*
X4770746Y-16121371D02*
X4780270Y-16111848D01*
X4780270Y-16111848D02*
X4799317Y-16102324D01*
X4799317Y-16102324D02*
X4846936Y-16102324D01*
X4846936Y-16102324D02*
X4865984Y-16111848D01*
X4865984Y-16111848D02*
X4875508Y-16121371D01*
X4875508Y-16121371D02*
X4885031Y-16140419D01*
X4885031Y-16140419D02*
X4885031Y-16159467D01*
X4885031Y-16159467D02*
X4875508Y-16188038D01*
X4875508Y-16188038D02*
X4761222Y-16302324D01*
X4761222Y-16302324D02*
X4885031Y-16302324D01*
X5008841Y-16102324D02*
X5027889Y-16102324D01*
X5027889Y-16102324D02*
X5046936Y-16111848D01*
X5046936Y-16111848D02*
X5056460Y-16121371D01*
X5056460Y-16121371D02*
X5065984Y-16140419D01*
X5065984Y-16140419D02*
X5075508Y-16178514D01*
X5075508Y-16178514D02*
X5075508Y-16226133D01*
X5075508Y-16226133D02*
X5065984Y-16264228D01*
X5065984Y-16264228D02*
X5056460Y-16283276D01*
X5056460Y-16283276D02*
X5046936Y-16292800D01*
X5046936Y-16292800D02*
X5027889Y-16302324D01*
X5027889Y-16302324D02*
X5008841Y-16302324D01*
X5008841Y-16302324D02*
X4989793Y-16292800D01*
X4989793Y-16292800D02*
X4980270Y-16283276D01*
X4980270Y-16283276D02*
X4970746Y-16264228D01*
X4970746Y-16264228D02*
X4961222Y-16226133D01*
X4961222Y-16226133D02*
X4961222Y-16178514D01*
X4961222Y-16178514D02*
X4970746Y-16140419D01*
X4970746Y-16140419D02*
X4980270Y-16121371D01*
X4980270Y-16121371D02*
X4989793Y-16111848D01*
X4989793Y-16111848D02*
X5008841Y-16102324D01*
X5161222Y-16302324D02*
X5161222Y-16168990D01*
X5161222Y-16188038D02*
X5170746Y-16178514D01*
X5170746Y-16178514D02*
X5189793Y-16168990D01*
X5189793Y-16168990D02*
X5218365Y-16168990D01*
X5218365Y-16168990D02*
X5237412Y-16178514D01*
X5237412Y-16178514D02*
X5246936Y-16197562D01*
X5246936Y-16197562D02*
X5246936Y-16302324D01*
X5246936Y-16197562D02*
X5256460Y-16178514D01*
X5256460Y-16178514D02*
X5275508Y-16168990D01*
X5275508Y-16168990D02*
X5304079Y-16168990D01*
X5304079Y-16168990D02*
X5323127Y-16178514D01*
X5323127Y-16178514D02*
X5332651Y-16197562D01*
X5332651Y-16197562D02*
X5332651Y-16302324D01*
X5427889Y-16302324D02*
X5427889Y-16168990D01*
X5427889Y-16188038D02*
X5437412Y-16178514D01*
X5437412Y-16178514D02*
X5456460Y-16168990D01*
X5456460Y-16168990D02*
X5485032Y-16168990D01*
X5485032Y-16168990D02*
X5504079Y-16178514D01*
X5504079Y-16178514D02*
X5513603Y-16197562D01*
X5513603Y-16197562D02*
X5513603Y-16302324D01*
X5513603Y-16197562D02*
X5523127Y-16178514D01*
X5523127Y-16178514D02*
X5542174Y-16168990D01*
X5542174Y-16168990D02*
X5570746Y-16168990D01*
X5570746Y-16168990D02*
X5589793Y-16178514D01*
X5589793Y-16178514D02*
X5599317Y-16197562D01*
X5599317Y-16197562D02*
X5599317Y-16302324D01*
X5989793Y-16092800D02*
X5818365Y-16349943D01*
X6246936Y-16102324D02*
X6265984Y-16102324D01*
X6265984Y-16102324D02*
X6285032Y-16111848D01*
X6285032Y-16111848D02*
X6294555Y-16121371D01*
X6294555Y-16121371D02*
X6304079Y-16140419D01*
X6304079Y-16140419D02*
X6313603Y-16178514D01*
X6313603Y-16178514D02*
X6313603Y-16226133D01*
X6313603Y-16226133D02*
X6304079Y-16264228D01*
X6304079Y-16264228D02*
X6294555Y-16283276D01*
X6294555Y-16283276D02*
X6285032Y-16292800D01*
X6285032Y-16292800D02*
X6265984Y-16302324D01*
X6265984Y-16302324D02*
X6246936Y-16302324D01*
X6246936Y-16302324D02*
X6227889Y-16292800D01*
X6227889Y-16292800D02*
X6218365Y-16283276D01*
X6218365Y-16283276D02*
X6208841Y-16264228D01*
X6208841Y-16264228D02*
X6199317Y-16226133D01*
X6199317Y-16226133D02*
X6199317Y-16178514D01*
X6199317Y-16178514D02*
X6208841Y-16140419D01*
X6208841Y-16140419D02*
X6218365Y-16121371D01*
X6218365Y-16121371D02*
X6227889Y-16111848D01*
X6227889Y-16111848D02*
X6246936Y-16102324D01*
X6399317Y-16283276D02*
X6408841Y-16292800D01*
X6408841Y-16292800D02*
X6399317Y-16302324D01*
X6399317Y-16302324D02*
X6389793Y-16292800D01*
X6389793Y-16292800D02*
X6399317Y-16283276D01*
X6399317Y-16283276D02*
X6399317Y-16302324D01*
X6532651Y-16102324D02*
X6551698Y-16102324D01*
X6551698Y-16102324D02*
X6570746Y-16111848D01*
X6570746Y-16111848D02*
X6580270Y-16121371D01*
X6580270Y-16121371D02*
X6589793Y-16140419D01*
X6589793Y-16140419D02*
X6599317Y-16178514D01*
X6599317Y-16178514D02*
X6599317Y-16226133D01*
X6599317Y-16226133D02*
X6589793Y-16264228D01*
X6589793Y-16264228D02*
X6580270Y-16283276D01*
X6580270Y-16283276D02*
X6570746Y-16292800D01*
X6570746Y-16292800D02*
X6551698Y-16302324D01*
X6551698Y-16302324D02*
X6532651Y-16302324D01*
X6532651Y-16302324D02*
X6513603Y-16292800D01*
X6513603Y-16292800D02*
X6504079Y-16283276D01*
X6504079Y-16283276D02*
X6494555Y-16264228D01*
X6494555Y-16264228D02*
X6485032Y-16226133D01*
X6485032Y-16226133D02*
X6485032Y-16178514D01*
X6485032Y-16178514D02*
X6494555Y-16140419D01*
X6494555Y-16140419D02*
X6504079Y-16121371D01*
X6504079Y-16121371D02*
X6513603Y-16111848D01*
X6513603Y-16111848D02*
X6532651Y-16102324D01*
X6770746Y-16168990D02*
X6770746Y-16302324D01*
X6723127Y-16092800D02*
X6675508Y-16235657D01*
X6675508Y-16235657D02*
X6799317Y-16235657D01*
X6913603Y-16102324D02*
X6932651Y-16102324D01*
X6932651Y-16102324D02*
X6951698Y-16111848D01*
X6951698Y-16111848D02*
X6961222Y-16121371D01*
X6961222Y-16121371D02*
X6970746Y-16140419D01*
X6970746Y-16140419D02*
X6980270Y-16178514D01*
X6980270Y-16178514D02*
X6980270Y-16226133D01*
X6980270Y-16226133D02*
X6970746Y-16264228D01*
X6970746Y-16264228D02*
X6961222Y-16283276D01*
X6961222Y-16283276D02*
X6951698Y-16292800D01*
X6951698Y-16292800D02*
X6932651Y-16302324D01*
X6932651Y-16302324D02*
X6913603Y-16302324D01*
X6913603Y-16302324D02*
X6894555Y-16292800D01*
X6894555Y-16292800D02*
X6885032Y-16283276D01*
X6885032Y-16283276D02*
X6875508Y-16264228D01*
X6875508Y-16264228D02*
X6865984Y-16226133D01*
X6865984Y-16226133D02*
X6865984Y-16178514D01*
X6865984Y-16178514D02*
X6875508Y-16140419D01*
X6875508Y-16140419D02*
X6885032Y-16121371D01*
X6885032Y-16121371D02*
X6894555Y-16111848D01*
X6894555Y-16111848D02*
X6913603Y-16102324D01*
X7056460Y-16121371D02*
X7065984Y-16111848D01*
X7065984Y-16111848D02*
X7085032Y-16102324D01*
X7085032Y-16102324D02*
X7132651Y-16102324D01*
X7132651Y-16102324D02*
X7151698Y-16111848D01*
X7151698Y-16111848D02*
X7161222Y-16121371D01*
X7161222Y-16121371D02*
X7170746Y-16140419D01*
X7170746Y-16140419D02*
X7170746Y-16159467D01*
X7170746Y-16159467D02*
X7161222Y-16188038D01*
X7161222Y-16188038D02*
X7046936Y-16302324D01*
X7046936Y-16302324D02*
X7170746Y-16302324D01*
X7246936Y-16102324D02*
X7246936Y-16140419D01*
X7323127Y-16102324D02*
X7323127Y-16140419D01*
X7618365Y-16378514D02*
X7608841Y-16368990D01*
X7608841Y-16368990D02*
X7589794Y-16340419D01*
X7589794Y-16340419D02*
X7580270Y-16321371D01*
X7580270Y-16321371D02*
X7570746Y-16292800D01*
X7570746Y-16292800D02*
X7561222Y-16245181D01*
X7561222Y-16245181D02*
X7561222Y-16207086D01*
X7561222Y-16207086D02*
X7570746Y-16159467D01*
X7570746Y-16159467D02*
X7580270Y-16130895D01*
X7580270Y-16130895D02*
X7589794Y-16111848D01*
X7589794Y-16111848D02*
X7608841Y-16083276D01*
X7608841Y-16083276D02*
X7618365Y-16073752D01*
X7704079Y-16302324D02*
X7742174Y-16302324D01*
X7742174Y-16302324D02*
X7761222Y-16292800D01*
X7761222Y-16292800D02*
X7770746Y-16283276D01*
X7770746Y-16283276D02*
X7789794Y-16254705D01*
X7789794Y-16254705D02*
X7799317Y-16216609D01*
X7799317Y-16216609D02*
X7799317Y-16140419D01*
X7799317Y-16140419D02*
X7789794Y-16121371D01*
X7789794Y-16121371D02*
X7780270Y-16111848D01*
X7780270Y-16111848D02*
X7761222Y-16102324D01*
X7761222Y-16102324D02*
X7723127Y-16102324D01*
X7723127Y-16102324D02*
X7704079Y-16111848D01*
X7704079Y-16111848D02*
X7694555Y-16121371D01*
X7694555Y-16121371D02*
X7685032Y-16140419D01*
X7685032Y-16140419D02*
X7685032Y-16188038D01*
X7685032Y-16188038D02*
X7694555Y-16207086D01*
X7694555Y-16207086D02*
X7704079Y-16216609D01*
X7704079Y-16216609D02*
X7723127Y-16226133D01*
X7723127Y-16226133D02*
X7761222Y-16226133D01*
X7761222Y-16226133D02*
X7780270Y-16216609D01*
X7780270Y-16216609D02*
X7789794Y-16207086D01*
X7789794Y-16207086D02*
X7799317Y-16188038D01*
X8037413Y-16302324D02*
X8037413Y-16102324D01*
X8123127Y-16302324D02*
X8123127Y-16197562D01*
X8123127Y-16197562D02*
X8113603Y-16178514D01*
X8113603Y-16178514D02*
X8094556Y-16168990D01*
X8094556Y-16168990D02*
X8065984Y-16168990D01*
X8065984Y-16168990D02*
X8046936Y-16178514D01*
X8046936Y-16178514D02*
X8037413Y-16188038D01*
X8246936Y-16302324D02*
X8227889Y-16292800D01*
X8227889Y-16292800D02*
X8218365Y-16283276D01*
X8218365Y-16283276D02*
X8208841Y-16264228D01*
X8208841Y-16264228D02*
X8208841Y-16207086D01*
X8208841Y-16207086D02*
X8218365Y-16188038D01*
X8218365Y-16188038D02*
X8227889Y-16178514D01*
X8227889Y-16178514D02*
X8246936Y-16168990D01*
X8246936Y-16168990D02*
X8275508Y-16168990D01*
X8275508Y-16168990D02*
X8294556Y-16178514D01*
X8294556Y-16178514D02*
X8304079Y-16188038D01*
X8304079Y-16188038D02*
X8313603Y-16207086D01*
X8313603Y-16207086D02*
X8313603Y-16264228D01*
X8313603Y-16264228D02*
X8304079Y-16283276D01*
X8304079Y-16283276D02*
X8294556Y-16292800D01*
X8294556Y-16292800D02*
X8275508Y-16302324D01*
X8275508Y-16302324D02*
X8246936Y-16302324D01*
X8427889Y-16302324D02*
X8408841Y-16292800D01*
X8408841Y-16292800D02*
X8399318Y-16273752D01*
X8399318Y-16273752D02*
X8399318Y-16102324D01*
X8580270Y-16292800D02*
X8561222Y-16302324D01*
X8561222Y-16302324D02*
X8523127Y-16302324D01*
X8523127Y-16302324D02*
X8504079Y-16292800D01*
X8504079Y-16292800D02*
X8494556Y-16273752D01*
X8494556Y-16273752D02*
X8494556Y-16197562D01*
X8494556Y-16197562D02*
X8504079Y-16178514D01*
X8504079Y-16178514D02*
X8523127Y-16168990D01*
X8523127Y-16168990D02*
X8561222Y-16168990D01*
X8561222Y-16168990D02*
X8580270Y-16178514D01*
X8580270Y-16178514D02*
X8589794Y-16197562D01*
X8589794Y-16197562D02*
X8589794Y-16216609D01*
X8589794Y-16216609D02*
X8494556Y-16235657D01*
X8665984Y-16292800D02*
X8685032Y-16302324D01*
X8685032Y-16302324D02*
X8723127Y-16302324D01*
X8723127Y-16302324D02*
X8742175Y-16292800D01*
X8742175Y-16292800D02*
X8751699Y-16273752D01*
X8751699Y-16273752D02*
X8751699Y-16264228D01*
X8751699Y-16264228D02*
X8742175Y-16245181D01*
X8742175Y-16245181D02*
X8723127Y-16235657D01*
X8723127Y-16235657D02*
X8694556Y-16235657D01*
X8694556Y-16235657D02*
X8675508Y-16226133D01*
X8675508Y-16226133D02*
X8665984Y-16207086D01*
X8665984Y-16207086D02*
X8665984Y-16197562D01*
X8665984Y-16197562D02*
X8675508Y-16178514D01*
X8675508Y-16178514D02*
X8694556Y-16168990D01*
X8694556Y-16168990D02*
X8723127Y-16168990D01*
X8723127Y-16168990D02*
X8742175Y-16178514D01*
X8818365Y-16378514D02*
X8827889Y-16368990D01*
X8827889Y-16368990D02*
X8846937Y-16340419D01*
X8846937Y-16340419D02*
X8856460Y-16321371D01*
X8856460Y-16321371D02*
X8865984Y-16292800D01*
X8865984Y-16292800D02*
X8875508Y-16245181D01*
X8875508Y-16245181D02*
X8875508Y-16207086D01*
X8875508Y-16207086D02*
X8865984Y-16159467D01*
X8865984Y-16159467D02*
X8856460Y-16130895D01*
X8856460Y-16130895D02*
X8846937Y-16111848D01*
X8846937Y-16111848D02*
X8827889Y-16083276D01*
X8827889Y-16083276D02*
X8818365Y-16073752D01*
D16*
X3936460Y-16413800D02*
X4056460Y-16533800D01*
X4056460Y-16413800D02*
X3936460Y-16533800D01*
X4056460Y-16473800D02*
G75*
G03*
X4056460Y-16473800I-60000J0D01*
G01*
D11*
X4408841Y-16566324D02*
X4294555Y-16566324D01*
X4351698Y-16566324D02*
X4351698Y-16366324D01*
X4351698Y-16366324D02*
X4332650Y-16394895D01*
X4332650Y-16394895D02*
X4313603Y-16413943D01*
X4313603Y-16413943D02*
X4294555Y-16423467D01*
X4494555Y-16547276D02*
X4504079Y-16556800D01*
X4504079Y-16556800D02*
X4494555Y-16566324D01*
X4494555Y-16566324D02*
X4485031Y-16556800D01*
X4485031Y-16556800D02*
X4494555Y-16547276D01*
X4494555Y-16547276D02*
X4494555Y-16566324D01*
X4580270Y-16385371D02*
X4589793Y-16375848D01*
X4589793Y-16375848D02*
X4608841Y-16366324D01*
X4608841Y-16366324D02*
X4656460Y-16366324D01*
X4656460Y-16366324D02*
X4675508Y-16375848D01*
X4675508Y-16375848D02*
X4685031Y-16385371D01*
X4685031Y-16385371D02*
X4694555Y-16404419D01*
X4694555Y-16404419D02*
X4694555Y-16423467D01*
X4694555Y-16423467D02*
X4685031Y-16452038D01*
X4685031Y-16452038D02*
X4570746Y-16566324D01*
X4570746Y-16566324D02*
X4694555Y-16566324D01*
X4818365Y-16366324D02*
X4837412Y-16366324D01*
X4837412Y-16366324D02*
X4856460Y-16375848D01*
X4856460Y-16375848D02*
X4865984Y-16385371D01*
X4865984Y-16385371D02*
X4875508Y-16404419D01*
X4875508Y-16404419D02*
X4885031Y-16442514D01*
X4885031Y-16442514D02*
X4885031Y-16490133D01*
X4885031Y-16490133D02*
X4875508Y-16528228D01*
X4875508Y-16528228D02*
X4865984Y-16547276D01*
X4865984Y-16547276D02*
X4856460Y-16556800D01*
X4856460Y-16556800D02*
X4837412Y-16566324D01*
X4837412Y-16566324D02*
X4818365Y-16566324D01*
X4818365Y-16566324D02*
X4799317Y-16556800D01*
X4799317Y-16556800D02*
X4789793Y-16547276D01*
X4789793Y-16547276D02*
X4780270Y-16528228D01*
X4780270Y-16528228D02*
X4770746Y-16490133D01*
X4770746Y-16490133D02*
X4770746Y-16442514D01*
X4770746Y-16442514D02*
X4780270Y-16404419D01*
X4780270Y-16404419D02*
X4789793Y-16385371D01*
X4789793Y-16385371D02*
X4799317Y-16375848D01*
X4799317Y-16375848D02*
X4818365Y-16366324D01*
X5008841Y-16366324D02*
X5027889Y-16366324D01*
X5027889Y-16366324D02*
X5046936Y-16375848D01*
X5046936Y-16375848D02*
X5056460Y-16385371D01*
X5056460Y-16385371D02*
X5065984Y-16404419D01*
X5065984Y-16404419D02*
X5075508Y-16442514D01*
X5075508Y-16442514D02*
X5075508Y-16490133D01*
X5075508Y-16490133D02*
X5065984Y-16528228D01*
X5065984Y-16528228D02*
X5056460Y-16547276D01*
X5056460Y-16547276D02*
X5046936Y-16556800D01*
X5046936Y-16556800D02*
X5027889Y-16566324D01*
X5027889Y-16566324D02*
X5008841Y-16566324D01*
X5008841Y-16566324D02*
X4989793Y-16556800D01*
X4989793Y-16556800D02*
X4980270Y-16547276D01*
X4980270Y-16547276D02*
X4970746Y-16528228D01*
X4970746Y-16528228D02*
X4961222Y-16490133D01*
X4961222Y-16490133D02*
X4961222Y-16442514D01*
X4961222Y-16442514D02*
X4970746Y-16404419D01*
X4970746Y-16404419D02*
X4980270Y-16385371D01*
X4980270Y-16385371D02*
X4989793Y-16375848D01*
X4989793Y-16375848D02*
X5008841Y-16366324D01*
X5161222Y-16566324D02*
X5161222Y-16432990D01*
X5161222Y-16452038D02*
X5170746Y-16442514D01*
X5170746Y-16442514D02*
X5189793Y-16432990D01*
X5189793Y-16432990D02*
X5218365Y-16432990D01*
X5218365Y-16432990D02*
X5237412Y-16442514D01*
X5237412Y-16442514D02*
X5246936Y-16461562D01*
X5246936Y-16461562D02*
X5246936Y-16566324D01*
X5246936Y-16461562D02*
X5256460Y-16442514D01*
X5256460Y-16442514D02*
X5275508Y-16432990D01*
X5275508Y-16432990D02*
X5304079Y-16432990D01*
X5304079Y-16432990D02*
X5323127Y-16442514D01*
X5323127Y-16442514D02*
X5332651Y-16461562D01*
X5332651Y-16461562D02*
X5332651Y-16566324D01*
X5427889Y-16566324D02*
X5427889Y-16432990D01*
X5427889Y-16452038D02*
X5437412Y-16442514D01*
X5437412Y-16442514D02*
X5456460Y-16432990D01*
X5456460Y-16432990D02*
X5485032Y-16432990D01*
X5485032Y-16432990D02*
X5504079Y-16442514D01*
X5504079Y-16442514D02*
X5513603Y-16461562D01*
X5513603Y-16461562D02*
X5513603Y-16566324D01*
X5513603Y-16461562D02*
X5523127Y-16442514D01*
X5523127Y-16442514D02*
X5542174Y-16432990D01*
X5542174Y-16432990D02*
X5570746Y-16432990D01*
X5570746Y-16432990D02*
X5589793Y-16442514D01*
X5589793Y-16442514D02*
X5599317Y-16461562D01*
X5599317Y-16461562D02*
X5599317Y-16566324D01*
X5989793Y-16356800D02*
X5818365Y-16613943D01*
X6246936Y-16366324D02*
X6265984Y-16366324D01*
X6265984Y-16366324D02*
X6285032Y-16375848D01*
X6285032Y-16375848D02*
X6294555Y-16385371D01*
X6294555Y-16385371D02*
X6304079Y-16404419D01*
X6304079Y-16404419D02*
X6313603Y-16442514D01*
X6313603Y-16442514D02*
X6313603Y-16490133D01*
X6313603Y-16490133D02*
X6304079Y-16528228D01*
X6304079Y-16528228D02*
X6294555Y-16547276D01*
X6294555Y-16547276D02*
X6285032Y-16556800D01*
X6285032Y-16556800D02*
X6265984Y-16566324D01*
X6265984Y-16566324D02*
X6246936Y-16566324D01*
X6246936Y-16566324D02*
X6227889Y-16556800D01*
X6227889Y-16556800D02*
X6218365Y-16547276D01*
X6218365Y-16547276D02*
X6208841Y-16528228D01*
X6208841Y-16528228D02*
X6199317Y-16490133D01*
X6199317Y-16490133D02*
X6199317Y-16442514D01*
X6199317Y-16442514D02*
X6208841Y-16404419D01*
X6208841Y-16404419D02*
X6218365Y-16385371D01*
X6218365Y-16385371D02*
X6227889Y-16375848D01*
X6227889Y-16375848D02*
X6246936Y-16366324D01*
X6399317Y-16547276D02*
X6408841Y-16556800D01*
X6408841Y-16556800D02*
X6399317Y-16566324D01*
X6399317Y-16566324D02*
X6389793Y-16556800D01*
X6389793Y-16556800D02*
X6399317Y-16547276D01*
X6399317Y-16547276D02*
X6399317Y-16566324D01*
X6532651Y-16366324D02*
X6551698Y-16366324D01*
X6551698Y-16366324D02*
X6570746Y-16375848D01*
X6570746Y-16375848D02*
X6580270Y-16385371D01*
X6580270Y-16385371D02*
X6589793Y-16404419D01*
X6589793Y-16404419D02*
X6599317Y-16442514D01*
X6599317Y-16442514D02*
X6599317Y-16490133D01*
X6599317Y-16490133D02*
X6589793Y-16528228D01*
X6589793Y-16528228D02*
X6580270Y-16547276D01*
X6580270Y-16547276D02*
X6570746Y-16556800D01*
X6570746Y-16556800D02*
X6551698Y-16566324D01*
X6551698Y-16566324D02*
X6532651Y-16566324D01*
X6532651Y-16566324D02*
X6513603Y-16556800D01*
X6513603Y-16556800D02*
X6504079Y-16547276D01*
X6504079Y-16547276D02*
X6494555Y-16528228D01*
X6494555Y-16528228D02*
X6485032Y-16490133D01*
X6485032Y-16490133D02*
X6485032Y-16442514D01*
X6485032Y-16442514D02*
X6494555Y-16404419D01*
X6494555Y-16404419D02*
X6504079Y-16385371D01*
X6504079Y-16385371D02*
X6513603Y-16375848D01*
X6513603Y-16375848D02*
X6532651Y-16366324D01*
X6770746Y-16432990D02*
X6770746Y-16566324D01*
X6723127Y-16356800D02*
X6675508Y-16499657D01*
X6675508Y-16499657D02*
X6799317Y-16499657D01*
X6856460Y-16366324D02*
X6989793Y-16366324D01*
X6989793Y-16366324D02*
X6904079Y-16566324D01*
X7056460Y-16385371D02*
X7065984Y-16375848D01*
X7065984Y-16375848D02*
X7085032Y-16366324D01*
X7085032Y-16366324D02*
X7132651Y-16366324D01*
X7132651Y-16366324D02*
X7151698Y-16375848D01*
X7151698Y-16375848D02*
X7161222Y-16385371D01*
X7161222Y-16385371D02*
X7170746Y-16404419D01*
X7170746Y-16404419D02*
X7170746Y-16423467D01*
X7170746Y-16423467D02*
X7161222Y-16452038D01*
X7161222Y-16452038D02*
X7046936Y-16566324D01*
X7046936Y-16566324D02*
X7170746Y-16566324D01*
X7246936Y-16366324D02*
X7246936Y-16404419D01*
X7323127Y-16366324D02*
X7323127Y-16404419D01*
X7618365Y-16642514D02*
X7608841Y-16632990D01*
X7608841Y-16632990D02*
X7589794Y-16604419D01*
X7589794Y-16604419D02*
X7580270Y-16585371D01*
X7580270Y-16585371D02*
X7570746Y-16556800D01*
X7570746Y-16556800D02*
X7561222Y-16509181D01*
X7561222Y-16509181D02*
X7561222Y-16471086D01*
X7561222Y-16471086D02*
X7570746Y-16423467D01*
X7570746Y-16423467D02*
X7580270Y-16394895D01*
X7580270Y-16394895D02*
X7589794Y-16375848D01*
X7589794Y-16375848D02*
X7608841Y-16347276D01*
X7608841Y-16347276D02*
X7618365Y-16337752D01*
X7723127Y-16452038D02*
X7704079Y-16442514D01*
X7704079Y-16442514D02*
X7694555Y-16432990D01*
X7694555Y-16432990D02*
X7685032Y-16413943D01*
X7685032Y-16413943D02*
X7685032Y-16404419D01*
X7685032Y-16404419D02*
X7694555Y-16385371D01*
X7694555Y-16385371D02*
X7704079Y-16375848D01*
X7704079Y-16375848D02*
X7723127Y-16366324D01*
X7723127Y-16366324D02*
X7761222Y-16366324D01*
X7761222Y-16366324D02*
X7780270Y-16375848D01*
X7780270Y-16375848D02*
X7789794Y-16385371D01*
X7789794Y-16385371D02*
X7799317Y-16404419D01*
X7799317Y-16404419D02*
X7799317Y-16413943D01*
X7799317Y-16413943D02*
X7789794Y-16432990D01*
X7789794Y-16432990D02*
X7780270Y-16442514D01*
X7780270Y-16442514D02*
X7761222Y-16452038D01*
X7761222Y-16452038D02*
X7723127Y-16452038D01*
X7723127Y-16452038D02*
X7704079Y-16461562D01*
X7704079Y-16461562D02*
X7694555Y-16471086D01*
X7694555Y-16471086D02*
X7685032Y-16490133D01*
X7685032Y-16490133D02*
X7685032Y-16528228D01*
X7685032Y-16528228D02*
X7694555Y-16547276D01*
X7694555Y-16547276D02*
X7704079Y-16556800D01*
X7704079Y-16556800D02*
X7723127Y-16566324D01*
X7723127Y-16566324D02*
X7761222Y-16566324D01*
X7761222Y-16566324D02*
X7780270Y-16556800D01*
X7780270Y-16556800D02*
X7789794Y-16547276D01*
X7789794Y-16547276D02*
X7799317Y-16528228D01*
X7799317Y-16528228D02*
X7799317Y-16490133D01*
X7799317Y-16490133D02*
X7789794Y-16471086D01*
X7789794Y-16471086D02*
X7780270Y-16461562D01*
X7780270Y-16461562D02*
X7761222Y-16452038D01*
X8037413Y-16566324D02*
X8037413Y-16366324D01*
X8123127Y-16566324D02*
X8123127Y-16461562D01*
X8123127Y-16461562D02*
X8113603Y-16442514D01*
X8113603Y-16442514D02*
X8094556Y-16432990D01*
X8094556Y-16432990D02*
X8065984Y-16432990D01*
X8065984Y-16432990D02*
X8046936Y-16442514D01*
X8046936Y-16442514D02*
X8037413Y-16452038D01*
X8246936Y-16566324D02*
X8227889Y-16556800D01*
X8227889Y-16556800D02*
X8218365Y-16547276D01*
X8218365Y-16547276D02*
X8208841Y-16528228D01*
X8208841Y-16528228D02*
X8208841Y-16471086D01*
X8208841Y-16471086D02*
X8218365Y-16452038D01*
X8218365Y-16452038D02*
X8227889Y-16442514D01*
X8227889Y-16442514D02*
X8246936Y-16432990D01*
X8246936Y-16432990D02*
X8275508Y-16432990D01*
X8275508Y-16432990D02*
X8294556Y-16442514D01*
X8294556Y-16442514D02*
X8304079Y-16452038D01*
X8304079Y-16452038D02*
X8313603Y-16471086D01*
X8313603Y-16471086D02*
X8313603Y-16528228D01*
X8313603Y-16528228D02*
X8304079Y-16547276D01*
X8304079Y-16547276D02*
X8294556Y-16556800D01*
X8294556Y-16556800D02*
X8275508Y-16566324D01*
X8275508Y-16566324D02*
X8246936Y-16566324D01*
X8427889Y-16566324D02*
X8408841Y-16556800D01*
X8408841Y-16556800D02*
X8399318Y-16537752D01*
X8399318Y-16537752D02*
X8399318Y-16366324D01*
X8580270Y-16556800D02*
X8561222Y-16566324D01*
X8561222Y-16566324D02*
X8523127Y-16566324D01*
X8523127Y-16566324D02*
X8504079Y-16556800D01*
X8504079Y-16556800D02*
X8494556Y-16537752D01*
X8494556Y-16537752D02*
X8494556Y-16461562D01*
X8494556Y-16461562D02*
X8504079Y-16442514D01*
X8504079Y-16442514D02*
X8523127Y-16432990D01*
X8523127Y-16432990D02*
X8561222Y-16432990D01*
X8561222Y-16432990D02*
X8580270Y-16442514D01*
X8580270Y-16442514D02*
X8589794Y-16461562D01*
X8589794Y-16461562D02*
X8589794Y-16480609D01*
X8589794Y-16480609D02*
X8494556Y-16499657D01*
X8665984Y-16556800D02*
X8685032Y-16566324D01*
X8685032Y-16566324D02*
X8723127Y-16566324D01*
X8723127Y-16566324D02*
X8742175Y-16556800D01*
X8742175Y-16556800D02*
X8751699Y-16537752D01*
X8751699Y-16537752D02*
X8751699Y-16528228D01*
X8751699Y-16528228D02*
X8742175Y-16509181D01*
X8742175Y-16509181D02*
X8723127Y-16499657D01*
X8723127Y-16499657D02*
X8694556Y-16499657D01*
X8694556Y-16499657D02*
X8675508Y-16490133D01*
X8675508Y-16490133D02*
X8665984Y-16471086D01*
X8665984Y-16471086D02*
X8665984Y-16461562D01*
X8665984Y-16461562D02*
X8675508Y-16442514D01*
X8675508Y-16442514D02*
X8694556Y-16432990D01*
X8694556Y-16432990D02*
X8723127Y-16432990D01*
X8723127Y-16432990D02*
X8742175Y-16442514D01*
X8818365Y-16642514D02*
X8827889Y-16632990D01*
X8827889Y-16632990D02*
X8846937Y-16604419D01*
X8846937Y-16604419D02*
X8856460Y-16585371D01*
X8856460Y-16585371D02*
X8865984Y-16556800D01*
X8865984Y-16556800D02*
X8875508Y-16509181D01*
X8875508Y-16509181D02*
X8875508Y-16471086D01*
X8875508Y-16471086D02*
X8865984Y-16423467D01*
X8865984Y-16423467D02*
X8856460Y-16394895D01*
X8856460Y-16394895D02*
X8846937Y-16375848D01*
X8846937Y-16375848D02*
X8827889Y-16347276D01*
X8827889Y-16347276D02*
X8818365Y-16337752D01*
D17*
X3906460Y-16662800D02*
X4056460Y-16812800D01*
X4056460Y-16662800D02*
X3906460Y-16812800D01*
X3981460Y-16662800D02*
X3981460Y-16812800D01*
X3906460Y-16737800D02*
X4056460Y-16737800D01*
D11*
X4408841Y-16830324D02*
X4294555Y-16830324D01*
X4351698Y-16830324D02*
X4351698Y-16630324D01*
X4351698Y-16630324D02*
X4332650Y-16658895D01*
X4332650Y-16658895D02*
X4313603Y-16677943D01*
X4313603Y-16677943D02*
X4294555Y-16687467D01*
X4494555Y-16811276D02*
X4504079Y-16820800D01*
X4504079Y-16820800D02*
X4494555Y-16830324D01*
X4494555Y-16830324D02*
X4485031Y-16820800D01*
X4485031Y-16820800D02*
X4494555Y-16811276D01*
X4494555Y-16811276D02*
X4494555Y-16830324D01*
X4685031Y-16630324D02*
X4589793Y-16630324D01*
X4589793Y-16630324D02*
X4580270Y-16725562D01*
X4580270Y-16725562D02*
X4589793Y-16716038D01*
X4589793Y-16716038D02*
X4608841Y-16706514D01*
X4608841Y-16706514D02*
X4656460Y-16706514D01*
X4656460Y-16706514D02*
X4675508Y-16716038D01*
X4675508Y-16716038D02*
X4685031Y-16725562D01*
X4685031Y-16725562D02*
X4694555Y-16744609D01*
X4694555Y-16744609D02*
X4694555Y-16792229D01*
X4694555Y-16792229D02*
X4685031Y-16811276D01*
X4685031Y-16811276D02*
X4675508Y-16820800D01*
X4675508Y-16820800D02*
X4656460Y-16830324D01*
X4656460Y-16830324D02*
X4608841Y-16830324D01*
X4608841Y-16830324D02*
X4589793Y-16820800D01*
X4589793Y-16820800D02*
X4580270Y-16811276D01*
X4818365Y-16630324D02*
X4837412Y-16630324D01*
X4837412Y-16630324D02*
X4856460Y-16639848D01*
X4856460Y-16639848D02*
X4865984Y-16649371D01*
X4865984Y-16649371D02*
X4875508Y-16668419D01*
X4875508Y-16668419D02*
X4885031Y-16706514D01*
X4885031Y-16706514D02*
X4885031Y-16754133D01*
X4885031Y-16754133D02*
X4875508Y-16792229D01*
X4875508Y-16792229D02*
X4865984Y-16811276D01*
X4865984Y-16811276D02*
X4856460Y-16820800D01*
X4856460Y-16820800D02*
X4837412Y-16830324D01*
X4837412Y-16830324D02*
X4818365Y-16830324D01*
X4818365Y-16830324D02*
X4799317Y-16820800D01*
X4799317Y-16820800D02*
X4789793Y-16811276D01*
X4789793Y-16811276D02*
X4780270Y-16792229D01*
X4780270Y-16792229D02*
X4770746Y-16754133D01*
X4770746Y-16754133D02*
X4770746Y-16706514D01*
X4770746Y-16706514D02*
X4780270Y-16668419D01*
X4780270Y-16668419D02*
X4789793Y-16649371D01*
X4789793Y-16649371D02*
X4799317Y-16639848D01*
X4799317Y-16639848D02*
X4818365Y-16630324D01*
X5008841Y-16630324D02*
X5027889Y-16630324D01*
X5027889Y-16630324D02*
X5046936Y-16639848D01*
X5046936Y-16639848D02*
X5056460Y-16649371D01*
X5056460Y-16649371D02*
X5065984Y-16668419D01*
X5065984Y-16668419D02*
X5075508Y-16706514D01*
X5075508Y-16706514D02*
X5075508Y-16754133D01*
X5075508Y-16754133D02*
X5065984Y-16792229D01*
X5065984Y-16792229D02*
X5056460Y-16811276D01*
X5056460Y-16811276D02*
X5046936Y-16820800D01*
X5046936Y-16820800D02*
X5027889Y-16830324D01*
X5027889Y-16830324D02*
X5008841Y-16830324D01*
X5008841Y-16830324D02*
X4989793Y-16820800D01*
X4989793Y-16820800D02*
X4980270Y-16811276D01*
X4980270Y-16811276D02*
X4970746Y-16792229D01*
X4970746Y-16792229D02*
X4961222Y-16754133D01*
X4961222Y-16754133D02*
X4961222Y-16706514D01*
X4961222Y-16706514D02*
X4970746Y-16668419D01*
X4970746Y-16668419D02*
X4980270Y-16649371D01*
X4980270Y-16649371D02*
X4989793Y-16639848D01*
X4989793Y-16639848D02*
X5008841Y-16630324D01*
X5161222Y-16830324D02*
X5161222Y-16696990D01*
X5161222Y-16716038D02*
X5170746Y-16706514D01*
X5170746Y-16706514D02*
X5189793Y-16696990D01*
X5189793Y-16696990D02*
X5218365Y-16696990D01*
X5218365Y-16696990D02*
X5237412Y-16706514D01*
X5237412Y-16706514D02*
X5246936Y-16725562D01*
X5246936Y-16725562D02*
X5246936Y-16830324D01*
X5246936Y-16725562D02*
X5256460Y-16706514D01*
X5256460Y-16706514D02*
X5275508Y-16696990D01*
X5275508Y-16696990D02*
X5304079Y-16696990D01*
X5304079Y-16696990D02*
X5323127Y-16706514D01*
X5323127Y-16706514D02*
X5332651Y-16725562D01*
X5332651Y-16725562D02*
X5332651Y-16830324D01*
X5427889Y-16830324D02*
X5427889Y-16696990D01*
X5427889Y-16716038D02*
X5437412Y-16706514D01*
X5437412Y-16706514D02*
X5456460Y-16696990D01*
X5456460Y-16696990D02*
X5485032Y-16696990D01*
X5485032Y-16696990D02*
X5504079Y-16706514D01*
X5504079Y-16706514D02*
X5513603Y-16725562D01*
X5513603Y-16725562D02*
X5513603Y-16830324D01*
X5513603Y-16725562D02*
X5523127Y-16706514D01*
X5523127Y-16706514D02*
X5542174Y-16696990D01*
X5542174Y-16696990D02*
X5570746Y-16696990D01*
X5570746Y-16696990D02*
X5589793Y-16706514D01*
X5589793Y-16706514D02*
X5599317Y-16725562D01*
X5599317Y-16725562D02*
X5599317Y-16830324D01*
X5989793Y-16620800D02*
X5818365Y-16877943D01*
X6246936Y-16630324D02*
X6265984Y-16630324D01*
X6265984Y-16630324D02*
X6285032Y-16639848D01*
X6285032Y-16639848D02*
X6294555Y-16649371D01*
X6294555Y-16649371D02*
X6304079Y-16668419D01*
X6304079Y-16668419D02*
X6313603Y-16706514D01*
X6313603Y-16706514D02*
X6313603Y-16754133D01*
X6313603Y-16754133D02*
X6304079Y-16792229D01*
X6304079Y-16792229D02*
X6294555Y-16811276D01*
X6294555Y-16811276D02*
X6285032Y-16820800D01*
X6285032Y-16820800D02*
X6265984Y-16830324D01*
X6265984Y-16830324D02*
X6246936Y-16830324D01*
X6246936Y-16830324D02*
X6227889Y-16820800D01*
X6227889Y-16820800D02*
X6218365Y-16811276D01*
X6218365Y-16811276D02*
X6208841Y-16792229D01*
X6208841Y-16792229D02*
X6199317Y-16754133D01*
X6199317Y-16754133D02*
X6199317Y-16706514D01*
X6199317Y-16706514D02*
X6208841Y-16668419D01*
X6208841Y-16668419D02*
X6218365Y-16649371D01*
X6218365Y-16649371D02*
X6227889Y-16639848D01*
X6227889Y-16639848D02*
X6246936Y-16630324D01*
X6399317Y-16811276D02*
X6408841Y-16820800D01*
X6408841Y-16820800D02*
X6399317Y-16830324D01*
X6399317Y-16830324D02*
X6389793Y-16820800D01*
X6389793Y-16820800D02*
X6399317Y-16811276D01*
X6399317Y-16811276D02*
X6399317Y-16830324D01*
X6532651Y-16630324D02*
X6551698Y-16630324D01*
X6551698Y-16630324D02*
X6570746Y-16639848D01*
X6570746Y-16639848D02*
X6580270Y-16649371D01*
X6580270Y-16649371D02*
X6589793Y-16668419D01*
X6589793Y-16668419D02*
X6599317Y-16706514D01*
X6599317Y-16706514D02*
X6599317Y-16754133D01*
X6599317Y-16754133D02*
X6589793Y-16792229D01*
X6589793Y-16792229D02*
X6580270Y-16811276D01*
X6580270Y-16811276D02*
X6570746Y-16820800D01*
X6570746Y-16820800D02*
X6551698Y-16830324D01*
X6551698Y-16830324D02*
X6532651Y-16830324D01*
X6532651Y-16830324D02*
X6513603Y-16820800D01*
X6513603Y-16820800D02*
X6504079Y-16811276D01*
X6504079Y-16811276D02*
X6494555Y-16792229D01*
X6494555Y-16792229D02*
X6485032Y-16754133D01*
X6485032Y-16754133D02*
X6485032Y-16706514D01*
X6485032Y-16706514D02*
X6494555Y-16668419D01*
X6494555Y-16668419D02*
X6504079Y-16649371D01*
X6504079Y-16649371D02*
X6513603Y-16639848D01*
X6513603Y-16639848D02*
X6532651Y-16630324D01*
X6780270Y-16630324D02*
X6685032Y-16630324D01*
X6685032Y-16630324D02*
X6675508Y-16725562D01*
X6675508Y-16725562D02*
X6685032Y-16716038D01*
X6685032Y-16716038D02*
X6704079Y-16706514D01*
X6704079Y-16706514D02*
X6751698Y-16706514D01*
X6751698Y-16706514D02*
X6770746Y-16716038D01*
X6770746Y-16716038D02*
X6780270Y-16725562D01*
X6780270Y-16725562D02*
X6789793Y-16744609D01*
X6789793Y-16744609D02*
X6789793Y-16792229D01*
X6789793Y-16792229D02*
X6780270Y-16811276D01*
X6780270Y-16811276D02*
X6770746Y-16820800D01*
X6770746Y-16820800D02*
X6751698Y-16830324D01*
X6751698Y-16830324D02*
X6704079Y-16830324D01*
X6704079Y-16830324D02*
X6685032Y-16820800D01*
X6685032Y-16820800D02*
X6675508Y-16811276D01*
X6885032Y-16830324D02*
X6923127Y-16830324D01*
X6923127Y-16830324D02*
X6942174Y-16820800D01*
X6942174Y-16820800D02*
X6951698Y-16811276D01*
X6951698Y-16811276D02*
X6970746Y-16782705D01*
X6970746Y-16782705D02*
X6980270Y-16744609D01*
X6980270Y-16744609D02*
X6980270Y-16668419D01*
X6980270Y-16668419D02*
X6970746Y-16649371D01*
X6970746Y-16649371D02*
X6961222Y-16639848D01*
X6961222Y-16639848D02*
X6942174Y-16630324D01*
X6942174Y-16630324D02*
X6904079Y-16630324D01*
X6904079Y-16630324D02*
X6885032Y-16639848D01*
X6885032Y-16639848D02*
X6875508Y-16649371D01*
X6875508Y-16649371D02*
X6865984Y-16668419D01*
X6865984Y-16668419D02*
X6865984Y-16716038D01*
X6865984Y-16716038D02*
X6875508Y-16735086D01*
X6875508Y-16735086D02*
X6885032Y-16744609D01*
X6885032Y-16744609D02*
X6904079Y-16754133D01*
X6904079Y-16754133D02*
X6942174Y-16754133D01*
X6942174Y-16754133D02*
X6961222Y-16744609D01*
X6961222Y-16744609D02*
X6970746Y-16735086D01*
X6970746Y-16735086D02*
X6980270Y-16716038D01*
X7170746Y-16830324D02*
X7056460Y-16830324D01*
X7113603Y-16830324D02*
X7113603Y-16630324D01*
X7113603Y-16630324D02*
X7094555Y-16658895D01*
X7094555Y-16658895D02*
X7075508Y-16677943D01*
X7075508Y-16677943D02*
X7056460Y-16687467D01*
X7246936Y-16630324D02*
X7246936Y-16668419D01*
X7323127Y-16630324D02*
X7323127Y-16668419D01*
X7618365Y-16906514D02*
X7608841Y-16896990D01*
X7608841Y-16896990D02*
X7589794Y-16868419D01*
X7589794Y-16868419D02*
X7580270Y-16849371D01*
X7580270Y-16849371D02*
X7570746Y-16820800D01*
X7570746Y-16820800D02*
X7561222Y-16773181D01*
X7561222Y-16773181D02*
X7561222Y-16735086D01*
X7561222Y-16735086D02*
X7570746Y-16687467D01*
X7570746Y-16687467D02*
X7580270Y-16658895D01*
X7580270Y-16658895D02*
X7589794Y-16639848D01*
X7589794Y-16639848D02*
X7608841Y-16611276D01*
X7608841Y-16611276D02*
X7618365Y-16601752D01*
X7675508Y-16630324D02*
X7799317Y-16630324D01*
X7799317Y-16630324D02*
X7732651Y-16706514D01*
X7732651Y-16706514D02*
X7761222Y-16706514D01*
X7761222Y-16706514D02*
X7780270Y-16716038D01*
X7780270Y-16716038D02*
X7789794Y-16725562D01*
X7789794Y-16725562D02*
X7799317Y-16744609D01*
X7799317Y-16744609D02*
X7799317Y-16792229D01*
X7799317Y-16792229D02*
X7789794Y-16811276D01*
X7789794Y-16811276D02*
X7780270Y-16820800D01*
X7780270Y-16820800D02*
X7761222Y-16830324D01*
X7761222Y-16830324D02*
X7704079Y-16830324D01*
X7704079Y-16830324D02*
X7685032Y-16820800D01*
X7685032Y-16820800D02*
X7675508Y-16811276D01*
X8037413Y-16830324D02*
X8037413Y-16630324D01*
X8123127Y-16830324D02*
X8123127Y-16725562D01*
X8123127Y-16725562D02*
X8113603Y-16706514D01*
X8113603Y-16706514D02*
X8094556Y-16696990D01*
X8094556Y-16696990D02*
X8065984Y-16696990D01*
X8065984Y-16696990D02*
X8046936Y-16706514D01*
X8046936Y-16706514D02*
X8037413Y-16716038D01*
X8246936Y-16830324D02*
X8227889Y-16820800D01*
X8227889Y-16820800D02*
X8218365Y-16811276D01*
X8218365Y-16811276D02*
X8208841Y-16792229D01*
X8208841Y-16792229D02*
X8208841Y-16735086D01*
X8208841Y-16735086D02*
X8218365Y-16716038D01*
X8218365Y-16716038D02*
X8227889Y-16706514D01*
X8227889Y-16706514D02*
X8246936Y-16696990D01*
X8246936Y-16696990D02*
X8275508Y-16696990D01*
X8275508Y-16696990D02*
X8294556Y-16706514D01*
X8294556Y-16706514D02*
X8304079Y-16716038D01*
X8304079Y-16716038D02*
X8313603Y-16735086D01*
X8313603Y-16735086D02*
X8313603Y-16792229D01*
X8313603Y-16792229D02*
X8304079Y-16811276D01*
X8304079Y-16811276D02*
X8294556Y-16820800D01*
X8294556Y-16820800D02*
X8275508Y-16830324D01*
X8275508Y-16830324D02*
X8246936Y-16830324D01*
X8427889Y-16830324D02*
X8408841Y-16820800D01*
X8408841Y-16820800D02*
X8399318Y-16801752D01*
X8399318Y-16801752D02*
X8399318Y-16630324D01*
X8580270Y-16820800D02*
X8561222Y-16830324D01*
X8561222Y-16830324D02*
X8523127Y-16830324D01*
X8523127Y-16830324D02*
X8504079Y-16820800D01*
X8504079Y-16820800D02*
X8494556Y-16801752D01*
X8494556Y-16801752D02*
X8494556Y-16725562D01*
X8494556Y-16725562D02*
X8504079Y-16706514D01*
X8504079Y-16706514D02*
X8523127Y-16696990D01*
X8523127Y-16696990D02*
X8561222Y-16696990D01*
X8561222Y-16696990D02*
X8580270Y-16706514D01*
X8580270Y-16706514D02*
X8589794Y-16725562D01*
X8589794Y-16725562D02*
X8589794Y-16744609D01*
X8589794Y-16744609D02*
X8494556Y-16763657D01*
X8665984Y-16820800D02*
X8685032Y-16830324D01*
X8685032Y-16830324D02*
X8723127Y-16830324D01*
X8723127Y-16830324D02*
X8742175Y-16820800D01*
X8742175Y-16820800D02*
X8751699Y-16801752D01*
X8751699Y-16801752D02*
X8751699Y-16792229D01*
X8751699Y-16792229D02*
X8742175Y-16773181D01*
X8742175Y-16773181D02*
X8723127Y-16763657D01*
X8723127Y-16763657D02*
X8694556Y-16763657D01*
X8694556Y-16763657D02*
X8675508Y-16754133D01*
X8675508Y-16754133D02*
X8665984Y-16735086D01*
X8665984Y-16735086D02*
X8665984Y-16725562D01*
X8665984Y-16725562D02*
X8675508Y-16706514D01*
X8675508Y-16706514D02*
X8694556Y-16696990D01*
X8694556Y-16696990D02*
X8723127Y-16696990D01*
X8723127Y-16696990D02*
X8742175Y-16706514D01*
X8818365Y-16906514D02*
X8827889Y-16896990D01*
X8827889Y-16896990D02*
X8846937Y-16868419D01*
X8846937Y-16868419D02*
X8856460Y-16849371D01*
X8856460Y-16849371D02*
X8865984Y-16820800D01*
X8865984Y-16820800D02*
X8875508Y-16773181D01*
X8875508Y-16773181D02*
X8875508Y-16735086D01*
X8875508Y-16735086D02*
X8865984Y-16687467D01*
X8865984Y-16687467D02*
X8856460Y-16658895D01*
X8856460Y-16658895D02*
X8846937Y-16639848D01*
X8846937Y-16639848D02*
X8827889Y-16611276D01*
X8827889Y-16611276D02*
X8818365Y-16601752D01*
X3856460Y-16907800D02*
X4056460Y-17107800D01*
X4056460Y-16907800D02*
X3856460Y-17107800D01*
X4027171Y-17078511D02*
X4027171Y-16937089D01*
X3885749Y-16937089D01*
X3885749Y-17078511D01*
X4027171Y-17078511D01*
X4294555Y-16919371D02*
X4304079Y-16909848D01*
X4304079Y-16909848D02*
X4323127Y-16900324D01*
X4323127Y-16900324D02*
X4370746Y-16900324D01*
X4370746Y-16900324D02*
X4389793Y-16909848D01*
X4389793Y-16909848D02*
X4399317Y-16919371D01*
X4399317Y-16919371D02*
X4408841Y-16938419D01*
X4408841Y-16938419D02*
X4408841Y-16957467D01*
X4408841Y-16957467D02*
X4399317Y-16986038D01*
X4399317Y-16986038D02*
X4285031Y-17100324D01*
X4285031Y-17100324D02*
X4408841Y-17100324D01*
X4494555Y-17081276D02*
X4504079Y-17090800D01*
X4504079Y-17090800D02*
X4494555Y-17100324D01*
X4494555Y-17100324D02*
X4485031Y-17090800D01*
X4485031Y-17090800D02*
X4494555Y-17081276D01*
X4494555Y-17081276D02*
X4494555Y-17100324D01*
X4627889Y-16900324D02*
X4646936Y-16900324D01*
X4646936Y-16900324D02*
X4665984Y-16909848D01*
X4665984Y-16909848D02*
X4675508Y-16919371D01*
X4675508Y-16919371D02*
X4685031Y-16938419D01*
X4685031Y-16938419D02*
X4694555Y-16976514D01*
X4694555Y-16976514D02*
X4694555Y-17024133D01*
X4694555Y-17024133D02*
X4685031Y-17062229D01*
X4685031Y-17062229D02*
X4675508Y-17081276D01*
X4675508Y-17081276D02*
X4665984Y-17090800D01*
X4665984Y-17090800D02*
X4646936Y-17100324D01*
X4646936Y-17100324D02*
X4627889Y-17100324D01*
X4627889Y-17100324D02*
X4608841Y-17090800D01*
X4608841Y-17090800D02*
X4599317Y-17081276D01*
X4599317Y-17081276D02*
X4589793Y-17062229D01*
X4589793Y-17062229D02*
X4580270Y-17024133D01*
X4580270Y-17024133D02*
X4580270Y-16976514D01*
X4580270Y-16976514D02*
X4589793Y-16938419D01*
X4589793Y-16938419D02*
X4599317Y-16919371D01*
X4599317Y-16919371D02*
X4608841Y-16909848D01*
X4608841Y-16909848D02*
X4627889Y-16900324D01*
X4818365Y-16900324D02*
X4837412Y-16900324D01*
X4837412Y-16900324D02*
X4856460Y-16909848D01*
X4856460Y-16909848D02*
X4865984Y-16919371D01*
X4865984Y-16919371D02*
X4875508Y-16938419D01*
X4875508Y-16938419D02*
X4885031Y-16976514D01*
X4885031Y-16976514D02*
X4885031Y-17024133D01*
X4885031Y-17024133D02*
X4875508Y-17062229D01*
X4875508Y-17062229D02*
X4865984Y-17081276D01*
X4865984Y-17081276D02*
X4856460Y-17090800D01*
X4856460Y-17090800D02*
X4837412Y-17100324D01*
X4837412Y-17100324D02*
X4818365Y-17100324D01*
X4818365Y-17100324D02*
X4799317Y-17090800D01*
X4799317Y-17090800D02*
X4789793Y-17081276D01*
X4789793Y-17081276D02*
X4780270Y-17062229D01*
X4780270Y-17062229D02*
X4770746Y-17024133D01*
X4770746Y-17024133D02*
X4770746Y-16976514D01*
X4770746Y-16976514D02*
X4780270Y-16938419D01*
X4780270Y-16938419D02*
X4789793Y-16919371D01*
X4789793Y-16919371D02*
X4799317Y-16909848D01*
X4799317Y-16909848D02*
X4818365Y-16900324D01*
X5008841Y-16900324D02*
X5027889Y-16900324D01*
X5027889Y-16900324D02*
X5046936Y-16909848D01*
X5046936Y-16909848D02*
X5056460Y-16919371D01*
X5056460Y-16919371D02*
X5065984Y-16938419D01*
X5065984Y-16938419D02*
X5075508Y-16976514D01*
X5075508Y-16976514D02*
X5075508Y-17024133D01*
X5075508Y-17024133D02*
X5065984Y-17062229D01*
X5065984Y-17062229D02*
X5056460Y-17081276D01*
X5056460Y-17081276D02*
X5046936Y-17090800D01*
X5046936Y-17090800D02*
X5027889Y-17100324D01*
X5027889Y-17100324D02*
X5008841Y-17100324D01*
X5008841Y-17100324D02*
X4989793Y-17090800D01*
X4989793Y-17090800D02*
X4980270Y-17081276D01*
X4980270Y-17081276D02*
X4970746Y-17062229D01*
X4970746Y-17062229D02*
X4961222Y-17024133D01*
X4961222Y-17024133D02*
X4961222Y-16976514D01*
X4961222Y-16976514D02*
X4970746Y-16938419D01*
X4970746Y-16938419D02*
X4980270Y-16919371D01*
X4980270Y-16919371D02*
X4989793Y-16909848D01*
X4989793Y-16909848D02*
X5008841Y-16900324D01*
X5161222Y-17100324D02*
X5161222Y-16966990D01*
X5161222Y-16986038D02*
X5170746Y-16976514D01*
X5170746Y-16976514D02*
X5189793Y-16966990D01*
X5189793Y-16966990D02*
X5218365Y-16966990D01*
X5218365Y-16966990D02*
X5237412Y-16976514D01*
X5237412Y-16976514D02*
X5246936Y-16995562D01*
X5246936Y-16995562D02*
X5246936Y-17100324D01*
X5246936Y-16995562D02*
X5256460Y-16976514D01*
X5256460Y-16976514D02*
X5275508Y-16966990D01*
X5275508Y-16966990D02*
X5304079Y-16966990D01*
X5304079Y-16966990D02*
X5323127Y-16976514D01*
X5323127Y-16976514D02*
X5332651Y-16995562D01*
X5332651Y-16995562D02*
X5332651Y-17100324D01*
X5427889Y-17100324D02*
X5427889Y-16966990D01*
X5427889Y-16986038D02*
X5437412Y-16976514D01*
X5437412Y-16976514D02*
X5456460Y-16966990D01*
X5456460Y-16966990D02*
X5485032Y-16966990D01*
X5485032Y-16966990D02*
X5504079Y-16976514D01*
X5504079Y-16976514D02*
X5513603Y-16995562D01*
X5513603Y-16995562D02*
X5513603Y-17100324D01*
X5513603Y-16995562D02*
X5523127Y-16976514D01*
X5523127Y-16976514D02*
X5542174Y-16966990D01*
X5542174Y-16966990D02*
X5570746Y-16966990D01*
X5570746Y-16966990D02*
X5589793Y-16976514D01*
X5589793Y-16976514D02*
X5599317Y-16995562D01*
X5599317Y-16995562D02*
X5599317Y-17100324D01*
X5989793Y-16890800D02*
X5818365Y-17147943D01*
X6246936Y-16900324D02*
X6265984Y-16900324D01*
X6265984Y-16900324D02*
X6285032Y-16909848D01*
X6285032Y-16909848D02*
X6294555Y-16919371D01*
X6294555Y-16919371D02*
X6304079Y-16938419D01*
X6304079Y-16938419D02*
X6313603Y-16976514D01*
X6313603Y-16976514D02*
X6313603Y-17024133D01*
X6313603Y-17024133D02*
X6304079Y-17062229D01*
X6304079Y-17062229D02*
X6294555Y-17081276D01*
X6294555Y-17081276D02*
X6285032Y-17090800D01*
X6285032Y-17090800D02*
X6265984Y-17100324D01*
X6265984Y-17100324D02*
X6246936Y-17100324D01*
X6246936Y-17100324D02*
X6227889Y-17090800D01*
X6227889Y-17090800D02*
X6218365Y-17081276D01*
X6218365Y-17081276D02*
X6208841Y-17062229D01*
X6208841Y-17062229D02*
X6199317Y-17024133D01*
X6199317Y-17024133D02*
X6199317Y-16976514D01*
X6199317Y-16976514D02*
X6208841Y-16938419D01*
X6208841Y-16938419D02*
X6218365Y-16919371D01*
X6218365Y-16919371D02*
X6227889Y-16909848D01*
X6227889Y-16909848D02*
X6246936Y-16900324D01*
X6399317Y-17081276D02*
X6408841Y-17090800D01*
X6408841Y-17090800D02*
X6399317Y-17100324D01*
X6399317Y-17100324D02*
X6389793Y-17090800D01*
X6389793Y-17090800D02*
X6399317Y-17081276D01*
X6399317Y-17081276D02*
X6399317Y-17100324D01*
X6532651Y-16900324D02*
X6551698Y-16900324D01*
X6551698Y-16900324D02*
X6570746Y-16909848D01*
X6570746Y-16909848D02*
X6580270Y-16919371D01*
X6580270Y-16919371D02*
X6589793Y-16938419D01*
X6589793Y-16938419D02*
X6599317Y-16976514D01*
X6599317Y-16976514D02*
X6599317Y-17024133D01*
X6599317Y-17024133D02*
X6589793Y-17062229D01*
X6589793Y-17062229D02*
X6580270Y-17081276D01*
X6580270Y-17081276D02*
X6570746Y-17090800D01*
X6570746Y-17090800D02*
X6551698Y-17100324D01*
X6551698Y-17100324D02*
X6532651Y-17100324D01*
X6532651Y-17100324D02*
X6513603Y-17090800D01*
X6513603Y-17090800D02*
X6504079Y-17081276D01*
X6504079Y-17081276D02*
X6494555Y-17062229D01*
X6494555Y-17062229D02*
X6485032Y-17024133D01*
X6485032Y-17024133D02*
X6485032Y-16976514D01*
X6485032Y-16976514D02*
X6494555Y-16938419D01*
X6494555Y-16938419D02*
X6504079Y-16919371D01*
X6504079Y-16919371D02*
X6513603Y-16909848D01*
X6513603Y-16909848D02*
X6532651Y-16900324D01*
X6665984Y-16900324D02*
X6799317Y-16900324D01*
X6799317Y-16900324D02*
X6713603Y-17100324D01*
X6904079Y-16986038D02*
X6885032Y-16976514D01*
X6885032Y-16976514D02*
X6875508Y-16966990D01*
X6875508Y-16966990D02*
X6865984Y-16947943D01*
X6865984Y-16947943D02*
X6865984Y-16938419D01*
X6865984Y-16938419D02*
X6875508Y-16919371D01*
X6875508Y-16919371D02*
X6885032Y-16909848D01*
X6885032Y-16909848D02*
X6904079Y-16900324D01*
X6904079Y-16900324D02*
X6942174Y-16900324D01*
X6942174Y-16900324D02*
X6961222Y-16909848D01*
X6961222Y-16909848D02*
X6970746Y-16919371D01*
X6970746Y-16919371D02*
X6980270Y-16938419D01*
X6980270Y-16938419D02*
X6980270Y-16947943D01*
X6980270Y-16947943D02*
X6970746Y-16966990D01*
X6970746Y-16966990D02*
X6961222Y-16976514D01*
X6961222Y-16976514D02*
X6942174Y-16986038D01*
X6942174Y-16986038D02*
X6904079Y-16986038D01*
X6904079Y-16986038D02*
X6885032Y-16995562D01*
X6885032Y-16995562D02*
X6875508Y-17005086D01*
X6875508Y-17005086D02*
X6865984Y-17024133D01*
X6865984Y-17024133D02*
X6865984Y-17062229D01*
X6865984Y-17062229D02*
X6875508Y-17081276D01*
X6875508Y-17081276D02*
X6885032Y-17090800D01*
X6885032Y-17090800D02*
X6904079Y-17100324D01*
X6904079Y-17100324D02*
X6942174Y-17100324D01*
X6942174Y-17100324D02*
X6961222Y-17090800D01*
X6961222Y-17090800D02*
X6970746Y-17081276D01*
X6970746Y-17081276D02*
X6980270Y-17062229D01*
X6980270Y-17062229D02*
X6980270Y-17024133D01*
X6980270Y-17024133D02*
X6970746Y-17005086D01*
X6970746Y-17005086D02*
X6961222Y-16995562D01*
X6961222Y-16995562D02*
X6942174Y-16986038D01*
X7046936Y-16900324D02*
X7180270Y-16900324D01*
X7180270Y-16900324D02*
X7094555Y-17100324D01*
X7246936Y-16900324D02*
X7246936Y-16938419D01*
X7323127Y-16900324D02*
X7323127Y-16938419D01*
X7618365Y-17176514D02*
X7608841Y-17166990D01*
X7608841Y-17166990D02*
X7589794Y-17138419D01*
X7589794Y-17138419D02*
X7580270Y-17119371D01*
X7580270Y-17119371D02*
X7570746Y-17090800D01*
X7570746Y-17090800D02*
X7561222Y-17043181D01*
X7561222Y-17043181D02*
X7561222Y-17005086D01*
X7561222Y-17005086D02*
X7570746Y-16957467D01*
X7570746Y-16957467D02*
X7580270Y-16928895D01*
X7580270Y-16928895D02*
X7589794Y-16909848D01*
X7589794Y-16909848D02*
X7608841Y-16881276D01*
X7608841Y-16881276D02*
X7618365Y-16871752D01*
X7789794Y-16900324D02*
X7694555Y-16900324D01*
X7694555Y-16900324D02*
X7685032Y-16995562D01*
X7685032Y-16995562D02*
X7694555Y-16986038D01*
X7694555Y-16986038D02*
X7713603Y-16976514D01*
X7713603Y-16976514D02*
X7761222Y-16976514D01*
X7761222Y-16976514D02*
X7780270Y-16986038D01*
X7780270Y-16986038D02*
X7789794Y-16995562D01*
X7789794Y-16995562D02*
X7799317Y-17014610D01*
X7799317Y-17014610D02*
X7799317Y-17062229D01*
X7799317Y-17062229D02*
X7789794Y-17081276D01*
X7789794Y-17081276D02*
X7780270Y-17090800D01*
X7780270Y-17090800D02*
X7761222Y-17100324D01*
X7761222Y-17100324D02*
X7713603Y-17100324D01*
X7713603Y-17100324D02*
X7694555Y-17090800D01*
X7694555Y-17090800D02*
X7685032Y-17081276D01*
X8037413Y-17100324D02*
X8037413Y-16900324D01*
X8123127Y-17100324D02*
X8123127Y-16995562D01*
X8123127Y-16995562D02*
X8113603Y-16976514D01*
X8113603Y-16976514D02*
X8094556Y-16966990D01*
X8094556Y-16966990D02*
X8065984Y-16966990D01*
X8065984Y-16966990D02*
X8046936Y-16976514D01*
X8046936Y-16976514D02*
X8037413Y-16986038D01*
X8246936Y-17100324D02*
X8227889Y-17090800D01*
X8227889Y-17090800D02*
X8218365Y-17081276D01*
X8218365Y-17081276D02*
X8208841Y-17062229D01*
X8208841Y-17062229D02*
X8208841Y-17005086D01*
X8208841Y-17005086D02*
X8218365Y-16986038D01*
X8218365Y-16986038D02*
X8227889Y-16976514D01*
X8227889Y-16976514D02*
X8246936Y-16966990D01*
X8246936Y-16966990D02*
X8275508Y-16966990D01*
X8275508Y-16966990D02*
X8294556Y-16976514D01*
X8294556Y-16976514D02*
X8304079Y-16986038D01*
X8304079Y-16986038D02*
X8313603Y-17005086D01*
X8313603Y-17005086D02*
X8313603Y-17062229D01*
X8313603Y-17062229D02*
X8304079Y-17081276D01*
X8304079Y-17081276D02*
X8294556Y-17090800D01*
X8294556Y-17090800D02*
X8275508Y-17100324D01*
X8275508Y-17100324D02*
X8246936Y-17100324D01*
X8427889Y-17100324D02*
X8408841Y-17090800D01*
X8408841Y-17090800D02*
X8399318Y-17071752D01*
X8399318Y-17071752D02*
X8399318Y-16900324D01*
X8580270Y-17090800D02*
X8561222Y-17100324D01*
X8561222Y-17100324D02*
X8523127Y-17100324D01*
X8523127Y-17100324D02*
X8504079Y-17090800D01*
X8504079Y-17090800D02*
X8494556Y-17071752D01*
X8494556Y-17071752D02*
X8494556Y-16995562D01*
X8494556Y-16995562D02*
X8504079Y-16976514D01*
X8504079Y-16976514D02*
X8523127Y-16966990D01*
X8523127Y-16966990D02*
X8561222Y-16966990D01*
X8561222Y-16966990D02*
X8580270Y-16976514D01*
X8580270Y-16976514D02*
X8589794Y-16995562D01*
X8589794Y-16995562D02*
X8589794Y-17014610D01*
X8589794Y-17014610D02*
X8494556Y-17033657D01*
X8665984Y-17090800D02*
X8685032Y-17100324D01*
X8685032Y-17100324D02*
X8723127Y-17100324D01*
X8723127Y-17100324D02*
X8742175Y-17090800D01*
X8742175Y-17090800D02*
X8751699Y-17071752D01*
X8751699Y-17071752D02*
X8751699Y-17062229D01*
X8751699Y-17062229D02*
X8742175Y-17043181D01*
X8742175Y-17043181D02*
X8723127Y-17033657D01*
X8723127Y-17033657D02*
X8694556Y-17033657D01*
X8694556Y-17033657D02*
X8675508Y-17024133D01*
X8675508Y-17024133D02*
X8665984Y-17005086D01*
X8665984Y-17005086D02*
X8665984Y-16995562D01*
X8665984Y-16995562D02*
X8675508Y-16976514D01*
X8675508Y-16976514D02*
X8694556Y-16966990D01*
X8694556Y-16966990D02*
X8723127Y-16966990D01*
X8723127Y-16966990D02*
X8742175Y-16976514D01*
X8818365Y-17176514D02*
X8827889Y-17166990D01*
X8827889Y-17166990D02*
X8846937Y-17138419D01*
X8846937Y-17138419D02*
X8856460Y-17119371D01*
X8856460Y-17119371D02*
X8865984Y-17090800D01*
X8865984Y-17090800D02*
X8875508Y-17043181D01*
X8875508Y-17043181D02*
X8875508Y-17005086D01*
X8875508Y-17005086D02*
X8865984Y-16957467D01*
X8865984Y-16957467D02*
X8856460Y-16928895D01*
X8856460Y-16928895D02*
X8846937Y-16909848D01*
X8846937Y-16909848D02*
X8827889Y-16881276D01*
X8827889Y-16881276D02*
X8818365Y-16871752D01*
X3856460Y-17227800D02*
X4056460Y-17427800D01*
X4056460Y-17227800D02*
X3856460Y-17427800D01*
X3956460Y-17427800D02*
X4056460Y-17327800D01*
X3956460Y-17227800D01*
X3856460Y-17327800D01*
X3956460Y-17427800D01*
X4285031Y-17220324D02*
X4408841Y-17220324D01*
X4408841Y-17220324D02*
X4342174Y-17296514D01*
X4342174Y-17296514D02*
X4370746Y-17296514D01*
X4370746Y-17296514D02*
X4389793Y-17306038D01*
X4389793Y-17306038D02*
X4399317Y-17315562D01*
X4399317Y-17315562D02*
X4408841Y-17334610D01*
X4408841Y-17334610D02*
X4408841Y-17382229D01*
X4408841Y-17382229D02*
X4399317Y-17401276D01*
X4399317Y-17401276D02*
X4389793Y-17410800D01*
X4389793Y-17410800D02*
X4370746Y-17420324D01*
X4370746Y-17420324D02*
X4313603Y-17420324D01*
X4313603Y-17420324D02*
X4294555Y-17410800D01*
X4294555Y-17410800D02*
X4285031Y-17401276D01*
X4494555Y-17401276D02*
X4504079Y-17410800D01*
X4504079Y-17410800D02*
X4494555Y-17420324D01*
X4494555Y-17420324D02*
X4485031Y-17410800D01*
X4485031Y-17410800D02*
X4494555Y-17401276D01*
X4494555Y-17401276D02*
X4494555Y-17420324D01*
X4627889Y-17220324D02*
X4646936Y-17220324D01*
X4646936Y-17220324D02*
X4665984Y-17229848D01*
X4665984Y-17229848D02*
X4675508Y-17239371D01*
X4675508Y-17239371D02*
X4685031Y-17258419D01*
X4685031Y-17258419D02*
X4694555Y-17296514D01*
X4694555Y-17296514D02*
X4694555Y-17344133D01*
X4694555Y-17344133D02*
X4685031Y-17382229D01*
X4685031Y-17382229D02*
X4675508Y-17401276D01*
X4675508Y-17401276D02*
X4665984Y-17410800D01*
X4665984Y-17410800D02*
X4646936Y-17420324D01*
X4646936Y-17420324D02*
X4627889Y-17420324D01*
X4627889Y-17420324D02*
X4608841Y-17410800D01*
X4608841Y-17410800D02*
X4599317Y-17401276D01*
X4599317Y-17401276D02*
X4589793Y-17382229D01*
X4589793Y-17382229D02*
X4580270Y-17344133D01*
X4580270Y-17344133D02*
X4580270Y-17296514D01*
X4580270Y-17296514D02*
X4589793Y-17258419D01*
X4589793Y-17258419D02*
X4599317Y-17239371D01*
X4599317Y-17239371D02*
X4608841Y-17229848D01*
X4608841Y-17229848D02*
X4627889Y-17220324D01*
X4818365Y-17220324D02*
X4837412Y-17220324D01*
X4837412Y-17220324D02*
X4856460Y-17229848D01*
X4856460Y-17229848D02*
X4865984Y-17239371D01*
X4865984Y-17239371D02*
X4875508Y-17258419D01*
X4875508Y-17258419D02*
X4885031Y-17296514D01*
X4885031Y-17296514D02*
X4885031Y-17344133D01*
X4885031Y-17344133D02*
X4875508Y-17382229D01*
X4875508Y-17382229D02*
X4865984Y-17401276D01*
X4865984Y-17401276D02*
X4856460Y-17410800D01*
X4856460Y-17410800D02*
X4837412Y-17420324D01*
X4837412Y-17420324D02*
X4818365Y-17420324D01*
X4818365Y-17420324D02*
X4799317Y-17410800D01*
X4799317Y-17410800D02*
X4789793Y-17401276D01*
X4789793Y-17401276D02*
X4780270Y-17382229D01*
X4780270Y-17382229D02*
X4770746Y-17344133D01*
X4770746Y-17344133D02*
X4770746Y-17296514D01*
X4770746Y-17296514D02*
X4780270Y-17258419D01*
X4780270Y-17258419D02*
X4789793Y-17239371D01*
X4789793Y-17239371D02*
X4799317Y-17229848D01*
X4799317Y-17229848D02*
X4818365Y-17220324D01*
X5008841Y-17220324D02*
X5027889Y-17220324D01*
X5027889Y-17220324D02*
X5046936Y-17229848D01*
X5046936Y-17229848D02*
X5056460Y-17239371D01*
X5056460Y-17239371D02*
X5065984Y-17258419D01*
X5065984Y-17258419D02*
X5075508Y-17296514D01*
X5075508Y-17296514D02*
X5075508Y-17344133D01*
X5075508Y-17344133D02*
X5065984Y-17382229D01*
X5065984Y-17382229D02*
X5056460Y-17401276D01*
X5056460Y-17401276D02*
X5046936Y-17410800D01*
X5046936Y-17410800D02*
X5027889Y-17420324D01*
X5027889Y-17420324D02*
X5008841Y-17420324D01*
X5008841Y-17420324D02*
X4989793Y-17410800D01*
X4989793Y-17410800D02*
X4980270Y-17401276D01*
X4980270Y-17401276D02*
X4970746Y-17382229D01*
X4970746Y-17382229D02*
X4961222Y-17344133D01*
X4961222Y-17344133D02*
X4961222Y-17296514D01*
X4961222Y-17296514D02*
X4970746Y-17258419D01*
X4970746Y-17258419D02*
X4980270Y-17239371D01*
X4980270Y-17239371D02*
X4989793Y-17229848D01*
X4989793Y-17229848D02*
X5008841Y-17220324D01*
X5161222Y-17420324D02*
X5161222Y-17286990D01*
X5161222Y-17306038D02*
X5170746Y-17296514D01*
X5170746Y-17296514D02*
X5189793Y-17286990D01*
X5189793Y-17286990D02*
X5218365Y-17286990D01*
X5218365Y-17286990D02*
X5237412Y-17296514D01*
X5237412Y-17296514D02*
X5246936Y-17315562D01*
X5246936Y-17315562D02*
X5246936Y-17420324D01*
X5246936Y-17315562D02*
X5256460Y-17296514D01*
X5256460Y-17296514D02*
X5275508Y-17286990D01*
X5275508Y-17286990D02*
X5304079Y-17286990D01*
X5304079Y-17286990D02*
X5323127Y-17296514D01*
X5323127Y-17296514D02*
X5332651Y-17315562D01*
X5332651Y-17315562D02*
X5332651Y-17420324D01*
X5427889Y-17420324D02*
X5427889Y-17286990D01*
X5427889Y-17306038D02*
X5437412Y-17296514D01*
X5437412Y-17296514D02*
X5456460Y-17286990D01*
X5456460Y-17286990D02*
X5485032Y-17286990D01*
X5485032Y-17286990D02*
X5504079Y-17296514D01*
X5504079Y-17296514D02*
X5513603Y-17315562D01*
X5513603Y-17315562D02*
X5513603Y-17420324D01*
X5513603Y-17315562D02*
X5523127Y-17296514D01*
X5523127Y-17296514D02*
X5542174Y-17286990D01*
X5542174Y-17286990D02*
X5570746Y-17286990D01*
X5570746Y-17286990D02*
X5589793Y-17296514D01*
X5589793Y-17296514D02*
X5599317Y-17315562D01*
X5599317Y-17315562D02*
X5599317Y-17420324D01*
X5989793Y-17210800D02*
X5818365Y-17467943D01*
X6246936Y-17220324D02*
X6265984Y-17220324D01*
X6265984Y-17220324D02*
X6285032Y-17229848D01*
X6285032Y-17229848D02*
X6294555Y-17239371D01*
X6294555Y-17239371D02*
X6304079Y-17258419D01*
X6304079Y-17258419D02*
X6313603Y-17296514D01*
X6313603Y-17296514D02*
X6313603Y-17344133D01*
X6313603Y-17344133D02*
X6304079Y-17382229D01*
X6304079Y-17382229D02*
X6294555Y-17401276D01*
X6294555Y-17401276D02*
X6285032Y-17410800D01*
X6285032Y-17410800D02*
X6265984Y-17420324D01*
X6265984Y-17420324D02*
X6246936Y-17420324D01*
X6246936Y-17420324D02*
X6227889Y-17410800D01*
X6227889Y-17410800D02*
X6218365Y-17401276D01*
X6218365Y-17401276D02*
X6208841Y-17382229D01*
X6208841Y-17382229D02*
X6199317Y-17344133D01*
X6199317Y-17344133D02*
X6199317Y-17296514D01*
X6199317Y-17296514D02*
X6208841Y-17258419D01*
X6208841Y-17258419D02*
X6218365Y-17239371D01*
X6218365Y-17239371D02*
X6227889Y-17229848D01*
X6227889Y-17229848D02*
X6246936Y-17220324D01*
X6399317Y-17401276D02*
X6408841Y-17410800D01*
X6408841Y-17410800D02*
X6399317Y-17420324D01*
X6399317Y-17420324D02*
X6389793Y-17410800D01*
X6389793Y-17410800D02*
X6399317Y-17401276D01*
X6399317Y-17401276D02*
X6399317Y-17420324D01*
X6599317Y-17420324D02*
X6485032Y-17420324D01*
X6542174Y-17420324D02*
X6542174Y-17220324D01*
X6542174Y-17220324D02*
X6523127Y-17248895D01*
X6523127Y-17248895D02*
X6504079Y-17267943D01*
X6504079Y-17267943D02*
X6485032Y-17277467D01*
X6789793Y-17420324D02*
X6675508Y-17420324D01*
X6732651Y-17420324D02*
X6732651Y-17220324D01*
X6732651Y-17220324D02*
X6713603Y-17248895D01*
X6713603Y-17248895D02*
X6694555Y-17267943D01*
X6694555Y-17267943D02*
X6675508Y-17277467D01*
X6904079Y-17306038D02*
X6885032Y-17296514D01*
X6885032Y-17296514D02*
X6875508Y-17286990D01*
X6875508Y-17286990D02*
X6865984Y-17267943D01*
X6865984Y-17267943D02*
X6865984Y-17258419D01*
X6865984Y-17258419D02*
X6875508Y-17239371D01*
X6875508Y-17239371D02*
X6885032Y-17229848D01*
X6885032Y-17229848D02*
X6904079Y-17220324D01*
X6904079Y-17220324D02*
X6942174Y-17220324D01*
X6942174Y-17220324D02*
X6961222Y-17229848D01*
X6961222Y-17229848D02*
X6970746Y-17239371D01*
X6970746Y-17239371D02*
X6980270Y-17258419D01*
X6980270Y-17258419D02*
X6980270Y-17267943D01*
X6980270Y-17267943D02*
X6970746Y-17286990D01*
X6970746Y-17286990D02*
X6961222Y-17296514D01*
X6961222Y-17296514D02*
X6942174Y-17306038D01*
X6942174Y-17306038D02*
X6904079Y-17306038D01*
X6904079Y-17306038D02*
X6885032Y-17315562D01*
X6885032Y-17315562D02*
X6875508Y-17325086D01*
X6875508Y-17325086D02*
X6865984Y-17344133D01*
X6865984Y-17344133D02*
X6865984Y-17382229D01*
X6865984Y-17382229D02*
X6875508Y-17401276D01*
X6875508Y-17401276D02*
X6885032Y-17410800D01*
X6885032Y-17410800D02*
X6904079Y-17420324D01*
X6904079Y-17420324D02*
X6942174Y-17420324D01*
X6942174Y-17420324D02*
X6961222Y-17410800D01*
X6961222Y-17410800D02*
X6970746Y-17401276D01*
X6970746Y-17401276D02*
X6980270Y-17382229D01*
X6980270Y-17382229D02*
X6980270Y-17344133D01*
X6980270Y-17344133D02*
X6970746Y-17325086D01*
X6970746Y-17325086D02*
X6961222Y-17315562D01*
X6961222Y-17315562D02*
X6942174Y-17306038D01*
X7170746Y-17420324D02*
X7056460Y-17420324D01*
X7113603Y-17420324D02*
X7113603Y-17220324D01*
X7113603Y-17220324D02*
X7094555Y-17248895D01*
X7094555Y-17248895D02*
X7075508Y-17267943D01*
X7075508Y-17267943D02*
X7056460Y-17277467D01*
X7246936Y-17220324D02*
X7246936Y-17258419D01*
X7323127Y-17220324D02*
X7323127Y-17258419D01*
X7618365Y-17496514D02*
X7608841Y-17486990D01*
X7608841Y-17486990D02*
X7589794Y-17458419D01*
X7589794Y-17458419D02*
X7580270Y-17439371D01*
X7580270Y-17439371D02*
X7570746Y-17410800D01*
X7570746Y-17410800D02*
X7561222Y-17363181D01*
X7561222Y-17363181D02*
X7561222Y-17325086D01*
X7561222Y-17325086D02*
X7570746Y-17277467D01*
X7570746Y-17277467D02*
X7580270Y-17248895D01*
X7580270Y-17248895D02*
X7589794Y-17229848D01*
X7589794Y-17229848D02*
X7608841Y-17201276D01*
X7608841Y-17201276D02*
X7618365Y-17191752D01*
X7685032Y-17239371D02*
X7694555Y-17229848D01*
X7694555Y-17229848D02*
X7713603Y-17220324D01*
X7713603Y-17220324D02*
X7761222Y-17220324D01*
X7761222Y-17220324D02*
X7780270Y-17229848D01*
X7780270Y-17229848D02*
X7789794Y-17239371D01*
X7789794Y-17239371D02*
X7799317Y-17258419D01*
X7799317Y-17258419D02*
X7799317Y-17277467D01*
X7799317Y-17277467D02*
X7789794Y-17306038D01*
X7789794Y-17306038D02*
X7675508Y-17420324D01*
X7675508Y-17420324D02*
X7799317Y-17420324D01*
X8037413Y-17420324D02*
X8037413Y-17220324D01*
X8123127Y-17420324D02*
X8123127Y-17315562D01*
X8123127Y-17315562D02*
X8113603Y-17296514D01*
X8113603Y-17296514D02*
X8094556Y-17286990D01*
X8094556Y-17286990D02*
X8065984Y-17286990D01*
X8065984Y-17286990D02*
X8046936Y-17296514D01*
X8046936Y-17296514D02*
X8037413Y-17306038D01*
X8246936Y-17420324D02*
X8227889Y-17410800D01*
X8227889Y-17410800D02*
X8218365Y-17401276D01*
X8218365Y-17401276D02*
X8208841Y-17382229D01*
X8208841Y-17382229D02*
X8208841Y-17325086D01*
X8208841Y-17325086D02*
X8218365Y-17306038D01*
X8218365Y-17306038D02*
X8227889Y-17296514D01*
X8227889Y-17296514D02*
X8246936Y-17286990D01*
X8246936Y-17286990D02*
X8275508Y-17286990D01*
X8275508Y-17286990D02*
X8294556Y-17296514D01*
X8294556Y-17296514D02*
X8304079Y-17306038D01*
X8304079Y-17306038D02*
X8313603Y-17325086D01*
X8313603Y-17325086D02*
X8313603Y-17382229D01*
X8313603Y-17382229D02*
X8304079Y-17401276D01*
X8304079Y-17401276D02*
X8294556Y-17410800D01*
X8294556Y-17410800D02*
X8275508Y-17420324D01*
X8275508Y-17420324D02*
X8246936Y-17420324D01*
X8427889Y-17420324D02*
X8408841Y-17410800D01*
X8408841Y-17410800D02*
X8399318Y-17391752D01*
X8399318Y-17391752D02*
X8399318Y-17220324D01*
X8580270Y-17410800D02*
X8561222Y-17420324D01*
X8561222Y-17420324D02*
X8523127Y-17420324D01*
X8523127Y-17420324D02*
X8504079Y-17410800D01*
X8504079Y-17410800D02*
X8494556Y-17391752D01*
X8494556Y-17391752D02*
X8494556Y-17315562D01*
X8494556Y-17315562D02*
X8504079Y-17296514D01*
X8504079Y-17296514D02*
X8523127Y-17286990D01*
X8523127Y-17286990D02*
X8561222Y-17286990D01*
X8561222Y-17286990D02*
X8580270Y-17296514D01*
X8580270Y-17296514D02*
X8589794Y-17315562D01*
X8589794Y-17315562D02*
X8589794Y-17334610D01*
X8589794Y-17334610D02*
X8494556Y-17353657D01*
X8665984Y-17410800D02*
X8685032Y-17420324D01*
X8685032Y-17420324D02*
X8723127Y-17420324D01*
X8723127Y-17420324D02*
X8742175Y-17410800D01*
X8742175Y-17410800D02*
X8751699Y-17391752D01*
X8751699Y-17391752D02*
X8751699Y-17382229D01*
X8751699Y-17382229D02*
X8742175Y-17363181D01*
X8742175Y-17363181D02*
X8723127Y-17353657D01*
X8723127Y-17353657D02*
X8694556Y-17353657D01*
X8694556Y-17353657D02*
X8675508Y-17344133D01*
X8675508Y-17344133D02*
X8665984Y-17325086D01*
X8665984Y-17325086D02*
X8665984Y-17315562D01*
X8665984Y-17315562D02*
X8675508Y-17296514D01*
X8675508Y-17296514D02*
X8694556Y-17286990D01*
X8694556Y-17286990D02*
X8723127Y-17286990D01*
X8723127Y-17286990D02*
X8742175Y-17296514D01*
X8818365Y-17496514D02*
X8827889Y-17486990D01*
X8827889Y-17486990D02*
X8846937Y-17458419D01*
X8846937Y-17458419D02*
X8856460Y-17439371D01*
X8856460Y-17439371D02*
X8865984Y-17410800D01*
X8865984Y-17410800D02*
X8875508Y-17363181D01*
X8875508Y-17363181D02*
X8875508Y-17325086D01*
X8875508Y-17325086D02*
X8865984Y-17277467D01*
X8865984Y-17277467D02*
X8856460Y-17248895D01*
X8856460Y-17248895D02*
X8846937Y-17229848D01*
X8846937Y-17229848D02*
X8827889Y-17201276D01*
X8827889Y-17201276D02*
X8818365Y-17191752D01*
M02*
