G04 #@! TF.GenerationSoftware,KiCad,Pcbnew,7.0.2*
G04 #@! TF.CreationDate,2023-10-15T13:01:48+02:00*
G04 #@! TF.ProjectId,Module_2,4d6f6475-6c65-45f3-922e-6b696361645f,rev?*
G04 #@! TF.SameCoordinates,Original*
G04 #@! TF.FileFunction,Legend,Top*
G04 #@! TF.FilePolarity,Positive*
%FSLAX46Y46*%
G04 Gerber Fmt 4.6, Leading zero omitted, Abs format (unit mm)*
G04 Created by KiCad (PCBNEW 7.0.2) date 2023-10-15 13:01:48*
%MOMM*%
%LPD*%
G01*
G04 APERTURE LIST*
G04 Aperture macros list*
%AMRoundRect*
0 Rectangle with rounded corners*
0 $1 Rounding radius*
0 $2 $3 $4 $5 $6 $7 $8 $9 X,Y pos of 4 corners*
0 Add a 4 corners polygon primitive as box body*
4,1,4,$2,$3,$4,$5,$6,$7,$8,$9,$2,$3,0*
0 Add four circle primitives for the rounded corners*
1,1,$1+$1,$2,$3*
1,1,$1+$1,$4,$5*
1,1,$1+$1,$6,$7*
1,1,$1+$1,$8,$9*
0 Add four rect primitives between the rounded corners*
20,1,$1+$1,$2,$3,$4,$5,0*
20,1,$1+$1,$4,$5,$6,$7,0*
20,1,$1+$1,$6,$7,$8,$9,0*
20,1,$1+$1,$8,$9,$2,$3,0*%
G04 Aperture macros list end*
%ADD10C,0.150000*%
%ADD11C,0.300000*%
%ADD12C,0.200000*%
%ADD13C,0.500000*%
%ADD14C,0.100000*%
%ADD15C,0.120000*%
%ADD16RoundRect,0.250000X-0.600000X-0.600000X0.600000X-0.600000X0.600000X0.600000X-0.600000X0.600000X0*%
%ADD17C,1.700000*%
%ADD18R,1.600000X1.600000*%
%ADD19C,1.600000*%
%ADD20C,2.400000*%
%ADD21O,2.400000X2.400000*%
%ADD22C,3.500000*%
%ADD23RoundRect,0.250000X0.600000X-0.600000X0.600000X0.600000X-0.600000X0.600000X-0.600000X-0.600000X0*%
%ADD24C,5.000000*%
%ADD25R,1.800000X1.800000*%
%ADD26C,1.800000*%
%ADD27R,1.730000X2.030000*%
%ADD28O,1.730000X2.030000*%
%ADD29C,2.000000*%
%ADD30C,1.500000*%
%ADD31O,1.600000X1.600000*%
%ADD32R,2.030000X1.730000*%
%ADD33O,2.030000X1.730000*%
%ADD34R,1.700000X1.700000*%
%ADD35O,1.700000X1.700000*%
%ADD36C,1.440000*%
%ADD37O,3.600000X3.600000*%
%ADD38R,4.500000X2.500000*%
%ADD39O,4.500000X2.500000*%
G04 APERTURE END LIST*
D10*
X115062000Y-50800000D02*
X112014000Y-50800000D01*
X121158000Y-50800000D02*
G75*
G03*
X115062000Y-50800000I-3048000J0D01*
G01*
X111760000Y-30480000D02*
X141986000Y-30480000D01*
X141986000Y-42926000D01*
X111760000Y-42926000D01*
X111760000Y-30480000D01*
X127254000Y-50800000D02*
G75*
G03*
X121158000Y-50800000I-3048000J0D01*
G01*
X133350000Y-50800000D02*
G75*
G03*
X127254000Y-50800000I-3048000J0D01*
G01*
X139446000Y-50546000D02*
X142494000Y-50546000D01*
X139446000Y-50546000D02*
G75*
G03*
X133350000Y-50546000I-3048000J0D01*
G01*
X101600000Y-30480000D02*
X152400000Y-30480000D01*
X152400000Y-58420000D01*
X101600000Y-58420000D01*
X101600000Y-30480000D01*
D11*
X135604190Y-136153238D02*
X135604190Y-134153238D01*
X136747047Y-136153238D02*
X135889904Y-135010380D01*
X136747047Y-134153238D02*
X135604190Y-135296095D01*
X138461333Y-136153238D02*
X138461333Y-135105619D01*
X138461333Y-135105619D02*
X138366095Y-134915142D01*
X138366095Y-134915142D02*
X138175619Y-134819904D01*
X138175619Y-134819904D02*
X137794666Y-134819904D01*
X137794666Y-134819904D02*
X137604190Y-134915142D01*
X138461333Y-136058000D02*
X138270857Y-136153238D01*
X138270857Y-136153238D02*
X137794666Y-136153238D01*
X137794666Y-136153238D02*
X137604190Y-136058000D01*
X137604190Y-136058000D02*
X137508952Y-135867523D01*
X137508952Y-135867523D02*
X137508952Y-135677047D01*
X137508952Y-135677047D02*
X137604190Y-135486571D01*
X137604190Y-135486571D02*
X137794666Y-135391333D01*
X137794666Y-135391333D02*
X138270857Y-135391333D01*
X138270857Y-135391333D02*
X138461333Y-135296095D01*
X140080381Y-134819904D02*
X140080381Y-136153238D01*
X139318476Y-134819904D02*
X139318476Y-135296095D01*
X139318476Y-135296095D02*
X139413714Y-135486571D01*
X139413714Y-135486571D02*
X139604190Y-135581809D01*
X139604190Y-135581809D02*
X140080381Y-135581809D01*
X141985143Y-136153238D02*
X141985143Y-135105619D01*
X141985143Y-135105619D02*
X141889905Y-134915142D01*
X141889905Y-134915142D02*
X141699429Y-134819904D01*
X141699429Y-134819904D02*
X141318476Y-134819904D01*
X141318476Y-134819904D02*
X141128000Y-134915142D01*
X141985143Y-136058000D02*
X141794667Y-136153238D01*
X141794667Y-136153238D02*
X141318476Y-136153238D01*
X141318476Y-136153238D02*
X141128000Y-136058000D01*
X141128000Y-136058000D02*
X141032762Y-135867523D01*
X141032762Y-135867523D02*
X141032762Y-135677047D01*
X141032762Y-135677047D02*
X141128000Y-135486571D01*
X141128000Y-135486571D02*
X141318476Y-135391333D01*
X141318476Y-135391333D02*
X141794667Y-135391333D01*
X141794667Y-135391333D02*
X141985143Y-135296095D01*
X143699429Y-136153238D02*
X143699429Y-134819904D01*
X143699429Y-134819904D02*
X143413714Y-134819904D01*
X143413714Y-134819904D02*
X143223238Y-134915142D01*
X143223238Y-134915142D02*
X143128000Y-135105619D01*
X143128000Y-135105619D02*
X143032762Y-135867523D01*
X143032762Y-135867523D02*
X142937524Y-136058000D01*
X142937524Y-136058000D02*
X142747048Y-136153238D01*
X144651810Y-134819904D02*
X144651810Y-136153238D01*
X144842286Y-135391333D02*
X145413715Y-136153238D01*
X145413715Y-134819904D02*
X144651810Y-135581809D01*
X147128001Y-136153238D02*
X147128001Y-135105619D01*
X147128001Y-135105619D02*
X147032763Y-134915142D01*
X147032763Y-134915142D02*
X146842287Y-134819904D01*
X146842287Y-134819904D02*
X146461334Y-134819904D01*
X146461334Y-134819904D02*
X146270858Y-134915142D01*
X147128001Y-136058000D02*
X146937525Y-136153238D01*
X146937525Y-136153238D02*
X146461334Y-136153238D01*
X146461334Y-136153238D02*
X146270858Y-136058000D01*
X146270858Y-136058000D02*
X146175620Y-135867523D01*
X146175620Y-135867523D02*
X146175620Y-135677047D01*
X146175620Y-135677047D02*
X146270858Y-135486571D01*
X146270858Y-135486571D02*
X146461334Y-135391333D01*
X146461334Y-135391333D02*
X146937525Y-135391333D01*
X146937525Y-135391333D02*
X147128001Y-135296095D01*
X41370190Y-120659238D02*
X41370190Y-118659238D01*
X41370190Y-118659238D02*
X42513047Y-118659238D01*
X42513047Y-118659238D02*
X42513047Y-120659238D01*
X43465428Y-119325904D02*
X43465428Y-120659238D01*
X43465428Y-120659238D02*
X44417809Y-119325904D01*
X44417809Y-119325904D02*
X44417809Y-120659238D01*
X45084476Y-119325904D02*
X46036857Y-119325904D01*
X45560666Y-119325904D02*
X45560666Y-120659238D01*
X47560666Y-120659238D02*
X47560666Y-119611619D01*
X47560666Y-119611619D02*
X47465428Y-119421142D01*
X47465428Y-119421142D02*
X47274952Y-119325904D01*
X47274952Y-119325904D02*
X46893999Y-119325904D01*
X46893999Y-119325904D02*
X46703523Y-119421142D01*
X47560666Y-120564000D02*
X47370190Y-120659238D01*
X47370190Y-120659238D02*
X46893999Y-120659238D01*
X46893999Y-120659238D02*
X46703523Y-120564000D01*
X46703523Y-120564000D02*
X46608285Y-120373523D01*
X46608285Y-120373523D02*
X46608285Y-120183047D01*
X46608285Y-120183047D02*
X46703523Y-119992571D01*
X46703523Y-119992571D02*
X46893999Y-119897333D01*
X46893999Y-119897333D02*
X47370190Y-119897333D01*
X47370190Y-119897333D02*
X47560666Y-119802095D01*
X48513047Y-119992571D02*
X49370190Y-119992571D01*
X48513047Y-119325904D02*
X48513047Y-120659238D01*
X49370190Y-119325904D02*
X49370190Y-120659238D01*
X50322571Y-119325904D02*
X50322571Y-120659238D01*
X50322571Y-120659238D02*
X51274952Y-119325904D01*
X51274952Y-119325904D02*
X51274952Y-120659238D01*
X52989238Y-120564000D02*
X52798762Y-120659238D01*
X52798762Y-120659238D02*
X52417809Y-120659238D01*
X52417809Y-120659238D02*
X52227333Y-120564000D01*
X52227333Y-120564000D02*
X52132095Y-120373523D01*
X52132095Y-120373523D02*
X52132095Y-119611619D01*
X52132095Y-119611619D02*
X52227333Y-119421142D01*
X52227333Y-119421142D02*
X52417809Y-119325904D01*
X52417809Y-119325904D02*
X52798762Y-119325904D01*
X52798762Y-119325904D02*
X52989238Y-119421142D01*
X52989238Y-119421142D02*
X53084476Y-119611619D01*
X53084476Y-119611619D02*
X53084476Y-119802095D01*
X53084476Y-119802095D02*
X52132095Y-119992571D01*
X44291047Y-133105238D02*
X43624380Y-132152857D01*
X43148190Y-133105238D02*
X43148190Y-131105238D01*
X43148190Y-131105238D02*
X43910095Y-131105238D01*
X43910095Y-131105238D02*
X44100571Y-131200476D01*
X44100571Y-131200476D02*
X44195809Y-131295714D01*
X44195809Y-131295714D02*
X44291047Y-131486190D01*
X44291047Y-131486190D02*
X44291047Y-131771904D01*
X44291047Y-131771904D02*
X44195809Y-131962380D01*
X44195809Y-131962380D02*
X44100571Y-132057619D01*
X44100571Y-132057619D02*
X43910095Y-132152857D01*
X43910095Y-132152857D02*
X43148190Y-132152857D01*
X44957714Y-131105238D02*
X46291047Y-133105238D01*
X46291047Y-131105238D02*
X44957714Y-133105238D01*
X48481523Y-131010000D02*
X46767238Y-133581428D01*
X48862476Y-131105238D02*
X50005333Y-131105238D01*
X49433904Y-133105238D02*
X49433904Y-131105238D01*
X50481524Y-131105238D02*
X51814857Y-133105238D01*
X51814857Y-131105238D02*
X50481524Y-133105238D01*
X86836000Y-133327428D02*
X86836000Y-132851238D01*
X86836000Y-132851238D02*
X85121714Y-132851238D01*
X85121714Y-132851238D02*
X85121714Y-133327428D01*
X86455047Y-132851238D02*
X86455047Y-130851238D01*
X86455047Y-130851238D02*
X85978857Y-130851238D01*
X85978857Y-130851238D02*
X85788380Y-130946476D01*
X85788380Y-130946476D02*
X85693142Y-131041714D01*
X85693142Y-131041714D02*
X85597904Y-131232190D01*
X85597904Y-131232190D02*
X85407428Y-132851238D01*
X87597904Y-131517904D02*
X87597904Y-132851238D01*
X87597904Y-132851238D02*
X88550285Y-131517904D01*
X88550285Y-131517904D02*
X88550285Y-132851238D01*
X90359809Y-132756000D02*
X90169333Y-132851238D01*
X90169333Y-132851238D02*
X89788380Y-132851238D01*
X89788380Y-132851238D02*
X89597904Y-132756000D01*
X89597904Y-132756000D02*
X89502666Y-132660761D01*
X89502666Y-132660761D02*
X89407428Y-132470285D01*
X89407428Y-132470285D02*
X89407428Y-131898857D01*
X89407428Y-131898857D02*
X89502666Y-131708380D01*
X89502666Y-131708380D02*
X89597904Y-131613142D01*
X89597904Y-131613142D02*
X89788380Y-131517904D01*
X89788380Y-131517904D02*
X90169333Y-131517904D01*
X90169333Y-131517904D02*
X90359809Y-131613142D01*
X91216952Y-132851238D02*
X91216952Y-131517904D01*
X91216952Y-131517904D02*
X92074095Y-131517904D01*
X92074095Y-131517904D02*
X92074095Y-132851238D01*
X93788381Y-132851238D02*
X93788381Y-131517904D01*
X93788381Y-131517904D02*
X93502666Y-131517904D01*
X93502666Y-131517904D02*
X93312190Y-131613142D01*
X93312190Y-131613142D02*
X93216952Y-131803619D01*
X93216952Y-131803619D02*
X93121714Y-132565523D01*
X93121714Y-132565523D02*
X93026476Y-132756000D01*
X93026476Y-132756000D02*
X92836000Y-132851238D01*
X95502667Y-132756000D02*
X95312191Y-132851238D01*
X95312191Y-132851238D02*
X94931238Y-132851238D01*
X94931238Y-132851238D02*
X94740762Y-132756000D01*
X94740762Y-132756000D02*
X94645524Y-132565523D01*
X94645524Y-132565523D02*
X94645524Y-131803619D01*
X94645524Y-131803619D02*
X94740762Y-131613142D01*
X94740762Y-131613142D02*
X94931238Y-131517904D01*
X94931238Y-131517904D02*
X95312191Y-131517904D01*
X95312191Y-131517904D02*
X95502667Y-131613142D01*
X95502667Y-131613142D02*
X95597905Y-131803619D01*
X95597905Y-131803619D02*
X95597905Y-131994095D01*
X95597905Y-131994095D02*
X94645524Y-132184571D01*
X96455048Y-131517904D02*
X96455048Y-132851238D01*
X96455048Y-132851238D02*
X97407429Y-131517904D01*
X97407429Y-131517904D02*
X97407429Y-132851238D01*
X96550286Y-130756000D02*
X96645524Y-130946476D01*
X96645524Y-130946476D02*
X96836000Y-131041714D01*
X96836000Y-131041714D02*
X97026477Y-131041714D01*
X97026477Y-131041714D02*
X97216953Y-130946476D01*
X97216953Y-130946476D02*
X97312191Y-130756000D01*
D12*
X55419428Y-35954857D02*
X55419428Y-32954857D01*
X55133714Y-33383428D02*
X55705142Y-33383428D01*
X55705142Y-33383428D02*
X56133714Y-33526285D01*
X56133714Y-33526285D02*
X56419428Y-33812000D01*
X56419428Y-33812000D02*
X56562285Y-34097714D01*
X56562285Y-34097714D02*
X56562285Y-34669142D01*
X56562285Y-34669142D02*
X56419428Y-34954857D01*
X56419428Y-34954857D02*
X56133714Y-35240571D01*
X56133714Y-35240571D02*
X55705142Y-35383428D01*
X55705142Y-35383428D02*
X55133714Y-35383428D01*
X55133714Y-35383428D02*
X54705142Y-35240571D01*
X54705142Y-35240571D02*
X54419428Y-34954857D01*
X54419428Y-34954857D02*
X54276571Y-34669142D01*
X54276571Y-34669142D02*
X54276571Y-34097714D01*
X54276571Y-34097714D02*
X54419428Y-33812000D01*
X54419428Y-33812000D02*
X54705142Y-33526285D01*
X54705142Y-33526285D02*
X55133714Y-33383428D01*
X58990857Y-35954857D02*
X58990857Y-34383428D01*
X58990857Y-34383428D02*
X58847999Y-34097714D01*
X58847999Y-34097714D02*
X58562285Y-33954857D01*
X58562285Y-33954857D02*
X57990857Y-33954857D01*
X57990857Y-33954857D02*
X57705142Y-34097714D01*
X58990857Y-35812000D02*
X58705142Y-35954857D01*
X58705142Y-35954857D02*
X57990857Y-35954857D01*
X57990857Y-35954857D02*
X57705142Y-35812000D01*
X57705142Y-35812000D02*
X57562285Y-35526285D01*
X57562285Y-35526285D02*
X57562285Y-35240571D01*
X57562285Y-35240571D02*
X57705142Y-34954857D01*
X57705142Y-34954857D02*
X57990857Y-34812000D01*
X57990857Y-34812000D02*
X58705142Y-34812000D01*
X58705142Y-34812000D02*
X58990857Y-34669142D01*
X60705143Y-34954857D02*
X60990857Y-34954857D01*
X60133714Y-34097714D02*
X60419428Y-33954857D01*
X60419428Y-33954857D02*
X60990857Y-33954857D01*
X60990857Y-33954857D02*
X61276571Y-34097714D01*
X61276571Y-34097714D02*
X61419428Y-34383428D01*
X61419428Y-34383428D02*
X61419428Y-34526285D01*
X61419428Y-34526285D02*
X61276571Y-34812000D01*
X61276571Y-34812000D02*
X60990857Y-34954857D01*
X60990857Y-34954857D02*
X61276571Y-35097714D01*
X61276571Y-35097714D02*
X61419428Y-35383428D01*
X61419428Y-35383428D02*
X61419428Y-35526285D01*
X61419428Y-35526285D02*
X61276571Y-35812000D01*
X61276571Y-35812000D02*
X60990857Y-35954857D01*
X60990857Y-35954857D02*
X60419428Y-35954857D01*
X60419428Y-35954857D02*
X60133714Y-35812000D01*
X63990857Y-35954857D02*
X63990857Y-34383428D01*
X63990857Y-34383428D02*
X63847999Y-34097714D01*
X63847999Y-34097714D02*
X63562285Y-33954857D01*
X63562285Y-33954857D02*
X62990857Y-33954857D01*
X62990857Y-33954857D02*
X62705142Y-34097714D01*
X63990857Y-35812000D02*
X63705142Y-35954857D01*
X63705142Y-35954857D02*
X62990857Y-35954857D01*
X62990857Y-35954857D02*
X62705142Y-35812000D01*
X62705142Y-35812000D02*
X62562285Y-35526285D01*
X62562285Y-35526285D02*
X62562285Y-35240571D01*
X62562285Y-35240571D02*
X62705142Y-34954857D01*
X62705142Y-34954857D02*
X62990857Y-34812000D01*
X62990857Y-34812000D02*
X63705142Y-34812000D01*
X63705142Y-34812000D02*
X63990857Y-34669142D01*
X66990857Y-35954857D02*
X65276571Y-35954857D01*
X66133714Y-35954857D02*
X66133714Y-32954857D01*
X66133714Y-32954857D02*
X65848000Y-33383428D01*
X65848000Y-33383428D02*
X65562285Y-33669142D01*
X65562285Y-33669142D02*
X65276571Y-33812000D01*
D13*
X161972476Y-60729333D02*
X165782000Y-60729333D01*
X163877238Y-62634095D02*
X163877238Y-58824571D01*
D12*
X44211714Y-73340857D02*
X44783142Y-73340857D01*
X44783142Y-73340857D02*
X45068857Y-73483714D01*
X45068857Y-73483714D02*
X45354571Y-73769428D01*
X45354571Y-73769428D02*
X45497428Y-74340857D01*
X45497428Y-74340857D02*
X45497428Y-75340857D01*
X45497428Y-75340857D02*
X45354571Y-75912285D01*
X45354571Y-75912285D02*
X45068857Y-76198000D01*
X45068857Y-76198000D02*
X44783142Y-76340857D01*
X44783142Y-76340857D02*
X44211714Y-76340857D01*
X44211714Y-76340857D02*
X43926000Y-76198000D01*
X43926000Y-76198000D02*
X43640285Y-75912285D01*
X43640285Y-75912285D02*
X43497428Y-75340857D01*
X43497428Y-75340857D02*
X43497428Y-74340857D01*
X43497428Y-74340857D02*
X43640285Y-73769428D01*
X43640285Y-73769428D02*
X43926000Y-73483714D01*
X43926000Y-73483714D02*
X44211714Y-73340857D01*
X48211714Y-73198000D02*
X48068857Y-73340857D01*
X48068857Y-73340857D02*
X47783142Y-73483714D01*
X47783142Y-73483714D02*
X47211714Y-73483714D01*
X47211714Y-73483714D02*
X46925999Y-73626571D01*
X46925999Y-73626571D02*
X46783142Y-73769428D01*
X46783142Y-73769428D02*
X46640285Y-74055142D01*
X46640285Y-74055142D02*
X46640285Y-75769428D01*
X46640285Y-75769428D02*
X46783142Y-76055142D01*
X46783142Y-76055142D02*
X46925999Y-76198000D01*
X46925999Y-76198000D02*
X47211714Y-76340857D01*
X47211714Y-76340857D02*
X47640285Y-76340857D01*
X47640285Y-76340857D02*
X47925999Y-76198000D01*
X47925999Y-76198000D02*
X48068857Y-76055142D01*
X48068857Y-76055142D02*
X48211714Y-75769428D01*
X48211714Y-75769428D02*
X48211714Y-74912285D01*
X48211714Y-74912285D02*
X48068857Y-74626571D01*
X48068857Y-74626571D02*
X47925999Y-74483714D01*
X47925999Y-74483714D02*
X47640285Y-74340857D01*
X47640285Y-74340857D02*
X47068857Y-74340857D01*
X47068857Y-74340857D02*
X46783142Y-74483714D01*
X46783142Y-74483714D02*
X46640285Y-74626571D01*
X50497428Y-74340857D02*
X50497428Y-76340857D01*
X49497428Y-74340857D02*
X49497428Y-76340857D01*
X49497428Y-76340857D02*
X51497428Y-76340857D01*
X51497428Y-76340857D02*
X51497428Y-74340857D01*
X51497428Y-76340857D02*
X51783143Y-76340857D01*
X51783143Y-76340857D02*
X51783143Y-77055142D01*
X52925999Y-74340857D02*
X52925999Y-76340857D01*
X52925999Y-76340857D02*
X54354571Y-74340857D01*
X54354571Y-74340857D02*
X54354571Y-76340857D01*
X55783142Y-74340857D02*
X55783142Y-76340857D01*
X55783142Y-76340857D02*
X57211714Y-74340857D01*
X57211714Y-74340857D02*
X57211714Y-76340857D01*
X55925999Y-73198000D02*
X56068857Y-73483714D01*
X56068857Y-73483714D02*
X56354571Y-73626571D01*
X56354571Y-73626571D02*
X56640285Y-73626571D01*
X56640285Y-73626571D02*
X56925999Y-73483714D01*
X56925999Y-73483714D02*
X57068857Y-73198000D01*
D11*
X57037559Y-134592117D02*
X56370892Y-133639736D01*
X55894702Y-134592117D02*
X55894702Y-132592117D01*
X55894702Y-132592117D02*
X56656607Y-132592117D01*
X56656607Y-132592117D02*
X56847083Y-132687355D01*
X56847083Y-132687355D02*
X56942321Y-132782593D01*
X56942321Y-132782593D02*
X57037559Y-132973069D01*
X57037559Y-132973069D02*
X57037559Y-133258783D01*
X57037559Y-133258783D02*
X56942321Y-133449259D01*
X56942321Y-133449259D02*
X56847083Y-133544498D01*
X56847083Y-133544498D02*
X56656607Y-133639736D01*
X56656607Y-133639736D02*
X55894702Y-133639736D01*
X57799464Y-134496879D02*
X58085178Y-134592117D01*
X58085178Y-134592117D02*
X58561369Y-134592117D01*
X58561369Y-134592117D02*
X58751845Y-134496879D01*
X58751845Y-134496879D02*
X58847083Y-134401640D01*
X58847083Y-134401640D02*
X58942321Y-134211164D01*
X58942321Y-134211164D02*
X58942321Y-134020688D01*
X58942321Y-134020688D02*
X58847083Y-133830212D01*
X58847083Y-133830212D02*
X58751845Y-133734974D01*
X58751845Y-133734974D02*
X58561369Y-133639736D01*
X58561369Y-133639736D02*
X58180416Y-133544498D01*
X58180416Y-133544498D02*
X57989940Y-133449259D01*
X57989940Y-133449259D02*
X57894702Y-133354021D01*
X57894702Y-133354021D02*
X57799464Y-133163545D01*
X57799464Y-133163545D02*
X57799464Y-132973069D01*
X57799464Y-132973069D02*
X57894702Y-132782593D01*
X57894702Y-132782593D02*
X57989940Y-132687355D01*
X57989940Y-132687355D02*
X58180416Y-132592117D01*
X58180416Y-132592117D02*
X58656607Y-132592117D01*
X58656607Y-132592117D02*
X58942321Y-132687355D01*
X60656607Y-133258783D02*
X60656607Y-134592117D01*
X60180416Y-132496879D02*
X59704226Y-133925450D01*
X59704226Y-133925450D02*
X60942321Y-133925450D01*
X61989940Y-133449259D02*
X61799464Y-133354021D01*
X61799464Y-133354021D02*
X61704226Y-133258783D01*
X61704226Y-133258783D02*
X61608988Y-133068307D01*
X61608988Y-133068307D02*
X61608988Y-132973069D01*
X61608988Y-132973069D02*
X61704226Y-132782593D01*
X61704226Y-132782593D02*
X61799464Y-132687355D01*
X61799464Y-132687355D02*
X61989940Y-132592117D01*
X61989940Y-132592117D02*
X62370893Y-132592117D01*
X62370893Y-132592117D02*
X62561369Y-132687355D01*
X62561369Y-132687355D02*
X62656607Y-132782593D01*
X62656607Y-132782593D02*
X62751845Y-132973069D01*
X62751845Y-132973069D02*
X62751845Y-133068307D01*
X62751845Y-133068307D02*
X62656607Y-133258783D01*
X62656607Y-133258783D02*
X62561369Y-133354021D01*
X62561369Y-133354021D02*
X62370893Y-133449259D01*
X62370893Y-133449259D02*
X61989940Y-133449259D01*
X61989940Y-133449259D02*
X61799464Y-133544498D01*
X61799464Y-133544498D02*
X61704226Y-133639736D01*
X61704226Y-133639736D02*
X61608988Y-133830212D01*
X61608988Y-133830212D02*
X61608988Y-134211164D01*
X61608988Y-134211164D02*
X61704226Y-134401640D01*
X61704226Y-134401640D02*
X61799464Y-134496879D01*
X61799464Y-134496879D02*
X61989940Y-134592117D01*
X61989940Y-134592117D02*
X62370893Y-134592117D01*
X62370893Y-134592117D02*
X62561369Y-134496879D01*
X62561369Y-134496879D02*
X62656607Y-134401640D01*
X62656607Y-134401640D02*
X62751845Y-134211164D01*
X62751845Y-134211164D02*
X62751845Y-133830212D01*
X62751845Y-133830212D02*
X62656607Y-133639736D01*
X62656607Y-133639736D02*
X62561369Y-133544498D01*
X62561369Y-133544498D02*
X62370893Y-133449259D01*
X64561369Y-132592117D02*
X63608988Y-132592117D01*
X63608988Y-132592117D02*
X63513750Y-133544498D01*
X63513750Y-133544498D02*
X63608988Y-133449259D01*
X63608988Y-133449259D02*
X63799464Y-133354021D01*
X63799464Y-133354021D02*
X64275655Y-133354021D01*
X64275655Y-133354021D02*
X64466131Y-133449259D01*
X64466131Y-133449259D02*
X64561369Y-133544498D01*
X64561369Y-133544498D02*
X64656607Y-133734974D01*
X64656607Y-133734974D02*
X64656607Y-134211164D01*
X64656607Y-134211164D02*
X64561369Y-134401640D01*
X64561369Y-134401640D02*
X64466131Y-134496879D01*
X64466131Y-134496879D02*
X64275655Y-134592117D01*
X64275655Y-134592117D02*
X63799464Y-134592117D01*
X63799464Y-134592117D02*
X63608988Y-134496879D01*
X63608988Y-134496879D02*
X63513750Y-134401640D01*
D13*
X163599333Y-89995523D02*
X163599333Y-86186000D01*
D12*
X55419428Y-41034857D02*
X55419428Y-38034857D01*
X55133714Y-38463428D02*
X55705142Y-38463428D01*
X55705142Y-38463428D02*
X56133714Y-38606285D01*
X56133714Y-38606285D02*
X56419428Y-38892000D01*
X56419428Y-38892000D02*
X56562285Y-39177714D01*
X56562285Y-39177714D02*
X56562285Y-39749142D01*
X56562285Y-39749142D02*
X56419428Y-40034857D01*
X56419428Y-40034857D02*
X56133714Y-40320571D01*
X56133714Y-40320571D02*
X55705142Y-40463428D01*
X55705142Y-40463428D02*
X55133714Y-40463428D01*
X55133714Y-40463428D02*
X54705142Y-40320571D01*
X54705142Y-40320571D02*
X54419428Y-40034857D01*
X54419428Y-40034857D02*
X54276571Y-39749142D01*
X54276571Y-39749142D02*
X54276571Y-39177714D01*
X54276571Y-39177714D02*
X54419428Y-38892000D01*
X54419428Y-38892000D02*
X54705142Y-38606285D01*
X54705142Y-38606285D02*
X55133714Y-38463428D01*
X58990857Y-41034857D02*
X58990857Y-39463428D01*
X58990857Y-39463428D02*
X58847999Y-39177714D01*
X58847999Y-39177714D02*
X58562285Y-39034857D01*
X58562285Y-39034857D02*
X57990857Y-39034857D01*
X57990857Y-39034857D02*
X57705142Y-39177714D01*
X58990857Y-40892000D02*
X58705142Y-41034857D01*
X58705142Y-41034857D02*
X57990857Y-41034857D01*
X57990857Y-41034857D02*
X57705142Y-40892000D01*
X57705142Y-40892000D02*
X57562285Y-40606285D01*
X57562285Y-40606285D02*
X57562285Y-40320571D01*
X57562285Y-40320571D02*
X57705142Y-40034857D01*
X57705142Y-40034857D02*
X57990857Y-39892000D01*
X57990857Y-39892000D02*
X58705142Y-39892000D01*
X58705142Y-39892000D02*
X58990857Y-39749142D01*
X60705143Y-40034857D02*
X60990857Y-40034857D01*
X60133714Y-39177714D02*
X60419428Y-39034857D01*
X60419428Y-39034857D02*
X60990857Y-39034857D01*
X60990857Y-39034857D02*
X61276571Y-39177714D01*
X61276571Y-39177714D02*
X61419428Y-39463428D01*
X61419428Y-39463428D02*
X61419428Y-39606285D01*
X61419428Y-39606285D02*
X61276571Y-39892000D01*
X61276571Y-39892000D02*
X60990857Y-40034857D01*
X60990857Y-40034857D02*
X61276571Y-40177714D01*
X61276571Y-40177714D02*
X61419428Y-40463428D01*
X61419428Y-40463428D02*
X61419428Y-40606285D01*
X61419428Y-40606285D02*
X61276571Y-40892000D01*
X61276571Y-40892000D02*
X60990857Y-41034857D01*
X60990857Y-41034857D02*
X60419428Y-41034857D01*
X60419428Y-41034857D02*
X60133714Y-40892000D01*
X63990857Y-41034857D02*
X63990857Y-39463428D01*
X63990857Y-39463428D02*
X63847999Y-39177714D01*
X63847999Y-39177714D02*
X63562285Y-39034857D01*
X63562285Y-39034857D02*
X62990857Y-39034857D01*
X62990857Y-39034857D02*
X62705142Y-39177714D01*
X63990857Y-40892000D02*
X63705142Y-41034857D01*
X63705142Y-41034857D02*
X62990857Y-41034857D01*
X62990857Y-41034857D02*
X62705142Y-40892000D01*
X62705142Y-40892000D02*
X62562285Y-40606285D01*
X62562285Y-40606285D02*
X62562285Y-40320571D01*
X62562285Y-40320571D02*
X62705142Y-40034857D01*
X62705142Y-40034857D02*
X62990857Y-39892000D01*
X62990857Y-39892000D02*
X63705142Y-39892000D01*
X63705142Y-39892000D02*
X63990857Y-39749142D01*
X65276571Y-38320571D02*
X65419428Y-38177714D01*
X65419428Y-38177714D02*
X65705143Y-38034857D01*
X65705143Y-38034857D02*
X66419428Y-38034857D01*
X66419428Y-38034857D02*
X66705143Y-38177714D01*
X66705143Y-38177714D02*
X66848000Y-38320571D01*
X66848000Y-38320571D02*
X66990857Y-38606285D01*
X66990857Y-38606285D02*
X66990857Y-38892000D01*
X66990857Y-38892000D02*
X66848000Y-39320571D01*
X66848000Y-39320571D02*
X65133714Y-41034857D01*
X65133714Y-41034857D02*
X66990857Y-41034857D01*
D11*
X53205941Y-97313087D02*
X53205941Y-99098801D01*
X53205941Y-99098801D02*
X53086894Y-99455944D01*
X53086894Y-99455944D02*
X52848798Y-99694040D01*
X52848798Y-99694040D02*
X52491656Y-99813087D01*
X52491656Y-99813087D02*
X52253560Y-99813087D01*
X54753560Y-98384516D02*
X54515465Y-98265468D01*
X54515465Y-98265468D02*
X54396418Y-98146420D01*
X54396418Y-98146420D02*
X54277370Y-97908325D01*
X54277370Y-97908325D02*
X54277370Y-97789278D01*
X54277370Y-97789278D02*
X54396418Y-97551182D01*
X54396418Y-97551182D02*
X54515465Y-97432135D01*
X54515465Y-97432135D02*
X54753560Y-97313087D01*
X54753560Y-97313087D02*
X55229751Y-97313087D01*
X55229751Y-97313087D02*
X55467846Y-97432135D01*
X55467846Y-97432135D02*
X55586894Y-97551182D01*
X55586894Y-97551182D02*
X55705941Y-97789278D01*
X55705941Y-97789278D02*
X55705941Y-97908325D01*
X55705941Y-97908325D02*
X55586894Y-98146420D01*
X55586894Y-98146420D02*
X55467846Y-98265468D01*
X55467846Y-98265468D02*
X55229751Y-98384516D01*
X55229751Y-98384516D02*
X54753560Y-98384516D01*
X54753560Y-98384516D02*
X54515465Y-98503563D01*
X54515465Y-98503563D02*
X54396418Y-98622611D01*
X54396418Y-98622611D02*
X54277370Y-98860706D01*
X54277370Y-98860706D02*
X54277370Y-99336897D01*
X54277370Y-99336897D02*
X54396418Y-99574992D01*
X54396418Y-99574992D02*
X54515465Y-99694040D01*
X54515465Y-99694040D02*
X54753560Y-99813087D01*
X54753560Y-99813087D02*
X55229751Y-99813087D01*
X55229751Y-99813087D02*
X55467846Y-99694040D01*
X55467846Y-99694040D02*
X55586894Y-99574992D01*
X55586894Y-99574992D02*
X55705941Y-99336897D01*
X55705941Y-99336897D02*
X55705941Y-98860706D01*
X55705941Y-98860706D02*
X55586894Y-98622611D01*
X55586894Y-98622611D02*
X55467846Y-98503563D01*
X55467846Y-98503563D02*
X55229751Y-98384516D01*
D10*
X57347380Y-92747508D02*
X57395000Y-92795127D01*
X57395000Y-92795127D02*
X57442619Y-92937984D01*
X57442619Y-92937984D02*
X57442619Y-93033222D01*
X57442619Y-93033222D02*
X57395000Y-93176079D01*
X57395000Y-93176079D02*
X57299761Y-93271317D01*
X57299761Y-93271317D02*
X57204523Y-93318936D01*
X57204523Y-93318936D02*
X57014047Y-93366555D01*
X57014047Y-93366555D02*
X56871190Y-93366555D01*
X56871190Y-93366555D02*
X56680714Y-93318936D01*
X56680714Y-93318936D02*
X56585476Y-93271317D01*
X56585476Y-93271317D02*
X56490238Y-93176079D01*
X56490238Y-93176079D02*
X56442619Y-93033222D01*
X56442619Y-93033222D02*
X56442619Y-92937984D01*
X56442619Y-92937984D02*
X56490238Y-92795127D01*
X56490238Y-92795127D02*
X56537857Y-92747508D01*
X57442619Y-91795127D02*
X57442619Y-92366555D01*
X57442619Y-92080841D02*
X56442619Y-92080841D01*
X56442619Y-92080841D02*
X56585476Y-92176079D01*
X56585476Y-92176079D02*
X56680714Y-92271317D01*
X56680714Y-92271317D02*
X56728333Y-92366555D01*
X57442619Y-90842746D02*
X57442619Y-91414174D01*
X57442619Y-91128460D02*
X56442619Y-91128460D01*
X56442619Y-91128460D02*
X56585476Y-91223698D01*
X56585476Y-91223698D02*
X56680714Y-91318936D01*
X56680714Y-91318936D02*
X56728333Y-91414174D01*
X111703380Y-97122857D02*
X111751000Y-97170476D01*
X111751000Y-97170476D02*
X111798619Y-97313333D01*
X111798619Y-97313333D02*
X111798619Y-97408571D01*
X111798619Y-97408571D02*
X111751000Y-97551428D01*
X111751000Y-97551428D02*
X111655761Y-97646666D01*
X111655761Y-97646666D02*
X111560523Y-97694285D01*
X111560523Y-97694285D02*
X111370047Y-97741904D01*
X111370047Y-97741904D02*
X111227190Y-97741904D01*
X111227190Y-97741904D02*
X111036714Y-97694285D01*
X111036714Y-97694285D02*
X110941476Y-97646666D01*
X110941476Y-97646666D02*
X110846238Y-97551428D01*
X110846238Y-97551428D02*
X110798619Y-97408571D01*
X110798619Y-97408571D02*
X110798619Y-97313333D01*
X110798619Y-97313333D02*
X110846238Y-97170476D01*
X110846238Y-97170476D02*
X110893857Y-97122857D01*
X111798619Y-96170476D02*
X111798619Y-96741904D01*
X111798619Y-96456190D02*
X110798619Y-96456190D01*
X110798619Y-96456190D02*
X110941476Y-96551428D01*
X110941476Y-96551428D02*
X111036714Y-96646666D01*
X111036714Y-96646666D02*
X111084333Y-96741904D01*
X110798619Y-95551428D02*
X110798619Y-95456190D01*
X110798619Y-95456190D02*
X110846238Y-95360952D01*
X110846238Y-95360952D02*
X110893857Y-95313333D01*
X110893857Y-95313333D02*
X110989095Y-95265714D01*
X110989095Y-95265714D02*
X111179571Y-95218095D01*
X111179571Y-95218095D02*
X111417666Y-95218095D01*
X111417666Y-95218095D02*
X111608142Y-95265714D01*
X111608142Y-95265714D02*
X111703380Y-95313333D01*
X111703380Y-95313333D02*
X111751000Y-95360952D01*
X111751000Y-95360952D02*
X111798619Y-95456190D01*
X111798619Y-95456190D02*
X111798619Y-95551428D01*
X111798619Y-95551428D02*
X111751000Y-95646666D01*
X111751000Y-95646666D02*
X111703380Y-95694285D01*
X111703380Y-95694285D02*
X111608142Y-95741904D01*
X111608142Y-95741904D02*
X111417666Y-95789523D01*
X111417666Y-95789523D02*
X111179571Y-95789523D01*
X111179571Y-95789523D02*
X110989095Y-95741904D01*
X110989095Y-95741904D02*
X110893857Y-95694285D01*
X110893857Y-95694285D02*
X110846238Y-95646666D01*
X110846238Y-95646666D02*
X110798619Y-95551428D01*
X72509142Y-44150619D02*
X72175809Y-43674428D01*
X71937714Y-44150619D02*
X71937714Y-43150619D01*
X71937714Y-43150619D02*
X72318666Y-43150619D01*
X72318666Y-43150619D02*
X72413904Y-43198238D01*
X72413904Y-43198238D02*
X72461523Y-43245857D01*
X72461523Y-43245857D02*
X72509142Y-43341095D01*
X72509142Y-43341095D02*
X72509142Y-43483952D01*
X72509142Y-43483952D02*
X72461523Y-43579190D01*
X72461523Y-43579190D02*
X72413904Y-43626809D01*
X72413904Y-43626809D02*
X72318666Y-43674428D01*
X72318666Y-43674428D02*
X71937714Y-43674428D01*
X72890095Y-43245857D02*
X72937714Y-43198238D01*
X72937714Y-43198238D02*
X73032952Y-43150619D01*
X73032952Y-43150619D02*
X73271047Y-43150619D01*
X73271047Y-43150619D02*
X73366285Y-43198238D01*
X73366285Y-43198238D02*
X73413904Y-43245857D01*
X73413904Y-43245857D02*
X73461523Y-43341095D01*
X73461523Y-43341095D02*
X73461523Y-43436333D01*
X73461523Y-43436333D02*
X73413904Y-43579190D01*
X73413904Y-43579190D02*
X72842476Y-44150619D01*
X72842476Y-44150619D02*
X73461523Y-44150619D01*
X73794857Y-43150619D02*
X74461523Y-43150619D01*
X74461523Y-43150619D02*
X74032952Y-44150619D01*
X73349380Y-92747508D02*
X73397000Y-92795127D01*
X73397000Y-92795127D02*
X73444619Y-92937984D01*
X73444619Y-92937984D02*
X73444619Y-93033222D01*
X73444619Y-93033222D02*
X73397000Y-93176079D01*
X73397000Y-93176079D02*
X73301761Y-93271317D01*
X73301761Y-93271317D02*
X73206523Y-93318936D01*
X73206523Y-93318936D02*
X73016047Y-93366555D01*
X73016047Y-93366555D02*
X72873190Y-93366555D01*
X72873190Y-93366555D02*
X72682714Y-93318936D01*
X72682714Y-93318936D02*
X72587476Y-93271317D01*
X72587476Y-93271317D02*
X72492238Y-93176079D01*
X72492238Y-93176079D02*
X72444619Y-93033222D01*
X72444619Y-93033222D02*
X72444619Y-92937984D01*
X72444619Y-92937984D02*
X72492238Y-92795127D01*
X72492238Y-92795127D02*
X72539857Y-92747508D01*
X73444619Y-91795127D02*
X73444619Y-92366555D01*
X73444619Y-92080841D02*
X72444619Y-92080841D01*
X72444619Y-92080841D02*
X72587476Y-92176079D01*
X72587476Y-92176079D02*
X72682714Y-92271317D01*
X72682714Y-92271317D02*
X72730333Y-92366555D01*
X72539857Y-91414174D02*
X72492238Y-91366555D01*
X72492238Y-91366555D02*
X72444619Y-91271317D01*
X72444619Y-91271317D02*
X72444619Y-91033222D01*
X72444619Y-91033222D02*
X72492238Y-90937984D01*
X72492238Y-90937984D02*
X72539857Y-90890365D01*
X72539857Y-90890365D02*
X72635095Y-90842746D01*
X72635095Y-90842746D02*
X72730333Y-90842746D01*
X72730333Y-90842746D02*
X72873190Y-90890365D01*
X72873190Y-90890365D02*
X73444619Y-91461793D01*
X73444619Y-91461793D02*
X73444619Y-90842746D01*
D11*
X109910666Y-139626547D02*
X109910666Y-141412261D01*
X109910666Y-141412261D02*
X109791619Y-141769404D01*
X109791619Y-141769404D02*
X109553523Y-142007500D01*
X109553523Y-142007500D02*
X109196381Y-142126547D01*
X109196381Y-142126547D02*
X108958285Y-142126547D01*
X112172571Y-140459880D02*
X112172571Y-142126547D01*
X111577333Y-139507500D02*
X110982095Y-141293214D01*
X110982095Y-141293214D02*
X112529714Y-141293214D01*
X77144666Y-138864547D02*
X77144666Y-140650261D01*
X77144666Y-140650261D02*
X77025619Y-141007404D01*
X77025619Y-141007404D02*
X76787523Y-141245500D01*
X76787523Y-141245500D02*
X76430381Y-141364547D01*
X76430381Y-141364547D02*
X76192285Y-141364547D01*
X78097047Y-138864547D02*
X79644666Y-138864547D01*
X79644666Y-138864547D02*
X78811333Y-139816928D01*
X78811333Y-139816928D02*
X79168476Y-139816928D01*
X79168476Y-139816928D02*
X79406571Y-139935976D01*
X79406571Y-139935976D02*
X79525619Y-140055023D01*
X79525619Y-140055023D02*
X79644666Y-140293119D01*
X79644666Y-140293119D02*
X79644666Y-140888357D01*
X79644666Y-140888357D02*
X79525619Y-141126452D01*
X79525619Y-141126452D02*
X79406571Y-141245500D01*
X79406571Y-141245500D02*
X79168476Y-141364547D01*
X79168476Y-141364547D02*
X78454190Y-141364547D01*
X78454190Y-141364547D02*
X78216095Y-141245500D01*
X78216095Y-141245500D02*
X78097047Y-141126452D01*
D10*
X159287380Y-107797857D02*
X159335000Y-107845476D01*
X159335000Y-107845476D02*
X159382619Y-107988333D01*
X159382619Y-107988333D02*
X159382619Y-108083571D01*
X159382619Y-108083571D02*
X159335000Y-108226428D01*
X159335000Y-108226428D02*
X159239761Y-108321666D01*
X159239761Y-108321666D02*
X159144523Y-108369285D01*
X159144523Y-108369285D02*
X158954047Y-108416904D01*
X158954047Y-108416904D02*
X158811190Y-108416904D01*
X158811190Y-108416904D02*
X158620714Y-108369285D01*
X158620714Y-108369285D02*
X158525476Y-108321666D01*
X158525476Y-108321666D02*
X158430238Y-108226428D01*
X158430238Y-108226428D02*
X158382619Y-108083571D01*
X158382619Y-108083571D02*
X158382619Y-107988333D01*
X158382619Y-107988333D02*
X158430238Y-107845476D01*
X158430238Y-107845476D02*
X158477857Y-107797857D01*
X159382619Y-106845476D02*
X159382619Y-107416904D01*
X159382619Y-107131190D02*
X158382619Y-107131190D01*
X158382619Y-107131190D02*
X158525476Y-107226428D01*
X158525476Y-107226428D02*
X158620714Y-107321666D01*
X158620714Y-107321666D02*
X158668333Y-107416904D01*
X158811190Y-106274047D02*
X158763571Y-106369285D01*
X158763571Y-106369285D02*
X158715952Y-106416904D01*
X158715952Y-106416904D02*
X158620714Y-106464523D01*
X158620714Y-106464523D02*
X158573095Y-106464523D01*
X158573095Y-106464523D02*
X158477857Y-106416904D01*
X158477857Y-106416904D02*
X158430238Y-106369285D01*
X158430238Y-106369285D02*
X158382619Y-106274047D01*
X158382619Y-106274047D02*
X158382619Y-106083571D01*
X158382619Y-106083571D02*
X158430238Y-105988333D01*
X158430238Y-105988333D02*
X158477857Y-105940714D01*
X158477857Y-105940714D02*
X158573095Y-105893095D01*
X158573095Y-105893095D02*
X158620714Y-105893095D01*
X158620714Y-105893095D02*
X158715952Y-105940714D01*
X158715952Y-105940714D02*
X158763571Y-105988333D01*
X158763571Y-105988333D02*
X158811190Y-106083571D01*
X158811190Y-106083571D02*
X158811190Y-106274047D01*
X158811190Y-106274047D02*
X158858809Y-106369285D01*
X158858809Y-106369285D02*
X158906428Y-106416904D01*
X158906428Y-106416904D02*
X159001666Y-106464523D01*
X159001666Y-106464523D02*
X159192142Y-106464523D01*
X159192142Y-106464523D02*
X159287380Y-106416904D01*
X159287380Y-106416904D02*
X159335000Y-106369285D01*
X159335000Y-106369285D02*
X159382619Y-106274047D01*
X159382619Y-106274047D02*
X159382619Y-106083571D01*
X159382619Y-106083571D02*
X159335000Y-105988333D01*
X159335000Y-105988333D02*
X159287380Y-105940714D01*
X159287380Y-105940714D02*
X159192142Y-105893095D01*
X159192142Y-105893095D02*
X159001666Y-105893095D01*
X159001666Y-105893095D02*
X158906428Y-105940714D01*
X158906428Y-105940714D02*
X158858809Y-105988333D01*
X158858809Y-105988333D02*
X158811190Y-106083571D01*
D14*
X162022619Y-72215333D02*
X162736904Y-72215333D01*
X162736904Y-72215333D02*
X162879761Y-72262952D01*
X162879761Y-72262952D02*
X162975000Y-72358190D01*
X162975000Y-72358190D02*
X163022619Y-72501047D01*
X163022619Y-72501047D02*
X163022619Y-72596285D01*
X163022619Y-71691523D02*
X163022619Y-71501047D01*
X163022619Y-71501047D02*
X162975000Y-71405809D01*
X162975000Y-71405809D02*
X162927380Y-71358190D01*
X162927380Y-71358190D02*
X162784523Y-71262952D01*
X162784523Y-71262952D02*
X162594047Y-71215333D01*
X162594047Y-71215333D02*
X162213095Y-71215333D01*
X162213095Y-71215333D02*
X162117857Y-71262952D01*
X162117857Y-71262952D02*
X162070238Y-71310571D01*
X162070238Y-71310571D02*
X162022619Y-71405809D01*
X162022619Y-71405809D02*
X162022619Y-71596285D01*
X162022619Y-71596285D02*
X162070238Y-71691523D01*
X162070238Y-71691523D02*
X162117857Y-71739142D01*
X162117857Y-71739142D02*
X162213095Y-71786761D01*
X162213095Y-71786761D02*
X162451190Y-71786761D01*
X162451190Y-71786761D02*
X162546428Y-71739142D01*
X162546428Y-71739142D02*
X162594047Y-71691523D01*
X162594047Y-71691523D02*
X162641666Y-71596285D01*
X162641666Y-71596285D02*
X162641666Y-71405809D01*
X162641666Y-71405809D02*
X162594047Y-71310571D01*
X162594047Y-71310571D02*
X162546428Y-71262952D01*
X162546428Y-71262952D02*
X162451190Y-71215333D01*
D10*
X75177619Y-140438094D02*
X74177619Y-140438094D01*
X74177619Y-140438094D02*
X74177619Y-140199999D01*
X74177619Y-140199999D02*
X74225238Y-140057142D01*
X74225238Y-140057142D02*
X74320476Y-139961904D01*
X74320476Y-139961904D02*
X74415714Y-139914285D01*
X74415714Y-139914285D02*
X74606190Y-139866666D01*
X74606190Y-139866666D02*
X74749047Y-139866666D01*
X74749047Y-139866666D02*
X74939523Y-139914285D01*
X74939523Y-139914285D02*
X75034761Y-139961904D01*
X75034761Y-139961904D02*
X75130000Y-140057142D01*
X75130000Y-140057142D02*
X75177619Y-140199999D01*
X75177619Y-140199999D02*
X75177619Y-140438094D01*
X75177619Y-138914285D02*
X75177619Y-139485713D01*
X75177619Y-139199999D02*
X74177619Y-139199999D01*
X74177619Y-139199999D02*
X74320476Y-139295237D01*
X74320476Y-139295237D02*
X74415714Y-139390475D01*
X74415714Y-139390475D02*
X74463333Y-139485713D01*
D11*
X53030347Y-139028625D02*
X53030347Y-140814339D01*
X53030347Y-140814339D02*
X52911300Y-141171482D01*
X52911300Y-141171482D02*
X52673204Y-141409578D01*
X52673204Y-141409578D02*
X52316062Y-141528625D01*
X52316062Y-141528625D02*
X52077966Y-141528625D01*
X54101776Y-139266720D02*
X54220824Y-139147673D01*
X54220824Y-139147673D02*
X54458919Y-139028625D01*
X54458919Y-139028625D02*
X55054157Y-139028625D01*
X55054157Y-139028625D02*
X55292252Y-139147673D01*
X55292252Y-139147673D02*
X55411300Y-139266720D01*
X55411300Y-139266720D02*
X55530347Y-139504816D01*
X55530347Y-139504816D02*
X55530347Y-139742911D01*
X55530347Y-139742911D02*
X55411300Y-140100054D01*
X55411300Y-140100054D02*
X53982728Y-141528625D01*
X53982728Y-141528625D02*
X55530347Y-141528625D01*
D10*
X158212619Y-59261333D02*
X158926904Y-59261333D01*
X158926904Y-59261333D02*
X159069761Y-59308952D01*
X159069761Y-59308952D02*
X159165000Y-59404190D01*
X159165000Y-59404190D02*
X159212619Y-59547047D01*
X159212619Y-59547047D02*
X159212619Y-59642285D01*
X158212619Y-58356571D02*
X158212619Y-58547047D01*
X158212619Y-58547047D02*
X158260238Y-58642285D01*
X158260238Y-58642285D02*
X158307857Y-58689904D01*
X158307857Y-58689904D02*
X158450714Y-58785142D01*
X158450714Y-58785142D02*
X158641190Y-58832761D01*
X158641190Y-58832761D02*
X159022142Y-58832761D01*
X159022142Y-58832761D02*
X159117380Y-58785142D01*
X159117380Y-58785142D02*
X159165000Y-58737523D01*
X159165000Y-58737523D02*
X159212619Y-58642285D01*
X159212619Y-58642285D02*
X159212619Y-58451809D01*
X159212619Y-58451809D02*
X159165000Y-58356571D01*
X159165000Y-58356571D02*
X159117380Y-58308952D01*
X159117380Y-58308952D02*
X159022142Y-58261333D01*
X159022142Y-58261333D02*
X158784047Y-58261333D01*
X158784047Y-58261333D02*
X158688809Y-58308952D01*
X158688809Y-58308952D02*
X158641190Y-58356571D01*
X158641190Y-58356571D02*
X158593571Y-58451809D01*
X158593571Y-58451809D02*
X158593571Y-58642285D01*
X158593571Y-58642285D02*
X158641190Y-58737523D01*
X158641190Y-58737523D02*
X158688809Y-58785142D01*
X158688809Y-58785142D02*
X158784047Y-58832761D01*
D14*
X63198476Y-74138619D02*
X63198476Y-74852904D01*
X63198476Y-74852904D02*
X63150857Y-74995761D01*
X63150857Y-74995761D02*
X63055619Y-75091000D01*
X63055619Y-75091000D02*
X62912762Y-75138619D01*
X62912762Y-75138619D02*
X62817524Y-75138619D01*
X64198476Y-75138619D02*
X63627048Y-75138619D01*
X63912762Y-75138619D02*
X63912762Y-74138619D01*
X63912762Y-74138619D02*
X63817524Y-74281476D01*
X63817524Y-74281476D02*
X63722286Y-74376714D01*
X63722286Y-74376714D02*
X63627048Y-74424333D01*
X64769905Y-74567190D02*
X64674667Y-74519571D01*
X64674667Y-74519571D02*
X64627048Y-74471952D01*
X64627048Y-74471952D02*
X64579429Y-74376714D01*
X64579429Y-74376714D02*
X64579429Y-74329095D01*
X64579429Y-74329095D02*
X64627048Y-74233857D01*
X64627048Y-74233857D02*
X64674667Y-74186238D01*
X64674667Y-74186238D02*
X64769905Y-74138619D01*
X64769905Y-74138619D02*
X64960381Y-74138619D01*
X64960381Y-74138619D02*
X65055619Y-74186238D01*
X65055619Y-74186238D02*
X65103238Y-74233857D01*
X65103238Y-74233857D02*
X65150857Y-74329095D01*
X65150857Y-74329095D02*
X65150857Y-74376714D01*
X65150857Y-74376714D02*
X65103238Y-74471952D01*
X65103238Y-74471952D02*
X65055619Y-74519571D01*
X65055619Y-74519571D02*
X64960381Y-74567190D01*
X64960381Y-74567190D02*
X64769905Y-74567190D01*
X64769905Y-74567190D02*
X64674667Y-74614809D01*
X64674667Y-74614809D02*
X64627048Y-74662428D01*
X64627048Y-74662428D02*
X64579429Y-74757666D01*
X64579429Y-74757666D02*
X64579429Y-74948142D01*
X64579429Y-74948142D02*
X64627048Y-75043380D01*
X64627048Y-75043380D02*
X64674667Y-75091000D01*
X64674667Y-75091000D02*
X64769905Y-75138619D01*
X64769905Y-75138619D02*
X64960381Y-75138619D01*
X64960381Y-75138619D02*
X65055619Y-75091000D01*
X65055619Y-75091000D02*
X65103238Y-75043380D01*
X65103238Y-75043380D02*
X65150857Y-74948142D01*
X65150857Y-74948142D02*
X65150857Y-74757666D01*
X65150857Y-74757666D02*
X65103238Y-74662428D01*
X65103238Y-74662428D02*
X65055619Y-74614809D01*
X65055619Y-74614809D02*
X64960381Y-74567190D01*
D10*
X86899809Y-100316428D02*
X86899809Y-100792619D01*
X86566476Y-99792619D02*
X86899809Y-100316428D01*
X86899809Y-100316428D02*
X87233142Y-99792619D01*
X88090285Y-100792619D02*
X87518857Y-100792619D01*
X87804571Y-100792619D02*
X87804571Y-99792619D01*
X87804571Y-99792619D02*
X87709333Y-99935476D01*
X87709333Y-99935476D02*
X87614095Y-100030714D01*
X87614095Y-100030714D02*
X87518857Y-100078333D01*
X83431142Y-46944619D02*
X83097809Y-46468428D01*
X82859714Y-46944619D02*
X82859714Y-45944619D01*
X82859714Y-45944619D02*
X83240666Y-45944619D01*
X83240666Y-45944619D02*
X83335904Y-45992238D01*
X83335904Y-45992238D02*
X83383523Y-46039857D01*
X83383523Y-46039857D02*
X83431142Y-46135095D01*
X83431142Y-46135095D02*
X83431142Y-46277952D01*
X83431142Y-46277952D02*
X83383523Y-46373190D01*
X83383523Y-46373190D02*
X83335904Y-46420809D01*
X83335904Y-46420809D02*
X83240666Y-46468428D01*
X83240666Y-46468428D02*
X82859714Y-46468428D01*
X83812095Y-46039857D02*
X83859714Y-45992238D01*
X83859714Y-45992238D02*
X83954952Y-45944619D01*
X83954952Y-45944619D02*
X84193047Y-45944619D01*
X84193047Y-45944619D02*
X84288285Y-45992238D01*
X84288285Y-45992238D02*
X84335904Y-46039857D01*
X84335904Y-46039857D02*
X84383523Y-46135095D01*
X84383523Y-46135095D02*
X84383523Y-46230333D01*
X84383523Y-46230333D02*
X84335904Y-46373190D01*
X84335904Y-46373190D02*
X83764476Y-46944619D01*
X83764476Y-46944619D02*
X84383523Y-46944619D01*
X84954952Y-46373190D02*
X84859714Y-46325571D01*
X84859714Y-46325571D02*
X84812095Y-46277952D01*
X84812095Y-46277952D02*
X84764476Y-46182714D01*
X84764476Y-46182714D02*
X84764476Y-46135095D01*
X84764476Y-46135095D02*
X84812095Y-46039857D01*
X84812095Y-46039857D02*
X84859714Y-45992238D01*
X84859714Y-45992238D02*
X84954952Y-45944619D01*
X84954952Y-45944619D02*
X85145428Y-45944619D01*
X85145428Y-45944619D02*
X85240666Y-45992238D01*
X85240666Y-45992238D02*
X85288285Y-46039857D01*
X85288285Y-46039857D02*
X85335904Y-46135095D01*
X85335904Y-46135095D02*
X85335904Y-46182714D01*
X85335904Y-46182714D02*
X85288285Y-46277952D01*
X85288285Y-46277952D02*
X85240666Y-46325571D01*
X85240666Y-46325571D02*
X85145428Y-46373190D01*
X85145428Y-46373190D02*
X84954952Y-46373190D01*
X84954952Y-46373190D02*
X84859714Y-46420809D01*
X84859714Y-46420809D02*
X84812095Y-46468428D01*
X84812095Y-46468428D02*
X84764476Y-46563666D01*
X84764476Y-46563666D02*
X84764476Y-46754142D01*
X84764476Y-46754142D02*
X84812095Y-46849380D01*
X84812095Y-46849380D02*
X84859714Y-46897000D01*
X84859714Y-46897000D02*
X84954952Y-46944619D01*
X84954952Y-46944619D02*
X85145428Y-46944619D01*
X85145428Y-46944619D02*
X85240666Y-46897000D01*
X85240666Y-46897000D02*
X85288285Y-46849380D01*
X85288285Y-46849380D02*
X85335904Y-46754142D01*
X85335904Y-46754142D02*
X85335904Y-46563666D01*
X85335904Y-46563666D02*
X85288285Y-46468428D01*
X85288285Y-46468428D02*
X85240666Y-46420809D01*
X85240666Y-46420809D02*
X85145428Y-46373190D01*
X116258619Y-124713904D02*
X117068142Y-124713904D01*
X117068142Y-124713904D02*
X117163380Y-124666285D01*
X117163380Y-124666285D02*
X117211000Y-124618666D01*
X117211000Y-124618666D02*
X117258619Y-124523428D01*
X117258619Y-124523428D02*
X117258619Y-124332952D01*
X117258619Y-124332952D02*
X117211000Y-124237714D01*
X117211000Y-124237714D02*
X117163380Y-124190095D01*
X117163380Y-124190095D02*
X117068142Y-124142476D01*
X117068142Y-124142476D02*
X116258619Y-124142476D01*
X116258619Y-123761523D02*
X116258619Y-123142476D01*
X116258619Y-123142476D02*
X116639571Y-123475809D01*
X116639571Y-123475809D02*
X116639571Y-123332952D01*
X116639571Y-123332952D02*
X116687190Y-123237714D01*
X116687190Y-123237714D02*
X116734809Y-123190095D01*
X116734809Y-123190095D02*
X116830047Y-123142476D01*
X116830047Y-123142476D02*
X117068142Y-123142476D01*
X117068142Y-123142476D02*
X117163380Y-123190095D01*
X117163380Y-123190095D02*
X117211000Y-123237714D01*
X117211000Y-123237714D02*
X117258619Y-123332952D01*
X117258619Y-123332952D02*
X117258619Y-123618666D01*
X117258619Y-123618666D02*
X117211000Y-123713904D01*
X117211000Y-123713904D02*
X117163380Y-123761523D01*
X133469142Y-65137380D02*
X133421523Y-65185000D01*
X133421523Y-65185000D02*
X133278666Y-65232619D01*
X133278666Y-65232619D02*
X133183428Y-65232619D01*
X133183428Y-65232619D02*
X133040571Y-65185000D01*
X133040571Y-65185000D02*
X132945333Y-65089761D01*
X132945333Y-65089761D02*
X132897714Y-64994523D01*
X132897714Y-64994523D02*
X132850095Y-64804047D01*
X132850095Y-64804047D02*
X132850095Y-64661190D01*
X132850095Y-64661190D02*
X132897714Y-64470714D01*
X132897714Y-64470714D02*
X132945333Y-64375476D01*
X132945333Y-64375476D02*
X133040571Y-64280238D01*
X133040571Y-64280238D02*
X133183428Y-64232619D01*
X133183428Y-64232619D02*
X133278666Y-64232619D01*
X133278666Y-64232619D02*
X133421523Y-64280238D01*
X133421523Y-64280238D02*
X133469142Y-64327857D01*
X133850095Y-64327857D02*
X133897714Y-64280238D01*
X133897714Y-64280238D02*
X133992952Y-64232619D01*
X133992952Y-64232619D02*
X134231047Y-64232619D01*
X134231047Y-64232619D02*
X134326285Y-64280238D01*
X134326285Y-64280238D02*
X134373904Y-64327857D01*
X134373904Y-64327857D02*
X134421523Y-64423095D01*
X134421523Y-64423095D02*
X134421523Y-64518333D01*
X134421523Y-64518333D02*
X134373904Y-64661190D01*
X134373904Y-64661190D02*
X133802476Y-65232619D01*
X133802476Y-65232619D02*
X134421523Y-65232619D01*
X135278666Y-64565952D02*
X135278666Y-65232619D01*
X135040571Y-64185000D02*
X134802476Y-64899285D01*
X134802476Y-64899285D02*
X135421523Y-64899285D01*
X112442666Y-87092619D02*
X112442666Y-87806904D01*
X112442666Y-87806904D02*
X112395047Y-87949761D01*
X112395047Y-87949761D02*
X112299809Y-88045000D01*
X112299809Y-88045000D02*
X112156952Y-88092619D01*
X112156952Y-88092619D02*
X112061714Y-88092619D01*
X113395047Y-87092619D02*
X112918857Y-87092619D01*
X112918857Y-87092619D02*
X112871238Y-87568809D01*
X112871238Y-87568809D02*
X112918857Y-87521190D01*
X112918857Y-87521190D02*
X113014095Y-87473571D01*
X113014095Y-87473571D02*
X113252190Y-87473571D01*
X113252190Y-87473571D02*
X113347428Y-87521190D01*
X113347428Y-87521190D02*
X113395047Y-87568809D01*
X113395047Y-87568809D02*
X113442666Y-87664047D01*
X113442666Y-87664047D02*
X113442666Y-87902142D01*
X113442666Y-87902142D02*
X113395047Y-87997380D01*
X113395047Y-87997380D02*
X113347428Y-88045000D01*
X113347428Y-88045000D02*
X113252190Y-88092619D01*
X113252190Y-88092619D02*
X113014095Y-88092619D01*
X113014095Y-88092619D02*
X112918857Y-88045000D01*
X112918857Y-88045000D02*
X112871238Y-87997380D01*
X43642619Y-89066666D02*
X43642619Y-89542856D01*
X43642619Y-89542856D02*
X42642619Y-89542856D01*
X42642619Y-88828570D02*
X42642619Y-88209523D01*
X42642619Y-88209523D02*
X43023571Y-88542856D01*
X43023571Y-88542856D02*
X43023571Y-88399999D01*
X43023571Y-88399999D02*
X43071190Y-88304761D01*
X43071190Y-88304761D02*
X43118809Y-88257142D01*
X43118809Y-88257142D02*
X43214047Y-88209523D01*
X43214047Y-88209523D02*
X43452142Y-88209523D01*
X43452142Y-88209523D02*
X43547380Y-88257142D01*
X43547380Y-88257142D02*
X43595000Y-88304761D01*
X43595000Y-88304761D02*
X43642619Y-88399999D01*
X43642619Y-88399999D02*
X43642619Y-88685713D01*
X43642619Y-88685713D02*
X43595000Y-88780951D01*
X43595000Y-88780951D02*
X43547380Y-88828570D01*
X88979142Y-64589380D02*
X88931523Y-64637000D01*
X88931523Y-64637000D02*
X88788666Y-64684619D01*
X88788666Y-64684619D02*
X88693428Y-64684619D01*
X88693428Y-64684619D02*
X88550571Y-64637000D01*
X88550571Y-64637000D02*
X88455333Y-64541761D01*
X88455333Y-64541761D02*
X88407714Y-64446523D01*
X88407714Y-64446523D02*
X88360095Y-64256047D01*
X88360095Y-64256047D02*
X88360095Y-64113190D01*
X88360095Y-64113190D02*
X88407714Y-63922714D01*
X88407714Y-63922714D02*
X88455333Y-63827476D01*
X88455333Y-63827476D02*
X88550571Y-63732238D01*
X88550571Y-63732238D02*
X88693428Y-63684619D01*
X88693428Y-63684619D02*
X88788666Y-63684619D01*
X88788666Y-63684619D02*
X88931523Y-63732238D01*
X88931523Y-63732238D02*
X88979142Y-63779857D01*
X89360095Y-63779857D02*
X89407714Y-63732238D01*
X89407714Y-63732238D02*
X89502952Y-63684619D01*
X89502952Y-63684619D02*
X89741047Y-63684619D01*
X89741047Y-63684619D02*
X89836285Y-63732238D01*
X89836285Y-63732238D02*
X89883904Y-63779857D01*
X89883904Y-63779857D02*
X89931523Y-63875095D01*
X89931523Y-63875095D02*
X89931523Y-63970333D01*
X89931523Y-63970333D02*
X89883904Y-64113190D01*
X89883904Y-64113190D02*
X89312476Y-64684619D01*
X89312476Y-64684619D02*
X89931523Y-64684619D01*
X90264857Y-63684619D02*
X90883904Y-63684619D01*
X90883904Y-63684619D02*
X90550571Y-64065571D01*
X90550571Y-64065571D02*
X90693428Y-64065571D01*
X90693428Y-64065571D02*
X90788666Y-64113190D01*
X90788666Y-64113190D02*
X90836285Y-64160809D01*
X90836285Y-64160809D02*
X90883904Y-64256047D01*
X90883904Y-64256047D02*
X90883904Y-64494142D01*
X90883904Y-64494142D02*
X90836285Y-64589380D01*
X90836285Y-64589380D02*
X90788666Y-64637000D01*
X90788666Y-64637000D02*
X90693428Y-64684619D01*
X90693428Y-64684619D02*
X90407714Y-64684619D01*
X90407714Y-64684619D02*
X90312476Y-64637000D01*
X90312476Y-64637000D02*
X90264857Y-64589380D01*
D14*
X102060476Y-49954619D02*
X102060476Y-50668904D01*
X102060476Y-50668904D02*
X102012857Y-50811761D01*
X102012857Y-50811761D02*
X101917619Y-50907000D01*
X101917619Y-50907000D02*
X101774762Y-50954619D01*
X101774762Y-50954619D02*
X101679524Y-50954619D01*
X103060476Y-50954619D02*
X102489048Y-50954619D01*
X102774762Y-50954619D02*
X102774762Y-49954619D01*
X102774762Y-49954619D02*
X102679524Y-50097476D01*
X102679524Y-50097476D02*
X102584286Y-50192714D01*
X102584286Y-50192714D02*
X102489048Y-50240333D01*
X103441429Y-50049857D02*
X103489048Y-50002238D01*
X103489048Y-50002238D02*
X103584286Y-49954619D01*
X103584286Y-49954619D02*
X103822381Y-49954619D01*
X103822381Y-49954619D02*
X103917619Y-50002238D01*
X103917619Y-50002238D02*
X103965238Y-50049857D01*
X103965238Y-50049857D02*
X104012857Y-50145095D01*
X104012857Y-50145095D02*
X104012857Y-50240333D01*
X104012857Y-50240333D02*
X103965238Y-50383190D01*
X103965238Y-50383190D02*
X103393810Y-50954619D01*
X103393810Y-50954619D02*
X104012857Y-50954619D01*
D10*
X84701142Y-38721380D02*
X84653523Y-38769000D01*
X84653523Y-38769000D02*
X84510666Y-38816619D01*
X84510666Y-38816619D02*
X84415428Y-38816619D01*
X84415428Y-38816619D02*
X84272571Y-38769000D01*
X84272571Y-38769000D02*
X84177333Y-38673761D01*
X84177333Y-38673761D02*
X84129714Y-38578523D01*
X84129714Y-38578523D02*
X84082095Y-38388047D01*
X84082095Y-38388047D02*
X84082095Y-38245190D01*
X84082095Y-38245190D02*
X84129714Y-38054714D01*
X84129714Y-38054714D02*
X84177333Y-37959476D01*
X84177333Y-37959476D02*
X84272571Y-37864238D01*
X84272571Y-37864238D02*
X84415428Y-37816619D01*
X84415428Y-37816619D02*
X84510666Y-37816619D01*
X84510666Y-37816619D02*
X84653523Y-37864238D01*
X84653523Y-37864238D02*
X84701142Y-37911857D01*
X85082095Y-37911857D02*
X85129714Y-37864238D01*
X85129714Y-37864238D02*
X85224952Y-37816619D01*
X85224952Y-37816619D02*
X85463047Y-37816619D01*
X85463047Y-37816619D02*
X85558285Y-37864238D01*
X85558285Y-37864238D02*
X85605904Y-37911857D01*
X85605904Y-37911857D02*
X85653523Y-38007095D01*
X85653523Y-38007095D02*
X85653523Y-38102333D01*
X85653523Y-38102333D02*
X85605904Y-38245190D01*
X85605904Y-38245190D02*
X85034476Y-38816619D01*
X85034476Y-38816619D02*
X85653523Y-38816619D01*
X86558285Y-37816619D02*
X86082095Y-37816619D01*
X86082095Y-37816619D02*
X86034476Y-38292809D01*
X86034476Y-38292809D02*
X86082095Y-38245190D01*
X86082095Y-38245190D02*
X86177333Y-38197571D01*
X86177333Y-38197571D02*
X86415428Y-38197571D01*
X86415428Y-38197571D02*
X86510666Y-38245190D01*
X86510666Y-38245190D02*
X86558285Y-38292809D01*
X86558285Y-38292809D02*
X86605904Y-38388047D01*
X86605904Y-38388047D02*
X86605904Y-38626142D01*
X86605904Y-38626142D02*
X86558285Y-38721380D01*
X86558285Y-38721380D02*
X86510666Y-38769000D01*
X86510666Y-38769000D02*
X86415428Y-38816619D01*
X86415428Y-38816619D02*
X86177333Y-38816619D01*
X86177333Y-38816619D02*
X86082095Y-38769000D01*
X86082095Y-38769000D02*
X86034476Y-38721380D01*
D11*
X51570190Y-126672547D02*
X51570190Y-128458261D01*
X51570190Y-128458261D02*
X51451143Y-128815404D01*
X51451143Y-128815404D02*
X51213047Y-129053500D01*
X51213047Y-129053500D02*
X50855905Y-129172547D01*
X50855905Y-129172547D02*
X50617809Y-129172547D01*
X54070190Y-129172547D02*
X52641619Y-129172547D01*
X53355905Y-129172547D02*
X53355905Y-126672547D01*
X53355905Y-126672547D02*
X53117809Y-127029690D01*
X53117809Y-127029690D02*
X52879714Y-127267785D01*
X52879714Y-127267785D02*
X52641619Y-127386833D01*
X55617809Y-126672547D02*
X55855904Y-126672547D01*
X55855904Y-126672547D02*
X56094000Y-126791595D01*
X56094000Y-126791595D02*
X56213047Y-126910642D01*
X56213047Y-126910642D02*
X56332095Y-127148738D01*
X56332095Y-127148738D02*
X56451142Y-127624928D01*
X56451142Y-127624928D02*
X56451142Y-128220166D01*
X56451142Y-128220166D02*
X56332095Y-128696357D01*
X56332095Y-128696357D02*
X56213047Y-128934452D01*
X56213047Y-128934452D02*
X56094000Y-129053500D01*
X56094000Y-129053500D02*
X55855904Y-129172547D01*
X55855904Y-129172547D02*
X55617809Y-129172547D01*
X55617809Y-129172547D02*
X55379714Y-129053500D01*
X55379714Y-129053500D02*
X55260666Y-128934452D01*
X55260666Y-128934452D02*
X55141619Y-128696357D01*
X55141619Y-128696357D02*
X55022571Y-128220166D01*
X55022571Y-128220166D02*
X55022571Y-127624928D01*
X55022571Y-127624928D02*
X55141619Y-127148738D01*
X55141619Y-127148738D02*
X55260666Y-126910642D01*
X55260666Y-126910642D02*
X55379714Y-126791595D01*
X55379714Y-126791595D02*
X55617809Y-126672547D01*
D10*
X65502619Y-122245333D02*
X66216904Y-122245333D01*
X66216904Y-122245333D02*
X66359761Y-122292952D01*
X66359761Y-122292952D02*
X66455000Y-122388190D01*
X66455000Y-122388190D02*
X66502619Y-122531047D01*
X66502619Y-122531047D02*
X66502619Y-122626285D01*
X66502619Y-121769142D02*
X65502619Y-121769142D01*
X65502619Y-121769142D02*
X65502619Y-121388190D01*
X65502619Y-121388190D02*
X65550238Y-121292952D01*
X65550238Y-121292952D02*
X65597857Y-121245333D01*
X65597857Y-121245333D02*
X65693095Y-121197714D01*
X65693095Y-121197714D02*
X65835952Y-121197714D01*
X65835952Y-121197714D02*
X65931190Y-121245333D01*
X65931190Y-121245333D02*
X65978809Y-121292952D01*
X65978809Y-121292952D02*
X66026428Y-121388190D01*
X66026428Y-121388190D02*
X66026428Y-121769142D01*
X66502619Y-120245333D02*
X66502619Y-120816761D01*
X66502619Y-120531047D02*
X65502619Y-120531047D01*
X65502619Y-120531047D02*
X65645476Y-120626285D01*
X65645476Y-120626285D02*
X65740714Y-120721523D01*
X65740714Y-120721523D02*
X65788333Y-120816761D01*
X70328619Y-104473333D02*
X71042904Y-104473333D01*
X71042904Y-104473333D02*
X71185761Y-104520952D01*
X71185761Y-104520952D02*
X71281000Y-104616190D01*
X71281000Y-104616190D02*
X71328619Y-104759047D01*
X71328619Y-104759047D02*
X71328619Y-104854285D01*
X71328619Y-103473333D02*
X71328619Y-104044761D01*
X71328619Y-103759047D02*
X70328619Y-103759047D01*
X70328619Y-103759047D02*
X70471476Y-103854285D01*
X70471476Y-103854285D02*
X70566714Y-103949523D01*
X70566714Y-103949523D02*
X70614333Y-104044761D01*
X154113412Y-86072986D02*
X154113412Y-86787271D01*
X154113412Y-86787271D02*
X154065793Y-86930128D01*
X154065793Y-86930128D02*
X153970555Y-87025367D01*
X153970555Y-87025367D02*
X153827698Y-87072986D01*
X153827698Y-87072986D02*
X153732460Y-87072986D01*
X154494365Y-86072986D02*
X155161031Y-86072986D01*
X155161031Y-86072986D02*
X154732460Y-87072986D01*
D14*
X150320476Y-49954619D02*
X150320476Y-50668904D01*
X150320476Y-50668904D02*
X150272857Y-50811761D01*
X150272857Y-50811761D02*
X150177619Y-50907000D01*
X150177619Y-50907000D02*
X150034762Y-50954619D01*
X150034762Y-50954619D02*
X149939524Y-50954619D01*
X151320476Y-50954619D02*
X150749048Y-50954619D01*
X151034762Y-50954619D02*
X151034762Y-49954619D01*
X151034762Y-49954619D02*
X150939524Y-50097476D01*
X150939524Y-50097476D02*
X150844286Y-50192714D01*
X150844286Y-50192714D02*
X150749048Y-50240333D01*
X151653810Y-49954619D02*
X152272857Y-49954619D01*
X152272857Y-49954619D02*
X151939524Y-50335571D01*
X151939524Y-50335571D02*
X152082381Y-50335571D01*
X152082381Y-50335571D02*
X152177619Y-50383190D01*
X152177619Y-50383190D02*
X152225238Y-50430809D01*
X152225238Y-50430809D02*
X152272857Y-50526047D01*
X152272857Y-50526047D02*
X152272857Y-50764142D01*
X152272857Y-50764142D02*
X152225238Y-50859380D01*
X152225238Y-50859380D02*
X152177619Y-50907000D01*
X152177619Y-50907000D02*
X152082381Y-50954619D01*
X152082381Y-50954619D02*
X151796667Y-50954619D01*
X151796667Y-50954619D02*
X151701429Y-50907000D01*
X151701429Y-50907000D02*
X151653810Y-50859380D01*
D10*
X161752619Y-48855238D02*
X161276428Y-49188571D01*
X161752619Y-49426666D02*
X160752619Y-49426666D01*
X160752619Y-49426666D02*
X160752619Y-49045714D01*
X160752619Y-49045714D02*
X160800238Y-48950476D01*
X160800238Y-48950476D02*
X160847857Y-48902857D01*
X160847857Y-48902857D02*
X160943095Y-48855238D01*
X160943095Y-48855238D02*
X161085952Y-48855238D01*
X161085952Y-48855238D02*
X161181190Y-48902857D01*
X161181190Y-48902857D02*
X161228809Y-48950476D01*
X161228809Y-48950476D02*
X161276428Y-49045714D01*
X161276428Y-49045714D02*
X161276428Y-49426666D01*
X160752619Y-48569523D02*
X161752619Y-48236190D01*
X161752619Y-48236190D02*
X160752619Y-47902857D01*
X160847857Y-47617142D02*
X160800238Y-47569523D01*
X160800238Y-47569523D02*
X160752619Y-47474285D01*
X160752619Y-47474285D02*
X160752619Y-47236190D01*
X160752619Y-47236190D02*
X160800238Y-47140952D01*
X160800238Y-47140952D02*
X160847857Y-47093333D01*
X160847857Y-47093333D02*
X160943095Y-47045714D01*
X160943095Y-47045714D02*
X161038333Y-47045714D01*
X161038333Y-47045714D02*
X161181190Y-47093333D01*
X161181190Y-47093333D02*
X161752619Y-47664761D01*
X161752619Y-47664761D02*
X161752619Y-47045714D01*
X124657380Y-97065508D02*
X124705000Y-97113127D01*
X124705000Y-97113127D02*
X124752619Y-97255984D01*
X124752619Y-97255984D02*
X124752619Y-97351222D01*
X124752619Y-97351222D02*
X124705000Y-97494079D01*
X124705000Y-97494079D02*
X124609761Y-97589317D01*
X124609761Y-97589317D02*
X124514523Y-97636936D01*
X124514523Y-97636936D02*
X124324047Y-97684555D01*
X124324047Y-97684555D02*
X124181190Y-97684555D01*
X124181190Y-97684555D02*
X123990714Y-97636936D01*
X123990714Y-97636936D02*
X123895476Y-97589317D01*
X123895476Y-97589317D02*
X123800238Y-97494079D01*
X123800238Y-97494079D02*
X123752619Y-97351222D01*
X123752619Y-97351222D02*
X123752619Y-97255984D01*
X123752619Y-97255984D02*
X123800238Y-97113127D01*
X123800238Y-97113127D02*
X123847857Y-97065508D01*
X124752619Y-96113127D02*
X124752619Y-96684555D01*
X124752619Y-96398841D02*
X123752619Y-96398841D01*
X123752619Y-96398841D02*
X123895476Y-96494079D01*
X123895476Y-96494079D02*
X123990714Y-96589317D01*
X123990714Y-96589317D02*
X124038333Y-96684555D01*
X123752619Y-95208365D02*
X123752619Y-95684555D01*
X123752619Y-95684555D02*
X124228809Y-95732174D01*
X124228809Y-95732174D02*
X124181190Y-95684555D01*
X124181190Y-95684555D02*
X124133571Y-95589317D01*
X124133571Y-95589317D02*
X124133571Y-95351222D01*
X124133571Y-95351222D02*
X124181190Y-95255984D01*
X124181190Y-95255984D02*
X124228809Y-95208365D01*
X124228809Y-95208365D02*
X124324047Y-95160746D01*
X124324047Y-95160746D02*
X124562142Y-95160746D01*
X124562142Y-95160746D02*
X124657380Y-95208365D01*
X124657380Y-95208365D02*
X124705000Y-95255984D01*
X124705000Y-95255984D02*
X124752619Y-95351222D01*
X124752619Y-95351222D02*
X124752619Y-95589317D01*
X124752619Y-95589317D02*
X124705000Y-95684555D01*
X124705000Y-95684555D02*
X124657380Y-95732174D01*
X159287380Y-126212857D02*
X159335000Y-126260476D01*
X159335000Y-126260476D02*
X159382619Y-126403333D01*
X159382619Y-126403333D02*
X159382619Y-126498571D01*
X159382619Y-126498571D02*
X159335000Y-126641428D01*
X159335000Y-126641428D02*
X159239761Y-126736666D01*
X159239761Y-126736666D02*
X159144523Y-126784285D01*
X159144523Y-126784285D02*
X158954047Y-126831904D01*
X158954047Y-126831904D02*
X158811190Y-126831904D01*
X158811190Y-126831904D02*
X158620714Y-126784285D01*
X158620714Y-126784285D02*
X158525476Y-126736666D01*
X158525476Y-126736666D02*
X158430238Y-126641428D01*
X158430238Y-126641428D02*
X158382619Y-126498571D01*
X158382619Y-126498571D02*
X158382619Y-126403333D01*
X158382619Y-126403333D02*
X158430238Y-126260476D01*
X158430238Y-126260476D02*
X158477857Y-126212857D01*
X158477857Y-125831904D02*
X158430238Y-125784285D01*
X158430238Y-125784285D02*
X158382619Y-125689047D01*
X158382619Y-125689047D02*
X158382619Y-125450952D01*
X158382619Y-125450952D02*
X158430238Y-125355714D01*
X158430238Y-125355714D02*
X158477857Y-125308095D01*
X158477857Y-125308095D02*
X158573095Y-125260476D01*
X158573095Y-125260476D02*
X158668333Y-125260476D01*
X158668333Y-125260476D02*
X158811190Y-125308095D01*
X158811190Y-125308095D02*
X159382619Y-125879523D01*
X159382619Y-125879523D02*
X159382619Y-125260476D01*
X159382619Y-124308095D02*
X159382619Y-124879523D01*
X159382619Y-124593809D02*
X158382619Y-124593809D01*
X158382619Y-124593809D02*
X158525476Y-124689047D01*
X158525476Y-124689047D02*
X158620714Y-124784285D01*
X158620714Y-124784285D02*
X158668333Y-124879523D01*
X158196619Y-97115238D02*
X157720428Y-97448571D01*
X158196619Y-97686666D02*
X157196619Y-97686666D01*
X157196619Y-97686666D02*
X157196619Y-97305714D01*
X157196619Y-97305714D02*
X157244238Y-97210476D01*
X157244238Y-97210476D02*
X157291857Y-97162857D01*
X157291857Y-97162857D02*
X157387095Y-97115238D01*
X157387095Y-97115238D02*
X157529952Y-97115238D01*
X157529952Y-97115238D02*
X157625190Y-97162857D01*
X157625190Y-97162857D02*
X157672809Y-97210476D01*
X157672809Y-97210476D02*
X157720428Y-97305714D01*
X157720428Y-97305714D02*
X157720428Y-97686666D01*
X157196619Y-96829523D02*
X158196619Y-96496190D01*
X158196619Y-96496190D02*
X157196619Y-96162857D01*
X158196619Y-95305714D02*
X158196619Y-95877142D01*
X158196619Y-95591428D02*
X157196619Y-95591428D01*
X157196619Y-95591428D02*
X157339476Y-95686666D01*
X157339476Y-95686666D02*
X157434714Y-95781904D01*
X157434714Y-95781904D02*
X157482333Y-95877142D01*
D15*
X41040000Y-102370000D02*
X41040000Y-103370000D01*
X41040000Y-103370000D02*
X42040000Y-102870000D01*
X42040000Y-102870000D02*
X41040000Y-102370000D01*
X42430000Y-97660000D02*
X51550000Y-97660000D01*
X42430000Y-105900000D02*
X43740000Y-105900000D01*
X42430000Y-118240000D02*
X42430000Y-97660000D01*
X43740000Y-98960000D02*
X50240000Y-98960000D01*
X43740000Y-105900000D02*
X43740000Y-98960000D01*
X43740000Y-110000000D02*
X42430000Y-110000000D01*
X43740000Y-110000000D02*
X43740000Y-110000000D01*
X43740000Y-116940000D02*
X43740000Y-110000000D01*
X50240000Y-98960000D02*
X50240000Y-116940000D01*
X50240000Y-116940000D02*
X43740000Y-116940000D01*
X51550000Y-97660000D02*
X51550000Y-118240000D01*
X51550000Y-118240000D02*
X42430000Y-118240000D01*
X59915000Y-96514349D02*
X59915000Y-95714349D01*
X59515000Y-96114349D02*
X60315000Y-96114349D01*
X58150000Y-92104651D02*
X66310000Y-92104651D01*
X58150000Y-92064651D02*
X66310000Y-92064651D01*
X58150000Y-92024651D02*
X66310000Y-92024651D01*
X58151000Y-91984651D02*
X66309000Y-91984651D01*
X58153000Y-91944651D02*
X66307000Y-91944651D01*
X58154000Y-91904651D02*
X66306000Y-91904651D01*
X58156000Y-91864651D02*
X66304000Y-91864651D01*
X58159000Y-91824651D02*
X66301000Y-91824651D01*
X58162000Y-91784651D02*
X66298000Y-91784651D01*
X58165000Y-91744651D02*
X66295000Y-91744651D01*
X58169000Y-91704651D02*
X66291000Y-91704651D01*
X58173000Y-91664651D02*
X66287000Y-91664651D01*
X58178000Y-91624651D02*
X66282000Y-91624651D01*
X58182000Y-91584651D02*
X66278000Y-91584651D01*
X58188000Y-91544651D02*
X66272000Y-91544651D01*
X58193000Y-91504651D02*
X66267000Y-91504651D01*
X58200000Y-91464651D02*
X66260000Y-91464651D01*
X58206000Y-91424651D02*
X66254000Y-91424651D01*
X58213000Y-91383651D02*
X66247000Y-91383651D01*
X58220000Y-91343651D02*
X66240000Y-91343651D01*
X58228000Y-91303651D02*
X66232000Y-91303651D01*
X58236000Y-91263651D02*
X66224000Y-91263651D01*
X58245000Y-91223651D02*
X66215000Y-91223651D01*
X58254000Y-91183651D02*
X66206000Y-91183651D01*
X58263000Y-91143651D02*
X66197000Y-91143651D01*
X58273000Y-91103651D02*
X66187000Y-91103651D01*
X58283000Y-91063651D02*
X66177000Y-91063651D01*
X58294000Y-91023651D02*
X66166000Y-91023651D01*
X58305000Y-90983651D02*
X66155000Y-90983651D01*
X58316000Y-90943651D02*
X66144000Y-90943651D01*
X58328000Y-90903651D02*
X66132000Y-90903651D01*
X58341000Y-90863651D02*
X66119000Y-90863651D01*
X58353000Y-90823651D02*
X66107000Y-90823651D01*
X58367000Y-90783651D02*
X66093000Y-90783651D01*
X58380000Y-90743651D02*
X66080000Y-90743651D01*
X58395000Y-90703651D02*
X66065000Y-90703651D01*
X58409000Y-90663651D02*
X66051000Y-90663651D01*
X58425000Y-90623651D02*
X61190000Y-90623651D01*
X63270000Y-90623651D02*
X66035000Y-90623651D01*
X58440000Y-90583651D02*
X61190000Y-90583651D01*
X63270000Y-90583651D02*
X66020000Y-90583651D01*
X58456000Y-90543651D02*
X61190000Y-90543651D01*
X63270000Y-90543651D02*
X66004000Y-90543651D01*
X58473000Y-90503651D02*
X61190000Y-90503651D01*
X63270000Y-90503651D02*
X65987000Y-90503651D01*
X58490000Y-90463651D02*
X61190000Y-90463651D01*
X63270000Y-90463651D02*
X65970000Y-90463651D01*
X58508000Y-90423651D02*
X61190000Y-90423651D01*
X63270000Y-90423651D02*
X65952000Y-90423651D01*
X58526000Y-90383651D02*
X61190000Y-90383651D01*
X63270000Y-90383651D02*
X65934000Y-90383651D01*
X58544000Y-90343651D02*
X61190000Y-90343651D01*
X63270000Y-90343651D02*
X65916000Y-90343651D01*
X58564000Y-90303651D02*
X61190000Y-90303651D01*
X63270000Y-90303651D02*
X65896000Y-90303651D01*
X58583000Y-90263651D02*
X61190000Y-90263651D01*
X63270000Y-90263651D02*
X65877000Y-90263651D01*
X58603000Y-90223651D02*
X61190000Y-90223651D01*
X63270000Y-90223651D02*
X65857000Y-90223651D01*
X58624000Y-90183651D02*
X61190000Y-90183651D01*
X63270000Y-90183651D02*
X65836000Y-90183651D01*
X58646000Y-90143651D02*
X61190000Y-90143651D01*
X63270000Y-90143651D02*
X65814000Y-90143651D01*
X58668000Y-90103651D02*
X61190000Y-90103651D01*
X63270000Y-90103651D02*
X65792000Y-90103651D01*
X58690000Y-90063651D02*
X61190000Y-90063651D01*
X63270000Y-90063651D02*
X65770000Y-90063651D01*
X58713000Y-90023651D02*
X61190000Y-90023651D01*
X63270000Y-90023651D02*
X65747000Y-90023651D01*
X58737000Y-89983651D02*
X61190000Y-89983651D01*
X63270000Y-89983651D02*
X65723000Y-89983651D01*
X58761000Y-89943651D02*
X61190000Y-89943651D01*
X63270000Y-89943651D02*
X65699000Y-89943651D01*
X58786000Y-89903651D02*
X61190000Y-89903651D01*
X63270000Y-89903651D02*
X65674000Y-89903651D01*
X58812000Y-89863651D02*
X61190000Y-89863651D01*
X63270000Y-89863651D02*
X65648000Y-89863651D01*
X58838000Y-89823651D02*
X61190000Y-89823651D01*
X63270000Y-89823651D02*
X65622000Y-89823651D01*
X58865000Y-89783651D02*
X61190000Y-89783651D01*
X63270000Y-89783651D02*
X65595000Y-89783651D01*
X58892000Y-89743651D02*
X61190000Y-89743651D01*
X63270000Y-89743651D02*
X65568000Y-89743651D01*
X58921000Y-89703651D02*
X61190000Y-89703651D01*
X63270000Y-89703651D02*
X65539000Y-89703651D01*
X58950000Y-89663651D02*
X61190000Y-89663651D01*
X63270000Y-89663651D02*
X65510000Y-89663651D01*
X58980000Y-89623651D02*
X61190000Y-89623651D01*
X63270000Y-89623651D02*
X65480000Y-89623651D01*
X59010000Y-89583651D02*
X61190000Y-89583651D01*
X63270000Y-89583651D02*
X65450000Y-89583651D01*
X59041000Y-89543651D02*
X61190000Y-89543651D01*
X63270000Y-89543651D02*
X65419000Y-89543651D01*
X59074000Y-89503651D02*
X61190000Y-89503651D01*
X63270000Y-89503651D02*
X65386000Y-89503651D01*
X59106000Y-89463651D02*
X61190000Y-89463651D01*
X63270000Y-89463651D02*
X65354000Y-89463651D01*
X59140000Y-89423651D02*
X61190000Y-89423651D01*
X63270000Y-89423651D02*
X65320000Y-89423651D01*
X59175000Y-89383651D02*
X61190000Y-89383651D01*
X63270000Y-89383651D02*
X65285000Y-89383651D01*
X59211000Y-89343651D02*
X61190000Y-89343651D01*
X63270000Y-89343651D02*
X65249000Y-89343651D01*
X59247000Y-89303651D02*
X61190000Y-89303651D01*
X63270000Y-89303651D02*
X65213000Y-89303651D01*
X59285000Y-89263651D02*
X61190000Y-89263651D01*
X63270000Y-89263651D02*
X65175000Y-89263651D01*
X59323000Y-89223651D02*
X61190000Y-89223651D01*
X63270000Y-89223651D02*
X65137000Y-89223651D01*
X59363000Y-89183651D02*
X61190000Y-89183651D01*
X63270000Y-89183651D02*
X65097000Y-89183651D01*
X59404000Y-89143651D02*
X61190000Y-89143651D01*
X63270000Y-89143651D02*
X65056000Y-89143651D01*
X59446000Y-89103651D02*
X61190000Y-89103651D01*
X63270000Y-89103651D02*
X65014000Y-89103651D01*
X59489000Y-89063651D02*
X61190000Y-89063651D01*
X63270000Y-89063651D02*
X64971000Y-89063651D01*
X59533000Y-89023651D02*
X61190000Y-89023651D01*
X63270000Y-89023651D02*
X64927000Y-89023651D01*
X59579000Y-88983651D02*
X61190000Y-88983651D01*
X63270000Y-88983651D02*
X64881000Y-88983651D01*
X59626000Y-88943651D02*
X61190000Y-88943651D01*
X63270000Y-88943651D02*
X64834000Y-88943651D01*
X59674000Y-88903651D02*
X61190000Y-88903651D01*
X63270000Y-88903651D02*
X64786000Y-88903651D01*
X59725000Y-88863651D02*
X61190000Y-88863651D01*
X63270000Y-88863651D02*
X64735000Y-88863651D01*
X59776000Y-88823651D02*
X61190000Y-88823651D01*
X63270000Y-88823651D02*
X64684000Y-88823651D01*
X59830000Y-88783651D02*
X61190000Y-88783651D01*
X63270000Y-88783651D02*
X64630000Y-88783651D01*
X59885000Y-88743651D02*
X61190000Y-88743651D01*
X63270000Y-88743651D02*
X64575000Y-88743651D01*
X59943000Y-88703651D02*
X61190000Y-88703651D01*
X63270000Y-88703651D02*
X64517000Y-88703651D01*
X60002000Y-88663651D02*
X61190000Y-88663651D01*
X63270000Y-88663651D02*
X64458000Y-88663651D01*
X60064000Y-88623651D02*
X61190000Y-88623651D01*
X63270000Y-88623651D02*
X64396000Y-88623651D01*
X60128000Y-88583651D02*
X61190000Y-88583651D01*
X63270000Y-88583651D02*
X64332000Y-88583651D01*
X60196000Y-88543651D02*
X64264000Y-88543651D01*
X60266000Y-88503651D02*
X64194000Y-88503651D01*
X60340000Y-88463651D02*
X64120000Y-88463651D01*
X60417000Y-88423651D02*
X64043000Y-88423651D01*
X60499000Y-88383651D02*
X63961000Y-88383651D01*
X60585000Y-88343651D02*
X63875000Y-88343651D01*
X60678000Y-88303651D02*
X63782000Y-88303651D01*
X60777000Y-88263651D02*
X63683000Y-88263651D01*
X60884000Y-88223651D02*
X63576000Y-88223651D01*
X61001000Y-88183651D02*
X63459000Y-88183651D01*
X61132000Y-88143651D02*
X63328000Y-88143651D01*
X61282000Y-88103651D02*
X63178000Y-88103651D01*
X61462000Y-88063651D02*
X62998000Y-88063651D01*
X61697000Y-88023651D02*
X62763000Y-88023651D01*
X66350000Y-92104651D02*
G75*
G03*
X66350000Y-92104651I-4120000J0D01*
G01*
X114271000Y-100889698D02*
X114271000Y-100089698D01*
X113871000Y-100489698D02*
X114671000Y-100489698D01*
X112506000Y-96480000D02*
X120666000Y-96480000D01*
X112506000Y-96440000D02*
X120666000Y-96440000D01*
X112506000Y-96400000D02*
X120666000Y-96400000D01*
X112507000Y-96360000D02*
X120665000Y-96360000D01*
X112509000Y-96320000D02*
X120663000Y-96320000D01*
X112510000Y-96280000D02*
X120662000Y-96280000D01*
X112512000Y-96240000D02*
X120660000Y-96240000D01*
X112515000Y-96200000D02*
X120657000Y-96200000D01*
X112518000Y-96160000D02*
X120654000Y-96160000D01*
X112521000Y-96120000D02*
X120651000Y-96120000D01*
X112525000Y-96080000D02*
X120647000Y-96080000D01*
X112529000Y-96040000D02*
X120643000Y-96040000D01*
X112534000Y-96000000D02*
X120638000Y-96000000D01*
X112538000Y-95960000D02*
X120634000Y-95960000D01*
X112544000Y-95920000D02*
X120628000Y-95920000D01*
X112549000Y-95880000D02*
X120623000Y-95880000D01*
X112556000Y-95840000D02*
X120616000Y-95840000D01*
X112562000Y-95800000D02*
X120610000Y-95800000D01*
X112569000Y-95759000D02*
X120603000Y-95759000D01*
X112576000Y-95719000D02*
X120596000Y-95719000D01*
X112584000Y-95679000D02*
X120588000Y-95679000D01*
X112592000Y-95639000D02*
X120580000Y-95639000D01*
X112601000Y-95599000D02*
X120571000Y-95599000D01*
X112610000Y-95559000D02*
X120562000Y-95559000D01*
X112619000Y-95519000D02*
X120553000Y-95519000D01*
X112629000Y-95479000D02*
X120543000Y-95479000D01*
X112639000Y-95439000D02*
X120533000Y-95439000D01*
X112650000Y-95399000D02*
X120522000Y-95399000D01*
X112661000Y-95359000D02*
X120511000Y-95359000D01*
X112672000Y-95319000D02*
X120500000Y-95319000D01*
X112684000Y-95279000D02*
X120488000Y-95279000D01*
X112697000Y-95239000D02*
X120475000Y-95239000D01*
X112709000Y-95199000D02*
X120463000Y-95199000D01*
X112723000Y-95159000D02*
X120449000Y-95159000D01*
X112736000Y-95119000D02*
X120436000Y-95119000D01*
X112751000Y-95079000D02*
X120421000Y-95079000D01*
X112765000Y-95039000D02*
X120407000Y-95039000D01*
X112781000Y-94999000D02*
X115546000Y-94999000D01*
X117626000Y-94999000D02*
X120391000Y-94999000D01*
X112796000Y-94959000D02*
X115546000Y-94959000D01*
X117626000Y-94959000D02*
X120376000Y-94959000D01*
X112812000Y-94919000D02*
X115546000Y-94919000D01*
X117626000Y-94919000D02*
X120360000Y-94919000D01*
X112829000Y-94879000D02*
X115546000Y-94879000D01*
X117626000Y-94879000D02*
X120343000Y-94879000D01*
X112846000Y-94839000D02*
X115546000Y-94839000D01*
X117626000Y-94839000D02*
X120326000Y-94839000D01*
X112864000Y-94799000D02*
X115546000Y-94799000D01*
X117626000Y-94799000D02*
X120308000Y-94799000D01*
X112882000Y-94759000D02*
X115546000Y-94759000D01*
X117626000Y-94759000D02*
X120290000Y-94759000D01*
X112900000Y-94719000D02*
X115546000Y-94719000D01*
X117626000Y-94719000D02*
X120272000Y-94719000D01*
X112920000Y-94679000D02*
X115546000Y-94679000D01*
X117626000Y-94679000D02*
X120252000Y-94679000D01*
X112939000Y-94639000D02*
X115546000Y-94639000D01*
X117626000Y-94639000D02*
X120233000Y-94639000D01*
X112959000Y-94599000D02*
X115546000Y-94599000D01*
X117626000Y-94599000D02*
X120213000Y-94599000D01*
X112980000Y-94559000D02*
X115546000Y-94559000D01*
X117626000Y-94559000D02*
X120192000Y-94559000D01*
X113002000Y-94519000D02*
X115546000Y-94519000D01*
X117626000Y-94519000D02*
X120170000Y-94519000D01*
X113024000Y-94479000D02*
X115546000Y-94479000D01*
X117626000Y-94479000D02*
X120148000Y-94479000D01*
X113046000Y-94439000D02*
X115546000Y-94439000D01*
X117626000Y-94439000D02*
X120126000Y-94439000D01*
X113069000Y-94399000D02*
X115546000Y-94399000D01*
X117626000Y-94399000D02*
X120103000Y-94399000D01*
X113093000Y-94359000D02*
X115546000Y-94359000D01*
X117626000Y-94359000D02*
X120079000Y-94359000D01*
X113117000Y-94319000D02*
X115546000Y-94319000D01*
X117626000Y-94319000D02*
X120055000Y-94319000D01*
X113142000Y-94279000D02*
X115546000Y-94279000D01*
X117626000Y-94279000D02*
X120030000Y-94279000D01*
X113168000Y-94239000D02*
X115546000Y-94239000D01*
X117626000Y-94239000D02*
X120004000Y-94239000D01*
X113194000Y-94199000D02*
X115546000Y-94199000D01*
X117626000Y-94199000D02*
X119978000Y-94199000D01*
X113221000Y-94159000D02*
X115546000Y-94159000D01*
X117626000Y-94159000D02*
X119951000Y-94159000D01*
X113248000Y-94119000D02*
X115546000Y-94119000D01*
X117626000Y-94119000D02*
X119924000Y-94119000D01*
X113277000Y-94079000D02*
X115546000Y-94079000D01*
X117626000Y-94079000D02*
X119895000Y-94079000D01*
X113306000Y-94039000D02*
X115546000Y-94039000D01*
X117626000Y-94039000D02*
X119866000Y-94039000D01*
X113336000Y-93999000D02*
X115546000Y-93999000D01*
X117626000Y-93999000D02*
X119836000Y-93999000D01*
X113366000Y-93959000D02*
X115546000Y-93959000D01*
X117626000Y-93959000D02*
X119806000Y-93959000D01*
X113397000Y-93919000D02*
X115546000Y-93919000D01*
X117626000Y-93919000D02*
X119775000Y-93919000D01*
X113430000Y-93879000D02*
X115546000Y-93879000D01*
X117626000Y-93879000D02*
X119742000Y-93879000D01*
X113462000Y-93839000D02*
X115546000Y-93839000D01*
X117626000Y-93839000D02*
X119710000Y-93839000D01*
X113496000Y-93799000D02*
X115546000Y-93799000D01*
X117626000Y-93799000D02*
X119676000Y-93799000D01*
X113531000Y-93759000D02*
X115546000Y-93759000D01*
X117626000Y-93759000D02*
X119641000Y-93759000D01*
X113567000Y-93719000D02*
X115546000Y-93719000D01*
X117626000Y-93719000D02*
X119605000Y-93719000D01*
X113603000Y-93679000D02*
X115546000Y-93679000D01*
X117626000Y-93679000D02*
X119569000Y-93679000D01*
X113641000Y-93639000D02*
X115546000Y-93639000D01*
X117626000Y-93639000D02*
X119531000Y-93639000D01*
X113679000Y-93599000D02*
X115546000Y-93599000D01*
X117626000Y-93599000D02*
X119493000Y-93599000D01*
X113719000Y-93559000D02*
X115546000Y-93559000D01*
X117626000Y-93559000D02*
X119453000Y-93559000D01*
X113760000Y-93519000D02*
X115546000Y-93519000D01*
X117626000Y-93519000D02*
X119412000Y-93519000D01*
X113802000Y-93479000D02*
X115546000Y-93479000D01*
X117626000Y-93479000D02*
X119370000Y-93479000D01*
X113845000Y-93439000D02*
X115546000Y-93439000D01*
X117626000Y-93439000D02*
X119327000Y-93439000D01*
X113889000Y-93399000D02*
X115546000Y-93399000D01*
X117626000Y-93399000D02*
X119283000Y-93399000D01*
X113935000Y-93359000D02*
X115546000Y-93359000D01*
X117626000Y-93359000D02*
X119237000Y-93359000D01*
X113982000Y-93319000D02*
X115546000Y-93319000D01*
X117626000Y-93319000D02*
X119190000Y-93319000D01*
X114030000Y-93279000D02*
X115546000Y-93279000D01*
X117626000Y-93279000D02*
X119142000Y-93279000D01*
X114081000Y-93239000D02*
X115546000Y-93239000D01*
X117626000Y-93239000D02*
X119091000Y-93239000D01*
X114132000Y-93199000D02*
X115546000Y-93199000D01*
X117626000Y-93199000D02*
X119040000Y-93199000D01*
X114186000Y-93159000D02*
X115546000Y-93159000D01*
X117626000Y-93159000D02*
X118986000Y-93159000D01*
X114241000Y-93119000D02*
X115546000Y-93119000D01*
X117626000Y-93119000D02*
X118931000Y-93119000D01*
X114299000Y-93079000D02*
X115546000Y-93079000D01*
X117626000Y-93079000D02*
X118873000Y-93079000D01*
X114358000Y-93039000D02*
X115546000Y-93039000D01*
X117626000Y-93039000D02*
X118814000Y-93039000D01*
X114420000Y-92999000D02*
X115546000Y-92999000D01*
X117626000Y-92999000D02*
X118752000Y-92999000D01*
X114484000Y-92959000D02*
X115546000Y-92959000D01*
X117626000Y-92959000D02*
X118688000Y-92959000D01*
X114552000Y-92919000D02*
X118620000Y-92919000D01*
X114622000Y-92879000D02*
X118550000Y-92879000D01*
X114696000Y-92839000D02*
X118476000Y-92839000D01*
X114773000Y-92799000D02*
X118399000Y-92799000D01*
X114855000Y-92759000D02*
X118317000Y-92759000D01*
X114941000Y-92719000D02*
X118231000Y-92719000D01*
X115034000Y-92679000D02*
X118138000Y-92679000D01*
X115133000Y-92639000D02*
X118039000Y-92639000D01*
X115240000Y-92599000D02*
X117932000Y-92599000D01*
X115357000Y-92559000D02*
X117815000Y-92559000D01*
X115488000Y-92519000D02*
X117684000Y-92519000D01*
X115638000Y-92479000D02*
X117534000Y-92479000D01*
X115818000Y-92439000D02*
X117354000Y-92439000D01*
X116053000Y-92399000D02*
X117119000Y-92399000D01*
X120706000Y-96480000D02*
G75*
G03*
X120706000Y-96480000I-4120000J0D01*
G01*
X71120000Y-48430000D02*
X71120000Y-49280000D01*
X72390000Y-49280000D02*
X69723000Y-49280000D01*
X69723000Y-49280000D02*
X69723000Y-65020000D01*
X72390000Y-65020000D02*
X72390000Y-49280000D01*
X69723000Y-65020000D02*
X72390000Y-65020000D01*
X71120000Y-65870000D02*
X71120000Y-65020000D01*
X75917000Y-96514349D02*
X75917000Y-95714349D01*
X75517000Y-96114349D02*
X76317000Y-96114349D01*
X74152000Y-92104651D02*
X82312000Y-92104651D01*
X74152000Y-92064651D02*
X82312000Y-92064651D01*
X74152000Y-92024651D02*
X82312000Y-92024651D01*
X74153000Y-91984651D02*
X82311000Y-91984651D01*
X74155000Y-91944651D02*
X82309000Y-91944651D01*
X74156000Y-91904651D02*
X82308000Y-91904651D01*
X74158000Y-91864651D02*
X82306000Y-91864651D01*
X74161000Y-91824651D02*
X82303000Y-91824651D01*
X74164000Y-91784651D02*
X82300000Y-91784651D01*
X74167000Y-91744651D02*
X82297000Y-91744651D01*
X74171000Y-91704651D02*
X82293000Y-91704651D01*
X74175000Y-91664651D02*
X82289000Y-91664651D01*
X74180000Y-91624651D02*
X82284000Y-91624651D01*
X74184000Y-91584651D02*
X82280000Y-91584651D01*
X74190000Y-91544651D02*
X82274000Y-91544651D01*
X74195000Y-91504651D02*
X82269000Y-91504651D01*
X74202000Y-91464651D02*
X82262000Y-91464651D01*
X74208000Y-91424651D02*
X82256000Y-91424651D01*
X74215000Y-91383651D02*
X82249000Y-91383651D01*
X74222000Y-91343651D02*
X82242000Y-91343651D01*
X74230000Y-91303651D02*
X82234000Y-91303651D01*
X74238000Y-91263651D02*
X82226000Y-91263651D01*
X74247000Y-91223651D02*
X82217000Y-91223651D01*
X74256000Y-91183651D02*
X82208000Y-91183651D01*
X74265000Y-91143651D02*
X82199000Y-91143651D01*
X74275000Y-91103651D02*
X82189000Y-91103651D01*
X74285000Y-91063651D02*
X82179000Y-91063651D01*
X74296000Y-91023651D02*
X82168000Y-91023651D01*
X74307000Y-90983651D02*
X82157000Y-90983651D01*
X74318000Y-90943651D02*
X82146000Y-90943651D01*
X74330000Y-90903651D02*
X82134000Y-90903651D01*
X74343000Y-90863651D02*
X82121000Y-90863651D01*
X74355000Y-90823651D02*
X82109000Y-90823651D01*
X74369000Y-90783651D02*
X82095000Y-90783651D01*
X74382000Y-90743651D02*
X82082000Y-90743651D01*
X74397000Y-90703651D02*
X82067000Y-90703651D01*
X74411000Y-90663651D02*
X82053000Y-90663651D01*
X74427000Y-90623651D02*
X77192000Y-90623651D01*
X79272000Y-90623651D02*
X82037000Y-90623651D01*
X74442000Y-90583651D02*
X77192000Y-90583651D01*
X79272000Y-90583651D02*
X82022000Y-90583651D01*
X74458000Y-90543651D02*
X77192000Y-90543651D01*
X79272000Y-90543651D02*
X82006000Y-90543651D01*
X74475000Y-90503651D02*
X77192000Y-90503651D01*
X79272000Y-90503651D02*
X81989000Y-90503651D01*
X74492000Y-90463651D02*
X77192000Y-90463651D01*
X79272000Y-90463651D02*
X81972000Y-90463651D01*
X74510000Y-90423651D02*
X77192000Y-90423651D01*
X79272000Y-90423651D02*
X81954000Y-90423651D01*
X74528000Y-90383651D02*
X77192000Y-90383651D01*
X79272000Y-90383651D02*
X81936000Y-90383651D01*
X74546000Y-90343651D02*
X77192000Y-90343651D01*
X79272000Y-90343651D02*
X81918000Y-90343651D01*
X74566000Y-90303651D02*
X77192000Y-90303651D01*
X79272000Y-90303651D02*
X81898000Y-90303651D01*
X74585000Y-90263651D02*
X77192000Y-90263651D01*
X79272000Y-90263651D02*
X81879000Y-90263651D01*
X74605000Y-90223651D02*
X77192000Y-90223651D01*
X79272000Y-90223651D02*
X81859000Y-90223651D01*
X74626000Y-90183651D02*
X77192000Y-90183651D01*
X79272000Y-90183651D02*
X81838000Y-90183651D01*
X74648000Y-90143651D02*
X77192000Y-90143651D01*
X79272000Y-90143651D02*
X81816000Y-90143651D01*
X74670000Y-90103651D02*
X77192000Y-90103651D01*
X79272000Y-90103651D02*
X81794000Y-90103651D01*
X74692000Y-90063651D02*
X77192000Y-90063651D01*
X79272000Y-90063651D02*
X81772000Y-90063651D01*
X74715000Y-90023651D02*
X77192000Y-90023651D01*
X79272000Y-90023651D02*
X81749000Y-90023651D01*
X74739000Y-89983651D02*
X77192000Y-89983651D01*
X79272000Y-89983651D02*
X81725000Y-89983651D01*
X74763000Y-89943651D02*
X77192000Y-89943651D01*
X79272000Y-89943651D02*
X81701000Y-89943651D01*
X74788000Y-89903651D02*
X77192000Y-89903651D01*
X79272000Y-89903651D02*
X81676000Y-89903651D01*
X74814000Y-89863651D02*
X77192000Y-89863651D01*
X79272000Y-89863651D02*
X81650000Y-89863651D01*
X74840000Y-89823651D02*
X77192000Y-89823651D01*
X79272000Y-89823651D02*
X81624000Y-89823651D01*
X74867000Y-89783651D02*
X77192000Y-89783651D01*
X79272000Y-89783651D02*
X81597000Y-89783651D01*
X74894000Y-89743651D02*
X77192000Y-89743651D01*
X79272000Y-89743651D02*
X81570000Y-89743651D01*
X74923000Y-89703651D02*
X77192000Y-89703651D01*
X79272000Y-89703651D02*
X81541000Y-89703651D01*
X74952000Y-89663651D02*
X77192000Y-89663651D01*
X79272000Y-89663651D02*
X81512000Y-89663651D01*
X74982000Y-89623651D02*
X77192000Y-89623651D01*
X79272000Y-89623651D02*
X81482000Y-89623651D01*
X75012000Y-89583651D02*
X77192000Y-89583651D01*
X79272000Y-89583651D02*
X81452000Y-89583651D01*
X75043000Y-89543651D02*
X77192000Y-89543651D01*
X79272000Y-89543651D02*
X81421000Y-89543651D01*
X75076000Y-89503651D02*
X77192000Y-89503651D01*
X79272000Y-89503651D02*
X81388000Y-89503651D01*
X75108000Y-89463651D02*
X77192000Y-89463651D01*
X79272000Y-89463651D02*
X81356000Y-89463651D01*
X75142000Y-89423651D02*
X77192000Y-89423651D01*
X79272000Y-89423651D02*
X81322000Y-89423651D01*
X75177000Y-89383651D02*
X77192000Y-89383651D01*
X79272000Y-89383651D02*
X81287000Y-89383651D01*
X75213000Y-89343651D02*
X77192000Y-89343651D01*
X79272000Y-89343651D02*
X81251000Y-89343651D01*
X75249000Y-89303651D02*
X77192000Y-89303651D01*
X79272000Y-89303651D02*
X81215000Y-89303651D01*
X75287000Y-89263651D02*
X77192000Y-89263651D01*
X79272000Y-89263651D02*
X81177000Y-89263651D01*
X75325000Y-89223651D02*
X77192000Y-89223651D01*
X79272000Y-89223651D02*
X81139000Y-89223651D01*
X75365000Y-89183651D02*
X77192000Y-89183651D01*
X79272000Y-89183651D02*
X81099000Y-89183651D01*
X75406000Y-89143651D02*
X77192000Y-89143651D01*
X79272000Y-89143651D02*
X81058000Y-89143651D01*
X75448000Y-89103651D02*
X77192000Y-89103651D01*
X79272000Y-89103651D02*
X81016000Y-89103651D01*
X75491000Y-89063651D02*
X77192000Y-89063651D01*
X79272000Y-89063651D02*
X80973000Y-89063651D01*
X75535000Y-89023651D02*
X77192000Y-89023651D01*
X79272000Y-89023651D02*
X80929000Y-89023651D01*
X75581000Y-88983651D02*
X77192000Y-88983651D01*
X79272000Y-88983651D02*
X80883000Y-88983651D01*
X75628000Y-88943651D02*
X77192000Y-88943651D01*
X79272000Y-88943651D02*
X80836000Y-88943651D01*
X75676000Y-88903651D02*
X77192000Y-88903651D01*
X79272000Y-88903651D02*
X80788000Y-88903651D01*
X75727000Y-88863651D02*
X77192000Y-88863651D01*
X79272000Y-88863651D02*
X80737000Y-88863651D01*
X75778000Y-88823651D02*
X77192000Y-88823651D01*
X79272000Y-88823651D02*
X80686000Y-88823651D01*
X75832000Y-88783651D02*
X77192000Y-88783651D01*
X79272000Y-88783651D02*
X80632000Y-88783651D01*
X75887000Y-88743651D02*
X77192000Y-88743651D01*
X79272000Y-88743651D02*
X80577000Y-88743651D01*
X75945000Y-88703651D02*
X77192000Y-88703651D01*
X79272000Y-88703651D02*
X80519000Y-88703651D01*
X76004000Y-88663651D02*
X77192000Y-88663651D01*
X79272000Y-88663651D02*
X80460000Y-88663651D01*
X76066000Y-88623651D02*
X77192000Y-88623651D01*
X79272000Y-88623651D02*
X80398000Y-88623651D01*
X76130000Y-88583651D02*
X77192000Y-88583651D01*
X79272000Y-88583651D02*
X80334000Y-88583651D01*
X76198000Y-88543651D02*
X80266000Y-88543651D01*
X76268000Y-88503651D02*
X80196000Y-88503651D01*
X76342000Y-88463651D02*
X80122000Y-88463651D01*
X76419000Y-88423651D02*
X80045000Y-88423651D01*
X76501000Y-88383651D02*
X79963000Y-88383651D01*
X76587000Y-88343651D02*
X79877000Y-88343651D01*
X76680000Y-88303651D02*
X79784000Y-88303651D01*
X76779000Y-88263651D02*
X79685000Y-88263651D01*
X76886000Y-88223651D02*
X79578000Y-88223651D01*
X77003000Y-88183651D02*
X79461000Y-88183651D01*
X77134000Y-88143651D02*
X79330000Y-88143651D01*
X77284000Y-88103651D02*
X79180000Y-88103651D01*
X77464000Y-88063651D02*
X79000000Y-88063651D01*
X77699000Y-88023651D02*
X78765000Y-88023651D01*
X82352000Y-92104651D02*
G75*
G03*
X82352000Y-92104651I-4120000J0D01*
G01*
X118245000Y-144815000D02*
X119245000Y-144815000D01*
X119245000Y-144815000D02*
X118745000Y-143815000D01*
X118745000Y-143815000D02*
X118245000Y-144815000D01*
X113535000Y-143425000D02*
X113535000Y-134305000D01*
X121775000Y-143425000D02*
X121775000Y-142115000D01*
X134115000Y-143425000D02*
X113535000Y-143425000D01*
X114835000Y-142115000D02*
X114835000Y-135615000D01*
X121775000Y-142115000D02*
X114835000Y-142115000D01*
X125875000Y-142115000D02*
X125875000Y-143425000D01*
X125875000Y-142115000D02*
X125875000Y-142115000D01*
X132815000Y-142115000D02*
X125875000Y-142115000D01*
X114835000Y-135615000D02*
X132815000Y-135615000D01*
X132815000Y-135615000D02*
X132815000Y-142115000D01*
X113535000Y-134305000D02*
X134115000Y-134305000D01*
X134115000Y-134305000D02*
X134115000Y-143425000D01*
X85860000Y-144815000D02*
X86860000Y-144815000D01*
X86860000Y-144815000D02*
X86360000Y-143815000D01*
X86360000Y-143815000D02*
X85860000Y-144815000D01*
X81150000Y-143425000D02*
X81150000Y-134305000D01*
X89390000Y-143425000D02*
X89390000Y-142115000D01*
X101730000Y-143425000D02*
X81150000Y-143425000D01*
X82450000Y-142115000D02*
X82450000Y-135615000D01*
X89390000Y-142115000D02*
X82450000Y-142115000D01*
X93490000Y-142115000D02*
X93490000Y-143425000D01*
X93490000Y-142115000D02*
X93490000Y-142115000D01*
X100430000Y-142115000D02*
X93490000Y-142115000D01*
X82450000Y-135615000D02*
X100430000Y-135615000D01*
X100430000Y-135615000D02*
X100430000Y-142115000D01*
X81150000Y-134305000D02*
X101730000Y-134305000D01*
X101730000Y-134305000D02*
X101730000Y-143425000D01*
X155985000Y-102745302D02*
X155985000Y-103545302D01*
X156385000Y-103145302D02*
X155585000Y-103145302D01*
X157750000Y-107155000D02*
X149590000Y-107155000D01*
X157750000Y-107195000D02*
X149590000Y-107195000D01*
X157750000Y-107235000D02*
X149590000Y-107235000D01*
X157749000Y-107275000D02*
X149591000Y-107275000D01*
X157747000Y-107315000D02*
X149593000Y-107315000D01*
X157746000Y-107355000D02*
X149594000Y-107355000D01*
X157744000Y-107395000D02*
X149596000Y-107395000D01*
X157741000Y-107435000D02*
X149599000Y-107435000D01*
X157738000Y-107475000D02*
X149602000Y-107475000D01*
X157735000Y-107515000D02*
X149605000Y-107515000D01*
X157731000Y-107555000D02*
X149609000Y-107555000D01*
X157727000Y-107595000D02*
X149613000Y-107595000D01*
X157722000Y-107635000D02*
X149618000Y-107635000D01*
X157718000Y-107675000D02*
X149622000Y-107675000D01*
X157712000Y-107715000D02*
X149628000Y-107715000D01*
X157707000Y-107755000D02*
X149633000Y-107755000D01*
X157700000Y-107795000D02*
X149640000Y-107795000D01*
X157694000Y-107835000D02*
X149646000Y-107835000D01*
X157687000Y-107876000D02*
X149653000Y-107876000D01*
X157680000Y-107916000D02*
X149660000Y-107916000D01*
X157672000Y-107956000D02*
X149668000Y-107956000D01*
X157664000Y-107996000D02*
X149676000Y-107996000D01*
X157655000Y-108036000D02*
X149685000Y-108036000D01*
X157646000Y-108076000D02*
X149694000Y-108076000D01*
X157637000Y-108116000D02*
X149703000Y-108116000D01*
X157627000Y-108156000D02*
X149713000Y-108156000D01*
X157617000Y-108196000D02*
X149723000Y-108196000D01*
X157606000Y-108236000D02*
X149734000Y-108236000D01*
X157595000Y-108276000D02*
X149745000Y-108276000D01*
X157584000Y-108316000D02*
X149756000Y-108316000D01*
X157572000Y-108356000D02*
X149768000Y-108356000D01*
X157559000Y-108396000D02*
X149781000Y-108396000D01*
X157547000Y-108436000D02*
X149793000Y-108436000D01*
X157533000Y-108476000D02*
X149807000Y-108476000D01*
X157520000Y-108516000D02*
X149820000Y-108516000D01*
X157505000Y-108556000D02*
X149835000Y-108556000D01*
X157491000Y-108596000D02*
X149849000Y-108596000D01*
X157475000Y-108636000D02*
X154710000Y-108636000D01*
X152630000Y-108636000D02*
X149865000Y-108636000D01*
X157460000Y-108676000D02*
X154710000Y-108676000D01*
X152630000Y-108676000D02*
X149880000Y-108676000D01*
X157444000Y-108716000D02*
X154710000Y-108716000D01*
X152630000Y-108716000D02*
X149896000Y-108716000D01*
X157427000Y-108756000D02*
X154710000Y-108756000D01*
X152630000Y-108756000D02*
X149913000Y-108756000D01*
X157410000Y-108796000D02*
X154710000Y-108796000D01*
X152630000Y-108796000D02*
X149930000Y-108796000D01*
X157392000Y-108836000D02*
X154710000Y-108836000D01*
X152630000Y-108836000D02*
X149948000Y-108836000D01*
X157374000Y-108876000D02*
X154710000Y-108876000D01*
X152630000Y-108876000D02*
X149966000Y-108876000D01*
X157356000Y-108916000D02*
X154710000Y-108916000D01*
X152630000Y-108916000D02*
X149984000Y-108916000D01*
X157336000Y-108956000D02*
X154710000Y-108956000D01*
X152630000Y-108956000D02*
X150004000Y-108956000D01*
X157317000Y-108996000D02*
X154710000Y-108996000D01*
X152630000Y-108996000D02*
X150023000Y-108996000D01*
X157297000Y-109036000D02*
X154710000Y-109036000D01*
X152630000Y-109036000D02*
X150043000Y-109036000D01*
X157276000Y-109076000D02*
X154710000Y-109076000D01*
X152630000Y-109076000D02*
X150064000Y-109076000D01*
X157254000Y-109116000D02*
X154710000Y-109116000D01*
X152630000Y-109116000D02*
X150086000Y-109116000D01*
X157232000Y-109156000D02*
X154710000Y-109156000D01*
X152630000Y-109156000D02*
X150108000Y-109156000D01*
X157210000Y-109196000D02*
X154710000Y-109196000D01*
X152630000Y-109196000D02*
X150130000Y-109196000D01*
X157187000Y-109236000D02*
X154710000Y-109236000D01*
X152630000Y-109236000D02*
X150153000Y-109236000D01*
X157163000Y-109276000D02*
X154710000Y-109276000D01*
X152630000Y-109276000D02*
X150177000Y-109276000D01*
X157139000Y-109316000D02*
X154710000Y-109316000D01*
X152630000Y-109316000D02*
X150201000Y-109316000D01*
X157114000Y-109356000D02*
X154710000Y-109356000D01*
X152630000Y-109356000D02*
X150226000Y-109356000D01*
X157088000Y-109396000D02*
X154710000Y-109396000D01*
X152630000Y-109396000D02*
X150252000Y-109396000D01*
X157062000Y-109436000D02*
X154710000Y-109436000D01*
X152630000Y-109436000D02*
X150278000Y-109436000D01*
X157035000Y-109476000D02*
X154710000Y-109476000D01*
X152630000Y-109476000D02*
X150305000Y-109476000D01*
X157008000Y-109516000D02*
X154710000Y-109516000D01*
X152630000Y-109516000D02*
X150332000Y-109516000D01*
X156979000Y-109556000D02*
X154710000Y-109556000D01*
X152630000Y-109556000D02*
X150361000Y-109556000D01*
X156950000Y-109596000D02*
X154710000Y-109596000D01*
X152630000Y-109596000D02*
X150390000Y-109596000D01*
X156920000Y-109636000D02*
X154710000Y-109636000D01*
X152630000Y-109636000D02*
X150420000Y-109636000D01*
X156890000Y-109676000D02*
X154710000Y-109676000D01*
X152630000Y-109676000D02*
X150450000Y-109676000D01*
X156859000Y-109716000D02*
X154710000Y-109716000D01*
X152630000Y-109716000D02*
X150481000Y-109716000D01*
X156826000Y-109756000D02*
X154710000Y-109756000D01*
X152630000Y-109756000D02*
X150514000Y-109756000D01*
X156794000Y-109796000D02*
X154710000Y-109796000D01*
X152630000Y-109796000D02*
X150546000Y-109796000D01*
X156760000Y-109836000D02*
X154710000Y-109836000D01*
X152630000Y-109836000D02*
X150580000Y-109836000D01*
X156725000Y-109876000D02*
X154710000Y-109876000D01*
X152630000Y-109876000D02*
X150615000Y-109876000D01*
X156689000Y-109916000D02*
X154710000Y-109916000D01*
X152630000Y-109916000D02*
X150651000Y-109916000D01*
X156653000Y-109956000D02*
X154710000Y-109956000D01*
X152630000Y-109956000D02*
X150687000Y-109956000D01*
X156615000Y-109996000D02*
X154710000Y-109996000D01*
X152630000Y-109996000D02*
X150725000Y-109996000D01*
X156577000Y-110036000D02*
X154710000Y-110036000D01*
X152630000Y-110036000D02*
X150763000Y-110036000D01*
X156537000Y-110076000D02*
X154710000Y-110076000D01*
X152630000Y-110076000D02*
X150803000Y-110076000D01*
X156496000Y-110116000D02*
X154710000Y-110116000D01*
X152630000Y-110116000D02*
X150844000Y-110116000D01*
X156454000Y-110156000D02*
X154710000Y-110156000D01*
X152630000Y-110156000D02*
X150886000Y-110156000D01*
X156411000Y-110196000D02*
X154710000Y-110196000D01*
X152630000Y-110196000D02*
X150929000Y-110196000D01*
X156367000Y-110236000D02*
X154710000Y-110236000D01*
X152630000Y-110236000D02*
X150973000Y-110236000D01*
X156321000Y-110276000D02*
X154710000Y-110276000D01*
X152630000Y-110276000D02*
X151019000Y-110276000D01*
X156274000Y-110316000D02*
X154710000Y-110316000D01*
X152630000Y-110316000D02*
X151066000Y-110316000D01*
X156226000Y-110356000D02*
X154710000Y-110356000D01*
X152630000Y-110356000D02*
X151114000Y-110356000D01*
X156175000Y-110396000D02*
X154710000Y-110396000D01*
X152630000Y-110396000D02*
X151165000Y-110396000D01*
X156124000Y-110436000D02*
X154710000Y-110436000D01*
X152630000Y-110436000D02*
X151216000Y-110436000D01*
X156070000Y-110476000D02*
X154710000Y-110476000D01*
X152630000Y-110476000D02*
X151270000Y-110476000D01*
X156015000Y-110516000D02*
X154710000Y-110516000D01*
X152630000Y-110516000D02*
X151325000Y-110516000D01*
X155957000Y-110556000D02*
X154710000Y-110556000D01*
X152630000Y-110556000D02*
X151383000Y-110556000D01*
X155898000Y-110596000D02*
X154710000Y-110596000D01*
X152630000Y-110596000D02*
X151442000Y-110596000D01*
X155836000Y-110636000D02*
X154710000Y-110636000D01*
X152630000Y-110636000D02*
X151504000Y-110636000D01*
X155772000Y-110676000D02*
X154710000Y-110676000D01*
X152630000Y-110676000D02*
X151568000Y-110676000D01*
X155704000Y-110716000D02*
X151636000Y-110716000D01*
X155634000Y-110756000D02*
X151706000Y-110756000D01*
X155560000Y-110796000D02*
X151780000Y-110796000D01*
X155483000Y-110836000D02*
X151857000Y-110836000D01*
X155401000Y-110876000D02*
X151939000Y-110876000D01*
X155315000Y-110916000D02*
X152025000Y-110916000D01*
X155222000Y-110956000D02*
X152118000Y-110956000D01*
X155123000Y-110996000D02*
X152217000Y-110996000D01*
X155016000Y-111036000D02*
X152324000Y-111036000D01*
X154899000Y-111076000D02*
X152441000Y-111076000D01*
X154768000Y-111116000D02*
X152572000Y-111116000D01*
X154618000Y-111156000D02*
X152722000Y-111156000D01*
X154438000Y-111196000D02*
X152902000Y-111196000D01*
X154203000Y-111236000D02*
X153137000Y-111236000D01*
X157790000Y-107155000D02*
G75*
G03*
X157790000Y-107155000I-4120000J0D01*
G01*
D14*
X160528000Y-84582000D02*
X160528000Y-77343000D01*
X160528000Y-64262000D02*
X160528000Y-71120000D01*
X156591000Y-74422000D02*
X148463000Y-74422000D01*
X164719000Y-84582000D02*
X148463000Y-84582000D01*
X148463000Y-84582000D02*
X148463000Y-64262000D01*
X148463000Y-64262000D02*
X164719000Y-64262000D01*
X164719000Y-64262000D02*
X164719000Y-84582000D01*
X148463000Y-84201000D02*
X138938000Y-84201000D01*
X138938000Y-84201000D02*
X138938000Y-64643000D01*
X138938000Y-64643000D02*
X148463000Y-64643000D01*
X148463000Y-64643000D02*
X148463000Y-84201000D01*
D15*
X72991000Y-138140000D02*
X72835000Y-138140000D01*
X70675000Y-138140000D02*
X70519000Y-138140000D01*
X72833608Y-141372334D02*
G75*
G03*
X72990515Y-138140001I-1078608J1672334D01*
G01*
X72834836Y-140741129D02*
G75*
G03*
X72834999Y-138659040I-1079836J1041129D01*
G01*
X70675001Y-138659040D02*
G75*
G03*
X70675164Y-140741129I1079999J-1040960D01*
G01*
X70519485Y-138140001D02*
G75*
G03*
X70676392Y-141372334I1235515J-1559999D01*
G01*
X56435000Y-135780000D02*
X64235000Y-135780000D01*
X56435000Y-141830000D02*
X56435000Y-135780000D01*
X57785000Y-140720000D02*
X62865000Y-140720000D01*
X57785000Y-141730000D02*
X57785000Y-140720000D01*
X62865000Y-140720000D02*
X62865000Y-141730000D01*
X64235000Y-135780000D02*
X64235000Y-141830000D01*
X64235000Y-141830000D02*
X56435000Y-141830000D01*
X159747000Y-61214000D02*
G75*
G03*
X159747000Y-61214000I-1251000J0D01*
G01*
D14*
X48641000Y-42000500D02*
X48641000Y-49747500D01*
X48641000Y-64987500D02*
X48641000Y-72099500D01*
X48768000Y-54827500D02*
X48768000Y-59907500D01*
X51181000Y-52160500D02*
X60706000Y-52160500D01*
X51435000Y-62320500D02*
X60706000Y-62320500D01*
X43053000Y-42000500D02*
X60706000Y-42000500D01*
X60706000Y-42000500D02*
X60706000Y-72099500D01*
X60706000Y-72099500D02*
X43053000Y-72099500D01*
X43053000Y-72099500D02*
X43053000Y-42000500D01*
X60706000Y-42381500D02*
X68453000Y-42381500D01*
X68453000Y-42381500D02*
X68453000Y-71591500D01*
X68453000Y-71591500D02*
X60706000Y-71591500D01*
X60706000Y-71591500D02*
X60706000Y-42381500D01*
D15*
X91315000Y-98240000D02*
X97715000Y-98240000D01*
X91315000Y-103290000D02*
X97715000Y-103290000D01*
X91315000Y-98240000D02*
G75*
G03*
X91315000Y-103290000I0J-2525000D01*
G01*
X97715000Y-103290000D02*
G75*
G03*
X97715000Y-98240000I0J2525000D01*
G01*
X79375000Y-48430000D02*
X79375000Y-49280000D01*
X80518000Y-49280000D02*
X78232000Y-49280000D01*
X78232000Y-49280000D02*
X78232000Y-65020000D01*
X80518000Y-65020000D02*
X80518000Y-49280000D01*
X78232000Y-65020000D02*
X80518000Y-65020000D01*
X79375000Y-65870000D02*
X79375000Y-65020000D01*
X117796000Y-126602000D02*
X122996000Y-126602000D01*
X122996000Y-126602000D02*
X122996000Y-121302000D01*
X117796000Y-124952000D02*
X117796000Y-126602000D01*
X117796000Y-121302000D02*
X117796000Y-122952000D01*
X122996000Y-121302000D02*
X117796000Y-121302000D01*
X117796000Y-124952000D02*
G75*
G03*
X117796000Y-122952000I0J1000000D01*
G01*
X137790000Y-74930000D02*
X137790000Y-59690000D01*
X137790000Y-74930000D02*
X106050000Y-74930000D01*
X137790000Y-59690000D02*
X106050000Y-59690000D01*
X106050000Y-74930000D02*
X106050000Y-59690000D01*
X117583000Y-87884000D02*
G75*
G03*
X117583000Y-87884000I-1251000J0D01*
G01*
X46990000Y-94464000D02*
X46990000Y-94044000D01*
X45220000Y-94044000D02*
X48760000Y-94044000D01*
X48760000Y-94044000D02*
X48760000Y-86804000D01*
X45220000Y-86804000D02*
X45220000Y-94044000D01*
X48760000Y-86804000D02*
X45220000Y-86804000D01*
X46990000Y-86384000D02*
X46990000Y-86804000D01*
X83752000Y-65352000D02*
X83752000Y-67407000D01*
X83752000Y-65352000D02*
X95492000Y-65352000D01*
X83752000Y-68737000D02*
X83752000Y-70792000D01*
X83752000Y-70792000D02*
X95492000Y-70792000D01*
X95492000Y-65352000D02*
X95492000Y-67407000D01*
X95492000Y-68737000D02*
X95492000Y-70792000D01*
D14*
X104902000Y-47371000D02*
X112014000Y-47371000D01*
X112014000Y-47371000D02*
X112014000Y-54229000D01*
X112014000Y-54229000D02*
X104902000Y-54229000D01*
X104902000Y-54229000D02*
X104902000Y-47371000D01*
D15*
X101180000Y-45720000D02*
X101180000Y-30480000D01*
X101180000Y-45720000D02*
X69440000Y-45720000D01*
X101180000Y-30480000D02*
X69440000Y-30480000D01*
X69440000Y-45720000D02*
X69440000Y-30480000D01*
X50402000Y-122348000D02*
X50402000Y-130148000D01*
X44352000Y-122348000D02*
X50402000Y-122348000D01*
X45462000Y-123698000D02*
X45462000Y-128778000D01*
X44452000Y-123698000D02*
X45462000Y-123698000D01*
X45462000Y-128778000D02*
X44452000Y-128778000D01*
X50402000Y-130148000D02*
X44352000Y-130148000D01*
X44352000Y-130148000D02*
X44352000Y-122348000D01*
X63689000Y-126552000D02*
X63689000Y-125222000D01*
X65019000Y-126552000D02*
X63689000Y-126552000D01*
X66289000Y-126552000D02*
X68889000Y-126552000D01*
X66289000Y-126552000D02*
X66289000Y-123892000D01*
X68889000Y-126552000D02*
X68889000Y-123892000D01*
X66289000Y-123892000D02*
X68889000Y-123892000D01*
X78596000Y-100250000D02*
X78596000Y-108050000D01*
X72546000Y-100250000D02*
X78596000Y-100250000D01*
X73656000Y-101600000D02*
X73656000Y-106680000D01*
X72646000Y-101600000D02*
X73656000Y-101600000D01*
X73656000Y-106680000D02*
X72646000Y-106680000D01*
X78596000Y-108050000D02*
X72546000Y-108050000D01*
X72546000Y-108050000D02*
X72546000Y-100250000D01*
X158223000Y-87630000D02*
G75*
G03*
X158223000Y-87630000I-1251000J0D01*
G01*
D14*
X142494000Y-47371000D02*
X149606000Y-47371000D01*
X149606000Y-47371000D02*
X149606000Y-54229000D01*
X149606000Y-54229000D02*
X142494000Y-54229000D01*
X142494000Y-54229000D02*
X142494000Y-47371000D01*
D15*
X155204000Y-57209000D02*
X160274000Y-57209000D01*
X155204000Y-57209000D02*
X155204000Y-47439000D01*
X160274000Y-57209000D02*
X160274000Y-47439000D01*
X155204000Y-47439000D02*
X160274000Y-47439000D01*
X127225000Y-100832349D02*
X127225000Y-100032349D01*
X126825000Y-100432349D02*
X127625000Y-100432349D01*
X125460000Y-96422651D02*
X133620000Y-96422651D01*
X125460000Y-96382651D02*
X133620000Y-96382651D01*
X125460000Y-96342651D02*
X133620000Y-96342651D01*
X125461000Y-96302651D02*
X133619000Y-96302651D01*
X125463000Y-96262651D02*
X133617000Y-96262651D01*
X125464000Y-96222651D02*
X133616000Y-96222651D01*
X125466000Y-96182651D02*
X133614000Y-96182651D01*
X125469000Y-96142651D02*
X133611000Y-96142651D01*
X125472000Y-96102651D02*
X133608000Y-96102651D01*
X125475000Y-96062651D02*
X133605000Y-96062651D01*
X125479000Y-96022651D02*
X133601000Y-96022651D01*
X125483000Y-95982651D02*
X133597000Y-95982651D01*
X125488000Y-95942651D02*
X133592000Y-95942651D01*
X125492000Y-95902651D02*
X133588000Y-95902651D01*
X125498000Y-95862651D02*
X133582000Y-95862651D01*
X125503000Y-95822651D02*
X133577000Y-95822651D01*
X125510000Y-95782651D02*
X133570000Y-95782651D01*
X125516000Y-95742651D02*
X133564000Y-95742651D01*
X125523000Y-95701651D02*
X133557000Y-95701651D01*
X125530000Y-95661651D02*
X133550000Y-95661651D01*
X125538000Y-95621651D02*
X133542000Y-95621651D01*
X125546000Y-95581651D02*
X133534000Y-95581651D01*
X125555000Y-95541651D02*
X133525000Y-95541651D01*
X125564000Y-95501651D02*
X133516000Y-95501651D01*
X125573000Y-95461651D02*
X133507000Y-95461651D01*
X125583000Y-95421651D02*
X133497000Y-95421651D01*
X125593000Y-95381651D02*
X133487000Y-95381651D01*
X125604000Y-95341651D02*
X133476000Y-95341651D01*
X125615000Y-95301651D02*
X133465000Y-95301651D01*
X125626000Y-95261651D02*
X133454000Y-95261651D01*
X125638000Y-95221651D02*
X133442000Y-95221651D01*
X125651000Y-95181651D02*
X133429000Y-95181651D01*
X125663000Y-95141651D02*
X133417000Y-95141651D01*
X125677000Y-95101651D02*
X133403000Y-95101651D01*
X125690000Y-95061651D02*
X133390000Y-95061651D01*
X125705000Y-95021651D02*
X133375000Y-95021651D01*
X125719000Y-94981651D02*
X133361000Y-94981651D01*
X125735000Y-94941651D02*
X128500000Y-94941651D01*
X130580000Y-94941651D02*
X133345000Y-94941651D01*
X125750000Y-94901651D02*
X128500000Y-94901651D01*
X130580000Y-94901651D02*
X133330000Y-94901651D01*
X125766000Y-94861651D02*
X128500000Y-94861651D01*
X130580000Y-94861651D02*
X133314000Y-94861651D01*
X125783000Y-94821651D02*
X128500000Y-94821651D01*
X130580000Y-94821651D02*
X133297000Y-94821651D01*
X125800000Y-94781651D02*
X128500000Y-94781651D01*
X130580000Y-94781651D02*
X133280000Y-94781651D01*
X125818000Y-94741651D02*
X128500000Y-94741651D01*
X130580000Y-94741651D02*
X133262000Y-94741651D01*
X125836000Y-94701651D02*
X128500000Y-94701651D01*
X130580000Y-94701651D02*
X133244000Y-94701651D01*
X125854000Y-94661651D02*
X128500000Y-94661651D01*
X130580000Y-94661651D02*
X133226000Y-94661651D01*
X125874000Y-94621651D02*
X128500000Y-94621651D01*
X130580000Y-94621651D02*
X133206000Y-94621651D01*
X125893000Y-94581651D02*
X128500000Y-94581651D01*
X130580000Y-94581651D02*
X133187000Y-94581651D01*
X125913000Y-94541651D02*
X128500000Y-94541651D01*
X130580000Y-94541651D02*
X133167000Y-94541651D01*
X125934000Y-94501651D02*
X128500000Y-94501651D01*
X130580000Y-94501651D02*
X133146000Y-94501651D01*
X125956000Y-94461651D02*
X128500000Y-94461651D01*
X130580000Y-94461651D02*
X133124000Y-94461651D01*
X125978000Y-94421651D02*
X128500000Y-94421651D01*
X130580000Y-94421651D02*
X133102000Y-94421651D01*
X126000000Y-94381651D02*
X128500000Y-94381651D01*
X130580000Y-94381651D02*
X133080000Y-94381651D01*
X126023000Y-94341651D02*
X128500000Y-94341651D01*
X130580000Y-94341651D02*
X133057000Y-94341651D01*
X126047000Y-94301651D02*
X128500000Y-94301651D01*
X130580000Y-94301651D02*
X133033000Y-94301651D01*
X126071000Y-94261651D02*
X128500000Y-94261651D01*
X130580000Y-94261651D02*
X133009000Y-94261651D01*
X126096000Y-94221651D02*
X128500000Y-94221651D01*
X130580000Y-94221651D02*
X132984000Y-94221651D01*
X126122000Y-94181651D02*
X128500000Y-94181651D01*
X130580000Y-94181651D02*
X132958000Y-94181651D01*
X126148000Y-94141651D02*
X128500000Y-94141651D01*
X130580000Y-94141651D02*
X132932000Y-94141651D01*
X126175000Y-94101651D02*
X128500000Y-94101651D01*
X130580000Y-94101651D02*
X132905000Y-94101651D01*
X126202000Y-94061651D02*
X128500000Y-94061651D01*
X130580000Y-94061651D02*
X132878000Y-94061651D01*
X126231000Y-94021651D02*
X128500000Y-94021651D01*
X130580000Y-94021651D02*
X132849000Y-94021651D01*
X126260000Y-93981651D02*
X128500000Y-93981651D01*
X130580000Y-93981651D02*
X132820000Y-93981651D01*
X126290000Y-93941651D02*
X128500000Y-93941651D01*
X130580000Y-93941651D02*
X132790000Y-93941651D01*
X126320000Y-93901651D02*
X128500000Y-93901651D01*
X130580000Y-93901651D02*
X132760000Y-93901651D01*
X126351000Y-93861651D02*
X128500000Y-93861651D01*
X130580000Y-93861651D02*
X132729000Y-93861651D01*
X126384000Y-93821651D02*
X128500000Y-93821651D01*
X130580000Y-93821651D02*
X132696000Y-93821651D01*
X126416000Y-93781651D02*
X128500000Y-93781651D01*
X130580000Y-93781651D02*
X132664000Y-93781651D01*
X126450000Y-93741651D02*
X128500000Y-93741651D01*
X130580000Y-93741651D02*
X132630000Y-93741651D01*
X126485000Y-93701651D02*
X128500000Y-93701651D01*
X130580000Y-93701651D02*
X132595000Y-93701651D01*
X126521000Y-93661651D02*
X128500000Y-93661651D01*
X130580000Y-93661651D02*
X132559000Y-93661651D01*
X126557000Y-93621651D02*
X128500000Y-93621651D01*
X130580000Y-93621651D02*
X132523000Y-93621651D01*
X126595000Y-93581651D02*
X128500000Y-93581651D01*
X130580000Y-93581651D02*
X132485000Y-93581651D01*
X126633000Y-93541651D02*
X128500000Y-93541651D01*
X130580000Y-93541651D02*
X132447000Y-93541651D01*
X126673000Y-93501651D02*
X128500000Y-93501651D01*
X130580000Y-93501651D02*
X132407000Y-93501651D01*
X126714000Y-93461651D02*
X128500000Y-93461651D01*
X130580000Y-93461651D02*
X132366000Y-93461651D01*
X126756000Y-93421651D02*
X128500000Y-93421651D01*
X130580000Y-93421651D02*
X132324000Y-93421651D01*
X126799000Y-93381651D02*
X128500000Y-93381651D01*
X130580000Y-93381651D02*
X132281000Y-93381651D01*
X126843000Y-93341651D02*
X128500000Y-93341651D01*
X130580000Y-93341651D02*
X132237000Y-93341651D01*
X126889000Y-93301651D02*
X128500000Y-93301651D01*
X130580000Y-93301651D02*
X132191000Y-93301651D01*
X126936000Y-93261651D02*
X128500000Y-93261651D01*
X130580000Y-93261651D02*
X132144000Y-93261651D01*
X126984000Y-93221651D02*
X128500000Y-93221651D01*
X130580000Y-93221651D02*
X132096000Y-93221651D01*
X127035000Y-93181651D02*
X128500000Y-93181651D01*
X130580000Y-93181651D02*
X132045000Y-93181651D01*
X127086000Y-93141651D02*
X128500000Y-93141651D01*
X130580000Y-93141651D02*
X131994000Y-93141651D01*
X127140000Y-93101651D02*
X128500000Y-93101651D01*
X130580000Y-93101651D02*
X131940000Y-93101651D01*
X127195000Y-93061651D02*
X128500000Y-93061651D01*
X130580000Y-93061651D02*
X131885000Y-93061651D01*
X127253000Y-93021651D02*
X128500000Y-93021651D01*
X130580000Y-93021651D02*
X131827000Y-93021651D01*
X127312000Y-92981651D02*
X128500000Y-92981651D01*
X130580000Y-92981651D02*
X131768000Y-92981651D01*
X127374000Y-92941651D02*
X128500000Y-92941651D01*
X130580000Y-92941651D02*
X131706000Y-92941651D01*
X127438000Y-92901651D02*
X128500000Y-92901651D01*
X130580000Y-92901651D02*
X131642000Y-92901651D01*
X127506000Y-92861651D02*
X131574000Y-92861651D01*
X127576000Y-92821651D02*
X131504000Y-92821651D01*
X127650000Y-92781651D02*
X131430000Y-92781651D01*
X127727000Y-92741651D02*
X131353000Y-92741651D01*
X127809000Y-92701651D02*
X131271000Y-92701651D01*
X127895000Y-92661651D02*
X131185000Y-92661651D01*
X127988000Y-92621651D02*
X131092000Y-92621651D01*
X128087000Y-92581651D02*
X130993000Y-92581651D01*
X128194000Y-92541651D02*
X130886000Y-92541651D01*
X128311000Y-92501651D02*
X130769000Y-92501651D01*
X128442000Y-92461651D02*
X130638000Y-92461651D01*
X128592000Y-92421651D02*
X130488000Y-92421651D01*
X128772000Y-92381651D02*
X130308000Y-92381651D01*
X129007000Y-92341651D02*
X130073000Y-92341651D01*
X133660000Y-96422651D02*
G75*
G03*
X133660000Y-96422651I-4120000J0D01*
G01*
X155985000Y-121160302D02*
X155985000Y-121960302D01*
X156385000Y-121560302D02*
X155585000Y-121560302D01*
X157750000Y-125570000D02*
X149590000Y-125570000D01*
X157750000Y-125610000D02*
X149590000Y-125610000D01*
X157750000Y-125650000D02*
X149590000Y-125650000D01*
X157749000Y-125690000D02*
X149591000Y-125690000D01*
X157747000Y-125730000D02*
X149593000Y-125730000D01*
X157746000Y-125770000D02*
X149594000Y-125770000D01*
X157744000Y-125810000D02*
X149596000Y-125810000D01*
X157741000Y-125850000D02*
X149599000Y-125850000D01*
X157738000Y-125890000D02*
X149602000Y-125890000D01*
X157735000Y-125930000D02*
X149605000Y-125930000D01*
X157731000Y-125970000D02*
X149609000Y-125970000D01*
X157727000Y-126010000D02*
X149613000Y-126010000D01*
X157722000Y-126050000D02*
X149618000Y-126050000D01*
X157718000Y-126090000D02*
X149622000Y-126090000D01*
X157712000Y-126130000D02*
X149628000Y-126130000D01*
X157707000Y-126170000D02*
X149633000Y-126170000D01*
X157700000Y-126210000D02*
X149640000Y-126210000D01*
X157694000Y-126250000D02*
X149646000Y-126250000D01*
X157687000Y-126291000D02*
X149653000Y-126291000D01*
X157680000Y-126331000D02*
X149660000Y-126331000D01*
X157672000Y-126371000D02*
X149668000Y-126371000D01*
X157664000Y-126411000D02*
X149676000Y-126411000D01*
X157655000Y-126451000D02*
X149685000Y-126451000D01*
X157646000Y-126491000D02*
X149694000Y-126491000D01*
X157637000Y-126531000D02*
X149703000Y-126531000D01*
X157627000Y-126571000D02*
X149713000Y-126571000D01*
X157617000Y-126611000D02*
X149723000Y-126611000D01*
X157606000Y-126651000D02*
X149734000Y-126651000D01*
X157595000Y-126691000D02*
X149745000Y-126691000D01*
X157584000Y-126731000D02*
X149756000Y-126731000D01*
X157572000Y-126771000D02*
X149768000Y-126771000D01*
X157559000Y-126811000D02*
X149781000Y-126811000D01*
X157547000Y-126851000D02*
X149793000Y-126851000D01*
X157533000Y-126891000D02*
X149807000Y-126891000D01*
X157520000Y-126931000D02*
X149820000Y-126931000D01*
X157505000Y-126971000D02*
X149835000Y-126971000D01*
X157491000Y-127011000D02*
X149849000Y-127011000D01*
X157475000Y-127051000D02*
X154710000Y-127051000D01*
X152630000Y-127051000D02*
X149865000Y-127051000D01*
X157460000Y-127091000D02*
X154710000Y-127091000D01*
X152630000Y-127091000D02*
X149880000Y-127091000D01*
X157444000Y-127131000D02*
X154710000Y-127131000D01*
X152630000Y-127131000D02*
X149896000Y-127131000D01*
X157427000Y-127171000D02*
X154710000Y-127171000D01*
X152630000Y-127171000D02*
X149913000Y-127171000D01*
X157410000Y-127211000D02*
X154710000Y-127211000D01*
X152630000Y-127211000D02*
X149930000Y-127211000D01*
X157392000Y-127251000D02*
X154710000Y-127251000D01*
X152630000Y-127251000D02*
X149948000Y-127251000D01*
X157374000Y-127291000D02*
X154710000Y-127291000D01*
X152630000Y-127291000D02*
X149966000Y-127291000D01*
X157356000Y-127331000D02*
X154710000Y-127331000D01*
X152630000Y-127331000D02*
X149984000Y-127331000D01*
X157336000Y-127371000D02*
X154710000Y-127371000D01*
X152630000Y-127371000D02*
X150004000Y-127371000D01*
X157317000Y-127411000D02*
X154710000Y-127411000D01*
X152630000Y-127411000D02*
X150023000Y-127411000D01*
X157297000Y-127451000D02*
X154710000Y-127451000D01*
X152630000Y-127451000D02*
X150043000Y-127451000D01*
X157276000Y-127491000D02*
X154710000Y-127491000D01*
X152630000Y-127491000D02*
X150064000Y-127491000D01*
X157254000Y-127531000D02*
X154710000Y-127531000D01*
X152630000Y-127531000D02*
X150086000Y-127531000D01*
X157232000Y-127571000D02*
X154710000Y-127571000D01*
X152630000Y-127571000D02*
X150108000Y-127571000D01*
X157210000Y-127611000D02*
X154710000Y-127611000D01*
X152630000Y-127611000D02*
X150130000Y-127611000D01*
X157187000Y-127651000D02*
X154710000Y-127651000D01*
X152630000Y-127651000D02*
X150153000Y-127651000D01*
X157163000Y-127691000D02*
X154710000Y-127691000D01*
X152630000Y-127691000D02*
X150177000Y-127691000D01*
X157139000Y-127731000D02*
X154710000Y-127731000D01*
X152630000Y-127731000D02*
X150201000Y-127731000D01*
X157114000Y-127771000D02*
X154710000Y-127771000D01*
X152630000Y-127771000D02*
X150226000Y-127771000D01*
X157088000Y-127811000D02*
X154710000Y-127811000D01*
X152630000Y-127811000D02*
X150252000Y-127811000D01*
X157062000Y-127851000D02*
X154710000Y-127851000D01*
X152630000Y-127851000D02*
X150278000Y-127851000D01*
X157035000Y-127891000D02*
X154710000Y-127891000D01*
X152630000Y-127891000D02*
X150305000Y-127891000D01*
X157008000Y-127931000D02*
X154710000Y-127931000D01*
X152630000Y-127931000D02*
X150332000Y-127931000D01*
X156979000Y-127971000D02*
X154710000Y-127971000D01*
X152630000Y-127971000D02*
X150361000Y-127971000D01*
X156950000Y-128011000D02*
X154710000Y-128011000D01*
X152630000Y-128011000D02*
X150390000Y-128011000D01*
X156920000Y-128051000D02*
X154710000Y-128051000D01*
X152630000Y-128051000D02*
X150420000Y-128051000D01*
X156890000Y-128091000D02*
X154710000Y-128091000D01*
X152630000Y-128091000D02*
X150450000Y-128091000D01*
X156859000Y-128131000D02*
X154710000Y-128131000D01*
X152630000Y-128131000D02*
X150481000Y-128131000D01*
X156826000Y-128171000D02*
X154710000Y-128171000D01*
X152630000Y-128171000D02*
X150514000Y-128171000D01*
X156794000Y-128211000D02*
X154710000Y-128211000D01*
X152630000Y-128211000D02*
X150546000Y-128211000D01*
X156760000Y-128251000D02*
X154710000Y-128251000D01*
X152630000Y-128251000D02*
X150580000Y-128251000D01*
X156725000Y-128291000D02*
X154710000Y-128291000D01*
X152630000Y-128291000D02*
X150615000Y-128291000D01*
X156689000Y-128331000D02*
X154710000Y-128331000D01*
X152630000Y-128331000D02*
X150651000Y-128331000D01*
X156653000Y-128371000D02*
X154710000Y-128371000D01*
X152630000Y-128371000D02*
X150687000Y-128371000D01*
X156615000Y-128411000D02*
X154710000Y-128411000D01*
X152630000Y-128411000D02*
X150725000Y-128411000D01*
X156577000Y-128451000D02*
X154710000Y-128451000D01*
X152630000Y-128451000D02*
X150763000Y-128451000D01*
X156537000Y-128491000D02*
X154710000Y-128491000D01*
X152630000Y-128491000D02*
X150803000Y-128491000D01*
X156496000Y-128531000D02*
X154710000Y-128531000D01*
X152630000Y-128531000D02*
X150844000Y-128531000D01*
X156454000Y-128571000D02*
X154710000Y-128571000D01*
X152630000Y-128571000D02*
X150886000Y-128571000D01*
X156411000Y-128611000D02*
X154710000Y-128611000D01*
X152630000Y-128611000D02*
X150929000Y-128611000D01*
X156367000Y-128651000D02*
X154710000Y-128651000D01*
X152630000Y-128651000D02*
X150973000Y-128651000D01*
X156321000Y-128691000D02*
X154710000Y-128691000D01*
X152630000Y-128691000D02*
X151019000Y-128691000D01*
X156274000Y-128731000D02*
X154710000Y-128731000D01*
X152630000Y-128731000D02*
X151066000Y-128731000D01*
X156226000Y-128771000D02*
X154710000Y-128771000D01*
X152630000Y-128771000D02*
X151114000Y-128771000D01*
X156175000Y-128811000D02*
X154710000Y-128811000D01*
X152630000Y-128811000D02*
X151165000Y-128811000D01*
X156124000Y-128851000D02*
X154710000Y-128851000D01*
X152630000Y-128851000D02*
X151216000Y-128851000D01*
X156070000Y-128891000D02*
X154710000Y-128891000D01*
X152630000Y-128891000D02*
X151270000Y-128891000D01*
X156015000Y-128931000D02*
X154710000Y-128931000D01*
X152630000Y-128931000D02*
X151325000Y-128931000D01*
X155957000Y-128971000D02*
X154710000Y-128971000D01*
X152630000Y-128971000D02*
X151383000Y-128971000D01*
X155898000Y-129011000D02*
X154710000Y-129011000D01*
X152630000Y-129011000D02*
X151442000Y-129011000D01*
X155836000Y-129051000D02*
X154710000Y-129051000D01*
X152630000Y-129051000D02*
X151504000Y-129051000D01*
X155772000Y-129091000D02*
X154710000Y-129091000D01*
X152630000Y-129091000D02*
X151568000Y-129091000D01*
X155704000Y-129131000D02*
X151636000Y-129131000D01*
X155634000Y-129171000D02*
X151706000Y-129171000D01*
X155560000Y-129211000D02*
X151780000Y-129211000D01*
X155483000Y-129251000D02*
X151857000Y-129251000D01*
X155401000Y-129291000D02*
X151939000Y-129291000D01*
X155315000Y-129331000D02*
X152025000Y-129331000D01*
X155222000Y-129371000D02*
X152118000Y-129371000D01*
X155123000Y-129411000D02*
X152217000Y-129411000D01*
X155016000Y-129451000D02*
X152324000Y-129451000D01*
X154899000Y-129491000D02*
X152441000Y-129491000D01*
X154768000Y-129531000D02*
X152572000Y-129531000D01*
X154618000Y-129571000D02*
X152722000Y-129571000D01*
X154438000Y-129611000D02*
X152902000Y-129611000D01*
X154203000Y-129651000D02*
X153137000Y-129651000D01*
X157790000Y-125570000D02*
G75*
G03*
X157790000Y-125570000I-4120000J0D01*
G01*
X151140000Y-101205000D02*
X156210000Y-101205000D01*
X151140000Y-101205000D02*
X151140000Y-91435000D01*
X156210000Y-101205000D02*
X156210000Y-91435000D01*
X151140000Y-91435000D02*
X156210000Y-91435000D01*
%LPC*%
D16*
X45720000Y-102870000D03*
D17*
X48260000Y-102870000D03*
X45720000Y-105410000D03*
X48260000Y-105410000D03*
X45720000Y-107950000D03*
X48260000Y-107950000D03*
X45720000Y-110490000D03*
X48260000Y-110490000D03*
X45720000Y-113030000D03*
X48260000Y-113030000D03*
D18*
X62230000Y-94604651D03*
D19*
X62230000Y-89604651D03*
D18*
X116586000Y-98980000D03*
D19*
X116586000Y-93980000D03*
D20*
X71120000Y-46990000D03*
D21*
X71120000Y-67310000D03*
D22*
X136906000Y-38608000D03*
D18*
X78232000Y-94604651D03*
D19*
X78232000Y-89604651D03*
D23*
X118745000Y-140135000D03*
D17*
X118745000Y-137595000D03*
X121285000Y-140135000D03*
X121285000Y-137595000D03*
X123825000Y-140135000D03*
X123825000Y-137595000D03*
X126365000Y-140135000D03*
X126365000Y-137595000D03*
X128905000Y-140135000D03*
X128905000Y-137595000D03*
D23*
X86360000Y-140135000D03*
D17*
X86360000Y-137595000D03*
X88900000Y-140135000D03*
X88900000Y-137595000D03*
X91440000Y-140135000D03*
X91440000Y-137595000D03*
X93980000Y-140135000D03*
X93980000Y-137595000D03*
X96520000Y-140135000D03*
X96520000Y-137595000D03*
D18*
X153670000Y-104655000D03*
D19*
X153670000Y-109655000D03*
D22*
X160401000Y-74422000D03*
D24*
X144145000Y-79502000D03*
X144145000Y-69342000D03*
D25*
X71755000Y-138430000D03*
D26*
X71755000Y-140970000D03*
D27*
X57785000Y-138430000D03*
D28*
X60325000Y-138430000D03*
X62865000Y-138430000D03*
D29*
X158496000Y-61214000D03*
D22*
X48641000Y-52160500D03*
X48641000Y-62320500D03*
D24*
X65024000Y-47080500D03*
X65024000Y-57240500D03*
X65024000Y-67400500D03*
D22*
X158750000Y-35560000D03*
X116840000Y-38608000D03*
D30*
X92075000Y-100765000D03*
X96955000Y-100765000D03*
D20*
X79375000Y-46990000D03*
D21*
X79375000Y-67310000D03*
D18*
X119126000Y-127762000D03*
D31*
X121666000Y-127762000D03*
X121666000Y-120142000D03*
X119126000Y-120142000D03*
D20*
X135670000Y-67310000D03*
X108170000Y-67310000D03*
D29*
X116332000Y-87884000D03*
D19*
X46990000Y-95504000D03*
D31*
X46990000Y-85344000D03*
D19*
X84622000Y-68072000D03*
X94622000Y-68072000D03*
D22*
X158750000Y-139065000D03*
D24*
X108458000Y-50800000D03*
D20*
X99060000Y-38100000D03*
X71560000Y-38100000D03*
D32*
X47752000Y-123698000D03*
D33*
X47752000Y-126238000D03*
X47752000Y-128778000D03*
D34*
X65019000Y-125222000D03*
D35*
X67559000Y-125222000D03*
D32*
X75946000Y-101600000D03*
D33*
X75946000Y-104140000D03*
X75946000Y-106680000D03*
D22*
X47625000Y-139065000D03*
D29*
X156972000Y-87630000D03*
D24*
X146050000Y-50800000D03*
D36*
X157734000Y-49784000D03*
X157734000Y-52324000D03*
X157734000Y-54864000D03*
D18*
X129540000Y-98922651D03*
D19*
X129540000Y-93922651D03*
D22*
X47625000Y-35560000D03*
D18*
X153670000Y-123070000D03*
D19*
X153670000Y-128070000D03*
D36*
X153670000Y-93780000D03*
X153670000Y-96320000D03*
X153670000Y-98860000D03*
D37*
X94965000Y-57150000D03*
D38*
X75105000Y-51700000D03*
D39*
X75105000Y-57150000D03*
X75105000Y-62600000D03*
%LPD*%
M02*
