M48
; DRILL file {KiCad 7.0.2} date Thu Sep 28 15:01:11 2023
; FORMAT={-:-/ absolute / metric / decimal}
; #@! TF.CreationDate,2023-09-28T15:01:11+02:00
; #@! TF.GenerationSoftware,Kicad,Pcbnew,7.0.2
; #@! TF.FileFunction,Plated,1,2,PTH
FMAT,2
METRIC
; #@! TA.AperFunction,Plated,PTH,ViaDrill
T1C0.500
; #@! TA.AperFunction,Plated,PTH,ComponentDrill
T2C0.800
; #@! TA.AperFunction,Plated,PTH,ComponentDrill
T3C0.900
; #@! TA.AperFunction,Plated,PTH,ComponentDrill
T4C1.000
; #@! TA.AperFunction,Plated,PTH,ComponentDrill
T5C1.200
; #@! TA.AperFunction,Plated,PTH,ComponentDrill
T6C1.300
; #@! TA.AperFunction,Plated,PTH,ComponentDrill
T7C1.500
; #@! TA.AperFunction,Plated,PTH,ComponentDrill
T8C2.000
; #@! TA.AperFunction,Plated,PTH,ComponentDrill
T9C3.000
%
G90
G05
T1
X62.23Y-116.84
X62.23Y-121.92
X62.23Y-127.0
X62.23Y-132.08
X63.5Y-59.69
X63.5Y-64.77
X63.5Y-69.85
X63.5Y-74.93
X63.5Y-81.28
X63.5Y-86.36
X63.5Y-91.44
X63.5Y-106.68
X63.5Y-111.76
X66.04Y-43.18
X68.269Y-97.937
X69.525Y-134.059
X69.85Y-43.18
X71.643Y-94.275
X71.66Y-91.673
X71.669Y-97.727
X74.422Y-91.694
X75.184Y-124.206
X76.2Y-36.83
X76.2Y-127.0
X77.216Y-81.788
X77.47Y-71.12
X77.47Y-74.93
X77.47Y-78.74
X79.855Y-107.55
X79.939Y-102.68
X80.356Y-134.311
X81.28Y-36.83
X81.28Y-127.0
X82.55Y-109.22
X85.598Y-119.634
X86.36Y-53.34
X86.36Y-55.88
X86.36Y-108.458
X87.63Y-44.45
X87.63Y-46.99
X90.17Y-41.91
X90.17Y-44.45
X90.17Y-123.19
X91.44Y-50.8
X91.44Y-53.34
X91.694Y-84.328
X91.7Y-90.636
X91.758Y-81.652
X91.814Y-78.07
X92.71Y-62.23
X92.71Y-66.04
X93.98Y-49.53
X95.66Y-38.624
X96.52Y-44.45
X96.52Y-62.23
X96.52Y-66.04
X96.52Y-72.39
X96.646Y-95.334
X97.897Y-77.939
X98.027Y-81.596
X98.115Y-87.862
X99.06Y-40.64
X99.746Y-101.677
X100.33Y-62.23
X102.108Y-125.73
X102.616Y-76.962
X103.886Y-39.624
X104.14Y-62.23
X104.394Y-124.172
X106.426Y-126.492
X106.445Y-103.472
X106.68Y-80.01
X106.934Y-96.266
X107.188Y-45.974
X107.95Y-72.39
X108.458Y-89.154
X109.22Y-122.428
X109.728Y-93.98
X109.982Y-39.624
X110.998Y-127.508
X111.76Y-80.01
X111.76Y-99.06
X112.014Y-61.976
X115.57Y-40.64
X115.57Y-44.45
X117.856Y-134.62
X130.302Y-44.196
X142.24Y-85.852
X149.352Y-104.902
T2
X68.285Y-46.08
X68.285Y-48.62
X68.285Y-51.16
X68.285Y-53.7
X68.285Y-56.24
X68.285Y-58.78
X68.285Y-61.32
X68.285Y-63.86
X68.285Y-66.4
X68.285Y-68.94
X68.285Y-71.48
X68.285Y-74.02
X68.285Y-76.56
X68.285Y-79.1
X68.285Y-81.64
X68.285Y-84.18
X68.285Y-86.72
X68.285Y-89.26
X68.285Y-91.8
X68.285Y-94.34
X76.21Y-129.965
X76.21Y-132.505
X77.216Y-101.844
X77.216Y-104.384
X77.216Y-106.924
X83.525Y-46.08
X83.525Y-48.62
X83.525Y-51.16
X83.525Y-53.7
X83.525Y-56.24
X83.525Y-58.78
X83.525Y-61.32
X83.525Y-63.86
X83.525Y-66.4
X83.525Y-68.94
X83.525Y-71.48
X83.525Y-74.02
X83.525Y-76.56
X83.525Y-79.1
X83.525Y-81.64
X83.525Y-84.18
X83.525Y-86.72
X83.525Y-89.26
X83.525Y-91.8
X83.525Y-94.34
X83.83Y-129.965
X83.83Y-132.505
X87.63Y-112.012
X87.63Y-115.512
X90.16Y-126.355
X90.16Y-128.895
X90.16Y-131.435
X90.16Y-133.975
X92.71Y-40.894
X92.71Y-44.394
X97.78Y-126.355
X97.78Y-128.895
X97.78Y-131.435
X97.78Y-133.975
X111.252Y-132.842
X113.792Y-132.842
X116.332Y-132.842
X137.962Y-46.482
X142.962Y-46.482
X145.582Y-65.532
X146.852Y-92.964
X146.852Y-109.728
X150.582Y-65.532
X151.852Y-92.964
X151.852Y-109.728
T3
X62.992Y-37.089
X62.992Y-39.629
X67.564Y-37.089
X67.564Y-39.629
X85.09Y-37.089
X85.09Y-39.629
X94.95Y-104.396
X95.25Y-53.086
X97.49Y-99.316
X97.49Y-110.746
X97.79Y-48.006
X97.79Y-59.436
X109.936Y-110.746
X110.236Y-59.436
X112.984Y-110.746
X113.284Y-59.436
X121.158Y-128.021
X121.158Y-130.561
X125.43Y-96.776
X125.43Y-110.746
X125.43Y-124.716
X125.73Y-45.466
X125.73Y-59.436
X125.73Y-73.406
X127.97Y-103.126
X127.97Y-118.366
X128.27Y-51.816
X128.27Y-67.056
T4
X66.525Y-101.635
X66.525Y-104.175
X66.525Y-106.715
X67.985Y-119.16
X67.985Y-121.7
X67.985Y-124.24
X67.985Y-126.78
X67.985Y-129.32
X70.525Y-119.16
X70.525Y-121.7
X70.525Y-124.24
X70.525Y-126.78
X70.525Y-129.32
X71.525Y-101.635
X71.525Y-104.175
X71.525Y-106.715
X77.216Y-116.078
X77.216Y-118.618
X77.216Y-121.158
T5
X101.3Y-95.506
X101.6Y-44.196
X104.14Y-93.98
X104.394Y-42.672
X129.392Y-85.598
X132.334Y-57.404
X132.334Y-75.946
X136.144Y-103.632
X136.144Y-120.65
X143.256Y-125.73
X143.256Y-130.048
X143.256Y-134.366
X151.892Y-85.598
X152.654Y-57.404
X152.654Y-75.946
X156.464Y-103.632
X156.464Y-120.65
X158.496Y-125.73
X158.496Y-130.048
X158.496Y-134.366
X205.994Y-41.656
X206.0Y-48.5
X206.0Y-76.0
T6
X135.382Y-70.104
X135.636Y-51.562
X136.144Y-97.79
X136.144Y-114.808
X150.622Y-70.104
X150.876Y-51.562
X151.384Y-97.79
X151.384Y-114.808
X164.338Y-45.212
X164.338Y-60.452
X164.338Y-65.532
X164.338Y-80.772
X164.338Y-89.408
X164.338Y-104.648
X164.338Y-110.49
X164.338Y-125.73
T7
X170.0Y-67.1
X170.0Y-72.55
X170.0Y-78.0
X170.0Y-94.0
X170.0Y-99.45
X170.0Y-104.9
X170.11Y-49.55
X170.11Y-55.0
X170.11Y-60.45
X170.11Y-112.1
X170.11Y-117.55
X170.11Y-123.0
T8
X137.0Y-133.0
X156.972Y-85.344
T9
X206.0Y-86.0
X206.0Y-122.0
T0
M30
