%TF.GenerationSoftware,KiCad,Pcbnew,7.0.2*%
%TF.CreationDate,2023-07-23T14:09:11+02:00*%
%TF.ProjectId,Module_1,4d6f6475-6c65-45f3-912e-6b696361645f,rev?*%
%TF.SameCoordinates,Original*%
%TF.FileFunction,Drillmap*%
%TF.FilePolarity,Positive*%
%FSLAX45Y45*%
G04 Gerber Fmt 4.5, Leading zero omitted, Abs format (unit mm)*
G04 Created by KiCad (PCBNEW 7.0.2) date 2023-07-23 14:09:11*
%MOMM*%
%LPD*%
G01*
G04 APERTURE LIST*
%ADD10C,0.100000*%
%ADD11C,0.200000*%
%ADD12C,0.350000*%
G04 APERTURE END LIST*
D10*
X6054900Y-3505200D02*
X21656500Y-3505200D01*
X21656500Y-13657600D01*
X6054900Y-13657600D01*
X6054900Y-3505200D01*
D11*
D12*
X18225000Y-3915000D02*
X18575000Y-4265000D01*
X18575000Y-3915000D02*
X18225000Y-4265000D01*
X18225000Y-8415000D02*
X18575000Y-8765000D01*
X18575000Y-8415000D02*
X18225000Y-8765000D01*
X18225000Y-12915000D02*
X18575000Y-13265000D01*
X18575000Y-12915000D02*
X18225000Y-13265000D01*
D11*
X6297519Y-13975124D02*
X6297519Y-13775124D01*
X6297519Y-13775124D02*
X6345138Y-13775124D01*
X6345138Y-13775124D02*
X6373709Y-13784648D01*
X6373709Y-13784648D02*
X6392757Y-13803695D01*
X6392757Y-13803695D02*
X6402281Y-13822743D01*
X6402281Y-13822743D02*
X6411805Y-13860838D01*
X6411805Y-13860838D02*
X6411805Y-13889409D01*
X6411805Y-13889409D02*
X6402281Y-13927505D01*
X6402281Y-13927505D02*
X6392757Y-13946552D01*
X6392757Y-13946552D02*
X6373709Y-13965600D01*
X6373709Y-13965600D02*
X6345138Y-13975124D01*
X6345138Y-13975124D02*
X6297519Y-13975124D01*
X6497519Y-13975124D02*
X6497519Y-13841790D01*
X6497519Y-13879886D02*
X6507043Y-13860838D01*
X6507043Y-13860838D02*
X6516567Y-13851314D01*
X6516567Y-13851314D02*
X6535614Y-13841790D01*
X6535614Y-13841790D02*
X6554662Y-13841790D01*
X6621328Y-13975124D02*
X6621328Y-13841790D01*
X6621328Y-13775124D02*
X6611805Y-13784648D01*
X6611805Y-13784648D02*
X6621328Y-13794171D01*
X6621328Y-13794171D02*
X6630852Y-13784648D01*
X6630852Y-13784648D02*
X6621328Y-13775124D01*
X6621328Y-13775124D02*
X6621328Y-13794171D01*
X6745138Y-13975124D02*
X6726090Y-13965600D01*
X6726090Y-13965600D02*
X6716567Y-13946552D01*
X6716567Y-13946552D02*
X6716567Y-13775124D01*
X6849900Y-13975124D02*
X6830852Y-13965600D01*
X6830852Y-13965600D02*
X6821328Y-13946552D01*
X6821328Y-13946552D02*
X6821328Y-13775124D01*
X7078471Y-13975124D02*
X7078471Y-13775124D01*
X7078471Y-13775124D02*
X7145138Y-13917981D01*
X7145138Y-13917981D02*
X7211805Y-13775124D01*
X7211805Y-13775124D02*
X7211805Y-13975124D01*
X7392757Y-13975124D02*
X7392757Y-13870362D01*
X7392757Y-13870362D02*
X7383233Y-13851314D01*
X7383233Y-13851314D02*
X7364186Y-13841790D01*
X7364186Y-13841790D02*
X7326090Y-13841790D01*
X7326090Y-13841790D02*
X7307043Y-13851314D01*
X7392757Y-13965600D02*
X7373709Y-13975124D01*
X7373709Y-13975124D02*
X7326090Y-13975124D01*
X7326090Y-13975124D02*
X7307043Y-13965600D01*
X7307043Y-13965600D02*
X7297519Y-13946552D01*
X7297519Y-13946552D02*
X7297519Y-13927505D01*
X7297519Y-13927505D02*
X7307043Y-13908457D01*
X7307043Y-13908457D02*
X7326090Y-13898933D01*
X7326090Y-13898933D02*
X7373709Y-13898933D01*
X7373709Y-13898933D02*
X7392757Y-13889409D01*
X7487995Y-13841790D02*
X7487995Y-14041790D01*
X7487995Y-13851314D02*
X7507043Y-13841790D01*
X7507043Y-13841790D02*
X7545138Y-13841790D01*
X7545138Y-13841790D02*
X7564186Y-13851314D01*
X7564186Y-13851314D02*
X7573709Y-13860838D01*
X7573709Y-13860838D02*
X7583233Y-13879886D01*
X7583233Y-13879886D02*
X7583233Y-13937028D01*
X7583233Y-13937028D02*
X7573709Y-13956076D01*
X7573709Y-13956076D02*
X7564186Y-13965600D01*
X7564186Y-13965600D02*
X7545138Y-13975124D01*
X7545138Y-13975124D02*
X7507043Y-13975124D01*
X7507043Y-13975124D02*
X7487995Y-13965600D01*
X7668948Y-13956076D02*
X7678471Y-13965600D01*
X7678471Y-13965600D02*
X7668948Y-13975124D01*
X7668948Y-13975124D02*
X7659424Y-13965600D01*
X7659424Y-13965600D02*
X7668948Y-13956076D01*
X7668948Y-13956076D02*
X7668948Y-13975124D01*
X7668948Y-13851314D02*
X7678471Y-13860838D01*
X7678471Y-13860838D02*
X7668948Y-13870362D01*
X7668948Y-13870362D02*
X7659424Y-13860838D01*
X7659424Y-13860838D02*
X7668948Y-13851314D01*
X7668948Y-13851314D02*
X7668948Y-13870362D01*
X5849900Y-14202600D02*
X6049900Y-14402600D01*
X6049900Y-14202600D02*
X5849900Y-14402600D01*
X6278471Y-14195124D02*
X6402281Y-14195124D01*
X6402281Y-14195124D02*
X6335614Y-14271314D01*
X6335614Y-14271314D02*
X6364186Y-14271314D01*
X6364186Y-14271314D02*
X6383233Y-14280838D01*
X6383233Y-14280838D02*
X6392757Y-14290362D01*
X6392757Y-14290362D02*
X6402281Y-14309409D01*
X6402281Y-14309409D02*
X6402281Y-14357028D01*
X6402281Y-14357028D02*
X6392757Y-14376076D01*
X6392757Y-14376076D02*
X6383233Y-14385600D01*
X6383233Y-14385600D02*
X6364186Y-14395124D01*
X6364186Y-14395124D02*
X6307043Y-14395124D01*
X6307043Y-14395124D02*
X6287995Y-14385600D01*
X6287995Y-14385600D02*
X6278471Y-14376076D01*
X6487995Y-14376076D02*
X6497519Y-14385600D01*
X6497519Y-14385600D02*
X6487995Y-14395124D01*
X6487995Y-14395124D02*
X6478471Y-14385600D01*
X6478471Y-14385600D02*
X6487995Y-14376076D01*
X6487995Y-14376076D02*
X6487995Y-14395124D01*
X6678471Y-14195124D02*
X6583233Y-14195124D01*
X6583233Y-14195124D02*
X6573709Y-14290362D01*
X6573709Y-14290362D02*
X6583233Y-14280838D01*
X6583233Y-14280838D02*
X6602281Y-14271314D01*
X6602281Y-14271314D02*
X6649900Y-14271314D01*
X6649900Y-14271314D02*
X6668948Y-14280838D01*
X6668948Y-14280838D02*
X6678471Y-14290362D01*
X6678471Y-14290362D02*
X6687995Y-14309409D01*
X6687995Y-14309409D02*
X6687995Y-14357028D01*
X6687995Y-14357028D02*
X6678471Y-14376076D01*
X6678471Y-14376076D02*
X6668948Y-14385600D01*
X6668948Y-14385600D02*
X6649900Y-14395124D01*
X6649900Y-14395124D02*
X6602281Y-14395124D01*
X6602281Y-14395124D02*
X6583233Y-14385600D01*
X6583233Y-14385600D02*
X6573709Y-14376076D01*
X6811805Y-14195124D02*
X6830852Y-14195124D01*
X6830852Y-14195124D02*
X6849900Y-14204648D01*
X6849900Y-14204648D02*
X6859424Y-14214171D01*
X6859424Y-14214171D02*
X6868948Y-14233219D01*
X6868948Y-14233219D02*
X6878471Y-14271314D01*
X6878471Y-14271314D02*
X6878471Y-14318933D01*
X6878471Y-14318933D02*
X6868948Y-14357028D01*
X6868948Y-14357028D02*
X6859424Y-14376076D01*
X6859424Y-14376076D02*
X6849900Y-14385600D01*
X6849900Y-14385600D02*
X6830852Y-14395124D01*
X6830852Y-14395124D02*
X6811805Y-14395124D01*
X6811805Y-14395124D02*
X6792757Y-14385600D01*
X6792757Y-14385600D02*
X6783233Y-14376076D01*
X6783233Y-14376076D02*
X6773709Y-14357028D01*
X6773709Y-14357028D02*
X6764186Y-14318933D01*
X6764186Y-14318933D02*
X6764186Y-14271314D01*
X6764186Y-14271314D02*
X6773709Y-14233219D01*
X6773709Y-14233219D02*
X6783233Y-14214171D01*
X6783233Y-14214171D02*
X6792757Y-14204648D01*
X6792757Y-14204648D02*
X6811805Y-14195124D01*
X7002281Y-14195124D02*
X7021329Y-14195124D01*
X7021329Y-14195124D02*
X7040376Y-14204648D01*
X7040376Y-14204648D02*
X7049900Y-14214171D01*
X7049900Y-14214171D02*
X7059424Y-14233219D01*
X7059424Y-14233219D02*
X7068948Y-14271314D01*
X7068948Y-14271314D02*
X7068948Y-14318933D01*
X7068948Y-14318933D02*
X7059424Y-14357028D01*
X7059424Y-14357028D02*
X7049900Y-14376076D01*
X7049900Y-14376076D02*
X7040376Y-14385600D01*
X7040376Y-14385600D02*
X7021329Y-14395124D01*
X7021329Y-14395124D02*
X7002281Y-14395124D01*
X7002281Y-14395124D02*
X6983233Y-14385600D01*
X6983233Y-14385600D02*
X6973709Y-14376076D01*
X6973709Y-14376076D02*
X6964186Y-14357028D01*
X6964186Y-14357028D02*
X6954662Y-14318933D01*
X6954662Y-14318933D02*
X6954662Y-14271314D01*
X6954662Y-14271314D02*
X6964186Y-14233219D01*
X6964186Y-14233219D02*
X6973709Y-14214171D01*
X6973709Y-14214171D02*
X6983233Y-14204648D01*
X6983233Y-14204648D02*
X7002281Y-14195124D01*
X7154662Y-14395124D02*
X7154662Y-14261790D01*
X7154662Y-14280838D02*
X7164186Y-14271314D01*
X7164186Y-14271314D02*
X7183233Y-14261790D01*
X7183233Y-14261790D02*
X7211805Y-14261790D01*
X7211805Y-14261790D02*
X7230852Y-14271314D01*
X7230852Y-14271314D02*
X7240376Y-14290362D01*
X7240376Y-14290362D02*
X7240376Y-14395124D01*
X7240376Y-14290362D02*
X7249900Y-14271314D01*
X7249900Y-14271314D02*
X7268948Y-14261790D01*
X7268948Y-14261790D02*
X7297519Y-14261790D01*
X7297519Y-14261790D02*
X7316567Y-14271314D01*
X7316567Y-14271314D02*
X7326090Y-14290362D01*
X7326090Y-14290362D02*
X7326090Y-14395124D01*
X7421329Y-14395124D02*
X7421329Y-14261790D01*
X7421329Y-14280838D02*
X7430852Y-14271314D01*
X7430852Y-14271314D02*
X7449900Y-14261790D01*
X7449900Y-14261790D02*
X7478471Y-14261790D01*
X7478471Y-14261790D02*
X7497519Y-14271314D01*
X7497519Y-14271314D02*
X7507043Y-14290362D01*
X7507043Y-14290362D02*
X7507043Y-14395124D01*
X7507043Y-14290362D02*
X7516567Y-14271314D01*
X7516567Y-14271314D02*
X7535614Y-14261790D01*
X7535614Y-14261790D02*
X7564186Y-14261790D01*
X7564186Y-14261790D02*
X7583233Y-14271314D01*
X7583233Y-14271314D02*
X7592757Y-14290362D01*
X7592757Y-14290362D02*
X7592757Y-14395124D01*
X7983233Y-14185600D02*
X7811805Y-14442743D01*
X8240376Y-14195124D02*
X8259424Y-14195124D01*
X8259424Y-14195124D02*
X8278472Y-14204648D01*
X8278472Y-14204648D02*
X8287995Y-14214171D01*
X8287995Y-14214171D02*
X8297519Y-14233219D01*
X8297519Y-14233219D02*
X8307043Y-14271314D01*
X8307043Y-14271314D02*
X8307043Y-14318933D01*
X8307043Y-14318933D02*
X8297519Y-14357028D01*
X8297519Y-14357028D02*
X8287995Y-14376076D01*
X8287995Y-14376076D02*
X8278472Y-14385600D01*
X8278472Y-14385600D02*
X8259424Y-14395124D01*
X8259424Y-14395124D02*
X8240376Y-14395124D01*
X8240376Y-14395124D02*
X8221329Y-14385600D01*
X8221329Y-14385600D02*
X8211805Y-14376076D01*
X8211805Y-14376076D02*
X8202281Y-14357028D01*
X8202281Y-14357028D02*
X8192757Y-14318933D01*
X8192757Y-14318933D02*
X8192757Y-14271314D01*
X8192757Y-14271314D02*
X8202281Y-14233219D01*
X8202281Y-14233219D02*
X8211805Y-14214171D01*
X8211805Y-14214171D02*
X8221329Y-14204648D01*
X8221329Y-14204648D02*
X8240376Y-14195124D01*
X8392757Y-14376076D02*
X8402281Y-14385600D01*
X8402281Y-14385600D02*
X8392757Y-14395124D01*
X8392757Y-14395124D02*
X8383233Y-14385600D01*
X8383233Y-14385600D02*
X8392757Y-14376076D01*
X8392757Y-14376076D02*
X8392757Y-14395124D01*
X8592757Y-14395124D02*
X8478472Y-14395124D01*
X8535614Y-14395124D02*
X8535614Y-14195124D01*
X8535614Y-14195124D02*
X8516567Y-14223695D01*
X8516567Y-14223695D02*
X8497519Y-14242743D01*
X8497519Y-14242743D02*
X8478472Y-14252267D01*
X8659424Y-14195124D02*
X8783234Y-14195124D01*
X8783234Y-14195124D02*
X8716567Y-14271314D01*
X8716567Y-14271314D02*
X8745138Y-14271314D01*
X8745138Y-14271314D02*
X8764186Y-14280838D01*
X8764186Y-14280838D02*
X8773710Y-14290362D01*
X8773710Y-14290362D02*
X8783234Y-14309409D01*
X8783234Y-14309409D02*
X8783234Y-14357028D01*
X8783234Y-14357028D02*
X8773710Y-14376076D01*
X8773710Y-14376076D02*
X8764186Y-14385600D01*
X8764186Y-14385600D02*
X8745138Y-14395124D01*
X8745138Y-14395124D02*
X8687995Y-14395124D01*
X8687995Y-14395124D02*
X8668948Y-14385600D01*
X8668948Y-14385600D02*
X8659424Y-14376076D01*
X8849900Y-14195124D02*
X8983234Y-14195124D01*
X8983234Y-14195124D02*
X8897519Y-14395124D01*
X9087995Y-14280838D02*
X9068948Y-14271314D01*
X9068948Y-14271314D02*
X9059424Y-14261790D01*
X9059424Y-14261790D02*
X9049900Y-14242743D01*
X9049900Y-14242743D02*
X9049900Y-14233219D01*
X9049900Y-14233219D02*
X9059424Y-14214171D01*
X9059424Y-14214171D02*
X9068948Y-14204648D01*
X9068948Y-14204648D02*
X9087995Y-14195124D01*
X9087995Y-14195124D02*
X9126091Y-14195124D01*
X9126091Y-14195124D02*
X9145138Y-14204648D01*
X9145138Y-14204648D02*
X9154662Y-14214171D01*
X9154662Y-14214171D02*
X9164186Y-14233219D01*
X9164186Y-14233219D02*
X9164186Y-14242743D01*
X9164186Y-14242743D02*
X9154662Y-14261790D01*
X9154662Y-14261790D02*
X9145138Y-14271314D01*
X9145138Y-14271314D02*
X9126091Y-14280838D01*
X9126091Y-14280838D02*
X9087995Y-14280838D01*
X9087995Y-14280838D02*
X9068948Y-14290362D01*
X9068948Y-14290362D02*
X9059424Y-14299886D01*
X9059424Y-14299886D02*
X9049900Y-14318933D01*
X9049900Y-14318933D02*
X9049900Y-14357028D01*
X9049900Y-14357028D02*
X9059424Y-14376076D01*
X9059424Y-14376076D02*
X9068948Y-14385600D01*
X9068948Y-14385600D02*
X9087995Y-14395124D01*
X9087995Y-14395124D02*
X9126091Y-14395124D01*
X9126091Y-14395124D02*
X9145138Y-14385600D01*
X9145138Y-14385600D02*
X9154662Y-14376076D01*
X9154662Y-14376076D02*
X9164186Y-14357028D01*
X9164186Y-14357028D02*
X9164186Y-14318933D01*
X9164186Y-14318933D02*
X9154662Y-14299886D01*
X9154662Y-14299886D02*
X9145138Y-14290362D01*
X9145138Y-14290362D02*
X9126091Y-14280838D01*
X9240376Y-14195124D02*
X9240376Y-14233219D01*
X9316567Y-14195124D02*
X9316567Y-14233219D01*
X9611805Y-14471314D02*
X9602281Y-14461790D01*
X9602281Y-14461790D02*
X9583234Y-14433219D01*
X9583234Y-14433219D02*
X9573710Y-14414171D01*
X9573710Y-14414171D02*
X9564186Y-14385600D01*
X9564186Y-14385600D02*
X9554662Y-14337981D01*
X9554662Y-14337981D02*
X9554662Y-14299886D01*
X9554662Y-14299886D02*
X9564186Y-14252267D01*
X9564186Y-14252267D02*
X9573710Y-14223695D01*
X9573710Y-14223695D02*
X9583234Y-14204648D01*
X9583234Y-14204648D02*
X9602281Y-14176076D01*
X9602281Y-14176076D02*
X9611805Y-14166552D01*
X9668948Y-14195124D02*
X9792757Y-14195124D01*
X9792757Y-14195124D02*
X9726091Y-14271314D01*
X9726091Y-14271314D02*
X9754662Y-14271314D01*
X9754662Y-14271314D02*
X9773710Y-14280838D01*
X9773710Y-14280838D02*
X9783234Y-14290362D01*
X9783234Y-14290362D02*
X9792757Y-14309409D01*
X9792757Y-14309409D02*
X9792757Y-14357028D01*
X9792757Y-14357028D02*
X9783234Y-14376076D01*
X9783234Y-14376076D02*
X9773710Y-14385600D01*
X9773710Y-14385600D02*
X9754662Y-14395124D01*
X9754662Y-14395124D02*
X9697519Y-14395124D01*
X9697519Y-14395124D02*
X9678472Y-14385600D01*
X9678472Y-14385600D02*
X9668948Y-14376076D01*
X10030853Y-14395124D02*
X10030853Y-14195124D01*
X10116567Y-14395124D02*
X10116567Y-14290362D01*
X10116567Y-14290362D02*
X10107043Y-14271314D01*
X10107043Y-14271314D02*
X10087996Y-14261790D01*
X10087996Y-14261790D02*
X10059424Y-14261790D01*
X10059424Y-14261790D02*
X10040377Y-14271314D01*
X10040377Y-14271314D02*
X10030853Y-14280838D01*
X10240377Y-14395124D02*
X10221329Y-14385600D01*
X10221329Y-14385600D02*
X10211805Y-14376076D01*
X10211805Y-14376076D02*
X10202281Y-14357028D01*
X10202281Y-14357028D02*
X10202281Y-14299886D01*
X10202281Y-14299886D02*
X10211805Y-14280838D01*
X10211805Y-14280838D02*
X10221329Y-14271314D01*
X10221329Y-14271314D02*
X10240377Y-14261790D01*
X10240377Y-14261790D02*
X10268948Y-14261790D01*
X10268948Y-14261790D02*
X10287996Y-14271314D01*
X10287996Y-14271314D02*
X10297519Y-14280838D01*
X10297519Y-14280838D02*
X10307043Y-14299886D01*
X10307043Y-14299886D02*
X10307043Y-14357028D01*
X10307043Y-14357028D02*
X10297519Y-14376076D01*
X10297519Y-14376076D02*
X10287996Y-14385600D01*
X10287996Y-14385600D02*
X10268948Y-14395124D01*
X10268948Y-14395124D02*
X10240377Y-14395124D01*
X10421329Y-14395124D02*
X10402281Y-14385600D01*
X10402281Y-14385600D02*
X10392758Y-14366552D01*
X10392758Y-14366552D02*
X10392758Y-14195124D01*
X10573710Y-14385600D02*
X10554662Y-14395124D01*
X10554662Y-14395124D02*
X10516567Y-14395124D01*
X10516567Y-14395124D02*
X10497519Y-14385600D01*
X10497519Y-14385600D02*
X10487996Y-14366552D01*
X10487996Y-14366552D02*
X10487996Y-14290362D01*
X10487996Y-14290362D02*
X10497519Y-14271314D01*
X10497519Y-14271314D02*
X10516567Y-14261790D01*
X10516567Y-14261790D02*
X10554662Y-14261790D01*
X10554662Y-14261790D02*
X10573710Y-14271314D01*
X10573710Y-14271314D02*
X10583234Y-14290362D01*
X10583234Y-14290362D02*
X10583234Y-14309409D01*
X10583234Y-14309409D02*
X10487996Y-14328457D01*
X10659424Y-14385600D02*
X10678472Y-14395124D01*
X10678472Y-14395124D02*
X10716567Y-14395124D01*
X10716567Y-14395124D02*
X10735615Y-14385600D01*
X10735615Y-14385600D02*
X10745139Y-14366552D01*
X10745139Y-14366552D02*
X10745139Y-14357028D01*
X10745139Y-14357028D02*
X10735615Y-14337981D01*
X10735615Y-14337981D02*
X10716567Y-14328457D01*
X10716567Y-14328457D02*
X10687996Y-14328457D01*
X10687996Y-14328457D02*
X10668948Y-14318933D01*
X10668948Y-14318933D02*
X10659424Y-14299886D01*
X10659424Y-14299886D02*
X10659424Y-14290362D01*
X10659424Y-14290362D02*
X10668948Y-14271314D01*
X10668948Y-14271314D02*
X10687996Y-14261790D01*
X10687996Y-14261790D02*
X10716567Y-14261790D01*
X10716567Y-14261790D02*
X10735615Y-14271314D01*
X10811805Y-14471314D02*
X10821329Y-14461790D01*
X10821329Y-14461790D02*
X10840377Y-14433219D01*
X10840377Y-14433219D02*
X10849900Y-14414171D01*
X10849900Y-14414171D02*
X10859424Y-14385600D01*
X10859424Y-14385600D02*
X10868948Y-14337981D01*
X10868948Y-14337981D02*
X10868948Y-14299886D01*
X10868948Y-14299886D02*
X10859424Y-14252267D01*
X10859424Y-14252267D02*
X10849900Y-14223695D01*
X10849900Y-14223695D02*
X10840377Y-14204648D01*
X10840377Y-14204648D02*
X10821329Y-14176076D01*
X10821329Y-14176076D02*
X10811805Y-14166552D01*
X11173710Y-14471314D02*
X11164186Y-14461790D01*
X11164186Y-14461790D02*
X11145139Y-14433219D01*
X11145139Y-14433219D02*
X11135615Y-14414171D01*
X11135615Y-14414171D02*
X11126091Y-14385600D01*
X11126091Y-14385600D02*
X11116567Y-14337981D01*
X11116567Y-14337981D02*
X11116567Y-14299886D01*
X11116567Y-14299886D02*
X11126091Y-14252267D01*
X11126091Y-14252267D02*
X11135615Y-14223695D01*
X11135615Y-14223695D02*
X11145139Y-14204648D01*
X11145139Y-14204648D02*
X11164186Y-14176076D01*
X11164186Y-14176076D02*
X11173710Y-14166552D01*
X11249900Y-14261790D02*
X11249900Y-14395124D01*
X11249900Y-14280838D02*
X11259424Y-14271314D01*
X11259424Y-14271314D02*
X11278472Y-14261790D01*
X11278472Y-14261790D02*
X11307043Y-14261790D01*
X11307043Y-14261790D02*
X11326091Y-14271314D01*
X11326091Y-14271314D02*
X11335615Y-14290362D01*
X11335615Y-14290362D02*
X11335615Y-14395124D01*
X11459424Y-14395124D02*
X11440377Y-14385600D01*
X11440377Y-14385600D02*
X11430853Y-14376076D01*
X11430853Y-14376076D02*
X11421329Y-14357028D01*
X11421329Y-14357028D02*
X11421329Y-14299886D01*
X11421329Y-14299886D02*
X11430853Y-14280838D01*
X11430853Y-14280838D02*
X11440377Y-14271314D01*
X11440377Y-14271314D02*
X11459424Y-14261790D01*
X11459424Y-14261790D02*
X11487996Y-14261790D01*
X11487996Y-14261790D02*
X11507043Y-14271314D01*
X11507043Y-14271314D02*
X11516567Y-14280838D01*
X11516567Y-14280838D02*
X11526091Y-14299886D01*
X11526091Y-14299886D02*
X11526091Y-14357028D01*
X11526091Y-14357028D02*
X11516567Y-14376076D01*
X11516567Y-14376076D02*
X11507043Y-14385600D01*
X11507043Y-14385600D02*
X11487996Y-14395124D01*
X11487996Y-14395124D02*
X11459424Y-14395124D01*
X11583234Y-14261790D02*
X11659424Y-14261790D01*
X11611805Y-14195124D02*
X11611805Y-14366552D01*
X11611805Y-14366552D02*
X11621329Y-14385600D01*
X11621329Y-14385600D02*
X11640377Y-14395124D01*
X11640377Y-14395124D02*
X11659424Y-14395124D01*
X11878472Y-14261790D02*
X11878472Y-14461790D01*
X11878472Y-14271314D02*
X11897519Y-14261790D01*
X11897519Y-14261790D02*
X11935615Y-14261790D01*
X11935615Y-14261790D02*
X11954662Y-14271314D01*
X11954662Y-14271314D02*
X11964186Y-14280838D01*
X11964186Y-14280838D02*
X11973710Y-14299886D01*
X11973710Y-14299886D02*
X11973710Y-14357028D01*
X11973710Y-14357028D02*
X11964186Y-14376076D01*
X11964186Y-14376076D02*
X11954662Y-14385600D01*
X11954662Y-14385600D02*
X11935615Y-14395124D01*
X11935615Y-14395124D02*
X11897519Y-14395124D01*
X11897519Y-14395124D02*
X11878472Y-14385600D01*
X12087996Y-14395124D02*
X12068948Y-14385600D01*
X12068948Y-14385600D02*
X12059424Y-14366552D01*
X12059424Y-14366552D02*
X12059424Y-14195124D01*
X12249900Y-14395124D02*
X12249900Y-14290362D01*
X12249900Y-14290362D02*
X12240377Y-14271314D01*
X12240377Y-14271314D02*
X12221329Y-14261790D01*
X12221329Y-14261790D02*
X12183234Y-14261790D01*
X12183234Y-14261790D02*
X12164186Y-14271314D01*
X12249900Y-14385600D02*
X12230853Y-14395124D01*
X12230853Y-14395124D02*
X12183234Y-14395124D01*
X12183234Y-14395124D02*
X12164186Y-14385600D01*
X12164186Y-14385600D02*
X12154662Y-14366552D01*
X12154662Y-14366552D02*
X12154662Y-14347505D01*
X12154662Y-14347505D02*
X12164186Y-14328457D01*
X12164186Y-14328457D02*
X12183234Y-14318933D01*
X12183234Y-14318933D02*
X12230853Y-14318933D01*
X12230853Y-14318933D02*
X12249900Y-14309409D01*
X12316567Y-14261790D02*
X12392758Y-14261790D01*
X12345139Y-14195124D02*
X12345139Y-14366552D01*
X12345139Y-14366552D02*
X12354662Y-14385600D01*
X12354662Y-14385600D02*
X12373710Y-14395124D01*
X12373710Y-14395124D02*
X12392758Y-14395124D01*
X12535615Y-14385600D02*
X12516567Y-14395124D01*
X12516567Y-14395124D02*
X12478472Y-14395124D01*
X12478472Y-14395124D02*
X12459424Y-14385600D01*
X12459424Y-14385600D02*
X12449900Y-14366552D01*
X12449900Y-14366552D02*
X12449900Y-14290362D01*
X12449900Y-14290362D02*
X12459424Y-14271314D01*
X12459424Y-14271314D02*
X12478472Y-14261790D01*
X12478472Y-14261790D02*
X12516567Y-14261790D01*
X12516567Y-14261790D02*
X12535615Y-14271314D01*
X12535615Y-14271314D02*
X12545139Y-14290362D01*
X12545139Y-14290362D02*
X12545139Y-14309409D01*
X12545139Y-14309409D02*
X12449900Y-14328457D01*
X12716567Y-14395124D02*
X12716567Y-14195124D01*
X12716567Y-14385600D02*
X12697520Y-14395124D01*
X12697520Y-14395124D02*
X12659424Y-14395124D01*
X12659424Y-14395124D02*
X12640377Y-14385600D01*
X12640377Y-14385600D02*
X12630853Y-14376076D01*
X12630853Y-14376076D02*
X12621329Y-14357028D01*
X12621329Y-14357028D02*
X12621329Y-14299886D01*
X12621329Y-14299886D02*
X12630853Y-14280838D01*
X12630853Y-14280838D02*
X12640377Y-14271314D01*
X12640377Y-14271314D02*
X12659424Y-14261790D01*
X12659424Y-14261790D02*
X12697520Y-14261790D01*
X12697520Y-14261790D02*
X12716567Y-14271314D01*
X12792758Y-14471314D02*
X12802281Y-14461790D01*
X12802281Y-14461790D02*
X12821329Y-14433219D01*
X12821329Y-14433219D02*
X12830853Y-14414171D01*
X12830853Y-14414171D02*
X12840377Y-14385600D01*
X12840377Y-14385600D02*
X12849900Y-14337981D01*
X12849900Y-14337981D02*
X12849900Y-14299886D01*
X12849900Y-14299886D02*
X12840377Y-14252267D01*
X12840377Y-14252267D02*
X12830853Y-14223695D01*
X12830853Y-14223695D02*
X12821329Y-14204648D01*
X12821329Y-14204648D02*
X12802281Y-14176076D01*
X12802281Y-14176076D02*
X12792758Y-14166552D01*
M02*
