G04 #@! TF.GenerationSoftware,KiCad,Pcbnew,7.0.2*
G04 #@! TF.CreationDate,2023-09-28T14:58:46+02:00*
G04 #@! TF.ProjectId,Module_1,4d6f6475-6c65-45f3-912e-6b696361645f,rev?*
G04 #@! TF.SameCoordinates,Original*
G04 #@! TF.FileFunction,Copper,L1,Top*
G04 #@! TF.FilePolarity,Positive*
%FSLAX46Y46*%
G04 Gerber Fmt 4.6, Leading zero omitted, Abs format (unit mm)*
G04 Created by KiCad (PCBNEW 7.0.2) date 2023-09-28 14:58:46*
%MOMM*%
%LPD*%
G01*
G04 APERTURE LIST*
G04 Aperture macros list*
%AMRoundRect*
0 Rectangle with rounded corners*
0 $1 Rounding radius*
0 $2 $3 $4 $5 $6 $7 $8 $9 X,Y pos of 4 corners*
0 Add a 4 corners polygon primitive as box body*
4,1,4,$2,$3,$4,$5,$6,$7,$8,$9,$2,$3,0*
0 Add four circle primitives for the rounded corners*
1,1,$1+$1,$2,$3*
1,1,$1+$1,$4,$5*
1,1,$1+$1,$6,$7*
1,1,$1+$1,$8,$9*
0 Add four rect primitives between the rounded corners*
20,1,$1+$1,$2,$3,$4,$5,0*
20,1,$1+$1,$4,$5,$6,$7,0*
20,1,$1+$1,$6,$7,$8,$9,0*
20,1,$1+$1,$8,$9,$2,$3,0*%
G04 Aperture macros list end*
G04 #@! TA.AperFunction,ComponentPad*
%ADD10C,6.000000*%
G04 #@! TD*
G04 #@! TA.AperFunction,ComponentPad*
%ADD11C,2.400000*%
G04 #@! TD*
G04 #@! TA.AperFunction,ComponentPad*
%ADD12O,2.400000X2.400000*%
G04 #@! TD*
G04 #@! TA.AperFunction,ComponentPad*
%ADD13R,2.600000X2.600000*%
G04 #@! TD*
G04 #@! TA.AperFunction,ComponentPad*
%ADD14O,2.600000X2.600000*%
G04 #@! TD*
G04 #@! TA.AperFunction,SMDPad,CuDef*
%ADD15RoundRect,0.250000X-0.900000X1.000000X-0.900000X-1.000000X0.900000X-1.000000X0.900000X1.000000X0*%
G04 #@! TD*
G04 #@! TA.AperFunction,ComponentPad*
%ADD16R,1.600000X1.600000*%
G04 #@! TD*
G04 #@! TA.AperFunction,ComponentPad*
%ADD17C,1.600000*%
G04 #@! TD*
G04 #@! TA.AperFunction,ComponentPad*
%ADD18RoundRect,0.250000X-0.600000X-0.600000X0.600000X-0.600000X0.600000X0.600000X-0.600000X0.600000X0*%
G04 #@! TD*
G04 #@! TA.AperFunction,ComponentPad*
%ADD19C,1.700000*%
G04 #@! TD*
G04 #@! TA.AperFunction,ComponentPad*
%ADD20R,1.800000X1.800000*%
G04 #@! TD*
G04 #@! TA.AperFunction,ComponentPad*
%ADD21C,1.800000*%
G04 #@! TD*
G04 #@! TA.AperFunction,ComponentPad*
%ADD22C,4.000000*%
G04 #@! TD*
G04 #@! TA.AperFunction,ComponentPad*
%ADD23R,1.700000X1.700000*%
G04 #@! TD*
G04 #@! TA.AperFunction,ComponentPad*
%ADD24O,1.700000X1.700000*%
G04 #@! TD*
G04 #@! TA.AperFunction,ComponentPad*
%ADD25C,2.800000*%
G04 #@! TD*
G04 #@! TA.AperFunction,ComponentPad*
%ADD26O,1.600000X1.600000*%
G04 #@! TD*
G04 #@! TA.AperFunction,ComponentPad*
%ADD27C,1.440000*%
G04 #@! TD*
G04 #@! TA.AperFunction,ComponentPad*
%ADD28O,1.800000X1.800000*%
G04 #@! TD*
G04 #@! TA.AperFunction,ComponentPad*
%ADD29R,2.400000X1.600000*%
G04 #@! TD*
G04 #@! TA.AperFunction,ComponentPad*
%ADD30O,2.400000X1.600000*%
G04 #@! TD*
G04 #@! TA.AperFunction,ComponentPad*
%ADD31C,2.500000*%
G04 #@! TD*
G04 #@! TA.AperFunction,ComponentPad*
%ADD32R,4.500000X2.500000*%
G04 #@! TD*
G04 #@! TA.AperFunction,ComponentPad*
%ADD33O,4.500000X2.500000*%
G04 #@! TD*
G04 #@! TA.AperFunction,ViaPad*
%ADD34C,1.200000*%
G04 #@! TD*
G04 #@! TA.AperFunction,Conductor*
%ADD35C,1.000000*%
G04 #@! TD*
G04 #@! TA.AperFunction,Conductor*
%ADD36C,0.750000*%
G04 #@! TD*
G04 #@! TA.AperFunction,Conductor*
%ADD37C,0.500000*%
G04 #@! TD*
G04 #@! TA.AperFunction,Conductor*
%ADD38C,3.000000*%
G04 #@! TD*
G04 #@! TA.AperFunction,Conductor*
%ADD39C,2.000000*%
G04 #@! TD*
G04 APERTURE END LIST*
D10*
X206000000Y-122000000D03*
X206000000Y-86000000D03*
D11*
X158496000Y-134366000D03*
D12*
X143256000Y-134366000D03*
D13*
X164338000Y-89408000D03*
D14*
X164338000Y-104648000D03*
D11*
X206000000Y-48500000D03*
X206000000Y-76000000D03*
D15*
X164338000Y-72018000D03*
X164338000Y-76318000D03*
D16*
X87630000Y-112012349D03*
D17*
X87630000Y-115512349D03*
D18*
X67985000Y-119160000D03*
D19*
X70525000Y-119160000D03*
X67985000Y-121700000D03*
X70525000Y-121700000D03*
X67985000Y-124240000D03*
X70525000Y-124240000D03*
X67985000Y-126780000D03*
X70525000Y-126780000D03*
X67985000Y-129320000D03*
X70525000Y-129320000D03*
D13*
X164338000Y-45212000D03*
D14*
X164338000Y-60452000D03*
D20*
X85090000Y-39629000D03*
D21*
X85090000Y-37089000D03*
D11*
X158496000Y-130048000D03*
D12*
X143256000Y-130048000D03*
D22*
X137000000Y-133000000D03*
D23*
X66525000Y-101635000D03*
D24*
X66525000Y-104175000D03*
X66525000Y-106715000D03*
D17*
X151852000Y-92964000D03*
X146852000Y-92964000D03*
D11*
X132334000Y-75946000D03*
D12*
X152654000Y-75946000D03*
D25*
X104394000Y-42672000D03*
X104140000Y-93980000D03*
D13*
X164338000Y-110490000D03*
D14*
X164338000Y-125730000D03*
D13*
X164338000Y-65532000D03*
D14*
X164338000Y-80772000D03*
D16*
X97780000Y-133975000D03*
D26*
X97780000Y-131435000D03*
X97780000Y-128895000D03*
X97780000Y-126355000D03*
X90160000Y-126355000D03*
X90160000Y-128895000D03*
X90160000Y-131435000D03*
X90160000Y-133975000D03*
D11*
X136144000Y-120650000D03*
D12*
X156464000Y-120650000D03*
D27*
X77216000Y-101844000D03*
X77216000Y-104384000D03*
X77216000Y-106924000D03*
D11*
X205994000Y-41656000D03*
D16*
X92710000Y-44394000D03*
D17*
X92710000Y-40894000D03*
D13*
X151384000Y-114808000D03*
D14*
X136144000Y-114808000D03*
D23*
X71525000Y-101635000D03*
D24*
X71525000Y-104175000D03*
X71525000Y-106715000D03*
D20*
X121158000Y-130561000D03*
D21*
X121158000Y-128021000D03*
D11*
X158496000Y-125730000D03*
D12*
X143256000Y-125730000D03*
D20*
X67564000Y-39629000D03*
D21*
X67564000Y-37089000D03*
D20*
X77216000Y-116078000D03*
D28*
X77216000Y-118618000D03*
X77216000Y-121158000D03*
D15*
X164338000Y-116858000D03*
X164338000Y-121158000D03*
D17*
X142962000Y-46482000D03*
X137962000Y-46482000D03*
D20*
X62992000Y-39629000D03*
D21*
X62992000Y-37089000D03*
D11*
X132334000Y-57404000D03*
D12*
X152654000Y-57404000D03*
D13*
X150622000Y-70104000D03*
D14*
X135382000Y-70104000D03*
D11*
X151892000Y-85598000D03*
X129392000Y-85598000D03*
D29*
X83525000Y-94340000D03*
D30*
X83525000Y-91800000D03*
X83525000Y-89260000D03*
X83525000Y-86720000D03*
X83525000Y-84180000D03*
X83525000Y-81640000D03*
X83525000Y-79100000D03*
X83525000Y-76560000D03*
X83525000Y-74020000D03*
X83525000Y-71480000D03*
X83525000Y-68940000D03*
X83525000Y-66400000D03*
X83525000Y-63860000D03*
X83525000Y-61320000D03*
X83525000Y-58780000D03*
X83525000Y-56240000D03*
X83525000Y-53700000D03*
X83525000Y-51160000D03*
X83525000Y-48620000D03*
X83525000Y-46080000D03*
X68285000Y-46080000D03*
X68285000Y-48620000D03*
X68285000Y-51160000D03*
X68285000Y-53700000D03*
X68285000Y-56240000D03*
X68285000Y-58780000D03*
X68285000Y-61320000D03*
X68285000Y-63860000D03*
X68285000Y-66400000D03*
X68285000Y-68940000D03*
X68285000Y-71480000D03*
X68285000Y-74020000D03*
X68285000Y-76560000D03*
X68285000Y-79100000D03*
X68285000Y-81640000D03*
X68285000Y-84180000D03*
X68285000Y-86720000D03*
X68285000Y-89260000D03*
X68285000Y-91800000D03*
X68285000Y-94340000D03*
D17*
X150582000Y-65532000D03*
X145582000Y-65532000D03*
D16*
X76210000Y-129965000D03*
D26*
X76210000Y-132505000D03*
X83830000Y-132505000D03*
X83830000Y-129965000D03*
D15*
X164338000Y-95640000D03*
X164338000Y-99940000D03*
D13*
X151384000Y-97790000D03*
D14*
X136144000Y-97790000D03*
D13*
X150876000Y-51562000D03*
D14*
X135636000Y-51562000D03*
D15*
X155702000Y-49548000D03*
X155702000Y-53848000D03*
D11*
X136144000Y-103632000D03*
D12*
X156464000Y-103632000D03*
D31*
X97490000Y-99316000D03*
D25*
X101300000Y-95506000D03*
D31*
X94950000Y-104396000D03*
X125430000Y-96776000D03*
X127970000Y-103126000D03*
X127970000Y-118366000D03*
X125430000Y-124716000D03*
X112984000Y-110746000D03*
X109936000Y-110746000D03*
X97490000Y-110746000D03*
X125430000Y-110746000D03*
D17*
X151852000Y-109728000D03*
X146852000Y-109728000D03*
D31*
X97790000Y-48006000D03*
D25*
X101600000Y-44196000D03*
D31*
X95250000Y-53086000D03*
X125730000Y-45466000D03*
X128270000Y-51816000D03*
X128270000Y-67056000D03*
X125730000Y-73406000D03*
X113284000Y-59436000D03*
X110236000Y-59436000D03*
X97790000Y-59436000D03*
X125730000Y-59436000D03*
D22*
X156972000Y-85344000D03*
D27*
X111252000Y-132842000D03*
X113792000Y-132842000D03*
X116332000Y-132842000D03*
D32*
X170110000Y-49550000D03*
D33*
X170110000Y-55000000D03*
X170110000Y-60450000D03*
D32*
X170000000Y-94000000D03*
D33*
X170000000Y-99450000D03*
X170000000Y-104900000D03*
D32*
X170000000Y-67100000D03*
D33*
X170000000Y-72550000D03*
X170000000Y-78000000D03*
D32*
X170110000Y-112100000D03*
D33*
X170110000Y-117550000D03*
X170110000Y-123000000D03*
D34*
X91814468Y-78069680D03*
X90170000Y-123190000D03*
X81280000Y-36830000D03*
X86360000Y-53340000D03*
X96520000Y-66040000D03*
X87630000Y-46990000D03*
X96520000Y-72390000D03*
X69850000Y-43180000D03*
X69525488Y-134059043D03*
X80355827Y-134310911D03*
X99060000Y-40640000D03*
X79938666Y-102680116D03*
X115570000Y-44450000D03*
X107188000Y-45974000D03*
X97896622Y-77939082D03*
X86360000Y-55880000D03*
X63500000Y-86360000D03*
X71643144Y-94275377D03*
X63500000Y-111760000D03*
X106444539Y-103471713D03*
X63500000Y-59690000D03*
X62230000Y-127000000D03*
X87630000Y-44450000D03*
X111760000Y-99060000D03*
X62230000Y-132080000D03*
X92710000Y-62230000D03*
X81280000Y-127000000D03*
X96520000Y-44450000D03*
X71660264Y-91673283D03*
X100330000Y-62230000D03*
X109982000Y-39624000D03*
X63500000Y-74930000D03*
X104140000Y-62230000D03*
X91440000Y-53340000D03*
X91758497Y-81651808D03*
X77470000Y-74930000D03*
X106934000Y-96266000D03*
X77470000Y-78740000D03*
X76200000Y-127000000D03*
X90170000Y-41910000D03*
X108458000Y-89154000D03*
X98027220Y-81595837D03*
X98115166Y-87861861D03*
X91440000Y-50800000D03*
X106680000Y-80010000D03*
X90170000Y-44450000D03*
X96645934Y-95333956D03*
X115570000Y-40640000D03*
X111760000Y-80010000D03*
X93980000Y-49530000D03*
X63500000Y-106680000D03*
X92710000Y-66040000D03*
X68268765Y-97936595D03*
X79854710Y-107549571D03*
X99745701Y-101677035D03*
X63500000Y-64770000D03*
X76200000Y-36830000D03*
X63500000Y-81280000D03*
X62230000Y-121920000D03*
X107950000Y-72390000D03*
X63500000Y-69850000D03*
X71668988Y-97726705D03*
X77470000Y-71120000D03*
X66040000Y-43180000D03*
X109728000Y-93980000D03*
X95660452Y-38623723D03*
X96520000Y-62230000D03*
X103886000Y-39624000D03*
X62230000Y-116840000D03*
X63500000Y-91440000D03*
X86360000Y-108458000D03*
X91699595Y-90635586D03*
X77216000Y-81788000D03*
X102616000Y-76962000D03*
X85598000Y-119634000D03*
X117856000Y-134620000D03*
X106426000Y-126492000D03*
X102108000Y-125730000D03*
X112014000Y-61976000D03*
X91694000Y-84328000D03*
X142240000Y-85852000D03*
X149352000Y-104902000D03*
X130302000Y-44196000D03*
X110998000Y-127508000D03*
X82550000Y-109220000D03*
X75184000Y-124206000D03*
X74422000Y-91694000D03*
X109220000Y-122428000D03*
X104394000Y-124172500D03*
D35*
X90678000Y-104140000D02*
X90678000Y-96266000D01*
X94742000Y-77724000D02*
X88900000Y-71882000D01*
X82804000Y-119126000D02*
X82804000Y-112014000D01*
X88900000Y-71882000D02*
X88900000Y-52578000D01*
X80772000Y-121158000D02*
X82804000Y-119126000D01*
X88900000Y-52578000D02*
X87482000Y-51160000D01*
X86360000Y-108458000D02*
X90678000Y-104140000D01*
X94742000Y-92202000D02*
X94742000Y-77724000D01*
X82804000Y-112014000D02*
X86360000Y-108458000D01*
X77216000Y-121158000D02*
X80772000Y-121158000D01*
X87482000Y-51160000D02*
X83525000Y-51160000D01*
X90678000Y-96266000D02*
X94742000Y-92202000D01*
X114808000Y-48768000D02*
X105156000Y-48768000D01*
X110744000Y-76962000D02*
X117094000Y-70612000D01*
X101300000Y-95506000D02*
X101300000Y-78278000D01*
X89409651Y-113792000D02*
X99060000Y-113792000D01*
X102616000Y-76962000D02*
X110744000Y-76962000D01*
X101300000Y-78278000D02*
X102616000Y-76962000D01*
X101854000Y-110998000D02*
X101854000Y-96060000D01*
X117094000Y-70612000D02*
X117094000Y-51054000D01*
X101854000Y-96060000D02*
X101300000Y-95506000D01*
D36*
X88392000Y-93980000D02*
X88392000Y-93943181D01*
X79502000Y-84074000D02*
X79502000Y-96266000D01*
D35*
X87630000Y-112012349D02*
X89409651Y-113792000D01*
D36*
X79502000Y-96266000D02*
X80518000Y-97282000D01*
X85090000Y-97282000D02*
X88392000Y-93980000D01*
D35*
X117094000Y-51054000D02*
X114808000Y-48768000D01*
X101600000Y-45212000D02*
X101600000Y-44196000D01*
D36*
X80518000Y-97282000D02*
X85090000Y-97282000D01*
D35*
X105156000Y-48768000D02*
X101600000Y-45212000D01*
X99060000Y-113792000D02*
X101854000Y-110998000D01*
D36*
X77216000Y-81788000D02*
X79502000Y-84074000D01*
X88392000Y-93943181D02*
X91699595Y-90635586D01*
X83830000Y-129965000D02*
X83830000Y-121402000D01*
X83830000Y-121402000D02*
X85598000Y-119634000D01*
D37*
X121158000Y-133604000D02*
X121158000Y-130561000D01*
X117856000Y-134620000D02*
X120142000Y-134620000D01*
X120142000Y-134620000D02*
X121158000Y-133604000D01*
D38*
X143256000Y-125730000D02*
X141732000Y-124206000D01*
X132588000Y-85598000D02*
X129392000Y-85598000D01*
X141732000Y-124206000D02*
X141732000Y-94742000D01*
X141732000Y-94742000D02*
X132588000Y-85598000D01*
D37*
X102108000Y-125730000D02*
X105664000Y-125730000D01*
X105664000Y-125730000D02*
X106426000Y-126492000D01*
D35*
X97790000Y-48006000D02*
X97790000Y-51308000D01*
X108458000Y-61976000D02*
X112014000Y-61976000D01*
X97790000Y-51308000D02*
X107950000Y-61468000D01*
X107950000Y-61468000D02*
X108458000Y-61976000D01*
D38*
X161662000Y-55000000D02*
X170110000Y-55000000D01*
X156972000Y-85344000D02*
X158496000Y-83820000D01*
X158496000Y-58166000D02*
X161662000Y-55000000D01*
X158496000Y-83820000D02*
X158496000Y-58166000D01*
D39*
X153162000Y-57404000D02*
X155702000Y-54864000D01*
X155702000Y-54864000D02*
X155702000Y-53848000D01*
X152654000Y-57404000D02*
X153162000Y-57404000D01*
X164338000Y-99940000D02*
X164338000Y-104648000D01*
D36*
X91694000Y-84328000D02*
X91546000Y-84180000D01*
X91546000Y-84180000D02*
X83525000Y-84180000D01*
D35*
X142240000Y-85852000D02*
X144780000Y-85852000D01*
X164084000Y-89662000D02*
X164338000Y-89408000D01*
X144780000Y-85852000D02*
X148590000Y-89662000D01*
X148590000Y-89662000D02*
X164084000Y-89662000D01*
D39*
X164338000Y-95640000D02*
X164338000Y-89408000D01*
D35*
X156972000Y-107188000D02*
X160274000Y-110490000D01*
X149352000Y-104902000D02*
X151384000Y-104902000D01*
X160274000Y-110490000D02*
X164338000Y-110490000D01*
X153670000Y-107188000D02*
X156972000Y-107188000D01*
D39*
X164338000Y-116858000D02*
X164338000Y-110490000D01*
D35*
X151384000Y-104902000D02*
X153670000Y-107188000D01*
X150876000Y-46228000D02*
X163322000Y-46228000D01*
D39*
X157716000Y-49548000D02*
X162052000Y-45212000D01*
D35*
X131572000Y-42926000D02*
X147574000Y-42926000D01*
X147574000Y-42926000D02*
X150876000Y-46228000D01*
X130302000Y-44196000D02*
X131572000Y-42926000D01*
D39*
X162052000Y-45212000D02*
X164338000Y-45212000D01*
X155702000Y-49548000D02*
X157716000Y-49548000D01*
D35*
X163322000Y-46228000D02*
X164338000Y-45212000D01*
D39*
X164338000Y-72018000D02*
X164338000Y-65532000D01*
D38*
X170110000Y-123000000D02*
X173926000Y-123000000D01*
D39*
X164338000Y-121158000D02*
X164338000Y-125730000D01*
D37*
X117094000Y-127508000D02*
X119886000Y-124716000D01*
X110998000Y-127508000D02*
X117094000Y-127508000D01*
D38*
X173926000Y-123000000D02*
X176022000Y-120904000D01*
X170000000Y-85164000D02*
X170000000Y-78000000D01*
X176022000Y-91186000D02*
X170000000Y-85164000D01*
D39*
X164338000Y-76318000D02*
X164338000Y-80772000D01*
D37*
X119886000Y-124716000D02*
X125430000Y-124716000D01*
D38*
X176022000Y-120904000D02*
X176022000Y-91186000D01*
D36*
X75184000Y-124206000D02*
X75184000Y-114300000D01*
X75184000Y-114300000D02*
X76200000Y-113284000D01*
X76200000Y-113284000D02*
X78486000Y-113284000D01*
X78486000Y-113284000D02*
X82550000Y-109220000D01*
X74422000Y-108458000D02*
X74422000Y-91694000D01*
X70525000Y-126780000D02*
X72610000Y-126780000D01*
X73152000Y-126238000D02*
X73152000Y-109728000D01*
X72610000Y-126780000D02*
X73152000Y-126238000D01*
X73152000Y-109728000D02*
X74422000Y-108458000D01*
D37*
X109254000Y-130844000D02*
X109254000Y-122462000D01*
X111252000Y-132842000D02*
X109254000Y-130844000D01*
X109254000Y-122462000D02*
X109220000Y-122428000D01*
X100330000Y-126345000D02*
X97780000Y-128895000D01*
X100871500Y-124172500D02*
X100330000Y-124714000D01*
X100330000Y-124714000D02*
X100330000Y-126345000D01*
X104394000Y-124172500D02*
X100871500Y-124172500D01*
G04 #@! TA.AperFunction,Conductor*
G36*
X68535000Y-94024314D02*
G01*
X68523045Y-94012359D01*
X68410148Y-93954835D01*
X68316481Y-93940000D01*
X68253519Y-93940000D01*
X68159852Y-93954835D01*
X68046955Y-94012359D01*
X68035000Y-94024314D01*
X68035000Y-92115686D01*
X68046955Y-92127641D01*
X68159852Y-92185165D01*
X68253519Y-92200000D01*
X68316481Y-92200000D01*
X68410148Y-92185165D01*
X68523045Y-92127641D01*
X68535000Y-92115685D01*
X68535000Y-94024314D01*
G37*
G04 #@! TD.AperFunction*
G04 #@! TA.AperFunction,Conductor*
G36*
X69127082Y-127568530D02*
G01*
X69145128Y-127591421D01*
X69161836Y-127618685D01*
X69226164Y-127723659D01*
X69389776Y-127915224D01*
X69437179Y-127955710D01*
X69475372Y-128014215D01*
X69475871Y-128084083D01*
X69438517Y-128143130D01*
X69437179Y-128144289D01*
X69389772Y-128184778D01*
X69226165Y-128376338D01*
X69145129Y-128508576D01*
X69127083Y-128531467D01*
X68468076Y-129190475D01*
X68444493Y-129110156D01*
X68366761Y-128989202D01*
X68258100Y-128895048D01*
X68127315Y-128835320D01*
X68117533Y-128833913D01*
X68746373Y-128205073D01*
X68746373Y-128205072D01*
X68669969Y-128151574D01*
X68626344Y-128096997D01*
X68619150Y-128027499D01*
X68650673Y-127965144D01*
X68669969Y-127948424D01*
X68746373Y-127894925D01*
X68117533Y-127266086D01*
X68127315Y-127264680D01*
X68258100Y-127204952D01*
X68366761Y-127110798D01*
X68444493Y-126989844D01*
X68468076Y-126909524D01*
X69127082Y-127568530D01*
G37*
G04 #@! TD.AperFunction*
G04 #@! TA.AperFunction,Conductor*
G36*
X69127082Y-125028530D02*
G01*
X69145128Y-125051421D01*
X69226164Y-125183659D01*
X69389776Y-125375224D01*
X69437177Y-125415708D01*
X69437179Y-125415710D01*
X69475372Y-125474217D01*
X69475870Y-125544085D01*
X69438516Y-125603131D01*
X69437186Y-125604283D01*
X69428648Y-125611576D01*
X69389776Y-125644776D01*
X69226162Y-125836342D01*
X69145129Y-125968576D01*
X69127083Y-125991467D01*
X68468076Y-126650475D01*
X68444493Y-126570156D01*
X68366761Y-126449202D01*
X68258100Y-126355048D01*
X68127315Y-126295320D01*
X68117533Y-126293913D01*
X68746373Y-125665073D01*
X68746373Y-125665072D01*
X68669969Y-125611574D01*
X68626344Y-125556997D01*
X68619150Y-125487499D01*
X68650673Y-125425144D01*
X68669969Y-125408424D01*
X68746373Y-125354925D01*
X68117533Y-124726086D01*
X68127315Y-124724680D01*
X68258100Y-124664952D01*
X68366761Y-124570798D01*
X68444493Y-124449844D01*
X68468076Y-124369524D01*
X69127082Y-125028530D01*
G37*
G04 #@! TD.AperFunction*
G04 #@! TA.AperFunction,Conductor*
G36*
X69127082Y-122488530D02*
G01*
X69145128Y-122511421D01*
X69226164Y-122643659D01*
X69389776Y-122835224D01*
X69437175Y-122875707D01*
X69437179Y-122875710D01*
X69475372Y-122934217D01*
X69475870Y-123004085D01*
X69438516Y-123063131D01*
X69437186Y-123064283D01*
X69428648Y-123071576D01*
X69389776Y-123104776D01*
X69226162Y-123296342D01*
X69145129Y-123428576D01*
X69127083Y-123451467D01*
X68468076Y-124110475D01*
X68444493Y-124030156D01*
X68366761Y-123909202D01*
X68258100Y-123815048D01*
X68127315Y-123755320D01*
X68117531Y-123753913D01*
X68746373Y-123125073D01*
X68746373Y-123125072D01*
X68669969Y-123071574D01*
X68626344Y-123016997D01*
X68619150Y-122947499D01*
X68650673Y-122885144D01*
X68669969Y-122868424D01*
X68746373Y-122814925D01*
X68117533Y-122186086D01*
X68127315Y-122184680D01*
X68258100Y-122124952D01*
X68366761Y-122030798D01*
X68444493Y-121909844D01*
X68468076Y-121829524D01*
X69127082Y-122488530D01*
G37*
G04 #@! TD.AperFunction*
G04 #@! TA.AperFunction,Conductor*
G36*
X69297259Y-120210914D02*
G01*
X69348215Y-120246563D01*
X69389775Y-120295223D01*
X69437179Y-120335710D01*
X69475372Y-120394217D01*
X69475870Y-120464085D01*
X69438516Y-120523131D01*
X69437179Y-120524290D01*
X69389776Y-120564776D01*
X69226162Y-120756342D01*
X69145129Y-120888576D01*
X69127083Y-120911467D01*
X68468076Y-121570475D01*
X68444493Y-121490156D01*
X68366761Y-121369202D01*
X68258100Y-121275048D01*
X68127315Y-121215320D01*
X68117533Y-121213913D01*
X68750605Y-120580841D01*
X68761166Y-120528295D01*
X68809781Y-120478112D01*
X68831923Y-120468282D01*
X68904122Y-120444357D01*
X69053342Y-120352318D01*
X69166244Y-120239415D01*
X69227567Y-120205930D01*
X69297259Y-120210914D01*
G37*
G04 #@! TD.AperFunction*
G04 #@! TA.AperFunction,Conductor*
G36*
X81472834Y-111991377D02*
G01*
X81528767Y-112033249D01*
X81553184Y-112098713D01*
X81553500Y-112107559D01*
X81553500Y-118556663D01*
X81533815Y-118623702D01*
X81517181Y-118644344D01*
X80290345Y-119871181D01*
X80229022Y-119904666D01*
X80202664Y-119907500D01*
X78338988Y-119907500D01*
X78271949Y-119887815D01*
X78258456Y-119877790D01*
X78189143Y-119818590D01*
X78169951Y-119806829D01*
X77967628Y-119682846D01*
X77849704Y-119634000D01*
X77727610Y-119583426D01*
X77474995Y-119522779D01*
X77345497Y-119512587D01*
X77216000Y-119502396D01*
X77215999Y-119502396D01*
X76957004Y-119522779D01*
X76704389Y-119583426D01*
X76480953Y-119675978D01*
X76411484Y-119683447D01*
X76349004Y-119652172D01*
X76313352Y-119592083D01*
X76309500Y-119561417D01*
X76309500Y-117852499D01*
X76329185Y-117785460D01*
X76381989Y-117739705D01*
X76433500Y-117728499D01*
X78162859Y-117728499D01*
X78166008Y-117728499D01*
X78268797Y-117717999D01*
X78435334Y-117662814D01*
X78584656Y-117570712D01*
X78708712Y-117446656D01*
X78800814Y-117297334D01*
X78855999Y-117130797D01*
X78866500Y-117028009D01*
X78866499Y-115127992D01*
X78855999Y-115025203D01*
X78800814Y-114858666D01*
X78708712Y-114709344D01*
X78708711Y-114709342D01*
X78606367Y-114606998D01*
X78572882Y-114545675D01*
X78577866Y-114475983D01*
X78619738Y-114420050D01*
X78682260Y-114395878D01*
X78699971Y-114394188D01*
X78760282Y-114376478D01*
X78768852Y-114374292D01*
X78830254Y-114360935D01*
X78830254Y-114360934D01*
X78830258Y-114360934D01*
X78860639Y-114347923D01*
X78874493Y-114342943D01*
X78906209Y-114333631D01*
X78962075Y-114304829D01*
X78970082Y-114301057D01*
X79027849Y-114276321D01*
X79055221Y-114257794D01*
X79067881Y-114250282D01*
X79097259Y-114235138D01*
X79146681Y-114196270D01*
X79153800Y-114191074D01*
X79205855Y-114155843D01*
X79229217Y-114132479D01*
X79240238Y-114122696D01*
X79266217Y-114102268D01*
X79307377Y-114054765D01*
X79313396Y-114048300D01*
X81341818Y-112019878D01*
X81403142Y-111986393D01*
X81472834Y-111991377D01*
G37*
G04 #@! TD.AperFunction*
G04 #@! TA.AperFunction,Conductor*
G36*
X118307039Y-35325685D02*
G01*
X118352794Y-35378489D01*
X118364000Y-35430000D01*
X118364000Y-50292894D01*
X118344315Y-50359933D01*
X118291511Y-50405688D01*
X118222353Y-50415632D01*
X118158797Y-50386607D01*
X118139683Y-50365780D01*
X118114741Y-50331451D01*
X118113162Y-50329228D01*
X118057820Y-50249346D01*
X118054734Y-50246260D01*
X118042091Y-50231458D01*
X118039522Y-50227922D01*
X117969299Y-50160782D01*
X117967310Y-50158836D01*
X115746816Y-47938342D01*
X115737550Y-47927974D01*
X115715506Y-47900332D01*
X115665603Y-47856732D01*
X115659507Y-47851033D01*
X115654506Y-47846032D01*
X115652529Y-47844055D01*
X115650394Y-47842272D01*
X115650377Y-47842257D01*
X115621255Y-47817945D01*
X115619139Y-47816138D01*
X115545997Y-47752236D01*
X115545996Y-47752235D01*
X115542236Y-47749988D01*
X115526370Y-47738730D01*
X115523018Y-47735931D01*
X115438548Y-47688001D01*
X115436145Y-47686601D01*
X115352765Y-47636785D01*
X115348671Y-47635249D01*
X115331046Y-47627003D01*
X115327245Y-47624847D01*
X115327244Y-47624846D01*
X115327243Y-47624846D01*
X115235568Y-47592767D01*
X115232954Y-47591819D01*
X115142028Y-47557694D01*
X115142025Y-47557693D01*
X115142024Y-47557693D01*
X115137721Y-47556911D01*
X115118917Y-47551948D01*
X115114782Y-47550501D01*
X115018847Y-47535306D01*
X115016106Y-47534840D01*
X114920550Y-47517500D01*
X114920547Y-47517500D01*
X114916170Y-47517500D01*
X114896773Y-47515973D01*
X114892460Y-47515290D01*
X114795358Y-47517469D01*
X114792578Y-47517500D01*
X105725336Y-47517500D01*
X105658297Y-47497815D01*
X105637655Y-47481181D01*
X103516372Y-45359898D01*
X103482887Y-45298575D01*
X103487871Y-45228883D01*
X103493956Y-45215168D01*
X103503707Y-45196350D01*
X103577072Y-45054764D01*
X103660576Y-44819804D01*
X103701571Y-44763232D01*
X103766649Y-44737801D01*
X103810865Y-44741930D01*
X103955445Y-44782440D01*
X104246902Y-44822500D01*
X104251139Y-44822500D01*
X104536861Y-44822500D01*
X104541098Y-44822500D01*
X104832555Y-44782440D01*
X105115841Y-44703067D01*
X105385682Y-44585859D01*
X105637049Y-44432999D01*
X105865260Y-44247335D01*
X106066065Y-44032326D01*
X106235722Y-43791976D01*
X106371072Y-43530764D01*
X106469592Y-43253554D01*
X106529448Y-42965511D01*
X106549525Y-42672000D01*
X106529448Y-42378489D01*
X106469592Y-42090446D01*
X106371072Y-41813236D01*
X106235722Y-41552024D01*
X106066065Y-41311674D01*
X105888652Y-41121712D01*
X105868147Y-41099756D01*
X105868145Y-41099754D01*
X105865260Y-41096665D01*
X105637049Y-40911001D01*
X105529163Y-40845394D01*
X105389300Y-40760341D01*
X105389298Y-40760340D01*
X105385682Y-40758141D01*
X105381802Y-40756455D01*
X105381795Y-40756452D01*
X105119722Y-40642618D01*
X105119712Y-40642614D01*
X105115841Y-40640933D01*
X105111769Y-40639792D01*
X104836634Y-40562702D01*
X104836621Y-40562699D01*
X104832555Y-40561560D01*
X104828368Y-40560984D01*
X104828356Y-40560982D01*
X104545295Y-40522076D01*
X104545282Y-40522075D01*
X104541098Y-40521500D01*
X104246902Y-40521500D01*
X104242718Y-40522075D01*
X104242704Y-40522076D01*
X103959643Y-40560982D01*
X103959628Y-40560984D01*
X103955445Y-40561560D01*
X103951381Y-40562698D01*
X103951365Y-40562702D01*
X103676230Y-40639792D01*
X103676225Y-40639793D01*
X103672159Y-40640933D01*
X103668291Y-40642612D01*
X103668277Y-40642618D01*
X103406204Y-40756452D01*
X103406191Y-40756458D01*
X103402318Y-40758141D01*
X103398707Y-40760336D01*
X103398699Y-40760341D01*
X103154563Y-40908804D01*
X103154557Y-40908807D01*
X103150951Y-40911001D01*
X103147676Y-40913664D01*
X103147668Y-40913671D01*
X102926025Y-41093992D01*
X102926021Y-41093995D01*
X102922740Y-41096665D01*
X102919861Y-41099747D01*
X102919852Y-41099756D01*
X102724823Y-41308581D01*
X102724818Y-41308586D01*
X102721935Y-41311674D01*
X102719499Y-41315124D01*
X102719490Y-41315136D01*
X102554724Y-41548558D01*
X102554720Y-41548563D01*
X102552278Y-41552024D01*
X102550332Y-41555778D01*
X102550328Y-41555786D01*
X102418877Y-41809473D01*
X102418872Y-41809483D01*
X102416928Y-41813236D01*
X102415511Y-41817221D01*
X102415507Y-41817232D01*
X102333425Y-42048190D01*
X102292427Y-42104767D01*
X102227350Y-42130197D01*
X102183131Y-42126067D01*
X102042638Y-42086703D01*
X102042624Y-42086700D01*
X102038555Y-42085560D01*
X102034368Y-42084984D01*
X102034356Y-42084982D01*
X101751295Y-42046076D01*
X101751282Y-42046075D01*
X101747098Y-42045500D01*
X101452902Y-42045500D01*
X101448718Y-42046075D01*
X101448704Y-42046076D01*
X101165643Y-42084982D01*
X101165628Y-42084984D01*
X101161445Y-42085560D01*
X101157381Y-42086698D01*
X101157365Y-42086702D01*
X100882230Y-42163792D01*
X100882225Y-42163793D01*
X100878159Y-42164933D01*
X100874291Y-42166612D01*
X100874277Y-42166618D01*
X100612204Y-42280452D01*
X100612191Y-42280458D01*
X100608318Y-42282141D01*
X100604707Y-42284336D01*
X100604699Y-42284341D01*
X100360563Y-42432804D01*
X100360557Y-42432807D01*
X100356951Y-42435001D01*
X100353676Y-42437664D01*
X100353668Y-42437671D01*
X100132025Y-42617992D01*
X100132021Y-42617995D01*
X100128740Y-42620665D01*
X100125861Y-42623747D01*
X100125852Y-42623756D01*
X99930823Y-42832581D01*
X99930818Y-42832586D01*
X99927935Y-42835674D01*
X99925499Y-42839124D01*
X99925490Y-42839136D01*
X99760724Y-43072558D01*
X99760720Y-43072563D01*
X99758278Y-43076024D01*
X99756332Y-43079778D01*
X99756328Y-43079786D01*
X99624877Y-43333473D01*
X99624872Y-43333483D01*
X99622928Y-43337236D01*
X99621511Y-43341221D01*
X99621507Y-43341232D01*
X99525829Y-43610445D01*
X99525825Y-43610457D01*
X99524408Y-43614446D01*
X99523545Y-43618596D01*
X99523544Y-43618602D01*
X99465415Y-43898332D01*
X99465413Y-43898343D01*
X99464552Y-43902489D01*
X99464263Y-43906713D01*
X99464262Y-43906721D01*
X99455459Y-44035418D01*
X99444475Y-44196000D01*
X99444764Y-44200224D01*
X99460836Y-44435195D01*
X99464552Y-44489511D01*
X99465413Y-44493658D01*
X99465415Y-44493667D01*
X99508579Y-44701381D01*
X99524408Y-44777554D01*
X99525826Y-44781546D01*
X99525829Y-44781554D01*
X99604331Y-45002437D01*
X99622928Y-45054764D01*
X99624875Y-45058522D01*
X99624877Y-45058526D01*
X99644400Y-45096203D01*
X99758278Y-45315976D01*
X99760724Y-45319441D01*
X99925490Y-45552863D01*
X99925494Y-45552868D01*
X99927935Y-45556326D01*
X100128740Y-45771335D01*
X100356951Y-45956999D01*
X100608318Y-46109859D01*
X100612210Y-46111549D01*
X100612209Y-46111549D01*
X100800737Y-46193438D01*
X100839017Y-46219491D01*
X104217182Y-49597656D01*
X104226448Y-49608024D01*
X104248493Y-49635667D01*
X104298395Y-49679266D01*
X104304491Y-49684965D01*
X104311470Y-49691944D01*
X104313601Y-49693723D01*
X104313613Y-49693734D01*
X104342740Y-49718051D01*
X104344853Y-49719856D01*
X104400993Y-49768903D01*
X104418004Y-49783765D01*
X104421760Y-49786009D01*
X104437624Y-49797266D01*
X104440978Y-49800066D01*
X104440979Y-49800067D01*
X104440981Y-49800068D01*
X104482122Y-49823412D01*
X104525450Y-49847997D01*
X104527854Y-49849397D01*
X104611236Y-49899215D01*
X104611239Y-49899216D01*
X104615323Y-49900749D01*
X104632953Y-49908996D01*
X104636753Y-49911152D01*
X104636755Y-49911153D01*
X104728468Y-49943245D01*
X104730998Y-49944162D01*
X104821976Y-49978307D01*
X104825972Y-49979032D01*
X104826269Y-49979086D01*
X104845088Y-49984053D01*
X104849217Y-49985498D01*
X104945251Y-50000707D01*
X104947847Y-50001149D01*
X105011369Y-50012677D01*
X105043452Y-50018500D01*
X105043453Y-50018500D01*
X105047830Y-50018500D01*
X105067226Y-50020026D01*
X105071540Y-50020710D01*
X105166299Y-50018583D01*
X105168622Y-50018531D01*
X105171404Y-50018500D01*
X114238664Y-50018500D01*
X114305703Y-50038185D01*
X114326345Y-50054819D01*
X115807181Y-51535654D01*
X115840666Y-51596977D01*
X115843500Y-51623335D01*
X115843499Y-70042664D01*
X115823814Y-70109703D01*
X115807180Y-70130345D01*
X110262345Y-75675181D01*
X110201022Y-75708666D01*
X110174664Y-75711500D01*
X103157341Y-75711500D01*
X103104937Y-75699882D01*
X103079665Y-75688097D01*
X102851407Y-75626936D01*
X102616000Y-75606340D01*
X102380592Y-75626936D01*
X102152336Y-75688097D01*
X101938170Y-75787965D01*
X101744598Y-75923505D01*
X101577505Y-76090598D01*
X101441963Y-76284173D01*
X101378340Y-76420609D01*
X101353640Y-76455884D01*
X100470343Y-77339181D01*
X100459980Y-77348443D01*
X100432335Y-77370491D01*
X100388736Y-77420391D01*
X100383052Y-77426472D01*
X100378024Y-77431501D01*
X100378015Y-77431510D01*
X100376055Y-77433471D01*
X100374280Y-77435596D01*
X100374269Y-77435609D01*
X100349929Y-77464763D01*
X100348124Y-77466876D01*
X100284235Y-77540003D01*
X100281986Y-77543767D01*
X100270739Y-77559617D01*
X100267932Y-77562979D01*
X100219978Y-77647490D01*
X100218604Y-77649849D01*
X100201960Y-77677709D01*
X100168782Y-77733241D01*
X100167246Y-77737335D01*
X100159009Y-77754944D01*
X100156847Y-77758753D01*
X100124762Y-77850444D01*
X100123814Y-77853057D01*
X100089691Y-77943978D01*
X100088910Y-77948282D01*
X100083950Y-77967077D01*
X100082501Y-77971217D01*
X100067304Y-78067166D01*
X100066838Y-78069907D01*
X100049500Y-78165450D01*
X100049500Y-78169829D01*
X100047973Y-78189227D01*
X100047290Y-78193540D01*
X100047722Y-78212781D01*
X100049469Y-78290639D01*
X100049500Y-78293421D01*
X100049500Y-93692090D01*
X100029815Y-93759129D01*
X100003755Y-93788278D01*
X99832025Y-93927992D01*
X99832021Y-93927995D01*
X99828740Y-93930665D01*
X99825861Y-93933747D01*
X99825852Y-93933756D01*
X99630823Y-94142581D01*
X99630818Y-94142586D01*
X99627935Y-94145674D01*
X99625499Y-94149124D01*
X99625490Y-94149136D01*
X99460724Y-94382558D01*
X99460720Y-94382563D01*
X99458278Y-94386024D01*
X99456332Y-94389778D01*
X99456328Y-94389786D01*
X99324877Y-94643473D01*
X99324872Y-94643483D01*
X99322928Y-94647236D01*
X99321511Y-94651221D01*
X99321507Y-94651232D01*
X99225829Y-94920445D01*
X99225825Y-94920457D01*
X99224408Y-94924446D01*
X99223545Y-94928596D01*
X99223544Y-94928602D01*
X99165415Y-95208332D01*
X99165413Y-95208343D01*
X99164552Y-95212489D01*
X99164263Y-95216713D01*
X99164262Y-95216721D01*
X99148044Y-95453818D01*
X99144475Y-95506000D01*
X99144764Y-95510224D01*
X99162861Y-95774799D01*
X99164552Y-95799511D01*
X99165413Y-95803658D01*
X99165415Y-95803667D01*
X99218247Y-96057907D01*
X99224408Y-96087554D01*
X99225826Y-96091546D01*
X99225829Y-96091554D01*
X99311627Y-96332966D01*
X99322928Y-96364764D01*
X99324875Y-96368522D01*
X99324877Y-96368526D01*
X99456328Y-96622213D01*
X99458278Y-96625976D01*
X99460724Y-96629441D01*
X99625490Y-96862863D01*
X99625494Y-96862868D01*
X99627935Y-96866326D01*
X99828740Y-97081335D01*
X100056951Y-97266999D01*
X100308318Y-97419859D01*
X100528901Y-97515671D01*
X100582548Y-97560434D01*
X100603478Y-97627095D01*
X100603500Y-97629405D01*
X100603500Y-110428663D01*
X100583815Y-110495702D01*
X100567181Y-110516344D01*
X99604411Y-111479114D01*
X99543088Y-111512599D01*
X99473396Y-111507615D01*
X99417463Y-111465743D01*
X99393046Y-111400279D01*
X99400549Y-111348098D01*
X99414369Y-111311046D01*
X99475196Y-111031428D01*
X99495610Y-110746000D01*
X99475196Y-110460572D01*
X99414369Y-110180954D01*
X99314367Y-109912839D01*
X99232978Y-109763787D01*
X99177227Y-109661686D01*
X99096970Y-109554476D01*
X99005739Y-109432605D01*
X98803395Y-109230261D01*
X98668266Y-109129105D01*
X98574313Y-109058772D01*
X98323163Y-108921634D01*
X98323162Y-108921633D01*
X98323161Y-108921633D01*
X98112896Y-108843208D01*
X98055041Y-108821629D01*
X97775429Y-108760804D01*
X97490000Y-108740389D01*
X97204570Y-108760804D01*
X96924958Y-108821629D01*
X96656836Y-108921634D01*
X96405686Y-109058772D01*
X96176602Y-109230263D01*
X95974263Y-109432602D01*
X95802772Y-109661686D01*
X95665634Y-109912836D01*
X95565629Y-110180958D01*
X95504804Y-110460570D01*
X95484389Y-110746000D01*
X95504804Y-111031429D01*
X95565629Y-111311041D01*
X95571856Y-111327736D01*
X95642539Y-111517245D01*
X95665634Y-111579163D01*
X95802772Y-111830313D01*
X95856027Y-111901453D01*
X95974261Y-112059395D01*
X96176605Y-112261739D01*
X96252074Y-112318234D01*
X96293944Y-112374167D01*
X96298928Y-112443858D01*
X96265443Y-112505181D01*
X96204120Y-112538666D01*
X96177762Y-112541500D01*
X89978987Y-112541500D01*
X89911948Y-112521815D01*
X89891306Y-112505181D01*
X89216818Y-111830693D01*
X89183333Y-111769370D01*
X89180499Y-111743012D01*
X89180499Y-111165489D01*
X89180499Y-111165488D01*
X89180499Y-111162341D01*
X89169999Y-111059552D01*
X89114814Y-110893015D01*
X89022712Y-110743693D01*
X89022711Y-110743691D01*
X88898657Y-110619637D01*
X88749334Y-110527535D01*
X88582797Y-110472349D01*
X88483141Y-110462168D01*
X88483122Y-110462167D01*
X88480009Y-110461849D01*
X88476860Y-110461849D01*
X86783140Y-110461849D01*
X86783120Y-110461849D01*
X86779992Y-110461850D01*
X86776860Y-110462169D01*
X86776858Y-110462170D01*
X86677203Y-110472349D01*
X86510665Y-110527535D01*
X86361342Y-110619637D01*
X86237288Y-110743691D01*
X86145186Y-110893014D01*
X86090000Y-111059551D01*
X86079819Y-111159207D01*
X86079817Y-111159227D01*
X86079500Y-111162340D01*
X86079500Y-111165487D01*
X86079500Y-111165488D01*
X86079500Y-112859208D01*
X86079500Y-112859227D01*
X86079501Y-112862357D01*
X86079820Y-112865489D01*
X86079821Y-112865490D01*
X86090000Y-112965145D01*
X86145186Y-113131683D01*
X86237288Y-113281006D01*
X86361342Y-113405060D01*
X86361344Y-113405061D01*
X86510666Y-113497163D01*
X86622017Y-113534061D01*
X86677202Y-113552348D01*
X86776858Y-113562529D01*
X86776859Y-113562529D01*
X86779991Y-113562849D01*
X87360663Y-113562848D01*
X87427702Y-113582532D01*
X87448344Y-113599167D01*
X87856554Y-114007377D01*
X87890039Y-114068700D01*
X87885055Y-114138392D01*
X87843183Y-114194325D01*
X87777719Y-114218742D01*
X87758066Y-114218586D01*
X87630000Y-114207382D01*
X87403397Y-114227207D01*
X87183672Y-114286082D01*
X86977516Y-114382214D01*
X86904526Y-114433322D01*
X87585599Y-115114395D01*
X87504852Y-115127184D01*
X87391955Y-115184708D01*
X87302359Y-115274304D01*
X87244835Y-115387201D01*
X87232046Y-115467948D01*
X86550973Y-114786875D01*
X86550973Y-114786876D01*
X86499865Y-114859865D01*
X86403733Y-115066021D01*
X86344858Y-115285746D01*
X86325033Y-115512348D01*
X86344858Y-115738951D01*
X86403733Y-115958675D01*
X86499866Y-116164833D01*
X86550972Y-116237820D01*
X86550974Y-116237821D01*
X87232046Y-115556748D01*
X87244835Y-115637497D01*
X87302359Y-115750394D01*
X87391955Y-115839990D01*
X87504852Y-115897514D01*
X87585599Y-115910302D01*
X86904526Y-116591374D01*
X86904526Y-116591375D01*
X86977515Y-116642482D01*
X87183673Y-116738615D01*
X87403397Y-116797490D01*
X87630000Y-116817315D01*
X87856602Y-116797490D01*
X88076326Y-116738615D01*
X88282480Y-116642483D01*
X88355472Y-116591374D01*
X87674401Y-115910302D01*
X87755148Y-115897514D01*
X87868045Y-115839990D01*
X87957641Y-115750394D01*
X88015165Y-115637497D01*
X88027953Y-115556749D01*
X88709025Y-116237821D01*
X88760134Y-116164829D01*
X88856266Y-115958675D01*
X88915141Y-115738951D01*
X88934966Y-115512348D01*
X88915141Y-115285746D01*
X88875168Y-115136564D01*
X88876831Y-115066714D01*
X88915993Y-115008851D01*
X88980221Y-114981347D01*
X89038513Y-114988377D01*
X89075627Y-115002307D01*
X89079925Y-115003086D01*
X89098741Y-115008053D01*
X89102869Y-115009498D01*
X89198846Y-115024699D01*
X89201480Y-115025146D01*
X89297104Y-115042500D01*
X89301476Y-115042500D01*
X89320870Y-115044026D01*
X89325192Y-115044711D01*
X89422317Y-115042531D01*
X89425100Y-115042500D01*
X92332000Y-115042500D01*
X92399039Y-115062185D01*
X92444794Y-115114989D01*
X92456000Y-115166500D01*
X92456000Y-119110734D01*
X92452298Y-119140808D01*
X92202000Y-120142000D01*
X92202000Y-136274000D01*
X92182315Y-136341039D01*
X92129511Y-136386794D01*
X92078000Y-136398000D01*
X60830000Y-136398000D01*
X60762961Y-136378315D01*
X60717206Y-136325511D01*
X60706000Y-136274000D01*
X60706000Y-133974999D01*
X88604706Y-133974999D01*
X88623854Y-134218303D01*
X88680828Y-134455615D01*
X88774221Y-134681088D01*
X88862417Y-134825008D01*
X88901741Y-134889179D01*
X89060241Y-135074759D01*
X89245821Y-135233259D01*
X89324887Y-135281711D01*
X89453911Y-135360778D01*
X89679384Y-135454171D01*
X89679387Y-135454171D01*
X89679388Y-135454172D01*
X89916698Y-135511146D01*
X90160000Y-135530294D01*
X90403302Y-135511146D01*
X90640612Y-135454172D01*
X90640613Y-135454171D01*
X90640615Y-135454171D01*
X90866088Y-135360778D01*
X90944272Y-135312866D01*
X91074179Y-135233259D01*
X91259759Y-135074759D01*
X91418259Y-134889179D01*
X91545777Y-134681089D01*
X91545778Y-134681088D01*
X91639171Y-134455615D01*
X91639172Y-134455612D01*
X91696146Y-134218302D01*
X91715294Y-133975000D01*
X91696146Y-133731698D01*
X91639172Y-133494388D01*
X91639171Y-133494387D01*
X91639171Y-133494384D01*
X91545778Y-133268911D01*
X91457583Y-133124992D01*
X91418259Y-133060821D01*
X91259759Y-132875241D01*
X91170829Y-132799288D01*
X91132637Y-132740782D01*
X91132139Y-132670914D01*
X91169492Y-132611868D01*
X91170622Y-132610888D01*
X91259759Y-132534759D01*
X91418259Y-132349179D01*
X91545777Y-132141089D01*
X91545778Y-132141088D01*
X91639171Y-131915615D01*
X91639172Y-131915612D01*
X91696146Y-131678302D01*
X91715294Y-131435000D01*
X91696146Y-131191698D01*
X91639172Y-130954388D01*
X91639171Y-130954387D01*
X91639171Y-130954384D01*
X91545778Y-130728911D01*
X91462754Y-130593430D01*
X91418259Y-130520821D01*
X91259759Y-130335241D01*
X91170830Y-130259288D01*
X91132638Y-130200783D01*
X91132139Y-130130916D01*
X91169493Y-130071869D01*
X91170785Y-130070748D01*
X91259759Y-129994759D01*
X91418259Y-129809179D01*
X91545777Y-129601089D01*
X91545778Y-129601088D01*
X91639171Y-129375615D01*
X91652523Y-129320000D01*
X91696146Y-129138302D01*
X91715294Y-128895000D01*
X91696146Y-128651698D01*
X91639172Y-128414388D01*
X91639171Y-128414387D01*
X91639171Y-128414384D01*
X91545778Y-128188911D01*
X91438723Y-128014215D01*
X91418259Y-127980821D01*
X91259759Y-127795241D01*
X91074179Y-127636741D01*
X90980415Y-127579282D01*
X90933540Y-127527470D01*
X90922117Y-127458541D01*
X90949774Y-127394378D01*
X90974083Y-127371979D01*
X90998818Y-127354659D01*
X91159658Y-127193819D01*
X91290134Y-127007480D01*
X91386266Y-126801326D01*
X91438872Y-126605000D01*
X90475686Y-126605000D01*
X90487641Y-126593045D01*
X90545165Y-126480148D01*
X90564986Y-126355000D01*
X90545165Y-126229852D01*
X90487641Y-126116955D01*
X90475686Y-126105000D01*
X91438872Y-126105000D01*
X91438871Y-126104999D01*
X91386266Y-125908673D01*
X91290134Y-125702519D01*
X91159658Y-125516180D01*
X90998819Y-125355341D01*
X90812480Y-125224865D01*
X90606326Y-125128733D01*
X90410000Y-125076126D01*
X90410000Y-126039313D01*
X90398045Y-126027359D01*
X90285148Y-125969835D01*
X90191481Y-125955000D01*
X90128519Y-125955000D01*
X90034852Y-125969835D01*
X89921955Y-126027359D01*
X89910000Y-126039313D01*
X89910000Y-125076127D01*
X89909999Y-125076126D01*
X89713673Y-125128733D01*
X89507519Y-125224865D01*
X89321180Y-125355341D01*
X89160341Y-125516180D01*
X89029865Y-125702519D01*
X88933733Y-125908673D01*
X88881128Y-126104999D01*
X88881128Y-126105000D01*
X89844314Y-126105000D01*
X89832359Y-126116955D01*
X89774835Y-126229852D01*
X89755014Y-126355000D01*
X89774835Y-126480148D01*
X89832359Y-126593045D01*
X89844314Y-126605000D01*
X88881128Y-126605000D01*
X88933733Y-126801326D01*
X89029865Y-127007480D01*
X89160341Y-127193819D01*
X89321180Y-127354658D01*
X89345918Y-127371980D01*
X89389542Y-127426557D01*
X89396735Y-127496056D01*
X89365213Y-127558410D01*
X89339584Y-127579282D01*
X89245822Y-127636739D01*
X89060241Y-127795241D01*
X88901740Y-127980822D01*
X88774221Y-128188911D01*
X88680828Y-128414384D01*
X88623854Y-128651696D01*
X88604706Y-128895000D01*
X88623854Y-129138303D01*
X88680828Y-129375615D01*
X88774221Y-129601088D01*
X88883902Y-129780068D01*
X88901741Y-129809179D01*
X89060241Y-129994759D01*
X89123584Y-130048859D01*
X89149168Y-130070710D01*
X89187361Y-130129217D01*
X89187859Y-130199085D01*
X89150505Y-130258131D01*
X89149168Y-130259290D01*
X89060241Y-130335241D01*
X88901740Y-130520822D01*
X88774221Y-130728911D01*
X88680828Y-130954384D01*
X88623854Y-131191696D01*
X88604706Y-131435000D01*
X88623854Y-131678303D01*
X88680828Y-131915615D01*
X88774221Y-132141088D01*
X88851354Y-132266955D01*
X88901741Y-132349179D01*
X89060241Y-132534759D01*
X89129309Y-132593748D01*
X89149167Y-132610709D01*
X89187361Y-132669215D01*
X89187860Y-132739083D01*
X89150506Y-132798130D01*
X89149169Y-132799288D01*
X89083160Y-132855666D01*
X89060241Y-132875241D01*
X88995258Y-132951326D01*
X88901740Y-133060822D01*
X88774221Y-133268911D01*
X88680828Y-133494384D01*
X88623854Y-133731696D01*
X88604706Y-133974999D01*
X60706000Y-133974999D01*
X60706000Y-129320000D01*
X66629842Y-129320000D01*
X66650430Y-129555318D01*
X66711569Y-129783492D01*
X66811400Y-129997580D01*
X66870073Y-130081373D01*
X67501923Y-129449523D01*
X67525507Y-129529844D01*
X67603239Y-129650798D01*
X67711900Y-129744952D01*
X67842685Y-129804680D01*
X67852466Y-129806086D01*
X67223625Y-130434925D01*
X67307420Y-130493599D01*
X67521507Y-130593430D01*
X67749681Y-130654569D01*
X67985000Y-130675157D01*
X68220318Y-130654569D01*
X68448492Y-130593430D01*
X68662576Y-130493600D01*
X68746373Y-130434925D01*
X68117533Y-129806086D01*
X68127315Y-129804680D01*
X68258100Y-129744952D01*
X68366761Y-129650798D01*
X68444493Y-129529844D01*
X68468076Y-129449524D01*
X69127082Y-130108530D01*
X69145128Y-130131421D01*
X69172900Y-130176741D01*
X69226164Y-130263659D01*
X69389776Y-130455224D01*
X69581341Y-130618836D01*
X69796141Y-130750466D01*
X70028889Y-130846873D01*
X70273852Y-130905683D01*
X70525000Y-130925449D01*
X70776148Y-130905683D01*
X71021111Y-130846873D01*
X71105597Y-130811878D01*
X74659500Y-130811878D01*
X74659501Y-130815008D01*
X74659820Y-130818140D01*
X74659821Y-130818141D01*
X74670000Y-130917796D01*
X74725186Y-131084334D01*
X74817288Y-131233657D01*
X74941342Y-131357711D01*
X74941344Y-131357712D01*
X75090666Y-131449814D01*
X75152666Y-131470358D01*
X75210110Y-131510130D01*
X75236934Y-131574646D01*
X75224619Y-131643422D01*
X75215237Y-131659187D01*
X75079866Y-131852516D01*
X74983733Y-132058673D01*
X74931128Y-132254999D01*
X74931128Y-132255000D01*
X75894314Y-132255000D01*
X75882359Y-132266955D01*
X75824835Y-132379852D01*
X75805014Y-132505000D01*
X75824835Y-132630148D01*
X75882359Y-132743045D01*
X75894314Y-132755000D01*
X74931128Y-132755000D01*
X74983733Y-132951326D01*
X75079865Y-133157480D01*
X75210341Y-133343819D01*
X75371180Y-133504658D01*
X75557519Y-133635134D01*
X75763673Y-133731266D01*
X75959999Y-133783871D01*
X75960000Y-133783871D01*
X75960000Y-132820686D01*
X75971955Y-132832641D01*
X76084852Y-132890165D01*
X76178519Y-132905000D01*
X76241481Y-132905000D01*
X76335148Y-132890165D01*
X76448045Y-132832641D01*
X76460000Y-132820686D01*
X76460000Y-133783871D01*
X76656326Y-133731266D01*
X76862480Y-133635134D01*
X77048819Y-133504658D01*
X77209658Y-133343819D01*
X77340134Y-133157480D01*
X77436266Y-132951326D01*
X77488872Y-132755000D01*
X76525686Y-132755000D01*
X76537641Y-132743045D01*
X76595165Y-132630148D01*
X76614986Y-132505000D01*
X76595165Y-132379852D01*
X76537641Y-132266955D01*
X76525686Y-132255000D01*
X77488872Y-132255000D01*
X77488871Y-132254999D01*
X77436266Y-132058673D01*
X77340134Y-131852519D01*
X77204762Y-131659188D01*
X77182435Y-131592982D01*
X77199445Y-131525214D01*
X77250393Y-131477401D01*
X77267324Y-131470361D01*
X77329334Y-131449814D01*
X77478656Y-131357712D01*
X77602712Y-131233656D01*
X77694814Y-131084334D01*
X77749999Y-130917797D01*
X77760500Y-130815009D01*
X77760499Y-129114992D01*
X77749999Y-129012203D01*
X77694814Y-128845666D01*
X77602712Y-128696344D01*
X77602711Y-128696342D01*
X77478657Y-128572288D01*
X77329334Y-128480186D01*
X77162797Y-128425000D01*
X77063141Y-128414819D01*
X77063122Y-128414818D01*
X77060009Y-128414500D01*
X77056860Y-128414500D01*
X75363140Y-128414500D01*
X75363120Y-128414500D01*
X75359992Y-128414501D01*
X75356860Y-128414820D01*
X75356858Y-128414821D01*
X75257203Y-128425000D01*
X75090665Y-128480186D01*
X74941342Y-128572288D01*
X74817288Y-128696342D01*
X74725186Y-128845665D01*
X74670000Y-129012202D01*
X74659819Y-129111858D01*
X74659817Y-129111878D01*
X74659500Y-129114991D01*
X74659500Y-129118138D01*
X74659500Y-129118139D01*
X74659500Y-130811859D01*
X74659500Y-130811878D01*
X71105597Y-130811878D01*
X71253859Y-130750466D01*
X71468659Y-130618836D01*
X71660224Y-130455224D01*
X71823836Y-130263659D01*
X71955466Y-130048859D01*
X72051873Y-129816111D01*
X72110683Y-129571148D01*
X72130449Y-129320000D01*
X72110683Y-129068852D01*
X72051873Y-128823889D01*
X71955466Y-128591141D01*
X71823836Y-128376341D01*
X71660224Y-128184776D01*
X71660222Y-128184774D01*
X71660221Y-128184773D01*
X71612821Y-128144290D01*
X71574627Y-128085784D01*
X71574128Y-128015916D01*
X71611482Y-127956869D01*
X71612822Y-127955709D01*
X71636825Y-127935209D01*
X71700586Y-127906639D01*
X71717355Y-127905500D01*
X72505667Y-127905500D01*
X72526232Y-127907217D01*
X72529342Y-127907740D01*
X72621957Y-127905534D01*
X72624908Y-127905500D01*
X72660672Y-127905500D01*
X72663618Y-127905500D01*
X72672559Y-127904645D01*
X72681373Y-127904120D01*
X72744226Y-127902624D01*
X72776520Y-127895598D01*
X72791074Y-127893328D01*
X72823971Y-127890188D01*
X72884282Y-127872478D01*
X72892852Y-127870292D01*
X72954254Y-127856935D01*
X72954254Y-127856934D01*
X72954258Y-127856934D01*
X72984639Y-127843923D01*
X72998493Y-127838943D01*
X73030209Y-127829631D01*
X73086075Y-127800829D01*
X73094082Y-127797057D01*
X73098323Y-127795241D01*
X73151849Y-127772321D01*
X73179221Y-127753794D01*
X73191881Y-127746282D01*
X73221259Y-127731138D01*
X73270681Y-127692270D01*
X73277800Y-127687074D01*
X73329855Y-127651843D01*
X73353217Y-127628479D01*
X73364238Y-127618696D01*
X73390217Y-127598268D01*
X73431390Y-127550750D01*
X73437395Y-127544301D01*
X73874079Y-127107617D01*
X73889834Y-127094292D01*
X73892399Y-127092466D01*
X73956344Y-127025400D01*
X73958367Y-127023330D01*
X73983670Y-126998028D01*
X73983670Y-126998027D01*
X73985763Y-126995935D01*
X73991500Y-126988985D01*
X73997349Y-126982395D01*
X74040727Y-126936903D01*
X74058590Y-126909106D01*
X74067283Y-126897201D01*
X74088322Y-126871721D01*
X74118447Y-126816548D01*
X74122953Y-126808955D01*
X74127856Y-126801326D01*
X74156935Y-126756080D01*
X74169216Y-126725402D01*
X74175496Y-126712070D01*
X74191334Y-126683068D01*
X74210482Y-126623164D01*
X74213447Y-126614916D01*
X74236822Y-126556532D01*
X74243074Y-126524087D01*
X74246715Y-126509817D01*
X74256782Y-126478331D01*
X74264244Y-126415909D01*
X74265600Y-126407207D01*
X74277500Y-126345472D01*
X74277500Y-126312437D01*
X74278377Y-126297715D01*
X74278664Y-126295320D01*
X74282300Y-126264906D01*
X74277815Y-126202210D01*
X74277500Y-126193365D01*
X74277500Y-125458120D01*
X74297185Y-125391081D01*
X74349989Y-125345326D01*
X74419147Y-125335382D01*
X74472621Y-125356543D01*
X74506170Y-125380035D01*
X74720337Y-125479903D01*
X74948592Y-125541063D01*
X75184000Y-125561659D01*
X75419408Y-125541063D01*
X75647663Y-125479903D01*
X75861830Y-125380035D01*
X76055401Y-125244495D01*
X76222495Y-125077401D01*
X76358035Y-124883830D01*
X76457903Y-124669663D01*
X76519063Y-124441408D01*
X76539659Y-124206000D01*
X76519063Y-123970592D01*
X76457903Y-123742337D01*
X76358035Y-123528171D01*
X76331924Y-123490880D01*
X76309597Y-123424674D01*
X76309500Y-123419758D01*
X76309500Y-122754582D01*
X76329185Y-122687543D01*
X76381989Y-122641788D01*
X76451147Y-122631844D01*
X76480943Y-122640018D01*
X76704390Y-122732573D01*
X76957006Y-122793221D01*
X77216000Y-122813604D01*
X77474994Y-122793221D01*
X77727610Y-122732573D01*
X77967628Y-122633154D01*
X78189140Y-122497412D01*
X78258456Y-122438209D01*
X78322217Y-122409639D01*
X78338988Y-122408500D01*
X80694814Y-122408500D01*
X80708698Y-122409280D01*
X80743826Y-122413238D01*
X80743826Y-122413237D01*
X80743827Y-122413238D01*
X80809934Y-122408780D01*
X80818274Y-122408500D01*
X80825380Y-122408500D01*
X80828155Y-122408500D01*
X80830931Y-122408250D01*
X80830933Y-122408250D01*
X80868762Y-122404845D01*
X80871505Y-122404628D01*
X80968412Y-122398096D01*
X80972652Y-122397027D01*
X80991837Y-122393768D01*
X80996188Y-122393377D01*
X81089856Y-122367525D01*
X81092466Y-122366836D01*
X81186683Y-122343096D01*
X81190658Y-122341290D01*
X81208961Y-122334655D01*
X81213167Y-122333494D01*
X81213167Y-122333493D01*
X81213170Y-122333493D01*
X81300739Y-122291321D01*
X81303165Y-122290187D01*
X81391626Y-122250007D01*
X81395209Y-122247524D01*
X81412039Y-122237723D01*
X81415973Y-122235829D01*
X81494608Y-122178696D01*
X81496781Y-122177155D01*
X81576654Y-122121820D01*
X81579740Y-122118732D01*
X81594543Y-122106089D01*
X81598078Y-122103522D01*
X81665239Y-122033275D01*
X81667096Y-122031376D01*
X82492819Y-121205653D01*
X82554142Y-121172169D01*
X82623834Y-121177153D01*
X82679767Y-121219025D01*
X82704184Y-121284489D01*
X82704500Y-121293335D01*
X82704500Y-121327561D01*
X82703623Y-121342283D01*
X82699699Y-121375094D01*
X82704184Y-121437787D01*
X82704500Y-121446634D01*
X82704500Y-128849633D01*
X82684815Y-128916672D01*
X82674791Y-128930164D01*
X82571739Y-129050822D01*
X82444221Y-129258911D01*
X82350828Y-129484384D01*
X82293854Y-129721696D01*
X82274706Y-129965000D01*
X82293854Y-130208303D01*
X82350828Y-130445615D01*
X82444221Y-130671088D01*
X82532417Y-130815008D01*
X82571741Y-130879179D01*
X82730241Y-131064759D01*
X82915821Y-131223259D01*
X83009582Y-131280716D01*
X83009584Y-131280717D01*
X83056459Y-131332528D01*
X83067882Y-131401458D01*
X83040225Y-131465621D01*
X83015920Y-131488017D01*
X82991183Y-131505338D01*
X82830341Y-131666180D01*
X82699865Y-131852519D01*
X82603733Y-132058673D01*
X82551128Y-132254999D01*
X82551128Y-132255000D01*
X83514314Y-132255000D01*
X83502359Y-132266955D01*
X83444835Y-132379852D01*
X83425014Y-132505000D01*
X83444835Y-132630148D01*
X83502359Y-132743045D01*
X83514314Y-132755000D01*
X82551128Y-132755000D01*
X82603733Y-132951326D01*
X82699865Y-133157480D01*
X82830341Y-133343819D01*
X82991180Y-133504658D01*
X83177519Y-133635134D01*
X83383673Y-133731266D01*
X83579999Y-133783871D01*
X83580000Y-133783871D01*
X83580000Y-132820685D01*
X83591955Y-132832641D01*
X83704852Y-132890165D01*
X83798519Y-132905000D01*
X83861481Y-132905000D01*
X83955148Y-132890165D01*
X84068045Y-132832641D01*
X84080000Y-132820686D01*
X84080000Y-133783871D01*
X84276326Y-133731266D01*
X84482480Y-133635134D01*
X84668819Y-133504658D01*
X84829658Y-133343819D01*
X84960134Y-133157480D01*
X85056266Y-132951326D01*
X85108872Y-132755000D01*
X84145686Y-132755000D01*
X84157641Y-132743045D01*
X84215165Y-132630148D01*
X84234986Y-132505000D01*
X84215165Y-132379852D01*
X84157641Y-132266955D01*
X84145686Y-132255000D01*
X85108872Y-132255000D01*
X85108871Y-132254999D01*
X85056266Y-132058673D01*
X84960134Y-131852519D01*
X84829658Y-131666180D01*
X84668815Y-131505337D01*
X84644081Y-131488018D01*
X84600456Y-131433441D01*
X84593264Y-131363943D01*
X84624787Y-131301588D01*
X84650410Y-131280720D01*
X84744179Y-131223259D01*
X84929759Y-131064759D01*
X85088259Y-130879179D01*
X85215777Y-130671089D01*
X85215778Y-130671088D01*
X85309171Y-130445615D01*
X85309172Y-130445612D01*
X85366146Y-130208302D01*
X85385294Y-129965000D01*
X85366146Y-129721698D01*
X85309172Y-129484388D01*
X85309171Y-129484387D01*
X85309171Y-129484384D01*
X85215778Y-129258911D01*
X85088260Y-129050822D01*
X84985209Y-128930164D01*
X84956639Y-128866403D01*
X84955500Y-128849633D01*
X84955500Y-121919559D01*
X84975185Y-121852520D01*
X84991819Y-121831878D01*
X85385910Y-121437787D01*
X85838911Y-120984785D01*
X85894495Y-120952694D01*
X86061663Y-120907903D01*
X86275830Y-120808035D01*
X86469401Y-120672495D01*
X86636495Y-120505401D01*
X86772035Y-120311830D01*
X86871903Y-120097663D01*
X86933063Y-119869408D01*
X86953659Y-119634000D01*
X86933063Y-119398592D01*
X86871903Y-119170337D01*
X86772035Y-118956171D01*
X86636495Y-118762599D01*
X86469401Y-118595505D01*
X86275830Y-118459965D01*
X86061663Y-118360097D01*
X86000501Y-118343709D01*
X85833407Y-118298936D01*
X85598000Y-118278340D01*
X85362592Y-118298936D01*
X85134336Y-118360097D01*
X84920170Y-118459965D01*
X84726598Y-118595505D01*
X84559505Y-118762598D01*
X84423965Y-118956170D01*
X84324097Y-119170336D01*
X84298275Y-119266706D01*
X84261910Y-119326367D01*
X84199063Y-119356896D01*
X84129687Y-119348601D01*
X84075810Y-119304116D01*
X84054535Y-119237564D01*
X84054500Y-119234613D01*
X84054500Y-119234170D01*
X84056027Y-119214770D01*
X84056710Y-119210460D01*
X84054531Y-119113358D01*
X84054500Y-119110577D01*
X84054500Y-112583335D01*
X84074185Y-112516296D01*
X84090814Y-112495659D01*
X86866118Y-109720354D01*
X86901384Y-109695660D01*
X87037830Y-109632035D01*
X87231401Y-109496495D01*
X87398495Y-109329401D01*
X87534035Y-109135830D01*
X87597660Y-108999384D01*
X87622354Y-108964118D01*
X91507667Y-105078805D01*
X91518016Y-105069557D01*
X91545666Y-105047508D01*
X91589269Y-104997599D01*
X91594943Y-104991529D01*
X91601944Y-104984530D01*
X91628105Y-104953192D01*
X91629884Y-104951112D01*
X91693762Y-104878000D01*
X91693763Y-104877998D01*
X91693765Y-104877996D01*
X91696002Y-104874251D01*
X91707269Y-104858370D01*
X91710068Y-104855019D01*
X91758008Y-104770529D01*
X91759375Y-104768182D01*
X91800209Y-104699837D01*
X91809215Y-104684764D01*
X91810749Y-104680674D01*
X91818998Y-104663041D01*
X91821153Y-104659245D01*
X91853253Y-104567507D01*
X91854153Y-104565023D01*
X91888307Y-104474024D01*
X91889087Y-104469723D01*
X91894052Y-104450913D01*
X91895498Y-104446783D01*
X91903541Y-104396000D01*
X92944389Y-104396000D01*
X92964804Y-104681429D01*
X93025629Y-104961041D01*
X93125634Y-105229163D01*
X93262772Y-105480313D01*
X93337230Y-105579777D01*
X93434261Y-105709395D01*
X93636605Y-105911739D01*
X93735992Y-105986139D01*
X93865686Y-106083227D01*
X94005435Y-106159535D01*
X94116839Y-106220367D01*
X94384954Y-106320369D01*
X94384957Y-106320369D01*
X94384958Y-106320370D01*
X94437217Y-106331738D01*
X94664572Y-106381196D01*
X94950000Y-106401610D01*
X95235428Y-106381196D01*
X95515046Y-106320369D01*
X95783161Y-106220367D01*
X96034315Y-106083226D01*
X96263395Y-105911739D01*
X96465739Y-105709395D01*
X96637226Y-105480315D01*
X96774367Y-105229161D01*
X96874369Y-104961046D01*
X96935196Y-104681428D01*
X96955610Y-104396000D01*
X96935196Y-104110572D01*
X96874369Y-103830954D01*
X96774367Y-103562839D01*
X96637226Y-103311685D01*
X96627288Y-103298410D01*
X96510673Y-103142630D01*
X96465739Y-103082605D01*
X96263395Y-102880261D01*
X96082085Y-102744534D01*
X96034313Y-102708772D01*
X95783163Y-102571634D01*
X95783162Y-102571633D01*
X95783161Y-102571633D01*
X95515046Y-102471631D01*
X95515041Y-102471629D01*
X95235429Y-102410804D01*
X94950000Y-102390389D01*
X94664570Y-102410804D01*
X94384958Y-102471629D01*
X94116836Y-102571634D01*
X93865686Y-102708772D01*
X93636602Y-102880263D01*
X93434263Y-103082602D01*
X93262772Y-103311686D01*
X93125634Y-103562836D01*
X93025629Y-103830958D01*
X92964804Y-104110570D01*
X92944389Y-104396000D01*
X91903541Y-104396000D01*
X91910708Y-104350746D01*
X91911144Y-104348181D01*
X91928500Y-104252547D01*
X91928500Y-104248170D01*
X91930027Y-104228771D01*
X91930710Y-104224460D01*
X91928531Y-104127378D01*
X91928500Y-104124596D01*
X91928500Y-99316000D01*
X95484389Y-99316000D01*
X95504804Y-99601429D01*
X95565629Y-99881041D01*
X95665634Y-100149163D01*
X95802772Y-100400313D01*
X95812727Y-100413611D01*
X95974261Y-100629395D01*
X96176605Y-100831739D01*
X96318158Y-100937704D01*
X96405686Y-101003227D01*
X96545435Y-101079535D01*
X96656839Y-101140367D01*
X96924954Y-101240369D01*
X96924957Y-101240369D01*
X96924958Y-101240370D01*
X96977217Y-101251738D01*
X97204572Y-101301196D01*
X97490000Y-101321610D01*
X97775428Y-101301196D01*
X98055046Y-101240369D01*
X98323161Y-101140367D01*
X98574315Y-101003226D01*
X98803395Y-100831739D01*
X99005739Y-100629395D01*
X99177226Y-100400315D01*
X99314367Y-100149161D01*
X99414369Y-99881046D01*
X99475196Y-99601428D01*
X99495610Y-99316000D01*
X99475196Y-99030572D01*
X99414369Y-98750954D01*
X99314367Y-98482839D01*
X99246710Y-98358935D01*
X99177227Y-98231686D01*
X99094728Y-98121481D01*
X99005739Y-98002605D01*
X98803395Y-97800261D01*
X98688854Y-97714517D01*
X98574313Y-97628772D01*
X98323163Y-97491634D01*
X98323162Y-97491633D01*
X98323161Y-97491633D01*
X98055046Y-97391631D01*
X98055041Y-97391629D01*
X97775429Y-97330804D01*
X97490000Y-97310389D01*
X97204570Y-97330804D01*
X96924958Y-97391629D01*
X96656836Y-97491634D01*
X96405686Y-97628772D01*
X96176602Y-97800263D01*
X95974263Y-98002602D01*
X95802772Y-98231686D01*
X95665634Y-98482836D01*
X95565629Y-98750958D01*
X95504804Y-99030570D01*
X95484389Y-99316000D01*
X91928500Y-99316000D01*
X91928500Y-96835335D01*
X91948185Y-96768296D01*
X91964814Y-96747659D01*
X95571667Y-93140805D01*
X95582016Y-93131557D01*
X95609666Y-93109508D01*
X95653269Y-93059599D01*
X95658943Y-93053529D01*
X95665945Y-93046529D01*
X95692126Y-93015167D01*
X95693781Y-93013229D01*
X95757765Y-92939996D01*
X95760002Y-92936251D01*
X95771269Y-92920370D01*
X95774068Y-92917019D01*
X95822008Y-92832529D01*
X95823375Y-92830182D01*
X95863242Y-92763456D01*
X95873215Y-92746764D01*
X95874749Y-92742674D01*
X95882998Y-92725041D01*
X95885153Y-92721245D01*
X95917261Y-92629484D01*
X95918141Y-92627057D01*
X95952307Y-92536024D01*
X95953086Y-92531727D01*
X95958050Y-92512917D01*
X95959498Y-92508782D01*
X95970210Y-92441145D01*
X95974696Y-92412825D01*
X95975154Y-92410124D01*
X95992500Y-92314547D01*
X95992500Y-92310170D01*
X95994027Y-92290770D01*
X95994710Y-92286460D01*
X95992531Y-92189358D01*
X95992500Y-92186577D01*
X95992500Y-77801185D01*
X95993280Y-77787300D01*
X95997238Y-77752173D01*
X95996237Y-77737335D01*
X95992779Y-77686057D01*
X95992499Y-77677709D01*
X95992500Y-77667845D01*
X95988844Y-77627230D01*
X95988630Y-77624498D01*
X95982097Y-77527588D01*
X95981028Y-77523346D01*
X95977768Y-77504155D01*
X95977377Y-77499814D01*
X95977377Y-77499812D01*
X95951513Y-77406100D01*
X95950855Y-77403609D01*
X95927096Y-77309317D01*
X95925285Y-77305331D01*
X95918656Y-77287046D01*
X95917493Y-77282830D01*
X95875332Y-77195283D01*
X95874181Y-77192823D01*
X95834007Y-77104375D01*
X95831519Y-77100784D01*
X95821723Y-77083961D01*
X95819829Y-77080027D01*
X95762706Y-77001404D01*
X95761128Y-76999180D01*
X95756694Y-76992780D01*
X95705820Y-76919346D01*
X95702734Y-76916260D01*
X95690091Y-76901458D01*
X95687522Y-76897922D01*
X95617299Y-76830782D01*
X95615310Y-76828836D01*
X90186819Y-71400345D01*
X90153334Y-71339022D01*
X90150500Y-71312664D01*
X90150500Y-59436000D01*
X95784389Y-59436000D01*
X95804804Y-59721429D01*
X95865629Y-60001041D01*
X95865631Y-60001046D01*
X95955665Y-60242437D01*
X95965634Y-60269163D01*
X96102772Y-60520313D01*
X96188517Y-60634854D01*
X96274261Y-60749395D01*
X96476605Y-60951739D01*
X96552894Y-61008848D01*
X96705686Y-61123227D01*
X96845435Y-61199535D01*
X96956839Y-61260367D01*
X97224954Y-61360369D01*
X97224957Y-61360369D01*
X97224958Y-61360370D01*
X97277217Y-61371738D01*
X97504572Y-61421196D01*
X97790000Y-61441610D01*
X98075428Y-61421196D01*
X98355046Y-61360369D01*
X98623161Y-61260367D01*
X98874315Y-61123226D01*
X99103395Y-60951739D01*
X99305739Y-60749395D01*
X99477226Y-60520315D01*
X99614367Y-60269161D01*
X99714369Y-60001046D01*
X99775196Y-59721428D01*
X99795610Y-59436000D01*
X99775196Y-59150572D01*
X99714369Y-58870954D01*
X99614367Y-58602839D01*
X99477226Y-58351685D01*
X99305739Y-58122605D01*
X99103395Y-57920261D01*
X98937673Y-57796203D01*
X98874313Y-57748772D01*
X98623163Y-57611634D01*
X98623162Y-57611633D01*
X98623161Y-57611633D01*
X98355046Y-57511631D01*
X98355041Y-57511629D01*
X98075429Y-57450804D01*
X97790000Y-57430389D01*
X97504570Y-57450804D01*
X97224958Y-57511629D01*
X96956836Y-57611634D01*
X96705686Y-57748772D01*
X96476602Y-57920263D01*
X96274263Y-58122602D01*
X96102772Y-58351686D01*
X95965634Y-58602836D01*
X95865629Y-58870958D01*
X95804804Y-59150570D01*
X95784389Y-59436000D01*
X90150500Y-59436000D01*
X90150500Y-53086000D01*
X93244389Y-53086000D01*
X93264804Y-53371429D01*
X93325629Y-53651041D01*
X93425634Y-53919163D01*
X93562772Y-54170313D01*
X93623624Y-54251601D01*
X93734261Y-54399395D01*
X93936605Y-54601739D01*
X94046222Y-54683797D01*
X94165686Y-54773227D01*
X94305435Y-54849535D01*
X94416839Y-54910367D01*
X94684954Y-55010369D01*
X94684957Y-55010369D01*
X94684958Y-55010370D01*
X94686990Y-55010812D01*
X94964572Y-55071196D01*
X95250000Y-55091610D01*
X95535428Y-55071196D01*
X95815046Y-55010369D01*
X96083161Y-54910367D01*
X96334315Y-54773226D01*
X96563395Y-54601739D01*
X96765739Y-54399395D01*
X96937226Y-54170315D01*
X97074367Y-53919161D01*
X97174369Y-53651046D01*
X97235196Y-53371428D01*
X97255610Y-53086000D01*
X97237428Y-52831791D01*
X97252280Y-52763522D01*
X97301685Y-52714116D01*
X97369958Y-52699264D01*
X97435422Y-52723681D01*
X97448793Y-52735267D01*
X107519182Y-62805656D01*
X107528448Y-62816024D01*
X107550493Y-62843667D01*
X107600395Y-62887266D01*
X107606491Y-62892965D01*
X107613470Y-62899944D01*
X107615601Y-62901723D01*
X107615613Y-62901734D01*
X107644740Y-62926051D01*
X107646853Y-62927856D01*
X107702360Y-62976350D01*
X107720004Y-62991765D01*
X107723760Y-62994009D01*
X107739624Y-63005266D01*
X107742978Y-63008066D01*
X107742979Y-63008067D01*
X107742981Y-63008068D01*
X107754301Y-63014491D01*
X107827450Y-63055997D01*
X107829854Y-63057397D01*
X107913236Y-63107215D01*
X107913239Y-63107216D01*
X107917323Y-63108749D01*
X107934953Y-63116996D01*
X107938753Y-63119152D01*
X107938755Y-63119153D01*
X108030468Y-63151245D01*
X108032998Y-63152162D01*
X108123976Y-63186307D01*
X108127972Y-63187032D01*
X108128269Y-63187086D01*
X108147088Y-63192053D01*
X108151217Y-63193498D01*
X108247251Y-63208707D01*
X108249847Y-63209149D01*
X108313369Y-63220677D01*
X108345452Y-63226500D01*
X108345453Y-63226500D01*
X108349830Y-63226500D01*
X108369226Y-63228026D01*
X108373540Y-63228710D01*
X108468299Y-63226583D01*
X108470622Y-63226531D01*
X108473404Y-63226500D01*
X111472659Y-63226500D01*
X111525063Y-63238118D01*
X111550334Y-63249902D01*
X111550336Y-63249902D01*
X111550337Y-63249903D01*
X111768646Y-63308398D01*
X111778592Y-63311063D01*
X112013999Y-63331659D01*
X112013999Y-63331658D01*
X112014000Y-63331659D01*
X112249408Y-63311063D01*
X112477663Y-63249903D01*
X112691830Y-63150035D01*
X112885401Y-63014495D01*
X113052495Y-62847401D01*
X113188035Y-62653830D01*
X113287903Y-62439663D01*
X113349063Y-62211408D01*
X113369659Y-61976000D01*
X113349063Y-61740592D01*
X113308104Y-61587729D01*
X113309767Y-61517880D01*
X113348929Y-61460017D01*
X113413158Y-61432513D01*
X113419018Y-61431953D01*
X113569428Y-61421196D01*
X113849046Y-61360369D01*
X114117161Y-61260367D01*
X114368315Y-61123226D01*
X114597395Y-60951739D01*
X114799739Y-60749395D01*
X114971226Y-60520315D01*
X115108367Y-60269161D01*
X115208369Y-60001046D01*
X115269196Y-59721428D01*
X115289610Y-59436000D01*
X115269196Y-59150572D01*
X115208369Y-58870954D01*
X115108367Y-58602839D01*
X114971226Y-58351685D01*
X114799739Y-58122605D01*
X114597395Y-57920261D01*
X114431673Y-57796203D01*
X114368313Y-57748772D01*
X114117163Y-57611634D01*
X114117162Y-57611633D01*
X114117161Y-57611633D01*
X113849046Y-57511631D01*
X113849041Y-57511629D01*
X113569429Y-57450804D01*
X113284000Y-57430389D01*
X112998570Y-57450804D01*
X112718958Y-57511629D01*
X112450836Y-57611634D01*
X112199686Y-57748772D01*
X111970605Y-57920261D01*
X111847681Y-58043185D01*
X111786358Y-58076669D01*
X111716666Y-58071685D01*
X111672319Y-58043185D01*
X111631360Y-58002226D01*
X111549395Y-57920261D01*
X111383673Y-57796203D01*
X111320313Y-57748772D01*
X111069163Y-57611634D01*
X111069162Y-57611633D01*
X111069161Y-57611633D01*
X110801046Y-57511631D01*
X110801041Y-57511629D01*
X110521429Y-57450804D01*
X110236000Y-57430389D01*
X109950570Y-57450804D01*
X109670958Y-57511629D01*
X109402836Y-57611634D01*
X109151686Y-57748772D01*
X108922602Y-57920263D01*
X108720263Y-58122602D01*
X108548772Y-58351686D01*
X108411634Y-58602836D01*
X108311629Y-58870958D01*
X108250804Y-59150570D01*
X108230389Y-59436000D01*
X108248571Y-59690205D01*
X108233719Y-59758478D01*
X108184314Y-59807883D01*
X108116041Y-59822735D01*
X108050577Y-59798318D01*
X108037206Y-59786732D01*
X99076819Y-50826344D01*
X99043334Y-50765021D01*
X99040500Y-50738663D01*
X99040500Y-49630891D01*
X99060185Y-49563852D01*
X99090190Y-49531623D01*
X99103395Y-49521739D01*
X99305739Y-49319395D01*
X99477226Y-49090315D01*
X99614367Y-48839161D01*
X99714369Y-48571046D01*
X99775196Y-48291428D01*
X99795610Y-48006000D01*
X99775196Y-47720572D01*
X99714369Y-47440954D01*
X99614367Y-47172839D01*
X99477226Y-46921685D01*
X99305739Y-46692605D01*
X99103395Y-46490261D01*
X98988855Y-46404517D01*
X98874313Y-46318772D01*
X98623163Y-46181634D01*
X98623162Y-46181633D01*
X98623161Y-46181633D01*
X98355046Y-46081631D01*
X98355041Y-46081629D01*
X98075429Y-46020804D01*
X97790000Y-46000389D01*
X97504570Y-46020804D01*
X97224958Y-46081629D01*
X96956836Y-46181634D01*
X96705686Y-46318772D01*
X96476602Y-46490263D01*
X96274263Y-46692602D01*
X96102772Y-46921686D01*
X95965634Y-47172836D01*
X95865629Y-47440958D01*
X95804804Y-47720570D01*
X95784389Y-48006000D01*
X95804804Y-48291429D01*
X95865629Y-48571041D01*
X95965634Y-48839163D01*
X96102772Y-49090313D01*
X96163624Y-49171601D01*
X96274261Y-49319395D01*
X96274263Y-49319397D01*
X96274264Y-49319398D01*
X96476600Y-49521735D01*
X96476603Y-49521737D01*
X96476605Y-49521739D01*
X96489808Y-49531622D01*
X96531680Y-49587553D01*
X96539500Y-49630891D01*
X96539500Y-51230814D01*
X96538720Y-51244698D01*
X96534761Y-51279828D01*
X96535695Y-51293675D01*
X96520564Y-51361887D01*
X96470957Y-51411089D01*
X96402624Y-51425662D01*
X96342134Y-51402958D01*
X96342099Y-51403024D01*
X96341639Y-51402773D01*
X96337664Y-51401281D01*
X96334313Y-51398772D01*
X96083163Y-51261634D01*
X96083162Y-51261633D01*
X96083161Y-51261633D01*
X95815046Y-51161631D01*
X95815041Y-51161629D01*
X95535429Y-51100804D01*
X95250000Y-51080389D01*
X94964570Y-51100804D01*
X94684958Y-51161629D01*
X94416836Y-51261634D01*
X94165686Y-51398772D01*
X93936602Y-51570263D01*
X93734263Y-51772602D01*
X93562772Y-52001686D01*
X93425634Y-52252836D01*
X93325629Y-52520958D01*
X93264804Y-52800570D01*
X93244389Y-53086000D01*
X90150500Y-53086000D01*
X90150500Y-52655185D01*
X90151280Y-52641300D01*
X90155238Y-52606173D01*
X90150781Y-52540067D01*
X90150500Y-52531725D01*
X90150500Y-52524620D01*
X90150500Y-52521845D01*
X90146845Y-52481240D01*
X90146630Y-52478514D01*
X90140096Y-52381588D01*
X90139028Y-52377352D01*
X90135768Y-52358169D01*
X90135377Y-52353812D01*
X90109527Y-52260152D01*
X90108832Y-52257514D01*
X90085097Y-52163322D01*
X90085096Y-52163317D01*
X90083285Y-52159331D01*
X90076656Y-52141046D01*
X90075493Y-52136830D01*
X90033351Y-52049320D01*
X90032199Y-52046861D01*
X89992007Y-51958374D01*
X89989517Y-51954780D01*
X89979724Y-51937962D01*
X89979343Y-51937172D01*
X89977829Y-51934027D01*
X89920740Y-51855450D01*
X89919162Y-51853228D01*
X89863820Y-51773346D01*
X89860734Y-51770260D01*
X89848091Y-51755458D01*
X89845522Y-51751922D01*
X89775299Y-51684782D01*
X89773310Y-51682836D01*
X88420816Y-50330342D01*
X88411550Y-50319974D01*
X88389508Y-50292334D01*
X88389506Y-50292332D01*
X88339603Y-50248732D01*
X88333507Y-50243033D01*
X88328506Y-50238032D01*
X88326529Y-50236055D01*
X88324394Y-50234272D01*
X88324377Y-50234257D01*
X88295255Y-50209945D01*
X88293139Y-50208138D01*
X88219997Y-50144236D01*
X88219996Y-50144235D01*
X88216236Y-50141988D01*
X88200370Y-50130730D01*
X88197018Y-50127931D01*
X88112548Y-50080001D01*
X88110145Y-50078601D01*
X88026765Y-50028785D01*
X88022671Y-50027249D01*
X88005046Y-50019003D01*
X88001245Y-50016847D01*
X88001244Y-50016846D01*
X88001243Y-50016846D01*
X87909568Y-49984767D01*
X87906954Y-49983819D01*
X87816028Y-49949694D01*
X87816025Y-49949693D01*
X87816024Y-49949693D01*
X87811721Y-49948911D01*
X87792917Y-49943948D01*
X87788782Y-49942501D01*
X87692847Y-49927306D01*
X87690106Y-49926840D01*
X87594550Y-49909500D01*
X87594547Y-49909500D01*
X87590170Y-49909500D01*
X87570773Y-49907973D01*
X87566460Y-49907290D01*
X87469358Y-49909469D01*
X87466578Y-49909500D01*
X84883257Y-49909500D01*
X84816218Y-49889815D01*
X84808765Y-49884631D01*
X84748383Y-49839257D01*
X84749200Y-49838168D01*
X84706511Y-49796861D01*
X84690538Y-49728842D01*
X84713875Y-49662985D01*
X84743229Y-49634076D01*
X84763818Y-49619659D01*
X84924658Y-49458819D01*
X85055134Y-49272480D01*
X85151266Y-49066326D01*
X85203872Y-48870000D01*
X83840686Y-48870000D01*
X83852641Y-48858045D01*
X83910165Y-48745148D01*
X83929986Y-48620000D01*
X83910165Y-48494852D01*
X83852641Y-48381955D01*
X83840686Y-48370000D01*
X85203872Y-48370000D01*
X85203871Y-48369999D01*
X85151266Y-48173673D01*
X85055134Y-47967519D01*
X84924658Y-47781180D01*
X84763818Y-47620340D01*
X84739078Y-47603017D01*
X84695453Y-47548439D01*
X84688261Y-47478941D01*
X84719783Y-47416586D01*
X84743920Y-47396644D01*
X84859481Y-47323568D01*
X85046862Y-47157563D01*
X85205188Y-46963650D01*
X85330357Y-46746850D01*
X85419128Y-46512780D01*
X85469202Y-46267500D01*
X85476692Y-46081629D01*
X85479282Y-46017368D01*
X85479282Y-46017365D01*
X85449107Y-45768851D01*
X85379459Y-45528396D01*
X85272141Y-45302228D01*
X85229794Y-45240878D01*
X91159500Y-45240878D01*
X91159501Y-45244008D01*
X91159820Y-45247140D01*
X91159821Y-45247141D01*
X91170000Y-45346796D01*
X91225186Y-45513334D01*
X91317288Y-45662657D01*
X91441342Y-45786711D01*
X91441344Y-45786712D01*
X91590666Y-45878814D01*
X91702016Y-45915712D01*
X91757202Y-45933999D01*
X91856858Y-45944180D01*
X91856859Y-45944180D01*
X91859991Y-45944500D01*
X93560008Y-45944499D01*
X93662797Y-45933999D01*
X93829334Y-45878814D01*
X93978656Y-45786712D01*
X94102712Y-45662656D01*
X94194814Y-45513334D01*
X94249999Y-45346797D01*
X94260500Y-45244009D01*
X94260499Y-43543992D01*
X94249999Y-43441203D01*
X94194814Y-43274666D01*
X94102712Y-43125344D01*
X94102711Y-43125342D01*
X93978657Y-43001288D01*
X93829334Y-42909186D01*
X93662797Y-42854000D01*
X93563141Y-42843819D01*
X93563122Y-42843818D01*
X93560009Y-42843500D01*
X93556860Y-42843500D01*
X91863140Y-42843500D01*
X91863120Y-42843500D01*
X91859992Y-42843501D01*
X91856860Y-42843820D01*
X91856858Y-42843821D01*
X91757203Y-42854000D01*
X91590665Y-42909186D01*
X91441342Y-43001288D01*
X91317288Y-43125342D01*
X91225186Y-43274665D01*
X91170000Y-43441202D01*
X91159819Y-43540858D01*
X91159817Y-43540878D01*
X91159500Y-43543991D01*
X91159500Y-43547138D01*
X91159500Y-43547139D01*
X91159500Y-45240859D01*
X91159500Y-45240878D01*
X85229794Y-45240878D01*
X85129932Y-45096203D01*
X84956516Y-44915659D01*
X84756383Y-44765268D01*
X84534723Y-44648931D01*
X84297263Y-44569656D01*
X84050170Y-44529500D01*
X84050169Y-44529500D01*
X83062519Y-44529500D01*
X83060064Y-44529698D01*
X83060043Y-44529699D01*
X82875473Y-44544600D01*
X82632410Y-44604509D01*
X82402098Y-44702636D01*
X82190519Y-44836432D01*
X82003141Y-45002433D01*
X81844809Y-45196353D01*
X81719643Y-45413149D01*
X81630871Y-45647220D01*
X81580797Y-45892502D01*
X81570717Y-46142631D01*
X81600893Y-46391151D01*
X81670540Y-46631601D01*
X81670541Y-46631604D01*
X81777859Y-46857772D01*
X81920068Y-47063797D01*
X82093484Y-47244341D01*
X82269265Y-47376432D01*
X82301617Y-47400743D01*
X82300798Y-47401832D01*
X82343485Y-47443133D01*
X82359461Y-47511152D01*
X82336127Y-47577010D01*
X82306774Y-47605920D01*
X82286183Y-47620338D01*
X82125341Y-47781180D01*
X81994865Y-47967519D01*
X81898733Y-48173673D01*
X81846128Y-48369999D01*
X81846128Y-48370000D01*
X83209314Y-48370000D01*
X83197359Y-48381955D01*
X83139835Y-48494852D01*
X83120014Y-48620000D01*
X83139835Y-48745148D01*
X83197359Y-48858045D01*
X83209314Y-48870000D01*
X81846128Y-48870000D01*
X81898733Y-49066326D01*
X81994865Y-49272480D01*
X82125341Y-49458819D01*
X82286183Y-49619661D01*
X82310920Y-49636982D01*
X82354545Y-49691559D01*
X82361739Y-49761057D01*
X82330216Y-49823412D01*
X82306072Y-49843360D01*
X82190516Y-49916434D01*
X82003141Y-50082433D01*
X81844809Y-50276353D01*
X81719643Y-50493149D01*
X81630871Y-50727220D01*
X81580797Y-50972502D01*
X81570717Y-51222631D01*
X81600893Y-51471151D01*
X81637339Y-51596977D01*
X81670541Y-51711604D01*
X81777859Y-51937772D01*
X81920068Y-52143797D01*
X82093484Y-52324341D01*
X82105245Y-52333179D01*
X82147013Y-52389186D01*
X82151871Y-52458886D01*
X82118276Y-52520149D01*
X82112981Y-52525124D01*
X82003139Y-52622436D01*
X82003138Y-52622437D01*
X81976400Y-52655185D01*
X81844809Y-52816353D01*
X81719643Y-53033149D01*
X81630871Y-53267220D01*
X81580797Y-53512502D01*
X81570717Y-53762631D01*
X81600893Y-54011151D01*
X81670540Y-54251601D01*
X81670541Y-54251604D01*
X81777859Y-54477772D01*
X81920068Y-54683797D01*
X82093484Y-54864341D01*
X82105245Y-54873179D01*
X82147013Y-54929186D01*
X82151871Y-54998886D01*
X82118276Y-55060149D01*
X82112981Y-55065124D01*
X82003139Y-55162436D01*
X81844809Y-55356353D01*
X81719643Y-55573149D01*
X81630871Y-55807220D01*
X81580797Y-56052502D01*
X81570717Y-56302631D01*
X81600893Y-56551151D01*
X81670540Y-56791601D01*
X81670541Y-56791604D01*
X81777859Y-57017772D01*
X81920068Y-57223797D01*
X82093484Y-57404341D01*
X82105245Y-57413179D01*
X82147013Y-57469186D01*
X82151871Y-57538886D01*
X82118276Y-57600149D01*
X82112981Y-57605124D01*
X82003139Y-57702436D01*
X81844809Y-57896353D01*
X81719643Y-58113149D01*
X81630871Y-58347220D01*
X81580797Y-58592502D01*
X81570717Y-58842631D01*
X81600893Y-59091151D01*
X81670540Y-59331601D01*
X81670541Y-59331604D01*
X81777859Y-59557772D01*
X81916397Y-59758478D01*
X81920068Y-59763797D01*
X81942097Y-59786732D01*
X82093484Y-59944341D01*
X82105245Y-59953179D01*
X82147013Y-60009186D01*
X82151871Y-60078886D01*
X82118276Y-60140149D01*
X82112981Y-60145124D01*
X82003139Y-60242436D01*
X81844809Y-60436353D01*
X81719643Y-60653149D01*
X81630871Y-60887220D01*
X81580797Y-61132502D01*
X81570717Y-61382631D01*
X81600893Y-61631151D01*
X81670540Y-61871601D01*
X81670541Y-61871604D01*
X81777859Y-62097772D01*
X81920068Y-62303797D01*
X82093484Y-62484341D01*
X82105245Y-62493179D01*
X82147013Y-62549186D01*
X82151871Y-62618886D01*
X82118276Y-62680149D01*
X82112981Y-62685124D01*
X82003139Y-62782436D01*
X81844809Y-62976353D01*
X81719643Y-63193149D01*
X81630871Y-63427220D01*
X81580797Y-63672502D01*
X81570717Y-63922631D01*
X81600893Y-64171151D01*
X81670540Y-64411601D01*
X81670541Y-64411604D01*
X81777859Y-64637772D01*
X81920068Y-64843797D01*
X82093484Y-65024341D01*
X82105245Y-65033179D01*
X82147013Y-65089186D01*
X82151871Y-65158886D01*
X82118276Y-65220149D01*
X82112981Y-65225124D01*
X82003139Y-65322436D01*
X81844809Y-65516353D01*
X81719643Y-65733149D01*
X81630871Y-65967220D01*
X81580797Y-66212502D01*
X81570717Y-66462631D01*
X81600893Y-66711151D01*
X81670540Y-66951601D01*
X81670541Y-66951604D01*
X81777859Y-67177772D01*
X81920068Y-67383797D01*
X82093484Y-67564341D01*
X82105245Y-67573179D01*
X82147013Y-67629186D01*
X82151871Y-67698886D01*
X82118276Y-67760149D01*
X82112981Y-67765124D01*
X82003139Y-67862436D01*
X81844809Y-68056353D01*
X81719643Y-68273149D01*
X81630871Y-68507220D01*
X81580797Y-68752502D01*
X81570717Y-69002631D01*
X81600893Y-69251151D01*
X81670540Y-69491601D01*
X81670541Y-69491604D01*
X81777859Y-69717772D01*
X81920068Y-69923797D01*
X82093484Y-70104341D01*
X82105245Y-70113179D01*
X82147013Y-70169186D01*
X82151871Y-70238886D01*
X82118276Y-70300149D01*
X82112981Y-70305124D01*
X82003139Y-70402436D01*
X81844809Y-70596353D01*
X81719643Y-70813149D01*
X81630871Y-71047220D01*
X81580797Y-71292502D01*
X81570717Y-71542631D01*
X81600893Y-71791151D01*
X81655629Y-71980123D01*
X81670541Y-72031604D01*
X81777859Y-72257772D01*
X81883417Y-72410699D01*
X81920068Y-72463797D01*
X82056345Y-72605676D01*
X82093484Y-72644341D01*
X82105245Y-72653179D01*
X82147013Y-72709186D01*
X82151871Y-72778886D01*
X82118276Y-72840149D01*
X82112981Y-72845124D01*
X82003139Y-72942436D01*
X81844809Y-73136353D01*
X81719643Y-73353149D01*
X81630871Y-73587220D01*
X81580797Y-73832502D01*
X81570717Y-74082631D01*
X81600893Y-74331151D01*
X81670540Y-74571601D01*
X81670541Y-74571604D01*
X81777859Y-74797772D01*
X81920068Y-75003797D01*
X82093484Y-75184341D01*
X82105245Y-75193179D01*
X82147013Y-75249186D01*
X82151871Y-75318886D01*
X82118276Y-75380149D01*
X82112981Y-75385124D01*
X82003139Y-75482436D01*
X81844809Y-75676353D01*
X81719643Y-75893149D01*
X81630871Y-76127220D01*
X81580797Y-76372502D01*
X81570717Y-76622631D01*
X81600893Y-76871151D01*
X81638635Y-77001452D01*
X81670541Y-77111604D01*
X81777859Y-77337772D01*
X81865515Y-77464763D01*
X81920068Y-77543797D01*
X82039218Y-77667845D01*
X82093484Y-77724341D01*
X82105245Y-77733179D01*
X82147013Y-77789186D01*
X82151871Y-77858886D01*
X82118276Y-77920149D01*
X82112981Y-77925124D01*
X82003139Y-78022436D01*
X82003138Y-78022437D01*
X81983932Y-78045960D01*
X81844809Y-78216353D01*
X81719643Y-78433149D01*
X81630871Y-78667220D01*
X81580797Y-78912502D01*
X81570717Y-79162631D01*
X81600893Y-79411151D01*
X81670540Y-79651601D01*
X81670541Y-79651604D01*
X81777859Y-79877772D01*
X81920068Y-80083797D01*
X82093484Y-80264341D01*
X82105245Y-80273179D01*
X82147013Y-80329186D01*
X82151871Y-80398886D01*
X82118276Y-80460149D01*
X82112981Y-80465124D01*
X82003139Y-80562436D01*
X81844809Y-80756353D01*
X81719643Y-80973149D01*
X81630871Y-81207220D01*
X81580797Y-81452502D01*
X81570717Y-81702631D01*
X81600893Y-81951151D01*
X81670540Y-82191601D01*
X81670541Y-82191604D01*
X81777859Y-82417772D01*
X81920068Y-82623797D01*
X82093484Y-82804341D01*
X82105245Y-82813179D01*
X82147013Y-82869186D01*
X82151871Y-82938886D01*
X82118276Y-83000149D01*
X82112981Y-83005124D01*
X82003139Y-83102436D01*
X81844809Y-83296353D01*
X81719643Y-83513149D01*
X81630871Y-83747220D01*
X81580797Y-83992502D01*
X81570717Y-84242631D01*
X81600893Y-84491151D01*
X81670540Y-84731601D01*
X81670541Y-84731604D01*
X81777859Y-84957772D01*
X81920067Y-85163797D01*
X81920068Y-85163797D01*
X82091061Y-85341819D01*
X82093484Y-85344341D01*
X82105245Y-85353179D01*
X82147013Y-85409186D01*
X82151871Y-85478886D01*
X82118276Y-85540149D01*
X82112981Y-85545124D01*
X82003139Y-85642436D01*
X81844809Y-85836353D01*
X81719643Y-86053149D01*
X81630871Y-86287220D01*
X81580797Y-86532502D01*
X81570717Y-86782631D01*
X81600893Y-87031151D01*
X81670540Y-87271601D01*
X81670541Y-87271604D01*
X81777859Y-87497772D01*
X81920068Y-87703797D01*
X82093484Y-87884341D01*
X82105245Y-87893179D01*
X82147013Y-87949186D01*
X82151871Y-88018886D01*
X82118276Y-88080149D01*
X82112981Y-88085124D01*
X82003139Y-88182436D01*
X81844809Y-88376353D01*
X81719643Y-88593149D01*
X81630871Y-88827220D01*
X81580797Y-89072502D01*
X81570717Y-89322631D01*
X81600893Y-89571151D01*
X81656806Y-89764184D01*
X81670541Y-89811604D01*
X81777859Y-90037772D01*
X81870456Y-90171921D01*
X81920068Y-90243797D01*
X82089407Y-90420097D01*
X82093484Y-90424341D01*
X82105245Y-90433179D01*
X82147013Y-90489186D01*
X82151871Y-90558886D01*
X82118276Y-90620149D01*
X82112981Y-90625124D01*
X82078685Y-90655508D01*
X82003138Y-90722437D01*
X81974910Y-90757010D01*
X81844809Y-90916353D01*
X81719643Y-91133149D01*
X81630871Y-91367220D01*
X81580797Y-91612502D01*
X81570717Y-91862631D01*
X81600893Y-92111151D01*
X81659807Y-92314546D01*
X81670541Y-92351604D01*
X81777859Y-92577772D01*
X81891688Y-92742682D01*
X81906028Y-92763456D01*
X81927911Y-92829810D01*
X81910446Y-92897462D01*
X81869076Y-92939434D01*
X81856342Y-92947288D01*
X81732288Y-93071342D01*
X81640186Y-93220665D01*
X81585000Y-93387202D01*
X81574819Y-93486858D01*
X81574817Y-93486878D01*
X81574500Y-93489991D01*
X81574500Y-93493138D01*
X81574500Y-93493139D01*
X81574500Y-95186859D01*
X81574500Y-95186878D01*
X81574501Y-95190008D01*
X81574820Y-95193140D01*
X81574821Y-95193141D01*
X81585000Y-95292796D01*
X81640186Y-95459334D01*
X81732288Y-95608657D01*
X81856342Y-95732711D01*
X81879108Y-95746753D01*
X82005666Y-95824814D01*
X82117017Y-95861712D01*
X82172202Y-95879999D01*
X82271858Y-95890180D01*
X82271859Y-95890180D01*
X82274991Y-95890500D01*
X84590440Y-95890499D01*
X84657479Y-95910184D01*
X84703234Y-95962987D01*
X84713178Y-96032146D01*
X84684153Y-96095702D01*
X84678124Y-96102178D01*
X84660124Y-96120179D01*
X84598801Y-96153665D01*
X84572440Y-96156500D01*
X81035559Y-96156500D01*
X80968520Y-96136815D01*
X80947878Y-96120181D01*
X80663819Y-95836122D01*
X80630334Y-95774799D01*
X80627500Y-95748441D01*
X80627500Y-84178331D01*
X80629217Y-84157765D01*
X80629740Y-84154657D01*
X80627535Y-84062042D01*
X80627500Y-84059090D01*
X80627500Y-84023328D01*
X80627500Y-84020382D01*
X80626646Y-84011445D01*
X80626120Y-84002625D01*
X80624624Y-83939774D01*
X80617597Y-83907476D01*
X80615328Y-83892926D01*
X80612188Y-83860029D01*
X80594475Y-83799705D01*
X80592298Y-83791176D01*
X80578934Y-83729741D01*
X80565924Y-83699363D01*
X80560941Y-83685503D01*
X80551631Y-83653791D01*
X80522833Y-83597933D01*
X80519071Y-83589950D01*
X80494321Y-83532151D01*
X80475795Y-83504779D01*
X80468278Y-83492109D01*
X80453138Y-83462741D01*
X80414288Y-83413338D01*
X80409070Y-83406191D01*
X80373843Y-83354144D01*
X80350480Y-83330781D01*
X80340691Y-83319753D01*
X80338990Y-83317590D01*
X80320268Y-83293783D01*
X80320265Y-83293780D01*
X80320264Y-83293779D01*
X80272766Y-83252621D01*
X80266288Y-83246590D01*
X78566787Y-81547090D01*
X78534694Y-81491504D01*
X78489903Y-81324337D01*
X78390035Y-81110171D01*
X78254495Y-80916599D01*
X78087401Y-80749505D01*
X77893830Y-80613965D01*
X77679663Y-80514097D01*
X77618501Y-80497709D01*
X77451407Y-80452936D01*
X77215999Y-80432340D01*
X76980592Y-80452936D01*
X76752336Y-80514097D01*
X76538170Y-80613965D01*
X76344598Y-80749505D01*
X76177505Y-80916598D01*
X76041965Y-81110170D01*
X75942097Y-81324336D01*
X75880936Y-81552592D01*
X75860340Y-81787999D01*
X75880936Y-82023407D01*
X75894166Y-82072780D01*
X75942097Y-82251663D01*
X76041965Y-82465830D01*
X76177505Y-82659401D01*
X76344599Y-82826495D01*
X76538170Y-82962035D01*
X76752337Y-83061903D01*
X76919502Y-83106694D01*
X76975089Y-83138787D01*
X78340181Y-84503878D01*
X78373666Y-84565201D01*
X78376500Y-84591559D01*
X78376500Y-96161667D01*
X78374783Y-96182231D01*
X78374259Y-96185341D01*
X78376465Y-96277956D01*
X78376500Y-96280908D01*
X78376500Y-96319618D01*
X78376780Y-96322552D01*
X78376781Y-96322572D01*
X78377353Y-96328562D01*
X78377879Y-96337387D01*
X78379376Y-96400227D01*
X78386399Y-96432511D01*
X78388670Y-96447069D01*
X78391161Y-96473157D01*
X78391812Y-96479973D01*
X78409518Y-96540277D01*
X78411706Y-96548848D01*
X78425066Y-96610258D01*
X78431797Y-96625976D01*
X78438073Y-96640632D01*
X78443061Y-96654509D01*
X78452369Y-96686210D01*
X78481171Y-96742079D01*
X78484943Y-96750085D01*
X78509679Y-96807849D01*
X78528197Y-96835210D01*
X78535721Y-96847891D01*
X78550861Y-96877259D01*
X78589711Y-96926660D01*
X78594932Y-96933810D01*
X78630157Y-96985856D01*
X78653519Y-97009218D01*
X78663307Y-97020246D01*
X78683729Y-97046214D01*
X78731232Y-97087376D01*
X78737710Y-97093408D01*
X79648374Y-98004071D01*
X79661700Y-98019824D01*
X79663534Y-98022399D01*
X79730617Y-98086362D01*
X79732687Y-98088384D01*
X79760065Y-98115762D01*
X79762336Y-98117637D01*
X79762337Y-98117638D01*
X79766991Y-98121481D01*
X79773608Y-98127354D01*
X79819097Y-98170727D01*
X79846892Y-98188590D01*
X79858791Y-98197277D01*
X79884279Y-98218322D01*
X79908752Y-98231685D01*
X79939441Y-98248443D01*
X79947054Y-98252960D01*
X79951475Y-98255801D01*
X79999920Y-98286935D01*
X80027493Y-98297973D01*
X80030587Y-98299212D01*
X80043929Y-98305498D01*
X80072927Y-98321332D01*
X80072931Y-98321334D01*
X80132815Y-98340476D01*
X80141120Y-98343463D01*
X80199464Y-98366821D01*
X80199466Y-98366821D01*
X80199468Y-98366822D01*
X80231914Y-98373074D01*
X80246197Y-98376721D01*
X80277669Y-98386782D01*
X80340089Y-98394244D01*
X80348799Y-98395602D01*
X80410528Y-98407500D01*
X80443562Y-98407500D01*
X80458282Y-98408376D01*
X80491094Y-98412300D01*
X80553789Y-98407815D01*
X80562635Y-98407500D01*
X84985667Y-98407500D01*
X85006232Y-98409217D01*
X85009342Y-98409740D01*
X85101957Y-98407534D01*
X85104908Y-98407500D01*
X85140672Y-98407500D01*
X85143618Y-98407500D01*
X85152559Y-98406645D01*
X85161373Y-98406120D01*
X85224226Y-98404624D01*
X85256520Y-98397598D01*
X85271074Y-98395328D01*
X85303971Y-98392188D01*
X85364282Y-98374478D01*
X85372852Y-98372292D01*
X85434254Y-98358935D01*
X85434254Y-98358934D01*
X85434258Y-98358934D01*
X85464639Y-98345923D01*
X85478493Y-98340943D01*
X85510209Y-98331631D01*
X85566075Y-98302829D01*
X85574082Y-98299057D01*
X85631849Y-98274321D01*
X85659221Y-98255794D01*
X85671881Y-98248282D01*
X85701259Y-98233138D01*
X85750681Y-98194270D01*
X85757800Y-98189074D01*
X85809855Y-98153843D01*
X85833217Y-98130479D01*
X85844238Y-98120696D01*
X85870217Y-98100268D01*
X85911377Y-98052765D01*
X85917396Y-98046300D01*
X89114078Y-94849617D01*
X89129828Y-94836296D01*
X89132399Y-94834466D01*
X89196363Y-94767380D01*
X89198387Y-94765309D01*
X89223675Y-94740022D01*
X89223675Y-94740021D01*
X89225762Y-94737935D01*
X89231473Y-94731018D01*
X89237357Y-94724388D01*
X89280724Y-94678906D01*
X89280723Y-94678906D01*
X89280727Y-94678903D01*
X89298595Y-94651099D01*
X89307282Y-94639202D01*
X89328322Y-94613721D01*
X89338017Y-94595963D01*
X89359167Y-94567710D01*
X91940506Y-91986371D01*
X91996090Y-91954280D01*
X92163258Y-91909489D01*
X92377425Y-91809621D01*
X92570996Y-91674081D01*
X92738090Y-91506987D01*
X92873630Y-91313416D01*
X92973498Y-91099249D01*
X93034658Y-90870994D01*
X93055254Y-90635586D01*
X93054164Y-90623133D01*
X93034658Y-90400178D01*
X93017881Y-90337566D01*
X92973498Y-90171923D01*
X92873630Y-89957757D01*
X92738090Y-89764185D01*
X92570996Y-89597091D01*
X92377425Y-89461551D01*
X92163258Y-89361683D01*
X92102097Y-89345295D01*
X91935002Y-89300522D01*
X91699595Y-89279926D01*
X91464187Y-89300522D01*
X91235931Y-89361683D01*
X91021765Y-89461551D01*
X90828193Y-89597091D01*
X90661100Y-89764184D01*
X90525560Y-89957756D01*
X90425692Y-90171921D01*
X90380900Y-90339089D01*
X90348806Y-90394676D01*
X87669924Y-93073558D01*
X87654181Y-93086877D01*
X87651602Y-93088713D01*
X87587675Y-93155757D01*
X87585617Y-93157864D01*
X87560326Y-93183156D01*
X87560306Y-93183177D01*
X87558238Y-93185246D01*
X87556376Y-93187500D01*
X87556364Y-93187514D01*
X87552512Y-93192179D01*
X87546655Y-93198777D01*
X87503272Y-93244278D01*
X87485405Y-93272078D01*
X87476716Y-93283978D01*
X87455677Y-93309460D01*
X87445978Y-93327222D01*
X87424830Y-93355470D01*
X85687180Y-95093120D01*
X85625857Y-95126605D01*
X85556165Y-95121621D01*
X85500232Y-95079749D01*
X85475815Y-95014285D01*
X85475499Y-95005463D01*
X85475499Y-93489992D01*
X85464999Y-93387203D01*
X85409814Y-93220666D01*
X85341251Y-93109507D01*
X85317711Y-93071342D01*
X85193657Y-92947288D01*
X85178647Y-92938030D01*
X85131922Y-92886082D01*
X85120699Y-92817120D01*
X85147692Y-92754068D01*
X85205188Y-92683650D01*
X85330357Y-92466850D01*
X85419128Y-92232780D01*
X85469202Y-91987500D01*
X85479282Y-91737365D01*
X85449107Y-91488851D01*
X85379459Y-91248396D01*
X85272141Y-91022228D01*
X85129932Y-90816203D01*
X84956516Y-90635659D01*
X84944753Y-90626820D01*
X84902986Y-90570812D01*
X84898128Y-90501112D01*
X84931724Y-90439850D01*
X84936993Y-90434897D01*
X85046862Y-90337563D01*
X85205188Y-90143650D01*
X85330357Y-89926850D01*
X85419128Y-89692780D01*
X85469202Y-89447500D01*
X85479282Y-89197365D01*
X85449107Y-88948851D01*
X85379459Y-88708396D01*
X85272141Y-88482228D01*
X85129932Y-88276203D01*
X84956516Y-88095659D01*
X84944753Y-88086820D01*
X84902986Y-88030812D01*
X84898128Y-87961112D01*
X84931724Y-87899850D01*
X84936993Y-87894897D01*
X85046862Y-87797563D01*
X85205188Y-87603650D01*
X85330357Y-87386850D01*
X85419128Y-87152780D01*
X85469202Y-86907500D01*
X85479282Y-86657365D01*
X85449107Y-86408851D01*
X85379459Y-86168396D01*
X85272141Y-85942228D01*
X85129932Y-85736203D01*
X84956516Y-85555659D01*
X84944751Y-85546818D01*
X84902984Y-85490808D01*
X84898129Y-85421107D01*
X84931727Y-85359846D01*
X84936991Y-85354899D01*
X84957555Y-85336681D01*
X85020790Y-85306963D01*
X85039779Y-85305500D01*
X90710242Y-85305500D01*
X90777281Y-85325185D01*
X90797923Y-85341819D01*
X90822599Y-85366495D01*
X91016170Y-85502035D01*
X91230337Y-85601903D01*
X91458592Y-85663062D01*
X91458592Y-85663063D01*
X91693999Y-85683659D01*
X91693999Y-85683658D01*
X91694000Y-85683659D01*
X91929408Y-85663063D01*
X92157663Y-85601903D01*
X92371830Y-85502035D01*
X92565401Y-85366495D01*
X92732495Y-85199401D01*
X92868035Y-85005830D01*
X92967903Y-84791663D01*
X93029063Y-84563408D01*
X93049659Y-84328000D01*
X93035658Y-84167977D01*
X93029063Y-84092592D01*
X93010504Y-84023328D01*
X92967903Y-83864337D01*
X92868035Y-83650171D01*
X92732495Y-83456599D01*
X92565401Y-83289505D01*
X92371830Y-83153965D01*
X92157663Y-83054097D01*
X92085701Y-83034815D01*
X91929407Y-82992936D01*
X91693999Y-82972340D01*
X91458593Y-82992936D01*
X91333150Y-83026548D01*
X91244599Y-83050275D01*
X91212509Y-83054500D01*
X85046655Y-83054500D01*
X84979616Y-83034815D01*
X84957227Y-83016399D01*
X84956518Y-83015661D01*
X84956517Y-83015660D01*
X84956516Y-83015659D01*
X84944754Y-83006820D01*
X84902986Y-82950813D01*
X84898128Y-82881113D01*
X84931723Y-82819850D01*
X84936993Y-82814897D01*
X85046862Y-82717563D01*
X85205188Y-82523650D01*
X85330357Y-82306850D01*
X85419128Y-82072780D01*
X85469202Y-81827500D01*
X85479282Y-81577365D01*
X85449107Y-81328851D01*
X85379459Y-81088396D01*
X85272141Y-80862228D01*
X85129932Y-80656203D01*
X84956516Y-80475659D01*
X84944753Y-80466820D01*
X84902986Y-80410812D01*
X84898128Y-80341112D01*
X84931724Y-80279850D01*
X84936993Y-80274897D01*
X85046862Y-80177563D01*
X85205188Y-79983650D01*
X85330357Y-79766850D01*
X85419128Y-79532780D01*
X85469202Y-79287500D01*
X85479282Y-79037365D01*
X85449107Y-78788851D01*
X85379459Y-78548396D01*
X85272141Y-78322228D01*
X85129932Y-78116203D01*
X84956516Y-77935659D01*
X84944753Y-77926820D01*
X84902986Y-77870812D01*
X84898128Y-77801112D01*
X84931724Y-77739850D01*
X84936993Y-77734897D01*
X85046862Y-77637563D01*
X85205188Y-77443650D01*
X85330357Y-77226850D01*
X85419128Y-76992780D01*
X85469202Y-76747500D01*
X85479282Y-76497365D01*
X85449107Y-76248851D01*
X85379459Y-76008396D01*
X85272141Y-75782228D01*
X85129932Y-75576203D01*
X84956516Y-75395659D01*
X84944753Y-75386820D01*
X84902986Y-75330812D01*
X84898128Y-75261112D01*
X84931724Y-75199850D01*
X84936993Y-75194897D01*
X85046862Y-75097563D01*
X85205188Y-74903650D01*
X85330357Y-74686850D01*
X85419128Y-74452780D01*
X85469202Y-74207500D01*
X85479282Y-73957365D01*
X85449107Y-73708851D01*
X85379459Y-73468396D01*
X85272141Y-73242228D01*
X85129932Y-73036203D01*
X84956516Y-72855659D01*
X84944753Y-72846820D01*
X84902986Y-72790812D01*
X84898128Y-72721112D01*
X84931724Y-72659850D01*
X84936993Y-72654897D01*
X85046862Y-72557563D01*
X85205188Y-72363650D01*
X85330357Y-72146850D01*
X85419128Y-71912780D01*
X85469202Y-71667500D01*
X85479282Y-71417365D01*
X85449107Y-71168851D01*
X85379459Y-70928396D01*
X85272141Y-70702228D01*
X85129932Y-70496203D01*
X84956516Y-70315659D01*
X84944753Y-70306820D01*
X84902986Y-70250812D01*
X84898128Y-70181112D01*
X84931724Y-70119850D01*
X84936993Y-70114897D01*
X85046862Y-70017563D01*
X85205188Y-69823650D01*
X85330357Y-69606850D01*
X85419128Y-69372780D01*
X85469202Y-69127500D01*
X85479282Y-68877365D01*
X85449107Y-68628851D01*
X85379459Y-68388396D01*
X85272141Y-68162228D01*
X85129932Y-67956203D01*
X84956516Y-67775659D01*
X84944753Y-67766820D01*
X84902986Y-67710812D01*
X84898128Y-67641112D01*
X84931724Y-67579850D01*
X84936993Y-67574897D01*
X85046862Y-67477563D01*
X85205188Y-67283650D01*
X85330357Y-67066850D01*
X85419128Y-66832780D01*
X85469202Y-66587500D01*
X85479282Y-66337365D01*
X85449107Y-66088851D01*
X85379459Y-65848396D01*
X85272141Y-65622228D01*
X85129932Y-65416203D01*
X84956516Y-65235659D01*
X84944753Y-65226820D01*
X84902986Y-65170812D01*
X84898128Y-65101112D01*
X84931724Y-65039850D01*
X84936993Y-65034897D01*
X85046862Y-64937563D01*
X85205188Y-64743650D01*
X85330357Y-64526850D01*
X85419128Y-64292780D01*
X85469202Y-64047500D01*
X85479282Y-63797365D01*
X85449107Y-63548851D01*
X85379459Y-63308396D01*
X85272141Y-63082228D01*
X85129932Y-62876203D01*
X84956516Y-62695659D01*
X84944753Y-62686820D01*
X84902986Y-62630812D01*
X84898128Y-62561112D01*
X84931724Y-62499850D01*
X84936993Y-62494897D01*
X85046862Y-62397563D01*
X85205188Y-62203650D01*
X85330357Y-61986850D01*
X85419128Y-61752780D01*
X85469202Y-61507500D01*
X85479282Y-61257365D01*
X85449107Y-61008851D01*
X85379459Y-60768396D01*
X85272141Y-60542228D01*
X85129932Y-60336203D01*
X84956516Y-60155659D01*
X84944753Y-60146820D01*
X84902986Y-60090812D01*
X84898128Y-60021112D01*
X84931724Y-59959850D01*
X84936993Y-59954897D01*
X85046862Y-59857563D01*
X85205188Y-59663650D01*
X85330357Y-59446850D01*
X85419128Y-59212780D01*
X85469202Y-58967500D01*
X85479282Y-58717365D01*
X85449107Y-58468851D01*
X85379459Y-58228396D01*
X85272141Y-58002228D01*
X85129932Y-57796203D01*
X84956516Y-57615659D01*
X84944753Y-57606820D01*
X84902986Y-57550812D01*
X84898128Y-57481112D01*
X84931724Y-57419850D01*
X84936993Y-57414897D01*
X85046862Y-57317563D01*
X85205188Y-57123650D01*
X85330357Y-56906850D01*
X85419128Y-56672780D01*
X85469202Y-56427500D01*
X85479282Y-56177365D01*
X85449107Y-55928851D01*
X85379459Y-55688396D01*
X85272141Y-55462228D01*
X85129932Y-55256203D01*
X84956516Y-55075659D01*
X84944753Y-55066820D01*
X84902986Y-55010812D01*
X84898128Y-54941112D01*
X84931724Y-54879850D01*
X84936993Y-54874897D01*
X85046862Y-54777563D01*
X85205188Y-54583650D01*
X85330357Y-54366850D01*
X85419128Y-54132780D01*
X85469202Y-53887500D01*
X85479282Y-53637365D01*
X85449107Y-53388851D01*
X85379459Y-53148396D01*
X85272141Y-52922228D01*
X85129932Y-52716203D01*
X85037908Y-52620396D01*
X85005666Y-52558413D01*
X85012052Y-52488836D01*
X85055041Y-52433757D01*
X85120984Y-52410663D01*
X85127338Y-52410500D01*
X86912664Y-52410500D01*
X86979703Y-52430185D01*
X87000345Y-52446819D01*
X87613181Y-53059654D01*
X87646666Y-53120977D01*
X87649500Y-53147335D01*
X87649499Y-71804814D01*
X87648720Y-71818696D01*
X87644761Y-71853829D01*
X87649219Y-71919931D01*
X87649500Y-71928273D01*
X87649500Y-71938155D01*
X87649747Y-71940900D01*
X87649748Y-71940921D01*
X87653153Y-71978749D01*
X87653371Y-71981521D01*
X87659904Y-72078414D01*
X87660973Y-72082657D01*
X87664229Y-72101820D01*
X87664622Y-72106185D01*
X87690465Y-72199824D01*
X87691158Y-72202447D01*
X87705099Y-72257772D01*
X87714904Y-72296684D01*
X87716712Y-72300664D01*
X87723342Y-72318950D01*
X87724506Y-72323168D01*
X87766657Y-72410699D01*
X87767835Y-72413217D01*
X87807992Y-72501625D01*
X87810483Y-72505220D01*
X87820271Y-72522029D01*
X87822170Y-72525974D01*
X87879258Y-72604548D01*
X87880868Y-72606817D01*
X87936178Y-72686652D01*
X87939268Y-72689742D01*
X87951905Y-72704537D01*
X87954478Y-72708078D01*
X87954479Y-72708079D01*
X88024699Y-72775216D01*
X88026688Y-72777162D01*
X93455181Y-78205655D01*
X93488666Y-78266978D01*
X93491500Y-78293336D01*
X93491500Y-91632663D01*
X93471815Y-91699702D01*
X93455181Y-91720344D01*
X89848343Y-95327181D01*
X89837980Y-95336443D01*
X89810335Y-95358491D01*
X89766736Y-95408391D01*
X89761052Y-95414472D01*
X89756024Y-95419501D01*
X89756015Y-95419510D01*
X89754055Y-95421471D01*
X89752280Y-95423596D01*
X89752269Y-95423609D01*
X89727929Y-95452763D01*
X89726124Y-95454876D01*
X89662235Y-95528003D01*
X89659986Y-95531767D01*
X89648739Y-95547617D01*
X89645932Y-95550979D01*
X89597978Y-95635490D01*
X89596604Y-95637849D01*
X89547719Y-95719671D01*
X89546782Y-95721241D01*
X89545246Y-95725335D01*
X89537009Y-95742944D01*
X89534847Y-95746753D01*
X89502762Y-95838444D01*
X89501814Y-95841057D01*
X89467691Y-95931978D01*
X89466910Y-95936282D01*
X89461950Y-95955077D01*
X89460501Y-95959217D01*
X89445304Y-96055166D01*
X89444838Y-96057907D01*
X89427500Y-96153450D01*
X89427500Y-96157829D01*
X89425973Y-96177227D01*
X89425290Y-96181537D01*
X89427469Y-96278639D01*
X89427500Y-96281421D01*
X89427500Y-103570663D01*
X89407815Y-103637702D01*
X89391181Y-103658344D01*
X85853884Y-107195640D01*
X85818609Y-107220340D01*
X85682173Y-107283963D01*
X85488598Y-107419505D01*
X85321505Y-107586598D01*
X85185963Y-107780173D01*
X85122340Y-107916609D01*
X85097640Y-107951884D01*
X84074942Y-108974582D01*
X84013619Y-109008067D01*
X83943927Y-109003083D01*
X83887994Y-108961211D01*
X83867486Y-108918994D01*
X83823903Y-108756337D01*
X83724035Y-108542171D01*
X83588495Y-108348599D01*
X83421401Y-108181505D01*
X83227830Y-108045965D01*
X83013663Y-107946097D01*
X82952501Y-107929709D01*
X82785407Y-107884936D01*
X82550000Y-107864340D01*
X82314592Y-107884936D01*
X82086336Y-107946097D01*
X81872170Y-108045965D01*
X81678598Y-108181505D01*
X81511505Y-108348598D01*
X81375965Y-108542170D01*
X81276097Y-108756335D01*
X81231305Y-108923503D01*
X81199211Y-108979090D01*
X78056122Y-112122181D01*
X77994799Y-112155666D01*
X77968441Y-112158500D01*
X76304333Y-112158500D01*
X76283768Y-112156783D01*
X76280657Y-112156259D01*
X76189987Y-112158418D01*
X76188042Y-112158465D01*
X76185092Y-112158500D01*
X76146382Y-112158500D01*
X76143449Y-112158779D01*
X76143447Y-112158780D01*
X76141865Y-112158931D01*
X76137428Y-112159354D01*
X76128613Y-112159879D01*
X76065773Y-112161376D01*
X76044687Y-112165962D01*
X76033487Y-112168399D01*
X76018931Y-112170669D01*
X75986029Y-112173812D01*
X75986026Y-112173812D01*
X75986024Y-112173813D01*
X75925720Y-112191518D01*
X75917151Y-112193705D01*
X75855744Y-112207065D01*
X75825368Y-112220072D01*
X75811497Y-112225058D01*
X75779791Y-112234368D01*
X75723929Y-112263167D01*
X75715924Y-112266939D01*
X75658150Y-112291679D01*
X75630787Y-112310199D01*
X75618108Y-112317722D01*
X75588740Y-112332862D01*
X75539333Y-112371715D01*
X75532189Y-112376931D01*
X75480147Y-112412155D01*
X75456780Y-112435522D01*
X75445760Y-112445302D01*
X75430657Y-112457180D01*
X75419781Y-112465733D01*
X75378615Y-112513240D01*
X75372585Y-112519716D01*
X74489181Y-113403120D01*
X74427858Y-113436605D01*
X74358166Y-113431621D01*
X74302233Y-113389749D01*
X74277816Y-113324285D01*
X74277500Y-113315439D01*
X74277500Y-110245558D01*
X74297185Y-110178519D01*
X74313815Y-110157881D01*
X75144078Y-109327617D01*
X75159828Y-109314296D01*
X75162399Y-109312466D01*
X75226363Y-109245380D01*
X75228387Y-109243309D01*
X75253675Y-109218022D01*
X75253675Y-109218021D01*
X75255762Y-109215935D01*
X75258695Y-109212382D01*
X75261473Y-109209018D01*
X75267357Y-109202388D01*
X75310724Y-109156906D01*
X75310723Y-109156906D01*
X75310727Y-109156903D01*
X75328595Y-109129099D01*
X75337282Y-109117202D01*
X75358322Y-109091721D01*
X75388452Y-109036539D01*
X75392942Y-109028972D01*
X75426935Y-108976080D01*
X75439220Y-108945389D01*
X75445495Y-108932074D01*
X75461334Y-108903069D01*
X75480471Y-108843197D01*
X75483464Y-108834874D01*
X75488766Y-108821631D01*
X75506822Y-108776532D01*
X75513077Y-108744071D01*
X75516718Y-108729807D01*
X75526781Y-108698331D01*
X75534241Y-108635929D01*
X75535605Y-108627187D01*
X75547500Y-108565472D01*
X75547500Y-108532429D01*
X75548377Y-108517707D01*
X75552299Y-108484905D01*
X75547816Y-108422221D01*
X75547500Y-108413375D01*
X75547500Y-107320201D01*
X75567185Y-107253162D01*
X75619989Y-107207407D01*
X75689147Y-107197463D01*
X75752703Y-107226488D01*
X75790477Y-107285266D01*
X75791696Y-107289726D01*
X75815834Y-107385039D01*
X75820410Y-107403110D01*
X75837469Y-107442000D01*
X75918301Y-107626279D01*
X76051592Y-107830295D01*
X76200269Y-107991802D01*
X76216647Y-108009593D01*
X76263377Y-108045964D01*
X76408956Y-108159273D01*
X76623282Y-108275260D01*
X76853776Y-108354389D01*
X77094151Y-108394500D01*
X77337849Y-108394500D01*
X77578224Y-108354389D01*
X77808718Y-108275260D01*
X78023044Y-108159273D01*
X78215356Y-108009590D01*
X78380408Y-107830295D01*
X78513699Y-107626279D01*
X78611591Y-107403107D01*
X78671416Y-107166866D01*
X78691540Y-106924000D01*
X78671416Y-106681134D01*
X78611591Y-106444893D01*
X78513699Y-106221721D01*
X78380408Y-106017705D01*
X78215356Y-105838410D01*
X78104148Y-105751853D01*
X78063335Y-105695143D01*
X78059661Y-105625370D01*
X78094293Y-105564687D01*
X78104148Y-105556147D01*
X78127296Y-105538130D01*
X78215356Y-105469590D01*
X78380408Y-105290295D01*
X78513699Y-105086279D01*
X78611591Y-104863107D01*
X78671416Y-104626866D01*
X78691540Y-104384000D01*
X78671416Y-104141134D01*
X78611591Y-103904893D01*
X78513699Y-103681721D01*
X78380408Y-103477705D01*
X78215356Y-103298410D01*
X78104148Y-103211853D01*
X78063335Y-103155143D01*
X78059661Y-103085370D01*
X78094293Y-103024687D01*
X78104148Y-103016147D01*
X78139152Y-102988902D01*
X78215356Y-102929590D01*
X78380408Y-102750295D01*
X78513699Y-102546279D01*
X78611591Y-102323107D01*
X78671416Y-102086866D01*
X78691540Y-101844000D01*
X78671416Y-101601134D01*
X78611591Y-101364893D01*
X78513699Y-101141721D01*
X78380408Y-100937705D01*
X78215356Y-100758410D01*
X78215354Y-100758409D01*
X78215352Y-100758406D01*
X78053206Y-100632203D01*
X78023044Y-100608727D01*
X77808718Y-100492740D01*
X77808717Y-100492739D01*
X77808716Y-100492739D01*
X77578225Y-100413611D01*
X77337849Y-100373500D01*
X77094151Y-100373500D01*
X76853774Y-100413611D01*
X76623283Y-100492739D01*
X76505554Y-100556450D01*
X76408956Y-100608727D01*
X76408954Y-100608728D01*
X76408953Y-100608729D01*
X76216647Y-100758406D01*
X76051593Y-100937704D01*
X75918300Y-101141723D01*
X75820408Y-101364895D01*
X75791705Y-101478239D01*
X75756166Y-101538394D01*
X75693745Y-101569786D01*
X75624262Y-101562448D01*
X75569777Y-101518709D01*
X75547588Y-101452456D01*
X75547500Y-101447798D01*
X75547500Y-92480242D01*
X75567185Y-92413203D01*
X75569925Y-92409119D01*
X75574915Y-92401992D01*
X75596035Y-92371830D01*
X75695903Y-92157663D01*
X75757063Y-91929408D01*
X75777659Y-91694000D01*
X75757063Y-91458592D01*
X75695903Y-91230337D01*
X75596035Y-91016171D01*
X75460495Y-90822599D01*
X75293401Y-90655505D01*
X75099830Y-90519965D01*
X74885663Y-90420097D01*
X74824502Y-90403709D01*
X74657407Y-90358936D01*
X74421999Y-90338340D01*
X74186592Y-90358936D01*
X73958336Y-90420097D01*
X73744170Y-90519965D01*
X73550598Y-90655505D01*
X73383505Y-90822598D01*
X73247965Y-91016170D01*
X73148097Y-91230336D01*
X73086936Y-91458592D01*
X73066340Y-91693999D01*
X73086936Y-91929407D01*
X73131709Y-92096502D01*
X73148097Y-92157663D01*
X73231403Y-92336313D01*
X73247965Y-92371830D01*
X73274075Y-92409119D01*
X73296402Y-92475325D01*
X73296500Y-92480242D01*
X73296500Y-103650162D01*
X73276815Y-103717201D01*
X73224011Y-103762956D01*
X73154853Y-103772900D01*
X73091297Y-103743875D01*
X73053523Y-103685097D01*
X73051926Y-103679110D01*
X73051873Y-103678889D01*
X72955466Y-103446141D01*
X72823836Y-103231341D01*
X72671230Y-103052663D01*
X72642660Y-102988902D01*
X72653097Y-102919817D01*
X72691211Y-102872865D01*
X72732187Y-102842190D01*
X72818352Y-102727089D01*
X72868599Y-102592371D01*
X72874645Y-102536132D01*
X72875000Y-102529518D01*
X72875000Y-101885000D01*
X71958686Y-101885000D01*
X71984493Y-101844844D01*
X72025000Y-101706889D01*
X72025000Y-101563111D01*
X71984493Y-101425156D01*
X71958686Y-101385000D01*
X72875000Y-101385000D01*
X72875000Y-100740481D01*
X72874645Y-100733867D01*
X72868599Y-100677628D01*
X72818352Y-100542910D01*
X72732188Y-100427811D01*
X72617089Y-100341647D01*
X72482371Y-100291400D01*
X72426132Y-100285354D01*
X72419518Y-100285000D01*
X71775000Y-100285000D01*
X71775000Y-101199498D01*
X71667315Y-101150320D01*
X71560763Y-101135000D01*
X71489237Y-101135000D01*
X71382685Y-101150320D01*
X71275000Y-101199498D01*
X71275000Y-100285000D01*
X70630482Y-100285000D01*
X70623867Y-100285354D01*
X70567628Y-100291400D01*
X70432910Y-100341647D01*
X70317811Y-100427811D01*
X70231647Y-100542910D01*
X70181400Y-100677628D01*
X70175354Y-100733867D01*
X70175000Y-100740481D01*
X70175000Y-101385000D01*
X71091314Y-101385000D01*
X71065507Y-101425156D01*
X71025000Y-101563111D01*
X71025000Y-101706889D01*
X71065507Y-101844844D01*
X71091314Y-101885000D01*
X70175000Y-101885000D01*
X70175000Y-102529518D01*
X70175354Y-102536132D01*
X70181400Y-102592371D01*
X70231647Y-102727089D01*
X70317811Y-102842189D01*
X70358789Y-102872865D01*
X70400660Y-102928799D01*
X70405644Y-102998491D01*
X70378769Y-103052663D01*
X70226162Y-103231342D01*
X70094535Y-103446139D01*
X69998126Y-103678889D01*
X69939317Y-103923850D01*
X69919551Y-104174999D01*
X69939317Y-104426149D01*
X69998126Y-104671110D01*
X70043313Y-104780201D01*
X70094534Y-104903859D01*
X70226164Y-105118659D01*
X70389776Y-105310224D01*
X70437179Y-105350710D01*
X70475372Y-105409215D01*
X70475871Y-105479083D01*
X70438517Y-105538130D01*
X70437179Y-105539289D01*
X70389772Y-105579778D01*
X70226165Y-105771338D01*
X70094535Y-105986139D01*
X69998126Y-106218889D01*
X69939317Y-106463850D01*
X69919551Y-106715000D01*
X69939317Y-106966149D01*
X69998126Y-107211110D01*
X70015545Y-107253162D01*
X70094534Y-107443859D01*
X70226164Y-107658659D01*
X70389776Y-107850224D01*
X70581341Y-108013836D01*
X70796141Y-108145466D01*
X71028889Y-108241873D01*
X71273852Y-108300683D01*
X71525000Y-108320449D01*
X71776148Y-108300683D01*
X72021111Y-108241873D01*
X72253859Y-108145466D01*
X72468659Y-108013836D01*
X72660224Y-107850224D01*
X72823836Y-107658659D01*
X72955466Y-107443859D01*
X73051873Y-107211111D01*
X73051926Y-107210892D01*
X73052061Y-107210655D01*
X73055608Y-107202094D01*
X73056714Y-107202552D01*
X73086715Y-107150299D01*
X73148741Y-107118134D01*
X73218310Y-107124609D01*
X73273335Y-107167668D01*
X73296345Y-107233640D01*
X73296500Y-107239837D01*
X73296500Y-107940440D01*
X73276815Y-108007479D01*
X73260181Y-108028121D01*
X72429924Y-108858377D01*
X72414181Y-108871696D01*
X72411602Y-108873532D01*
X72347675Y-108940576D01*
X72345617Y-108942683D01*
X72320326Y-108967975D01*
X72320306Y-108967996D01*
X72318238Y-108970065D01*
X72316376Y-108972319D01*
X72316364Y-108972333D01*
X72312512Y-108976998D01*
X72306655Y-108983596D01*
X72263272Y-109029097D01*
X72245405Y-109056897D01*
X72236715Y-109068797D01*
X72215679Y-109094276D01*
X72185556Y-109149441D01*
X72181041Y-109157051D01*
X72147063Y-109209922D01*
X72134782Y-109240597D01*
X72128499Y-109253932D01*
X72112665Y-109282930D01*
X72093524Y-109342805D01*
X72090532Y-109351129D01*
X72067178Y-109409467D01*
X72060925Y-109441911D01*
X72057280Y-109456189D01*
X72047218Y-109487669D01*
X72047218Y-109487671D01*
X72039755Y-109550084D01*
X72038391Y-109558828D01*
X72026500Y-109620526D01*
X72026500Y-109653561D01*
X72025623Y-109668283D01*
X72021699Y-109701094D01*
X72026184Y-109763787D01*
X72026500Y-109772634D01*
X72026500Y-118117513D01*
X72006815Y-118184552D01*
X71954011Y-118230307D01*
X71884853Y-118240251D01*
X71821297Y-118211226D01*
X71808210Y-118198045D01*
X71734828Y-118112126D01*
X71660224Y-118024776D01*
X71468659Y-117861164D01*
X71253859Y-117729534D01*
X71137485Y-117681330D01*
X71021110Y-117633126D01*
X70776149Y-117574317D01*
X70650574Y-117564434D01*
X70525000Y-117554551D01*
X70524999Y-117554551D01*
X70273850Y-117574317D01*
X70028889Y-117633126D01*
X69796139Y-117729535D01*
X69581338Y-117861165D01*
X69389777Y-118024773D01*
X69348215Y-118073436D01*
X69289708Y-118111628D01*
X69219840Y-118112126D01*
X69166244Y-118080584D01*
X69053342Y-117967681D01*
X68904122Y-117875642D01*
X68737696Y-117820493D01*
X68638109Y-117810319D01*
X68631832Y-117810000D01*
X68235000Y-117810000D01*
X68235000Y-118724498D01*
X68127315Y-118675320D01*
X68020763Y-118660000D01*
X67949237Y-118660000D01*
X67842685Y-118675320D01*
X67735000Y-118724498D01*
X67735000Y-117810000D01*
X67338171Y-117810000D01*
X67331888Y-117810321D01*
X67232304Y-117820493D01*
X67065877Y-117875642D01*
X66916654Y-117967683D01*
X66792683Y-118091654D01*
X66700642Y-118240877D01*
X66645493Y-118407303D01*
X66635319Y-118506890D01*
X66635000Y-118513168D01*
X66635000Y-118910000D01*
X67551314Y-118910000D01*
X67525507Y-118950156D01*
X67485000Y-119088111D01*
X67485000Y-119231889D01*
X67525507Y-119369844D01*
X67551314Y-119410000D01*
X66635001Y-119410000D01*
X66635001Y-119806829D01*
X66635321Y-119813111D01*
X66645493Y-119912695D01*
X66700642Y-120079122D01*
X66792683Y-120228345D01*
X66916654Y-120352316D01*
X67065877Y-120444357D01*
X67138076Y-120468282D01*
X67195521Y-120508055D01*
X67222344Y-120572571D01*
X67222463Y-120583910D01*
X67852466Y-121213913D01*
X67842685Y-121215320D01*
X67711900Y-121275048D01*
X67603239Y-121369202D01*
X67525507Y-121490156D01*
X67501923Y-121570476D01*
X66870072Y-120938625D01*
X66811399Y-121022422D01*
X66711569Y-121236507D01*
X66650430Y-121464681D01*
X66629842Y-121700000D01*
X66650430Y-121935318D01*
X66711569Y-122163492D01*
X66811400Y-122377580D01*
X66870073Y-122461373D01*
X67501923Y-121829523D01*
X67525507Y-121909844D01*
X67603239Y-122030798D01*
X67711900Y-122124952D01*
X67842685Y-122184680D01*
X67852466Y-122186086D01*
X67223625Y-122814925D01*
X67300031Y-122868425D01*
X67343655Y-122923002D01*
X67350848Y-122992501D01*
X67319326Y-123054855D01*
X67300029Y-123071576D01*
X67223626Y-123125072D01*
X67223625Y-123125073D01*
X67852466Y-123753913D01*
X67842685Y-123755320D01*
X67711900Y-123815048D01*
X67603239Y-123909202D01*
X67525507Y-124030156D01*
X67501923Y-124110476D01*
X66870072Y-123478625D01*
X66811399Y-123562422D01*
X66711569Y-123776507D01*
X66650430Y-124004681D01*
X66629842Y-124240000D01*
X66650430Y-124475318D01*
X66711569Y-124703492D01*
X66811400Y-124917580D01*
X66870073Y-125001373D01*
X67501923Y-124369523D01*
X67525507Y-124449844D01*
X67603239Y-124570798D01*
X67711900Y-124664952D01*
X67842685Y-124724680D01*
X67852466Y-124726086D01*
X67223625Y-125354925D01*
X67300031Y-125408425D01*
X67343655Y-125463002D01*
X67350848Y-125532501D01*
X67319326Y-125594855D01*
X67300029Y-125611576D01*
X67223625Y-125665072D01*
X67852466Y-126293913D01*
X67842685Y-126295320D01*
X67711900Y-126355048D01*
X67603239Y-126449202D01*
X67525507Y-126570156D01*
X67501923Y-126650476D01*
X66870072Y-126018625D01*
X66811399Y-126102422D01*
X66711569Y-126316507D01*
X66650430Y-126544681D01*
X66629842Y-126779999D01*
X66650430Y-127015318D01*
X66711569Y-127243492D01*
X66811400Y-127457580D01*
X66870073Y-127541373D01*
X67501923Y-126909523D01*
X67525507Y-126989844D01*
X67603239Y-127110798D01*
X67711900Y-127204952D01*
X67842685Y-127264680D01*
X67852466Y-127266086D01*
X67223625Y-127894925D01*
X67300031Y-127948425D01*
X67343655Y-128003002D01*
X67350848Y-128072501D01*
X67319326Y-128134855D01*
X67300029Y-128151576D01*
X67223625Y-128205072D01*
X67852466Y-128833913D01*
X67842685Y-128835320D01*
X67711900Y-128895048D01*
X67603239Y-128989202D01*
X67525507Y-129110156D01*
X67501923Y-129190476D01*
X66870072Y-128558625D01*
X66811399Y-128642422D01*
X66711569Y-128856507D01*
X66650430Y-129084681D01*
X66629842Y-129320000D01*
X60706000Y-129320000D01*
X60706000Y-106715000D01*
X64919551Y-106715000D01*
X64939317Y-106966149D01*
X64998126Y-107211110D01*
X65015545Y-107253162D01*
X65094534Y-107443859D01*
X65226164Y-107658659D01*
X65389776Y-107850224D01*
X65581341Y-108013836D01*
X65796141Y-108145466D01*
X66028889Y-108241873D01*
X66273852Y-108300683D01*
X66525000Y-108320449D01*
X66776148Y-108300683D01*
X67021111Y-108241873D01*
X67253859Y-108145466D01*
X67468659Y-108013836D01*
X67660224Y-107850224D01*
X67823836Y-107658659D01*
X67955466Y-107443859D01*
X68051873Y-107211111D01*
X68110683Y-106966148D01*
X68130449Y-106715000D01*
X68110683Y-106463852D01*
X68051873Y-106218889D01*
X67955466Y-105986141D01*
X67823836Y-105771341D01*
X67660224Y-105579776D01*
X67612817Y-105539287D01*
X67574627Y-105480785D01*
X67574127Y-105410917D01*
X67611480Y-105351870D01*
X67612682Y-105350827D01*
X67660224Y-105310224D01*
X67823836Y-105118659D01*
X67955466Y-104903859D01*
X68051873Y-104671111D01*
X68110683Y-104426148D01*
X68130449Y-104175000D01*
X68110683Y-103923852D01*
X68051873Y-103678889D01*
X67955466Y-103446141D01*
X67864936Y-103298410D01*
X67824070Y-103231722D01*
X67805825Y-103164276D01*
X67826941Y-103097674D01*
X67842116Y-103079250D01*
X67843650Y-103077715D01*
X67843656Y-103077712D01*
X67967712Y-102953656D01*
X68059814Y-102804334D01*
X68114999Y-102637797D01*
X68125500Y-102535009D01*
X68125499Y-100734992D01*
X68114999Y-100632203D01*
X68059814Y-100465666D01*
X67967712Y-100316344D01*
X67967711Y-100316342D01*
X67843657Y-100192288D01*
X67694334Y-100100186D01*
X67527797Y-100045000D01*
X67428141Y-100034819D01*
X67428122Y-100034818D01*
X67425009Y-100034500D01*
X67421860Y-100034500D01*
X65628140Y-100034500D01*
X65628120Y-100034500D01*
X65624992Y-100034501D01*
X65621860Y-100034820D01*
X65621858Y-100034821D01*
X65522203Y-100045000D01*
X65355665Y-100100186D01*
X65206342Y-100192288D01*
X65082288Y-100316342D01*
X64990186Y-100465665D01*
X64935000Y-100632202D01*
X64924819Y-100731858D01*
X64924817Y-100731878D01*
X64924500Y-100734991D01*
X64924500Y-100738138D01*
X64924500Y-100738139D01*
X64924500Y-102531859D01*
X64924500Y-102531878D01*
X64924501Y-102535008D01*
X64924820Y-102538140D01*
X64924821Y-102538141D01*
X64935000Y-102637796D01*
X64990186Y-102804334D01*
X65082288Y-102953657D01*
X65207883Y-103079252D01*
X65241368Y-103140575D01*
X65236384Y-103210267D01*
X65225930Y-103231722D01*
X65094534Y-103446141D01*
X65094533Y-103446144D01*
X64998126Y-103678889D01*
X64939317Y-103923850D01*
X64919551Y-104174999D01*
X64939317Y-104426149D01*
X64998126Y-104671110D01*
X65043313Y-104780201D01*
X65094534Y-104903859D01*
X65226164Y-105118659D01*
X65389776Y-105310224D01*
X65437179Y-105350710D01*
X65475372Y-105409215D01*
X65475871Y-105479083D01*
X65438517Y-105538130D01*
X65437179Y-105539289D01*
X65389772Y-105579778D01*
X65226165Y-105771338D01*
X65094535Y-105986139D01*
X64998126Y-106218889D01*
X64939317Y-106463850D01*
X64919551Y-106715000D01*
X60706000Y-106715000D01*
X60706000Y-89322631D01*
X66330717Y-89322631D01*
X66360893Y-89571151D01*
X66416806Y-89764184D01*
X66430541Y-89811604D01*
X66537859Y-90037772D01*
X66680068Y-90243797D01*
X66853484Y-90424341D01*
X67029265Y-90556432D01*
X67061617Y-90580743D01*
X67060798Y-90581832D01*
X67103485Y-90623133D01*
X67119461Y-90691152D01*
X67096127Y-90757010D01*
X67066774Y-90785920D01*
X67046183Y-90800338D01*
X66885341Y-90961180D01*
X66754865Y-91147519D01*
X66658733Y-91353673D01*
X66606128Y-91549999D01*
X66606128Y-91550000D01*
X67969314Y-91550000D01*
X67957359Y-91561955D01*
X67899835Y-91674852D01*
X67880014Y-91800000D01*
X67899835Y-91925148D01*
X67957359Y-92038045D01*
X67969314Y-92050000D01*
X66606128Y-92050000D01*
X66658733Y-92246326D01*
X66754865Y-92452480D01*
X66885341Y-92638819D01*
X67046180Y-92799658D01*
X67232519Y-92930134D01*
X67291456Y-92957618D01*
X67343895Y-93003791D01*
X67363047Y-93070985D01*
X67342831Y-93137866D01*
X67291456Y-93182382D01*
X67232519Y-93209865D01*
X67046180Y-93340341D01*
X66885341Y-93501180D01*
X66754865Y-93687519D01*
X66658733Y-93893673D01*
X66606128Y-94089999D01*
X66606128Y-94090000D01*
X67969314Y-94090000D01*
X67957359Y-94101955D01*
X67899835Y-94214852D01*
X67880014Y-94340000D01*
X67899835Y-94465148D01*
X67957359Y-94578045D01*
X67969314Y-94590000D01*
X66606128Y-94590000D01*
X66658733Y-94786326D01*
X66754865Y-94992480D01*
X66885341Y-95178819D01*
X67046180Y-95339658D01*
X67232519Y-95470134D01*
X67438673Y-95566266D01*
X67658397Y-95625141D01*
X67825535Y-95639763D01*
X67830946Y-95640000D01*
X68035000Y-95640000D01*
X68035000Y-94655686D01*
X68046955Y-94667641D01*
X68159852Y-94725165D01*
X68253519Y-94740000D01*
X68316481Y-94740000D01*
X68410148Y-94725165D01*
X68523045Y-94667641D01*
X68535000Y-94655686D01*
X68535000Y-95640000D01*
X68739054Y-95640000D01*
X68744464Y-95639763D01*
X68911602Y-95625141D01*
X69131326Y-95566266D01*
X69337480Y-95470134D01*
X69523819Y-95339658D01*
X69684658Y-95178819D01*
X69815134Y-94992480D01*
X69911266Y-94786326D01*
X69963872Y-94590000D01*
X68600686Y-94590000D01*
X68612641Y-94578045D01*
X68670165Y-94465148D01*
X68689986Y-94340000D01*
X68670165Y-94214852D01*
X68612641Y-94101955D01*
X68600686Y-94090000D01*
X69963872Y-94090000D01*
X69963871Y-94089999D01*
X69911266Y-93893673D01*
X69815134Y-93687519D01*
X69684658Y-93501180D01*
X69523819Y-93340341D01*
X69337479Y-93209864D01*
X69278543Y-93182382D01*
X69226103Y-93136210D01*
X69206951Y-93069017D01*
X69227166Y-93002136D01*
X69278543Y-92957618D01*
X69337479Y-92930135D01*
X69523819Y-92799658D01*
X69684658Y-92638819D01*
X69815134Y-92452480D01*
X69911266Y-92246326D01*
X69963872Y-92050000D01*
X68600686Y-92050000D01*
X68612641Y-92038045D01*
X68670165Y-91925148D01*
X68689986Y-91800000D01*
X68670165Y-91674852D01*
X68612641Y-91561955D01*
X68600686Y-91550000D01*
X69963872Y-91550000D01*
X69963871Y-91549999D01*
X69911266Y-91353673D01*
X69815134Y-91147519D01*
X69684658Y-90961180D01*
X69523818Y-90800340D01*
X69499078Y-90783017D01*
X69455453Y-90728439D01*
X69448261Y-90658941D01*
X69479783Y-90596586D01*
X69503920Y-90576644D01*
X69619481Y-90503568D01*
X69806862Y-90337563D01*
X69965188Y-90143650D01*
X70090357Y-89926850D01*
X70179128Y-89692780D01*
X70229202Y-89447500D01*
X70239282Y-89197365D01*
X70209107Y-88948851D01*
X70139459Y-88708396D01*
X70032141Y-88482228D01*
X69889932Y-88276203D01*
X69716516Y-88095659D01*
X69704753Y-88086820D01*
X69662986Y-88030812D01*
X69658128Y-87961112D01*
X69691724Y-87899850D01*
X69696993Y-87894897D01*
X69806862Y-87797563D01*
X69965188Y-87603650D01*
X70090357Y-87386850D01*
X70179128Y-87152780D01*
X70229202Y-86907500D01*
X70239282Y-86657365D01*
X70209107Y-86408851D01*
X70139459Y-86168396D01*
X70032141Y-85942228D01*
X69889932Y-85736203D01*
X69716516Y-85555659D01*
X69704753Y-85546820D01*
X69662986Y-85490812D01*
X69658128Y-85421112D01*
X69691724Y-85359850D01*
X69696993Y-85354897D01*
X69806862Y-85257563D01*
X69965188Y-85063650D01*
X70090357Y-84846850D01*
X70179128Y-84612780D01*
X70229202Y-84367500D01*
X70239282Y-84117365D01*
X70209107Y-83868851D01*
X70139459Y-83628396D01*
X70032141Y-83402228D01*
X69889932Y-83196203D01*
X69716516Y-83015659D01*
X69704753Y-83006820D01*
X69662986Y-82950812D01*
X69658128Y-82881112D01*
X69691724Y-82819850D01*
X69696993Y-82814897D01*
X69806862Y-82717563D01*
X69965188Y-82523650D01*
X70090357Y-82306850D01*
X70179128Y-82072780D01*
X70229202Y-81827500D01*
X70239282Y-81577365D01*
X70209107Y-81328851D01*
X70139459Y-81088396D01*
X70032141Y-80862228D01*
X69889932Y-80656203D01*
X69716516Y-80475659D01*
X69704753Y-80466820D01*
X69662986Y-80410812D01*
X69658128Y-80341112D01*
X69691724Y-80279850D01*
X69696993Y-80274897D01*
X69806862Y-80177563D01*
X69965188Y-79983650D01*
X70090357Y-79766850D01*
X70179128Y-79532780D01*
X70229202Y-79287500D01*
X70239282Y-79037365D01*
X70209107Y-78788851D01*
X70139459Y-78548396D01*
X70032141Y-78322228D01*
X69889932Y-78116203D01*
X69716516Y-77935659D01*
X69704753Y-77926820D01*
X69662986Y-77870812D01*
X69658128Y-77801112D01*
X69691724Y-77739850D01*
X69696993Y-77734897D01*
X69806862Y-77637563D01*
X69965188Y-77443650D01*
X70090357Y-77226850D01*
X70179128Y-76992780D01*
X70229202Y-76747500D01*
X70239282Y-76497365D01*
X70209107Y-76248851D01*
X70139459Y-76008396D01*
X70032141Y-75782228D01*
X69889932Y-75576203D01*
X69716516Y-75395659D01*
X69704753Y-75386820D01*
X69662986Y-75330812D01*
X69658128Y-75261112D01*
X69691724Y-75199850D01*
X69696993Y-75194897D01*
X69806862Y-75097563D01*
X69965188Y-74903650D01*
X70090357Y-74686850D01*
X70179128Y-74452780D01*
X70229202Y-74207500D01*
X70239282Y-73957365D01*
X70209107Y-73708851D01*
X70139459Y-73468396D01*
X70032141Y-73242228D01*
X69889932Y-73036203D01*
X69716516Y-72855659D01*
X69704753Y-72846820D01*
X69662986Y-72790812D01*
X69658128Y-72721112D01*
X69691724Y-72659850D01*
X69696993Y-72654897D01*
X69806862Y-72557563D01*
X69965188Y-72363650D01*
X70090357Y-72146850D01*
X70179128Y-71912780D01*
X70229202Y-71667500D01*
X70239282Y-71417365D01*
X70209107Y-71168851D01*
X70139459Y-70928396D01*
X70032141Y-70702228D01*
X69889932Y-70496203D01*
X69716516Y-70315659D01*
X69704753Y-70306820D01*
X69662986Y-70250812D01*
X69658128Y-70181112D01*
X69691724Y-70119850D01*
X69696993Y-70114897D01*
X69806862Y-70017563D01*
X69965188Y-69823650D01*
X70090357Y-69606850D01*
X70179128Y-69372780D01*
X70229202Y-69127500D01*
X70239282Y-68877365D01*
X70209107Y-68628851D01*
X70139459Y-68388396D01*
X70032141Y-68162228D01*
X69889932Y-67956203D01*
X69716516Y-67775659D01*
X69704753Y-67766820D01*
X69662986Y-67710812D01*
X69658128Y-67641112D01*
X69691724Y-67579850D01*
X69696993Y-67574897D01*
X69806862Y-67477563D01*
X69965188Y-67283650D01*
X70090357Y-67066850D01*
X70179128Y-66832780D01*
X70229202Y-66587500D01*
X70239282Y-66337365D01*
X70209107Y-66088851D01*
X70139459Y-65848396D01*
X70032141Y-65622228D01*
X69889932Y-65416203D01*
X69716516Y-65235659D01*
X69704753Y-65226820D01*
X69662986Y-65170812D01*
X69658128Y-65101112D01*
X69691724Y-65039850D01*
X69696993Y-65034897D01*
X69806862Y-64937563D01*
X69965188Y-64743650D01*
X70090357Y-64526850D01*
X70179128Y-64292780D01*
X70229202Y-64047500D01*
X70239282Y-63797365D01*
X70209107Y-63548851D01*
X70139459Y-63308396D01*
X70032141Y-63082228D01*
X69889932Y-62876203D01*
X69716516Y-62695659D01*
X69704753Y-62686820D01*
X69662986Y-62630812D01*
X69658128Y-62561112D01*
X69691724Y-62499850D01*
X69696993Y-62494897D01*
X69806862Y-62397563D01*
X69965188Y-62203650D01*
X70090357Y-61986850D01*
X70179128Y-61752780D01*
X70229202Y-61507500D01*
X70239282Y-61257365D01*
X70209107Y-61008851D01*
X70139459Y-60768396D01*
X70032141Y-60542228D01*
X69889932Y-60336203D01*
X69716516Y-60155659D01*
X69704753Y-60146820D01*
X69662986Y-60090812D01*
X69658128Y-60021112D01*
X69691724Y-59959850D01*
X69696993Y-59954897D01*
X69806862Y-59857563D01*
X69965188Y-59663650D01*
X70090357Y-59446850D01*
X70179128Y-59212780D01*
X70229202Y-58967500D01*
X70239282Y-58717365D01*
X70209107Y-58468851D01*
X70139459Y-58228396D01*
X70032141Y-58002228D01*
X69889932Y-57796203D01*
X69716516Y-57615659D01*
X69704753Y-57606820D01*
X69662986Y-57550812D01*
X69658128Y-57481112D01*
X69691724Y-57419850D01*
X69696993Y-57414897D01*
X69806862Y-57317563D01*
X69965188Y-57123650D01*
X70090357Y-56906850D01*
X70179128Y-56672780D01*
X70229202Y-56427500D01*
X70239282Y-56177365D01*
X70209107Y-55928851D01*
X70139459Y-55688396D01*
X70032141Y-55462228D01*
X69889932Y-55256203D01*
X69716516Y-55075659D01*
X69704753Y-55066820D01*
X69662986Y-55010812D01*
X69658128Y-54941112D01*
X69691724Y-54879850D01*
X69696993Y-54874897D01*
X69806862Y-54777563D01*
X69965188Y-54583650D01*
X70090357Y-54366850D01*
X70179128Y-54132780D01*
X70229202Y-53887500D01*
X70239282Y-53637365D01*
X70209107Y-53388851D01*
X70139459Y-53148396D01*
X70032141Y-52922228D01*
X69889932Y-52716203D01*
X69716516Y-52535659D01*
X69704753Y-52526820D01*
X69662986Y-52470812D01*
X69658128Y-52401112D01*
X69691724Y-52339850D01*
X69696993Y-52334897D01*
X69806862Y-52237563D01*
X69965188Y-52043650D01*
X70090357Y-51826850D01*
X70179128Y-51592780D01*
X70229202Y-51347500D01*
X70238200Y-51124214D01*
X70239282Y-51097368D01*
X70237437Y-51082172D01*
X70209107Y-50848851D01*
X70139459Y-50608396D01*
X70032141Y-50382228D01*
X69889932Y-50176203D01*
X69738455Y-50018500D01*
X69716517Y-49995660D01*
X69716516Y-49995659D01*
X69704753Y-49986820D01*
X69662986Y-49930812D01*
X69658128Y-49861112D01*
X69691724Y-49799850D01*
X69696993Y-49794897D01*
X69806862Y-49697563D01*
X69965188Y-49503650D01*
X70090357Y-49286850D01*
X70179128Y-49052780D01*
X70229202Y-48807500D01*
X70239282Y-48557365D01*
X70209107Y-48308851D01*
X70139459Y-48068396D01*
X70032141Y-47842228D01*
X69889932Y-47636203D01*
X69716516Y-47455659D01*
X69704753Y-47446820D01*
X69662986Y-47390812D01*
X69658128Y-47321112D01*
X69691724Y-47259850D01*
X69696993Y-47254897D01*
X69806862Y-47157563D01*
X69965188Y-46963650D01*
X70090357Y-46746850D01*
X70179128Y-46512780D01*
X70229202Y-46267500D01*
X70236692Y-46081629D01*
X70239282Y-46017368D01*
X70239282Y-46017365D01*
X70209107Y-45768851D01*
X70139459Y-45528396D01*
X70032141Y-45302228D01*
X69889932Y-45096203D01*
X69716516Y-44915659D01*
X69716516Y-44915658D01*
X69516383Y-44765268D01*
X69294723Y-44648931D01*
X69057263Y-44569656D01*
X68810170Y-44529500D01*
X68810169Y-44529500D01*
X67822519Y-44529500D01*
X67820064Y-44529698D01*
X67820043Y-44529699D01*
X67635473Y-44544600D01*
X67392410Y-44604509D01*
X67162098Y-44702636D01*
X66950519Y-44836432D01*
X66763141Y-45002433D01*
X66604809Y-45196353D01*
X66479643Y-45413149D01*
X66390871Y-45647220D01*
X66340797Y-45892502D01*
X66330717Y-46142631D01*
X66360893Y-46391151D01*
X66430540Y-46631601D01*
X66430541Y-46631604D01*
X66537859Y-46857772D01*
X66680068Y-47063797D01*
X66853484Y-47244341D01*
X66865245Y-47253179D01*
X66907013Y-47309186D01*
X66911871Y-47378886D01*
X66878276Y-47440149D01*
X66872981Y-47445124D01*
X66791321Y-47517469D01*
X66763138Y-47542437D01*
X66751319Y-47556913D01*
X66604809Y-47736353D01*
X66479643Y-47953149D01*
X66390871Y-48187220D01*
X66340797Y-48432502D01*
X66330717Y-48682631D01*
X66360893Y-48931151D01*
X66430540Y-49171601D01*
X66430541Y-49171604D01*
X66537859Y-49397772D01*
X66680068Y-49603797D01*
X66853484Y-49784341D01*
X66865245Y-49793179D01*
X66907013Y-49849186D01*
X66911871Y-49918886D01*
X66878276Y-49980149D01*
X66872981Y-49985124D01*
X66763139Y-50082436D01*
X66604809Y-50276353D01*
X66479643Y-50493149D01*
X66390871Y-50727220D01*
X66340797Y-50972502D01*
X66330717Y-51222631D01*
X66360893Y-51471151D01*
X66397339Y-51596977D01*
X66430541Y-51711604D01*
X66537859Y-51937772D01*
X66680068Y-52143797D01*
X66853484Y-52324341D01*
X66865245Y-52333179D01*
X66907013Y-52389186D01*
X66911871Y-52458886D01*
X66878276Y-52520149D01*
X66872981Y-52525124D01*
X66763139Y-52622436D01*
X66763138Y-52622437D01*
X66736400Y-52655185D01*
X66604809Y-52816353D01*
X66479643Y-53033149D01*
X66390871Y-53267220D01*
X66340797Y-53512502D01*
X66330717Y-53762631D01*
X66360893Y-54011151D01*
X66430540Y-54251601D01*
X66430541Y-54251604D01*
X66537859Y-54477772D01*
X66680068Y-54683797D01*
X66853484Y-54864341D01*
X66865245Y-54873179D01*
X66907013Y-54929186D01*
X66911871Y-54998886D01*
X66878276Y-55060149D01*
X66872981Y-55065124D01*
X66763139Y-55162436D01*
X66604809Y-55356353D01*
X66479643Y-55573149D01*
X66390871Y-55807220D01*
X66340797Y-56052502D01*
X66330717Y-56302631D01*
X66360893Y-56551151D01*
X66430540Y-56791601D01*
X66430541Y-56791604D01*
X66537859Y-57017772D01*
X66680068Y-57223797D01*
X66853484Y-57404341D01*
X66865245Y-57413179D01*
X66907013Y-57469186D01*
X66911871Y-57538886D01*
X66878276Y-57600149D01*
X66872981Y-57605124D01*
X66763139Y-57702436D01*
X66604809Y-57896353D01*
X66479643Y-58113149D01*
X66390871Y-58347220D01*
X66340797Y-58592502D01*
X66330717Y-58842631D01*
X66360893Y-59091151D01*
X66430540Y-59331601D01*
X66430541Y-59331604D01*
X66537859Y-59557772D01*
X66676397Y-59758478D01*
X66680068Y-59763797D01*
X66702097Y-59786732D01*
X66853484Y-59944341D01*
X66865245Y-59953179D01*
X66907013Y-60009186D01*
X66911871Y-60078886D01*
X66878276Y-60140149D01*
X66872981Y-60145124D01*
X66763139Y-60242436D01*
X66604809Y-60436353D01*
X66479643Y-60653149D01*
X66390871Y-60887220D01*
X66340797Y-61132502D01*
X66330717Y-61382631D01*
X66360893Y-61631151D01*
X66430540Y-61871601D01*
X66430541Y-61871604D01*
X66537859Y-62097772D01*
X66680068Y-62303797D01*
X66853484Y-62484341D01*
X66865245Y-62493179D01*
X66907013Y-62549186D01*
X66911871Y-62618886D01*
X66878276Y-62680149D01*
X66872981Y-62685124D01*
X66763139Y-62782436D01*
X66604809Y-62976353D01*
X66479643Y-63193149D01*
X66390871Y-63427220D01*
X66340797Y-63672502D01*
X66330717Y-63922631D01*
X66360893Y-64171151D01*
X66430540Y-64411601D01*
X66430541Y-64411604D01*
X66537859Y-64637772D01*
X66680068Y-64843797D01*
X66853484Y-65024341D01*
X66865245Y-65033179D01*
X66907013Y-65089186D01*
X66911871Y-65158886D01*
X66878276Y-65220149D01*
X66872981Y-65225124D01*
X66763139Y-65322436D01*
X66604809Y-65516353D01*
X66479643Y-65733149D01*
X66390871Y-65967220D01*
X66340797Y-66212502D01*
X66330717Y-66462631D01*
X66360893Y-66711151D01*
X66430540Y-66951601D01*
X66430541Y-66951604D01*
X66537859Y-67177772D01*
X66680068Y-67383797D01*
X66853484Y-67564341D01*
X66865245Y-67573179D01*
X66907013Y-67629186D01*
X66911871Y-67698886D01*
X66878276Y-67760149D01*
X66872981Y-67765124D01*
X66763139Y-67862436D01*
X66604809Y-68056353D01*
X66479643Y-68273149D01*
X66390871Y-68507220D01*
X66340797Y-68752502D01*
X66330717Y-69002631D01*
X66360893Y-69251151D01*
X66430540Y-69491601D01*
X66430541Y-69491604D01*
X66537859Y-69717772D01*
X66680068Y-69923797D01*
X66853484Y-70104341D01*
X66865245Y-70113179D01*
X66907013Y-70169186D01*
X66911871Y-70238886D01*
X66878276Y-70300149D01*
X66872981Y-70305124D01*
X66763139Y-70402436D01*
X66604809Y-70596353D01*
X66479643Y-70813149D01*
X66390871Y-71047220D01*
X66340797Y-71292502D01*
X66330717Y-71542631D01*
X66360893Y-71791151D01*
X66415629Y-71980123D01*
X66430541Y-72031604D01*
X66537859Y-72257772D01*
X66643417Y-72410699D01*
X66680068Y-72463797D01*
X66816345Y-72605676D01*
X66853484Y-72644341D01*
X66865245Y-72653179D01*
X66907013Y-72709186D01*
X66911871Y-72778886D01*
X66878276Y-72840149D01*
X66872981Y-72845124D01*
X66763139Y-72942436D01*
X66604809Y-73136353D01*
X66479643Y-73353149D01*
X66390871Y-73587220D01*
X66340797Y-73832502D01*
X66330717Y-74082631D01*
X66360893Y-74331151D01*
X66430540Y-74571601D01*
X66430541Y-74571604D01*
X66537859Y-74797772D01*
X66680068Y-75003797D01*
X66853484Y-75184341D01*
X66865245Y-75193179D01*
X66907013Y-75249186D01*
X66911871Y-75318886D01*
X66878276Y-75380149D01*
X66872981Y-75385124D01*
X66763139Y-75482436D01*
X66604809Y-75676353D01*
X66479643Y-75893149D01*
X66390871Y-76127220D01*
X66340797Y-76372502D01*
X66330717Y-76622631D01*
X66360893Y-76871151D01*
X66398635Y-77001452D01*
X66430541Y-77111604D01*
X66537859Y-77337772D01*
X66625515Y-77464763D01*
X66680068Y-77543797D01*
X66799218Y-77667845D01*
X66853484Y-77724341D01*
X66865245Y-77733179D01*
X66907013Y-77789186D01*
X66911871Y-77858886D01*
X66878276Y-77920149D01*
X66872981Y-77925124D01*
X66763139Y-78022436D01*
X66763138Y-78022437D01*
X66743932Y-78045960D01*
X66604809Y-78216353D01*
X66479643Y-78433149D01*
X66390871Y-78667220D01*
X66340797Y-78912502D01*
X66330717Y-79162631D01*
X66360893Y-79411151D01*
X66430540Y-79651601D01*
X66430541Y-79651604D01*
X66537859Y-79877772D01*
X66680068Y-80083797D01*
X66853484Y-80264341D01*
X66865245Y-80273179D01*
X66907013Y-80329186D01*
X66911871Y-80398886D01*
X66878276Y-80460149D01*
X66872981Y-80465124D01*
X66763139Y-80562436D01*
X66604809Y-80756353D01*
X66479643Y-80973149D01*
X66390871Y-81207220D01*
X66340797Y-81452502D01*
X66330717Y-81702631D01*
X66360893Y-81951151D01*
X66430540Y-82191601D01*
X66430541Y-82191604D01*
X66537859Y-82417772D01*
X66680068Y-82623797D01*
X66853484Y-82804341D01*
X66865245Y-82813179D01*
X66907013Y-82869186D01*
X66911871Y-82938886D01*
X66878276Y-83000149D01*
X66872981Y-83005124D01*
X66763139Y-83102436D01*
X66604809Y-83296353D01*
X66479643Y-83513149D01*
X66390871Y-83747220D01*
X66340797Y-83992502D01*
X66330717Y-84242631D01*
X66360893Y-84491151D01*
X66430540Y-84731601D01*
X66430541Y-84731604D01*
X66537859Y-84957772D01*
X66680068Y-85163796D01*
X66680068Y-85163797D01*
X66851061Y-85341819D01*
X66853484Y-85344341D01*
X66865245Y-85353179D01*
X66907013Y-85409186D01*
X66911871Y-85478886D01*
X66878276Y-85540149D01*
X66872981Y-85545124D01*
X66763139Y-85642436D01*
X66604809Y-85836353D01*
X66479643Y-86053149D01*
X66390871Y-86287220D01*
X66340797Y-86532502D01*
X66330717Y-86782631D01*
X66360893Y-87031151D01*
X66430540Y-87271601D01*
X66430541Y-87271604D01*
X66537859Y-87497772D01*
X66680068Y-87703797D01*
X66853484Y-87884341D01*
X66865245Y-87893179D01*
X66907013Y-87949186D01*
X66911871Y-88018886D01*
X66878276Y-88080149D01*
X66872981Y-88085124D01*
X66763139Y-88182436D01*
X66604809Y-88376353D01*
X66479643Y-88593149D01*
X66390871Y-88827220D01*
X66340797Y-89072502D01*
X66330717Y-89322631D01*
X60706000Y-89322631D01*
X60706000Y-40575878D01*
X61341500Y-40575878D01*
X61341501Y-40579008D01*
X61341820Y-40582140D01*
X61341821Y-40582141D01*
X61352000Y-40681796D01*
X61407186Y-40848334D01*
X61499288Y-40997657D01*
X61623342Y-41121711D01*
X61679895Y-41156593D01*
X61772666Y-41213814D01*
X61884017Y-41250712D01*
X61939202Y-41268999D01*
X62038858Y-41279180D01*
X62038859Y-41279180D01*
X62041991Y-41279500D01*
X63942008Y-41279499D01*
X64044797Y-41268999D01*
X64211334Y-41213814D01*
X64360656Y-41121712D01*
X64484712Y-40997656D01*
X64576814Y-40848334D01*
X64631999Y-40681797D01*
X64642500Y-40579009D01*
X64642500Y-40575878D01*
X65913500Y-40575878D01*
X65913501Y-40579008D01*
X65913820Y-40582140D01*
X65913821Y-40582141D01*
X65924000Y-40681796D01*
X65979186Y-40848334D01*
X66071288Y-40997657D01*
X66195342Y-41121711D01*
X66251895Y-41156593D01*
X66344666Y-41213814D01*
X66456016Y-41250712D01*
X66511202Y-41268999D01*
X66610858Y-41279180D01*
X66610859Y-41279180D01*
X66613991Y-41279500D01*
X68514008Y-41279499D01*
X68616797Y-41268999D01*
X68783334Y-41213814D01*
X68932656Y-41121712D01*
X69056712Y-40997656D01*
X69148814Y-40848334D01*
X69203999Y-40681797D01*
X69214500Y-40579009D01*
X69214500Y-40575878D01*
X83439500Y-40575878D01*
X83439501Y-40579008D01*
X83439820Y-40582140D01*
X83439821Y-40582141D01*
X83450000Y-40681796D01*
X83505186Y-40848334D01*
X83597288Y-40997657D01*
X83721342Y-41121711D01*
X83777895Y-41156592D01*
X83870666Y-41213814D01*
X83982016Y-41250712D01*
X84037202Y-41268999D01*
X84136858Y-41279180D01*
X84136859Y-41279180D01*
X84139991Y-41279500D01*
X86040008Y-41279499D01*
X86142797Y-41268999D01*
X86309334Y-41213814D01*
X86458656Y-41121712D01*
X86582712Y-40997656D01*
X86646648Y-40893999D01*
X91405033Y-40893999D01*
X91424858Y-41120602D01*
X91483733Y-41340326D01*
X91579866Y-41546484D01*
X91630972Y-41619471D01*
X91630973Y-41619472D01*
X92312045Y-40938399D01*
X92324835Y-41019148D01*
X92382359Y-41132045D01*
X92471955Y-41221641D01*
X92584852Y-41279165D01*
X92665599Y-41291953D01*
X91984526Y-41973025D01*
X91984526Y-41973026D01*
X92057515Y-42024133D01*
X92263673Y-42120266D01*
X92483397Y-42179141D01*
X92710000Y-42198966D01*
X92936602Y-42179141D01*
X93156326Y-42120266D01*
X93362480Y-42024134D01*
X93435472Y-41973025D01*
X92754401Y-41291953D01*
X92835148Y-41279165D01*
X92948045Y-41221641D01*
X93037641Y-41132045D01*
X93095165Y-41019148D01*
X93107953Y-40938400D01*
X93789025Y-41619472D01*
X93840134Y-41546480D01*
X93936266Y-41340326D01*
X93995141Y-41120602D01*
X94014966Y-40894000D01*
X93995141Y-40667397D01*
X93936266Y-40447673D01*
X93840133Y-40241515D01*
X93789025Y-40168526D01*
X93107953Y-40849598D01*
X93095165Y-40768852D01*
X93037641Y-40655955D01*
X92948045Y-40566359D01*
X92835148Y-40508835D01*
X92754399Y-40496045D01*
X93435472Y-39814973D01*
X93435471Y-39814972D01*
X93362484Y-39763866D01*
X93156326Y-39667733D01*
X92936602Y-39608858D01*
X92710000Y-39589033D01*
X92483397Y-39608858D01*
X92263672Y-39667733D01*
X92057516Y-39763865D01*
X91984526Y-39814973D01*
X92665598Y-40496046D01*
X92584852Y-40508835D01*
X92471955Y-40566359D01*
X92382359Y-40655955D01*
X92324835Y-40768852D01*
X92312046Y-40849598D01*
X91630973Y-40168527D01*
X91579865Y-40241516D01*
X91483733Y-40447672D01*
X91424858Y-40667397D01*
X91405033Y-40893999D01*
X86646648Y-40893999D01*
X86674814Y-40848334D01*
X86729999Y-40681797D01*
X86740500Y-40579009D01*
X86740499Y-38678992D01*
X86729999Y-38576203D01*
X86674814Y-38409666D01*
X86582712Y-38260344D01*
X86582711Y-38260342D01*
X86458657Y-38136288D01*
X86296999Y-38036578D01*
X86299316Y-38032821D01*
X86264139Y-38008448D01*
X86237338Y-37943922D01*
X86249677Y-37875151D01*
X86256807Y-37862726D01*
X86325482Y-37757611D01*
X86418680Y-37545139D01*
X86475638Y-37320217D01*
X86494798Y-37089000D01*
X86475638Y-36857782D01*
X86418680Y-36632860D01*
X86325484Y-36420392D01*
X86241186Y-36291364D01*
X85534449Y-36998100D01*
X85533673Y-36987735D01*
X85484113Y-36861459D01*
X85399535Y-36755401D01*
X85287453Y-36678984D01*
X85179699Y-36645746D01*
X85888799Y-35936647D01*
X85858349Y-35912948D01*
X85654299Y-35802522D01*
X85434859Y-35727188D01*
X85206007Y-35689000D01*
X84973993Y-35689000D01*
X84745140Y-35727188D01*
X84525703Y-35802521D01*
X84321645Y-35912952D01*
X84291200Y-35936646D01*
X84291200Y-35936647D01*
X85001769Y-36647215D01*
X84955862Y-36654135D01*
X84833643Y-36712993D01*
X84734202Y-36805260D01*
X84666375Y-36922740D01*
X84648500Y-37001053D01*
X83938812Y-36291365D01*
X83854516Y-36420390D01*
X83761319Y-36632860D01*
X83704361Y-36857782D01*
X83685201Y-37089000D01*
X83704361Y-37320217D01*
X83761319Y-37545139D01*
X83854515Y-37757607D01*
X83923193Y-37862726D01*
X83943380Y-37929616D01*
X83924200Y-37996801D01*
X83881588Y-38034289D01*
X83883000Y-38036578D01*
X83721342Y-38136288D01*
X83597288Y-38260342D01*
X83505186Y-38409665D01*
X83450000Y-38576202D01*
X83439819Y-38675858D01*
X83439817Y-38675878D01*
X83439500Y-38678991D01*
X83439500Y-38682138D01*
X83439500Y-38682139D01*
X83439500Y-40575859D01*
X83439500Y-40575878D01*
X69214500Y-40575878D01*
X69214499Y-38678992D01*
X69203999Y-38576203D01*
X69148814Y-38409666D01*
X69056712Y-38260344D01*
X69056711Y-38260342D01*
X68932657Y-38136288D01*
X68770999Y-38036578D01*
X68773316Y-38032821D01*
X68738139Y-38008448D01*
X68711338Y-37943922D01*
X68723677Y-37875151D01*
X68730807Y-37862726D01*
X68799482Y-37757611D01*
X68892680Y-37545139D01*
X68949638Y-37320217D01*
X68968798Y-37088999D01*
X68949638Y-36857782D01*
X68892680Y-36632860D01*
X68799484Y-36420392D01*
X68715186Y-36291364D01*
X68008449Y-36998100D01*
X68007673Y-36987735D01*
X67958113Y-36861459D01*
X67873535Y-36755401D01*
X67761453Y-36678984D01*
X67653700Y-36645747D01*
X68362799Y-35936648D01*
X68362799Y-35936647D01*
X68332349Y-35912948D01*
X68128299Y-35802522D01*
X67908859Y-35727188D01*
X67680007Y-35689000D01*
X67447993Y-35689000D01*
X67219140Y-35727188D01*
X66999703Y-35802521D01*
X66795645Y-35912952D01*
X66765200Y-35936646D01*
X66765200Y-35936647D01*
X67475768Y-36647215D01*
X67429862Y-36654135D01*
X67307643Y-36712993D01*
X67208202Y-36805260D01*
X67140375Y-36922740D01*
X67122500Y-37001053D01*
X66412812Y-36291365D01*
X66328516Y-36420390D01*
X66235319Y-36632860D01*
X66178361Y-36857782D01*
X66159201Y-37089000D01*
X66178361Y-37320217D01*
X66235319Y-37545139D01*
X66328515Y-37757607D01*
X66397193Y-37862726D01*
X66417380Y-37929616D01*
X66398200Y-37996801D01*
X66355588Y-38034289D01*
X66357000Y-38036578D01*
X66195342Y-38136288D01*
X66071288Y-38260342D01*
X65979186Y-38409665D01*
X65924000Y-38576202D01*
X65913819Y-38675858D01*
X65913817Y-38675878D01*
X65913500Y-38678991D01*
X65913500Y-38682138D01*
X65913500Y-38682139D01*
X65913500Y-40575859D01*
X65913500Y-40575878D01*
X64642500Y-40575878D01*
X64642499Y-38678992D01*
X64631999Y-38576203D01*
X64576814Y-38409666D01*
X64484712Y-38260344D01*
X64484711Y-38260342D01*
X64360657Y-38136288D01*
X64198999Y-38036578D01*
X64201316Y-38032821D01*
X64166139Y-38008448D01*
X64139338Y-37943922D01*
X64151677Y-37875151D01*
X64158807Y-37862726D01*
X64227482Y-37757611D01*
X64320680Y-37545139D01*
X64377638Y-37320217D01*
X64396798Y-37089000D01*
X64377638Y-36857782D01*
X64320680Y-36632860D01*
X64227484Y-36420392D01*
X64143186Y-36291364D01*
X63436449Y-36998100D01*
X63435673Y-36987735D01*
X63386113Y-36861459D01*
X63301535Y-36755401D01*
X63189453Y-36678984D01*
X63081700Y-36645747D01*
X63790799Y-35936648D01*
X63790799Y-35936647D01*
X63760349Y-35912948D01*
X63556299Y-35802522D01*
X63336859Y-35727188D01*
X63108007Y-35689000D01*
X62875993Y-35689000D01*
X62647140Y-35727188D01*
X62427703Y-35802521D01*
X62223645Y-35912952D01*
X62193200Y-35936646D01*
X62193200Y-35936647D01*
X62903768Y-36647215D01*
X62857862Y-36654135D01*
X62735643Y-36712993D01*
X62636202Y-36805260D01*
X62568375Y-36922740D01*
X62550500Y-37001053D01*
X61840812Y-36291365D01*
X61756516Y-36420390D01*
X61663319Y-36632860D01*
X61606361Y-36857782D01*
X61587201Y-37089000D01*
X61606361Y-37320217D01*
X61663319Y-37545139D01*
X61756515Y-37757607D01*
X61825193Y-37862726D01*
X61845380Y-37929616D01*
X61826200Y-37996801D01*
X61783588Y-38034289D01*
X61785000Y-38036578D01*
X61623342Y-38136288D01*
X61499288Y-38260342D01*
X61407186Y-38409665D01*
X61352000Y-38576202D01*
X61341819Y-38675858D01*
X61341817Y-38675878D01*
X61341500Y-38678991D01*
X61341500Y-38682138D01*
X61341500Y-38682139D01*
X61341500Y-40575859D01*
X61341500Y-40575878D01*
X60706000Y-40575878D01*
X60706000Y-35430000D01*
X60725685Y-35362961D01*
X60778489Y-35317206D01*
X60830000Y-35306000D01*
X118240000Y-35306000D01*
X118307039Y-35325685D01*
G37*
G04 #@! TD.AperFunction*
G04 #@! TA.AperFunction,Conductor*
G36*
X118315919Y-71279449D02*
G01*
X118356873Y-71336058D01*
X118364000Y-71377491D01*
X118364000Y-75167392D01*
X118359631Y-75200019D01*
X118005809Y-76497368D01*
X116844268Y-80756353D01*
X116840000Y-80772001D01*
X116840000Y-107318000D01*
X116820315Y-107385039D01*
X116767511Y-107430794D01*
X116716000Y-107442000D01*
X110236000Y-107442000D01*
X103414014Y-114011320D01*
X103352070Y-114043642D01*
X103328002Y-114046000D01*
X100873835Y-114046000D01*
X100806796Y-114026315D01*
X100761041Y-113973511D01*
X100751097Y-113904353D01*
X100780122Y-113840797D01*
X100786154Y-113834319D01*
X101655328Y-112965145D01*
X102683667Y-111936805D01*
X102694016Y-111927557D01*
X102721666Y-111905508D01*
X102765269Y-111855599D01*
X102770943Y-111849529D01*
X102777945Y-111842529D01*
X102804126Y-111811167D01*
X102805782Y-111809228D01*
X102869765Y-111735996D01*
X102872008Y-111732240D01*
X102883270Y-111716370D01*
X102886069Y-111713018D01*
X102934037Y-111628476D01*
X102935369Y-111626190D01*
X102985215Y-111542764D01*
X102986749Y-111538674D01*
X102994997Y-111521044D01*
X102997154Y-111517245D01*
X103029259Y-111425489D01*
X103030149Y-111423034D01*
X103064307Y-111332024D01*
X103065087Y-111327724D01*
X103070051Y-111308914D01*
X103071498Y-111304782D01*
X103086712Y-111208718D01*
X103087143Y-111206185D01*
X103104500Y-111110547D01*
X103104500Y-111106176D01*
X103106027Y-111086778D01*
X103106111Y-111086241D01*
X103106711Y-111082459D01*
X103104531Y-110985333D01*
X103104500Y-110982551D01*
X103104500Y-96718063D01*
X103124185Y-96651024D01*
X103127197Y-96646553D01*
X103139276Y-96629441D01*
X103141722Y-96625976D01*
X103277072Y-96364764D01*
X103365388Y-96116264D01*
X103406383Y-96059692D01*
X103471461Y-96034261D01*
X103515678Y-96038390D01*
X103591704Y-96059692D01*
X103697365Y-96089297D01*
X103697367Y-96089297D01*
X103701445Y-96090440D01*
X103992902Y-96130500D01*
X103997139Y-96130500D01*
X104282861Y-96130500D01*
X104287098Y-96130500D01*
X104578555Y-96090440D01*
X104861841Y-96011067D01*
X105131682Y-95893859D01*
X105383049Y-95740999D01*
X105611260Y-95555335D01*
X105812065Y-95340326D01*
X105981722Y-95099976D01*
X106117072Y-94838764D01*
X106215592Y-94561554D01*
X106275448Y-94273511D01*
X106295525Y-93980000D01*
X106275448Y-93686489D01*
X106215592Y-93398446D01*
X106117072Y-93121236D01*
X105981722Y-92860024D01*
X105812065Y-92619674D01*
X105617621Y-92411476D01*
X105614147Y-92407756D01*
X105614145Y-92407754D01*
X105611260Y-92404665D01*
X105383049Y-92219001D01*
X105131682Y-92066141D01*
X105127802Y-92064455D01*
X105127795Y-92064452D01*
X104865722Y-91950618D01*
X104865712Y-91950614D01*
X104861841Y-91948933D01*
X104857769Y-91947792D01*
X104582634Y-91870702D01*
X104582621Y-91870699D01*
X104578555Y-91869560D01*
X104574368Y-91868984D01*
X104574356Y-91868982D01*
X104291295Y-91830076D01*
X104291282Y-91830075D01*
X104287098Y-91829500D01*
X103992902Y-91829500D01*
X103988718Y-91830075D01*
X103988704Y-91830076D01*
X103705643Y-91868982D01*
X103705628Y-91868984D01*
X103701445Y-91869560D01*
X103697381Y-91870698D01*
X103697365Y-91870702D01*
X103422230Y-91947792D01*
X103422225Y-91947793D01*
X103418159Y-91948933D01*
X103414291Y-91950612D01*
X103414277Y-91950618D01*
X103152204Y-92064452D01*
X103152191Y-92064458D01*
X103148318Y-92066141D01*
X103144707Y-92068336D01*
X103144699Y-92068341D01*
X102900563Y-92216804D01*
X102900557Y-92216807D01*
X102896951Y-92219001D01*
X102893676Y-92221664D01*
X102893668Y-92221671D01*
X102752755Y-92336313D01*
X102688329Y-92363351D01*
X102619512Y-92351266D01*
X102568154Y-92303894D01*
X102550500Y-92240125D01*
X102550500Y-78847335D01*
X102570185Y-78780296D01*
X102586819Y-78759654D01*
X103097655Y-78248819D01*
X103158978Y-78215334D01*
X103185336Y-78212500D01*
X110666814Y-78212500D01*
X110680698Y-78213280D01*
X110715826Y-78217238D01*
X110715826Y-78217237D01*
X110715827Y-78217238D01*
X110781934Y-78212780D01*
X110790274Y-78212500D01*
X110797380Y-78212500D01*
X110800155Y-78212500D01*
X110802931Y-78212250D01*
X110802933Y-78212250D01*
X110840762Y-78208845D01*
X110843505Y-78208628D01*
X110940412Y-78202096D01*
X110944652Y-78201027D01*
X110963837Y-78197768D01*
X110968188Y-78197377D01*
X111061856Y-78171525D01*
X111064466Y-78170836D01*
X111158683Y-78147096D01*
X111162658Y-78145290D01*
X111180961Y-78138655D01*
X111185167Y-78137494D01*
X111185167Y-78137493D01*
X111185170Y-78137493D01*
X111272739Y-78095321D01*
X111275165Y-78094187D01*
X111363626Y-78054007D01*
X111367209Y-78051524D01*
X111384039Y-78041723D01*
X111387973Y-78039829D01*
X111466608Y-77982696D01*
X111468781Y-77981155D01*
X111548654Y-77925820D01*
X111551740Y-77922732D01*
X111566543Y-77910089D01*
X111570078Y-77907522D01*
X111637238Y-77837276D01*
X111639095Y-77835377D01*
X117923672Y-71550801D01*
X117934021Y-71541553D01*
X117961666Y-71519508D01*
X118005276Y-71469590D01*
X118010936Y-71463537D01*
X118017945Y-71456530D01*
X118044114Y-71425183D01*
X118045858Y-71423141D01*
X118109765Y-71349996D01*
X118112008Y-71346240D01*
X118123269Y-71330371D01*
X118126068Y-71327019D01*
X118132151Y-71316297D01*
X118182356Y-71267704D01*
X118250862Y-71253968D01*
X118315919Y-71279449D01*
G37*
G04 #@! TD.AperFunction*
M02*
