G04 #@! TF.GenerationSoftware,KiCad,Pcbnew,7.0.2*
G04 #@! TF.CreationDate,2023-10-09T18:02:17+02:00*
G04 #@! TF.ProjectId,Module_1,4d6f6475-6c65-45f3-912e-6b696361645f,rev?*
G04 #@! TF.SameCoordinates,Original*
G04 #@! TF.FileFunction,Legend,Bot*
G04 #@! TF.FilePolarity,Positive*
%FSLAX46Y46*%
G04 Gerber Fmt 4.6, Leading zero omitted, Abs format (unit mm)*
G04 Created by KiCad (PCBNEW 7.0.2) date 2023-10-09 18:02:17*
%MOMM*%
%LPD*%
G01*
G04 APERTURE LIST*
G04 Aperture macros list*
%AMRoundRect*
0 Rectangle with rounded corners*
0 $1 Rounding radius*
0 $2 $3 $4 $5 $6 $7 $8 $9 X,Y pos of 4 corners*
0 Add a 4 corners polygon primitive as box body*
4,1,4,$2,$3,$4,$5,$6,$7,$8,$9,$2,$3,0*
0 Add four circle primitives for the rounded corners*
1,1,$1+$1,$2,$3*
1,1,$1+$1,$4,$5*
1,1,$1+$1,$6,$7*
1,1,$1+$1,$8,$9*
0 Add four rect primitives between the rounded corners*
20,1,$1+$1,$2,$3,$4,$5,0*
20,1,$1+$1,$4,$5,$6,$7,0*
20,1,$1+$1,$6,$7,$8,$9,0*
20,1,$1+$1,$8,$9,$2,$3,0*%
G04 Aperture macros list end*
%ADD10C,0.150000*%
%ADD11C,0.120000*%
%ADD12C,2.400000*%
%ADD13O,2.400000X2.400000*%
%ADD14R,2.600000X2.600000*%
%ADD15O,2.600000X2.600000*%
%ADD16R,1.600000X1.600000*%
%ADD17C,1.600000*%
%ADD18C,3.500000*%
%ADD19RoundRect,0.250000X-0.600000X-0.600000X0.600000X-0.600000X0.600000X0.600000X-0.600000X0.600000X0*%
%ADD20C,1.700000*%
%ADD21R,1.800000X1.800000*%
%ADD22C,1.800000*%
%ADD23C,4.000000*%
%ADD24R,1.700000X1.700000*%
%ADD25O,1.700000X1.700000*%
%ADD26C,2.800000*%
%ADD27O,1.600000X1.600000*%
%ADD28C,1.440000*%
%ADD29O,1.800000X1.800000*%
%ADD30C,6.000000*%
%ADD31R,2.400000X1.600000*%
%ADD32O,2.400000X1.600000*%
%ADD33C,2.500000*%
%ADD34RoundRect,0.250000X-0.312500X-0.625000X0.312500X-0.625000X0.312500X0.625000X-0.312500X0.625000X0*%
%ADD35RoundRect,0.250000X-0.600000X0.400000X-0.600000X-0.400000X0.600000X-0.400000X0.600000X0.400000X0*%
%ADD36RoundRect,0.250000X-0.625000X0.312500X-0.625000X-0.312500X0.625000X-0.312500X0.625000X0.312500X0*%
%ADD37RoundRect,0.250000X0.650000X-0.325000X0.650000X0.325000X-0.650000X0.325000X-0.650000X-0.325000X0*%
%ADD38RoundRect,0.250000X-0.850000X-0.350000X0.850000X-0.350000X0.850000X0.350000X-0.850000X0.350000X0*%
%ADD39RoundRect,0.249997X-2.950003X-2.650003X2.950003X-2.650003X2.950003X2.650003X-2.950003X2.650003X0*%
%ADD40RoundRect,0.250000X0.625000X-0.312500X0.625000X0.312500X-0.625000X0.312500X-0.625000X-0.312500X0*%
%ADD41R,4.500000X2.500000*%
%ADD42O,4.500000X2.500000*%
%ADD43RoundRect,0.250001X1.262499X1.974999X-1.262499X1.974999X-1.262499X-1.974999X1.262499X-1.974999X0*%
%ADD44RoundRect,0.250000X0.312500X0.625000X-0.312500X0.625000X-0.312500X-0.625000X0.312500X-0.625000X0*%
%ADD45RoundRect,0.250000X-0.400000X-0.600000X0.400000X-0.600000X0.400000X0.600000X-0.400000X0.600000X0*%
%ADD46RoundRect,0.250000X1.000000X-1.400000X1.000000X1.400000X-1.000000X1.400000X-1.000000X-1.400000X0*%
%ADD47RoundRect,0.250000X-0.650000X0.325000X-0.650000X-0.325000X0.650000X-0.325000X0.650000X0.325000X0*%
%ADD48RoundRect,0.250000X-0.325000X-0.650000X0.325000X-0.650000X0.325000X0.650000X-0.325000X0.650000X0*%
%ADD49RoundRect,0.150000X-0.150000X0.587500X-0.150000X-0.587500X0.150000X-0.587500X0.150000X0.587500X0*%
%ADD50RoundRect,0.250000X0.600000X-0.400000X0.600000X0.400000X-0.600000X0.400000X-0.600000X-0.400000X0*%
%ADD51RoundRect,0.250000X0.325000X0.650000X-0.325000X0.650000X-0.325000X-0.650000X0.325000X-0.650000X0*%
%ADD52RoundRect,0.250000X-0.787500X-1.025000X0.787500X-1.025000X0.787500X1.025000X-0.787500X1.025000X0*%
%ADD53RoundRect,0.250000X0.400000X0.600000X-0.400000X0.600000X-0.400000X-0.600000X0.400000X-0.600000X0*%
%ADD54RoundRect,0.150000X0.150000X-0.725000X0.150000X0.725000X-0.150000X0.725000X-0.150000X-0.725000X0*%
%ADD55RoundRect,0.150000X-0.587500X-0.150000X0.587500X-0.150000X0.587500X0.150000X-0.587500X0.150000X0*%
G04 APERTURE END LIST*
D10*
X109728000Y-130810000D02*
X109220000Y-129540000D01*
X114300000Y-129794000D02*
X112268000Y-128270000D01*
X75604666Y-113280619D02*
X75937999Y-112804428D01*
X76176094Y-113280619D02*
X76176094Y-112280619D01*
X76176094Y-112280619D02*
X75795142Y-112280619D01*
X75795142Y-112280619D02*
X75699904Y-112328238D01*
X75699904Y-112328238D02*
X75652285Y-112375857D01*
X75652285Y-112375857D02*
X75604666Y-112471095D01*
X75604666Y-112471095D02*
X75604666Y-112613952D01*
X75604666Y-112613952D02*
X75652285Y-112709190D01*
X75652285Y-112709190D02*
X75699904Y-112756809D01*
X75699904Y-112756809D02*
X75795142Y-112804428D01*
X75795142Y-112804428D02*
X76176094Y-112804428D01*
X74747523Y-112613952D02*
X74747523Y-113280619D01*
X74985618Y-112233000D02*
X75223713Y-112947285D01*
X75223713Y-112947285D02*
X74604666Y-112947285D01*
X123938619Y-48569714D02*
X122938619Y-48569714D01*
X122938619Y-48569714D02*
X122938619Y-48807809D01*
X122938619Y-48807809D02*
X122986238Y-48950666D01*
X122986238Y-48950666D02*
X123081476Y-49045904D01*
X123081476Y-49045904D02*
X123176714Y-49093523D01*
X123176714Y-49093523D02*
X123367190Y-49141142D01*
X123367190Y-49141142D02*
X123510047Y-49141142D01*
X123510047Y-49141142D02*
X123700523Y-49093523D01*
X123700523Y-49093523D02*
X123795761Y-49045904D01*
X123795761Y-49045904D02*
X123891000Y-48950666D01*
X123891000Y-48950666D02*
X123938619Y-48807809D01*
X123938619Y-48807809D02*
X123938619Y-48569714D01*
X123938619Y-50093523D02*
X123938619Y-49522095D01*
X123938619Y-49807809D02*
X122938619Y-49807809D01*
X122938619Y-49807809D02*
X123081476Y-49712571D01*
X123081476Y-49712571D02*
X123176714Y-49617333D01*
X123176714Y-49617333D02*
X123224333Y-49522095D01*
X123271952Y-50950666D02*
X123938619Y-50950666D01*
X122891000Y-50712571D02*
X123605285Y-50474476D01*
X123605285Y-50474476D02*
X123605285Y-51093523D01*
X100538619Y-51427142D02*
X100062428Y-51093809D01*
X100538619Y-50855714D02*
X99538619Y-50855714D01*
X99538619Y-50855714D02*
X99538619Y-51236666D01*
X99538619Y-51236666D02*
X99586238Y-51331904D01*
X99586238Y-51331904D02*
X99633857Y-51379523D01*
X99633857Y-51379523D02*
X99729095Y-51427142D01*
X99729095Y-51427142D02*
X99871952Y-51427142D01*
X99871952Y-51427142D02*
X99967190Y-51379523D01*
X99967190Y-51379523D02*
X100014809Y-51331904D01*
X100014809Y-51331904D02*
X100062428Y-51236666D01*
X100062428Y-51236666D02*
X100062428Y-50855714D01*
X100538619Y-52379523D02*
X100538619Y-51808095D01*
X100538619Y-52093809D02*
X99538619Y-52093809D01*
X99538619Y-52093809D02*
X99681476Y-51998571D01*
X99681476Y-51998571D02*
X99776714Y-51903333D01*
X99776714Y-51903333D02*
X99824333Y-51808095D01*
X100538619Y-52855714D02*
X100538619Y-53046190D01*
X100538619Y-53046190D02*
X100491000Y-53141428D01*
X100491000Y-53141428D02*
X100443380Y-53189047D01*
X100443380Y-53189047D02*
X100300523Y-53284285D01*
X100300523Y-53284285D02*
X100110047Y-53331904D01*
X100110047Y-53331904D02*
X99729095Y-53331904D01*
X99729095Y-53331904D02*
X99633857Y-53284285D01*
X99633857Y-53284285D02*
X99586238Y-53236666D01*
X99586238Y-53236666D02*
X99538619Y-53141428D01*
X99538619Y-53141428D02*
X99538619Y-52950952D01*
X99538619Y-52950952D02*
X99586238Y-52855714D01*
X99586238Y-52855714D02*
X99633857Y-52808095D01*
X99633857Y-52808095D02*
X99729095Y-52760476D01*
X99729095Y-52760476D02*
X99967190Y-52760476D01*
X99967190Y-52760476D02*
X100062428Y-52808095D01*
X100062428Y-52808095D02*
X100110047Y-52855714D01*
X100110047Y-52855714D02*
X100157666Y-52950952D01*
X100157666Y-52950952D02*
X100157666Y-53141428D01*
X100157666Y-53141428D02*
X100110047Y-53236666D01*
X100110047Y-53236666D02*
X100062428Y-53284285D01*
X100062428Y-53284285D02*
X99967190Y-53331904D01*
X83497380Y-121294333D02*
X83545000Y-121246714D01*
X83545000Y-121246714D02*
X83592619Y-121103857D01*
X83592619Y-121103857D02*
X83592619Y-121008619D01*
X83592619Y-121008619D02*
X83545000Y-120865762D01*
X83545000Y-120865762D02*
X83449761Y-120770524D01*
X83449761Y-120770524D02*
X83354523Y-120722905D01*
X83354523Y-120722905D02*
X83164047Y-120675286D01*
X83164047Y-120675286D02*
X83021190Y-120675286D01*
X83021190Y-120675286D02*
X82830714Y-120722905D01*
X82830714Y-120722905D02*
X82735476Y-120770524D01*
X82735476Y-120770524D02*
X82640238Y-120865762D01*
X82640238Y-120865762D02*
X82592619Y-121008619D01*
X82592619Y-121008619D02*
X82592619Y-121103857D01*
X82592619Y-121103857D02*
X82640238Y-121246714D01*
X82640238Y-121246714D02*
X82687857Y-121294333D01*
X83021190Y-121865762D02*
X82973571Y-121770524D01*
X82973571Y-121770524D02*
X82925952Y-121722905D01*
X82925952Y-121722905D02*
X82830714Y-121675286D01*
X82830714Y-121675286D02*
X82783095Y-121675286D01*
X82783095Y-121675286D02*
X82687857Y-121722905D01*
X82687857Y-121722905D02*
X82640238Y-121770524D01*
X82640238Y-121770524D02*
X82592619Y-121865762D01*
X82592619Y-121865762D02*
X82592619Y-122056238D01*
X82592619Y-122056238D02*
X82640238Y-122151476D01*
X82640238Y-122151476D02*
X82687857Y-122199095D01*
X82687857Y-122199095D02*
X82783095Y-122246714D01*
X82783095Y-122246714D02*
X82830714Y-122246714D01*
X82830714Y-122246714D02*
X82925952Y-122199095D01*
X82925952Y-122199095D02*
X82973571Y-122151476D01*
X82973571Y-122151476D02*
X83021190Y-122056238D01*
X83021190Y-122056238D02*
X83021190Y-121865762D01*
X83021190Y-121865762D02*
X83068809Y-121770524D01*
X83068809Y-121770524D02*
X83116428Y-121722905D01*
X83116428Y-121722905D02*
X83211666Y-121675286D01*
X83211666Y-121675286D02*
X83402142Y-121675286D01*
X83402142Y-121675286D02*
X83497380Y-121722905D01*
X83497380Y-121722905D02*
X83545000Y-121770524D01*
X83545000Y-121770524D02*
X83592619Y-121865762D01*
X83592619Y-121865762D02*
X83592619Y-122056238D01*
X83592619Y-122056238D02*
X83545000Y-122151476D01*
X83545000Y-122151476D02*
X83497380Y-122199095D01*
X83497380Y-122199095D02*
X83402142Y-122246714D01*
X83402142Y-122246714D02*
X83211666Y-122246714D01*
X83211666Y-122246714D02*
X83116428Y-122199095D01*
X83116428Y-122199095D02*
X83068809Y-122151476D01*
X83068809Y-122151476D02*
X83021190Y-122056238D01*
X115411238Y-109015857D02*
X115506476Y-108968238D01*
X115506476Y-108968238D02*
X115601714Y-108873000D01*
X115601714Y-108873000D02*
X115744571Y-108730142D01*
X115744571Y-108730142D02*
X115839809Y-108682523D01*
X115839809Y-108682523D02*
X115935047Y-108682523D01*
X115887428Y-108920619D02*
X115982666Y-108873000D01*
X115982666Y-108873000D02*
X116077904Y-108777761D01*
X116077904Y-108777761D02*
X116125523Y-108587285D01*
X116125523Y-108587285D02*
X116125523Y-108253952D01*
X116125523Y-108253952D02*
X116077904Y-108063476D01*
X116077904Y-108063476D02*
X115982666Y-107968238D01*
X115982666Y-107968238D02*
X115887428Y-107920619D01*
X115887428Y-107920619D02*
X115696952Y-107920619D01*
X115696952Y-107920619D02*
X115601714Y-107968238D01*
X115601714Y-107968238D02*
X115506476Y-108063476D01*
X115506476Y-108063476D02*
X115458857Y-108253952D01*
X115458857Y-108253952D02*
X115458857Y-108587285D01*
X115458857Y-108587285D02*
X115506476Y-108777761D01*
X115506476Y-108777761D02*
X115601714Y-108873000D01*
X115601714Y-108873000D02*
X115696952Y-108920619D01*
X115696952Y-108920619D02*
X115887428Y-108920619D01*
X114601714Y-108253952D02*
X114601714Y-108920619D01*
X114839809Y-107873000D02*
X115077904Y-108587285D01*
X115077904Y-108587285D02*
X114458857Y-108587285D01*
X122890619Y-117975142D02*
X122414428Y-117641809D01*
X122890619Y-117403714D02*
X121890619Y-117403714D01*
X121890619Y-117403714D02*
X121890619Y-117784666D01*
X121890619Y-117784666D02*
X121938238Y-117879904D01*
X121938238Y-117879904D02*
X121985857Y-117927523D01*
X121985857Y-117927523D02*
X122081095Y-117975142D01*
X122081095Y-117975142D02*
X122223952Y-117975142D01*
X122223952Y-117975142D02*
X122319190Y-117927523D01*
X122319190Y-117927523D02*
X122366809Y-117879904D01*
X122366809Y-117879904D02*
X122414428Y-117784666D01*
X122414428Y-117784666D02*
X122414428Y-117403714D01*
X122890619Y-118927523D02*
X122890619Y-118356095D01*
X122890619Y-118641809D02*
X121890619Y-118641809D01*
X121890619Y-118641809D02*
X122033476Y-118546571D01*
X122033476Y-118546571D02*
X122128714Y-118451333D01*
X122128714Y-118451333D02*
X122176333Y-118356095D01*
X121985857Y-119308476D02*
X121938238Y-119356095D01*
X121938238Y-119356095D02*
X121890619Y-119451333D01*
X121890619Y-119451333D02*
X121890619Y-119689428D01*
X121890619Y-119689428D02*
X121938238Y-119784666D01*
X121938238Y-119784666D02*
X121985857Y-119832285D01*
X121985857Y-119832285D02*
X122081095Y-119879904D01*
X122081095Y-119879904D02*
X122176333Y-119879904D01*
X122176333Y-119879904D02*
X122319190Y-119832285D01*
X122319190Y-119832285D02*
X122890619Y-119260857D01*
X122890619Y-119260857D02*
X122890619Y-119879904D01*
X197817857Y-54904761D02*
X197770238Y-54809523D01*
X197770238Y-54809523D02*
X197675000Y-54714285D01*
X197675000Y-54714285D02*
X197532142Y-54571428D01*
X197532142Y-54571428D02*
X197484523Y-54476190D01*
X197484523Y-54476190D02*
X197484523Y-54380952D01*
X197722619Y-54428571D02*
X197675000Y-54333333D01*
X197675000Y-54333333D02*
X197579761Y-54238095D01*
X197579761Y-54238095D02*
X197389285Y-54190476D01*
X197389285Y-54190476D02*
X197055952Y-54190476D01*
X197055952Y-54190476D02*
X196865476Y-54238095D01*
X196865476Y-54238095D02*
X196770238Y-54333333D01*
X196770238Y-54333333D02*
X196722619Y-54428571D01*
X196722619Y-54428571D02*
X196722619Y-54619047D01*
X196722619Y-54619047D02*
X196770238Y-54714285D01*
X196770238Y-54714285D02*
X196865476Y-54809523D01*
X196865476Y-54809523D02*
X197055952Y-54857142D01*
X197055952Y-54857142D02*
X197389285Y-54857142D01*
X197389285Y-54857142D02*
X197579761Y-54809523D01*
X197579761Y-54809523D02*
X197675000Y-54714285D01*
X197675000Y-54714285D02*
X197722619Y-54619047D01*
X197722619Y-54619047D02*
X197722619Y-54428571D01*
X196722619Y-55761904D02*
X196722619Y-55285714D01*
X196722619Y-55285714D02*
X197198809Y-55238095D01*
X197198809Y-55238095D02*
X197151190Y-55285714D01*
X197151190Y-55285714D02*
X197103571Y-55380952D01*
X197103571Y-55380952D02*
X197103571Y-55619047D01*
X197103571Y-55619047D02*
X197151190Y-55714285D01*
X197151190Y-55714285D02*
X197198809Y-55761904D01*
X197198809Y-55761904D02*
X197294047Y-55809523D01*
X197294047Y-55809523D02*
X197532142Y-55809523D01*
X197532142Y-55809523D02*
X197627380Y-55761904D01*
X197627380Y-55761904D02*
X197675000Y-55714285D01*
X197675000Y-55714285D02*
X197722619Y-55619047D01*
X197722619Y-55619047D02*
X197722619Y-55380952D01*
X197722619Y-55380952D02*
X197675000Y-55285714D01*
X197675000Y-55285714D02*
X197627380Y-55238095D01*
X157106857Y-123398619D02*
X157440190Y-122922428D01*
X157678285Y-123398619D02*
X157678285Y-122398619D01*
X157678285Y-122398619D02*
X157297333Y-122398619D01*
X157297333Y-122398619D02*
X157202095Y-122446238D01*
X157202095Y-122446238D02*
X157154476Y-122493857D01*
X157154476Y-122493857D02*
X157106857Y-122589095D01*
X157106857Y-122589095D02*
X157106857Y-122731952D01*
X157106857Y-122731952D02*
X157154476Y-122827190D01*
X157154476Y-122827190D02*
X157202095Y-122874809D01*
X157202095Y-122874809D02*
X157297333Y-122922428D01*
X157297333Y-122922428D02*
X157678285Y-122922428D01*
X156249714Y-122731952D02*
X156249714Y-123398619D01*
X156487809Y-122351000D02*
X156725904Y-123065285D01*
X156725904Y-123065285D02*
X156106857Y-123065285D01*
X155297333Y-122398619D02*
X155487809Y-122398619D01*
X155487809Y-122398619D02*
X155583047Y-122446238D01*
X155583047Y-122446238D02*
X155630666Y-122493857D01*
X155630666Y-122493857D02*
X155725904Y-122636714D01*
X155725904Y-122636714D02*
X155773523Y-122827190D01*
X155773523Y-122827190D02*
X155773523Y-123208142D01*
X155773523Y-123208142D02*
X155725904Y-123303380D01*
X155725904Y-123303380D02*
X155678285Y-123351000D01*
X155678285Y-123351000D02*
X155583047Y-123398619D01*
X155583047Y-123398619D02*
X155392571Y-123398619D01*
X155392571Y-123398619D02*
X155297333Y-123351000D01*
X155297333Y-123351000D02*
X155249714Y-123303380D01*
X155249714Y-123303380D02*
X155202095Y-123208142D01*
X155202095Y-123208142D02*
X155202095Y-122970047D01*
X155202095Y-122970047D02*
X155249714Y-122874809D01*
X155249714Y-122874809D02*
X155297333Y-122827190D01*
X155297333Y-122827190D02*
X155392571Y-122779571D01*
X155392571Y-122779571D02*
X155583047Y-122779571D01*
X155583047Y-122779571D02*
X155678285Y-122827190D01*
X155678285Y-122827190D02*
X155725904Y-122874809D01*
X155725904Y-122874809D02*
X155773523Y-122970047D01*
X130764619Y-98671142D02*
X130288428Y-98337809D01*
X130764619Y-98099714D02*
X129764619Y-98099714D01*
X129764619Y-98099714D02*
X129764619Y-98480666D01*
X129764619Y-98480666D02*
X129812238Y-98575904D01*
X129812238Y-98575904D02*
X129859857Y-98623523D01*
X129859857Y-98623523D02*
X129955095Y-98671142D01*
X129955095Y-98671142D02*
X130097952Y-98671142D01*
X130097952Y-98671142D02*
X130193190Y-98623523D01*
X130193190Y-98623523D02*
X130240809Y-98575904D01*
X130240809Y-98575904D02*
X130288428Y-98480666D01*
X130288428Y-98480666D02*
X130288428Y-98099714D01*
X129764619Y-99004476D02*
X129764619Y-99623523D01*
X129764619Y-99623523D02*
X130145571Y-99290190D01*
X130145571Y-99290190D02*
X130145571Y-99433047D01*
X130145571Y-99433047D02*
X130193190Y-99528285D01*
X130193190Y-99528285D02*
X130240809Y-99575904D01*
X130240809Y-99575904D02*
X130336047Y-99623523D01*
X130336047Y-99623523D02*
X130574142Y-99623523D01*
X130574142Y-99623523D02*
X130669380Y-99575904D01*
X130669380Y-99575904D02*
X130717000Y-99528285D01*
X130717000Y-99528285D02*
X130764619Y-99433047D01*
X130764619Y-99433047D02*
X130764619Y-99147333D01*
X130764619Y-99147333D02*
X130717000Y-99052095D01*
X130717000Y-99052095D02*
X130669380Y-99004476D01*
X129764619Y-100528285D02*
X129764619Y-100052095D01*
X129764619Y-100052095D02*
X130240809Y-100004476D01*
X130240809Y-100004476D02*
X130193190Y-100052095D01*
X130193190Y-100052095D02*
X130145571Y-100147333D01*
X130145571Y-100147333D02*
X130145571Y-100385428D01*
X130145571Y-100385428D02*
X130193190Y-100480666D01*
X130193190Y-100480666D02*
X130240809Y-100528285D01*
X130240809Y-100528285D02*
X130336047Y-100575904D01*
X130336047Y-100575904D02*
X130574142Y-100575904D01*
X130574142Y-100575904D02*
X130669380Y-100528285D01*
X130669380Y-100528285D02*
X130717000Y-100480666D01*
X130717000Y-100480666D02*
X130764619Y-100385428D01*
X130764619Y-100385428D02*
X130764619Y-100147333D01*
X130764619Y-100147333D02*
X130717000Y-100052095D01*
X130717000Y-100052095D02*
X130669380Y-100004476D01*
X127642857Y-90336619D02*
X127976190Y-89860428D01*
X128214285Y-90336619D02*
X128214285Y-89336619D01*
X128214285Y-89336619D02*
X127833333Y-89336619D01*
X127833333Y-89336619D02*
X127738095Y-89384238D01*
X127738095Y-89384238D02*
X127690476Y-89431857D01*
X127690476Y-89431857D02*
X127642857Y-89527095D01*
X127642857Y-89527095D02*
X127642857Y-89669952D01*
X127642857Y-89669952D02*
X127690476Y-89765190D01*
X127690476Y-89765190D02*
X127738095Y-89812809D01*
X127738095Y-89812809D02*
X127833333Y-89860428D01*
X127833333Y-89860428D02*
X128214285Y-89860428D01*
X127261904Y-89431857D02*
X127214285Y-89384238D01*
X127214285Y-89384238D02*
X127119047Y-89336619D01*
X127119047Y-89336619D02*
X126880952Y-89336619D01*
X126880952Y-89336619D02*
X126785714Y-89384238D01*
X126785714Y-89384238D02*
X126738095Y-89431857D01*
X126738095Y-89431857D02*
X126690476Y-89527095D01*
X126690476Y-89527095D02*
X126690476Y-89622333D01*
X126690476Y-89622333D02*
X126738095Y-89765190D01*
X126738095Y-89765190D02*
X127309523Y-90336619D01*
X127309523Y-90336619D02*
X126690476Y-90336619D01*
X126214285Y-90336619D02*
X126023809Y-90336619D01*
X126023809Y-90336619D02*
X125928571Y-90289000D01*
X125928571Y-90289000D02*
X125880952Y-90241380D01*
X125880952Y-90241380D02*
X125785714Y-90098523D01*
X125785714Y-90098523D02*
X125738095Y-89908047D01*
X125738095Y-89908047D02*
X125738095Y-89527095D01*
X125738095Y-89527095D02*
X125785714Y-89431857D01*
X125785714Y-89431857D02*
X125833333Y-89384238D01*
X125833333Y-89384238D02*
X125928571Y-89336619D01*
X125928571Y-89336619D02*
X126119047Y-89336619D01*
X126119047Y-89336619D02*
X126214285Y-89384238D01*
X126214285Y-89384238D02*
X126261904Y-89431857D01*
X126261904Y-89431857D02*
X126309523Y-89527095D01*
X126309523Y-89527095D02*
X126309523Y-89765190D01*
X126309523Y-89765190D02*
X126261904Y-89860428D01*
X126261904Y-89860428D02*
X126214285Y-89908047D01*
X126214285Y-89908047D02*
X126119047Y-89955666D01*
X126119047Y-89955666D02*
X125928571Y-89955666D01*
X125928571Y-89955666D02*
X125833333Y-89908047D01*
X125833333Y-89908047D02*
X125785714Y-89860428D01*
X125785714Y-89860428D02*
X125738095Y-89765190D01*
X85298619Y-127849333D02*
X84822428Y-127516000D01*
X85298619Y-127277905D02*
X84298619Y-127277905D01*
X84298619Y-127277905D02*
X84298619Y-127658857D01*
X84298619Y-127658857D02*
X84346238Y-127754095D01*
X84346238Y-127754095D02*
X84393857Y-127801714D01*
X84393857Y-127801714D02*
X84489095Y-127849333D01*
X84489095Y-127849333D02*
X84631952Y-127849333D01*
X84631952Y-127849333D02*
X84727190Y-127801714D01*
X84727190Y-127801714D02*
X84774809Y-127754095D01*
X84774809Y-127754095D02*
X84822428Y-127658857D01*
X84822428Y-127658857D02*
X84822428Y-127277905D01*
X85298619Y-128801714D02*
X85298619Y-128230286D01*
X85298619Y-128516000D02*
X84298619Y-128516000D01*
X84298619Y-128516000D02*
X84441476Y-128420762D01*
X84441476Y-128420762D02*
X84536714Y-128325524D01*
X84536714Y-128325524D02*
X84584333Y-128230286D01*
X99036094Y-69804619D02*
X99036094Y-68804619D01*
X99036094Y-68804619D02*
X98797999Y-68804619D01*
X98797999Y-68804619D02*
X98655142Y-68852238D01*
X98655142Y-68852238D02*
X98559904Y-68947476D01*
X98559904Y-68947476D02*
X98512285Y-69042714D01*
X98512285Y-69042714D02*
X98464666Y-69233190D01*
X98464666Y-69233190D02*
X98464666Y-69376047D01*
X98464666Y-69376047D02*
X98512285Y-69566523D01*
X98512285Y-69566523D02*
X98559904Y-69661761D01*
X98559904Y-69661761D02*
X98655142Y-69757000D01*
X98655142Y-69757000D02*
X98797999Y-69804619D01*
X98797999Y-69804619D02*
X99036094Y-69804619D01*
X97988475Y-69804619D02*
X97797999Y-69804619D01*
X97797999Y-69804619D02*
X97702761Y-69757000D01*
X97702761Y-69757000D02*
X97655142Y-69709380D01*
X97655142Y-69709380D02*
X97559904Y-69566523D01*
X97559904Y-69566523D02*
X97512285Y-69376047D01*
X97512285Y-69376047D02*
X97512285Y-68995095D01*
X97512285Y-68995095D02*
X97559904Y-68899857D01*
X97559904Y-68899857D02*
X97607523Y-68852238D01*
X97607523Y-68852238D02*
X97702761Y-68804619D01*
X97702761Y-68804619D02*
X97893237Y-68804619D01*
X97893237Y-68804619D02*
X97988475Y-68852238D01*
X97988475Y-68852238D02*
X98036094Y-68899857D01*
X98036094Y-68899857D02*
X98083713Y-68995095D01*
X98083713Y-68995095D02*
X98083713Y-69233190D01*
X98083713Y-69233190D02*
X98036094Y-69328428D01*
X98036094Y-69328428D02*
X97988475Y-69376047D01*
X97988475Y-69376047D02*
X97893237Y-69423666D01*
X97893237Y-69423666D02*
X97702761Y-69423666D01*
X97702761Y-69423666D02*
X97607523Y-69376047D01*
X97607523Y-69376047D02*
X97559904Y-69328428D01*
X97559904Y-69328428D02*
X97512285Y-69233190D01*
X145896285Y-98760619D02*
X145896285Y-97760619D01*
X145896285Y-97760619D02*
X145658190Y-97760619D01*
X145658190Y-97760619D02*
X145515333Y-97808238D01*
X145515333Y-97808238D02*
X145420095Y-97903476D01*
X145420095Y-97903476D02*
X145372476Y-97998714D01*
X145372476Y-97998714D02*
X145324857Y-98189190D01*
X145324857Y-98189190D02*
X145324857Y-98332047D01*
X145324857Y-98332047D02*
X145372476Y-98522523D01*
X145372476Y-98522523D02*
X145420095Y-98617761D01*
X145420095Y-98617761D02*
X145515333Y-98713000D01*
X145515333Y-98713000D02*
X145658190Y-98760619D01*
X145658190Y-98760619D02*
X145896285Y-98760619D01*
X144991523Y-97760619D02*
X144372476Y-97760619D01*
X144372476Y-97760619D02*
X144705809Y-98141571D01*
X144705809Y-98141571D02*
X144562952Y-98141571D01*
X144562952Y-98141571D02*
X144467714Y-98189190D01*
X144467714Y-98189190D02*
X144420095Y-98236809D01*
X144420095Y-98236809D02*
X144372476Y-98332047D01*
X144372476Y-98332047D02*
X144372476Y-98570142D01*
X144372476Y-98570142D02*
X144420095Y-98665380D01*
X144420095Y-98665380D02*
X144467714Y-98713000D01*
X144467714Y-98713000D02*
X144562952Y-98760619D01*
X144562952Y-98760619D02*
X144848666Y-98760619D01*
X144848666Y-98760619D02*
X144943904Y-98713000D01*
X144943904Y-98713000D02*
X144991523Y-98665380D01*
X143753428Y-97760619D02*
X143658190Y-97760619D01*
X143658190Y-97760619D02*
X143562952Y-97808238D01*
X143562952Y-97808238D02*
X143515333Y-97855857D01*
X143515333Y-97855857D02*
X143467714Y-97951095D01*
X143467714Y-97951095D02*
X143420095Y-98141571D01*
X143420095Y-98141571D02*
X143420095Y-98379666D01*
X143420095Y-98379666D02*
X143467714Y-98570142D01*
X143467714Y-98570142D02*
X143515333Y-98665380D01*
X143515333Y-98665380D02*
X143562952Y-98713000D01*
X143562952Y-98713000D02*
X143658190Y-98760619D01*
X143658190Y-98760619D02*
X143753428Y-98760619D01*
X143753428Y-98760619D02*
X143848666Y-98713000D01*
X143848666Y-98713000D02*
X143896285Y-98665380D01*
X143896285Y-98665380D02*
X143943904Y-98570142D01*
X143943904Y-98570142D02*
X143991523Y-98379666D01*
X143991523Y-98379666D02*
X143991523Y-98141571D01*
X143991523Y-98141571D02*
X143943904Y-97951095D01*
X143943904Y-97951095D02*
X143896285Y-97855857D01*
X143896285Y-97855857D02*
X143848666Y-97808238D01*
X143848666Y-97808238D02*
X143753428Y-97760619D01*
X169232857Y-41515380D02*
X169280476Y-41563000D01*
X169280476Y-41563000D02*
X169423333Y-41610619D01*
X169423333Y-41610619D02*
X169518571Y-41610619D01*
X169518571Y-41610619D02*
X169661428Y-41563000D01*
X169661428Y-41563000D02*
X169756666Y-41467761D01*
X169756666Y-41467761D02*
X169804285Y-41372523D01*
X169804285Y-41372523D02*
X169851904Y-41182047D01*
X169851904Y-41182047D02*
X169851904Y-41039190D01*
X169851904Y-41039190D02*
X169804285Y-40848714D01*
X169804285Y-40848714D02*
X169756666Y-40753476D01*
X169756666Y-40753476D02*
X169661428Y-40658238D01*
X169661428Y-40658238D02*
X169518571Y-40610619D01*
X169518571Y-40610619D02*
X169423333Y-40610619D01*
X169423333Y-40610619D02*
X169280476Y-40658238D01*
X169280476Y-40658238D02*
X169232857Y-40705857D01*
X168280476Y-41610619D02*
X168851904Y-41610619D01*
X168566190Y-41610619D02*
X168566190Y-40610619D01*
X168566190Y-40610619D02*
X168661428Y-40753476D01*
X168661428Y-40753476D02*
X168756666Y-40848714D01*
X168756666Y-40848714D02*
X168851904Y-40896333D01*
X167899523Y-40705857D02*
X167851904Y-40658238D01*
X167851904Y-40658238D02*
X167756666Y-40610619D01*
X167756666Y-40610619D02*
X167518571Y-40610619D01*
X167518571Y-40610619D02*
X167423333Y-40658238D01*
X167423333Y-40658238D02*
X167375714Y-40705857D01*
X167375714Y-40705857D02*
X167328095Y-40801095D01*
X167328095Y-40801095D02*
X167328095Y-40896333D01*
X167328095Y-40896333D02*
X167375714Y-41039190D01*
X167375714Y-41039190D02*
X167947142Y-41610619D01*
X167947142Y-41610619D02*
X167328095Y-41610619D01*
X114903238Y-48817857D02*
X114998476Y-48770238D01*
X114998476Y-48770238D02*
X115093714Y-48675000D01*
X115093714Y-48675000D02*
X115236571Y-48532142D01*
X115236571Y-48532142D02*
X115331809Y-48484523D01*
X115331809Y-48484523D02*
X115427047Y-48484523D01*
X115379428Y-48722619D02*
X115474666Y-48675000D01*
X115474666Y-48675000D02*
X115569904Y-48579761D01*
X115569904Y-48579761D02*
X115617523Y-48389285D01*
X115617523Y-48389285D02*
X115617523Y-48055952D01*
X115617523Y-48055952D02*
X115569904Y-47865476D01*
X115569904Y-47865476D02*
X115474666Y-47770238D01*
X115474666Y-47770238D02*
X115379428Y-47722619D01*
X115379428Y-47722619D02*
X115188952Y-47722619D01*
X115188952Y-47722619D02*
X115093714Y-47770238D01*
X115093714Y-47770238D02*
X114998476Y-47865476D01*
X114998476Y-47865476D02*
X114950857Y-48055952D01*
X114950857Y-48055952D02*
X114950857Y-48389285D01*
X114950857Y-48389285D02*
X114998476Y-48579761D01*
X114998476Y-48579761D02*
X115093714Y-48675000D01*
X115093714Y-48675000D02*
X115188952Y-48722619D01*
X115188952Y-48722619D02*
X115379428Y-48722619D01*
X113998476Y-48722619D02*
X114569904Y-48722619D01*
X114284190Y-48722619D02*
X114284190Y-47722619D01*
X114284190Y-47722619D02*
X114379428Y-47865476D01*
X114379428Y-47865476D02*
X114474666Y-47960714D01*
X114474666Y-47960714D02*
X114569904Y-48008333D01*
X81234619Y-106005333D02*
X80758428Y-105672000D01*
X81234619Y-105433905D02*
X80234619Y-105433905D01*
X80234619Y-105433905D02*
X80234619Y-105814857D01*
X80234619Y-105814857D02*
X80282238Y-105910095D01*
X80282238Y-105910095D02*
X80329857Y-105957714D01*
X80329857Y-105957714D02*
X80425095Y-106005333D01*
X80425095Y-106005333D02*
X80567952Y-106005333D01*
X80567952Y-106005333D02*
X80663190Y-105957714D01*
X80663190Y-105957714D02*
X80710809Y-105910095D01*
X80710809Y-105910095D02*
X80758428Y-105814857D01*
X80758428Y-105814857D02*
X80758428Y-105433905D01*
X80329857Y-106386286D02*
X80282238Y-106433905D01*
X80282238Y-106433905D02*
X80234619Y-106529143D01*
X80234619Y-106529143D02*
X80234619Y-106767238D01*
X80234619Y-106767238D02*
X80282238Y-106862476D01*
X80282238Y-106862476D02*
X80329857Y-106910095D01*
X80329857Y-106910095D02*
X80425095Y-106957714D01*
X80425095Y-106957714D02*
X80520333Y-106957714D01*
X80520333Y-106957714D02*
X80663190Y-106910095D01*
X80663190Y-106910095D02*
X81234619Y-106338667D01*
X81234619Y-106338667D02*
X81234619Y-106957714D01*
X83679380Y-116419333D02*
X83727000Y-116371714D01*
X83727000Y-116371714D02*
X83774619Y-116228857D01*
X83774619Y-116228857D02*
X83774619Y-116133619D01*
X83774619Y-116133619D02*
X83727000Y-115990762D01*
X83727000Y-115990762D02*
X83631761Y-115895524D01*
X83631761Y-115895524D02*
X83536523Y-115847905D01*
X83536523Y-115847905D02*
X83346047Y-115800286D01*
X83346047Y-115800286D02*
X83203190Y-115800286D01*
X83203190Y-115800286D02*
X83012714Y-115847905D01*
X83012714Y-115847905D02*
X82917476Y-115895524D01*
X82917476Y-115895524D02*
X82822238Y-115990762D01*
X82822238Y-115990762D02*
X82774619Y-116133619D01*
X82774619Y-116133619D02*
X82774619Y-116228857D01*
X82774619Y-116228857D02*
X82822238Y-116371714D01*
X82822238Y-116371714D02*
X82869857Y-116419333D01*
X82774619Y-117324095D02*
X82774619Y-116847905D01*
X82774619Y-116847905D02*
X83250809Y-116800286D01*
X83250809Y-116800286D02*
X83203190Y-116847905D01*
X83203190Y-116847905D02*
X83155571Y-116943143D01*
X83155571Y-116943143D02*
X83155571Y-117181238D01*
X83155571Y-117181238D02*
X83203190Y-117276476D01*
X83203190Y-117276476D02*
X83250809Y-117324095D01*
X83250809Y-117324095D02*
X83346047Y-117371714D01*
X83346047Y-117371714D02*
X83584142Y-117371714D01*
X83584142Y-117371714D02*
X83679380Y-117324095D01*
X83679380Y-117324095D02*
X83727000Y-117276476D01*
X83727000Y-117276476D02*
X83774619Y-117181238D01*
X83774619Y-117181238D02*
X83774619Y-116943143D01*
X83774619Y-116943143D02*
X83727000Y-116847905D01*
X83727000Y-116847905D02*
X83679380Y-116800286D01*
X179170666Y-38054619D02*
X179503999Y-37578428D01*
X179742094Y-38054619D02*
X179742094Y-37054619D01*
X179742094Y-37054619D02*
X179361142Y-37054619D01*
X179361142Y-37054619D02*
X179265904Y-37102238D01*
X179265904Y-37102238D02*
X179218285Y-37149857D01*
X179218285Y-37149857D02*
X179170666Y-37245095D01*
X179170666Y-37245095D02*
X179170666Y-37387952D01*
X179170666Y-37387952D02*
X179218285Y-37483190D01*
X179218285Y-37483190D02*
X179265904Y-37530809D01*
X179265904Y-37530809D02*
X179361142Y-37578428D01*
X179361142Y-37578428D02*
X179742094Y-37578428D01*
X178694475Y-38054619D02*
X178503999Y-38054619D01*
X178503999Y-38054619D02*
X178408761Y-38007000D01*
X178408761Y-38007000D02*
X178361142Y-37959380D01*
X178361142Y-37959380D02*
X178265904Y-37816523D01*
X178265904Y-37816523D02*
X178218285Y-37626047D01*
X178218285Y-37626047D02*
X178218285Y-37245095D01*
X178218285Y-37245095D02*
X178265904Y-37149857D01*
X178265904Y-37149857D02*
X178313523Y-37102238D01*
X178313523Y-37102238D02*
X178408761Y-37054619D01*
X178408761Y-37054619D02*
X178599237Y-37054619D01*
X178599237Y-37054619D02*
X178694475Y-37102238D01*
X178694475Y-37102238D02*
X178742094Y-37149857D01*
X178742094Y-37149857D02*
X178789713Y-37245095D01*
X178789713Y-37245095D02*
X178789713Y-37483190D01*
X178789713Y-37483190D02*
X178742094Y-37578428D01*
X178742094Y-37578428D02*
X178694475Y-37626047D01*
X178694475Y-37626047D02*
X178599237Y-37673666D01*
X178599237Y-37673666D02*
X178408761Y-37673666D01*
X178408761Y-37673666D02*
X178313523Y-37626047D01*
X178313523Y-37626047D02*
X178265904Y-37578428D01*
X178265904Y-37578428D02*
X178218285Y-37483190D01*
X117715380Y-95623142D02*
X117763000Y-95575523D01*
X117763000Y-95575523D02*
X117810619Y-95432666D01*
X117810619Y-95432666D02*
X117810619Y-95337428D01*
X117810619Y-95337428D02*
X117763000Y-95194571D01*
X117763000Y-95194571D02*
X117667761Y-95099333D01*
X117667761Y-95099333D02*
X117572523Y-95051714D01*
X117572523Y-95051714D02*
X117382047Y-95004095D01*
X117382047Y-95004095D02*
X117239190Y-95004095D01*
X117239190Y-95004095D02*
X117048714Y-95051714D01*
X117048714Y-95051714D02*
X116953476Y-95099333D01*
X116953476Y-95099333D02*
X116858238Y-95194571D01*
X116858238Y-95194571D02*
X116810619Y-95337428D01*
X116810619Y-95337428D02*
X116810619Y-95432666D01*
X116810619Y-95432666D02*
X116858238Y-95575523D01*
X116858238Y-95575523D02*
X116905857Y-95623142D01*
X116905857Y-96004095D02*
X116858238Y-96051714D01*
X116858238Y-96051714D02*
X116810619Y-96146952D01*
X116810619Y-96146952D02*
X116810619Y-96385047D01*
X116810619Y-96385047D02*
X116858238Y-96480285D01*
X116858238Y-96480285D02*
X116905857Y-96527904D01*
X116905857Y-96527904D02*
X117001095Y-96575523D01*
X117001095Y-96575523D02*
X117096333Y-96575523D01*
X117096333Y-96575523D02*
X117239190Y-96527904D01*
X117239190Y-96527904D02*
X117810619Y-95956476D01*
X117810619Y-95956476D02*
X117810619Y-96575523D01*
X116905857Y-96956476D02*
X116858238Y-97004095D01*
X116858238Y-97004095D02*
X116810619Y-97099333D01*
X116810619Y-97099333D02*
X116810619Y-97337428D01*
X116810619Y-97337428D02*
X116858238Y-97432666D01*
X116858238Y-97432666D02*
X116905857Y-97480285D01*
X116905857Y-97480285D02*
X117001095Y-97527904D01*
X117001095Y-97527904D02*
X117096333Y-97527904D01*
X117096333Y-97527904D02*
X117239190Y-97480285D01*
X117239190Y-97480285D02*
X117810619Y-96908857D01*
X117810619Y-96908857D02*
X117810619Y-97527904D01*
X78112857Y-88505380D02*
X78160476Y-88553000D01*
X78160476Y-88553000D02*
X78303333Y-88600619D01*
X78303333Y-88600619D02*
X78398571Y-88600619D01*
X78398571Y-88600619D02*
X78541428Y-88553000D01*
X78541428Y-88553000D02*
X78636666Y-88457761D01*
X78636666Y-88457761D02*
X78684285Y-88362523D01*
X78684285Y-88362523D02*
X78731904Y-88172047D01*
X78731904Y-88172047D02*
X78731904Y-88029190D01*
X78731904Y-88029190D02*
X78684285Y-87838714D01*
X78684285Y-87838714D02*
X78636666Y-87743476D01*
X78636666Y-87743476D02*
X78541428Y-87648238D01*
X78541428Y-87648238D02*
X78398571Y-87600619D01*
X78398571Y-87600619D02*
X78303333Y-87600619D01*
X78303333Y-87600619D02*
X78160476Y-87648238D01*
X78160476Y-87648238D02*
X78112857Y-87695857D01*
X77160476Y-88600619D02*
X77731904Y-88600619D01*
X77446190Y-88600619D02*
X77446190Y-87600619D01*
X77446190Y-87600619D02*
X77541428Y-87743476D01*
X77541428Y-87743476D02*
X77636666Y-87838714D01*
X77636666Y-87838714D02*
X77731904Y-87886333D01*
X76541428Y-87600619D02*
X76446190Y-87600619D01*
X76446190Y-87600619D02*
X76350952Y-87648238D01*
X76350952Y-87648238D02*
X76303333Y-87695857D01*
X76303333Y-87695857D02*
X76255714Y-87791095D01*
X76255714Y-87791095D02*
X76208095Y-87981571D01*
X76208095Y-87981571D02*
X76208095Y-88219666D01*
X76208095Y-88219666D02*
X76255714Y-88410142D01*
X76255714Y-88410142D02*
X76303333Y-88505380D01*
X76303333Y-88505380D02*
X76350952Y-88553000D01*
X76350952Y-88553000D02*
X76446190Y-88600619D01*
X76446190Y-88600619D02*
X76541428Y-88600619D01*
X76541428Y-88600619D02*
X76636666Y-88553000D01*
X76636666Y-88553000D02*
X76684285Y-88505380D01*
X76684285Y-88505380D02*
X76731904Y-88410142D01*
X76731904Y-88410142D02*
X76779523Y-88219666D01*
X76779523Y-88219666D02*
X76779523Y-87981571D01*
X76779523Y-87981571D02*
X76731904Y-87791095D01*
X76731904Y-87791095D02*
X76684285Y-87695857D01*
X76684285Y-87695857D02*
X76636666Y-87648238D01*
X76636666Y-87648238D02*
X76541428Y-87600619D01*
X157106857Y-128224619D02*
X157440190Y-127748428D01*
X157678285Y-128224619D02*
X157678285Y-127224619D01*
X157678285Y-127224619D02*
X157297333Y-127224619D01*
X157297333Y-127224619D02*
X157202095Y-127272238D01*
X157202095Y-127272238D02*
X157154476Y-127319857D01*
X157154476Y-127319857D02*
X157106857Y-127415095D01*
X157106857Y-127415095D02*
X157106857Y-127557952D01*
X157106857Y-127557952D02*
X157154476Y-127653190D01*
X157154476Y-127653190D02*
X157202095Y-127700809D01*
X157202095Y-127700809D02*
X157297333Y-127748428D01*
X157297333Y-127748428D02*
X157678285Y-127748428D01*
X156249714Y-127557952D02*
X156249714Y-128224619D01*
X156487809Y-127177000D02*
X156725904Y-127891285D01*
X156725904Y-127891285D02*
X156106857Y-127891285D01*
X155249714Y-127224619D02*
X155725904Y-127224619D01*
X155725904Y-127224619D02*
X155773523Y-127700809D01*
X155773523Y-127700809D02*
X155725904Y-127653190D01*
X155725904Y-127653190D02*
X155630666Y-127605571D01*
X155630666Y-127605571D02*
X155392571Y-127605571D01*
X155392571Y-127605571D02*
X155297333Y-127653190D01*
X155297333Y-127653190D02*
X155249714Y-127700809D01*
X155249714Y-127700809D02*
X155202095Y-127796047D01*
X155202095Y-127796047D02*
X155202095Y-128034142D01*
X155202095Y-128034142D02*
X155249714Y-128129380D01*
X155249714Y-128129380D02*
X155297333Y-128177000D01*
X155297333Y-128177000D02*
X155392571Y-128224619D01*
X155392571Y-128224619D02*
X155630666Y-128224619D01*
X155630666Y-128224619D02*
X155725904Y-128177000D01*
X155725904Y-128177000D02*
X155773523Y-128129380D01*
X84949380Y-134453333D02*
X84997000Y-134405714D01*
X84997000Y-134405714D02*
X85044619Y-134262857D01*
X85044619Y-134262857D02*
X85044619Y-134167619D01*
X85044619Y-134167619D02*
X84997000Y-134024762D01*
X84997000Y-134024762D02*
X84901761Y-133929524D01*
X84901761Y-133929524D02*
X84806523Y-133881905D01*
X84806523Y-133881905D02*
X84616047Y-133834286D01*
X84616047Y-133834286D02*
X84473190Y-133834286D01*
X84473190Y-133834286D02*
X84282714Y-133881905D01*
X84282714Y-133881905D02*
X84187476Y-133929524D01*
X84187476Y-133929524D02*
X84092238Y-134024762D01*
X84092238Y-134024762D02*
X84044619Y-134167619D01*
X84044619Y-134167619D02*
X84044619Y-134262857D01*
X84044619Y-134262857D02*
X84092238Y-134405714D01*
X84092238Y-134405714D02*
X84139857Y-134453333D01*
X84044619Y-134786667D02*
X84044619Y-135453333D01*
X84044619Y-135453333D02*
X85044619Y-135024762D01*
X110952619Y-117975142D02*
X110476428Y-117641809D01*
X110952619Y-117403714D02*
X109952619Y-117403714D01*
X109952619Y-117403714D02*
X109952619Y-117784666D01*
X109952619Y-117784666D02*
X110000238Y-117879904D01*
X110000238Y-117879904D02*
X110047857Y-117927523D01*
X110047857Y-117927523D02*
X110143095Y-117975142D01*
X110143095Y-117975142D02*
X110285952Y-117975142D01*
X110285952Y-117975142D02*
X110381190Y-117927523D01*
X110381190Y-117927523D02*
X110428809Y-117879904D01*
X110428809Y-117879904D02*
X110476428Y-117784666D01*
X110476428Y-117784666D02*
X110476428Y-117403714D01*
X110952619Y-118927523D02*
X110952619Y-118356095D01*
X110952619Y-118641809D02*
X109952619Y-118641809D01*
X109952619Y-118641809D02*
X110095476Y-118546571D01*
X110095476Y-118546571D02*
X110190714Y-118451333D01*
X110190714Y-118451333D02*
X110238333Y-118356095D01*
X109952619Y-119832285D02*
X109952619Y-119356095D01*
X109952619Y-119356095D02*
X110428809Y-119308476D01*
X110428809Y-119308476D02*
X110381190Y-119356095D01*
X110381190Y-119356095D02*
X110333571Y-119451333D01*
X110333571Y-119451333D02*
X110333571Y-119689428D01*
X110333571Y-119689428D02*
X110381190Y-119784666D01*
X110381190Y-119784666D02*
X110428809Y-119832285D01*
X110428809Y-119832285D02*
X110524047Y-119879904D01*
X110524047Y-119879904D02*
X110762142Y-119879904D01*
X110762142Y-119879904D02*
X110857380Y-119832285D01*
X110857380Y-119832285D02*
X110905000Y-119784666D01*
X110905000Y-119784666D02*
X110952619Y-119689428D01*
X110952619Y-119689428D02*
X110952619Y-119451333D01*
X110952619Y-119451333D02*
X110905000Y-119356095D01*
X110905000Y-119356095D02*
X110857380Y-119308476D01*
X78091380Y-46315333D02*
X78139000Y-46267714D01*
X78139000Y-46267714D02*
X78186619Y-46124857D01*
X78186619Y-46124857D02*
X78186619Y-46029619D01*
X78186619Y-46029619D02*
X78139000Y-45886762D01*
X78139000Y-45886762D02*
X78043761Y-45791524D01*
X78043761Y-45791524D02*
X77948523Y-45743905D01*
X77948523Y-45743905D02*
X77758047Y-45696286D01*
X77758047Y-45696286D02*
X77615190Y-45696286D01*
X77615190Y-45696286D02*
X77424714Y-45743905D01*
X77424714Y-45743905D02*
X77329476Y-45791524D01*
X77329476Y-45791524D02*
X77234238Y-45886762D01*
X77234238Y-45886762D02*
X77186619Y-46029619D01*
X77186619Y-46029619D02*
X77186619Y-46124857D01*
X77186619Y-46124857D02*
X77234238Y-46267714D01*
X77234238Y-46267714D02*
X77281857Y-46315333D01*
X78186619Y-47267714D02*
X78186619Y-46696286D01*
X78186619Y-46982000D02*
X77186619Y-46982000D01*
X77186619Y-46982000D02*
X77329476Y-46886762D01*
X77329476Y-46886762D02*
X77424714Y-46791524D01*
X77424714Y-46791524D02*
X77472333Y-46696286D01*
X102750857Y-110952619D02*
X103084190Y-110476428D01*
X103322285Y-110952619D02*
X103322285Y-109952619D01*
X103322285Y-109952619D02*
X102941333Y-109952619D01*
X102941333Y-109952619D02*
X102846095Y-110000238D01*
X102846095Y-110000238D02*
X102798476Y-110047857D01*
X102798476Y-110047857D02*
X102750857Y-110143095D01*
X102750857Y-110143095D02*
X102750857Y-110285952D01*
X102750857Y-110285952D02*
X102798476Y-110381190D01*
X102798476Y-110381190D02*
X102846095Y-110428809D01*
X102846095Y-110428809D02*
X102941333Y-110476428D01*
X102941333Y-110476428D02*
X103322285Y-110476428D01*
X102369904Y-110047857D02*
X102322285Y-110000238D01*
X102322285Y-110000238D02*
X102227047Y-109952619D01*
X102227047Y-109952619D02*
X101988952Y-109952619D01*
X101988952Y-109952619D02*
X101893714Y-110000238D01*
X101893714Y-110000238D02*
X101846095Y-110047857D01*
X101846095Y-110047857D02*
X101798476Y-110143095D01*
X101798476Y-110143095D02*
X101798476Y-110238333D01*
X101798476Y-110238333D02*
X101846095Y-110381190D01*
X101846095Y-110381190D02*
X102417523Y-110952619D01*
X102417523Y-110952619D02*
X101798476Y-110952619D01*
X100941333Y-109952619D02*
X101131809Y-109952619D01*
X101131809Y-109952619D02*
X101227047Y-110000238D01*
X101227047Y-110000238D02*
X101274666Y-110047857D01*
X101274666Y-110047857D02*
X101369904Y-110190714D01*
X101369904Y-110190714D02*
X101417523Y-110381190D01*
X101417523Y-110381190D02*
X101417523Y-110762142D01*
X101417523Y-110762142D02*
X101369904Y-110857380D01*
X101369904Y-110857380D02*
X101322285Y-110905000D01*
X101322285Y-110905000D02*
X101227047Y-110952619D01*
X101227047Y-110952619D02*
X101036571Y-110952619D01*
X101036571Y-110952619D02*
X100941333Y-110905000D01*
X100941333Y-110905000D02*
X100893714Y-110857380D01*
X100893714Y-110857380D02*
X100846095Y-110762142D01*
X100846095Y-110762142D02*
X100846095Y-110524047D01*
X100846095Y-110524047D02*
X100893714Y-110428809D01*
X100893714Y-110428809D02*
X100941333Y-110381190D01*
X100941333Y-110381190D02*
X101036571Y-110333571D01*
X101036571Y-110333571D02*
X101227047Y-110333571D01*
X101227047Y-110333571D02*
X101322285Y-110381190D01*
X101322285Y-110381190D02*
X101369904Y-110428809D01*
X101369904Y-110428809D02*
X101417523Y-110524047D01*
X130764619Y-69969142D02*
X130288428Y-69635809D01*
X130764619Y-69397714D02*
X129764619Y-69397714D01*
X129764619Y-69397714D02*
X129764619Y-69778666D01*
X129764619Y-69778666D02*
X129812238Y-69873904D01*
X129812238Y-69873904D02*
X129859857Y-69921523D01*
X129859857Y-69921523D02*
X129955095Y-69969142D01*
X129955095Y-69969142D02*
X130097952Y-69969142D01*
X130097952Y-69969142D02*
X130193190Y-69921523D01*
X130193190Y-69921523D02*
X130240809Y-69873904D01*
X130240809Y-69873904D02*
X130288428Y-69778666D01*
X130288428Y-69778666D02*
X130288428Y-69397714D01*
X129764619Y-70302476D02*
X129764619Y-70921523D01*
X129764619Y-70921523D02*
X130145571Y-70588190D01*
X130145571Y-70588190D02*
X130145571Y-70731047D01*
X130145571Y-70731047D02*
X130193190Y-70826285D01*
X130193190Y-70826285D02*
X130240809Y-70873904D01*
X130240809Y-70873904D02*
X130336047Y-70921523D01*
X130336047Y-70921523D02*
X130574142Y-70921523D01*
X130574142Y-70921523D02*
X130669380Y-70873904D01*
X130669380Y-70873904D02*
X130717000Y-70826285D01*
X130717000Y-70826285D02*
X130764619Y-70731047D01*
X130764619Y-70731047D02*
X130764619Y-70445333D01*
X130764619Y-70445333D02*
X130717000Y-70350095D01*
X130717000Y-70350095D02*
X130669380Y-70302476D01*
X129859857Y-71302476D02*
X129812238Y-71350095D01*
X129812238Y-71350095D02*
X129764619Y-71445333D01*
X129764619Y-71445333D02*
X129764619Y-71683428D01*
X129764619Y-71683428D02*
X129812238Y-71778666D01*
X129812238Y-71778666D02*
X129859857Y-71826285D01*
X129859857Y-71826285D02*
X129955095Y-71873904D01*
X129955095Y-71873904D02*
X130050333Y-71873904D01*
X130050333Y-71873904D02*
X130193190Y-71826285D01*
X130193190Y-71826285D02*
X130764619Y-71254857D01*
X130764619Y-71254857D02*
X130764619Y-71873904D01*
X100384555Y-130780252D02*
X100432175Y-130732633D01*
X100432175Y-130732633D02*
X100479794Y-130589776D01*
X100479794Y-130589776D02*
X100479794Y-130494538D01*
X100479794Y-130494538D02*
X100432175Y-130351681D01*
X100432175Y-130351681D02*
X100336936Y-130256443D01*
X100336936Y-130256443D02*
X100241698Y-130208824D01*
X100241698Y-130208824D02*
X100051222Y-130161205D01*
X100051222Y-130161205D02*
X99908365Y-130161205D01*
X99908365Y-130161205D02*
X99717889Y-130208824D01*
X99717889Y-130208824D02*
X99622651Y-130256443D01*
X99622651Y-130256443D02*
X99527413Y-130351681D01*
X99527413Y-130351681D02*
X99479794Y-130494538D01*
X99479794Y-130494538D02*
X99479794Y-130589776D01*
X99479794Y-130589776D02*
X99527413Y-130732633D01*
X99527413Y-130732633D02*
X99575032Y-130780252D01*
X100479794Y-131732633D02*
X100479794Y-131161205D01*
X100479794Y-131446919D02*
X99479794Y-131446919D01*
X99479794Y-131446919D02*
X99622651Y-131351681D01*
X99622651Y-131351681D02*
X99717889Y-131256443D01*
X99717889Y-131256443D02*
X99765508Y-131161205D01*
X99908365Y-132304062D02*
X99860746Y-132208824D01*
X99860746Y-132208824D02*
X99813127Y-132161205D01*
X99813127Y-132161205D02*
X99717889Y-132113586D01*
X99717889Y-132113586D02*
X99670270Y-132113586D01*
X99670270Y-132113586D02*
X99575032Y-132161205D01*
X99575032Y-132161205D02*
X99527413Y-132208824D01*
X99527413Y-132208824D02*
X99479794Y-132304062D01*
X99479794Y-132304062D02*
X99479794Y-132494538D01*
X99479794Y-132494538D02*
X99527413Y-132589776D01*
X99527413Y-132589776D02*
X99575032Y-132637395D01*
X99575032Y-132637395D02*
X99670270Y-132685014D01*
X99670270Y-132685014D02*
X99717889Y-132685014D01*
X99717889Y-132685014D02*
X99813127Y-132637395D01*
X99813127Y-132637395D02*
X99860746Y-132589776D01*
X99860746Y-132589776D02*
X99908365Y-132494538D01*
X99908365Y-132494538D02*
X99908365Y-132304062D01*
X99908365Y-132304062D02*
X99955984Y-132208824D01*
X99955984Y-132208824D02*
X100003603Y-132161205D01*
X100003603Y-132161205D02*
X100098841Y-132113586D01*
X100098841Y-132113586D02*
X100289317Y-132113586D01*
X100289317Y-132113586D02*
X100384555Y-132161205D01*
X100384555Y-132161205D02*
X100432175Y-132208824D01*
X100432175Y-132208824D02*
X100479794Y-132304062D01*
X100479794Y-132304062D02*
X100479794Y-132494538D01*
X100479794Y-132494538D02*
X100432175Y-132589776D01*
X100432175Y-132589776D02*
X100384555Y-132637395D01*
X100384555Y-132637395D02*
X100289317Y-132685014D01*
X100289317Y-132685014D02*
X100098841Y-132685014D01*
X100098841Y-132685014D02*
X100003603Y-132637395D01*
X100003603Y-132637395D02*
X99955984Y-132589776D01*
X99955984Y-132589776D02*
X99908365Y-132494538D01*
X177958619Y-39878095D02*
X178768142Y-39878095D01*
X178768142Y-39878095D02*
X178863380Y-39925714D01*
X178863380Y-39925714D02*
X178911000Y-39973333D01*
X178911000Y-39973333D02*
X178958619Y-40068571D01*
X178958619Y-40068571D02*
X178958619Y-40259047D01*
X178958619Y-40259047D02*
X178911000Y-40354285D01*
X178911000Y-40354285D02*
X178863380Y-40401904D01*
X178863380Y-40401904D02*
X178768142Y-40449523D01*
X178768142Y-40449523D02*
X177958619Y-40449523D01*
X177958619Y-40830476D02*
X177958619Y-41449523D01*
X177958619Y-41449523D02*
X178339571Y-41116190D01*
X178339571Y-41116190D02*
X178339571Y-41259047D01*
X178339571Y-41259047D02*
X178387190Y-41354285D01*
X178387190Y-41354285D02*
X178434809Y-41401904D01*
X178434809Y-41401904D02*
X178530047Y-41449523D01*
X178530047Y-41449523D02*
X178768142Y-41449523D01*
X178768142Y-41449523D02*
X178863380Y-41401904D01*
X178863380Y-41401904D02*
X178911000Y-41354285D01*
X178911000Y-41354285D02*
X178958619Y-41259047D01*
X178958619Y-41259047D02*
X178958619Y-40973333D01*
X178958619Y-40973333D02*
X178911000Y-40878095D01*
X178911000Y-40878095D02*
X178863380Y-40830476D01*
X144724285Y-73106619D02*
X144724285Y-72106619D01*
X144724285Y-72106619D02*
X144486190Y-72106619D01*
X144486190Y-72106619D02*
X144343333Y-72154238D01*
X144343333Y-72154238D02*
X144248095Y-72249476D01*
X144248095Y-72249476D02*
X144200476Y-72344714D01*
X144200476Y-72344714D02*
X144152857Y-72535190D01*
X144152857Y-72535190D02*
X144152857Y-72678047D01*
X144152857Y-72678047D02*
X144200476Y-72868523D01*
X144200476Y-72868523D02*
X144248095Y-72963761D01*
X144248095Y-72963761D02*
X144343333Y-73059000D01*
X144343333Y-73059000D02*
X144486190Y-73106619D01*
X144486190Y-73106619D02*
X144724285Y-73106619D01*
X143771904Y-72201857D02*
X143724285Y-72154238D01*
X143724285Y-72154238D02*
X143629047Y-72106619D01*
X143629047Y-72106619D02*
X143390952Y-72106619D01*
X143390952Y-72106619D02*
X143295714Y-72154238D01*
X143295714Y-72154238D02*
X143248095Y-72201857D01*
X143248095Y-72201857D02*
X143200476Y-72297095D01*
X143200476Y-72297095D02*
X143200476Y-72392333D01*
X143200476Y-72392333D02*
X143248095Y-72535190D01*
X143248095Y-72535190D02*
X143819523Y-73106619D01*
X143819523Y-73106619D02*
X143200476Y-73106619D01*
X142724285Y-73106619D02*
X142533809Y-73106619D01*
X142533809Y-73106619D02*
X142438571Y-73059000D01*
X142438571Y-73059000D02*
X142390952Y-73011380D01*
X142390952Y-73011380D02*
X142295714Y-72868523D01*
X142295714Y-72868523D02*
X142248095Y-72678047D01*
X142248095Y-72678047D02*
X142248095Y-72297095D01*
X142248095Y-72297095D02*
X142295714Y-72201857D01*
X142295714Y-72201857D02*
X142343333Y-72154238D01*
X142343333Y-72154238D02*
X142438571Y-72106619D01*
X142438571Y-72106619D02*
X142629047Y-72106619D01*
X142629047Y-72106619D02*
X142724285Y-72154238D01*
X142724285Y-72154238D02*
X142771904Y-72201857D01*
X142771904Y-72201857D02*
X142819523Y-72297095D01*
X142819523Y-72297095D02*
X142819523Y-72535190D01*
X142819523Y-72535190D02*
X142771904Y-72630428D01*
X142771904Y-72630428D02*
X142724285Y-72678047D01*
X142724285Y-72678047D02*
X142629047Y-72725666D01*
X142629047Y-72725666D02*
X142438571Y-72725666D01*
X142438571Y-72725666D02*
X142343333Y-72678047D01*
X142343333Y-72678047D02*
X142295714Y-72630428D01*
X142295714Y-72630428D02*
X142248095Y-72535190D01*
X123906619Y-63809714D02*
X122906619Y-63809714D01*
X122906619Y-63809714D02*
X122906619Y-64047809D01*
X122906619Y-64047809D02*
X122954238Y-64190666D01*
X122954238Y-64190666D02*
X123049476Y-64285904D01*
X123049476Y-64285904D02*
X123144714Y-64333523D01*
X123144714Y-64333523D02*
X123335190Y-64381142D01*
X123335190Y-64381142D02*
X123478047Y-64381142D01*
X123478047Y-64381142D02*
X123668523Y-64333523D01*
X123668523Y-64333523D02*
X123763761Y-64285904D01*
X123763761Y-64285904D02*
X123859000Y-64190666D01*
X123859000Y-64190666D02*
X123906619Y-64047809D01*
X123906619Y-64047809D02*
X123906619Y-63809714D01*
X123906619Y-65333523D02*
X123906619Y-64762095D01*
X123906619Y-65047809D02*
X122906619Y-65047809D01*
X122906619Y-65047809D02*
X123049476Y-64952571D01*
X123049476Y-64952571D02*
X123144714Y-64857333D01*
X123144714Y-64857333D02*
X123192333Y-64762095D01*
X122906619Y-66238285D02*
X122906619Y-65762095D01*
X122906619Y-65762095D02*
X123382809Y-65714476D01*
X123382809Y-65714476D02*
X123335190Y-65762095D01*
X123335190Y-65762095D02*
X123287571Y-65857333D01*
X123287571Y-65857333D02*
X123287571Y-66095428D01*
X123287571Y-66095428D02*
X123335190Y-66190666D01*
X123335190Y-66190666D02*
X123382809Y-66238285D01*
X123382809Y-66238285D02*
X123478047Y-66285904D01*
X123478047Y-66285904D02*
X123716142Y-66285904D01*
X123716142Y-66285904D02*
X123811380Y-66238285D01*
X123811380Y-66238285D02*
X123859000Y-66190666D01*
X123859000Y-66190666D02*
X123906619Y-66095428D01*
X123906619Y-66095428D02*
X123906619Y-65857333D01*
X123906619Y-65857333D02*
X123859000Y-65762095D01*
X123859000Y-65762095D02*
X123811380Y-65714476D01*
X68746666Y-113215380D02*
X68794285Y-113263000D01*
X68794285Y-113263000D02*
X68937142Y-113310619D01*
X68937142Y-113310619D02*
X69032380Y-113310619D01*
X69032380Y-113310619D02*
X69175237Y-113263000D01*
X69175237Y-113263000D02*
X69270475Y-113167761D01*
X69270475Y-113167761D02*
X69318094Y-113072523D01*
X69318094Y-113072523D02*
X69365713Y-112882047D01*
X69365713Y-112882047D02*
X69365713Y-112739190D01*
X69365713Y-112739190D02*
X69318094Y-112548714D01*
X69318094Y-112548714D02*
X69270475Y-112453476D01*
X69270475Y-112453476D02*
X69175237Y-112358238D01*
X69175237Y-112358238D02*
X69032380Y-112310619D01*
X69032380Y-112310619D02*
X68937142Y-112310619D01*
X68937142Y-112310619D02*
X68794285Y-112358238D01*
X68794285Y-112358238D02*
X68746666Y-112405857D01*
X68270475Y-113310619D02*
X68079999Y-113310619D01*
X68079999Y-113310619D02*
X67984761Y-113263000D01*
X67984761Y-113263000D02*
X67937142Y-113215380D01*
X67937142Y-113215380D02*
X67841904Y-113072523D01*
X67841904Y-113072523D02*
X67794285Y-112882047D01*
X67794285Y-112882047D02*
X67794285Y-112501095D01*
X67794285Y-112501095D02*
X67841904Y-112405857D01*
X67841904Y-112405857D02*
X67889523Y-112358238D01*
X67889523Y-112358238D02*
X67984761Y-112310619D01*
X67984761Y-112310619D02*
X68175237Y-112310619D01*
X68175237Y-112310619D02*
X68270475Y-112358238D01*
X68270475Y-112358238D02*
X68318094Y-112405857D01*
X68318094Y-112405857D02*
X68365713Y-112501095D01*
X68365713Y-112501095D02*
X68365713Y-112739190D01*
X68365713Y-112739190D02*
X68318094Y-112834428D01*
X68318094Y-112834428D02*
X68270475Y-112882047D01*
X68270475Y-112882047D02*
X68175237Y-112929666D01*
X68175237Y-112929666D02*
X67984761Y-112929666D01*
X67984761Y-112929666D02*
X67889523Y-112882047D01*
X67889523Y-112882047D02*
X67841904Y-112834428D01*
X67841904Y-112834428D02*
X67794285Y-112739190D01*
X102812357Y-92410619D02*
X103145690Y-91934428D01*
X103383785Y-92410619D02*
X103383785Y-91410619D01*
X103383785Y-91410619D02*
X103002833Y-91410619D01*
X103002833Y-91410619D02*
X102907595Y-91458238D01*
X102907595Y-91458238D02*
X102859976Y-91505857D01*
X102859976Y-91505857D02*
X102812357Y-91601095D01*
X102812357Y-91601095D02*
X102812357Y-91743952D01*
X102812357Y-91743952D02*
X102859976Y-91839190D01*
X102859976Y-91839190D02*
X102907595Y-91886809D01*
X102907595Y-91886809D02*
X103002833Y-91934428D01*
X103002833Y-91934428D02*
X103383785Y-91934428D01*
X102431404Y-91505857D02*
X102383785Y-91458238D01*
X102383785Y-91458238D02*
X102288547Y-91410619D01*
X102288547Y-91410619D02*
X102050452Y-91410619D01*
X102050452Y-91410619D02*
X101955214Y-91458238D01*
X101955214Y-91458238D02*
X101907595Y-91505857D01*
X101907595Y-91505857D02*
X101859976Y-91601095D01*
X101859976Y-91601095D02*
X101859976Y-91696333D01*
X101859976Y-91696333D02*
X101907595Y-91839190D01*
X101907595Y-91839190D02*
X102479023Y-92410619D01*
X102479023Y-92410619D02*
X101859976Y-92410619D01*
X100955214Y-91410619D02*
X101431404Y-91410619D01*
X101431404Y-91410619D02*
X101479023Y-91886809D01*
X101479023Y-91886809D02*
X101431404Y-91839190D01*
X101431404Y-91839190D02*
X101336166Y-91791571D01*
X101336166Y-91791571D02*
X101098071Y-91791571D01*
X101098071Y-91791571D02*
X101002833Y-91839190D01*
X101002833Y-91839190D02*
X100955214Y-91886809D01*
X100955214Y-91886809D02*
X100907595Y-91982047D01*
X100907595Y-91982047D02*
X100907595Y-92220142D01*
X100907595Y-92220142D02*
X100955214Y-92315380D01*
X100955214Y-92315380D02*
X101002833Y-92363000D01*
X101002833Y-92363000D02*
X101098071Y-92410619D01*
X101098071Y-92410619D02*
X101336166Y-92410619D01*
X101336166Y-92410619D02*
X101431404Y-92363000D01*
X101431404Y-92363000D02*
X101479023Y-92315380D01*
X100538619Y-133977142D02*
X100062428Y-133643809D01*
X100538619Y-133405714D02*
X99538619Y-133405714D01*
X99538619Y-133405714D02*
X99538619Y-133786666D01*
X99538619Y-133786666D02*
X99586238Y-133881904D01*
X99586238Y-133881904D02*
X99633857Y-133929523D01*
X99633857Y-133929523D02*
X99729095Y-133977142D01*
X99729095Y-133977142D02*
X99871952Y-133977142D01*
X99871952Y-133977142D02*
X99967190Y-133929523D01*
X99967190Y-133929523D02*
X100014809Y-133881904D01*
X100014809Y-133881904D02*
X100062428Y-133786666D01*
X100062428Y-133786666D02*
X100062428Y-133405714D01*
X100538619Y-134929523D02*
X100538619Y-134358095D01*
X100538619Y-134643809D02*
X99538619Y-134643809D01*
X99538619Y-134643809D02*
X99681476Y-134548571D01*
X99681476Y-134548571D02*
X99776714Y-134453333D01*
X99776714Y-134453333D02*
X99824333Y-134358095D01*
X99538619Y-135262857D02*
X99538619Y-135881904D01*
X99538619Y-135881904D02*
X99919571Y-135548571D01*
X99919571Y-135548571D02*
X99919571Y-135691428D01*
X99919571Y-135691428D02*
X99967190Y-135786666D01*
X99967190Y-135786666D02*
X100014809Y-135834285D01*
X100014809Y-135834285D02*
X100110047Y-135881904D01*
X100110047Y-135881904D02*
X100348142Y-135881904D01*
X100348142Y-135881904D02*
X100443380Y-135834285D01*
X100443380Y-135834285D02*
X100491000Y-135786666D01*
X100491000Y-135786666D02*
X100538619Y-135691428D01*
X100538619Y-135691428D02*
X100538619Y-135405714D01*
X100538619Y-135405714D02*
X100491000Y-135310476D01*
X100491000Y-135310476D02*
X100443380Y-135262857D01*
X100538619Y-64635142D02*
X100062428Y-64301809D01*
X100538619Y-64063714D02*
X99538619Y-64063714D01*
X99538619Y-64063714D02*
X99538619Y-64444666D01*
X99538619Y-64444666D02*
X99586238Y-64539904D01*
X99586238Y-64539904D02*
X99633857Y-64587523D01*
X99633857Y-64587523D02*
X99729095Y-64635142D01*
X99729095Y-64635142D02*
X99871952Y-64635142D01*
X99871952Y-64635142D02*
X99967190Y-64587523D01*
X99967190Y-64587523D02*
X100014809Y-64539904D01*
X100014809Y-64539904D02*
X100062428Y-64444666D01*
X100062428Y-64444666D02*
X100062428Y-64063714D01*
X99633857Y-65016095D02*
X99586238Y-65063714D01*
X99586238Y-65063714D02*
X99538619Y-65158952D01*
X99538619Y-65158952D02*
X99538619Y-65397047D01*
X99538619Y-65397047D02*
X99586238Y-65492285D01*
X99586238Y-65492285D02*
X99633857Y-65539904D01*
X99633857Y-65539904D02*
X99729095Y-65587523D01*
X99729095Y-65587523D02*
X99824333Y-65587523D01*
X99824333Y-65587523D02*
X99967190Y-65539904D01*
X99967190Y-65539904D02*
X100538619Y-64968476D01*
X100538619Y-64968476D02*
X100538619Y-65587523D01*
X99538619Y-66206571D02*
X99538619Y-66301809D01*
X99538619Y-66301809D02*
X99586238Y-66397047D01*
X99586238Y-66397047D02*
X99633857Y-66444666D01*
X99633857Y-66444666D02*
X99729095Y-66492285D01*
X99729095Y-66492285D02*
X99919571Y-66539904D01*
X99919571Y-66539904D02*
X100157666Y-66539904D01*
X100157666Y-66539904D02*
X100348142Y-66492285D01*
X100348142Y-66492285D02*
X100443380Y-66444666D01*
X100443380Y-66444666D02*
X100491000Y-66397047D01*
X100491000Y-66397047D02*
X100538619Y-66301809D01*
X100538619Y-66301809D02*
X100538619Y-66206571D01*
X100538619Y-66206571D02*
X100491000Y-66111333D01*
X100491000Y-66111333D02*
X100443380Y-66063714D01*
X100443380Y-66063714D02*
X100348142Y-66016095D01*
X100348142Y-66016095D02*
X100157666Y-65968476D01*
X100157666Y-65968476D02*
X99919571Y-65968476D01*
X99919571Y-65968476D02*
X99729095Y-66016095D01*
X99729095Y-66016095D02*
X99633857Y-66063714D01*
X99633857Y-66063714D02*
X99586238Y-66111333D01*
X99586238Y-66111333D02*
X99538619Y-66206571D01*
X85298619Y-122039142D02*
X84822428Y-121705809D01*
X85298619Y-121467714D02*
X84298619Y-121467714D01*
X84298619Y-121467714D02*
X84298619Y-121848666D01*
X84298619Y-121848666D02*
X84346238Y-121943904D01*
X84346238Y-121943904D02*
X84393857Y-121991523D01*
X84393857Y-121991523D02*
X84489095Y-122039142D01*
X84489095Y-122039142D02*
X84631952Y-122039142D01*
X84631952Y-122039142D02*
X84727190Y-121991523D01*
X84727190Y-121991523D02*
X84774809Y-121943904D01*
X84774809Y-121943904D02*
X84822428Y-121848666D01*
X84822428Y-121848666D02*
X84822428Y-121467714D01*
X85298619Y-122991523D02*
X85298619Y-122420095D01*
X85298619Y-122705809D02*
X84298619Y-122705809D01*
X84298619Y-122705809D02*
X84441476Y-122610571D01*
X84441476Y-122610571D02*
X84536714Y-122515333D01*
X84536714Y-122515333D02*
X84584333Y-122420095D01*
X84727190Y-123562952D02*
X84679571Y-123467714D01*
X84679571Y-123467714D02*
X84631952Y-123420095D01*
X84631952Y-123420095D02*
X84536714Y-123372476D01*
X84536714Y-123372476D02*
X84489095Y-123372476D01*
X84489095Y-123372476D02*
X84393857Y-123420095D01*
X84393857Y-123420095D02*
X84346238Y-123467714D01*
X84346238Y-123467714D02*
X84298619Y-123562952D01*
X84298619Y-123562952D02*
X84298619Y-123753428D01*
X84298619Y-123753428D02*
X84346238Y-123848666D01*
X84346238Y-123848666D02*
X84393857Y-123896285D01*
X84393857Y-123896285D02*
X84489095Y-123943904D01*
X84489095Y-123943904D02*
X84536714Y-123943904D01*
X84536714Y-123943904D02*
X84631952Y-123896285D01*
X84631952Y-123896285D02*
X84679571Y-123848666D01*
X84679571Y-123848666D02*
X84727190Y-123753428D01*
X84727190Y-123753428D02*
X84727190Y-123562952D01*
X84727190Y-123562952D02*
X84774809Y-123467714D01*
X84774809Y-123467714D02*
X84822428Y-123420095D01*
X84822428Y-123420095D02*
X84917666Y-123372476D01*
X84917666Y-123372476D02*
X85108142Y-123372476D01*
X85108142Y-123372476D02*
X85203380Y-123420095D01*
X85203380Y-123420095D02*
X85251000Y-123467714D01*
X85251000Y-123467714D02*
X85298619Y-123562952D01*
X85298619Y-123562952D02*
X85298619Y-123753428D01*
X85298619Y-123753428D02*
X85251000Y-123848666D01*
X85251000Y-123848666D02*
X85203380Y-123896285D01*
X85203380Y-123896285D02*
X85108142Y-123943904D01*
X85108142Y-123943904D02*
X84917666Y-123943904D01*
X84917666Y-123943904D02*
X84822428Y-123896285D01*
X84822428Y-123896285D02*
X84774809Y-123848666D01*
X84774809Y-123848666D02*
X84727190Y-123753428D01*
X118064619Y-118133905D02*
X117064619Y-118133905D01*
X117064619Y-118133905D02*
X117064619Y-118372000D01*
X117064619Y-118372000D02*
X117112238Y-118514857D01*
X117112238Y-118514857D02*
X117207476Y-118610095D01*
X117207476Y-118610095D02*
X117302714Y-118657714D01*
X117302714Y-118657714D02*
X117493190Y-118705333D01*
X117493190Y-118705333D02*
X117636047Y-118705333D01*
X117636047Y-118705333D02*
X117826523Y-118657714D01*
X117826523Y-118657714D02*
X117921761Y-118610095D01*
X117921761Y-118610095D02*
X118017000Y-118514857D01*
X118017000Y-118514857D02*
X118064619Y-118372000D01*
X118064619Y-118372000D02*
X118064619Y-118133905D01*
X117064619Y-119610095D02*
X117064619Y-119133905D01*
X117064619Y-119133905D02*
X117540809Y-119086286D01*
X117540809Y-119086286D02*
X117493190Y-119133905D01*
X117493190Y-119133905D02*
X117445571Y-119229143D01*
X117445571Y-119229143D02*
X117445571Y-119467238D01*
X117445571Y-119467238D02*
X117493190Y-119562476D01*
X117493190Y-119562476D02*
X117540809Y-119610095D01*
X117540809Y-119610095D02*
X117636047Y-119657714D01*
X117636047Y-119657714D02*
X117874142Y-119657714D01*
X117874142Y-119657714D02*
X117969380Y-119610095D01*
X117969380Y-119610095D02*
X118017000Y-119562476D01*
X118017000Y-119562476D02*
X118064619Y-119467238D01*
X118064619Y-119467238D02*
X118064619Y-119229143D01*
X118064619Y-119229143D02*
X118017000Y-119133905D01*
X118017000Y-119133905D02*
X117969380Y-119086286D01*
X88822619Y-102639905D02*
X87822619Y-102639905D01*
X87822619Y-102639905D02*
X87822619Y-102878000D01*
X87822619Y-102878000D02*
X87870238Y-103020857D01*
X87870238Y-103020857D02*
X87965476Y-103116095D01*
X87965476Y-103116095D02*
X88060714Y-103163714D01*
X88060714Y-103163714D02*
X88251190Y-103211333D01*
X88251190Y-103211333D02*
X88394047Y-103211333D01*
X88394047Y-103211333D02*
X88584523Y-103163714D01*
X88584523Y-103163714D02*
X88679761Y-103116095D01*
X88679761Y-103116095D02*
X88775000Y-103020857D01*
X88775000Y-103020857D02*
X88822619Y-102878000D01*
X88822619Y-102878000D02*
X88822619Y-102639905D01*
X88822619Y-104163714D02*
X88822619Y-103592286D01*
X88822619Y-103878000D02*
X87822619Y-103878000D01*
X87822619Y-103878000D02*
X87965476Y-103782762D01*
X87965476Y-103782762D02*
X88060714Y-103687524D01*
X88060714Y-103687524D02*
X88108333Y-103592286D01*
X172534857Y-42785380D02*
X172582476Y-42833000D01*
X172582476Y-42833000D02*
X172725333Y-42880619D01*
X172725333Y-42880619D02*
X172820571Y-42880619D01*
X172820571Y-42880619D02*
X172963428Y-42833000D01*
X172963428Y-42833000D02*
X173058666Y-42737761D01*
X173058666Y-42737761D02*
X173106285Y-42642523D01*
X173106285Y-42642523D02*
X173153904Y-42452047D01*
X173153904Y-42452047D02*
X173153904Y-42309190D01*
X173153904Y-42309190D02*
X173106285Y-42118714D01*
X173106285Y-42118714D02*
X173058666Y-42023476D01*
X173058666Y-42023476D02*
X172963428Y-41928238D01*
X172963428Y-41928238D02*
X172820571Y-41880619D01*
X172820571Y-41880619D02*
X172725333Y-41880619D01*
X172725333Y-41880619D02*
X172582476Y-41928238D01*
X172582476Y-41928238D02*
X172534857Y-41975857D01*
X172153904Y-41975857D02*
X172106285Y-41928238D01*
X172106285Y-41928238D02*
X172011047Y-41880619D01*
X172011047Y-41880619D02*
X171772952Y-41880619D01*
X171772952Y-41880619D02*
X171677714Y-41928238D01*
X171677714Y-41928238D02*
X171630095Y-41975857D01*
X171630095Y-41975857D02*
X171582476Y-42071095D01*
X171582476Y-42071095D02*
X171582476Y-42166333D01*
X171582476Y-42166333D02*
X171630095Y-42309190D01*
X171630095Y-42309190D02*
X172201523Y-42880619D01*
X172201523Y-42880619D02*
X171582476Y-42880619D01*
X171106285Y-42880619D02*
X170915809Y-42880619D01*
X170915809Y-42880619D02*
X170820571Y-42833000D01*
X170820571Y-42833000D02*
X170772952Y-42785380D01*
X170772952Y-42785380D02*
X170677714Y-42642523D01*
X170677714Y-42642523D02*
X170630095Y-42452047D01*
X170630095Y-42452047D02*
X170630095Y-42071095D01*
X170630095Y-42071095D02*
X170677714Y-41975857D01*
X170677714Y-41975857D02*
X170725333Y-41928238D01*
X170725333Y-41928238D02*
X170820571Y-41880619D01*
X170820571Y-41880619D02*
X171011047Y-41880619D01*
X171011047Y-41880619D02*
X171106285Y-41928238D01*
X171106285Y-41928238D02*
X171153904Y-41975857D01*
X171153904Y-41975857D02*
X171201523Y-42071095D01*
X171201523Y-42071095D02*
X171201523Y-42309190D01*
X171201523Y-42309190D02*
X171153904Y-42404428D01*
X171153904Y-42404428D02*
X171106285Y-42452047D01*
X171106285Y-42452047D02*
X171011047Y-42499666D01*
X171011047Y-42499666D02*
X170820571Y-42499666D01*
X170820571Y-42499666D02*
X170725333Y-42452047D01*
X170725333Y-42452047D02*
X170677714Y-42404428D01*
X170677714Y-42404428D02*
X170630095Y-42309190D01*
X121800857Y-135749380D02*
X121848476Y-135797000D01*
X121848476Y-135797000D02*
X121991333Y-135844619D01*
X121991333Y-135844619D02*
X122086571Y-135844619D01*
X122086571Y-135844619D02*
X122229428Y-135797000D01*
X122229428Y-135797000D02*
X122324666Y-135701761D01*
X122324666Y-135701761D02*
X122372285Y-135606523D01*
X122372285Y-135606523D02*
X122419904Y-135416047D01*
X122419904Y-135416047D02*
X122419904Y-135273190D01*
X122419904Y-135273190D02*
X122372285Y-135082714D01*
X122372285Y-135082714D02*
X122324666Y-134987476D01*
X122324666Y-134987476D02*
X122229428Y-134892238D01*
X122229428Y-134892238D02*
X122086571Y-134844619D01*
X122086571Y-134844619D02*
X121991333Y-134844619D01*
X121991333Y-134844619D02*
X121848476Y-134892238D01*
X121848476Y-134892238D02*
X121800857Y-134939857D01*
X120848476Y-135844619D02*
X121419904Y-135844619D01*
X121134190Y-135844619D02*
X121134190Y-134844619D01*
X121134190Y-134844619D02*
X121229428Y-134987476D01*
X121229428Y-134987476D02*
X121324666Y-135082714D01*
X121324666Y-135082714D02*
X121419904Y-135130333D01*
X119991333Y-135177952D02*
X119991333Y-135844619D01*
X120229428Y-134797000D02*
X120467523Y-135511285D01*
X120467523Y-135511285D02*
X119848476Y-135511285D01*
X79414666Y-42118619D02*
X79747999Y-41642428D01*
X79986094Y-42118619D02*
X79986094Y-41118619D01*
X79986094Y-41118619D02*
X79605142Y-41118619D01*
X79605142Y-41118619D02*
X79509904Y-41166238D01*
X79509904Y-41166238D02*
X79462285Y-41213857D01*
X79462285Y-41213857D02*
X79414666Y-41309095D01*
X79414666Y-41309095D02*
X79414666Y-41451952D01*
X79414666Y-41451952D02*
X79462285Y-41547190D01*
X79462285Y-41547190D02*
X79509904Y-41594809D01*
X79509904Y-41594809D02*
X79605142Y-41642428D01*
X79605142Y-41642428D02*
X79986094Y-41642428D01*
X78509904Y-41118619D02*
X78986094Y-41118619D01*
X78986094Y-41118619D02*
X79033713Y-41594809D01*
X79033713Y-41594809D02*
X78986094Y-41547190D01*
X78986094Y-41547190D02*
X78890856Y-41499571D01*
X78890856Y-41499571D02*
X78652761Y-41499571D01*
X78652761Y-41499571D02*
X78557523Y-41547190D01*
X78557523Y-41547190D02*
X78509904Y-41594809D01*
X78509904Y-41594809D02*
X78462285Y-41690047D01*
X78462285Y-41690047D02*
X78462285Y-41928142D01*
X78462285Y-41928142D02*
X78509904Y-42023380D01*
X78509904Y-42023380D02*
X78557523Y-42071000D01*
X78557523Y-42071000D02*
X78652761Y-42118619D01*
X78652761Y-42118619D02*
X78890856Y-42118619D01*
X78890856Y-42118619D02*
X78986094Y-42071000D01*
X78986094Y-42071000D02*
X79033713Y-42023380D01*
X108317380Y-117975142D02*
X108365000Y-117927523D01*
X108365000Y-117927523D02*
X108412619Y-117784666D01*
X108412619Y-117784666D02*
X108412619Y-117689428D01*
X108412619Y-117689428D02*
X108365000Y-117546571D01*
X108365000Y-117546571D02*
X108269761Y-117451333D01*
X108269761Y-117451333D02*
X108174523Y-117403714D01*
X108174523Y-117403714D02*
X107984047Y-117356095D01*
X107984047Y-117356095D02*
X107841190Y-117356095D01*
X107841190Y-117356095D02*
X107650714Y-117403714D01*
X107650714Y-117403714D02*
X107555476Y-117451333D01*
X107555476Y-117451333D02*
X107460238Y-117546571D01*
X107460238Y-117546571D02*
X107412619Y-117689428D01*
X107412619Y-117689428D02*
X107412619Y-117784666D01*
X107412619Y-117784666D02*
X107460238Y-117927523D01*
X107460238Y-117927523D02*
X107507857Y-117975142D01*
X108412619Y-118927523D02*
X108412619Y-118356095D01*
X108412619Y-118641809D02*
X107412619Y-118641809D01*
X107412619Y-118641809D02*
X107555476Y-118546571D01*
X107555476Y-118546571D02*
X107650714Y-118451333D01*
X107650714Y-118451333D02*
X107698333Y-118356095D01*
X107412619Y-119784666D02*
X107412619Y-119594190D01*
X107412619Y-119594190D02*
X107460238Y-119498952D01*
X107460238Y-119498952D02*
X107507857Y-119451333D01*
X107507857Y-119451333D02*
X107650714Y-119356095D01*
X107650714Y-119356095D02*
X107841190Y-119308476D01*
X107841190Y-119308476D02*
X108222142Y-119308476D01*
X108222142Y-119308476D02*
X108317380Y-119356095D01*
X108317380Y-119356095D02*
X108365000Y-119403714D01*
X108365000Y-119403714D02*
X108412619Y-119498952D01*
X108412619Y-119498952D02*
X108412619Y-119689428D01*
X108412619Y-119689428D02*
X108365000Y-119784666D01*
X108365000Y-119784666D02*
X108317380Y-119832285D01*
X108317380Y-119832285D02*
X108222142Y-119879904D01*
X108222142Y-119879904D02*
X107984047Y-119879904D01*
X107984047Y-119879904D02*
X107888809Y-119832285D01*
X107888809Y-119832285D02*
X107841190Y-119784666D01*
X107841190Y-119784666D02*
X107793571Y-119689428D01*
X107793571Y-119689428D02*
X107793571Y-119498952D01*
X107793571Y-119498952D02*
X107841190Y-119403714D01*
X107841190Y-119403714D02*
X107888809Y-119356095D01*
X107888809Y-119356095D02*
X107984047Y-119308476D01*
X120350619Y-53967142D02*
X119874428Y-53633809D01*
X120350619Y-53395714D02*
X119350619Y-53395714D01*
X119350619Y-53395714D02*
X119350619Y-53776666D01*
X119350619Y-53776666D02*
X119398238Y-53871904D01*
X119398238Y-53871904D02*
X119445857Y-53919523D01*
X119445857Y-53919523D02*
X119541095Y-53967142D01*
X119541095Y-53967142D02*
X119683952Y-53967142D01*
X119683952Y-53967142D02*
X119779190Y-53919523D01*
X119779190Y-53919523D02*
X119826809Y-53871904D01*
X119826809Y-53871904D02*
X119874428Y-53776666D01*
X119874428Y-53776666D02*
X119874428Y-53395714D01*
X119445857Y-54348095D02*
X119398238Y-54395714D01*
X119398238Y-54395714D02*
X119350619Y-54490952D01*
X119350619Y-54490952D02*
X119350619Y-54729047D01*
X119350619Y-54729047D02*
X119398238Y-54824285D01*
X119398238Y-54824285D02*
X119445857Y-54871904D01*
X119445857Y-54871904D02*
X119541095Y-54919523D01*
X119541095Y-54919523D02*
X119636333Y-54919523D01*
X119636333Y-54919523D02*
X119779190Y-54871904D01*
X119779190Y-54871904D02*
X120350619Y-54300476D01*
X120350619Y-54300476D02*
X120350619Y-54919523D01*
X119350619Y-55252857D02*
X119350619Y-55919523D01*
X119350619Y-55919523D02*
X120350619Y-55490952D01*
X109451166Y-80175380D02*
X109498785Y-80223000D01*
X109498785Y-80223000D02*
X109641642Y-80270619D01*
X109641642Y-80270619D02*
X109736880Y-80270619D01*
X109736880Y-80270619D02*
X109879737Y-80223000D01*
X109879737Y-80223000D02*
X109974975Y-80127761D01*
X109974975Y-80127761D02*
X110022594Y-80032523D01*
X110022594Y-80032523D02*
X110070213Y-79842047D01*
X110070213Y-79842047D02*
X110070213Y-79699190D01*
X110070213Y-79699190D02*
X110022594Y-79508714D01*
X110022594Y-79508714D02*
X109974975Y-79413476D01*
X109974975Y-79413476D02*
X109879737Y-79318238D01*
X109879737Y-79318238D02*
X109736880Y-79270619D01*
X109736880Y-79270619D02*
X109641642Y-79270619D01*
X109641642Y-79270619D02*
X109498785Y-79318238D01*
X109498785Y-79318238D02*
X109451166Y-79365857D01*
X108594023Y-79603952D02*
X108594023Y-80270619D01*
X108832118Y-79223000D02*
X109070213Y-79937285D01*
X109070213Y-79937285D02*
X108451166Y-79937285D01*
X64396857Y-76821380D02*
X64444476Y-76869000D01*
X64444476Y-76869000D02*
X64587333Y-76916619D01*
X64587333Y-76916619D02*
X64682571Y-76916619D01*
X64682571Y-76916619D02*
X64825428Y-76869000D01*
X64825428Y-76869000D02*
X64920666Y-76773761D01*
X64920666Y-76773761D02*
X64968285Y-76678523D01*
X64968285Y-76678523D02*
X65015904Y-76488047D01*
X65015904Y-76488047D02*
X65015904Y-76345190D01*
X65015904Y-76345190D02*
X64968285Y-76154714D01*
X64968285Y-76154714D02*
X64920666Y-76059476D01*
X64920666Y-76059476D02*
X64825428Y-75964238D01*
X64825428Y-75964238D02*
X64682571Y-75916619D01*
X64682571Y-75916619D02*
X64587333Y-75916619D01*
X64587333Y-75916619D02*
X64444476Y-75964238D01*
X64444476Y-75964238D02*
X64396857Y-76011857D01*
X64063523Y-75916619D02*
X63444476Y-75916619D01*
X63444476Y-75916619D02*
X63777809Y-76297571D01*
X63777809Y-76297571D02*
X63634952Y-76297571D01*
X63634952Y-76297571D02*
X63539714Y-76345190D01*
X63539714Y-76345190D02*
X63492095Y-76392809D01*
X63492095Y-76392809D02*
X63444476Y-76488047D01*
X63444476Y-76488047D02*
X63444476Y-76726142D01*
X63444476Y-76726142D02*
X63492095Y-76821380D01*
X63492095Y-76821380D02*
X63539714Y-76869000D01*
X63539714Y-76869000D02*
X63634952Y-76916619D01*
X63634952Y-76916619D02*
X63920666Y-76916619D01*
X63920666Y-76916619D02*
X64015904Y-76869000D01*
X64015904Y-76869000D02*
X64063523Y-76821380D01*
X62825428Y-75916619D02*
X62730190Y-75916619D01*
X62730190Y-75916619D02*
X62634952Y-75964238D01*
X62634952Y-75964238D02*
X62587333Y-76011857D01*
X62587333Y-76011857D02*
X62539714Y-76107095D01*
X62539714Y-76107095D02*
X62492095Y-76297571D01*
X62492095Y-76297571D02*
X62492095Y-76535666D01*
X62492095Y-76535666D02*
X62539714Y-76726142D01*
X62539714Y-76726142D02*
X62587333Y-76821380D01*
X62587333Y-76821380D02*
X62634952Y-76869000D01*
X62634952Y-76869000D02*
X62730190Y-76916619D01*
X62730190Y-76916619D02*
X62825428Y-76916619D01*
X62825428Y-76916619D02*
X62920666Y-76869000D01*
X62920666Y-76869000D02*
X62968285Y-76821380D01*
X62968285Y-76821380D02*
X63015904Y-76726142D01*
X63015904Y-76726142D02*
X63063523Y-76535666D01*
X63063523Y-76535666D02*
X63063523Y-76297571D01*
X63063523Y-76297571D02*
X63015904Y-76107095D01*
X63015904Y-76107095D02*
X62968285Y-76011857D01*
X62968285Y-76011857D02*
X62920666Y-75964238D01*
X62920666Y-75964238D02*
X62825428Y-75916619D01*
X115411238Y-72185857D02*
X115506476Y-72138238D01*
X115506476Y-72138238D02*
X115601714Y-72043000D01*
X115601714Y-72043000D02*
X115744571Y-71900142D01*
X115744571Y-71900142D02*
X115839809Y-71852523D01*
X115839809Y-71852523D02*
X115935047Y-71852523D01*
X115887428Y-72090619D02*
X115982666Y-72043000D01*
X115982666Y-72043000D02*
X116077904Y-71947761D01*
X116077904Y-71947761D02*
X116125523Y-71757285D01*
X116125523Y-71757285D02*
X116125523Y-71423952D01*
X116125523Y-71423952D02*
X116077904Y-71233476D01*
X116077904Y-71233476D02*
X115982666Y-71138238D01*
X115982666Y-71138238D02*
X115887428Y-71090619D01*
X115887428Y-71090619D02*
X115696952Y-71090619D01*
X115696952Y-71090619D02*
X115601714Y-71138238D01*
X115601714Y-71138238D02*
X115506476Y-71233476D01*
X115506476Y-71233476D02*
X115458857Y-71423952D01*
X115458857Y-71423952D02*
X115458857Y-71757285D01*
X115458857Y-71757285D02*
X115506476Y-71947761D01*
X115506476Y-71947761D02*
X115601714Y-72043000D01*
X115601714Y-72043000D02*
X115696952Y-72090619D01*
X115696952Y-72090619D02*
X115887428Y-72090619D01*
X115077904Y-71185857D02*
X115030285Y-71138238D01*
X115030285Y-71138238D02*
X114935047Y-71090619D01*
X114935047Y-71090619D02*
X114696952Y-71090619D01*
X114696952Y-71090619D02*
X114601714Y-71138238D01*
X114601714Y-71138238D02*
X114554095Y-71185857D01*
X114554095Y-71185857D02*
X114506476Y-71281095D01*
X114506476Y-71281095D02*
X114506476Y-71376333D01*
X114506476Y-71376333D02*
X114554095Y-71519190D01*
X114554095Y-71519190D02*
X115125523Y-72090619D01*
X115125523Y-72090619D02*
X114506476Y-72090619D01*
X99004285Y-106634619D02*
X99004285Y-105634619D01*
X99004285Y-105634619D02*
X98766190Y-105634619D01*
X98766190Y-105634619D02*
X98623333Y-105682238D01*
X98623333Y-105682238D02*
X98528095Y-105777476D01*
X98528095Y-105777476D02*
X98480476Y-105872714D01*
X98480476Y-105872714D02*
X98432857Y-106063190D01*
X98432857Y-106063190D02*
X98432857Y-106206047D01*
X98432857Y-106206047D02*
X98480476Y-106396523D01*
X98480476Y-106396523D02*
X98528095Y-106491761D01*
X98528095Y-106491761D02*
X98623333Y-106587000D01*
X98623333Y-106587000D02*
X98766190Y-106634619D01*
X98766190Y-106634619D02*
X99004285Y-106634619D01*
X97480476Y-106634619D02*
X98051904Y-106634619D01*
X97766190Y-106634619D02*
X97766190Y-105634619D01*
X97766190Y-105634619D02*
X97861428Y-105777476D01*
X97861428Y-105777476D02*
X97956666Y-105872714D01*
X97956666Y-105872714D02*
X98051904Y-105920333D01*
X96528095Y-106634619D02*
X97099523Y-106634619D01*
X96813809Y-106634619D02*
X96813809Y-105634619D01*
X96813809Y-105634619D02*
X96909047Y-105777476D01*
X96909047Y-105777476D02*
X97004285Y-105872714D01*
X97004285Y-105872714D02*
X97099523Y-105920333D01*
X78112857Y-80377380D02*
X78160476Y-80425000D01*
X78160476Y-80425000D02*
X78303333Y-80472619D01*
X78303333Y-80472619D02*
X78398571Y-80472619D01*
X78398571Y-80472619D02*
X78541428Y-80425000D01*
X78541428Y-80425000D02*
X78636666Y-80329761D01*
X78636666Y-80329761D02*
X78684285Y-80234523D01*
X78684285Y-80234523D02*
X78731904Y-80044047D01*
X78731904Y-80044047D02*
X78731904Y-79901190D01*
X78731904Y-79901190D02*
X78684285Y-79710714D01*
X78684285Y-79710714D02*
X78636666Y-79615476D01*
X78636666Y-79615476D02*
X78541428Y-79520238D01*
X78541428Y-79520238D02*
X78398571Y-79472619D01*
X78398571Y-79472619D02*
X78303333Y-79472619D01*
X78303333Y-79472619D02*
X78160476Y-79520238D01*
X78160476Y-79520238D02*
X78112857Y-79567857D01*
X77160476Y-80472619D02*
X77731904Y-80472619D01*
X77446190Y-80472619D02*
X77446190Y-79472619D01*
X77446190Y-79472619D02*
X77541428Y-79615476D01*
X77541428Y-79615476D02*
X77636666Y-79710714D01*
X77636666Y-79710714D02*
X77731904Y-79758333D01*
X76208095Y-80472619D02*
X76779523Y-80472619D01*
X76493809Y-80472619D02*
X76493809Y-79472619D01*
X76493809Y-79472619D02*
X76589047Y-79615476D01*
X76589047Y-79615476D02*
X76684285Y-79710714D01*
X76684285Y-79710714D02*
X76779523Y-79758333D01*
X78112857Y-83774619D02*
X78446190Y-83298428D01*
X78684285Y-83774619D02*
X78684285Y-82774619D01*
X78684285Y-82774619D02*
X78303333Y-82774619D01*
X78303333Y-82774619D02*
X78208095Y-82822238D01*
X78208095Y-82822238D02*
X78160476Y-82869857D01*
X78160476Y-82869857D02*
X78112857Y-82965095D01*
X78112857Y-82965095D02*
X78112857Y-83107952D01*
X78112857Y-83107952D02*
X78160476Y-83203190D01*
X78160476Y-83203190D02*
X78208095Y-83250809D01*
X78208095Y-83250809D02*
X78303333Y-83298428D01*
X78303333Y-83298428D02*
X78684285Y-83298428D01*
X77160476Y-83774619D02*
X77731904Y-83774619D01*
X77446190Y-83774619D02*
X77446190Y-82774619D01*
X77446190Y-82774619D02*
X77541428Y-82917476D01*
X77541428Y-82917476D02*
X77636666Y-83012714D01*
X77636666Y-83012714D02*
X77731904Y-83060333D01*
X76541428Y-82774619D02*
X76446190Y-82774619D01*
X76446190Y-82774619D02*
X76350952Y-82822238D01*
X76350952Y-82822238D02*
X76303333Y-82869857D01*
X76303333Y-82869857D02*
X76255714Y-82965095D01*
X76255714Y-82965095D02*
X76208095Y-83155571D01*
X76208095Y-83155571D02*
X76208095Y-83393666D01*
X76208095Y-83393666D02*
X76255714Y-83584142D01*
X76255714Y-83584142D02*
X76303333Y-83679380D01*
X76303333Y-83679380D02*
X76350952Y-83727000D01*
X76350952Y-83727000D02*
X76446190Y-83774619D01*
X76446190Y-83774619D02*
X76541428Y-83774619D01*
X76541428Y-83774619D02*
X76636666Y-83727000D01*
X76636666Y-83727000D02*
X76684285Y-83679380D01*
X76684285Y-83679380D02*
X76731904Y-83584142D01*
X76731904Y-83584142D02*
X76779523Y-83393666D01*
X76779523Y-83393666D02*
X76779523Y-83155571D01*
X76779523Y-83155571D02*
X76731904Y-82965095D01*
X76731904Y-82965095D02*
X76684285Y-82869857D01*
X76684285Y-82869857D02*
X76636666Y-82822238D01*
X76636666Y-82822238D02*
X76541428Y-82774619D01*
X102750857Y-74122619D02*
X103084190Y-73646428D01*
X103322285Y-74122619D02*
X103322285Y-73122619D01*
X103322285Y-73122619D02*
X102941333Y-73122619D01*
X102941333Y-73122619D02*
X102846095Y-73170238D01*
X102846095Y-73170238D02*
X102798476Y-73217857D01*
X102798476Y-73217857D02*
X102750857Y-73313095D01*
X102750857Y-73313095D02*
X102750857Y-73455952D01*
X102750857Y-73455952D02*
X102798476Y-73551190D01*
X102798476Y-73551190D02*
X102846095Y-73598809D01*
X102846095Y-73598809D02*
X102941333Y-73646428D01*
X102941333Y-73646428D02*
X103322285Y-73646428D01*
X102369904Y-73217857D02*
X102322285Y-73170238D01*
X102322285Y-73170238D02*
X102227047Y-73122619D01*
X102227047Y-73122619D02*
X101988952Y-73122619D01*
X101988952Y-73122619D02*
X101893714Y-73170238D01*
X101893714Y-73170238D02*
X101846095Y-73217857D01*
X101846095Y-73217857D02*
X101798476Y-73313095D01*
X101798476Y-73313095D02*
X101798476Y-73408333D01*
X101798476Y-73408333D02*
X101846095Y-73551190D01*
X101846095Y-73551190D02*
X102417523Y-74122619D01*
X102417523Y-74122619D02*
X101798476Y-74122619D01*
X100941333Y-73455952D02*
X100941333Y-74122619D01*
X101179428Y-73075000D02*
X101417523Y-73789285D01*
X101417523Y-73789285D02*
X100798476Y-73789285D01*
X104644619Y-101780642D02*
X104168428Y-101447309D01*
X104644619Y-101209214D02*
X103644619Y-101209214D01*
X103644619Y-101209214D02*
X103644619Y-101590166D01*
X103644619Y-101590166D02*
X103692238Y-101685404D01*
X103692238Y-101685404D02*
X103739857Y-101733023D01*
X103739857Y-101733023D02*
X103835095Y-101780642D01*
X103835095Y-101780642D02*
X103977952Y-101780642D01*
X103977952Y-101780642D02*
X104073190Y-101733023D01*
X104073190Y-101733023D02*
X104120809Y-101685404D01*
X104120809Y-101685404D02*
X104168428Y-101590166D01*
X104168428Y-101590166D02*
X104168428Y-101209214D01*
X103739857Y-102161595D02*
X103692238Y-102209214D01*
X103692238Y-102209214D02*
X103644619Y-102304452D01*
X103644619Y-102304452D02*
X103644619Y-102542547D01*
X103644619Y-102542547D02*
X103692238Y-102637785D01*
X103692238Y-102637785D02*
X103739857Y-102685404D01*
X103739857Y-102685404D02*
X103835095Y-102733023D01*
X103835095Y-102733023D02*
X103930333Y-102733023D01*
X103930333Y-102733023D02*
X104073190Y-102685404D01*
X104073190Y-102685404D02*
X104644619Y-102113976D01*
X104644619Y-102113976D02*
X104644619Y-102733023D01*
X103739857Y-103113976D02*
X103692238Y-103161595D01*
X103692238Y-103161595D02*
X103644619Y-103256833D01*
X103644619Y-103256833D02*
X103644619Y-103494928D01*
X103644619Y-103494928D02*
X103692238Y-103590166D01*
X103692238Y-103590166D02*
X103739857Y-103637785D01*
X103739857Y-103637785D02*
X103835095Y-103685404D01*
X103835095Y-103685404D02*
X103930333Y-103685404D01*
X103930333Y-103685404D02*
X104073190Y-103637785D01*
X104073190Y-103637785D02*
X104644619Y-103066357D01*
X104644619Y-103066357D02*
X104644619Y-103685404D01*
X197707857Y-99354761D02*
X197660238Y-99259523D01*
X197660238Y-99259523D02*
X197565000Y-99164285D01*
X197565000Y-99164285D02*
X197422142Y-99021428D01*
X197422142Y-99021428D02*
X197374523Y-98926190D01*
X197374523Y-98926190D02*
X197374523Y-98830952D01*
X197612619Y-98878571D02*
X197565000Y-98783333D01*
X197565000Y-98783333D02*
X197469761Y-98688095D01*
X197469761Y-98688095D02*
X197279285Y-98640476D01*
X197279285Y-98640476D02*
X196945952Y-98640476D01*
X196945952Y-98640476D02*
X196755476Y-98688095D01*
X196755476Y-98688095D02*
X196660238Y-98783333D01*
X196660238Y-98783333D02*
X196612619Y-98878571D01*
X196612619Y-98878571D02*
X196612619Y-99069047D01*
X196612619Y-99069047D02*
X196660238Y-99164285D01*
X196660238Y-99164285D02*
X196755476Y-99259523D01*
X196755476Y-99259523D02*
X196945952Y-99307142D01*
X196945952Y-99307142D02*
X197279285Y-99307142D01*
X197279285Y-99307142D02*
X197469761Y-99259523D01*
X197469761Y-99259523D02*
X197565000Y-99164285D01*
X197565000Y-99164285D02*
X197612619Y-99069047D01*
X197612619Y-99069047D02*
X197612619Y-98878571D01*
X196612619Y-99640476D02*
X196612619Y-100307142D01*
X196612619Y-100307142D02*
X197612619Y-99878571D01*
X127484094Y-131018619D02*
X127484094Y-130018619D01*
X127484094Y-130018619D02*
X127245999Y-130018619D01*
X127245999Y-130018619D02*
X127103142Y-130066238D01*
X127103142Y-130066238D02*
X127007904Y-130161476D01*
X127007904Y-130161476D02*
X126960285Y-130256714D01*
X126960285Y-130256714D02*
X126912666Y-130447190D01*
X126912666Y-130447190D02*
X126912666Y-130590047D01*
X126912666Y-130590047D02*
X126960285Y-130780523D01*
X126960285Y-130780523D02*
X127007904Y-130875761D01*
X127007904Y-130875761D02*
X127103142Y-130971000D01*
X127103142Y-130971000D02*
X127245999Y-131018619D01*
X127245999Y-131018619D02*
X127484094Y-131018619D01*
X126055523Y-130018619D02*
X126245999Y-130018619D01*
X126245999Y-130018619D02*
X126341237Y-130066238D01*
X126341237Y-130066238D02*
X126388856Y-130113857D01*
X126388856Y-130113857D02*
X126484094Y-130256714D01*
X126484094Y-130256714D02*
X126531713Y-130447190D01*
X126531713Y-130447190D02*
X126531713Y-130828142D01*
X126531713Y-130828142D02*
X126484094Y-130923380D01*
X126484094Y-130923380D02*
X126436475Y-130971000D01*
X126436475Y-130971000D02*
X126341237Y-131018619D01*
X126341237Y-131018619D02*
X126150761Y-131018619D01*
X126150761Y-131018619D02*
X126055523Y-130971000D01*
X126055523Y-130971000D02*
X126007904Y-130923380D01*
X126007904Y-130923380D02*
X125960285Y-130828142D01*
X125960285Y-130828142D02*
X125960285Y-130590047D01*
X125960285Y-130590047D02*
X126007904Y-130494809D01*
X126007904Y-130494809D02*
X126055523Y-130447190D01*
X126055523Y-130447190D02*
X126150761Y-130399571D01*
X126150761Y-130399571D02*
X126341237Y-130399571D01*
X126341237Y-130399571D02*
X126436475Y-130447190D01*
X126436475Y-130447190D02*
X126484094Y-130494809D01*
X126484094Y-130494809D02*
X126531713Y-130590047D01*
X65740619Y-45299333D02*
X65264428Y-44966000D01*
X65740619Y-44727905D02*
X64740619Y-44727905D01*
X64740619Y-44727905D02*
X64740619Y-45108857D01*
X64740619Y-45108857D02*
X64788238Y-45204095D01*
X64788238Y-45204095D02*
X64835857Y-45251714D01*
X64835857Y-45251714D02*
X64931095Y-45299333D01*
X64931095Y-45299333D02*
X65073952Y-45299333D01*
X65073952Y-45299333D02*
X65169190Y-45251714D01*
X65169190Y-45251714D02*
X65216809Y-45204095D01*
X65216809Y-45204095D02*
X65264428Y-45108857D01*
X65264428Y-45108857D02*
X65264428Y-44727905D01*
X64740619Y-45632667D02*
X64740619Y-46299333D01*
X64740619Y-46299333D02*
X65740619Y-45870762D01*
X197707857Y-72454761D02*
X197660238Y-72359523D01*
X197660238Y-72359523D02*
X197565000Y-72264285D01*
X197565000Y-72264285D02*
X197422142Y-72121428D01*
X197422142Y-72121428D02*
X197374523Y-72026190D01*
X197374523Y-72026190D02*
X197374523Y-71930952D01*
X197612619Y-71978571D02*
X197565000Y-71883333D01*
X197565000Y-71883333D02*
X197469761Y-71788095D01*
X197469761Y-71788095D02*
X197279285Y-71740476D01*
X197279285Y-71740476D02*
X196945952Y-71740476D01*
X196945952Y-71740476D02*
X196755476Y-71788095D01*
X196755476Y-71788095D02*
X196660238Y-71883333D01*
X196660238Y-71883333D02*
X196612619Y-71978571D01*
X196612619Y-71978571D02*
X196612619Y-72169047D01*
X196612619Y-72169047D02*
X196660238Y-72264285D01*
X196660238Y-72264285D02*
X196755476Y-72359523D01*
X196755476Y-72359523D02*
X196945952Y-72407142D01*
X196945952Y-72407142D02*
X197279285Y-72407142D01*
X197279285Y-72407142D02*
X197469761Y-72359523D01*
X197469761Y-72359523D02*
X197565000Y-72264285D01*
X197565000Y-72264285D02*
X197612619Y-72169047D01*
X197612619Y-72169047D02*
X197612619Y-71978571D01*
X196612619Y-73264285D02*
X196612619Y-73073809D01*
X196612619Y-73073809D02*
X196660238Y-72978571D01*
X196660238Y-72978571D02*
X196707857Y-72930952D01*
X196707857Y-72930952D02*
X196850714Y-72835714D01*
X196850714Y-72835714D02*
X197041190Y-72788095D01*
X197041190Y-72788095D02*
X197422142Y-72788095D01*
X197422142Y-72788095D02*
X197517380Y-72835714D01*
X197517380Y-72835714D02*
X197565000Y-72883333D01*
X197565000Y-72883333D02*
X197612619Y-72978571D01*
X197612619Y-72978571D02*
X197612619Y-73169047D01*
X197612619Y-73169047D02*
X197565000Y-73264285D01*
X197565000Y-73264285D02*
X197517380Y-73311904D01*
X197517380Y-73311904D02*
X197422142Y-73359523D01*
X197422142Y-73359523D02*
X197184047Y-73359523D01*
X197184047Y-73359523D02*
X197088809Y-73311904D01*
X197088809Y-73311904D02*
X197041190Y-73264285D01*
X197041190Y-73264285D02*
X196993571Y-73169047D01*
X196993571Y-73169047D02*
X196993571Y-72978571D01*
X196993571Y-72978571D02*
X197041190Y-72883333D01*
X197041190Y-72883333D02*
X197088809Y-72835714D01*
X197088809Y-72835714D02*
X197184047Y-72788095D01*
X157360857Y-132796619D02*
X157694190Y-132320428D01*
X157932285Y-132796619D02*
X157932285Y-131796619D01*
X157932285Y-131796619D02*
X157551333Y-131796619D01*
X157551333Y-131796619D02*
X157456095Y-131844238D01*
X157456095Y-131844238D02*
X157408476Y-131891857D01*
X157408476Y-131891857D02*
X157360857Y-131987095D01*
X157360857Y-131987095D02*
X157360857Y-132129952D01*
X157360857Y-132129952D02*
X157408476Y-132225190D01*
X157408476Y-132225190D02*
X157456095Y-132272809D01*
X157456095Y-132272809D02*
X157551333Y-132320428D01*
X157551333Y-132320428D02*
X157932285Y-132320428D01*
X156503714Y-132129952D02*
X156503714Y-132796619D01*
X156741809Y-131749000D02*
X156979904Y-132463285D01*
X156979904Y-132463285D02*
X156360857Y-132463285D01*
X155551333Y-132129952D02*
X155551333Y-132796619D01*
X155789428Y-131749000D02*
X156027523Y-132463285D01*
X156027523Y-132463285D02*
X155408476Y-132463285D01*
X103004857Y-81234619D02*
X103338190Y-80758428D01*
X103576285Y-81234619D02*
X103576285Y-80234619D01*
X103576285Y-80234619D02*
X103195333Y-80234619D01*
X103195333Y-80234619D02*
X103100095Y-80282238D01*
X103100095Y-80282238D02*
X103052476Y-80329857D01*
X103052476Y-80329857D02*
X103004857Y-80425095D01*
X103004857Y-80425095D02*
X103004857Y-80567952D01*
X103004857Y-80567952D02*
X103052476Y-80663190D01*
X103052476Y-80663190D02*
X103100095Y-80710809D01*
X103100095Y-80710809D02*
X103195333Y-80758428D01*
X103195333Y-80758428D02*
X103576285Y-80758428D01*
X102623904Y-80329857D02*
X102576285Y-80282238D01*
X102576285Y-80282238D02*
X102481047Y-80234619D01*
X102481047Y-80234619D02*
X102242952Y-80234619D01*
X102242952Y-80234619D02*
X102147714Y-80282238D01*
X102147714Y-80282238D02*
X102100095Y-80329857D01*
X102100095Y-80329857D02*
X102052476Y-80425095D01*
X102052476Y-80425095D02*
X102052476Y-80520333D01*
X102052476Y-80520333D02*
X102100095Y-80663190D01*
X102100095Y-80663190D02*
X102671523Y-81234619D01*
X102671523Y-81234619D02*
X102052476Y-81234619D01*
X101100095Y-81234619D02*
X101671523Y-81234619D01*
X101385809Y-81234619D02*
X101385809Y-80234619D01*
X101385809Y-80234619D02*
X101481047Y-80377476D01*
X101481047Y-80377476D02*
X101576285Y-80472714D01*
X101576285Y-80472714D02*
X101671523Y-80520333D01*
X120509380Y-117975142D02*
X120557000Y-117927523D01*
X120557000Y-117927523D02*
X120604619Y-117784666D01*
X120604619Y-117784666D02*
X120604619Y-117689428D01*
X120604619Y-117689428D02*
X120557000Y-117546571D01*
X120557000Y-117546571D02*
X120461761Y-117451333D01*
X120461761Y-117451333D02*
X120366523Y-117403714D01*
X120366523Y-117403714D02*
X120176047Y-117356095D01*
X120176047Y-117356095D02*
X120033190Y-117356095D01*
X120033190Y-117356095D02*
X119842714Y-117403714D01*
X119842714Y-117403714D02*
X119747476Y-117451333D01*
X119747476Y-117451333D02*
X119652238Y-117546571D01*
X119652238Y-117546571D02*
X119604619Y-117689428D01*
X119604619Y-117689428D02*
X119604619Y-117784666D01*
X119604619Y-117784666D02*
X119652238Y-117927523D01*
X119652238Y-117927523D02*
X119699857Y-117975142D01*
X120604619Y-118927523D02*
X120604619Y-118356095D01*
X120604619Y-118641809D02*
X119604619Y-118641809D01*
X119604619Y-118641809D02*
X119747476Y-118546571D01*
X119747476Y-118546571D02*
X119842714Y-118451333D01*
X119842714Y-118451333D02*
X119890333Y-118356095D01*
X119604619Y-119260857D02*
X119604619Y-119879904D01*
X119604619Y-119879904D02*
X119985571Y-119546571D01*
X119985571Y-119546571D02*
X119985571Y-119689428D01*
X119985571Y-119689428D02*
X120033190Y-119784666D01*
X120033190Y-119784666D02*
X120080809Y-119832285D01*
X120080809Y-119832285D02*
X120176047Y-119879904D01*
X120176047Y-119879904D02*
X120414142Y-119879904D01*
X120414142Y-119879904D02*
X120509380Y-119832285D01*
X120509380Y-119832285D02*
X120557000Y-119784666D01*
X120557000Y-119784666D02*
X120604619Y-119689428D01*
X120604619Y-119689428D02*
X120604619Y-119403714D01*
X120604619Y-119403714D02*
X120557000Y-119308476D01*
X120557000Y-119308476D02*
X120509380Y-119260857D01*
X123906619Y-69715142D02*
X123430428Y-69381809D01*
X123906619Y-69143714D02*
X122906619Y-69143714D01*
X122906619Y-69143714D02*
X122906619Y-69524666D01*
X122906619Y-69524666D02*
X122954238Y-69619904D01*
X122954238Y-69619904D02*
X123001857Y-69667523D01*
X123001857Y-69667523D02*
X123097095Y-69715142D01*
X123097095Y-69715142D02*
X123239952Y-69715142D01*
X123239952Y-69715142D02*
X123335190Y-69667523D01*
X123335190Y-69667523D02*
X123382809Y-69619904D01*
X123382809Y-69619904D02*
X123430428Y-69524666D01*
X123430428Y-69524666D02*
X123430428Y-69143714D01*
X122906619Y-70048476D02*
X122906619Y-70667523D01*
X122906619Y-70667523D02*
X123287571Y-70334190D01*
X123287571Y-70334190D02*
X123287571Y-70477047D01*
X123287571Y-70477047D02*
X123335190Y-70572285D01*
X123335190Y-70572285D02*
X123382809Y-70619904D01*
X123382809Y-70619904D02*
X123478047Y-70667523D01*
X123478047Y-70667523D02*
X123716142Y-70667523D01*
X123716142Y-70667523D02*
X123811380Y-70619904D01*
X123811380Y-70619904D02*
X123859000Y-70572285D01*
X123859000Y-70572285D02*
X123906619Y-70477047D01*
X123906619Y-70477047D02*
X123906619Y-70191333D01*
X123906619Y-70191333D02*
X123859000Y-70096095D01*
X123859000Y-70096095D02*
X123811380Y-70048476D01*
X123239952Y-71524666D02*
X123906619Y-71524666D01*
X122859000Y-71286571D02*
X123573285Y-71048476D01*
X123573285Y-71048476D02*
X123573285Y-71667523D01*
X144470285Y-52532619D02*
X144470285Y-51532619D01*
X144470285Y-51532619D02*
X144232190Y-51532619D01*
X144232190Y-51532619D02*
X144089333Y-51580238D01*
X144089333Y-51580238D02*
X143994095Y-51675476D01*
X143994095Y-51675476D02*
X143946476Y-51770714D01*
X143946476Y-51770714D02*
X143898857Y-51961190D01*
X143898857Y-51961190D02*
X143898857Y-52104047D01*
X143898857Y-52104047D02*
X143946476Y-52294523D01*
X143946476Y-52294523D02*
X143994095Y-52389761D01*
X143994095Y-52389761D02*
X144089333Y-52485000D01*
X144089333Y-52485000D02*
X144232190Y-52532619D01*
X144232190Y-52532619D02*
X144470285Y-52532619D01*
X143517904Y-51627857D02*
X143470285Y-51580238D01*
X143470285Y-51580238D02*
X143375047Y-51532619D01*
X143375047Y-51532619D02*
X143136952Y-51532619D01*
X143136952Y-51532619D02*
X143041714Y-51580238D01*
X143041714Y-51580238D02*
X142994095Y-51627857D01*
X142994095Y-51627857D02*
X142946476Y-51723095D01*
X142946476Y-51723095D02*
X142946476Y-51818333D01*
X142946476Y-51818333D02*
X142994095Y-51961190D01*
X142994095Y-51961190D02*
X143565523Y-52532619D01*
X143565523Y-52532619D02*
X142946476Y-52532619D01*
X142375047Y-51961190D02*
X142470285Y-51913571D01*
X142470285Y-51913571D02*
X142517904Y-51865952D01*
X142517904Y-51865952D02*
X142565523Y-51770714D01*
X142565523Y-51770714D02*
X142565523Y-51723095D01*
X142565523Y-51723095D02*
X142517904Y-51627857D01*
X142517904Y-51627857D02*
X142470285Y-51580238D01*
X142470285Y-51580238D02*
X142375047Y-51532619D01*
X142375047Y-51532619D02*
X142184571Y-51532619D01*
X142184571Y-51532619D02*
X142089333Y-51580238D01*
X142089333Y-51580238D02*
X142041714Y-51627857D01*
X142041714Y-51627857D02*
X141994095Y-51723095D01*
X141994095Y-51723095D02*
X141994095Y-51770714D01*
X141994095Y-51770714D02*
X142041714Y-51865952D01*
X142041714Y-51865952D02*
X142089333Y-51913571D01*
X142089333Y-51913571D02*
X142184571Y-51961190D01*
X142184571Y-51961190D02*
X142375047Y-51961190D01*
X142375047Y-51961190D02*
X142470285Y-52008809D01*
X142470285Y-52008809D02*
X142517904Y-52056428D01*
X142517904Y-52056428D02*
X142565523Y-52151666D01*
X142565523Y-52151666D02*
X142565523Y-52342142D01*
X142565523Y-52342142D02*
X142517904Y-52437380D01*
X142517904Y-52437380D02*
X142470285Y-52485000D01*
X142470285Y-52485000D02*
X142375047Y-52532619D01*
X142375047Y-52532619D02*
X142184571Y-52532619D01*
X142184571Y-52532619D02*
X142089333Y-52485000D01*
X142089333Y-52485000D02*
X142041714Y-52437380D01*
X142041714Y-52437380D02*
X141994095Y-52342142D01*
X141994095Y-52342142D02*
X141994095Y-52151666D01*
X141994095Y-52151666D02*
X142041714Y-52056428D01*
X142041714Y-52056428D02*
X142089333Y-52008809D01*
X142089333Y-52008809D02*
X142184571Y-51961190D01*
X108846857Y-135590619D02*
X109180190Y-135114428D01*
X109418285Y-135590619D02*
X109418285Y-134590619D01*
X109418285Y-134590619D02*
X109037333Y-134590619D01*
X109037333Y-134590619D02*
X108942095Y-134638238D01*
X108942095Y-134638238D02*
X108894476Y-134685857D01*
X108894476Y-134685857D02*
X108846857Y-134781095D01*
X108846857Y-134781095D02*
X108846857Y-134923952D01*
X108846857Y-134923952D02*
X108894476Y-135019190D01*
X108894476Y-135019190D02*
X108942095Y-135066809D01*
X108942095Y-135066809D02*
X109037333Y-135114428D01*
X109037333Y-135114428D02*
X109418285Y-135114428D01*
X107894476Y-135590619D02*
X108465904Y-135590619D01*
X108180190Y-135590619D02*
X108180190Y-134590619D01*
X108180190Y-134590619D02*
X108275428Y-134733476D01*
X108275428Y-134733476D02*
X108370666Y-134828714D01*
X108370666Y-134828714D02*
X108465904Y-134876333D01*
X107037333Y-134590619D02*
X107227809Y-134590619D01*
X107227809Y-134590619D02*
X107323047Y-134638238D01*
X107323047Y-134638238D02*
X107370666Y-134685857D01*
X107370666Y-134685857D02*
X107465904Y-134828714D01*
X107465904Y-134828714D02*
X107513523Y-135019190D01*
X107513523Y-135019190D02*
X107513523Y-135400142D01*
X107513523Y-135400142D02*
X107465904Y-135495380D01*
X107465904Y-135495380D02*
X107418285Y-135543000D01*
X107418285Y-135543000D02*
X107323047Y-135590619D01*
X107323047Y-135590619D02*
X107132571Y-135590619D01*
X107132571Y-135590619D02*
X107037333Y-135543000D01*
X107037333Y-135543000D02*
X106989714Y-135495380D01*
X106989714Y-135495380D02*
X106942095Y-135400142D01*
X106942095Y-135400142D02*
X106942095Y-135162047D01*
X106942095Y-135162047D02*
X106989714Y-135066809D01*
X106989714Y-135066809D02*
X107037333Y-135019190D01*
X107037333Y-135019190D02*
X107132571Y-134971571D01*
X107132571Y-134971571D02*
X107323047Y-134971571D01*
X107323047Y-134971571D02*
X107418285Y-135019190D01*
X107418285Y-135019190D02*
X107465904Y-135066809D01*
X107465904Y-135066809D02*
X107513523Y-135162047D01*
X120255380Y-59301142D02*
X120303000Y-59253523D01*
X120303000Y-59253523D02*
X120350619Y-59110666D01*
X120350619Y-59110666D02*
X120350619Y-59015428D01*
X120350619Y-59015428D02*
X120303000Y-58872571D01*
X120303000Y-58872571D02*
X120207761Y-58777333D01*
X120207761Y-58777333D02*
X120112523Y-58729714D01*
X120112523Y-58729714D02*
X119922047Y-58682095D01*
X119922047Y-58682095D02*
X119779190Y-58682095D01*
X119779190Y-58682095D02*
X119588714Y-58729714D01*
X119588714Y-58729714D02*
X119493476Y-58777333D01*
X119493476Y-58777333D02*
X119398238Y-58872571D01*
X119398238Y-58872571D02*
X119350619Y-59015428D01*
X119350619Y-59015428D02*
X119350619Y-59110666D01*
X119350619Y-59110666D02*
X119398238Y-59253523D01*
X119398238Y-59253523D02*
X119445857Y-59301142D01*
X119445857Y-59682095D02*
X119398238Y-59729714D01*
X119398238Y-59729714D02*
X119350619Y-59824952D01*
X119350619Y-59824952D02*
X119350619Y-60063047D01*
X119350619Y-60063047D02*
X119398238Y-60158285D01*
X119398238Y-60158285D02*
X119445857Y-60205904D01*
X119445857Y-60205904D02*
X119541095Y-60253523D01*
X119541095Y-60253523D02*
X119636333Y-60253523D01*
X119636333Y-60253523D02*
X119779190Y-60205904D01*
X119779190Y-60205904D02*
X120350619Y-59634476D01*
X120350619Y-59634476D02*
X120350619Y-60253523D01*
X120350619Y-61205904D02*
X120350619Y-60634476D01*
X120350619Y-60920190D02*
X119350619Y-60920190D01*
X119350619Y-60920190D02*
X119493476Y-60824952D01*
X119493476Y-60824952D02*
X119588714Y-60729714D01*
X119588714Y-60729714D02*
X119636333Y-60634476D01*
X145740285Y-117048619D02*
X145740285Y-116048619D01*
X145740285Y-116048619D02*
X145502190Y-116048619D01*
X145502190Y-116048619D02*
X145359333Y-116096238D01*
X145359333Y-116096238D02*
X145264095Y-116191476D01*
X145264095Y-116191476D02*
X145216476Y-116286714D01*
X145216476Y-116286714D02*
X145168857Y-116477190D01*
X145168857Y-116477190D02*
X145168857Y-116620047D01*
X145168857Y-116620047D02*
X145216476Y-116810523D01*
X145216476Y-116810523D02*
X145264095Y-116905761D01*
X145264095Y-116905761D02*
X145359333Y-117001000D01*
X145359333Y-117001000D02*
X145502190Y-117048619D01*
X145502190Y-117048619D02*
X145740285Y-117048619D01*
X144835523Y-116048619D02*
X144216476Y-116048619D01*
X144216476Y-116048619D02*
X144549809Y-116429571D01*
X144549809Y-116429571D02*
X144406952Y-116429571D01*
X144406952Y-116429571D02*
X144311714Y-116477190D01*
X144311714Y-116477190D02*
X144264095Y-116524809D01*
X144264095Y-116524809D02*
X144216476Y-116620047D01*
X144216476Y-116620047D02*
X144216476Y-116858142D01*
X144216476Y-116858142D02*
X144264095Y-116953380D01*
X144264095Y-116953380D02*
X144311714Y-117001000D01*
X144311714Y-117001000D02*
X144406952Y-117048619D01*
X144406952Y-117048619D02*
X144692666Y-117048619D01*
X144692666Y-117048619D02*
X144787904Y-117001000D01*
X144787904Y-117001000D02*
X144835523Y-116953380D01*
X143264095Y-117048619D02*
X143835523Y-117048619D01*
X143549809Y-117048619D02*
X143549809Y-116048619D01*
X143549809Y-116048619D02*
X143645047Y-116191476D01*
X143645047Y-116191476D02*
X143740285Y-116286714D01*
X143740285Y-116286714D02*
X143835523Y-116334333D01*
X111894857Y-131177380D02*
X111942476Y-131225000D01*
X111942476Y-131225000D02*
X112085333Y-131272619D01*
X112085333Y-131272619D02*
X112180571Y-131272619D01*
X112180571Y-131272619D02*
X112323428Y-131225000D01*
X112323428Y-131225000D02*
X112418666Y-131129761D01*
X112418666Y-131129761D02*
X112466285Y-131034523D01*
X112466285Y-131034523D02*
X112513904Y-130844047D01*
X112513904Y-130844047D02*
X112513904Y-130701190D01*
X112513904Y-130701190D02*
X112466285Y-130510714D01*
X112466285Y-130510714D02*
X112418666Y-130415476D01*
X112418666Y-130415476D02*
X112323428Y-130320238D01*
X112323428Y-130320238D02*
X112180571Y-130272619D01*
X112180571Y-130272619D02*
X112085333Y-130272619D01*
X112085333Y-130272619D02*
X111942476Y-130320238D01*
X111942476Y-130320238D02*
X111894857Y-130367857D01*
X110942476Y-131272619D02*
X111513904Y-131272619D01*
X111228190Y-131272619D02*
X111228190Y-130272619D01*
X111228190Y-130272619D02*
X111323428Y-130415476D01*
X111323428Y-130415476D02*
X111418666Y-130510714D01*
X111418666Y-130510714D02*
X111513904Y-130558333D01*
X110609142Y-130272619D02*
X109942476Y-130272619D01*
X109942476Y-130272619D02*
X110371047Y-131272619D01*
X123652619Y-113593714D02*
X122652619Y-113593714D01*
X122652619Y-113593714D02*
X122652619Y-113831809D01*
X122652619Y-113831809D02*
X122700238Y-113974666D01*
X122700238Y-113974666D02*
X122795476Y-114069904D01*
X122795476Y-114069904D02*
X122890714Y-114117523D01*
X122890714Y-114117523D02*
X123081190Y-114165142D01*
X123081190Y-114165142D02*
X123224047Y-114165142D01*
X123224047Y-114165142D02*
X123414523Y-114117523D01*
X123414523Y-114117523D02*
X123509761Y-114069904D01*
X123509761Y-114069904D02*
X123605000Y-113974666D01*
X123605000Y-113974666D02*
X123652619Y-113831809D01*
X123652619Y-113831809D02*
X123652619Y-113593714D01*
X123652619Y-115117523D02*
X123652619Y-114546095D01*
X123652619Y-114831809D02*
X122652619Y-114831809D01*
X122652619Y-114831809D02*
X122795476Y-114736571D01*
X122795476Y-114736571D02*
X122890714Y-114641333D01*
X122890714Y-114641333D02*
X122938333Y-114546095D01*
X122652619Y-115450857D02*
X122652619Y-116069904D01*
X122652619Y-116069904D02*
X123033571Y-115736571D01*
X123033571Y-115736571D02*
X123033571Y-115879428D01*
X123033571Y-115879428D02*
X123081190Y-115974666D01*
X123081190Y-115974666D02*
X123128809Y-116022285D01*
X123128809Y-116022285D02*
X123224047Y-116069904D01*
X123224047Y-116069904D02*
X123462142Y-116069904D01*
X123462142Y-116069904D02*
X123557380Y-116022285D01*
X123557380Y-116022285D02*
X123605000Y-115974666D01*
X123605000Y-115974666D02*
X123652619Y-115879428D01*
X123652619Y-115879428D02*
X123652619Y-115593714D01*
X123652619Y-115593714D02*
X123605000Y-115498476D01*
X123605000Y-115498476D02*
X123557380Y-115450857D01*
X77128666Y-86060619D02*
X77461999Y-85584428D01*
X77700094Y-86060619D02*
X77700094Y-85060619D01*
X77700094Y-85060619D02*
X77319142Y-85060619D01*
X77319142Y-85060619D02*
X77223904Y-85108238D01*
X77223904Y-85108238D02*
X77176285Y-85155857D01*
X77176285Y-85155857D02*
X77128666Y-85251095D01*
X77128666Y-85251095D02*
X77128666Y-85393952D01*
X77128666Y-85393952D02*
X77176285Y-85489190D01*
X77176285Y-85489190D02*
X77223904Y-85536809D01*
X77223904Y-85536809D02*
X77319142Y-85584428D01*
X77319142Y-85584428D02*
X77700094Y-85584428D01*
X76557237Y-85489190D02*
X76652475Y-85441571D01*
X76652475Y-85441571D02*
X76700094Y-85393952D01*
X76700094Y-85393952D02*
X76747713Y-85298714D01*
X76747713Y-85298714D02*
X76747713Y-85251095D01*
X76747713Y-85251095D02*
X76700094Y-85155857D01*
X76700094Y-85155857D02*
X76652475Y-85108238D01*
X76652475Y-85108238D02*
X76557237Y-85060619D01*
X76557237Y-85060619D02*
X76366761Y-85060619D01*
X76366761Y-85060619D02*
X76271523Y-85108238D01*
X76271523Y-85108238D02*
X76223904Y-85155857D01*
X76223904Y-85155857D02*
X76176285Y-85251095D01*
X76176285Y-85251095D02*
X76176285Y-85298714D01*
X76176285Y-85298714D02*
X76223904Y-85393952D01*
X76223904Y-85393952D02*
X76271523Y-85441571D01*
X76271523Y-85441571D02*
X76366761Y-85489190D01*
X76366761Y-85489190D02*
X76557237Y-85489190D01*
X76557237Y-85489190D02*
X76652475Y-85536809D01*
X76652475Y-85536809D02*
X76700094Y-85584428D01*
X76700094Y-85584428D02*
X76747713Y-85679666D01*
X76747713Y-85679666D02*
X76747713Y-85870142D01*
X76747713Y-85870142D02*
X76700094Y-85965380D01*
X76700094Y-85965380D02*
X76652475Y-86013000D01*
X76652475Y-86013000D02*
X76557237Y-86060619D01*
X76557237Y-86060619D02*
X76366761Y-86060619D01*
X76366761Y-86060619D02*
X76271523Y-86013000D01*
X76271523Y-86013000D02*
X76223904Y-85965380D01*
X76223904Y-85965380D02*
X76176285Y-85870142D01*
X76176285Y-85870142D02*
X76176285Y-85679666D01*
X76176285Y-85679666D02*
X76223904Y-85584428D01*
X76223904Y-85584428D02*
X76271523Y-85536809D01*
X76271523Y-85536809D02*
X76366761Y-85489190D01*
X81234619Y-101179333D02*
X80758428Y-100846000D01*
X81234619Y-100607905D02*
X80234619Y-100607905D01*
X80234619Y-100607905D02*
X80234619Y-100988857D01*
X80234619Y-100988857D02*
X80282238Y-101084095D01*
X80282238Y-101084095D02*
X80329857Y-101131714D01*
X80329857Y-101131714D02*
X80425095Y-101179333D01*
X80425095Y-101179333D02*
X80567952Y-101179333D01*
X80567952Y-101179333D02*
X80663190Y-101131714D01*
X80663190Y-101131714D02*
X80710809Y-101084095D01*
X80710809Y-101084095D02*
X80758428Y-100988857D01*
X80758428Y-100988857D02*
X80758428Y-100607905D01*
X80234619Y-101512667D02*
X80234619Y-102131714D01*
X80234619Y-102131714D02*
X80615571Y-101798381D01*
X80615571Y-101798381D02*
X80615571Y-101941238D01*
X80615571Y-101941238D02*
X80663190Y-102036476D01*
X80663190Y-102036476D02*
X80710809Y-102084095D01*
X80710809Y-102084095D02*
X80806047Y-102131714D01*
X80806047Y-102131714D02*
X81044142Y-102131714D01*
X81044142Y-102131714D02*
X81139380Y-102084095D01*
X81139380Y-102084095D02*
X81187000Y-102036476D01*
X81187000Y-102036476D02*
X81234619Y-101941238D01*
X81234619Y-101941238D02*
X81234619Y-101655524D01*
X81234619Y-101655524D02*
X81187000Y-101560286D01*
X81187000Y-101560286D02*
X81139380Y-101512667D01*
X115157238Y-80821857D02*
X115252476Y-80774238D01*
X115252476Y-80774238D02*
X115347714Y-80679000D01*
X115347714Y-80679000D02*
X115490571Y-80536142D01*
X115490571Y-80536142D02*
X115585809Y-80488523D01*
X115585809Y-80488523D02*
X115681047Y-80488523D01*
X115633428Y-80726619D02*
X115728666Y-80679000D01*
X115728666Y-80679000D02*
X115823904Y-80583761D01*
X115823904Y-80583761D02*
X115871523Y-80393285D01*
X115871523Y-80393285D02*
X115871523Y-80059952D01*
X115871523Y-80059952D02*
X115823904Y-79869476D01*
X115823904Y-79869476D02*
X115728666Y-79774238D01*
X115728666Y-79774238D02*
X115633428Y-79726619D01*
X115633428Y-79726619D02*
X115442952Y-79726619D01*
X115442952Y-79726619D02*
X115347714Y-79774238D01*
X115347714Y-79774238D02*
X115252476Y-79869476D01*
X115252476Y-79869476D02*
X115204857Y-80059952D01*
X115204857Y-80059952D02*
X115204857Y-80393285D01*
X115204857Y-80393285D02*
X115252476Y-80583761D01*
X115252476Y-80583761D02*
X115347714Y-80679000D01*
X115347714Y-80679000D02*
X115442952Y-80726619D01*
X115442952Y-80726619D02*
X115633428Y-80726619D01*
X114871523Y-79726619D02*
X114252476Y-79726619D01*
X114252476Y-79726619D02*
X114585809Y-80107571D01*
X114585809Y-80107571D02*
X114442952Y-80107571D01*
X114442952Y-80107571D02*
X114347714Y-80155190D01*
X114347714Y-80155190D02*
X114300095Y-80202809D01*
X114300095Y-80202809D02*
X114252476Y-80298047D01*
X114252476Y-80298047D02*
X114252476Y-80536142D01*
X114252476Y-80536142D02*
X114300095Y-80631380D01*
X114300095Y-80631380D02*
X114347714Y-80679000D01*
X114347714Y-80679000D02*
X114442952Y-80726619D01*
X114442952Y-80726619D02*
X114728666Y-80726619D01*
X114728666Y-80726619D02*
X114823904Y-80679000D01*
X114823904Y-80679000D02*
X114871523Y-80631380D01*
X131018619Y-47363142D02*
X130542428Y-47029809D01*
X131018619Y-46791714D02*
X130018619Y-46791714D01*
X130018619Y-46791714D02*
X130018619Y-47172666D01*
X130018619Y-47172666D02*
X130066238Y-47267904D01*
X130066238Y-47267904D02*
X130113857Y-47315523D01*
X130113857Y-47315523D02*
X130209095Y-47363142D01*
X130209095Y-47363142D02*
X130351952Y-47363142D01*
X130351952Y-47363142D02*
X130447190Y-47315523D01*
X130447190Y-47315523D02*
X130494809Y-47267904D01*
X130494809Y-47267904D02*
X130542428Y-47172666D01*
X130542428Y-47172666D02*
X130542428Y-46791714D01*
X130018619Y-47696476D02*
X130018619Y-48315523D01*
X130018619Y-48315523D02*
X130399571Y-47982190D01*
X130399571Y-47982190D02*
X130399571Y-48125047D01*
X130399571Y-48125047D02*
X130447190Y-48220285D01*
X130447190Y-48220285D02*
X130494809Y-48267904D01*
X130494809Y-48267904D02*
X130590047Y-48315523D01*
X130590047Y-48315523D02*
X130828142Y-48315523D01*
X130828142Y-48315523D02*
X130923380Y-48267904D01*
X130923380Y-48267904D02*
X130971000Y-48220285D01*
X130971000Y-48220285D02*
X131018619Y-48125047D01*
X131018619Y-48125047D02*
X131018619Y-47839333D01*
X131018619Y-47839333D02*
X130971000Y-47744095D01*
X130971000Y-47744095D02*
X130923380Y-47696476D01*
X131018619Y-49267904D02*
X131018619Y-48696476D01*
X131018619Y-48982190D02*
X130018619Y-48982190D01*
X130018619Y-48982190D02*
X130161476Y-48886952D01*
X130161476Y-48886952D02*
X130256714Y-48791714D01*
X130256714Y-48791714D02*
X130304333Y-48696476D01*
X197817857Y-117454761D02*
X197770238Y-117359523D01*
X197770238Y-117359523D02*
X197675000Y-117264285D01*
X197675000Y-117264285D02*
X197532142Y-117121428D01*
X197532142Y-117121428D02*
X197484523Y-117026190D01*
X197484523Y-117026190D02*
X197484523Y-116930952D01*
X197722619Y-116978571D02*
X197675000Y-116883333D01*
X197675000Y-116883333D02*
X197579761Y-116788095D01*
X197579761Y-116788095D02*
X197389285Y-116740476D01*
X197389285Y-116740476D02*
X197055952Y-116740476D01*
X197055952Y-116740476D02*
X196865476Y-116788095D01*
X196865476Y-116788095D02*
X196770238Y-116883333D01*
X196770238Y-116883333D02*
X196722619Y-116978571D01*
X196722619Y-116978571D02*
X196722619Y-117169047D01*
X196722619Y-117169047D02*
X196770238Y-117264285D01*
X196770238Y-117264285D02*
X196865476Y-117359523D01*
X196865476Y-117359523D02*
X197055952Y-117407142D01*
X197055952Y-117407142D02*
X197389285Y-117407142D01*
X197389285Y-117407142D02*
X197579761Y-117359523D01*
X197579761Y-117359523D02*
X197675000Y-117264285D01*
X197675000Y-117264285D02*
X197722619Y-117169047D01*
X197722619Y-117169047D02*
X197722619Y-116978571D01*
X197151190Y-117978571D02*
X197103571Y-117883333D01*
X197103571Y-117883333D02*
X197055952Y-117835714D01*
X197055952Y-117835714D02*
X196960714Y-117788095D01*
X196960714Y-117788095D02*
X196913095Y-117788095D01*
X196913095Y-117788095D02*
X196817857Y-117835714D01*
X196817857Y-117835714D02*
X196770238Y-117883333D01*
X196770238Y-117883333D02*
X196722619Y-117978571D01*
X196722619Y-117978571D02*
X196722619Y-118169047D01*
X196722619Y-118169047D02*
X196770238Y-118264285D01*
X196770238Y-118264285D02*
X196817857Y-118311904D01*
X196817857Y-118311904D02*
X196913095Y-118359523D01*
X196913095Y-118359523D02*
X196960714Y-118359523D01*
X196960714Y-118359523D02*
X197055952Y-118311904D01*
X197055952Y-118311904D02*
X197103571Y-118264285D01*
X197103571Y-118264285D02*
X197151190Y-118169047D01*
X197151190Y-118169047D02*
X197151190Y-117978571D01*
X197151190Y-117978571D02*
X197198809Y-117883333D01*
X197198809Y-117883333D02*
X197246428Y-117835714D01*
X197246428Y-117835714D02*
X197341666Y-117788095D01*
X197341666Y-117788095D02*
X197532142Y-117788095D01*
X197532142Y-117788095D02*
X197627380Y-117835714D01*
X197627380Y-117835714D02*
X197675000Y-117883333D01*
X197675000Y-117883333D02*
X197722619Y-117978571D01*
X197722619Y-117978571D02*
X197722619Y-118169047D01*
X197722619Y-118169047D02*
X197675000Y-118264285D01*
X197675000Y-118264285D02*
X197627380Y-118311904D01*
X197627380Y-118311904D02*
X197532142Y-118359523D01*
X197532142Y-118359523D02*
X197341666Y-118359523D01*
X197341666Y-118359523D02*
X197246428Y-118311904D01*
X197246428Y-118311904D02*
X197198809Y-118264285D01*
X197198809Y-118264285D02*
X197151190Y-118169047D01*
X127716619Y-120769142D02*
X127240428Y-120435809D01*
X127716619Y-120197714D02*
X126716619Y-120197714D01*
X126716619Y-120197714D02*
X126716619Y-120578666D01*
X126716619Y-120578666D02*
X126764238Y-120673904D01*
X126764238Y-120673904D02*
X126811857Y-120721523D01*
X126811857Y-120721523D02*
X126907095Y-120769142D01*
X126907095Y-120769142D02*
X127049952Y-120769142D01*
X127049952Y-120769142D02*
X127145190Y-120721523D01*
X127145190Y-120721523D02*
X127192809Y-120673904D01*
X127192809Y-120673904D02*
X127240428Y-120578666D01*
X127240428Y-120578666D02*
X127240428Y-120197714D01*
X126716619Y-121102476D02*
X126716619Y-121721523D01*
X126716619Y-121721523D02*
X127097571Y-121388190D01*
X127097571Y-121388190D02*
X127097571Y-121531047D01*
X127097571Y-121531047D02*
X127145190Y-121626285D01*
X127145190Y-121626285D02*
X127192809Y-121673904D01*
X127192809Y-121673904D02*
X127288047Y-121721523D01*
X127288047Y-121721523D02*
X127526142Y-121721523D01*
X127526142Y-121721523D02*
X127621380Y-121673904D01*
X127621380Y-121673904D02*
X127669000Y-121626285D01*
X127669000Y-121626285D02*
X127716619Y-121531047D01*
X127716619Y-121531047D02*
X127716619Y-121245333D01*
X127716619Y-121245333D02*
X127669000Y-121150095D01*
X127669000Y-121150095D02*
X127621380Y-121102476D01*
X126716619Y-122578666D02*
X126716619Y-122388190D01*
X126716619Y-122388190D02*
X126764238Y-122292952D01*
X126764238Y-122292952D02*
X126811857Y-122245333D01*
X126811857Y-122245333D02*
X126954714Y-122150095D01*
X126954714Y-122150095D02*
X127145190Y-122102476D01*
X127145190Y-122102476D02*
X127526142Y-122102476D01*
X127526142Y-122102476D02*
X127621380Y-122150095D01*
X127621380Y-122150095D02*
X127669000Y-122197714D01*
X127669000Y-122197714D02*
X127716619Y-122292952D01*
X127716619Y-122292952D02*
X127716619Y-122483428D01*
X127716619Y-122483428D02*
X127669000Y-122578666D01*
X127669000Y-122578666D02*
X127621380Y-122626285D01*
X127621380Y-122626285D02*
X127526142Y-122673904D01*
X127526142Y-122673904D02*
X127288047Y-122673904D01*
X127288047Y-122673904D02*
X127192809Y-122626285D01*
X127192809Y-122626285D02*
X127145190Y-122578666D01*
X127145190Y-122578666D02*
X127097571Y-122483428D01*
X127097571Y-122483428D02*
X127097571Y-122292952D01*
X127097571Y-122292952D02*
X127145190Y-122197714D01*
X127145190Y-122197714D02*
X127192809Y-122150095D01*
X127192809Y-122150095D02*
X127288047Y-122102476D01*
X102361904Y-119858619D02*
X102361904Y-120668142D01*
X102361904Y-120668142D02*
X102314285Y-120763380D01*
X102314285Y-120763380D02*
X102266666Y-120811000D01*
X102266666Y-120811000D02*
X102171428Y-120858619D01*
X102171428Y-120858619D02*
X101980952Y-120858619D01*
X101980952Y-120858619D02*
X101885714Y-120811000D01*
X101885714Y-120811000D02*
X101838095Y-120763380D01*
X101838095Y-120763380D02*
X101790476Y-120668142D01*
X101790476Y-120668142D02*
X101790476Y-119858619D01*
X100838095Y-119858619D02*
X101314285Y-119858619D01*
X101314285Y-119858619D02*
X101361904Y-120334809D01*
X101361904Y-120334809D02*
X101314285Y-120287190D01*
X101314285Y-120287190D02*
X101219047Y-120239571D01*
X101219047Y-120239571D02*
X100980952Y-120239571D01*
X100980952Y-120239571D02*
X100885714Y-120287190D01*
X100885714Y-120287190D02*
X100838095Y-120334809D01*
X100838095Y-120334809D02*
X100790476Y-120430047D01*
X100790476Y-120430047D02*
X100790476Y-120668142D01*
X100790476Y-120668142D02*
X100838095Y-120763380D01*
X100838095Y-120763380D02*
X100885714Y-120811000D01*
X100885714Y-120811000D02*
X100980952Y-120858619D01*
X100980952Y-120858619D02*
X101219047Y-120858619D01*
X101219047Y-120858619D02*
X101314285Y-120811000D01*
X101314285Y-120811000D02*
X101361904Y-120763380D01*
X108338857Y-94093380D02*
X108386476Y-94141000D01*
X108386476Y-94141000D02*
X108529333Y-94188619D01*
X108529333Y-94188619D02*
X108624571Y-94188619D01*
X108624571Y-94188619D02*
X108767428Y-94141000D01*
X108767428Y-94141000D02*
X108862666Y-94045761D01*
X108862666Y-94045761D02*
X108910285Y-93950523D01*
X108910285Y-93950523D02*
X108957904Y-93760047D01*
X108957904Y-93760047D02*
X108957904Y-93617190D01*
X108957904Y-93617190D02*
X108910285Y-93426714D01*
X108910285Y-93426714D02*
X108862666Y-93331476D01*
X108862666Y-93331476D02*
X108767428Y-93236238D01*
X108767428Y-93236238D02*
X108624571Y-93188619D01*
X108624571Y-93188619D02*
X108529333Y-93188619D01*
X108529333Y-93188619D02*
X108386476Y-93236238D01*
X108386476Y-93236238D02*
X108338857Y-93283857D01*
X107957904Y-93283857D02*
X107910285Y-93236238D01*
X107910285Y-93236238D02*
X107815047Y-93188619D01*
X107815047Y-93188619D02*
X107576952Y-93188619D01*
X107576952Y-93188619D02*
X107481714Y-93236238D01*
X107481714Y-93236238D02*
X107434095Y-93283857D01*
X107434095Y-93283857D02*
X107386476Y-93379095D01*
X107386476Y-93379095D02*
X107386476Y-93474333D01*
X107386476Y-93474333D02*
X107434095Y-93617190D01*
X107434095Y-93617190D02*
X108005523Y-94188619D01*
X108005523Y-94188619D02*
X107386476Y-94188619D01*
X106767428Y-93188619D02*
X106672190Y-93188619D01*
X106672190Y-93188619D02*
X106576952Y-93236238D01*
X106576952Y-93236238D02*
X106529333Y-93283857D01*
X106529333Y-93283857D02*
X106481714Y-93379095D01*
X106481714Y-93379095D02*
X106434095Y-93569571D01*
X106434095Y-93569571D02*
X106434095Y-93807666D01*
X106434095Y-93807666D02*
X106481714Y-93998142D01*
X106481714Y-93998142D02*
X106529333Y-94093380D01*
X106529333Y-94093380D02*
X106576952Y-94141000D01*
X106576952Y-94141000D02*
X106672190Y-94188619D01*
X106672190Y-94188619D02*
X106767428Y-94188619D01*
X106767428Y-94188619D02*
X106862666Y-94141000D01*
X106862666Y-94141000D02*
X106910285Y-94093380D01*
X106910285Y-94093380D02*
X106957904Y-93998142D01*
X106957904Y-93998142D02*
X107005523Y-93807666D01*
X107005523Y-93807666D02*
X107005523Y-93569571D01*
X107005523Y-93569571D02*
X106957904Y-93379095D01*
X106957904Y-93379095D02*
X106910285Y-93283857D01*
X106910285Y-93283857D02*
X106862666Y-93236238D01*
X106862666Y-93236238D02*
X106767428Y-93188619D01*
X74302857Y-75272619D02*
X74636190Y-74796428D01*
X74874285Y-75272619D02*
X74874285Y-74272619D01*
X74874285Y-74272619D02*
X74493333Y-74272619D01*
X74493333Y-74272619D02*
X74398095Y-74320238D01*
X74398095Y-74320238D02*
X74350476Y-74367857D01*
X74350476Y-74367857D02*
X74302857Y-74463095D01*
X74302857Y-74463095D02*
X74302857Y-74605952D01*
X74302857Y-74605952D02*
X74350476Y-74701190D01*
X74350476Y-74701190D02*
X74398095Y-74748809D01*
X74398095Y-74748809D02*
X74493333Y-74796428D01*
X74493333Y-74796428D02*
X74874285Y-74796428D01*
X73350476Y-75272619D02*
X73921904Y-75272619D01*
X73636190Y-75272619D02*
X73636190Y-74272619D01*
X73636190Y-74272619D02*
X73731428Y-74415476D01*
X73731428Y-74415476D02*
X73826666Y-74510714D01*
X73826666Y-74510714D02*
X73921904Y-74558333D01*
X72398095Y-75272619D02*
X72969523Y-75272619D01*
X72683809Y-75272619D02*
X72683809Y-74272619D01*
X72683809Y-74272619D02*
X72779047Y-74415476D01*
X72779047Y-74415476D02*
X72874285Y-74510714D01*
X72874285Y-74510714D02*
X72969523Y-74558333D01*
X99004285Y-88092619D02*
X99004285Y-87092619D01*
X99004285Y-87092619D02*
X98766190Y-87092619D01*
X98766190Y-87092619D02*
X98623333Y-87140238D01*
X98623333Y-87140238D02*
X98528095Y-87235476D01*
X98528095Y-87235476D02*
X98480476Y-87330714D01*
X98480476Y-87330714D02*
X98432857Y-87521190D01*
X98432857Y-87521190D02*
X98432857Y-87664047D01*
X98432857Y-87664047D02*
X98480476Y-87854523D01*
X98480476Y-87854523D02*
X98528095Y-87949761D01*
X98528095Y-87949761D02*
X98623333Y-88045000D01*
X98623333Y-88045000D02*
X98766190Y-88092619D01*
X98766190Y-88092619D02*
X99004285Y-88092619D01*
X97480476Y-88092619D02*
X98051904Y-88092619D01*
X97766190Y-88092619D02*
X97766190Y-87092619D01*
X97766190Y-87092619D02*
X97861428Y-87235476D01*
X97861428Y-87235476D02*
X97956666Y-87330714D01*
X97956666Y-87330714D02*
X98051904Y-87378333D01*
X96861428Y-87092619D02*
X96766190Y-87092619D01*
X96766190Y-87092619D02*
X96670952Y-87140238D01*
X96670952Y-87140238D02*
X96623333Y-87187857D01*
X96623333Y-87187857D02*
X96575714Y-87283095D01*
X96575714Y-87283095D02*
X96528095Y-87473571D01*
X96528095Y-87473571D02*
X96528095Y-87711666D01*
X96528095Y-87711666D02*
X96575714Y-87902142D01*
X96575714Y-87902142D02*
X96623333Y-87997380D01*
X96623333Y-87997380D02*
X96670952Y-88045000D01*
X96670952Y-88045000D02*
X96766190Y-88092619D01*
X96766190Y-88092619D02*
X96861428Y-88092619D01*
X96861428Y-88092619D02*
X96956666Y-88045000D01*
X96956666Y-88045000D02*
X97004285Y-87997380D01*
X97004285Y-87997380D02*
X97051904Y-87902142D01*
X97051904Y-87902142D02*
X97099523Y-87711666D01*
X97099523Y-87711666D02*
X97099523Y-87473571D01*
X97099523Y-87473571D02*
X97051904Y-87283095D01*
X97051904Y-87283095D02*
X97004285Y-87187857D01*
X97004285Y-87187857D02*
X96956666Y-87140238D01*
X96956666Y-87140238D02*
X96861428Y-87092619D01*
X130510619Y-113911142D02*
X130034428Y-113577809D01*
X130510619Y-113339714D02*
X129510619Y-113339714D01*
X129510619Y-113339714D02*
X129510619Y-113720666D01*
X129510619Y-113720666D02*
X129558238Y-113815904D01*
X129558238Y-113815904D02*
X129605857Y-113863523D01*
X129605857Y-113863523D02*
X129701095Y-113911142D01*
X129701095Y-113911142D02*
X129843952Y-113911142D01*
X129843952Y-113911142D02*
X129939190Y-113863523D01*
X129939190Y-113863523D02*
X129986809Y-113815904D01*
X129986809Y-113815904D02*
X130034428Y-113720666D01*
X130034428Y-113720666D02*
X130034428Y-113339714D01*
X129510619Y-114244476D02*
X129510619Y-114863523D01*
X129510619Y-114863523D02*
X129891571Y-114530190D01*
X129891571Y-114530190D02*
X129891571Y-114673047D01*
X129891571Y-114673047D02*
X129939190Y-114768285D01*
X129939190Y-114768285D02*
X129986809Y-114815904D01*
X129986809Y-114815904D02*
X130082047Y-114863523D01*
X130082047Y-114863523D02*
X130320142Y-114863523D01*
X130320142Y-114863523D02*
X130415380Y-114815904D01*
X130415380Y-114815904D02*
X130463000Y-114768285D01*
X130463000Y-114768285D02*
X130510619Y-114673047D01*
X130510619Y-114673047D02*
X130510619Y-114387333D01*
X130510619Y-114387333D02*
X130463000Y-114292095D01*
X130463000Y-114292095D02*
X130415380Y-114244476D01*
X129510619Y-115482571D02*
X129510619Y-115577809D01*
X129510619Y-115577809D02*
X129558238Y-115673047D01*
X129558238Y-115673047D02*
X129605857Y-115720666D01*
X129605857Y-115720666D02*
X129701095Y-115768285D01*
X129701095Y-115768285D02*
X129891571Y-115815904D01*
X129891571Y-115815904D02*
X130129666Y-115815904D01*
X130129666Y-115815904D02*
X130320142Y-115768285D01*
X130320142Y-115768285D02*
X130415380Y-115720666D01*
X130415380Y-115720666D02*
X130463000Y-115673047D01*
X130463000Y-115673047D02*
X130510619Y-115577809D01*
X130510619Y-115577809D02*
X130510619Y-115482571D01*
X130510619Y-115482571D02*
X130463000Y-115387333D01*
X130463000Y-115387333D02*
X130415380Y-115339714D01*
X130415380Y-115339714D02*
X130320142Y-115292095D01*
X130320142Y-115292095D02*
X130129666Y-115244476D01*
X130129666Y-115244476D02*
X129891571Y-115244476D01*
X129891571Y-115244476D02*
X129701095Y-115292095D01*
X129701095Y-115292095D02*
X129605857Y-115339714D01*
X129605857Y-115339714D02*
X129558238Y-115387333D01*
X129558238Y-115387333D02*
X129510619Y-115482571D01*
X102943357Y-60660619D02*
X103276690Y-60184428D01*
X103514785Y-60660619D02*
X103514785Y-59660619D01*
X103514785Y-59660619D02*
X103133833Y-59660619D01*
X103133833Y-59660619D02*
X103038595Y-59708238D01*
X103038595Y-59708238D02*
X102990976Y-59755857D01*
X102990976Y-59755857D02*
X102943357Y-59851095D01*
X102943357Y-59851095D02*
X102943357Y-59993952D01*
X102943357Y-59993952D02*
X102990976Y-60089190D01*
X102990976Y-60089190D02*
X103038595Y-60136809D01*
X103038595Y-60136809D02*
X103133833Y-60184428D01*
X103133833Y-60184428D02*
X103514785Y-60184428D01*
X102562404Y-59755857D02*
X102514785Y-59708238D01*
X102514785Y-59708238D02*
X102419547Y-59660619D01*
X102419547Y-59660619D02*
X102181452Y-59660619D01*
X102181452Y-59660619D02*
X102086214Y-59708238D01*
X102086214Y-59708238D02*
X102038595Y-59755857D01*
X102038595Y-59755857D02*
X101990976Y-59851095D01*
X101990976Y-59851095D02*
X101990976Y-59946333D01*
X101990976Y-59946333D02*
X102038595Y-60089190D01*
X102038595Y-60089190D02*
X102610023Y-60660619D01*
X102610023Y-60660619D02*
X101990976Y-60660619D01*
X101657642Y-59660619D02*
X101038595Y-59660619D01*
X101038595Y-59660619D02*
X101371928Y-60041571D01*
X101371928Y-60041571D02*
X101229071Y-60041571D01*
X101229071Y-60041571D02*
X101133833Y-60089190D01*
X101133833Y-60089190D02*
X101086214Y-60136809D01*
X101086214Y-60136809D02*
X101038595Y-60232047D01*
X101038595Y-60232047D02*
X101038595Y-60470142D01*
X101038595Y-60470142D02*
X101086214Y-60565380D01*
X101086214Y-60565380D02*
X101133833Y-60613000D01*
X101133833Y-60613000D02*
X101229071Y-60660619D01*
X101229071Y-60660619D02*
X101514785Y-60660619D01*
X101514785Y-60660619D02*
X101610023Y-60613000D01*
X101610023Y-60613000D02*
X101657642Y-60565380D01*
X115704857Y-131272619D02*
X116038190Y-130796428D01*
X116276285Y-131272619D02*
X116276285Y-130272619D01*
X116276285Y-130272619D02*
X115895333Y-130272619D01*
X115895333Y-130272619D02*
X115800095Y-130320238D01*
X115800095Y-130320238D02*
X115752476Y-130367857D01*
X115752476Y-130367857D02*
X115704857Y-130463095D01*
X115704857Y-130463095D02*
X115704857Y-130605952D01*
X115704857Y-130605952D02*
X115752476Y-130701190D01*
X115752476Y-130701190D02*
X115800095Y-130748809D01*
X115800095Y-130748809D02*
X115895333Y-130796428D01*
X115895333Y-130796428D02*
X116276285Y-130796428D01*
X114752476Y-131272619D02*
X115323904Y-131272619D01*
X115038190Y-131272619D02*
X115038190Y-130272619D01*
X115038190Y-130272619D02*
X115133428Y-130415476D01*
X115133428Y-130415476D02*
X115228666Y-130510714D01*
X115228666Y-130510714D02*
X115323904Y-130558333D01*
X114419142Y-130272619D02*
X113752476Y-130272619D01*
X113752476Y-130272619D02*
X114181047Y-131272619D01*
X127896857Y-57104619D02*
X128230190Y-56628428D01*
X128468285Y-57104619D02*
X128468285Y-56104619D01*
X128468285Y-56104619D02*
X128087333Y-56104619D01*
X128087333Y-56104619D02*
X127992095Y-56152238D01*
X127992095Y-56152238D02*
X127944476Y-56199857D01*
X127944476Y-56199857D02*
X127896857Y-56295095D01*
X127896857Y-56295095D02*
X127896857Y-56437952D01*
X127896857Y-56437952D02*
X127944476Y-56533190D01*
X127944476Y-56533190D02*
X127992095Y-56580809D01*
X127992095Y-56580809D02*
X128087333Y-56628428D01*
X128087333Y-56628428D02*
X128468285Y-56628428D01*
X127563523Y-56104619D02*
X126944476Y-56104619D01*
X126944476Y-56104619D02*
X127277809Y-56485571D01*
X127277809Y-56485571D02*
X127134952Y-56485571D01*
X127134952Y-56485571D02*
X127039714Y-56533190D01*
X127039714Y-56533190D02*
X126992095Y-56580809D01*
X126992095Y-56580809D02*
X126944476Y-56676047D01*
X126944476Y-56676047D02*
X126944476Y-56914142D01*
X126944476Y-56914142D02*
X126992095Y-57009380D01*
X126992095Y-57009380D02*
X127039714Y-57057000D01*
X127039714Y-57057000D02*
X127134952Y-57104619D01*
X127134952Y-57104619D02*
X127420666Y-57104619D01*
X127420666Y-57104619D02*
X127515904Y-57057000D01*
X127515904Y-57057000D02*
X127563523Y-57009380D01*
X126611142Y-56104619D02*
X125992095Y-56104619D01*
X125992095Y-56104619D02*
X126325428Y-56485571D01*
X126325428Y-56485571D02*
X126182571Y-56485571D01*
X126182571Y-56485571D02*
X126087333Y-56533190D01*
X126087333Y-56533190D02*
X126039714Y-56580809D01*
X126039714Y-56580809D02*
X125992095Y-56676047D01*
X125992095Y-56676047D02*
X125992095Y-56914142D01*
X125992095Y-56914142D02*
X126039714Y-57009380D01*
X126039714Y-57009380D02*
X126087333Y-57057000D01*
X126087333Y-57057000D02*
X126182571Y-57104619D01*
X126182571Y-57104619D02*
X126468285Y-57104619D01*
X126468285Y-57104619D02*
X126563523Y-57057000D01*
X126563523Y-57057000D02*
X126611142Y-57009380D01*
X115823904Y-123922619D02*
X115823904Y-124732142D01*
X115823904Y-124732142D02*
X115776285Y-124827380D01*
X115776285Y-124827380D02*
X115728666Y-124875000D01*
X115728666Y-124875000D02*
X115633428Y-124922619D01*
X115633428Y-124922619D02*
X115442952Y-124922619D01*
X115442952Y-124922619D02*
X115347714Y-124875000D01*
X115347714Y-124875000D02*
X115300095Y-124827380D01*
X115300095Y-124827380D02*
X115252476Y-124732142D01*
X115252476Y-124732142D02*
X115252476Y-123922619D01*
X114347714Y-124255952D02*
X114347714Y-124922619D01*
X114585809Y-123875000D02*
X114823904Y-124589285D01*
X114823904Y-124589285D02*
X114204857Y-124589285D01*
X98274094Y-56342619D02*
X98274094Y-55342619D01*
X98274094Y-55342619D02*
X98035999Y-55342619D01*
X98035999Y-55342619D02*
X97893142Y-55390238D01*
X97893142Y-55390238D02*
X97797904Y-55485476D01*
X97797904Y-55485476D02*
X97750285Y-55580714D01*
X97750285Y-55580714D02*
X97702666Y-55771190D01*
X97702666Y-55771190D02*
X97702666Y-55914047D01*
X97702666Y-55914047D02*
X97750285Y-56104523D01*
X97750285Y-56104523D02*
X97797904Y-56199761D01*
X97797904Y-56199761D02*
X97893142Y-56295000D01*
X97893142Y-56295000D02*
X98035999Y-56342619D01*
X98035999Y-56342619D02*
X98274094Y-56342619D01*
X97131237Y-55771190D02*
X97226475Y-55723571D01*
X97226475Y-55723571D02*
X97274094Y-55675952D01*
X97274094Y-55675952D02*
X97321713Y-55580714D01*
X97321713Y-55580714D02*
X97321713Y-55533095D01*
X97321713Y-55533095D02*
X97274094Y-55437857D01*
X97274094Y-55437857D02*
X97226475Y-55390238D01*
X97226475Y-55390238D02*
X97131237Y-55342619D01*
X97131237Y-55342619D02*
X96940761Y-55342619D01*
X96940761Y-55342619D02*
X96845523Y-55390238D01*
X96845523Y-55390238D02*
X96797904Y-55437857D01*
X96797904Y-55437857D02*
X96750285Y-55533095D01*
X96750285Y-55533095D02*
X96750285Y-55580714D01*
X96750285Y-55580714D02*
X96797904Y-55675952D01*
X96797904Y-55675952D02*
X96845523Y-55723571D01*
X96845523Y-55723571D02*
X96940761Y-55771190D01*
X96940761Y-55771190D02*
X97131237Y-55771190D01*
X97131237Y-55771190D02*
X97226475Y-55818809D01*
X97226475Y-55818809D02*
X97274094Y-55866428D01*
X97274094Y-55866428D02*
X97321713Y-55961666D01*
X97321713Y-55961666D02*
X97321713Y-56152142D01*
X97321713Y-56152142D02*
X97274094Y-56247380D01*
X97274094Y-56247380D02*
X97226475Y-56295000D01*
X97226475Y-56295000D02*
X97131237Y-56342619D01*
X97131237Y-56342619D02*
X96940761Y-56342619D01*
X96940761Y-56342619D02*
X96845523Y-56295000D01*
X96845523Y-56295000D02*
X96797904Y-56247380D01*
X96797904Y-56247380D02*
X96750285Y-56152142D01*
X96750285Y-56152142D02*
X96750285Y-55961666D01*
X96750285Y-55961666D02*
X96797904Y-55866428D01*
X96797904Y-55866428D02*
X96845523Y-55818809D01*
X96845523Y-55818809D02*
X96940761Y-55771190D01*
X117810619Y-90543142D02*
X117334428Y-90209809D01*
X117810619Y-89971714D02*
X116810619Y-89971714D01*
X116810619Y-89971714D02*
X116810619Y-90352666D01*
X116810619Y-90352666D02*
X116858238Y-90447904D01*
X116858238Y-90447904D02*
X116905857Y-90495523D01*
X116905857Y-90495523D02*
X117001095Y-90543142D01*
X117001095Y-90543142D02*
X117143952Y-90543142D01*
X117143952Y-90543142D02*
X117239190Y-90495523D01*
X117239190Y-90495523D02*
X117286809Y-90447904D01*
X117286809Y-90447904D02*
X117334428Y-90352666D01*
X117334428Y-90352666D02*
X117334428Y-89971714D01*
X116905857Y-90924095D02*
X116858238Y-90971714D01*
X116858238Y-90971714D02*
X116810619Y-91066952D01*
X116810619Y-91066952D02*
X116810619Y-91305047D01*
X116810619Y-91305047D02*
X116858238Y-91400285D01*
X116858238Y-91400285D02*
X116905857Y-91447904D01*
X116905857Y-91447904D02*
X117001095Y-91495523D01*
X117001095Y-91495523D02*
X117096333Y-91495523D01*
X117096333Y-91495523D02*
X117239190Y-91447904D01*
X117239190Y-91447904D02*
X117810619Y-90876476D01*
X117810619Y-90876476D02*
X117810619Y-91495523D01*
X117239190Y-92066952D02*
X117191571Y-91971714D01*
X117191571Y-91971714D02*
X117143952Y-91924095D01*
X117143952Y-91924095D02*
X117048714Y-91876476D01*
X117048714Y-91876476D02*
X117001095Y-91876476D01*
X117001095Y-91876476D02*
X116905857Y-91924095D01*
X116905857Y-91924095D02*
X116858238Y-91971714D01*
X116858238Y-91971714D02*
X116810619Y-92066952D01*
X116810619Y-92066952D02*
X116810619Y-92257428D01*
X116810619Y-92257428D02*
X116858238Y-92352666D01*
X116858238Y-92352666D02*
X116905857Y-92400285D01*
X116905857Y-92400285D02*
X117001095Y-92447904D01*
X117001095Y-92447904D02*
X117048714Y-92447904D01*
X117048714Y-92447904D02*
X117143952Y-92400285D01*
X117143952Y-92400285D02*
X117191571Y-92352666D01*
X117191571Y-92352666D02*
X117239190Y-92257428D01*
X117239190Y-92257428D02*
X117239190Y-92066952D01*
X117239190Y-92066952D02*
X117286809Y-91971714D01*
X117286809Y-91971714D02*
X117334428Y-91924095D01*
X117334428Y-91924095D02*
X117429666Y-91876476D01*
X117429666Y-91876476D02*
X117620142Y-91876476D01*
X117620142Y-91876476D02*
X117715380Y-91924095D01*
X117715380Y-91924095D02*
X117763000Y-91971714D01*
X117763000Y-91971714D02*
X117810619Y-92066952D01*
X117810619Y-92066952D02*
X117810619Y-92257428D01*
X117810619Y-92257428D02*
X117763000Y-92352666D01*
X117763000Y-92352666D02*
X117715380Y-92400285D01*
X117715380Y-92400285D02*
X117620142Y-92447904D01*
X117620142Y-92447904D02*
X117429666Y-92447904D01*
X117429666Y-92447904D02*
X117334428Y-92400285D01*
X117334428Y-92400285D02*
X117286809Y-92352666D01*
X117286809Y-92352666D02*
X117239190Y-92257428D01*
X74376619Y-38441333D02*
X73900428Y-38108000D01*
X74376619Y-37869905D02*
X73376619Y-37869905D01*
X73376619Y-37869905D02*
X73376619Y-38250857D01*
X73376619Y-38250857D02*
X73424238Y-38346095D01*
X73424238Y-38346095D02*
X73471857Y-38393714D01*
X73471857Y-38393714D02*
X73567095Y-38441333D01*
X73567095Y-38441333D02*
X73709952Y-38441333D01*
X73709952Y-38441333D02*
X73805190Y-38393714D01*
X73805190Y-38393714D02*
X73852809Y-38346095D01*
X73852809Y-38346095D02*
X73900428Y-38250857D01*
X73900428Y-38250857D02*
X73900428Y-37869905D01*
X73376619Y-39298476D02*
X73376619Y-39108000D01*
X73376619Y-39108000D02*
X73424238Y-39012762D01*
X73424238Y-39012762D02*
X73471857Y-38965143D01*
X73471857Y-38965143D02*
X73614714Y-38869905D01*
X73614714Y-38869905D02*
X73805190Y-38822286D01*
X73805190Y-38822286D02*
X74186142Y-38822286D01*
X74186142Y-38822286D02*
X74281380Y-38869905D01*
X74281380Y-38869905D02*
X74329000Y-38917524D01*
X74329000Y-38917524D02*
X74376619Y-39012762D01*
X74376619Y-39012762D02*
X74376619Y-39203238D01*
X74376619Y-39203238D02*
X74329000Y-39298476D01*
X74329000Y-39298476D02*
X74281380Y-39346095D01*
X74281380Y-39346095D02*
X74186142Y-39393714D01*
X74186142Y-39393714D02*
X73948047Y-39393714D01*
X73948047Y-39393714D02*
X73852809Y-39346095D01*
X73852809Y-39346095D02*
X73805190Y-39298476D01*
X73805190Y-39298476D02*
X73757571Y-39203238D01*
X73757571Y-39203238D02*
X73757571Y-39012762D01*
X73757571Y-39012762D02*
X73805190Y-38917524D01*
X73805190Y-38917524D02*
X73852809Y-38869905D01*
X73852809Y-38869905D02*
X73948047Y-38822286D01*
X96887380Y-121785142D02*
X96935000Y-121737523D01*
X96935000Y-121737523D02*
X96982619Y-121594666D01*
X96982619Y-121594666D02*
X96982619Y-121499428D01*
X96982619Y-121499428D02*
X96935000Y-121356571D01*
X96935000Y-121356571D02*
X96839761Y-121261333D01*
X96839761Y-121261333D02*
X96744523Y-121213714D01*
X96744523Y-121213714D02*
X96554047Y-121166095D01*
X96554047Y-121166095D02*
X96411190Y-121166095D01*
X96411190Y-121166095D02*
X96220714Y-121213714D01*
X96220714Y-121213714D02*
X96125476Y-121261333D01*
X96125476Y-121261333D02*
X96030238Y-121356571D01*
X96030238Y-121356571D02*
X95982619Y-121499428D01*
X95982619Y-121499428D02*
X95982619Y-121594666D01*
X95982619Y-121594666D02*
X96030238Y-121737523D01*
X96030238Y-121737523D02*
X96077857Y-121785142D01*
X96982619Y-122737523D02*
X96982619Y-122166095D01*
X96982619Y-122451809D02*
X95982619Y-122451809D01*
X95982619Y-122451809D02*
X96125476Y-122356571D01*
X96125476Y-122356571D02*
X96220714Y-122261333D01*
X96220714Y-122261333D02*
X96268333Y-122166095D01*
X95982619Y-123642285D02*
X95982619Y-123166095D01*
X95982619Y-123166095D02*
X96458809Y-123118476D01*
X96458809Y-123118476D02*
X96411190Y-123166095D01*
X96411190Y-123166095D02*
X96363571Y-123261333D01*
X96363571Y-123261333D02*
X96363571Y-123499428D01*
X96363571Y-123499428D02*
X96411190Y-123594666D01*
X96411190Y-123594666D02*
X96458809Y-123642285D01*
X96458809Y-123642285D02*
X96554047Y-123689904D01*
X96554047Y-123689904D02*
X96792142Y-123689904D01*
X96792142Y-123689904D02*
X96887380Y-123642285D01*
X96887380Y-123642285D02*
X96935000Y-123594666D01*
X96935000Y-123594666D02*
X96982619Y-123499428D01*
X96982619Y-123499428D02*
X96982619Y-123261333D01*
X96982619Y-123261333D02*
X96935000Y-123166095D01*
X96935000Y-123166095D02*
X96887380Y-123118476D01*
X78091380Y-51141333D02*
X78139000Y-51093714D01*
X78139000Y-51093714D02*
X78186619Y-50950857D01*
X78186619Y-50950857D02*
X78186619Y-50855619D01*
X78186619Y-50855619D02*
X78139000Y-50712762D01*
X78139000Y-50712762D02*
X78043761Y-50617524D01*
X78043761Y-50617524D02*
X77948523Y-50569905D01*
X77948523Y-50569905D02*
X77758047Y-50522286D01*
X77758047Y-50522286D02*
X77615190Y-50522286D01*
X77615190Y-50522286D02*
X77424714Y-50569905D01*
X77424714Y-50569905D02*
X77329476Y-50617524D01*
X77329476Y-50617524D02*
X77234238Y-50712762D01*
X77234238Y-50712762D02*
X77186619Y-50855619D01*
X77186619Y-50855619D02*
X77186619Y-50950857D01*
X77186619Y-50950857D02*
X77234238Y-51093714D01*
X77234238Y-51093714D02*
X77281857Y-51141333D01*
X77281857Y-51522286D02*
X77234238Y-51569905D01*
X77234238Y-51569905D02*
X77186619Y-51665143D01*
X77186619Y-51665143D02*
X77186619Y-51903238D01*
X77186619Y-51903238D02*
X77234238Y-51998476D01*
X77234238Y-51998476D02*
X77281857Y-52046095D01*
X77281857Y-52046095D02*
X77377095Y-52093714D01*
X77377095Y-52093714D02*
X77472333Y-52093714D01*
X77472333Y-52093714D02*
X77615190Y-52046095D01*
X77615190Y-52046095D02*
X78186619Y-51474667D01*
X78186619Y-51474667D02*
X78186619Y-52093714D01*
X113238619Y-117975142D02*
X112762428Y-117641809D01*
X113238619Y-117403714D02*
X112238619Y-117403714D01*
X112238619Y-117403714D02*
X112238619Y-117784666D01*
X112238619Y-117784666D02*
X112286238Y-117879904D01*
X112286238Y-117879904D02*
X112333857Y-117927523D01*
X112333857Y-117927523D02*
X112429095Y-117975142D01*
X112429095Y-117975142D02*
X112571952Y-117975142D01*
X112571952Y-117975142D02*
X112667190Y-117927523D01*
X112667190Y-117927523D02*
X112714809Y-117879904D01*
X112714809Y-117879904D02*
X112762428Y-117784666D01*
X112762428Y-117784666D02*
X112762428Y-117403714D01*
X113238619Y-118927523D02*
X113238619Y-118356095D01*
X113238619Y-118641809D02*
X112238619Y-118641809D01*
X112238619Y-118641809D02*
X112381476Y-118546571D01*
X112381476Y-118546571D02*
X112476714Y-118451333D01*
X112476714Y-118451333D02*
X112524333Y-118356095D01*
X112571952Y-119784666D02*
X113238619Y-119784666D01*
X112191000Y-119546571D02*
X112905285Y-119308476D01*
X112905285Y-119308476D02*
X112905285Y-119927523D01*
X132532285Y-94442619D02*
X132532285Y-93442619D01*
X132532285Y-93442619D02*
X132294190Y-93442619D01*
X132294190Y-93442619D02*
X132151333Y-93490238D01*
X132151333Y-93490238D02*
X132056095Y-93585476D01*
X132056095Y-93585476D02*
X132008476Y-93680714D01*
X132008476Y-93680714D02*
X131960857Y-93871190D01*
X131960857Y-93871190D02*
X131960857Y-94014047D01*
X131960857Y-94014047D02*
X132008476Y-94204523D01*
X132008476Y-94204523D02*
X132056095Y-94299761D01*
X132056095Y-94299761D02*
X132151333Y-94395000D01*
X132151333Y-94395000D02*
X132294190Y-94442619D01*
X132294190Y-94442619D02*
X132532285Y-94442619D01*
X131008476Y-94442619D02*
X131579904Y-94442619D01*
X131294190Y-94442619D02*
X131294190Y-93442619D01*
X131294190Y-93442619D02*
X131389428Y-93585476D01*
X131389428Y-93585476D02*
X131484666Y-93680714D01*
X131484666Y-93680714D02*
X131579904Y-93728333D01*
X130627523Y-93537857D02*
X130579904Y-93490238D01*
X130579904Y-93490238D02*
X130484666Y-93442619D01*
X130484666Y-93442619D02*
X130246571Y-93442619D01*
X130246571Y-93442619D02*
X130151333Y-93490238D01*
X130151333Y-93490238D02*
X130103714Y-93537857D01*
X130103714Y-93537857D02*
X130056095Y-93633095D01*
X130056095Y-93633095D02*
X130056095Y-93728333D01*
X130056095Y-93728333D02*
X130103714Y-93871190D01*
X130103714Y-93871190D02*
X130675142Y-94442619D01*
X130675142Y-94442619D02*
X130056095Y-94442619D01*
X109608857Y-41261380D02*
X109656476Y-41309000D01*
X109656476Y-41309000D02*
X109799333Y-41356619D01*
X109799333Y-41356619D02*
X109894571Y-41356619D01*
X109894571Y-41356619D02*
X110037428Y-41309000D01*
X110037428Y-41309000D02*
X110132666Y-41213761D01*
X110132666Y-41213761D02*
X110180285Y-41118523D01*
X110180285Y-41118523D02*
X110227904Y-40928047D01*
X110227904Y-40928047D02*
X110227904Y-40785190D01*
X110227904Y-40785190D02*
X110180285Y-40594714D01*
X110180285Y-40594714D02*
X110132666Y-40499476D01*
X110132666Y-40499476D02*
X110037428Y-40404238D01*
X110037428Y-40404238D02*
X109894571Y-40356619D01*
X109894571Y-40356619D02*
X109799333Y-40356619D01*
X109799333Y-40356619D02*
X109656476Y-40404238D01*
X109656476Y-40404238D02*
X109608857Y-40451857D01*
X108656476Y-41356619D02*
X109227904Y-41356619D01*
X108942190Y-41356619D02*
X108942190Y-40356619D01*
X108942190Y-40356619D02*
X109037428Y-40499476D01*
X109037428Y-40499476D02*
X109132666Y-40594714D01*
X109132666Y-40594714D02*
X109227904Y-40642333D01*
X108180285Y-41356619D02*
X107989809Y-41356619D01*
X107989809Y-41356619D02*
X107894571Y-41309000D01*
X107894571Y-41309000D02*
X107846952Y-41261380D01*
X107846952Y-41261380D02*
X107751714Y-41118523D01*
X107751714Y-41118523D02*
X107704095Y-40928047D01*
X107704095Y-40928047D02*
X107704095Y-40547095D01*
X107704095Y-40547095D02*
X107751714Y-40451857D01*
X107751714Y-40451857D02*
X107799333Y-40404238D01*
X107799333Y-40404238D02*
X107894571Y-40356619D01*
X107894571Y-40356619D02*
X108085047Y-40356619D01*
X108085047Y-40356619D02*
X108180285Y-40404238D01*
X108180285Y-40404238D02*
X108227904Y-40451857D01*
X108227904Y-40451857D02*
X108275523Y-40547095D01*
X108275523Y-40547095D02*
X108275523Y-40785190D01*
X108275523Y-40785190D02*
X108227904Y-40880428D01*
X108227904Y-40880428D02*
X108180285Y-40928047D01*
X108180285Y-40928047D02*
X108085047Y-40975666D01*
X108085047Y-40975666D02*
X107894571Y-40975666D01*
X107894571Y-40975666D02*
X107799333Y-40928047D01*
X107799333Y-40928047D02*
X107751714Y-40880428D01*
X107751714Y-40880428D02*
X107704095Y-40785190D01*
D11*
X74710936Y-110088000D02*
X76165064Y-110088000D01*
X74710936Y-111908000D02*
X76165064Y-111908000D01*
X126586000Y-47124000D02*
X126586000Y-51534000D01*
X124366000Y-47124000D02*
X126586000Y-47124000D01*
X124366000Y-51534000D02*
X124366000Y-47124000D01*
X103018000Y-51535436D02*
X103018000Y-52989564D01*
X101198000Y-51535436D02*
X101198000Y-52989564D01*
X80370000Y-122172252D02*
X80370000Y-120749748D01*
X82190000Y-122172252D02*
X82190000Y-120749748D01*
X108156000Y-100182000D02*
X108156000Y-100452000D01*
X108156000Y-100452000D02*
X107056000Y-100452000D01*
X108156000Y-106812000D02*
X105326000Y-106812000D01*
X108156000Y-107082000D02*
X108156000Y-106812000D01*
X114576000Y-100182000D02*
X108156000Y-100182000D01*
X114576000Y-107082000D02*
X108156000Y-107082000D01*
X121518000Y-123093564D02*
X121518000Y-121639436D01*
X123338000Y-123093564D02*
X123338000Y-121639436D01*
X196260000Y-46930000D02*
X196260000Y-63070000D01*
X175070000Y-46930000D02*
X196260000Y-46930000D01*
X175070000Y-46930000D02*
X175070000Y-63070000D01*
X172510000Y-49550000D02*
X175070000Y-49550000D01*
X172510000Y-55000000D02*
X175070000Y-55000000D01*
X172510000Y-60450000D02*
X175070000Y-60450000D01*
X175070000Y-63070000D02*
X196260000Y-63070000D01*
X151446869Y-126162000D02*
X149852131Y-126162000D01*
X151446869Y-121742000D02*
X149852131Y-121742000D01*
X127360000Y-100041064D02*
X127360000Y-98586936D01*
X129180000Y-100041064D02*
X129180000Y-98586936D01*
X127727064Y-92604000D02*
X126272936Y-92604000D01*
X127727064Y-90784000D02*
X126272936Y-90784000D01*
X85958000Y-128997064D02*
X85958000Y-127542936D01*
X87778000Y-128997064D02*
X87778000Y-127542936D01*
X99448000Y-68232000D02*
X103858000Y-68232000D01*
X99448000Y-70452000D02*
X99448000Y-68232000D01*
X103858000Y-70452000D02*
X99448000Y-70452000D01*
X149592000Y-101548000D02*
X149592000Y-95048000D01*
X149592000Y-101548000D02*
X141082000Y-101548000D01*
X149592000Y-95048000D02*
X141082000Y-95048000D01*
X169754000Y-37134748D02*
X169754000Y-38557252D01*
X167934000Y-37134748D02*
X167934000Y-38557252D01*
X108156000Y-49635000D02*
X108156000Y-49905000D01*
X108156000Y-49905000D02*
X107056000Y-49905000D01*
X108156000Y-56265000D02*
X105326000Y-56265000D01*
X108156000Y-56535000D02*
X108156000Y-56265000D01*
X114576000Y-49635000D02*
X108156000Y-49635000D01*
X114576000Y-56535000D02*
X108156000Y-56535000D01*
X81640000Y-106899064D02*
X81640000Y-105444936D01*
X83460000Y-106899064D02*
X83460000Y-105444936D01*
X82190000Y-115923748D02*
X82190000Y-117346252D01*
X80370000Y-115923748D02*
X80370000Y-117346252D01*
X176236564Y-38502000D02*
X174782436Y-38502000D01*
X176236564Y-36682000D02*
X174782436Y-36682000D01*
X116226000Y-95554748D02*
X116226000Y-96977252D01*
X114406000Y-95554748D02*
X114406000Y-96977252D01*
X72948748Y-87150000D02*
X74371252Y-87150000D01*
X72948748Y-88970000D02*
X74371252Y-88970000D01*
X151391869Y-131242000D02*
X149797131Y-131242000D01*
X151391869Y-126822000D02*
X149797131Y-126822000D01*
X87778000Y-132384748D02*
X87778000Y-133807252D01*
X85958000Y-132384748D02*
X85958000Y-133807252D01*
X109580000Y-123155064D02*
X109580000Y-121700936D01*
X111400000Y-123155064D02*
X111400000Y-121700936D01*
X80666000Y-45770748D02*
X80666000Y-47193252D01*
X78846000Y-45770748D02*
X78846000Y-47193252D01*
X102835064Y-109368000D02*
X101380936Y-109368000D01*
X102835064Y-107548000D02*
X101380936Y-107548000D01*
X127360000Y-71593064D02*
X127360000Y-70138936D01*
X129180000Y-71593064D02*
X129180000Y-70138936D01*
X102666748Y-132482000D02*
X104089252Y-132482000D01*
X102666748Y-130662000D02*
X104089252Y-130662000D01*
X177262000Y-40640000D02*
X177262000Y-39990000D01*
X177262000Y-40640000D02*
X177262000Y-41290000D01*
X174142000Y-40640000D02*
X174142000Y-38965000D01*
X174142000Y-40640000D02*
X174142000Y-41290000D01*
X148576000Y-76148000D02*
X148576000Y-69648000D01*
X148576000Y-76148000D02*
X140066000Y-76148000D01*
X148576000Y-69648000D02*
X140066000Y-69648000D01*
X124366000Y-67430000D02*
X124366000Y-63020000D01*
X126586000Y-67430000D02*
X124366000Y-67430000D01*
X126586000Y-63020000D02*
X126586000Y-67430000D01*
X67868748Y-110088000D02*
X69291252Y-110088000D01*
X67868748Y-111908000D02*
X69291252Y-111908000D01*
X102896564Y-90826000D02*
X101442436Y-90826000D01*
X102896564Y-89006000D02*
X101442436Y-89006000D01*
X104105064Y-135530000D02*
X102650936Y-135530000D01*
X104105064Y-133710000D02*
X102650936Y-133710000D01*
X101452000Y-66259064D02*
X101452000Y-64804936D01*
X103272000Y-66259064D02*
X103272000Y-64804936D01*
X87778000Y-122716936D02*
X87778000Y-124171064D01*
X85958000Y-122716936D02*
X85958000Y-124171064D01*
X116492000Y-125088000D02*
X116492000Y-120678000D01*
X118712000Y-125088000D02*
X116492000Y-125088000D01*
X118712000Y-120678000D02*
X118712000Y-125088000D01*
X85250000Y-106038000D02*
X85250000Y-101628000D01*
X87470000Y-106038000D02*
X85250000Y-106038000D01*
X87470000Y-101628000D02*
X87470000Y-106038000D01*
X172802000Y-38404748D02*
X172802000Y-39827252D01*
X170982000Y-38404748D02*
X170982000Y-39827252D01*
X121869252Y-134260000D02*
X120446748Y-134260000D01*
X121869252Y-132440000D02*
X120446748Y-132440000D01*
X78520936Y-38714000D02*
X79975064Y-38714000D01*
X78520936Y-40534000D02*
X79975064Y-40534000D01*
X108860000Y-121716748D02*
X108860000Y-123139252D01*
X107040000Y-121716748D02*
X107040000Y-123139252D01*
X116692000Y-55337064D02*
X116692000Y-53882936D01*
X118512000Y-55337064D02*
X118512000Y-53882936D01*
X104874500Y-74448000D02*
X112934500Y-74448000D01*
X104874500Y-78968000D02*
X104874500Y-74448000D01*
X112934500Y-78968000D02*
X104874500Y-78968000D01*
X64465252Y-79142000D02*
X63042748Y-79142000D01*
X64465252Y-77322000D02*
X63042748Y-77322000D01*
X108156000Y-63097000D02*
X108156000Y-63367000D01*
X108156000Y-63367000D02*
X107056000Y-63367000D01*
X108156000Y-69727000D02*
X105326000Y-69727000D01*
X108156000Y-69997000D02*
X108156000Y-69727000D01*
X114576000Y-63097000D02*
X108156000Y-63097000D01*
X114576000Y-69997000D02*
X108156000Y-69997000D01*
X99448000Y-105062000D02*
X103858000Y-105062000D01*
X99448000Y-107282000D02*
X99448000Y-105062000D01*
X103858000Y-107282000D02*
X99448000Y-107282000D01*
X72948748Y-78260000D02*
X74371252Y-78260000D01*
X72948748Y-80080000D02*
X74371252Y-80080000D01*
X72932936Y-80800000D02*
X74387064Y-80800000D01*
X72932936Y-82620000D02*
X74387064Y-82620000D01*
X102835064Y-72538000D02*
X101380936Y-72538000D01*
X102835064Y-70718000D02*
X101380936Y-70718000D01*
X101452000Y-103150564D02*
X101452000Y-101696436D01*
X103272000Y-103150564D02*
X103272000Y-101696436D01*
X196150000Y-91380000D02*
X196150000Y-107520000D01*
X174960000Y-91380000D02*
X196150000Y-91380000D01*
X174960000Y-91380000D02*
X174960000Y-107520000D01*
X172400000Y-94000000D02*
X174960000Y-94000000D01*
X172400000Y-99450000D02*
X174960000Y-99450000D01*
X172400000Y-104900000D02*
X174960000Y-104900000D01*
X174960000Y-107520000D02*
X196150000Y-107520000D01*
X129406000Y-129380000D02*
X124996000Y-129380000D01*
X129406000Y-127160000D02*
X129406000Y-129380000D01*
X124996000Y-127160000D02*
X129406000Y-127160000D01*
X62082000Y-44669064D02*
X62082000Y-43214936D01*
X63902000Y-44669064D02*
X63902000Y-43214936D01*
X196150000Y-64480000D02*
X196150000Y-80620000D01*
X174960000Y-64480000D02*
X196150000Y-64480000D01*
X174960000Y-64480000D02*
X174960000Y-80620000D01*
X172400000Y-67100000D02*
X174960000Y-67100000D01*
X172400000Y-72550000D02*
X174960000Y-72550000D01*
X172400000Y-78000000D02*
X174960000Y-78000000D01*
X174960000Y-80620000D02*
X196150000Y-80620000D01*
X151446869Y-136322000D02*
X149852131Y-136322000D01*
X151446869Y-131902000D02*
X149852131Y-131902000D01*
X103272000Y-83092936D02*
X103272000Y-84547064D01*
X101452000Y-83092936D02*
X101452000Y-84547064D01*
X121052000Y-121667748D02*
X121052000Y-123090252D01*
X119232000Y-121667748D02*
X119232000Y-123090252D01*
X124566000Y-70577064D02*
X124566000Y-69122936D01*
X126386000Y-70577064D02*
X126386000Y-69122936D01*
X148166000Y-55066000D02*
X148166000Y-48566000D01*
X148166000Y-55066000D02*
X139656000Y-55066000D01*
X148166000Y-48566000D02*
X139656000Y-48566000D01*
X108860000Y-131352936D02*
X108860000Y-132807064D01*
X107040000Y-131352936D02*
X107040000Y-132807064D01*
X118512000Y-59232748D02*
X118512000Y-60655252D01*
X116692000Y-59232748D02*
X116692000Y-60655252D01*
X149690000Y-119836000D02*
X149690000Y-113336000D01*
X149690000Y-119836000D02*
X141180000Y-119836000D01*
X149690000Y-113336000D02*
X141180000Y-113336000D01*
X109114000Y-126542748D02*
X109114000Y-127965252D01*
X107294000Y-126542748D02*
X107294000Y-127965252D01*
X124112000Y-118484000D02*
X124112000Y-114074000D01*
X126332000Y-118484000D02*
X124112000Y-118484000D01*
X126332000Y-114074000D02*
X126332000Y-118484000D01*
X74387064Y-86430000D02*
X72932936Y-86430000D01*
X74387064Y-84610000D02*
X72932936Y-84610000D01*
X81640000Y-101880564D02*
X81640000Y-100426436D01*
X83460000Y-101880564D02*
X83460000Y-100426436D01*
X108156000Y-81640000D02*
X108156000Y-81910000D01*
X108156000Y-81910000D02*
X107056000Y-81910000D01*
X108156000Y-88270000D02*
X105326000Y-88270000D01*
X108156000Y-88540000D02*
X108156000Y-88270000D01*
X114576000Y-81640000D02*
X108156000Y-81640000D01*
X114576000Y-88540000D02*
X108156000Y-88540000D01*
X127614000Y-48733064D02*
X127614000Y-47278936D01*
X129434000Y-48733064D02*
X129434000Y-47278936D01*
X196260000Y-109480000D02*
X196260000Y-125620000D01*
X175070000Y-109480000D02*
X196260000Y-109480000D01*
X175070000Y-109480000D02*
X175070000Y-125620000D01*
X172510000Y-112100000D02*
X175070000Y-112100000D01*
X172510000Y-117550000D02*
X175070000Y-117550000D01*
X172510000Y-123000000D02*
X175070000Y-123000000D01*
X175070000Y-125620000D02*
X196260000Y-125620000D01*
X124312000Y-121692564D02*
X124312000Y-120238436D01*
X126132000Y-121692564D02*
X126132000Y-120238436D01*
X100691000Y-125166000D02*
X100691000Y-127116000D01*
X100691000Y-125166000D02*
X100691000Y-123216000D01*
X105811000Y-125166000D02*
X105811000Y-128616000D01*
X105811000Y-125166000D02*
X105811000Y-123216000D01*
X108915252Y-92350000D02*
X107492748Y-92350000D01*
X108915252Y-90530000D02*
X107492748Y-90530000D01*
X74387064Y-77540000D02*
X72932936Y-77540000D01*
X74387064Y-75720000D02*
X72932936Y-75720000D01*
X99448000Y-86520000D02*
X103858000Y-86520000D01*
X99448000Y-88740000D02*
X99448000Y-86520000D01*
X103858000Y-88740000D02*
X99448000Y-88740000D01*
X128926000Y-113826936D02*
X128926000Y-115281064D01*
X127106000Y-113826936D02*
X127106000Y-115281064D01*
X103027564Y-59076000D02*
X101573436Y-59076000D01*
X103027564Y-57256000D02*
X101573436Y-57256000D01*
X111908000Y-126588436D02*
X111908000Y-128042564D01*
X110088000Y-126588436D02*
X110088000Y-128042564D01*
X127727064Y-55520000D02*
X126272936Y-55520000D01*
X127727064Y-53700000D02*
X126272936Y-53700000D01*
X115648500Y-125440000D02*
X114998500Y-125440000D01*
X115648500Y-125440000D02*
X116298500Y-125440000D01*
X115648500Y-128560000D02*
X113973500Y-128560000D01*
X115648500Y-128560000D02*
X116298500Y-128560000D01*
X99448000Y-54770000D02*
X103858000Y-54770000D01*
X99448000Y-56990000D02*
X99448000Y-54770000D01*
X103858000Y-56990000D02*
X99448000Y-56990000D01*
X114406000Y-91913064D02*
X114406000Y-90458936D01*
X116226000Y-91913064D02*
X116226000Y-90458936D01*
X70972000Y-39335064D02*
X70972000Y-37880936D01*
X72792000Y-39335064D02*
X72792000Y-37880936D01*
X99462000Y-121716748D02*
X99462000Y-123139252D01*
X97642000Y-121716748D02*
X97642000Y-123139252D01*
X78846000Y-52019252D02*
X78846000Y-50596748D01*
X80666000Y-52019252D02*
X80666000Y-50596748D01*
X113686000Y-121700936D02*
X113686000Y-123155064D01*
X111866000Y-121700936D02*
X111866000Y-123155064D01*
X124340000Y-92870000D02*
X128750000Y-92870000D01*
X124340000Y-95090000D02*
X124340000Y-92870000D01*
X128750000Y-95090000D02*
X124340000Y-95090000D01*
X109677252Y-43836000D02*
X108254748Y-43836000D01*
X109677252Y-42016000D02*
X108254748Y-42016000D01*
%LPC*%
D12*
X158496000Y-134366000D03*
D13*
X143256000Y-134366000D03*
D14*
X164338000Y-89408000D03*
D15*
X164338000Y-104648000D03*
D12*
X206000000Y-48500000D03*
X206000000Y-76000000D03*
D16*
X87630000Y-112012349D03*
D17*
X87630000Y-115512349D03*
D18*
X184000000Y-40900000D03*
D19*
X67985000Y-119160000D03*
D20*
X70525000Y-119160000D03*
X67985000Y-121700000D03*
X70525000Y-121700000D03*
X67985000Y-124240000D03*
X70525000Y-124240000D03*
X67985000Y-126780000D03*
X70525000Y-126780000D03*
X67985000Y-129320000D03*
X70525000Y-129320000D03*
D14*
X164338000Y-45212000D03*
D15*
X164338000Y-60452000D03*
D21*
X85090000Y-39629000D03*
D22*
X85090000Y-37089000D03*
D12*
X158496000Y-130048000D03*
D13*
X143256000Y-130048000D03*
D23*
X137000000Y-133000000D03*
D24*
X66525000Y-101635000D03*
D25*
X66525000Y-104175000D03*
X66525000Y-106715000D03*
D17*
X151852000Y-92964000D03*
X146852000Y-92964000D03*
D12*
X132334000Y-75946000D03*
D13*
X152654000Y-75946000D03*
D26*
X104394000Y-42672000D03*
X104140000Y-93980000D03*
D18*
X184000000Y-130900000D03*
D14*
X164338000Y-110490000D03*
D15*
X164338000Y-125730000D03*
D14*
X164338000Y-65532000D03*
D15*
X164338000Y-80772000D03*
D16*
X97780000Y-133975000D03*
D27*
X97780000Y-131435000D03*
X97780000Y-128895000D03*
X97780000Y-126355000D03*
X90160000Y-126355000D03*
X90160000Y-128895000D03*
X90160000Y-131435000D03*
X90160000Y-133975000D03*
D12*
X136144000Y-120650000D03*
D13*
X156464000Y-120650000D03*
D28*
X77216000Y-101844000D03*
X77216000Y-104384000D03*
X77216000Y-106924000D03*
D12*
X205994000Y-41656000D03*
D16*
X92710000Y-44394000D03*
D17*
X92710000Y-40894000D03*
D14*
X151384000Y-114808000D03*
D15*
X136144000Y-114808000D03*
D24*
X71525000Y-101635000D03*
D25*
X71525000Y-104175000D03*
X71525000Y-106715000D03*
D21*
X121158000Y-130561000D03*
D22*
X121158000Y-128021000D03*
D12*
X158496000Y-125730000D03*
D13*
X143256000Y-125730000D03*
D21*
X67564000Y-39629000D03*
D22*
X67564000Y-37089000D03*
D21*
X77216000Y-116078000D03*
D29*
X77216000Y-118618000D03*
X77216000Y-121158000D03*
D17*
X142962000Y-46482000D03*
X137962000Y-46482000D03*
D30*
X206000000Y-122000000D03*
X206000000Y-86000000D03*
D21*
X62992000Y-39629000D03*
D22*
X62992000Y-37089000D03*
D12*
X132334000Y-57404000D03*
D13*
X152654000Y-57404000D03*
D14*
X150622000Y-70104000D03*
D15*
X135382000Y-70104000D03*
D12*
X151892000Y-85598000D03*
X129392000Y-85598000D03*
D31*
X83525000Y-94340000D03*
D32*
X83525000Y-91800000D03*
X83525000Y-89260000D03*
X83525000Y-86720000D03*
X83525000Y-84180000D03*
X83525000Y-81640000D03*
X83525000Y-79100000D03*
X83525000Y-76560000D03*
X83525000Y-74020000D03*
X83525000Y-71480000D03*
X83525000Y-68940000D03*
X83525000Y-66400000D03*
X83525000Y-63860000D03*
X83525000Y-61320000D03*
X83525000Y-58780000D03*
X83525000Y-56240000D03*
X83525000Y-53700000D03*
X83525000Y-51160000D03*
X83525000Y-48620000D03*
X83525000Y-46080000D03*
X68285000Y-46080000D03*
X68285000Y-48620000D03*
X68285000Y-51160000D03*
X68285000Y-53700000D03*
X68285000Y-56240000D03*
X68285000Y-58780000D03*
X68285000Y-61320000D03*
X68285000Y-63860000D03*
X68285000Y-66400000D03*
X68285000Y-68940000D03*
X68285000Y-71480000D03*
X68285000Y-74020000D03*
X68285000Y-76560000D03*
X68285000Y-79100000D03*
X68285000Y-81640000D03*
X68285000Y-84180000D03*
X68285000Y-86720000D03*
X68285000Y-89260000D03*
X68285000Y-91800000D03*
X68285000Y-94340000D03*
D17*
X150582000Y-65532000D03*
X145582000Y-65532000D03*
D16*
X76210000Y-129965000D03*
D27*
X76210000Y-132505000D03*
X83830000Y-132505000D03*
X83830000Y-129965000D03*
D14*
X151384000Y-97790000D03*
D15*
X136144000Y-97790000D03*
D14*
X150876000Y-51562000D03*
D15*
X135636000Y-51562000D03*
D12*
X136144000Y-103632000D03*
D13*
X156464000Y-103632000D03*
D33*
X97490000Y-99316000D03*
D26*
X101300000Y-95506000D03*
D33*
X94950000Y-104396000D03*
X125430000Y-96776000D03*
X127970000Y-103126000D03*
X127970000Y-118366000D03*
X125430000Y-124716000D03*
X112984000Y-110746000D03*
X109936000Y-110746000D03*
X97490000Y-110746000D03*
X125430000Y-110746000D03*
D17*
X151852000Y-109728000D03*
X146852000Y-109728000D03*
D18*
X184000000Y-85900000D03*
D33*
X97790000Y-48006000D03*
D26*
X101600000Y-44196000D03*
D33*
X95250000Y-53086000D03*
X125730000Y-45466000D03*
X128270000Y-51816000D03*
X128270000Y-67056000D03*
X125730000Y-73406000D03*
X113284000Y-59436000D03*
X110236000Y-59436000D03*
X97790000Y-59436000D03*
X125730000Y-59436000D03*
D23*
X156972000Y-85344000D03*
D28*
X111252000Y-132842000D03*
X113792000Y-132842000D03*
X116332000Y-132842000D03*
D34*
X73975500Y-110998000D03*
X76900500Y-110998000D03*
D35*
X125476000Y-48034000D03*
X125476000Y-51534000D03*
D36*
X102108000Y-50800000D03*
X102108000Y-53725000D03*
D37*
X81280000Y-122936000D03*
X81280000Y-119986000D03*
D38*
X106426000Y-105912000D03*
D39*
X112726000Y-103632000D03*
D38*
X106426000Y-101352000D03*
D40*
X122428000Y-123829000D03*
X122428000Y-120904000D03*
D41*
X170110000Y-49550000D03*
D42*
X170110000Y-55000000D03*
X170110000Y-60450000D03*
D43*
X153162000Y-123952000D03*
X148137000Y-123952000D03*
D40*
X128270000Y-100776500D03*
X128270000Y-97851500D03*
D44*
X128462500Y-91694000D03*
X125537500Y-91694000D03*
D40*
X86868000Y-129732500D03*
X86868000Y-126807500D03*
D45*
X100358000Y-69342000D03*
X103858000Y-69342000D03*
D46*
X148082000Y-98298000D03*
X141282000Y-98298000D03*
D47*
X168844000Y-36371000D03*
X168844000Y-39321000D03*
D38*
X106426000Y-55365000D03*
D39*
X112726000Y-53085000D03*
D38*
X106426000Y-50805000D03*
D40*
X82550000Y-107634500D03*
X82550000Y-104709500D03*
D47*
X81280000Y-115160000D03*
X81280000Y-118110000D03*
D44*
X176972000Y-37592000D03*
X174047000Y-37592000D03*
D47*
X115316000Y-94791000D03*
X115316000Y-97741000D03*
D48*
X72185000Y-88060000D03*
X75135000Y-88060000D03*
D43*
X153107000Y-129032000D03*
X148082000Y-129032000D03*
D47*
X86868000Y-131621000D03*
X86868000Y-134571000D03*
D40*
X110490000Y-123890500D03*
X110490000Y-120965500D03*
D47*
X79756000Y-45007000D03*
X79756000Y-47957000D03*
D44*
X103570500Y-108458000D03*
X100645500Y-108458000D03*
D40*
X128270000Y-72328500D03*
X128270000Y-69403500D03*
D48*
X104853000Y-131572000D03*
X101903000Y-131572000D03*
D49*
X174752000Y-39702500D03*
X176652000Y-39702500D03*
X175702000Y-41577500D03*
D46*
X147066000Y-72898000D03*
X140266000Y-72898000D03*
D50*
X125476000Y-66520000D03*
X125476000Y-63020000D03*
D48*
X67105000Y-110998000D03*
X70055000Y-110998000D03*
D44*
X103632000Y-89916000D03*
X100707000Y-89916000D03*
X104840500Y-134620000D03*
X101915500Y-134620000D03*
D40*
X102362000Y-66994500D03*
X102362000Y-64069500D03*
D36*
X86868000Y-121981500D03*
X86868000Y-124906500D03*
D50*
X117602000Y-124178000D03*
X117602000Y-120678000D03*
X86360000Y-105128000D03*
X86360000Y-101628000D03*
D47*
X171892000Y-37641000D03*
X171892000Y-40591000D03*
D51*
X122633000Y-133350000D03*
X119683000Y-133350000D03*
D34*
X77785500Y-39624000D03*
X80710500Y-39624000D03*
D47*
X107950000Y-120953000D03*
X107950000Y-123903000D03*
D40*
X117602000Y-56072500D03*
X117602000Y-53147500D03*
D52*
X106172000Y-76708000D03*
X112397000Y-76708000D03*
D51*
X65229000Y-78232000D03*
X62279000Y-78232000D03*
D38*
X106426000Y-68827000D03*
D39*
X112726000Y-66547000D03*
D38*
X106426000Y-64267000D03*
D45*
X100358000Y-106172000D03*
X103858000Y-106172000D03*
D48*
X72185000Y-79170000D03*
X75135000Y-79170000D03*
D34*
X72197500Y-81710000D03*
X75122500Y-81710000D03*
D44*
X103570500Y-71628000D03*
X100645500Y-71628000D03*
D40*
X102362000Y-103886000D03*
X102362000Y-100961000D03*
D41*
X170000000Y-94000000D03*
D42*
X170000000Y-99450000D03*
X170000000Y-104900000D03*
D53*
X128496000Y-128270000D03*
X124996000Y-128270000D03*
D40*
X62992000Y-45404500D03*
X62992000Y-42479500D03*
D41*
X170000000Y-67100000D03*
D42*
X170000000Y-72550000D03*
X170000000Y-78000000D03*
D43*
X153162000Y-134112000D03*
X148137000Y-134112000D03*
D36*
X102362000Y-82357500D03*
X102362000Y-85282500D03*
D47*
X120142000Y-120904000D03*
X120142000Y-123854000D03*
D40*
X125476000Y-71312500D03*
X125476000Y-68387500D03*
D46*
X146656000Y-51816000D03*
X139856000Y-51816000D03*
D36*
X107950000Y-130617500D03*
X107950000Y-133542500D03*
D47*
X117602000Y-58469000D03*
X117602000Y-61419000D03*
D46*
X148180000Y-116586000D03*
X141380000Y-116586000D03*
D47*
X108204000Y-125779000D03*
X108204000Y-128729000D03*
D50*
X125222000Y-117574000D03*
X125222000Y-114074000D03*
D44*
X75122500Y-85520000D03*
X72197500Y-85520000D03*
D40*
X82550000Y-102616000D03*
X82550000Y-99691000D03*
D38*
X106426000Y-87370000D03*
D39*
X112726000Y-85090000D03*
D38*
X106426000Y-82810000D03*
D40*
X128524000Y-49468500D03*
X128524000Y-46543500D03*
D41*
X170110000Y-112100000D03*
D42*
X170110000Y-117550000D03*
X170110000Y-123000000D03*
D40*
X125222000Y-122428000D03*
X125222000Y-119503000D03*
D54*
X105156000Y-127741000D03*
X103886000Y-127741000D03*
X102616000Y-127741000D03*
X101346000Y-127741000D03*
X101346000Y-122591000D03*
X102616000Y-122591000D03*
X103886000Y-122591000D03*
X105156000Y-122591000D03*
D51*
X109679000Y-91440000D03*
X106729000Y-91440000D03*
D44*
X75122500Y-76630000D03*
X72197500Y-76630000D03*
D45*
X100358000Y-87630000D03*
X103858000Y-87630000D03*
D36*
X128016000Y-113091500D03*
X128016000Y-116016500D03*
D44*
X103763000Y-58166000D03*
X100838000Y-58166000D03*
D36*
X110998000Y-125853000D03*
X110998000Y-128778000D03*
D44*
X128462500Y-54610000D03*
X125537500Y-54610000D03*
D55*
X114711000Y-127950000D03*
X114711000Y-126050000D03*
X116586000Y-127000000D03*
D45*
X100358000Y-55880000D03*
X103858000Y-55880000D03*
D40*
X115316000Y-92648500D03*
X115316000Y-89723500D03*
X71882000Y-40070500D03*
X71882000Y-37145500D03*
D47*
X98552000Y-120953000D03*
X98552000Y-123903000D03*
D37*
X79756000Y-52783000D03*
X79756000Y-49833000D03*
D36*
X112776000Y-120965500D03*
X112776000Y-123890500D03*
D45*
X125250000Y-93980000D03*
X128750000Y-93980000D03*
D51*
X110441000Y-42926000D03*
X107491000Y-42926000D03*
%LPD*%
M02*
