%TF.GenerationSoftware,KiCad,Pcbnew,7.0.2*%
%TF.CreationDate,2023-07-17T11:55:58+02:00*%
%TF.ProjectId,Module_3,4d6f6475-6c65-45f3-932e-6b696361645f,rev?*%
%TF.SameCoordinates,Original*%
%TF.FileFunction,Drillmap*%
%TF.FilePolarity,Positive*%
%FSLAX45Y45*%
G04 Gerber Fmt 4.5, Leading zero omitted, Abs format (unit mm)*
G04 Created by KiCad (PCBNEW 7.0.2) date 2023-07-17 11:55:58*
%MOMM*%
%LPD*%
G01*
G04 APERTURE LIST*
%ADD10C,0.100000*%
%ADD11C,0.200000*%
%ADD12C,0.050000*%
%ADD13C,0.080000*%
%ADD14C,0.120000*%
%ADD15C,0.160000*%
%ADD16C,0.170000*%
%ADD17C,0.180000*%
%ADD18C,0.400000*%
G04 APERTURE END LIST*
D10*
X4762500Y-4612800D02*
X23431500Y-4612800D01*
X23431500Y-13629800D01*
X4762500Y-13629800D01*
X4762500Y-4612800D01*
D11*
D12*
X11151000Y-13183000D02*
X11201000Y-13233000D01*
X11201000Y-13183000D02*
X11151000Y-13233000D01*
X11913000Y-13183000D02*
X11963000Y-13233000D01*
X11963000Y-13183000D02*
X11913000Y-13233000D01*
X12675000Y-13183000D02*
X12725000Y-13233000D01*
X12725000Y-13183000D02*
X12675000Y-13233000D01*
X13437000Y-13183000D02*
X13487000Y-13233000D01*
X13487000Y-13183000D02*
X13437000Y-13233000D01*
X14199000Y-12421000D02*
X14249000Y-12471000D01*
X14249000Y-12421000D02*
X14199000Y-12471000D01*
X14453000Y-12167000D02*
X14503000Y-12217000D01*
X14503000Y-12167000D02*
X14453000Y-12217000D01*
X14453000Y-12675000D02*
X14503000Y-12725000D01*
X14503000Y-12675000D02*
X14453000Y-12725000D01*
X14707000Y-12929000D02*
X14757000Y-12979000D01*
X14757000Y-12929000D02*
X14707000Y-12979000D01*
X14961000Y-10643000D02*
X15011000Y-10693000D01*
X15011000Y-10643000D02*
X14961000Y-10693000D01*
X15342000Y-12040000D02*
X15392000Y-12090000D01*
X15392000Y-12040000D02*
X15342000Y-12090000D01*
X15469000Y-12929000D02*
X15519000Y-12979000D01*
X15519000Y-12929000D02*
X15469000Y-12979000D01*
X15723000Y-10643000D02*
X15773000Y-10693000D01*
X15773000Y-10643000D02*
X15723000Y-10693000D01*
X15723000Y-11024000D02*
X15773000Y-11074000D01*
X15773000Y-11024000D02*
X15723000Y-11074000D01*
X15723000Y-11405000D02*
X15773000Y-11455000D01*
X15773000Y-11405000D02*
X15723000Y-11455000D01*
X15723000Y-12040000D02*
X15773000Y-12090000D01*
X15773000Y-12040000D02*
X15723000Y-12090000D01*
X17501000Y-10389000D02*
X17551000Y-10439000D01*
X17551000Y-10389000D02*
X17501000Y-10439000D01*
X18263000Y-10389000D02*
X18313000Y-10439000D01*
X18313000Y-10389000D02*
X18263000Y-10439000D01*
X19025000Y-10389000D02*
X19075000Y-10439000D01*
X19075000Y-10389000D02*
X19025000Y-10439000D01*
X19787000Y-10389000D02*
X19837000Y-10439000D01*
X19837000Y-10389000D02*
X19787000Y-10439000D01*
X20549000Y-10389000D02*
X20599000Y-10439000D01*
X20599000Y-10389000D02*
X20549000Y-10439000D01*
X21311000Y-10389000D02*
X21361000Y-10439000D01*
X21361000Y-10389000D02*
X21311000Y-10439000D01*
X21565000Y-11659000D02*
X21615000Y-11709000D01*
X21615000Y-11659000D02*
X21565000Y-11709000D01*
X21565000Y-12167000D02*
X21615000Y-12217000D01*
X21615000Y-12167000D02*
X21565000Y-12217000D01*
X21565000Y-12675000D02*
X21615000Y-12725000D01*
X21615000Y-12675000D02*
X21565000Y-12725000D01*
X22073000Y-10389000D02*
X22123000Y-10439000D01*
X22123000Y-10389000D02*
X22073000Y-10439000D01*
X23089000Y-10389000D02*
X23139000Y-10439000D01*
X23139000Y-10389000D02*
X23089000Y-10439000D01*
X23089000Y-12167000D02*
X23139000Y-12217000D01*
X23139000Y-12167000D02*
X23089000Y-12217000D01*
D13*
X15089500Y-11343800D02*
G75*
G03*
X15089500Y-11343800I-40000J0D01*
G01*
X15089500Y-11693800D02*
G75*
G03*
X15089500Y-11693800I-40000J0D01*
G01*
X17883500Y-10922000D02*
G75*
G03*
X17883500Y-10922000I-40000J0D01*
G01*
X17883500Y-11272000D02*
G75*
G03*
X17883500Y-11272000I-40000J0D01*
G01*
X18138000Y-9185800D02*
G75*
G03*
X18138000Y-9185800I-40000J0D01*
G01*
X18138000Y-9947800D02*
G75*
G03*
X18138000Y-9947800I-40000J0D01*
G01*
X18392000Y-9185800D02*
G75*
G03*
X18392000Y-9185800I-40000J0D01*
G01*
X18392000Y-9947800D02*
G75*
G03*
X18392000Y-9947800I-40000J0D01*
G01*
D10*
X15563500Y-5451800D02*
X15563500Y-5551800D01*
X15513500Y-5501800D02*
X15613500Y-5501800D01*
X15569500Y-8880800D02*
X15569500Y-8980800D01*
X15519500Y-8930800D02*
X15619500Y-8930800D01*
X16313500Y-5451800D02*
X16313500Y-5551800D01*
X16263500Y-5501800D02*
X16363500Y-5501800D01*
X16319500Y-8880800D02*
X16319500Y-8980800D01*
X16269500Y-8930800D02*
X16369500Y-8930800D01*
X22479000Y-10618000D02*
X22479000Y-10718000D01*
X22429000Y-10668000D02*
X22529000Y-10668000D01*
X22479000Y-10872000D02*
X22479000Y-10972000D01*
X22429000Y-10922000D02*
X22529000Y-10922000D01*
X22479000Y-11126000D02*
X22479000Y-11226000D01*
X22429000Y-11176000D02*
X22529000Y-11176000D01*
X22479000Y-11380000D02*
X22479000Y-11480000D01*
X22429000Y-11430000D02*
X22529000Y-11430000D01*
X22479000Y-11634000D02*
X22479000Y-11734000D01*
X22429000Y-11684000D02*
X22529000Y-11684000D01*
X22733000Y-10618000D02*
X22733000Y-10718000D01*
X22683000Y-10668000D02*
X22783000Y-10668000D01*
X22733000Y-10872000D02*
X22733000Y-10972000D01*
X22683000Y-10922000D02*
X22783000Y-10922000D01*
X22733000Y-11126000D02*
X22733000Y-11226000D01*
X22683000Y-11176000D02*
X22783000Y-11176000D01*
X22733000Y-11380000D02*
X22733000Y-11480000D01*
X22683000Y-11430000D02*
X22783000Y-11430000D01*
X22733000Y-11634000D02*
X22733000Y-11734000D01*
X22683000Y-11684000D02*
X22783000Y-11684000D01*
D14*
X7535427Y-6179227D02*
X7535427Y-6094373D01*
X7450573Y-6094373D01*
X7450573Y-6179227D01*
X7535427Y-6179227D01*
X7535427Y-8429227D02*
X7535427Y-8344373D01*
X7450573Y-8344373D01*
X7450573Y-8429227D01*
X7535427Y-8429227D01*
X11916927Y-6197227D02*
X11916927Y-6112373D01*
X11832073Y-6112373D01*
X11832073Y-6197227D01*
X11916927Y-6197227D01*
X11916927Y-8447227D02*
X11916927Y-8362373D01*
X11832073Y-8362373D01*
X11832073Y-8447227D01*
X11916927Y-8447227D01*
X15980927Y-6179227D02*
X15980927Y-6094373D01*
X15896073Y-6094373D01*
X15896073Y-6179227D01*
X15980927Y-6179227D01*
X15980927Y-8429227D02*
X15980927Y-8344373D01*
X15896073Y-8344373D01*
X15896073Y-8429227D01*
X15980927Y-8429227D01*
X20108427Y-5798227D02*
X20108427Y-5713373D01*
X20023573Y-5713373D01*
X20023573Y-5798227D01*
X20108427Y-5798227D01*
X20108427Y-8548227D02*
X20108427Y-8463373D01*
X20023573Y-8463373D01*
X20023573Y-8548227D01*
X20108427Y-8548227D01*
D15*
X6477000Y-11370300D02*
X6557000Y-11290300D01*
X6477000Y-11210300D01*
X6397000Y-11290300D01*
X6477000Y-11370300D01*
X6477000Y-12005300D02*
X6557000Y-11925300D01*
X6477000Y-11845300D01*
X6397000Y-11925300D01*
X6477000Y-12005300D01*
X7620000Y-11357600D02*
X7700000Y-11277600D01*
X7620000Y-11197600D01*
X7540000Y-11277600D01*
X7620000Y-11357600D01*
X7620000Y-11992600D02*
X7700000Y-11912600D01*
X7620000Y-11832600D01*
X7540000Y-11912600D01*
X7620000Y-11992600D01*
X8686800Y-10824200D02*
X8766800Y-10744200D01*
X8686800Y-10664200D01*
X8606800Y-10744200D01*
X8686800Y-10824200D01*
X8686800Y-11332200D02*
X8766800Y-11252200D01*
X8686800Y-11172200D01*
X8606800Y-11252200D01*
X8686800Y-11332200D01*
X11480800Y-11586200D02*
X11560800Y-11506200D01*
X11480800Y-11426200D01*
X11400800Y-11506200D01*
X11480800Y-11586200D01*
X11480800Y-12094200D02*
X11560800Y-12014200D01*
X11480800Y-11934200D01*
X11400800Y-12014200D01*
X11480800Y-12094200D01*
X11480800Y-12602200D02*
X11560800Y-12522200D01*
X11480800Y-12442200D01*
X11400800Y-12522200D01*
X11480800Y-12602200D01*
X12522200Y-11357600D02*
X12602200Y-11277600D01*
X12522200Y-11197600D01*
X12442200Y-11277600D01*
X12522200Y-11357600D01*
X12522200Y-11992600D02*
X12602200Y-11912600D01*
X12522200Y-11832600D01*
X12442200Y-11912600D01*
X12522200Y-11992600D01*
X13716000Y-11357600D02*
X13796000Y-11277600D01*
X13716000Y-11197600D01*
X13636000Y-11277600D01*
X13716000Y-11357600D01*
X13716000Y-11992600D02*
X13796000Y-11912600D01*
X13716000Y-11832600D01*
X13636000Y-11912600D01*
X13716000Y-11992600D01*
X16827500Y-6620500D02*
X16907500Y-6540500D01*
X16827500Y-6460500D01*
X16747500Y-6540500D01*
X16827500Y-6620500D01*
X16827500Y-7128500D02*
X16907500Y-7048500D01*
X16827500Y-6968500D01*
X16747500Y-7048500D01*
X16827500Y-7128500D01*
X16827500Y-7636500D02*
X16907500Y-7556500D01*
X16827500Y-7476500D01*
X16747500Y-7556500D01*
X16827500Y-7636500D01*
X16827500Y-8144500D02*
X16907500Y-8064500D01*
X16827500Y-7984500D01*
X16747500Y-8064500D01*
X16827500Y-8144500D01*
X20320000Y-12653000D02*
X20400000Y-12573000D01*
X20320000Y-12493000D01*
X20240000Y-12573000D01*
X20320000Y-12653000D01*
X20955000Y-12653000D02*
X21035000Y-12573000D01*
X20955000Y-12493000D01*
X20875000Y-12573000D01*
X20955000Y-12653000D01*
D16*
X5566500Y-9780000D02*
X5736500Y-9950000D01*
X5736500Y-9780000D02*
X5566500Y-9950000D01*
X5736500Y-9865000D02*
G75*
G03*
X5736500Y-9865000I-85000J0D01*
G01*
X5566500Y-10456000D02*
X5736500Y-10626000D01*
X5736500Y-10456000D02*
X5566500Y-10626000D01*
X5736500Y-10541000D02*
G75*
G03*
X5736500Y-10541000I-85000J0D01*
G01*
X5566500Y-11415000D02*
X5736500Y-11585000D01*
X5736500Y-11415000D02*
X5566500Y-11585000D01*
X5736500Y-11500000D02*
G75*
G03*
X5736500Y-11500000I-85000J0D01*
G01*
X5566500Y-12091000D02*
X5736500Y-12261000D01*
X5736500Y-12091000D02*
X5566500Y-12261000D01*
X5736500Y-12176000D02*
G75*
G03*
X5736500Y-12176000I-85000J0D01*
G01*
D17*
X5752000Y-6387000D02*
X5932000Y-6567000D01*
X5932000Y-6387000D02*
X5752000Y-6567000D01*
X5842000Y-6387000D02*
X5842000Y-6567000D01*
X5752000Y-6477000D02*
X5932000Y-6477000D01*
X5752000Y-7149000D02*
X5932000Y-7329000D01*
X5932000Y-7149000D02*
X5752000Y-7329000D01*
X5842000Y-7149000D02*
X5842000Y-7329000D01*
X5752000Y-7239000D02*
X5932000Y-7239000D01*
X5752000Y-7911000D02*
X5932000Y-8091000D01*
X5932000Y-7911000D02*
X5752000Y-8091000D01*
X5842000Y-7911000D02*
X5842000Y-8091000D01*
X5752000Y-8001000D02*
X5932000Y-8001000D01*
X18325000Y-12432200D02*
X18505000Y-12612200D01*
X18505000Y-12432200D02*
X18325000Y-12612200D01*
X18415000Y-12432200D02*
X18415000Y-12612200D01*
X18325000Y-12522200D02*
X18505000Y-12522200D01*
X19087000Y-12432200D02*
X19267000Y-12612200D01*
X19267000Y-12432200D02*
X19087000Y-12612200D01*
X19177000Y-12432200D02*
X19177000Y-12612200D01*
X19087000Y-12522200D02*
X19267000Y-12522200D01*
D11*
X8599500Y-6265400D02*
X8799500Y-6465400D01*
X8799500Y-6265400D02*
X8599500Y-6465400D01*
X8770211Y-6436111D02*
X8770211Y-6294689D01*
X8628789Y-6294689D01*
X8628789Y-6436111D01*
X8770211Y-6436111D01*
X8599500Y-8068800D02*
X8799500Y-8268800D01*
X8799500Y-8068800D02*
X8599500Y-8268800D01*
X8770211Y-8239511D02*
X8770211Y-8098089D01*
X8628789Y-8098089D01*
X8628789Y-8239511D01*
X8770211Y-8239511D01*
X8777300Y-5401800D02*
X8977300Y-5601800D01*
X8977300Y-5401800D02*
X8777300Y-5601800D01*
X8948011Y-5572511D02*
X8948011Y-5431089D01*
X8806589Y-5431089D01*
X8806589Y-5572511D01*
X8948011Y-5572511D01*
X8777300Y-8957800D02*
X8977300Y-9157800D01*
X8977300Y-8957800D02*
X8777300Y-9157800D01*
X8948011Y-9128511D02*
X8948011Y-8987089D01*
X8806589Y-8987089D01*
X8806589Y-9128511D01*
X8948011Y-9128511D01*
X10783900Y-5401800D02*
X10983900Y-5601800D01*
X10983900Y-5401800D02*
X10783900Y-5601800D01*
X10954611Y-5572511D02*
X10954611Y-5431089D01*
X10813189Y-5431089D01*
X10813189Y-5572511D01*
X10954611Y-5572511D01*
X10783900Y-8957800D02*
X10983900Y-9157800D01*
X10983900Y-8957800D02*
X10783900Y-9157800D01*
X10954611Y-9128511D02*
X10954611Y-8987089D01*
X10813189Y-8987089D01*
X10813189Y-9128511D01*
X10954611Y-9128511D01*
X10910900Y-6265400D02*
X11110900Y-6465400D01*
X11110900Y-6265400D02*
X10910900Y-6465400D01*
X11081611Y-6436111D02*
X11081611Y-6294689D01*
X10940189Y-6294689D01*
X10940189Y-6436111D01*
X11081611Y-6436111D01*
X10910900Y-8068800D02*
X11110900Y-8268800D01*
X11110900Y-8068800D02*
X10910900Y-8268800D01*
X11081611Y-8239511D02*
X11081611Y-8098089D01*
X10940189Y-8098089D01*
X10940189Y-8239511D01*
X11081611Y-8239511D01*
X12663500Y-6290800D02*
X12863500Y-6490800D01*
X12863500Y-6290800D02*
X12663500Y-6490800D01*
X12834211Y-6461511D02*
X12834211Y-6320089D01*
X12692789Y-6320089D01*
X12692789Y-6461511D01*
X12834211Y-6461511D01*
X12663500Y-8094200D02*
X12863500Y-8294200D01*
X12863500Y-8094200D02*
X12663500Y-8294200D01*
X12834211Y-8264911D02*
X12834211Y-8123489D01*
X12692789Y-8123489D01*
X12692789Y-8264911D01*
X12834211Y-8264911D01*
X12841300Y-5427200D02*
X13041300Y-5627200D01*
X13041300Y-5427200D02*
X12841300Y-5627200D01*
X13012011Y-5597911D02*
X13012011Y-5456489D01*
X12870589Y-5456489D01*
X12870589Y-5597911D01*
X13012011Y-5597911D01*
X12841300Y-8983200D02*
X13041300Y-9183200D01*
X13041300Y-8983200D02*
X12841300Y-9183200D01*
X13012011Y-9153911D02*
X13012011Y-9012489D01*
X12870589Y-9012489D01*
X12870589Y-9153911D01*
X13012011Y-9153911D01*
X14847900Y-5427200D02*
X15047900Y-5627200D01*
X15047900Y-5427200D02*
X14847900Y-5627200D01*
X15018611Y-5597911D02*
X15018611Y-5456489D01*
X14877189Y-5456489D01*
X14877189Y-5597911D01*
X15018611Y-5597911D01*
X14847900Y-8983200D02*
X15047900Y-9183200D01*
X15047900Y-8983200D02*
X14847900Y-9183200D01*
X15018611Y-9153911D02*
X15018611Y-9012489D01*
X14877189Y-9012489D01*
X14877189Y-9153911D01*
X15018611Y-9153911D01*
X14974900Y-6290800D02*
X15174900Y-6490800D01*
X15174900Y-6290800D02*
X14974900Y-6490800D01*
X15145611Y-6461511D02*
X15145611Y-6320089D01*
X15004189Y-6320089D01*
X15004189Y-6461511D01*
X15145611Y-6461511D01*
X14974900Y-8094200D02*
X15174900Y-8294200D01*
X15174900Y-8094200D02*
X14974900Y-8294200D01*
X15145611Y-8264911D02*
X15145611Y-8123489D01*
X15004189Y-8123489D01*
X15004189Y-8264911D01*
X15145611Y-8264911D01*
D18*
X22025000Y-6023000D02*
X22425000Y-6423000D01*
X22425000Y-6023000D02*
X22025000Y-6423000D01*
X22225000Y-6423000D02*
X22425000Y-6223000D01*
X22225000Y-6023000D01*
X22025000Y-6223000D01*
X22225000Y-6423000D01*
X22025000Y-7801000D02*
X22425000Y-8201000D01*
X22425000Y-7801000D02*
X22025000Y-8201000D01*
X22225000Y-8201000D02*
X22425000Y-8001000D01*
X22225000Y-7801000D01*
X22025000Y-8001000D01*
X22225000Y-8201000D01*
D11*
X5005119Y-13947324D02*
X5005119Y-13747324D01*
X5005119Y-13747324D02*
X5052738Y-13747324D01*
X5052738Y-13747324D02*
X5081310Y-13756848D01*
X5081310Y-13756848D02*
X5100357Y-13775895D01*
X5100357Y-13775895D02*
X5109881Y-13794943D01*
X5109881Y-13794943D02*
X5119405Y-13833038D01*
X5119405Y-13833038D02*
X5119405Y-13861609D01*
X5119405Y-13861609D02*
X5109881Y-13899705D01*
X5109881Y-13899705D02*
X5100357Y-13918752D01*
X5100357Y-13918752D02*
X5081310Y-13937800D01*
X5081310Y-13937800D02*
X5052738Y-13947324D01*
X5052738Y-13947324D02*
X5005119Y-13947324D01*
X5205119Y-13947324D02*
X5205119Y-13813990D01*
X5205119Y-13852086D02*
X5214643Y-13833038D01*
X5214643Y-13833038D02*
X5224167Y-13823514D01*
X5224167Y-13823514D02*
X5243214Y-13813990D01*
X5243214Y-13813990D02*
X5262262Y-13813990D01*
X5328929Y-13947324D02*
X5328929Y-13813990D01*
X5328929Y-13747324D02*
X5319405Y-13756848D01*
X5319405Y-13756848D02*
X5328929Y-13766371D01*
X5328929Y-13766371D02*
X5338452Y-13756848D01*
X5338452Y-13756848D02*
X5328929Y-13747324D01*
X5328929Y-13747324D02*
X5328929Y-13766371D01*
X5452738Y-13947324D02*
X5433690Y-13937800D01*
X5433690Y-13937800D02*
X5424167Y-13918752D01*
X5424167Y-13918752D02*
X5424167Y-13747324D01*
X5557500Y-13947324D02*
X5538452Y-13937800D01*
X5538452Y-13937800D02*
X5528929Y-13918752D01*
X5528929Y-13918752D02*
X5528929Y-13747324D01*
X5786071Y-13947324D02*
X5786071Y-13747324D01*
X5786071Y-13747324D02*
X5852738Y-13890181D01*
X5852738Y-13890181D02*
X5919405Y-13747324D01*
X5919405Y-13747324D02*
X5919405Y-13947324D01*
X6100357Y-13947324D02*
X6100357Y-13842562D01*
X6100357Y-13842562D02*
X6090833Y-13823514D01*
X6090833Y-13823514D02*
X6071786Y-13813990D01*
X6071786Y-13813990D02*
X6033690Y-13813990D01*
X6033690Y-13813990D02*
X6014643Y-13823514D01*
X6100357Y-13937800D02*
X6081309Y-13947324D01*
X6081309Y-13947324D02*
X6033690Y-13947324D01*
X6033690Y-13947324D02*
X6014643Y-13937800D01*
X6014643Y-13937800D02*
X6005119Y-13918752D01*
X6005119Y-13918752D02*
X6005119Y-13899705D01*
X6005119Y-13899705D02*
X6014643Y-13880657D01*
X6014643Y-13880657D02*
X6033690Y-13871133D01*
X6033690Y-13871133D02*
X6081309Y-13871133D01*
X6081309Y-13871133D02*
X6100357Y-13861609D01*
X6195595Y-13813990D02*
X6195595Y-14013990D01*
X6195595Y-13823514D02*
X6214643Y-13813990D01*
X6214643Y-13813990D02*
X6252738Y-13813990D01*
X6252738Y-13813990D02*
X6271786Y-13823514D01*
X6271786Y-13823514D02*
X6281309Y-13833038D01*
X6281309Y-13833038D02*
X6290833Y-13852086D01*
X6290833Y-13852086D02*
X6290833Y-13909228D01*
X6290833Y-13909228D02*
X6281309Y-13928276D01*
X6281309Y-13928276D02*
X6271786Y-13937800D01*
X6271786Y-13937800D02*
X6252738Y-13947324D01*
X6252738Y-13947324D02*
X6214643Y-13947324D01*
X6214643Y-13947324D02*
X6195595Y-13937800D01*
X6376548Y-13928276D02*
X6386071Y-13937800D01*
X6386071Y-13937800D02*
X6376548Y-13947324D01*
X6376548Y-13947324D02*
X6367024Y-13937800D01*
X6367024Y-13937800D02*
X6376548Y-13928276D01*
X6376548Y-13928276D02*
X6376548Y-13947324D01*
X6376548Y-13823514D02*
X6386071Y-13833038D01*
X6386071Y-13833038D02*
X6376548Y-13842562D01*
X6376548Y-13842562D02*
X6367024Y-13833038D01*
X6367024Y-13833038D02*
X6376548Y-13823514D01*
X6376548Y-13823514D02*
X6376548Y-13842562D01*
D12*
X4707500Y-14249800D02*
X4757500Y-14299800D01*
X4757500Y-14249800D02*
X4707500Y-14299800D01*
D11*
X5043214Y-14167324D02*
X5062262Y-14167324D01*
X5062262Y-14167324D02*
X5081310Y-14176848D01*
X5081310Y-14176848D02*
X5090833Y-14186371D01*
X5090833Y-14186371D02*
X5100357Y-14205419D01*
X5100357Y-14205419D02*
X5109881Y-14243514D01*
X5109881Y-14243514D02*
X5109881Y-14291133D01*
X5109881Y-14291133D02*
X5100357Y-14329228D01*
X5100357Y-14329228D02*
X5090833Y-14348276D01*
X5090833Y-14348276D02*
X5081310Y-14357800D01*
X5081310Y-14357800D02*
X5062262Y-14367324D01*
X5062262Y-14367324D02*
X5043214Y-14367324D01*
X5043214Y-14367324D02*
X5024167Y-14357800D01*
X5024167Y-14357800D02*
X5014643Y-14348276D01*
X5014643Y-14348276D02*
X5005119Y-14329228D01*
X5005119Y-14329228D02*
X4995595Y-14291133D01*
X4995595Y-14291133D02*
X4995595Y-14243514D01*
X4995595Y-14243514D02*
X5005119Y-14205419D01*
X5005119Y-14205419D02*
X5014643Y-14186371D01*
X5014643Y-14186371D02*
X5024167Y-14176848D01*
X5024167Y-14176848D02*
X5043214Y-14167324D01*
X5195595Y-14348276D02*
X5205119Y-14357800D01*
X5205119Y-14357800D02*
X5195595Y-14367324D01*
X5195595Y-14367324D02*
X5186071Y-14357800D01*
X5186071Y-14357800D02*
X5195595Y-14348276D01*
X5195595Y-14348276D02*
X5195595Y-14367324D01*
X5386071Y-14167324D02*
X5290833Y-14167324D01*
X5290833Y-14167324D02*
X5281310Y-14262562D01*
X5281310Y-14262562D02*
X5290833Y-14253038D01*
X5290833Y-14253038D02*
X5309881Y-14243514D01*
X5309881Y-14243514D02*
X5357500Y-14243514D01*
X5357500Y-14243514D02*
X5376548Y-14253038D01*
X5376548Y-14253038D02*
X5386071Y-14262562D01*
X5386071Y-14262562D02*
X5395595Y-14281609D01*
X5395595Y-14281609D02*
X5395595Y-14329228D01*
X5395595Y-14329228D02*
X5386071Y-14348276D01*
X5386071Y-14348276D02*
X5376548Y-14357800D01*
X5376548Y-14357800D02*
X5357500Y-14367324D01*
X5357500Y-14367324D02*
X5309881Y-14367324D01*
X5309881Y-14367324D02*
X5290833Y-14357800D01*
X5290833Y-14357800D02*
X5281310Y-14348276D01*
X5519405Y-14167324D02*
X5538452Y-14167324D01*
X5538452Y-14167324D02*
X5557500Y-14176848D01*
X5557500Y-14176848D02*
X5567024Y-14186371D01*
X5567024Y-14186371D02*
X5576548Y-14205419D01*
X5576548Y-14205419D02*
X5586071Y-14243514D01*
X5586071Y-14243514D02*
X5586071Y-14291133D01*
X5586071Y-14291133D02*
X5576548Y-14329228D01*
X5576548Y-14329228D02*
X5567024Y-14348276D01*
X5567024Y-14348276D02*
X5557500Y-14357800D01*
X5557500Y-14357800D02*
X5538452Y-14367324D01*
X5538452Y-14367324D02*
X5519405Y-14367324D01*
X5519405Y-14367324D02*
X5500357Y-14357800D01*
X5500357Y-14357800D02*
X5490833Y-14348276D01*
X5490833Y-14348276D02*
X5481310Y-14329228D01*
X5481310Y-14329228D02*
X5471786Y-14291133D01*
X5471786Y-14291133D02*
X5471786Y-14243514D01*
X5471786Y-14243514D02*
X5481310Y-14205419D01*
X5481310Y-14205419D02*
X5490833Y-14186371D01*
X5490833Y-14186371D02*
X5500357Y-14176848D01*
X5500357Y-14176848D02*
X5519405Y-14167324D01*
X5709881Y-14167324D02*
X5728929Y-14167324D01*
X5728929Y-14167324D02*
X5747976Y-14176848D01*
X5747976Y-14176848D02*
X5757500Y-14186371D01*
X5757500Y-14186371D02*
X5767024Y-14205419D01*
X5767024Y-14205419D02*
X5776548Y-14243514D01*
X5776548Y-14243514D02*
X5776548Y-14291133D01*
X5776548Y-14291133D02*
X5767024Y-14329228D01*
X5767024Y-14329228D02*
X5757500Y-14348276D01*
X5757500Y-14348276D02*
X5747976Y-14357800D01*
X5747976Y-14357800D02*
X5728929Y-14367324D01*
X5728929Y-14367324D02*
X5709881Y-14367324D01*
X5709881Y-14367324D02*
X5690833Y-14357800D01*
X5690833Y-14357800D02*
X5681309Y-14348276D01*
X5681309Y-14348276D02*
X5671786Y-14329228D01*
X5671786Y-14329228D02*
X5662262Y-14291133D01*
X5662262Y-14291133D02*
X5662262Y-14243514D01*
X5662262Y-14243514D02*
X5671786Y-14205419D01*
X5671786Y-14205419D02*
X5681309Y-14186371D01*
X5681309Y-14186371D02*
X5690833Y-14176848D01*
X5690833Y-14176848D02*
X5709881Y-14167324D01*
X5862262Y-14367324D02*
X5862262Y-14233990D01*
X5862262Y-14253038D02*
X5871786Y-14243514D01*
X5871786Y-14243514D02*
X5890833Y-14233990D01*
X5890833Y-14233990D02*
X5919405Y-14233990D01*
X5919405Y-14233990D02*
X5938452Y-14243514D01*
X5938452Y-14243514D02*
X5947976Y-14262562D01*
X5947976Y-14262562D02*
X5947976Y-14367324D01*
X5947976Y-14262562D02*
X5957500Y-14243514D01*
X5957500Y-14243514D02*
X5976548Y-14233990D01*
X5976548Y-14233990D02*
X6005119Y-14233990D01*
X6005119Y-14233990D02*
X6024167Y-14243514D01*
X6024167Y-14243514D02*
X6033690Y-14262562D01*
X6033690Y-14262562D02*
X6033690Y-14367324D01*
X6128929Y-14367324D02*
X6128929Y-14233990D01*
X6128929Y-14253038D02*
X6138452Y-14243514D01*
X6138452Y-14243514D02*
X6157500Y-14233990D01*
X6157500Y-14233990D02*
X6186071Y-14233990D01*
X6186071Y-14233990D02*
X6205119Y-14243514D01*
X6205119Y-14243514D02*
X6214643Y-14262562D01*
X6214643Y-14262562D02*
X6214643Y-14367324D01*
X6214643Y-14262562D02*
X6224167Y-14243514D01*
X6224167Y-14243514D02*
X6243214Y-14233990D01*
X6243214Y-14233990D02*
X6271786Y-14233990D01*
X6271786Y-14233990D02*
X6290833Y-14243514D01*
X6290833Y-14243514D02*
X6300357Y-14262562D01*
X6300357Y-14262562D02*
X6300357Y-14367324D01*
X6690833Y-14157800D02*
X6519405Y-14414943D01*
X6947976Y-14167324D02*
X6967024Y-14167324D01*
X6967024Y-14167324D02*
X6986072Y-14176848D01*
X6986072Y-14176848D02*
X6995595Y-14186371D01*
X6995595Y-14186371D02*
X7005119Y-14205419D01*
X7005119Y-14205419D02*
X7014643Y-14243514D01*
X7014643Y-14243514D02*
X7014643Y-14291133D01*
X7014643Y-14291133D02*
X7005119Y-14329228D01*
X7005119Y-14329228D02*
X6995595Y-14348276D01*
X6995595Y-14348276D02*
X6986072Y-14357800D01*
X6986072Y-14357800D02*
X6967024Y-14367324D01*
X6967024Y-14367324D02*
X6947976Y-14367324D01*
X6947976Y-14367324D02*
X6928929Y-14357800D01*
X6928929Y-14357800D02*
X6919405Y-14348276D01*
X6919405Y-14348276D02*
X6909881Y-14329228D01*
X6909881Y-14329228D02*
X6900357Y-14291133D01*
X6900357Y-14291133D02*
X6900357Y-14243514D01*
X6900357Y-14243514D02*
X6909881Y-14205419D01*
X6909881Y-14205419D02*
X6919405Y-14186371D01*
X6919405Y-14186371D02*
X6928929Y-14176848D01*
X6928929Y-14176848D02*
X6947976Y-14167324D01*
X7100357Y-14348276D02*
X7109881Y-14357800D01*
X7109881Y-14357800D02*
X7100357Y-14367324D01*
X7100357Y-14367324D02*
X7090833Y-14357800D01*
X7090833Y-14357800D02*
X7100357Y-14348276D01*
X7100357Y-14348276D02*
X7100357Y-14367324D01*
X7233691Y-14167324D02*
X7252738Y-14167324D01*
X7252738Y-14167324D02*
X7271786Y-14176848D01*
X7271786Y-14176848D02*
X7281310Y-14186371D01*
X7281310Y-14186371D02*
X7290833Y-14205419D01*
X7290833Y-14205419D02*
X7300357Y-14243514D01*
X7300357Y-14243514D02*
X7300357Y-14291133D01*
X7300357Y-14291133D02*
X7290833Y-14329228D01*
X7290833Y-14329228D02*
X7281310Y-14348276D01*
X7281310Y-14348276D02*
X7271786Y-14357800D01*
X7271786Y-14357800D02*
X7252738Y-14367324D01*
X7252738Y-14367324D02*
X7233691Y-14367324D01*
X7233691Y-14367324D02*
X7214643Y-14357800D01*
X7214643Y-14357800D02*
X7205119Y-14348276D01*
X7205119Y-14348276D02*
X7195595Y-14329228D01*
X7195595Y-14329228D02*
X7186072Y-14291133D01*
X7186072Y-14291133D02*
X7186072Y-14243514D01*
X7186072Y-14243514D02*
X7195595Y-14205419D01*
X7195595Y-14205419D02*
X7205119Y-14186371D01*
X7205119Y-14186371D02*
X7214643Y-14176848D01*
X7214643Y-14176848D02*
X7233691Y-14167324D01*
X7490833Y-14367324D02*
X7376548Y-14367324D01*
X7433691Y-14367324D02*
X7433691Y-14167324D01*
X7433691Y-14167324D02*
X7414643Y-14195895D01*
X7414643Y-14195895D02*
X7395595Y-14214943D01*
X7395595Y-14214943D02*
X7376548Y-14224467D01*
X7586072Y-14367324D02*
X7624167Y-14367324D01*
X7624167Y-14367324D02*
X7643214Y-14357800D01*
X7643214Y-14357800D02*
X7652738Y-14348276D01*
X7652738Y-14348276D02*
X7671786Y-14319705D01*
X7671786Y-14319705D02*
X7681310Y-14281609D01*
X7681310Y-14281609D02*
X7681310Y-14205419D01*
X7681310Y-14205419D02*
X7671786Y-14186371D01*
X7671786Y-14186371D02*
X7662262Y-14176848D01*
X7662262Y-14176848D02*
X7643214Y-14167324D01*
X7643214Y-14167324D02*
X7605119Y-14167324D01*
X7605119Y-14167324D02*
X7586072Y-14176848D01*
X7586072Y-14176848D02*
X7576548Y-14186371D01*
X7576548Y-14186371D02*
X7567024Y-14205419D01*
X7567024Y-14205419D02*
X7567024Y-14253038D01*
X7567024Y-14253038D02*
X7576548Y-14272086D01*
X7576548Y-14272086D02*
X7586072Y-14281609D01*
X7586072Y-14281609D02*
X7605119Y-14291133D01*
X7605119Y-14291133D02*
X7643214Y-14291133D01*
X7643214Y-14291133D02*
X7662262Y-14281609D01*
X7662262Y-14281609D02*
X7671786Y-14272086D01*
X7671786Y-14272086D02*
X7681310Y-14253038D01*
X7747976Y-14167324D02*
X7881310Y-14167324D01*
X7881310Y-14167324D02*
X7795595Y-14367324D01*
X7947976Y-14167324D02*
X7947976Y-14205419D01*
X8024167Y-14167324D02*
X8024167Y-14205419D01*
X8319405Y-14443514D02*
X8309881Y-14433990D01*
X8309881Y-14433990D02*
X8290834Y-14405419D01*
X8290834Y-14405419D02*
X8281310Y-14386371D01*
X8281310Y-14386371D02*
X8271786Y-14357800D01*
X8271786Y-14357800D02*
X8262262Y-14310181D01*
X8262262Y-14310181D02*
X8262262Y-14272086D01*
X8262262Y-14272086D02*
X8271786Y-14224467D01*
X8271786Y-14224467D02*
X8281310Y-14195895D01*
X8281310Y-14195895D02*
X8290834Y-14176848D01*
X8290834Y-14176848D02*
X8309881Y-14148276D01*
X8309881Y-14148276D02*
X8319405Y-14138752D01*
X8386072Y-14186371D02*
X8395596Y-14176848D01*
X8395596Y-14176848D02*
X8414643Y-14167324D01*
X8414643Y-14167324D02*
X8462262Y-14167324D01*
X8462262Y-14167324D02*
X8481310Y-14176848D01*
X8481310Y-14176848D02*
X8490834Y-14186371D01*
X8490834Y-14186371D02*
X8500357Y-14205419D01*
X8500357Y-14205419D02*
X8500357Y-14224467D01*
X8500357Y-14224467D02*
X8490834Y-14253038D01*
X8490834Y-14253038D02*
X8376548Y-14367324D01*
X8376548Y-14367324D02*
X8500357Y-14367324D01*
X8567024Y-14167324D02*
X8700357Y-14167324D01*
X8700357Y-14167324D02*
X8614643Y-14367324D01*
X8928929Y-14367324D02*
X8928929Y-14167324D01*
X9014643Y-14367324D02*
X9014643Y-14262562D01*
X9014643Y-14262562D02*
X9005119Y-14243514D01*
X9005119Y-14243514D02*
X8986072Y-14233990D01*
X8986072Y-14233990D02*
X8957500Y-14233990D01*
X8957500Y-14233990D02*
X8938453Y-14243514D01*
X8938453Y-14243514D02*
X8928929Y-14253038D01*
X9138453Y-14367324D02*
X9119405Y-14357800D01*
X9119405Y-14357800D02*
X9109881Y-14348276D01*
X9109881Y-14348276D02*
X9100358Y-14329228D01*
X9100358Y-14329228D02*
X9100358Y-14272086D01*
X9100358Y-14272086D02*
X9109881Y-14253038D01*
X9109881Y-14253038D02*
X9119405Y-14243514D01*
X9119405Y-14243514D02*
X9138453Y-14233990D01*
X9138453Y-14233990D02*
X9167024Y-14233990D01*
X9167024Y-14233990D02*
X9186072Y-14243514D01*
X9186072Y-14243514D02*
X9195596Y-14253038D01*
X9195596Y-14253038D02*
X9205119Y-14272086D01*
X9205119Y-14272086D02*
X9205119Y-14329228D01*
X9205119Y-14329228D02*
X9195596Y-14348276D01*
X9195596Y-14348276D02*
X9186072Y-14357800D01*
X9186072Y-14357800D02*
X9167024Y-14367324D01*
X9167024Y-14367324D02*
X9138453Y-14367324D01*
X9319405Y-14367324D02*
X9300358Y-14357800D01*
X9300358Y-14357800D02*
X9290834Y-14338752D01*
X9290834Y-14338752D02*
X9290834Y-14167324D01*
X9471786Y-14357800D02*
X9452739Y-14367324D01*
X9452739Y-14367324D02*
X9414643Y-14367324D01*
X9414643Y-14367324D02*
X9395596Y-14357800D01*
X9395596Y-14357800D02*
X9386072Y-14338752D01*
X9386072Y-14338752D02*
X9386072Y-14262562D01*
X9386072Y-14262562D02*
X9395596Y-14243514D01*
X9395596Y-14243514D02*
X9414643Y-14233990D01*
X9414643Y-14233990D02*
X9452739Y-14233990D01*
X9452739Y-14233990D02*
X9471786Y-14243514D01*
X9471786Y-14243514D02*
X9481310Y-14262562D01*
X9481310Y-14262562D02*
X9481310Y-14281609D01*
X9481310Y-14281609D02*
X9386072Y-14300657D01*
X9557500Y-14357800D02*
X9576548Y-14367324D01*
X9576548Y-14367324D02*
X9614643Y-14367324D01*
X9614643Y-14367324D02*
X9633691Y-14357800D01*
X9633691Y-14357800D02*
X9643215Y-14338752D01*
X9643215Y-14338752D02*
X9643215Y-14329228D01*
X9643215Y-14329228D02*
X9633691Y-14310181D01*
X9633691Y-14310181D02*
X9614643Y-14300657D01*
X9614643Y-14300657D02*
X9586072Y-14300657D01*
X9586072Y-14300657D02*
X9567024Y-14291133D01*
X9567024Y-14291133D02*
X9557500Y-14272086D01*
X9557500Y-14272086D02*
X9557500Y-14262562D01*
X9557500Y-14262562D02*
X9567024Y-14243514D01*
X9567024Y-14243514D02*
X9586072Y-14233990D01*
X9586072Y-14233990D02*
X9614643Y-14233990D01*
X9614643Y-14233990D02*
X9633691Y-14243514D01*
X9709881Y-14443514D02*
X9719405Y-14433990D01*
X9719405Y-14433990D02*
X9738453Y-14405419D01*
X9738453Y-14405419D02*
X9747977Y-14386371D01*
X9747977Y-14386371D02*
X9757500Y-14357800D01*
X9757500Y-14357800D02*
X9767024Y-14310181D01*
X9767024Y-14310181D02*
X9767024Y-14272086D01*
X9767024Y-14272086D02*
X9757500Y-14224467D01*
X9757500Y-14224467D02*
X9747977Y-14195895D01*
X9747977Y-14195895D02*
X9738453Y-14176848D01*
X9738453Y-14176848D02*
X9719405Y-14148276D01*
X9719405Y-14148276D02*
X9709881Y-14138752D01*
D13*
X4757500Y-14538800D02*
G75*
G03*
X4757500Y-14538800I-40000J0D01*
G01*
D11*
X5043214Y-14431324D02*
X5062262Y-14431324D01*
X5062262Y-14431324D02*
X5081310Y-14440848D01*
X5081310Y-14440848D02*
X5090833Y-14450371D01*
X5090833Y-14450371D02*
X5100357Y-14469419D01*
X5100357Y-14469419D02*
X5109881Y-14507514D01*
X5109881Y-14507514D02*
X5109881Y-14555133D01*
X5109881Y-14555133D02*
X5100357Y-14593228D01*
X5100357Y-14593228D02*
X5090833Y-14612276D01*
X5090833Y-14612276D02*
X5081310Y-14621800D01*
X5081310Y-14621800D02*
X5062262Y-14631324D01*
X5062262Y-14631324D02*
X5043214Y-14631324D01*
X5043214Y-14631324D02*
X5024167Y-14621800D01*
X5024167Y-14621800D02*
X5014643Y-14612276D01*
X5014643Y-14612276D02*
X5005119Y-14593228D01*
X5005119Y-14593228D02*
X4995595Y-14555133D01*
X4995595Y-14555133D02*
X4995595Y-14507514D01*
X4995595Y-14507514D02*
X5005119Y-14469419D01*
X5005119Y-14469419D02*
X5014643Y-14450371D01*
X5014643Y-14450371D02*
X5024167Y-14440848D01*
X5024167Y-14440848D02*
X5043214Y-14431324D01*
X5195595Y-14612276D02*
X5205119Y-14621800D01*
X5205119Y-14621800D02*
X5195595Y-14631324D01*
X5195595Y-14631324D02*
X5186071Y-14621800D01*
X5186071Y-14621800D02*
X5195595Y-14612276D01*
X5195595Y-14612276D02*
X5195595Y-14631324D01*
X5319405Y-14517038D02*
X5300357Y-14507514D01*
X5300357Y-14507514D02*
X5290833Y-14497990D01*
X5290833Y-14497990D02*
X5281310Y-14478943D01*
X5281310Y-14478943D02*
X5281310Y-14469419D01*
X5281310Y-14469419D02*
X5290833Y-14450371D01*
X5290833Y-14450371D02*
X5300357Y-14440848D01*
X5300357Y-14440848D02*
X5319405Y-14431324D01*
X5319405Y-14431324D02*
X5357500Y-14431324D01*
X5357500Y-14431324D02*
X5376548Y-14440848D01*
X5376548Y-14440848D02*
X5386071Y-14450371D01*
X5386071Y-14450371D02*
X5395595Y-14469419D01*
X5395595Y-14469419D02*
X5395595Y-14478943D01*
X5395595Y-14478943D02*
X5386071Y-14497990D01*
X5386071Y-14497990D02*
X5376548Y-14507514D01*
X5376548Y-14507514D02*
X5357500Y-14517038D01*
X5357500Y-14517038D02*
X5319405Y-14517038D01*
X5319405Y-14517038D02*
X5300357Y-14526562D01*
X5300357Y-14526562D02*
X5290833Y-14536086D01*
X5290833Y-14536086D02*
X5281310Y-14555133D01*
X5281310Y-14555133D02*
X5281310Y-14593228D01*
X5281310Y-14593228D02*
X5290833Y-14612276D01*
X5290833Y-14612276D02*
X5300357Y-14621800D01*
X5300357Y-14621800D02*
X5319405Y-14631324D01*
X5319405Y-14631324D02*
X5357500Y-14631324D01*
X5357500Y-14631324D02*
X5376548Y-14621800D01*
X5376548Y-14621800D02*
X5386071Y-14612276D01*
X5386071Y-14612276D02*
X5395595Y-14593228D01*
X5395595Y-14593228D02*
X5395595Y-14555133D01*
X5395595Y-14555133D02*
X5386071Y-14536086D01*
X5386071Y-14536086D02*
X5376548Y-14526562D01*
X5376548Y-14526562D02*
X5357500Y-14517038D01*
X5519405Y-14431324D02*
X5538452Y-14431324D01*
X5538452Y-14431324D02*
X5557500Y-14440848D01*
X5557500Y-14440848D02*
X5567024Y-14450371D01*
X5567024Y-14450371D02*
X5576548Y-14469419D01*
X5576548Y-14469419D02*
X5586071Y-14507514D01*
X5586071Y-14507514D02*
X5586071Y-14555133D01*
X5586071Y-14555133D02*
X5576548Y-14593228D01*
X5576548Y-14593228D02*
X5567024Y-14612276D01*
X5567024Y-14612276D02*
X5557500Y-14621800D01*
X5557500Y-14621800D02*
X5538452Y-14631324D01*
X5538452Y-14631324D02*
X5519405Y-14631324D01*
X5519405Y-14631324D02*
X5500357Y-14621800D01*
X5500357Y-14621800D02*
X5490833Y-14612276D01*
X5490833Y-14612276D02*
X5481310Y-14593228D01*
X5481310Y-14593228D02*
X5471786Y-14555133D01*
X5471786Y-14555133D02*
X5471786Y-14507514D01*
X5471786Y-14507514D02*
X5481310Y-14469419D01*
X5481310Y-14469419D02*
X5490833Y-14450371D01*
X5490833Y-14450371D02*
X5500357Y-14440848D01*
X5500357Y-14440848D02*
X5519405Y-14431324D01*
X5709881Y-14431324D02*
X5728929Y-14431324D01*
X5728929Y-14431324D02*
X5747976Y-14440848D01*
X5747976Y-14440848D02*
X5757500Y-14450371D01*
X5757500Y-14450371D02*
X5767024Y-14469419D01*
X5767024Y-14469419D02*
X5776548Y-14507514D01*
X5776548Y-14507514D02*
X5776548Y-14555133D01*
X5776548Y-14555133D02*
X5767024Y-14593228D01*
X5767024Y-14593228D02*
X5757500Y-14612276D01*
X5757500Y-14612276D02*
X5747976Y-14621800D01*
X5747976Y-14621800D02*
X5728929Y-14631324D01*
X5728929Y-14631324D02*
X5709881Y-14631324D01*
X5709881Y-14631324D02*
X5690833Y-14621800D01*
X5690833Y-14621800D02*
X5681309Y-14612276D01*
X5681309Y-14612276D02*
X5671786Y-14593228D01*
X5671786Y-14593228D02*
X5662262Y-14555133D01*
X5662262Y-14555133D02*
X5662262Y-14507514D01*
X5662262Y-14507514D02*
X5671786Y-14469419D01*
X5671786Y-14469419D02*
X5681309Y-14450371D01*
X5681309Y-14450371D02*
X5690833Y-14440848D01*
X5690833Y-14440848D02*
X5709881Y-14431324D01*
X5862262Y-14631324D02*
X5862262Y-14497990D01*
X5862262Y-14517038D02*
X5871786Y-14507514D01*
X5871786Y-14507514D02*
X5890833Y-14497990D01*
X5890833Y-14497990D02*
X5919405Y-14497990D01*
X5919405Y-14497990D02*
X5938452Y-14507514D01*
X5938452Y-14507514D02*
X5947976Y-14526562D01*
X5947976Y-14526562D02*
X5947976Y-14631324D01*
X5947976Y-14526562D02*
X5957500Y-14507514D01*
X5957500Y-14507514D02*
X5976548Y-14497990D01*
X5976548Y-14497990D02*
X6005119Y-14497990D01*
X6005119Y-14497990D02*
X6024167Y-14507514D01*
X6024167Y-14507514D02*
X6033690Y-14526562D01*
X6033690Y-14526562D02*
X6033690Y-14631324D01*
X6128929Y-14631324D02*
X6128929Y-14497990D01*
X6128929Y-14517038D02*
X6138452Y-14507514D01*
X6138452Y-14507514D02*
X6157500Y-14497990D01*
X6157500Y-14497990D02*
X6186071Y-14497990D01*
X6186071Y-14497990D02*
X6205119Y-14507514D01*
X6205119Y-14507514D02*
X6214643Y-14526562D01*
X6214643Y-14526562D02*
X6214643Y-14631324D01*
X6214643Y-14526562D02*
X6224167Y-14507514D01*
X6224167Y-14507514D02*
X6243214Y-14497990D01*
X6243214Y-14497990D02*
X6271786Y-14497990D01*
X6271786Y-14497990D02*
X6290833Y-14507514D01*
X6290833Y-14507514D02*
X6300357Y-14526562D01*
X6300357Y-14526562D02*
X6300357Y-14631324D01*
X6690833Y-14421800D02*
X6519405Y-14678943D01*
X6947976Y-14431324D02*
X6967024Y-14431324D01*
X6967024Y-14431324D02*
X6986072Y-14440848D01*
X6986072Y-14440848D02*
X6995595Y-14450371D01*
X6995595Y-14450371D02*
X7005119Y-14469419D01*
X7005119Y-14469419D02*
X7014643Y-14507514D01*
X7014643Y-14507514D02*
X7014643Y-14555133D01*
X7014643Y-14555133D02*
X7005119Y-14593228D01*
X7005119Y-14593228D02*
X6995595Y-14612276D01*
X6995595Y-14612276D02*
X6986072Y-14621800D01*
X6986072Y-14621800D02*
X6967024Y-14631324D01*
X6967024Y-14631324D02*
X6947976Y-14631324D01*
X6947976Y-14631324D02*
X6928929Y-14621800D01*
X6928929Y-14621800D02*
X6919405Y-14612276D01*
X6919405Y-14612276D02*
X6909881Y-14593228D01*
X6909881Y-14593228D02*
X6900357Y-14555133D01*
X6900357Y-14555133D02*
X6900357Y-14507514D01*
X6900357Y-14507514D02*
X6909881Y-14469419D01*
X6909881Y-14469419D02*
X6919405Y-14450371D01*
X6919405Y-14450371D02*
X6928929Y-14440848D01*
X6928929Y-14440848D02*
X6947976Y-14431324D01*
X7100357Y-14612276D02*
X7109881Y-14621800D01*
X7109881Y-14621800D02*
X7100357Y-14631324D01*
X7100357Y-14631324D02*
X7090833Y-14621800D01*
X7090833Y-14621800D02*
X7100357Y-14612276D01*
X7100357Y-14612276D02*
X7100357Y-14631324D01*
X7233691Y-14431324D02*
X7252738Y-14431324D01*
X7252738Y-14431324D02*
X7271786Y-14440848D01*
X7271786Y-14440848D02*
X7281310Y-14450371D01*
X7281310Y-14450371D02*
X7290833Y-14469419D01*
X7290833Y-14469419D02*
X7300357Y-14507514D01*
X7300357Y-14507514D02*
X7300357Y-14555133D01*
X7300357Y-14555133D02*
X7290833Y-14593228D01*
X7290833Y-14593228D02*
X7281310Y-14612276D01*
X7281310Y-14612276D02*
X7271786Y-14621800D01*
X7271786Y-14621800D02*
X7252738Y-14631324D01*
X7252738Y-14631324D02*
X7233691Y-14631324D01*
X7233691Y-14631324D02*
X7214643Y-14621800D01*
X7214643Y-14621800D02*
X7205119Y-14612276D01*
X7205119Y-14612276D02*
X7195595Y-14593228D01*
X7195595Y-14593228D02*
X7186072Y-14555133D01*
X7186072Y-14555133D02*
X7186072Y-14507514D01*
X7186072Y-14507514D02*
X7195595Y-14469419D01*
X7195595Y-14469419D02*
X7205119Y-14450371D01*
X7205119Y-14450371D02*
X7214643Y-14440848D01*
X7214643Y-14440848D02*
X7233691Y-14431324D01*
X7367024Y-14431324D02*
X7490833Y-14431324D01*
X7490833Y-14431324D02*
X7424167Y-14507514D01*
X7424167Y-14507514D02*
X7452738Y-14507514D01*
X7452738Y-14507514D02*
X7471786Y-14517038D01*
X7471786Y-14517038D02*
X7481310Y-14526562D01*
X7481310Y-14526562D02*
X7490833Y-14545609D01*
X7490833Y-14545609D02*
X7490833Y-14593228D01*
X7490833Y-14593228D02*
X7481310Y-14612276D01*
X7481310Y-14612276D02*
X7471786Y-14621800D01*
X7471786Y-14621800D02*
X7452738Y-14631324D01*
X7452738Y-14631324D02*
X7395595Y-14631324D01*
X7395595Y-14631324D02*
X7376548Y-14621800D01*
X7376548Y-14621800D02*
X7367024Y-14612276D01*
X7681310Y-14631324D02*
X7567024Y-14631324D01*
X7624167Y-14631324D02*
X7624167Y-14431324D01*
X7624167Y-14431324D02*
X7605119Y-14459895D01*
X7605119Y-14459895D02*
X7586072Y-14478943D01*
X7586072Y-14478943D02*
X7567024Y-14488467D01*
X7862262Y-14431324D02*
X7767024Y-14431324D01*
X7767024Y-14431324D02*
X7757500Y-14526562D01*
X7757500Y-14526562D02*
X7767024Y-14517038D01*
X7767024Y-14517038D02*
X7786072Y-14507514D01*
X7786072Y-14507514D02*
X7833691Y-14507514D01*
X7833691Y-14507514D02*
X7852738Y-14517038D01*
X7852738Y-14517038D02*
X7862262Y-14526562D01*
X7862262Y-14526562D02*
X7871786Y-14545609D01*
X7871786Y-14545609D02*
X7871786Y-14593228D01*
X7871786Y-14593228D02*
X7862262Y-14612276D01*
X7862262Y-14612276D02*
X7852738Y-14621800D01*
X7852738Y-14621800D02*
X7833691Y-14631324D01*
X7833691Y-14631324D02*
X7786072Y-14631324D01*
X7786072Y-14631324D02*
X7767024Y-14621800D01*
X7767024Y-14621800D02*
X7757500Y-14612276D01*
X7947976Y-14431324D02*
X7947976Y-14469419D01*
X8024167Y-14431324D02*
X8024167Y-14469419D01*
X8319405Y-14707514D02*
X8309881Y-14697990D01*
X8309881Y-14697990D02*
X8290834Y-14669419D01*
X8290834Y-14669419D02*
X8281310Y-14650371D01*
X8281310Y-14650371D02*
X8271786Y-14621800D01*
X8271786Y-14621800D02*
X8262262Y-14574181D01*
X8262262Y-14574181D02*
X8262262Y-14536086D01*
X8262262Y-14536086D02*
X8271786Y-14488467D01*
X8271786Y-14488467D02*
X8281310Y-14459895D01*
X8281310Y-14459895D02*
X8290834Y-14440848D01*
X8290834Y-14440848D02*
X8309881Y-14412276D01*
X8309881Y-14412276D02*
X8319405Y-14402752D01*
X8424167Y-14517038D02*
X8405119Y-14507514D01*
X8405119Y-14507514D02*
X8395596Y-14497990D01*
X8395596Y-14497990D02*
X8386072Y-14478943D01*
X8386072Y-14478943D02*
X8386072Y-14469419D01*
X8386072Y-14469419D02*
X8395596Y-14450371D01*
X8395596Y-14450371D02*
X8405119Y-14440848D01*
X8405119Y-14440848D02*
X8424167Y-14431324D01*
X8424167Y-14431324D02*
X8462262Y-14431324D01*
X8462262Y-14431324D02*
X8481310Y-14440848D01*
X8481310Y-14440848D02*
X8490834Y-14450371D01*
X8490834Y-14450371D02*
X8500357Y-14469419D01*
X8500357Y-14469419D02*
X8500357Y-14478943D01*
X8500357Y-14478943D02*
X8490834Y-14497990D01*
X8490834Y-14497990D02*
X8481310Y-14507514D01*
X8481310Y-14507514D02*
X8462262Y-14517038D01*
X8462262Y-14517038D02*
X8424167Y-14517038D01*
X8424167Y-14517038D02*
X8405119Y-14526562D01*
X8405119Y-14526562D02*
X8395596Y-14536086D01*
X8395596Y-14536086D02*
X8386072Y-14555133D01*
X8386072Y-14555133D02*
X8386072Y-14593228D01*
X8386072Y-14593228D02*
X8395596Y-14612276D01*
X8395596Y-14612276D02*
X8405119Y-14621800D01*
X8405119Y-14621800D02*
X8424167Y-14631324D01*
X8424167Y-14631324D02*
X8462262Y-14631324D01*
X8462262Y-14631324D02*
X8481310Y-14621800D01*
X8481310Y-14621800D02*
X8490834Y-14612276D01*
X8490834Y-14612276D02*
X8500357Y-14593228D01*
X8500357Y-14593228D02*
X8500357Y-14555133D01*
X8500357Y-14555133D02*
X8490834Y-14536086D01*
X8490834Y-14536086D02*
X8481310Y-14526562D01*
X8481310Y-14526562D02*
X8462262Y-14517038D01*
X8738453Y-14631324D02*
X8738453Y-14431324D01*
X8824167Y-14631324D02*
X8824167Y-14526562D01*
X8824167Y-14526562D02*
X8814643Y-14507514D01*
X8814643Y-14507514D02*
X8795596Y-14497990D01*
X8795596Y-14497990D02*
X8767024Y-14497990D01*
X8767024Y-14497990D02*
X8747977Y-14507514D01*
X8747977Y-14507514D02*
X8738453Y-14517038D01*
X8947977Y-14631324D02*
X8928929Y-14621800D01*
X8928929Y-14621800D02*
X8919405Y-14612276D01*
X8919405Y-14612276D02*
X8909881Y-14593228D01*
X8909881Y-14593228D02*
X8909881Y-14536086D01*
X8909881Y-14536086D02*
X8919405Y-14517038D01*
X8919405Y-14517038D02*
X8928929Y-14507514D01*
X8928929Y-14507514D02*
X8947977Y-14497990D01*
X8947977Y-14497990D02*
X8976548Y-14497990D01*
X8976548Y-14497990D02*
X8995596Y-14507514D01*
X8995596Y-14507514D02*
X9005119Y-14517038D01*
X9005119Y-14517038D02*
X9014643Y-14536086D01*
X9014643Y-14536086D02*
X9014643Y-14593228D01*
X9014643Y-14593228D02*
X9005119Y-14612276D01*
X9005119Y-14612276D02*
X8995596Y-14621800D01*
X8995596Y-14621800D02*
X8976548Y-14631324D01*
X8976548Y-14631324D02*
X8947977Y-14631324D01*
X9128929Y-14631324D02*
X9109881Y-14621800D01*
X9109881Y-14621800D02*
X9100358Y-14602752D01*
X9100358Y-14602752D02*
X9100358Y-14431324D01*
X9281310Y-14621800D02*
X9262262Y-14631324D01*
X9262262Y-14631324D02*
X9224167Y-14631324D01*
X9224167Y-14631324D02*
X9205119Y-14621800D01*
X9205119Y-14621800D02*
X9195596Y-14602752D01*
X9195596Y-14602752D02*
X9195596Y-14526562D01*
X9195596Y-14526562D02*
X9205119Y-14507514D01*
X9205119Y-14507514D02*
X9224167Y-14497990D01*
X9224167Y-14497990D02*
X9262262Y-14497990D01*
X9262262Y-14497990D02*
X9281310Y-14507514D01*
X9281310Y-14507514D02*
X9290834Y-14526562D01*
X9290834Y-14526562D02*
X9290834Y-14545609D01*
X9290834Y-14545609D02*
X9195596Y-14564657D01*
X9367024Y-14621800D02*
X9386072Y-14631324D01*
X9386072Y-14631324D02*
X9424167Y-14631324D01*
X9424167Y-14631324D02*
X9443215Y-14621800D01*
X9443215Y-14621800D02*
X9452739Y-14602752D01*
X9452739Y-14602752D02*
X9452739Y-14593228D01*
X9452739Y-14593228D02*
X9443215Y-14574181D01*
X9443215Y-14574181D02*
X9424167Y-14564657D01*
X9424167Y-14564657D02*
X9395596Y-14564657D01*
X9395596Y-14564657D02*
X9376548Y-14555133D01*
X9376548Y-14555133D02*
X9367024Y-14536086D01*
X9367024Y-14536086D02*
X9367024Y-14526562D01*
X9367024Y-14526562D02*
X9376548Y-14507514D01*
X9376548Y-14507514D02*
X9395596Y-14497990D01*
X9395596Y-14497990D02*
X9424167Y-14497990D01*
X9424167Y-14497990D02*
X9443215Y-14507514D01*
X9519405Y-14707514D02*
X9528929Y-14697990D01*
X9528929Y-14697990D02*
X9547977Y-14669419D01*
X9547977Y-14669419D02*
X9557500Y-14650371D01*
X9557500Y-14650371D02*
X9567024Y-14621800D01*
X9567024Y-14621800D02*
X9576548Y-14574181D01*
X9576548Y-14574181D02*
X9576548Y-14536086D01*
X9576548Y-14536086D02*
X9567024Y-14488467D01*
X9567024Y-14488467D02*
X9557500Y-14459895D01*
X9557500Y-14459895D02*
X9547977Y-14440848D01*
X9547977Y-14440848D02*
X9528929Y-14412276D01*
X9528929Y-14412276D02*
X9519405Y-14402752D01*
D10*
X4707500Y-14752800D02*
X4707500Y-14852800D01*
X4657500Y-14802800D02*
X4757500Y-14802800D01*
D11*
X5109881Y-14895324D02*
X4995595Y-14895324D01*
X5052738Y-14895324D02*
X5052738Y-14695324D01*
X5052738Y-14695324D02*
X5033690Y-14723895D01*
X5033690Y-14723895D02*
X5014643Y-14742943D01*
X5014643Y-14742943D02*
X4995595Y-14752467D01*
X5195595Y-14876276D02*
X5205119Y-14885800D01*
X5205119Y-14885800D02*
X5195595Y-14895324D01*
X5195595Y-14895324D02*
X5186071Y-14885800D01*
X5186071Y-14885800D02*
X5195595Y-14876276D01*
X5195595Y-14876276D02*
X5195595Y-14895324D01*
X5328929Y-14695324D02*
X5347976Y-14695324D01*
X5347976Y-14695324D02*
X5367024Y-14704848D01*
X5367024Y-14704848D02*
X5376548Y-14714371D01*
X5376548Y-14714371D02*
X5386071Y-14733419D01*
X5386071Y-14733419D02*
X5395595Y-14771514D01*
X5395595Y-14771514D02*
X5395595Y-14819133D01*
X5395595Y-14819133D02*
X5386071Y-14857228D01*
X5386071Y-14857228D02*
X5376548Y-14876276D01*
X5376548Y-14876276D02*
X5367024Y-14885800D01*
X5367024Y-14885800D02*
X5347976Y-14895324D01*
X5347976Y-14895324D02*
X5328929Y-14895324D01*
X5328929Y-14895324D02*
X5309881Y-14885800D01*
X5309881Y-14885800D02*
X5300357Y-14876276D01*
X5300357Y-14876276D02*
X5290833Y-14857228D01*
X5290833Y-14857228D02*
X5281310Y-14819133D01*
X5281310Y-14819133D02*
X5281310Y-14771514D01*
X5281310Y-14771514D02*
X5290833Y-14733419D01*
X5290833Y-14733419D02*
X5300357Y-14714371D01*
X5300357Y-14714371D02*
X5309881Y-14704848D01*
X5309881Y-14704848D02*
X5328929Y-14695324D01*
X5519405Y-14695324D02*
X5538452Y-14695324D01*
X5538452Y-14695324D02*
X5557500Y-14704848D01*
X5557500Y-14704848D02*
X5567024Y-14714371D01*
X5567024Y-14714371D02*
X5576548Y-14733419D01*
X5576548Y-14733419D02*
X5586071Y-14771514D01*
X5586071Y-14771514D02*
X5586071Y-14819133D01*
X5586071Y-14819133D02*
X5576548Y-14857228D01*
X5576548Y-14857228D02*
X5567024Y-14876276D01*
X5567024Y-14876276D02*
X5557500Y-14885800D01*
X5557500Y-14885800D02*
X5538452Y-14895324D01*
X5538452Y-14895324D02*
X5519405Y-14895324D01*
X5519405Y-14895324D02*
X5500357Y-14885800D01*
X5500357Y-14885800D02*
X5490833Y-14876276D01*
X5490833Y-14876276D02*
X5481310Y-14857228D01*
X5481310Y-14857228D02*
X5471786Y-14819133D01*
X5471786Y-14819133D02*
X5471786Y-14771514D01*
X5471786Y-14771514D02*
X5481310Y-14733419D01*
X5481310Y-14733419D02*
X5490833Y-14714371D01*
X5490833Y-14714371D02*
X5500357Y-14704848D01*
X5500357Y-14704848D02*
X5519405Y-14695324D01*
X5709881Y-14695324D02*
X5728929Y-14695324D01*
X5728929Y-14695324D02*
X5747976Y-14704848D01*
X5747976Y-14704848D02*
X5757500Y-14714371D01*
X5757500Y-14714371D02*
X5767024Y-14733419D01*
X5767024Y-14733419D02*
X5776548Y-14771514D01*
X5776548Y-14771514D02*
X5776548Y-14819133D01*
X5776548Y-14819133D02*
X5767024Y-14857228D01*
X5767024Y-14857228D02*
X5757500Y-14876276D01*
X5757500Y-14876276D02*
X5747976Y-14885800D01*
X5747976Y-14885800D02*
X5728929Y-14895324D01*
X5728929Y-14895324D02*
X5709881Y-14895324D01*
X5709881Y-14895324D02*
X5690833Y-14885800D01*
X5690833Y-14885800D02*
X5681309Y-14876276D01*
X5681309Y-14876276D02*
X5671786Y-14857228D01*
X5671786Y-14857228D02*
X5662262Y-14819133D01*
X5662262Y-14819133D02*
X5662262Y-14771514D01*
X5662262Y-14771514D02*
X5671786Y-14733419D01*
X5671786Y-14733419D02*
X5681309Y-14714371D01*
X5681309Y-14714371D02*
X5690833Y-14704848D01*
X5690833Y-14704848D02*
X5709881Y-14695324D01*
X5862262Y-14895324D02*
X5862262Y-14761990D01*
X5862262Y-14781038D02*
X5871786Y-14771514D01*
X5871786Y-14771514D02*
X5890833Y-14761990D01*
X5890833Y-14761990D02*
X5919405Y-14761990D01*
X5919405Y-14761990D02*
X5938452Y-14771514D01*
X5938452Y-14771514D02*
X5947976Y-14790562D01*
X5947976Y-14790562D02*
X5947976Y-14895324D01*
X5947976Y-14790562D02*
X5957500Y-14771514D01*
X5957500Y-14771514D02*
X5976548Y-14761990D01*
X5976548Y-14761990D02*
X6005119Y-14761990D01*
X6005119Y-14761990D02*
X6024167Y-14771514D01*
X6024167Y-14771514D02*
X6033690Y-14790562D01*
X6033690Y-14790562D02*
X6033690Y-14895324D01*
X6128929Y-14895324D02*
X6128929Y-14761990D01*
X6128929Y-14781038D02*
X6138452Y-14771514D01*
X6138452Y-14771514D02*
X6157500Y-14761990D01*
X6157500Y-14761990D02*
X6186071Y-14761990D01*
X6186071Y-14761990D02*
X6205119Y-14771514D01*
X6205119Y-14771514D02*
X6214643Y-14790562D01*
X6214643Y-14790562D02*
X6214643Y-14895324D01*
X6214643Y-14790562D02*
X6224167Y-14771514D01*
X6224167Y-14771514D02*
X6243214Y-14761990D01*
X6243214Y-14761990D02*
X6271786Y-14761990D01*
X6271786Y-14761990D02*
X6290833Y-14771514D01*
X6290833Y-14771514D02*
X6300357Y-14790562D01*
X6300357Y-14790562D02*
X6300357Y-14895324D01*
X6690833Y-14685800D02*
X6519405Y-14942943D01*
X6947976Y-14695324D02*
X6967024Y-14695324D01*
X6967024Y-14695324D02*
X6986072Y-14704848D01*
X6986072Y-14704848D02*
X6995595Y-14714371D01*
X6995595Y-14714371D02*
X7005119Y-14733419D01*
X7005119Y-14733419D02*
X7014643Y-14771514D01*
X7014643Y-14771514D02*
X7014643Y-14819133D01*
X7014643Y-14819133D02*
X7005119Y-14857228D01*
X7005119Y-14857228D02*
X6995595Y-14876276D01*
X6995595Y-14876276D02*
X6986072Y-14885800D01*
X6986072Y-14885800D02*
X6967024Y-14895324D01*
X6967024Y-14895324D02*
X6947976Y-14895324D01*
X6947976Y-14895324D02*
X6928929Y-14885800D01*
X6928929Y-14885800D02*
X6919405Y-14876276D01*
X6919405Y-14876276D02*
X6909881Y-14857228D01*
X6909881Y-14857228D02*
X6900357Y-14819133D01*
X6900357Y-14819133D02*
X6900357Y-14771514D01*
X6900357Y-14771514D02*
X6909881Y-14733419D01*
X6909881Y-14733419D02*
X6919405Y-14714371D01*
X6919405Y-14714371D02*
X6928929Y-14704848D01*
X6928929Y-14704848D02*
X6947976Y-14695324D01*
X7100357Y-14876276D02*
X7109881Y-14885800D01*
X7109881Y-14885800D02*
X7100357Y-14895324D01*
X7100357Y-14895324D02*
X7090833Y-14885800D01*
X7090833Y-14885800D02*
X7100357Y-14876276D01*
X7100357Y-14876276D02*
X7100357Y-14895324D01*
X7233691Y-14695324D02*
X7252738Y-14695324D01*
X7252738Y-14695324D02*
X7271786Y-14704848D01*
X7271786Y-14704848D02*
X7281310Y-14714371D01*
X7281310Y-14714371D02*
X7290833Y-14733419D01*
X7290833Y-14733419D02*
X7300357Y-14771514D01*
X7300357Y-14771514D02*
X7300357Y-14819133D01*
X7300357Y-14819133D02*
X7290833Y-14857228D01*
X7290833Y-14857228D02*
X7281310Y-14876276D01*
X7281310Y-14876276D02*
X7271786Y-14885800D01*
X7271786Y-14885800D02*
X7252738Y-14895324D01*
X7252738Y-14895324D02*
X7233691Y-14895324D01*
X7233691Y-14895324D02*
X7214643Y-14885800D01*
X7214643Y-14885800D02*
X7205119Y-14876276D01*
X7205119Y-14876276D02*
X7195595Y-14857228D01*
X7195595Y-14857228D02*
X7186072Y-14819133D01*
X7186072Y-14819133D02*
X7186072Y-14771514D01*
X7186072Y-14771514D02*
X7195595Y-14733419D01*
X7195595Y-14733419D02*
X7205119Y-14714371D01*
X7205119Y-14714371D02*
X7214643Y-14704848D01*
X7214643Y-14704848D02*
X7233691Y-14695324D01*
X7367024Y-14695324D02*
X7490833Y-14695324D01*
X7490833Y-14695324D02*
X7424167Y-14771514D01*
X7424167Y-14771514D02*
X7452738Y-14771514D01*
X7452738Y-14771514D02*
X7471786Y-14781038D01*
X7471786Y-14781038D02*
X7481310Y-14790562D01*
X7481310Y-14790562D02*
X7490833Y-14809609D01*
X7490833Y-14809609D02*
X7490833Y-14857228D01*
X7490833Y-14857228D02*
X7481310Y-14876276D01*
X7481310Y-14876276D02*
X7471786Y-14885800D01*
X7471786Y-14885800D02*
X7452738Y-14895324D01*
X7452738Y-14895324D02*
X7395595Y-14895324D01*
X7395595Y-14895324D02*
X7376548Y-14885800D01*
X7376548Y-14885800D02*
X7367024Y-14876276D01*
X7586072Y-14895324D02*
X7624167Y-14895324D01*
X7624167Y-14895324D02*
X7643214Y-14885800D01*
X7643214Y-14885800D02*
X7652738Y-14876276D01*
X7652738Y-14876276D02*
X7671786Y-14847705D01*
X7671786Y-14847705D02*
X7681310Y-14809609D01*
X7681310Y-14809609D02*
X7681310Y-14733419D01*
X7681310Y-14733419D02*
X7671786Y-14714371D01*
X7671786Y-14714371D02*
X7662262Y-14704848D01*
X7662262Y-14704848D02*
X7643214Y-14695324D01*
X7643214Y-14695324D02*
X7605119Y-14695324D01*
X7605119Y-14695324D02*
X7586072Y-14704848D01*
X7586072Y-14704848D02*
X7576548Y-14714371D01*
X7576548Y-14714371D02*
X7567024Y-14733419D01*
X7567024Y-14733419D02*
X7567024Y-14781038D01*
X7567024Y-14781038D02*
X7576548Y-14800086D01*
X7576548Y-14800086D02*
X7586072Y-14809609D01*
X7586072Y-14809609D02*
X7605119Y-14819133D01*
X7605119Y-14819133D02*
X7643214Y-14819133D01*
X7643214Y-14819133D02*
X7662262Y-14809609D01*
X7662262Y-14809609D02*
X7671786Y-14800086D01*
X7671786Y-14800086D02*
X7681310Y-14781038D01*
X7852738Y-14761990D02*
X7852738Y-14895324D01*
X7805119Y-14685800D02*
X7757500Y-14828657D01*
X7757500Y-14828657D02*
X7881310Y-14828657D01*
X7947976Y-14695324D02*
X7947976Y-14733419D01*
X8024167Y-14695324D02*
X8024167Y-14733419D01*
X8319405Y-14971514D02*
X8309881Y-14961990D01*
X8309881Y-14961990D02*
X8290834Y-14933419D01*
X8290834Y-14933419D02*
X8281310Y-14914371D01*
X8281310Y-14914371D02*
X8271786Y-14885800D01*
X8271786Y-14885800D02*
X8262262Y-14838181D01*
X8262262Y-14838181D02*
X8262262Y-14800086D01*
X8262262Y-14800086D02*
X8271786Y-14752467D01*
X8271786Y-14752467D02*
X8281310Y-14723895D01*
X8281310Y-14723895D02*
X8290834Y-14704848D01*
X8290834Y-14704848D02*
X8309881Y-14676276D01*
X8309881Y-14676276D02*
X8319405Y-14666752D01*
X8500357Y-14895324D02*
X8386072Y-14895324D01*
X8443215Y-14895324D02*
X8443215Y-14695324D01*
X8443215Y-14695324D02*
X8424167Y-14723895D01*
X8424167Y-14723895D02*
X8405119Y-14742943D01*
X8405119Y-14742943D02*
X8386072Y-14752467D01*
X8671786Y-14761990D02*
X8671786Y-14895324D01*
X8624167Y-14685800D02*
X8576548Y-14828657D01*
X8576548Y-14828657D02*
X8700357Y-14828657D01*
X8928929Y-14895324D02*
X8928929Y-14695324D01*
X9014643Y-14895324D02*
X9014643Y-14790562D01*
X9014643Y-14790562D02*
X9005119Y-14771514D01*
X9005119Y-14771514D02*
X8986072Y-14761990D01*
X8986072Y-14761990D02*
X8957500Y-14761990D01*
X8957500Y-14761990D02*
X8938453Y-14771514D01*
X8938453Y-14771514D02*
X8928929Y-14781038D01*
X9138453Y-14895324D02*
X9119405Y-14885800D01*
X9119405Y-14885800D02*
X9109881Y-14876276D01*
X9109881Y-14876276D02*
X9100358Y-14857228D01*
X9100358Y-14857228D02*
X9100358Y-14800086D01*
X9100358Y-14800086D02*
X9109881Y-14781038D01*
X9109881Y-14781038D02*
X9119405Y-14771514D01*
X9119405Y-14771514D02*
X9138453Y-14761990D01*
X9138453Y-14761990D02*
X9167024Y-14761990D01*
X9167024Y-14761990D02*
X9186072Y-14771514D01*
X9186072Y-14771514D02*
X9195596Y-14781038D01*
X9195596Y-14781038D02*
X9205119Y-14800086D01*
X9205119Y-14800086D02*
X9205119Y-14857228D01*
X9205119Y-14857228D02*
X9195596Y-14876276D01*
X9195596Y-14876276D02*
X9186072Y-14885800D01*
X9186072Y-14885800D02*
X9167024Y-14895324D01*
X9167024Y-14895324D02*
X9138453Y-14895324D01*
X9319405Y-14895324D02*
X9300358Y-14885800D01*
X9300358Y-14885800D02*
X9290834Y-14866752D01*
X9290834Y-14866752D02*
X9290834Y-14695324D01*
X9471786Y-14885800D02*
X9452739Y-14895324D01*
X9452739Y-14895324D02*
X9414643Y-14895324D01*
X9414643Y-14895324D02*
X9395596Y-14885800D01*
X9395596Y-14885800D02*
X9386072Y-14866752D01*
X9386072Y-14866752D02*
X9386072Y-14790562D01*
X9386072Y-14790562D02*
X9395596Y-14771514D01*
X9395596Y-14771514D02*
X9414643Y-14761990D01*
X9414643Y-14761990D02*
X9452739Y-14761990D01*
X9452739Y-14761990D02*
X9471786Y-14771514D01*
X9471786Y-14771514D02*
X9481310Y-14790562D01*
X9481310Y-14790562D02*
X9481310Y-14809609D01*
X9481310Y-14809609D02*
X9386072Y-14828657D01*
X9557500Y-14885800D02*
X9576548Y-14895324D01*
X9576548Y-14895324D02*
X9614643Y-14895324D01*
X9614643Y-14895324D02*
X9633691Y-14885800D01*
X9633691Y-14885800D02*
X9643215Y-14866752D01*
X9643215Y-14866752D02*
X9643215Y-14857228D01*
X9643215Y-14857228D02*
X9633691Y-14838181D01*
X9633691Y-14838181D02*
X9614643Y-14828657D01*
X9614643Y-14828657D02*
X9586072Y-14828657D01*
X9586072Y-14828657D02*
X9567024Y-14819133D01*
X9567024Y-14819133D02*
X9557500Y-14800086D01*
X9557500Y-14800086D02*
X9557500Y-14790562D01*
X9557500Y-14790562D02*
X9567024Y-14771514D01*
X9567024Y-14771514D02*
X9586072Y-14761990D01*
X9586072Y-14761990D02*
X9614643Y-14761990D01*
X9614643Y-14761990D02*
X9633691Y-14771514D01*
X9709881Y-14971514D02*
X9719405Y-14961990D01*
X9719405Y-14961990D02*
X9738453Y-14933419D01*
X9738453Y-14933419D02*
X9747977Y-14914371D01*
X9747977Y-14914371D02*
X9757500Y-14885800D01*
X9757500Y-14885800D02*
X9767024Y-14838181D01*
X9767024Y-14838181D02*
X9767024Y-14800086D01*
X9767024Y-14800086D02*
X9757500Y-14752467D01*
X9757500Y-14752467D02*
X9747977Y-14723895D01*
X9747977Y-14723895D02*
X9738453Y-14704848D01*
X9738453Y-14704848D02*
X9719405Y-14676276D01*
X9719405Y-14676276D02*
X9709881Y-14666752D01*
D14*
X4739927Y-15109227D02*
X4739927Y-15024373D01*
X4655073Y-15024373D01*
X4655073Y-15109227D01*
X4739927Y-15109227D01*
D11*
X5109881Y-15159324D02*
X4995595Y-15159324D01*
X5052738Y-15159324D02*
X5052738Y-14959324D01*
X5052738Y-14959324D02*
X5033690Y-14987895D01*
X5033690Y-14987895D02*
X5014643Y-15006943D01*
X5014643Y-15006943D02*
X4995595Y-15016467D01*
X5195595Y-15140276D02*
X5205119Y-15149800D01*
X5205119Y-15149800D02*
X5195595Y-15159324D01*
X5195595Y-15159324D02*
X5186071Y-15149800D01*
X5186071Y-15149800D02*
X5195595Y-15140276D01*
X5195595Y-15140276D02*
X5195595Y-15159324D01*
X5281310Y-14978371D02*
X5290833Y-14968848D01*
X5290833Y-14968848D02*
X5309881Y-14959324D01*
X5309881Y-14959324D02*
X5357500Y-14959324D01*
X5357500Y-14959324D02*
X5376548Y-14968848D01*
X5376548Y-14968848D02*
X5386071Y-14978371D01*
X5386071Y-14978371D02*
X5395595Y-14997419D01*
X5395595Y-14997419D02*
X5395595Y-15016467D01*
X5395595Y-15016467D02*
X5386071Y-15045038D01*
X5386071Y-15045038D02*
X5271786Y-15159324D01*
X5271786Y-15159324D02*
X5395595Y-15159324D01*
X5519405Y-14959324D02*
X5538452Y-14959324D01*
X5538452Y-14959324D02*
X5557500Y-14968848D01*
X5557500Y-14968848D02*
X5567024Y-14978371D01*
X5567024Y-14978371D02*
X5576548Y-14997419D01*
X5576548Y-14997419D02*
X5586071Y-15035514D01*
X5586071Y-15035514D02*
X5586071Y-15083133D01*
X5586071Y-15083133D02*
X5576548Y-15121228D01*
X5576548Y-15121228D02*
X5567024Y-15140276D01*
X5567024Y-15140276D02*
X5557500Y-15149800D01*
X5557500Y-15149800D02*
X5538452Y-15159324D01*
X5538452Y-15159324D02*
X5519405Y-15159324D01*
X5519405Y-15159324D02*
X5500357Y-15149800D01*
X5500357Y-15149800D02*
X5490833Y-15140276D01*
X5490833Y-15140276D02*
X5481310Y-15121228D01*
X5481310Y-15121228D02*
X5471786Y-15083133D01*
X5471786Y-15083133D02*
X5471786Y-15035514D01*
X5471786Y-15035514D02*
X5481310Y-14997419D01*
X5481310Y-14997419D02*
X5490833Y-14978371D01*
X5490833Y-14978371D02*
X5500357Y-14968848D01*
X5500357Y-14968848D02*
X5519405Y-14959324D01*
X5709881Y-14959324D02*
X5728929Y-14959324D01*
X5728929Y-14959324D02*
X5747976Y-14968848D01*
X5747976Y-14968848D02*
X5757500Y-14978371D01*
X5757500Y-14978371D02*
X5767024Y-14997419D01*
X5767024Y-14997419D02*
X5776548Y-15035514D01*
X5776548Y-15035514D02*
X5776548Y-15083133D01*
X5776548Y-15083133D02*
X5767024Y-15121228D01*
X5767024Y-15121228D02*
X5757500Y-15140276D01*
X5757500Y-15140276D02*
X5747976Y-15149800D01*
X5747976Y-15149800D02*
X5728929Y-15159324D01*
X5728929Y-15159324D02*
X5709881Y-15159324D01*
X5709881Y-15159324D02*
X5690833Y-15149800D01*
X5690833Y-15149800D02*
X5681309Y-15140276D01*
X5681309Y-15140276D02*
X5671786Y-15121228D01*
X5671786Y-15121228D02*
X5662262Y-15083133D01*
X5662262Y-15083133D02*
X5662262Y-15035514D01*
X5662262Y-15035514D02*
X5671786Y-14997419D01*
X5671786Y-14997419D02*
X5681309Y-14978371D01*
X5681309Y-14978371D02*
X5690833Y-14968848D01*
X5690833Y-14968848D02*
X5709881Y-14959324D01*
X5862262Y-15159324D02*
X5862262Y-15025990D01*
X5862262Y-15045038D02*
X5871786Y-15035514D01*
X5871786Y-15035514D02*
X5890833Y-15025990D01*
X5890833Y-15025990D02*
X5919405Y-15025990D01*
X5919405Y-15025990D02*
X5938452Y-15035514D01*
X5938452Y-15035514D02*
X5947976Y-15054562D01*
X5947976Y-15054562D02*
X5947976Y-15159324D01*
X5947976Y-15054562D02*
X5957500Y-15035514D01*
X5957500Y-15035514D02*
X5976548Y-15025990D01*
X5976548Y-15025990D02*
X6005119Y-15025990D01*
X6005119Y-15025990D02*
X6024167Y-15035514D01*
X6024167Y-15035514D02*
X6033690Y-15054562D01*
X6033690Y-15054562D02*
X6033690Y-15159324D01*
X6128929Y-15159324D02*
X6128929Y-15025990D01*
X6128929Y-15045038D02*
X6138452Y-15035514D01*
X6138452Y-15035514D02*
X6157500Y-15025990D01*
X6157500Y-15025990D02*
X6186071Y-15025990D01*
X6186071Y-15025990D02*
X6205119Y-15035514D01*
X6205119Y-15035514D02*
X6214643Y-15054562D01*
X6214643Y-15054562D02*
X6214643Y-15159324D01*
X6214643Y-15054562D02*
X6224167Y-15035514D01*
X6224167Y-15035514D02*
X6243214Y-15025990D01*
X6243214Y-15025990D02*
X6271786Y-15025990D01*
X6271786Y-15025990D02*
X6290833Y-15035514D01*
X6290833Y-15035514D02*
X6300357Y-15054562D01*
X6300357Y-15054562D02*
X6300357Y-15159324D01*
X6690833Y-14949800D02*
X6519405Y-15206943D01*
X6947976Y-14959324D02*
X6967024Y-14959324D01*
X6967024Y-14959324D02*
X6986072Y-14968848D01*
X6986072Y-14968848D02*
X6995595Y-14978371D01*
X6995595Y-14978371D02*
X7005119Y-14997419D01*
X7005119Y-14997419D02*
X7014643Y-15035514D01*
X7014643Y-15035514D02*
X7014643Y-15083133D01*
X7014643Y-15083133D02*
X7005119Y-15121228D01*
X7005119Y-15121228D02*
X6995595Y-15140276D01*
X6995595Y-15140276D02*
X6986072Y-15149800D01*
X6986072Y-15149800D02*
X6967024Y-15159324D01*
X6967024Y-15159324D02*
X6947976Y-15159324D01*
X6947976Y-15159324D02*
X6928929Y-15149800D01*
X6928929Y-15149800D02*
X6919405Y-15140276D01*
X6919405Y-15140276D02*
X6909881Y-15121228D01*
X6909881Y-15121228D02*
X6900357Y-15083133D01*
X6900357Y-15083133D02*
X6900357Y-15035514D01*
X6900357Y-15035514D02*
X6909881Y-14997419D01*
X6909881Y-14997419D02*
X6919405Y-14978371D01*
X6919405Y-14978371D02*
X6928929Y-14968848D01*
X6928929Y-14968848D02*
X6947976Y-14959324D01*
X7100357Y-15140276D02*
X7109881Y-15149800D01*
X7109881Y-15149800D02*
X7100357Y-15159324D01*
X7100357Y-15159324D02*
X7090833Y-15149800D01*
X7090833Y-15149800D02*
X7100357Y-15140276D01*
X7100357Y-15140276D02*
X7100357Y-15159324D01*
X7233691Y-14959324D02*
X7252738Y-14959324D01*
X7252738Y-14959324D02*
X7271786Y-14968848D01*
X7271786Y-14968848D02*
X7281310Y-14978371D01*
X7281310Y-14978371D02*
X7290833Y-14997419D01*
X7290833Y-14997419D02*
X7300357Y-15035514D01*
X7300357Y-15035514D02*
X7300357Y-15083133D01*
X7300357Y-15083133D02*
X7290833Y-15121228D01*
X7290833Y-15121228D02*
X7281310Y-15140276D01*
X7281310Y-15140276D02*
X7271786Y-15149800D01*
X7271786Y-15149800D02*
X7252738Y-15159324D01*
X7252738Y-15159324D02*
X7233691Y-15159324D01*
X7233691Y-15159324D02*
X7214643Y-15149800D01*
X7214643Y-15149800D02*
X7205119Y-15140276D01*
X7205119Y-15140276D02*
X7195595Y-15121228D01*
X7195595Y-15121228D02*
X7186072Y-15083133D01*
X7186072Y-15083133D02*
X7186072Y-15035514D01*
X7186072Y-15035514D02*
X7195595Y-14997419D01*
X7195595Y-14997419D02*
X7205119Y-14978371D01*
X7205119Y-14978371D02*
X7214643Y-14968848D01*
X7214643Y-14968848D02*
X7233691Y-14959324D01*
X7471786Y-15025990D02*
X7471786Y-15159324D01*
X7424167Y-14949800D02*
X7376548Y-15092657D01*
X7376548Y-15092657D02*
X7500357Y-15092657D01*
X7557500Y-14959324D02*
X7690833Y-14959324D01*
X7690833Y-14959324D02*
X7605119Y-15159324D01*
X7757500Y-14978371D02*
X7767024Y-14968848D01*
X7767024Y-14968848D02*
X7786072Y-14959324D01*
X7786072Y-14959324D02*
X7833691Y-14959324D01*
X7833691Y-14959324D02*
X7852738Y-14968848D01*
X7852738Y-14968848D02*
X7862262Y-14978371D01*
X7862262Y-14978371D02*
X7871786Y-14997419D01*
X7871786Y-14997419D02*
X7871786Y-15016467D01*
X7871786Y-15016467D02*
X7862262Y-15045038D01*
X7862262Y-15045038D02*
X7747976Y-15159324D01*
X7747976Y-15159324D02*
X7871786Y-15159324D01*
X7947976Y-14959324D02*
X7947976Y-14997419D01*
X8024167Y-14959324D02*
X8024167Y-14997419D01*
X8319405Y-15235514D02*
X8309881Y-15225990D01*
X8309881Y-15225990D02*
X8290834Y-15197419D01*
X8290834Y-15197419D02*
X8281310Y-15178371D01*
X8281310Y-15178371D02*
X8271786Y-15149800D01*
X8271786Y-15149800D02*
X8262262Y-15102181D01*
X8262262Y-15102181D02*
X8262262Y-15064086D01*
X8262262Y-15064086D02*
X8271786Y-15016467D01*
X8271786Y-15016467D02*
X8281310Y-14987895D01*
X8281310Y-14987895D02*
X8290834Y-14968848D01*
X8290834Y-14968848D02*
X8309881Y-14940276D01*
X8309881Y-14940276D02*
X8319405Y-14930752D01*
X8424167Y-15045038D02*
X8405119Y-15035514D01*
X8405119Y-15035514D02*
X8395596Y-15025990D01*
X8395596Y-15025990D02*
X8386072Y-15006943D01*
X8386072Y-15006943D02*
X8386072Y-14997419D01*
X8386072Y-14997419D02*
X8395596Y-14978371D01*
X8395596Y-14978371D02*
X8405119Y-14968848D01*
X8405119Y-14968848D02*
X8424167Y-14959324D01*
X8424167Y-14959324D02*
X8462262Y-14959324D01*
X8462262Y-14959324D02*
X8481310Y-14968848D01*
X8481310Y-14968848D02*
X8490834Y-14978371D01*
X8490834Y-14978371D02*
X8500357Y-14997419D01*
X8500357Y-14997419D02*
X8500357Y-15006943D01*
X8500357Y-15006943D02*
X8490834Y-15025990D01*
X8490834Y-15025990D02*
X8481310Y-15035514D01*
X8481310Y-15035514D02*
X8462262Y-15045038D01*
X8462262Y-15045038D02*
X8424167Y-15045038D01*
X8424167Y-15045038D02*
X8405119Y-15054562D01*
X8405119Y-15054562D02*
X8395596Y-15064086D01*
X8395596Y-15064086D02*
X8386072Y-15083133D01*
X8386072Y-15083133D02*
X8386072Y-15121228D01*
X8386072Y-15121228D02*
X8395596Y-15140276D01*
X8395596Y-15140276D02*
X8405119Y-15149800D01*
X8405119Y-15149800D02*
X8424167Y-15159324D01*
X8424167Y-15159324D02*
X8462262Y-15159324D01*
X8462262Y-15159324D02*
X8481310Y-15149800D01*
X8481310Y-15149800D02*
X8490834Y-15140276D01*
X8490834Y-15140276D02*
X8500357Y-15121228D01*
X8500357Y-15121228D02*
X8500357Y-15083133D01*
X8500357Y-15083133D02*
X8490834Y-15064086D01*
X8490834Y-15064086D02*
X8481310Y-15054562D01*
X8481310Y-15054562D02*
X8462262Y-15045038D01*
X8738453Y-15159324D02*
X8738453Y-14959324D01*
X8824167Y-15159324D02*
X8824167Y-15054562D01*
X8824167Y-15054562D02*
X8814643Y-15035514D01*
X8814643Y-15035514D02*
X8795596Y-15025990D01*
X8795596Y-15025990D02*
X8767024Y-15025990D01*
X8767024Y-15025990D02*
X8747977Y-15035514D01*
X8747977Y-15035514D02*
X8738453Y-15045038D01*
X8947977Y-15159324D02*
X8928929Y-15149800D01*
X8928929Y-15149800D02*
X8919405Y-15140276D01*
X8919405Y-15140276D02*
X8909881Y-15121228D01*
X8909881Y-15121228D02*
X8909881Y-15064086D01*
X8909881Y-15064086D02*
X8919405Y-15045038D01*
X8919405Y-15045038D02*
X8928929Y-15035514D01*
X8928929Y-15035514D02*
X8947977Y-15025990D01*
X8947977Y-15025990D02*
X8976548Y-15025990D01*
X8976548Y-15025990D02*
X8995596Y-15035514D01*
X8995596Y-15035514D02*
X9005119Y-15045038D01*
X9005119Y-15045038D02*
X9014643Y-15064086D01*
X9014643Y-15064086D02*
X9014643Y-15121228D01*
X9014643Y-15121228D02*
X9005119Y-15140276D01*
X9005119Y-15140276D02*
X8995596Y-15149800D01*
X8995596Y-15149800D02*
X8976548Y-15159324D01*
X8976548Y-15159324D02*
X8947977Y-15159324D01*
X9128929Y-15159324D02*
X9109881Y-15149800D01*
X9109881Y-15149800D02*
X9100358Y-15130752D01*
X9100358Y-15130752D02*
X9100358Y-14959324D01*
X9281310Y-15149800D02*
X9262262Y-15159324D01*
X9262262Y-15159324D02*
X9224167Y-15159324D01*
X9224167Y-15159324D02*
X9205119Y-15149800D01*
X9205119Y-15149800D02*
X9195596Y-15130752D01*
X9195596Y-15130752D02*
X9195596Y-15054562D01*
X9195596Y-15054562D02*
X9205119Y-15035514D01*
X9205119Y-15035514D02*
X9224167Y-15025990D01*
X9224167Y-15025990D02*
X9262262Y-15025990D01*
X9262262Y-15025990D02*
X9281310Y-15035514D01*
X9281310Y-15035514D02*
X9290834Y-15054562D01*
X9290834Y-15054562D02*
X9290834Y-15073609D01*
X9290834Y-15073609D02*
X9195596Y-15092657D01*
X9367024Y-15149800D02*
X9386072Y-15159324D01*
X9386072Y-15159324D02*
X9424167Y-15159324D01*
X9424167Y-15159324D02*
X9443215Y-15149800D01*
X9443215Y-15149800D02*
X9452739Y-15130752D01*
X9452739Y-15130752D02*
X9452739Y-15121228D01*
X9452739Y-15121228D02*
X9443215Y-15102181D01*
X9443215Y-15102181D02*
X9424167Y-15092657D01*
X9424167Y-15092657D02*
X9395596Y-15092657D01*
X9395596Y-15092657D02*
X9376548Y-15083133D01*
X9376548Y-15083133D02*
X9367024Y-15064086D01*
X9367024Y-15064086D02*
X9367024Y-15054562D01*
X9367024Y-15054562D02*
X9376548Y-15035514D01*
X9376548Y-15035514D02*
X9395596Y-15025990D01*
X9395596Y-15025990D02*
X9424167Y-15025990D01*
X9424167Y-15025990D02*
X9443215Y-15035514D01*
X9519405Y-15235514D02*
X9528929Y-15225990D01*
X9528929Y-15225990D02*
X9547977Y-15197419D01*
X9547977Y-15197419D02*
X9557500Y-15178371D01*
X9557500Y-15178371D02*
X9567024Y-15149800D01*
X9567024Y-15149800D02*
X9576548Y-15102181D01*
X9576548Y-15102181D02*
X9576548Y-15064086D01*
X9576548Y-15064086D02*
X9567024Y-15016467D01*
X9567024Y-15016467D02*
X9557500Y-14987895D01*
X9557500Y-14987895D02*
X9547977Y-14968848D01*
X9547977Y-14968848D02*
X9528929Y-14940276D01*
X9528929Y-14940276D02*
X9519405Y-14930752D01*
D15*
X4677500Y-15410800D02*
X4757500Y-15330800D01*
X4677500Y-15250800D01*
X4597500Y-15330800D01*
X4677500Y-15410800D01*
D11*
X5109881Y-15423324D02*
X4995595Y-15423324D01*
X5052738Y-15423324D02*
X5052738Y-15223324D01*
X5052738Y-15223324D02*
X5033690Y-15251895D01*
X5033690Y-15251895D02*
X5014643Y-15270943D01*
X5014643Y-15270943D02*
X4995595Y-15280467D01*
X5195595Y-15404276D02*
X5205119Y-15413800D01*
X5205119Y-15413800D02*
X5195595Y-15423324D01*
X5195595Y-15423324D02*
X5186071Y-15413800D01*
X5186071Y-15413800D02*
X5195595Y-15404276D01*
X5195595Y-15404276D02*
X5195595Y-15423324D01*
X5376548Y-15223324D02*
X5338452Y-15223324D01*
X5338452Y-15223324D02*
X5319405Y-15232848D01*
X5319405Y-15232848D02*
X5309881Y-15242371D01*
X5309881Y-15242371D02*
X5290833Y-15270943D01*
X5290833Y-15270943D02*
X5281310Y-15309038D01*
X5281310Y-15309038D02*
X5281310Y-15385228D01*
X5281310Y-15385228D02*
X5290833Y-15404276D01*
X5290833Y-15404276D02*
X5300357Y-15413800D01*
X5300357Y-15413800D02*
X5319405Y-15423324D01*
X5319405Y-15423324D02*
X5357500Y-15423324D01*
X5357500Y-15423324D02*
X5376548Y-15413800D01*
X5376548Y-15413800D02*
X5386071Y-15404276D01*
X5386071Y-15404276D02*
X5395595Y-15385228D01*
X5395595Y-15385228D02*
X5395595Y-15337609D01*
X5395595Y-15337609D02*
X5386071Y-15318562D01*
X5386071Y-15318562D02*
X5376548Y-15309038D01*
X5376548Y-15309038D02*
X5357500Y-15299514D01*
X5357500Y-15299514D02*
X5319405Y-15299514D01*
X5319405Y-15299514D02*
X5300357Y-15309038D01*
X5300357Y-15309038D02*
X5290833Y-15318562D01*
X5290833Y-15318562D02*
X5281310Y-15337609D01*
X5519405Y-15223324D02*
X5538452Y-15223324D01*
X5538452Y-15223324D02*
X5557500Y-15232848D01*
X5557500Y-15232848D02*
X5567024Y-15242371D01*
X5567024Y-15242371D02*
X5576548Y-15261419D01*
X5576548Y-15261419D02*
X5586071Y-15299514D01*
X5586071Y-15299514D02*
X5586071Y-15347133D01*
X5586071Y-15347133D02*
X5576548Y-15385228D01*
X5576548Y-15385228D02*
X5567024Y-15404276D01*
X5567024Y-15404276D02*
X5557500Y-15413800D01*
X5557500Y-15413800D02*
X5538452Y-15423324D01*
X5538452Y-15423324D02*
X5519405Y-15423324D01*
X5519405Y-15423324D02*
X5500357Y-15413800D01*
X5500357Y-15413800D02*
X5490833Y-15404276D01*
X5490833Y-15404276D02*
X5481310Y-15385228D01*
X5481310Y-15385228D02*
X5471786Y-15347133D01*
X5471786Y-15347133D02*
X5471786Y-15299514D01*
X5471786Y-15299514D02*
X5481310Y-15261419D01*
X5481310Y-15261419D02*
X5490833Y-15242371D01*
X5490833Y-15242371D02*
X5500357Y-15232848D01*
X5500357Y-15232848D02*
X5519405Y-15223324D01*
X5709881Y-15223324D02*
X5728929Y-15223324D01*
X5728929Y-15223324D02*
X5747976Y-15232848D01*
X5747976Y-15232848D02*
X5757500Y-15242371D01*
X5757500Y-15242371D02*
X5767024Y-15261419D01*
X5767024Y-15261419D02*
X5776548Y-15299514D01*
X5776548Y-15299514D02*
X5776548Y-15347133D01*
X5776548Y-15347133D02*
X5767024Y-15385228D01*
X5767024Y-15385228D02*
X5757500Y-15404276D01*
X5757500Y-15404276D02*
X5747976Y-15413800D01*
X5747976Y-15413800D02*
X5728929Y-15423324D01*
X5728929Y-15423324D02*
X5709881Y-15423324D01*
X5709881Y-15423324D02*
X5690833Y-15413800D01*
X5690833Y-15413800D02*
X5681309Y-15404276D01*
X5681309Y-15404276D02*
X5671786Y-15385228D01*
X5671786Y-15385228D02*
X5662262Y-15347133D01*
X5662262Y-15347133D02*
X5662262Y-15299514D01*
X5662262Y-15299514D02*
X5671786Y-15261419D01*
X5671786Y-15261419D02*
X5681309Y-15242371D01*
X5681309Y-15242371D02*
X5690833Y-15232848D01*
X5690833Y-15232848D02*
X5709881Y-15223324D01*
X5862262Y-15423324D02*
X5862262Y-15289990D01*
X5862262Y-15309038D02*
X5871786Y-15299514D01*
X5871786Y-15299514D02*
X5890833Y-15289990D01*
X5890833Y-15289990D02*
X5919405Y-15289990D01*
X5919405Y-15289990D02*
X5938452Y-15299514D01*
X5938452Y-15299514D02*
X5947976Y-15318562D01*
X5947976Y-15318562D02*
X5947976Y-15423324D01*
X5947976Y-15318562D02*
X5957500Y-15299514D01*
X5957500Y-15299514D02*
X5976548Y-15289990D01*
X5976548Y-15289990D02*
X6005119Y-15289990D01*
X6005119Y-15289990D02*
X6024167Y-15299514D01*
X6024167Y-15299514D02*
X6033690Y-15318562D01*
X6033690Y-15318562D02*
X6033690Y-15423324D01*
X6128929Y-15423324D02*
X6128929Y-15289990D01*
X6128929Y-15309038D02*
X6138452Y-15299514D01*
X6138452Y-15299514D02*
X6157500Y-15289990D01*
X6157500Y-15289990D02*
X6186071Y-15289990D01*
X6186071Y-15289990D02*
X6205119Y-15299514D01*
X6205119Y-15299514D02*
X6214643Y-15318562D01*
X6214643Y-15318562D02*
X6214643Y-15423324D01*
X6214643Y-15318562D02*
X6224167Y-15299514D01*
X6224167Y-15299514D02*
X6243214Y-15289990D01*
X6243214Y-15289990D02*
X6271786Y-15289990D01*
X6271786Y-15289990D02*
X6290833Y-15299514D01*
X6290833Y-15299514D02*
X6300357Y-15318562D01*
X6300357Y-15318562D02*
X6300357Y-15423324D01*
X6690833Y-15213800D02*
X6519405Y-15470943D01*
X6947976Y-15223324D02*
X6967024Y-15223324D01*
X6967024Y-15223324D02*
X6986072Y-15232848D01*
X6986072Y-15232848D02*
X6995595Y-15242371D01*
X6995595Y-15242371D02*
X7005119Y-15261419D01*
X7005119Y-15261419D02*
X7014643Y-15299514D01*
X7014643Y-15299514D02*
X7014643Y-15347133D01*
X7014643Y-15347133D02*
X7005119Y-15385228D01*
X7005119Y-15385228D02*
X6995595Y-15404276D01*
X6995595Y-15404276D02*
X6986072Y-15413800D01*
X6986072Y-15413800D02*
X6967024Y-15423324D01*
X6967024Y-15423324D02*
X6947976Y-15423324D01*
X6947976Y-15423324D02*
X6928929Y-15413800D01*
X6928929Y-15413800D02*
X6919405Y-15404276D01*
X6919405Y-15404276D02*
X6909881Y-15385228D01*
X6909881Y-15385228D02*
X6900357Y-15347133D01*
X6900357Y-15347133D02*
X6900357Y-15299514D01*
X6900357Y-15299514D02*
X6909881Y-15261419D01*
X6909881Y-15261419D02*
X6919405Y-15242371D01*
X6919405Y-15242371D02*
X6928929Y-15232848D01*
X6928929Y-15232848D02*
X6947976Y-15223324D01*
X7100357Y-15404276D02*
X7109881Y-15413800D01*
X7109881Y-15413800D02*
X7100357Y-15423324D01*
X7100357Y-15423324D02*
X7090833Y-15413800D01*
X7090833Y-15413800D02*
X7100357Y-15404276D01*
X7100357Y-15404276D02*
X7100357Y-15423324D01*
X7233691Y-15223324D02*
X7252738Y-15223324D01*
X7252738Y-15223324D02*
X7271786Y-15232848D01*
X7271786Y-15232848D02*
X7281310Y-15242371D01*
X7281310Y-15242371D02*
X7290833Y-15261419D01*
X7290833Y-15261419D02*
X7300357Y-15299514D01*
X7300357Y-15299514D02*
X7300357Y-15347133D01*
X7300357Y-15347133D02*
X7290833Y-15385228D01*
X7290833Y-15385228D02*
X7281310Y-15404276D01*
X7281310Y-15404276D02*
X7271786Y-15413800D01*
X7271786Y-15413800D02*
X7252738Y-15423324D01*
X7252738Y-15423324D02*
X7233691Y-15423324D01*
X7233691Y-15423324D02*
X7214643Y-15413800D01*
X7214643Y-15413800D02*
X7205119Y-15404276D01*
X7205119Y-15404276D02*
X7195595Y-15385228D01*
X7195595Y-15385228D02*
X7186072Y-15347133D01*
X7186072Y-15347133D02*
X7186072Y-15299514D01*
X7186072Y-15299514D02*
X7195595Y-15261419D01*
X7195595Y-15261419D02*
X7205119Y-15242371D01*
X7205119Y-15242371D02*
X7214643Y-15232848D01*
X7214643Y-15232848D02*
X7233691Y-15223324D01*
X7471786Y-15223324D02*
X7433691Y-15223324D01*
X7433691Y-15223324D02*
X7414643Y-15232848D01*
X7414643Y-15232848D02*
X7405119Y-15242371D01*
X7405119Y-15242371D02*
X7386072Y-15270943D01*
X7386072Y-15270943D02*
X7376548Y-15309038D01*
X7376548Y-15309038D02*
X7376548Y-15385228D01*
X7376548Y-15385228D02*
X7386072Y-15404276D01*
X7386072Y-15404276D02*
X7395595Y-15413800D01*
X7395595Y-15413800D02*
X7414643Y-15423324D01*
X7414643Y-15423324D02*
X7452738Y-15423324D01*
X7452738Y-15423324D02*
X7471786Y-15413800D01*
X7471786Y-15413800D02*
X7481310Y-15404276D01*
X7481310Y-15404276D02*
X7490833Y-15385228D01*
X7490833Y-15385228D02*
X7490833Y-15337609D01*
X7490833Y-15337609D02*
X7481310Y-15318562D01*
X7481310Y-15318562D02*
X7471786Y-15309038D01*
X7471786Y-15309038D02*
X7452738Y-15299514D01*
X7452738Y-15299514D02*
X7414643Y-15299514D01*
X7414643Y-15299514D02*
X7395595Y-15309038D01*
X7395595Y-15309038D02*
X7386072Y-15318562D01*
X7386072Y-15318562D02*
X7376548Y-15337609D01*
X7557500Y-15223324D02*
X7681310Y-15223324D01*
X7681310Y-15223324D02*
X7614643Y-15299514D01*
X7614643Y-15299514D02*
X7643214Y-15299514D01*
X7643214Y-15299514D02*
X7662262Y-15309038D01*
X7662262Y-15309038D02*
X7671786Y-15318562D01*
X7671786Y-15318562D02*
X7681310Y-15337609D01*
X7681310Y-15337609D02*
X7681310Y-15385228D01*
X7681310Y-15385228D02*
X7671786Y-15404276D01*
X7671786Y-15404276D02*
X7662262Y-15413800D01*
X7662262Y-15413800D02*
X7643214Y-15423324D01*
X7643214Y-15423324D02*
X7586072Y-15423324D01*
X7586072Y-15423324D02*
X7567024Y-15413800D01*
X7567024Y-15413800D02*
X7557500Y-15404276D01*
X7805119Y-15223324D02*
X7824167Y-15223324D01*
X7824167Y-15223324D02*
X7843214Y-15232848D01*
X7843214Y-15232848D02*
X7852738Y-15242371D01*
X7852738Y-15242371D02*
X7862262Y-15261419D01*
X7862262Y-15261419D02*
X7871786Y-15299514D01*
X7871786Y-15299514D02*
X7871786Y-15347133D01*
X7871786Y-15347133D02*
X7862262Y-15385228D01*
X7862262Y-15385228D02*
X7852738Y-15404276D01*
X7852738Y-15404276D02*
X7843214Y-15413800D01*
X7843214Y-15413800D02*
X7824167Y-15423324D01*
X7824167Y-15423324D02*
X7805119Y-15423324D01*
X7805119Y-15423324D02*
X7786072Y-15413800D01*
X7786072Y-15413800D02*
X7776548Y-15404276D01*
X7776548Y-15404276D02*
X7767024Y-15385228D01*
X7767024Y-15385228D02*
X7757500Y-15347133D01*
X7757500Y-15347133D02*
X7757500Y-15299514D01*
X7757500Y-15299514D02*
X7767024Y-15261419D01*
X7767024Y-15261419D02*
X7776548Y-15242371D01*
X7776548Y-15242371D02*
X7786072Y-15232848D01*
X7786072Y-15232848D02*
X7805119Y-15223324D01*
X7947976Y-15223324D02*
X7947976Y-15261419D01*
X8024167Y-15223324D02*
X8024167Y-15261419D01*
X8319405Y-15499514D02*
X8309881Y-15489990D01*
X8309881Y-15489990D02*
X8290834Y-15461419D01*
X8290834Y-15461419D02*
X8281310Y-15442371D01*
X8281310Y-15442371D02*
X8271786Y-15413800D01*
X8271786Y-15413800D02*
X8262262Y-15366181D01*
X8262262Y-15366181D02*
X8262262Y-15328086D01*
X8262262Y-15328086D02*
X8271786Y-15280467D01*
X8271786Y-15280467D02*
X8281310Y-15251895D01*
X8281310Y-15251895D02*
X8290834Y-15232848D01*
X8290834Y-15232848D02*
X8309881Y-15204276D01*
X8309881Y-15204276D02*
X8319405Y-15194752D01*
X8500357Y-15423324D02*
X8386072Y-15423324D01*
X8443215Y-15423324D02*
X8443215Y-15223324D01*
X8443215Y-15223324D02*
X8424167Y-15251895D01*
X8424167Y-15251895D02*
X8405119Y-15270943D01*
X8405119Y-15270943D02*
X8386072Y-15280467D01*
X8595596Y-15423324D02*
X8633691Y-15423324D01*
X8633691Y-15423324D02*
X8652738Y-15413800D01*
X8652738Y-15413800D02*
X8662262Y-15404276D01*
X8662262Y-15404276D02*
X8681310Y-15375705D01*
X8681310Y-15375705D02*
X8690834Y-15337609D01*
X8690834Y-15337609D02*
X8690834Y-15261419D01*
X8690834Y-15261419D02*
X8681310Y-15242371D01*
X8681310Y-15242371D02*
X8671786Y-15232848D01*
X8671786Y-15232848D02*
X8652738Y-15223324D01*
X8652738Y-15223324D02*
X8614643Y-15223324D01*
X8614643Y-15223324D02*
X8595596Y-15232848D01*
X8595596Y-15232848D02*
X8586072Y-15242371D01*
X8586072Y-15242371D02*
X8576548Y-15261419D01*
X8576548Y-15261419D02*
X8576548Y-15309038D01*
X8576548Y-15309038D02*
X8586072Y-15328086D01*
X8586072Y-15328086D02*
X8595596Y-15337609D01*
X8595596Y-15337609D02*
X8614643Y-15347133D01*
X8614643Y-15347133D02*
X8652738Y-15347133D01*
X8652738Y-15347133D02*
X8671786Y-15337609D01*
X8671786Y-15337609D02*
X8681310Y-15328086D01*
X8681310Y-15328086D02*
X8690834Y-15309038D01*
X8928929Y-15423324D02*
X8928929Y-15223324D01*
X9014643Y-15423324D02*
X9014643Y-15318562D01*
X9014643Y-15318562D02*
X9005119Y-15299514D01*
X9005119Y-15299514D02*
X8986072Y-15289990D01*
X8986072Y-15289990D02*
X8957500Y-15289990D01*
X8957500Y-15289990D02*
X8938453Y-15299514D01*
X8938453Y-15299514D02*
X8928929Y-15309038D01*
X9138453Y-15423324D02*
X9119405Y-15413800D01*
X9119405Y-15413800D02*
X9109881Y-15404276D01*
X9109881Y-15404276D02*
X9100358Y-15385228D01*
X9100358Y-15385228D02*
X9100358Y-15328086D01*
X9100358Y-15328086D02*
X9109881Y-15309038D01*
X9109881Y-15309038D02*
X9119405Y-15299514D01*
X9119405Y-15299514D02*
X9138453Y-15289990D01*
X9138453Y-15289990D02*
X9167024Y-15289990D01*
X9167024Y-15289990D02*
X9186072Y-15299514D01*
X9186072Y-15299514D02*
X9195596Y-15309038D01*
X9195596Y-15309038D02*
X9205119Y-15328086D01*
X9205119Y-15328086D02*
X9205119Y-15385228D01*
X9205119Y-15385228D02*
X9195596Y-15404276D01*
X9195596Y-15404276D02*
X9186072Y-15413800D01*
X9186072Y-15413800D02*
X9167024Y-15423324D01*
X9167024Y-15423324D02*
X9138453Y-15423324D01*
X9319405Y-15423324D02*
X9300358Y-15413800D01*
X9300358Y-15413800D02*
X9290834Y-15394752D01*
X9290834Y-15394752D02*
X9290834Y-15223324D01*
X9471786Y-15413800D02*
X9452739Y-15423324D01*
X9452739Y-15423324D02*
X9414643Y-15423324D01*
X9414643Y-15423324D02*
X9395596Y-15413800D01*
X9395596Y-15413800D02*
X9386072Y-15394752D01*
X9386072Y-15394752D02*
X9386072Y-15318562D01*
X9386072Y-15318562D02*
X9395596Y-15299514D01*
X9395596Y-15299514D02*
X9414643Y-15289990D01*
X9414643Y-15289990D02*
X9452739Y-15289990D01*
X9452739Y-15289990D02*
X9471786Y-15299514D01*
X9471786Y-15299514D02*
X9481310Y-15318562D01*
X9481310Y-15318562D02*
X9481310Y-15337609D01*
X9481310Y-15337609D02*
X9386072Y-15356657D01*
X9557500Y-15413800D02*
X9576548Y-15423324D01*
X9576548Y-15423324D02*
X9614643Y-15423324D01*
X9614643Y-15423324D02*
X9633691Y-15413800D01*
X9633691Y-15413800D02*
X9643215Y-15394752D01*
X9643215Y-15394752D02*
X9643215Y-15385228D01*
X9643215Y-15385228D02*
X9633691Y-15366181D01*
X9633691Y-15366181D02*
X9614643Y-15356657D01*
X9614643Y-15356657D02*
X9586072Y-15356657D01*
X9586072Y-15356657D02*
X9567024Y-15347133D01*
X9567024Y-15347133D02*
X9557500Y-15328086D01*
X9557500Y-15328086D02*
X9557500Y-15318562D01*
X9557500Y-15318562D02*
X9567024Y-15299514D01*
X9567024Y-15299514D02*
X9586072Y-15289990D01*
X9586072Y-15289990D02*
X9614643Y-15289990D01*
X9614643Y-15289990D02*
X9633691Y-15299514D01*
X9709881Y-15499514D02*
X9719405Y-15489990D01*
X9719405Y-15489990D02*
X9738453Y-15461419D01*
X9738453Y-15461419D02*
X9747977Y-15442371D01*
X9747977Y-15442371D02*
X9757500Y-15413800D01*
X9757500Y-15413800D02*
X9767024Y-15366181D01*
X9767024Y-15366181D02*
X9767024Y-15328086D01*
X9767024Y-15328086D02*
X9757500Y-15280467D01*
X9757500Y-15280467D02*
X9747977Y-15251895D01*
X9747977Y-15251895D02*
X9738453Y-15232848D01*
X9738453Y-15232848D02*
X9719405Y-15204276D01*
X9719405Y-15204276D02*
X9709881Y-15194752D01*
D16*
X4587500Y-15525800D02*
X4757500Y-15695800D01*
X4757500Y-15525800D02*
X4587500Y-15695800D01*
X4757500Y-15610800D02*
G75*
G03*
X4757500Y-15610800I-85000J0D01*
G01*
D11*
X5109881Y-15703324D02*
X4995595Y-15703324D01*
X5052738Y-15703324D02*
X5052738Y-15503324D01*
X5052738Y-15503324D02*
X5033690Y-15531895D01*
X5033690Y-15531895D02*
X5014643Y-15550943D01*
X5014643Y-15550943D02*
X4995595Y-15560467D01*
X5195595Y-15684276D02*
X5205119Y-15693800D01*
X5205119Y-15693800D02*
X5195595Y-15703324D01*
X5195595Y-15703324D02*
X5186071Y-15693800D01*
X5186071Y-15693800D02*
X5195595Y-15684276D01*
X5195595Y-15684276D02*
X5195595Y-15703324D01*
X5271786Y-15503324D02*
X5405119Y-15503324D01*
X5405119Y-15503324D02*
X5319405Y-15703324D01*
X5519405Y-15503324D02*
X5538452Y-15503324D01*
X5538452Y-15503324D02*
X5557500Y-15512848D01*
X5557500Y-15512848D02*
X5567024Y-15522371D01*
X5567024Y-15522371D02*
X5576548Y-15541419D01*
X5576548Y-15541419D02*
X5586071Y-15579514D01*
X5586071Y-15579514D02*
X5586071Y-15627133D01*
X5586071Y-15627133D02*
X5576548Y-15665228D01*
X5576548Y-15665228D02*
X5567024Y-15684276D01*
X5567024Y-15684276D02*
X5557500Y-15693800D01*
X5557500Y-15693800D02*
X5538452Y-15703324D01*
X5538452Y-15703324D02*
X5519405Y-15703324D01*
X5519405Y-15703324D02*
X5500357Y-15693800D01*
X5500357Y-15693800D02*
X5490833Y-15684276D01*
X5490833Y-15684276D02*
X5481310Y-15665228D01*
X5481310Y-15665228D02*
X5471786Y-15627133D01*
X5471786Y-15627133D02*
X5471786Y-15579514D01*
X5471786Y-15579514D02*
X5481310Y-15541419D01*
X5481310Y-15541419D02*
X5490833Y-15522371D01*
X5490833Y-15522371D02*
X5500357Y-15512848D01*
X5500357Y-15512848D02*
X5519405Y-15503324D01*
X5709881Y-15503324D02*
X5728929Y-15503324D01*
X5728929Y-15503324D02*
X5747976Y-15512848D01*
X5747976Y-15512848D02*
X5757500Y-15522371D01*
X5757500Y-15522371D02*
X5767024Y-15541419D01*
X5767024Y-15541419D02*
X5776548Y-15579514D01*
X5776548Y-15579514D02*
X5776548Y-15627133D01*
X5776548Y-15627133D02*
X5767024Y-15665228D01*
X5767024Y-15665228D02*
X5757500Y-15684276D01*
X5757500Y-15684276D02*
X5747976Y-15693800D01*
X5747976Y-15693800D02*
X5728929Y-15703324D01*
X5728929Y-15703324D02*
X5709881Y-15703324D01*
X5709881Y-15703324D02*
X5690833Y-15693800D01*
X5690833Y-15693800D02*
X5681309Y-15684276D01*
X5681309Y-15684276D02*
X5671786Y-15665228D01*
X5671786Y-15665228D02*
X5662262Y-15627133D01*
X5662262Y-15627133D02*
X5662262Y-15579514D01*
X5662262Y-15579514D02*
X5671786Y-15541419D01*
X5671786Y-15541419D02*
X5681309Y-15522371D01*
X5681309Y-15522371D02*
X5690833Y-15512848D01*
X5690833Y-15512848D02*
X5709881Y-15503324D01*
X5862262Y-15703324D02*
X5862262Y-15569990D01*
X5862262Y-15589038D02*
X5871786Y-15579514D01*
X5871786Y-15579514D02*
X5890833Y-15569990D01*
X5890833Y-15569990D02*
X5919405Y-15569990D01*
X5919405Y-15569990D02*
X5938452Y-15579514D01*
X5938452Y-15579514D02*
X5947976Y-15598562D01*
X5947976Y-15598562D02*
X5947976Y-15703324D01*
X5947976Y-15598562D02*
X5957500Y-15579514D01*
X5957500Y-15579514D02*
X5976548Y-15569990D01*
X5976548Y-15569990D02*
X6005119Y-15569990D01*
X6005119Y-15569990D02*
X6024167Y-15579514D01*
X6024167Y-15579514D02*
X6033690Y-15598562D01*
X6033690Y-15598562D02*
X6033690Y-15703324D01*
X6128929Y-15703324D02*
X6128929Y-15569990D01*
X6128929Y-15589038D02*
X6138452Y-15579514D01*
X6138452Y-15579514D02*
X6157500Y-15569990D01*
X6157500Y-15569990D02*
X6186071Y-15569990D01*
X6186071Y-15569990D02*
X6205119Y-15579514D01*
X6205119Y-15579514D02*
X6214643Y-15598562D01*
X6214643Y-15598562D02*
X6214643Y-15703324D01*
X6214643Y-15598562D02*
X6224167Y-15579514D01*
X6224167Y-15579514D02*
X6243214Y-15569990D01*
X6243214Y-15569990D02*
X6271786Y-15569990D01*
X6271786Y-15569990D02*
X6290833Y-15579514D01*
X6290833Y-15579514D02*
X6300357Y-15598562D01*
X6300357Y-15598562D02*
X6300357Y-15703324D01*
X6690833Y-15493800D02*
X6519405Y-15750943D01*
X6947976Y-15503324D02*
X6967024Y-15503324D01*
X6967024Y-15503324D02*
X6986072Y-15512848D01*
X6986072Y-15512848D02*
X6995595Y-15522371D01*
X6995595Y-15522371D02*
X7005119Y-15541419D01*
X7005119Y-15541419D02*
X7014643Y-15579514D01*
X7014643Y-15579514D02*
X7014643Y-15627133D01*
X7014643Y-15627133D02*
X7005119Y-15665228D01*
X7005119Y-15665228D02*
X6995595Y-15684276D01*
X6995595Y-15684276D02*
X6986072Y-15693800D01*
X6986072Y-15693800D02*
X6967024Y-15703324D01*
X6967024Y-15703324D02*
X6947976Y-15703324D01*
X6947976Y-15703324D02*
X6928929Y-15693800D01*
X6928929Y-15693800D02*
X6919405Y-15684276D01*
X6919405Y-15684276D02*
X6909881Y-15665228D01*
X6909881Y-15665228D02*
X6900357Y-15627133D01*
X6900357Y-15627133D02*
X6900357Y-15579514D01*
X6900357Y-15579514D02*
X6909881Y-15541419D01*
X6909881Y-15541419D02*
X6919405Y-15522371D01*
X6919405Y-15522371D02*
X6928929Y-15512848D01*
X6928929Y-15512848D02*
X6947976Y-15503324D01*
X7100357Y-15684276D02*
X7109881Y-15693800D01*
X7109881Y-15693800D02*
X7100357Y-15703324D01*
X7100357Y-15703324D02*
X7090833Y-15693800D01*
X7090833Y-15693800D02*
X7100357Y-15684276D01*
X7100357Y-15684276D02*
X7100357Y-15703324D01*
X7233691Y-15503324D02*
X7252738Y-15503324D01*
X7252738Y-15503324D02*
X7271786Y-15512848D01*
X7271786Y-15512848D02*
X7281310Y-15522371D01*
X7281310Y-15522371D02*
X7290833Y-15541419D01*
X7290833Y-15541419D02*
X7300357Y-15579514D01*
X7300357Y-15579514D02*
X7300357Y-15627133D01*
X7300357Y-15627133D02*
X7290833Y-15665228D01*
X7290833Y-15665228D02*
X7281310Y-15684276D01*
X7281310Y-15684276D02*
X7271786Y-15693800D01*
X7271786Y-15693800D02*
X7252738Y-15703324D01*
X7252738Y-15703324D02*
X7233691Y-15703324D01*
X7233691Y-15703324D02*
X7214643Y-15693800D01*
X7214643Y-15693800D02*
X7205119Y-15684276D01*
X7205119Y-15684276D02*
X7195595Y-15665228D01*
X7195595Y-15665228D02*
X7186072Y-15627133D01*
X7186072Y-15627133D02*
X7186072Y-15579514D01*
X7186072Y-15579514D02*
X7195595Y-15541419D01*
X7195595Y-15541419D02*
X7205119Y-15522371D01*
X7205119Y-15522371D02*
X7214643Y-15512848D01*
X7214643Y-15512848D02*
X7233691Y-15503324D01*
X7471786Y-15503324D02*
X7433691Y-15503324D01*
X7433691Y-15503324D02*
X7414643Y-15512848D01*
X7414643Y-15512848D02*
X7405119Y-15522371D01*
X7405119Y-15522371D02*
X7386072Y-15550943D01*
X7386072Y-15550943D02*
X7376548Y-15589038D01*
X7376548Y-15589038D02*
X7376548Y-15665228D01*
X7376548Y-15665228D02*
X7386072Y-15684276D01*
X7386072Y-15684276D02*
X7395595Y-15693800D01*
X7395595Y-15693800D02*
X7414643Y-15703324D01*
X7414643Y-15703324D02*
X7452738Y-15703324D01*
X7452738Y-15703324D02*
X7471786Y-15693800D01*
X7471786Y-15693800D02*
X7481310Y-15684276D01*
X7481310Y-15684276D02*
X7490833Y-15665228D01*
X7490833Y-15665228D02*
X7490833Y-15617609D01*
X7490833Y-15617609D02*
X7481310Y-15598562D01*
X7481310Y-15598562D02*
X7471786Y-15589038D01*
X7471786Y-15589038D02*
X7452738Y-15579514D01*
X7452738Y-15579514D02*
X7414643Y-15579514D01*
X7414643Y-15579514D02*
X7395595Y-15589038D01*
X7395595Y-15589038D02*
X7386072Y-15598562D01*
X7386072Y-15598562D02*
X7376548Y-15617609D01*
X7662262Y-15503324D02*
X7624167Y-15503324D01*
X7624167Y-15503324D02*
X7605119Y-15512848D01*
X7605119Y-15512848D02*
X7595595Y-15522371D01*
X7595595Y-15522371D02*
X7576548Y-15550943D01*
X7576548Y-15550943D02*
X7567024Y-15589038D01*
X7567024Y-15589038D02*
X7567024Y-15665228D01*
X7567024Y-15665228D02*
X7576548Y-15684276D01*
X7576548Y-15684276D02*
X7586072Y-15693800D01*
X7586072Y-15693800D02*
X7605119Y-15703324D01*
X7605119Y-15703324D02*
X7643214Y-15703324D01*
X7643214Y-15703324D02*
X7662262Y-15693800D01*
X7662262Y-15693800D02*
X7671786Y-15684276D01*
X7671786Y-15684276D02*
X7681310Y-15665228D01*
X7681310Y-15665228D02*
X7681310Y-15617609D01*
X7681310Y-15617609D02*
X7671786Y-15598562D01*
X7671786Y-15598562D02*
X7662262Y-15589038D01*
X7662262Y-15589038D02*
X7643214Y-15579514D01*
X7643214Y-15579514D02*
X7605119Y-15579514D01*
X7605119Y-15579514D02*
X7586072Y-15589038D01*
X7586072Y-15589038D02*
X7576548Y-15598562D01*
X7576548Y-15598562D02*
X7567024Y-15617609D01*
X7776548Y-15703324D02*
X7814643Y-15703324D01*
X7814643Y-15703324D02*
X7833691Y-15693800D01*
X7833691Y-15693800D02*
X7843214Y-15684276D01*
X7843214Y-15684276D02*
X7862262Y-15655705D01*
X7862262Y-15655705D02*
X7871786Y-15617609D01*
X7871786Y-15617609D02*
X7871786Y-15541419D01*
X7871786Y-15541419D02*
X7862262Y-15522371D01*
X7862262Y-15522371D02*
X7852738Y-15512848D01*
X7852738Y-15512848D02*
X7833691Y-15503324D01*
X7833691Y-15503324D02*
X7795595Y-15503324D01*
X7795595Y-15503324D02*
X7776548Y-15512848D01*
X7776548Y-15512848D02*
X7767024Y-15522371D01*
X7767024Y-15522371D02*
X7757500Y-15541419D01*
X7757500Y-15541419D02*
X7757500Y-15589038D01*
X7757500Y-15589038D02*
X7767024Y-15608086D01*
X7767024Y-15608086D02*
X7776548Y-15617609D01*
X7776548Y-15617609D02*
X7795595Y-15627133D01*
X7795595Y-15627133D02*
X7833691Y-15627133D01*
X7833691Y-15627133D02*
X7852738Y-15617609D01*
X7852738Y-15617609D02*
X7862262Y-15608086D01*
X7862262Y-15608086D02*
X7871786Y-15589038D01*
X7947976Y-15503324D02*
X7947976Y-15541419D01*
X8024167Y-15503324D02*
X8024167Y-15541419D01*
X8319405Y-15779514D02*
X8309881Y-15769990D01*
X8309881Y-15769990D02*
X8290834Y-15741419D01*
X8290834Y-15741419D02*
X8281310Y-15722371D01*
X8281310Y-15722371D02*
X8271786Y-15693800D01*
X8271786Y-15693800D02*
X8262262Y-15646181D01*
X8262262Y-15646181D02*
X8262262Y-15608086D01*
X8262262Y-15608086D02*
X8271786Y-15560467D01*
X8271786Y-15560467D02*
X8281310Y-15531895D01*
X8281310Y-15531895D02*
X8290834Y-15512848D01*
X8290834Y-15512848D02*
X8309881Y-15484276D01*
X8309881Y-15484276D02*
X8319405Y-15474752D01*
X8481310Y-15569990D02*
X8481310Y-15703324D01*
X8433691Y-15493800D02*
X8386072Y-15636657D01*
X8386072Y-15636657D02*
X8509881Y-15636657D01*
X8738453Y-15703324D02*
X8738453Y-15503324D01*
X8824167Y-15703324D02*
X8824167Y-15598562D01*
X8824167Y-15598562D02*
X8814643Y-15579514D01*
X8814643Y-15579514D02*
X8795596Y-15569990D01*
X8795596Y-15569990D02*
X8767024Y-15569990D01*
X8767024Y-15569990D02*
X8747977Y-15579514D01*
X8747977Y-15579514D02*
X8738453Y-15589038D01*
X8947977Y-15703324D02*
X8928929Y-15693800D01*
X8928929Y-15693800D02*
X8919405Y-15684276D01*
X8919405Y-15684276D02*
X8909881Y-15665228D01*
X8909881Y-15665228D02*
X8909881Y-15608086D01*
X8909881Y-15608086D02*
X8919405Y-15589038D01*
X8919405Y-15589038D02*
X8928929Y-15579514D01*
X8928929Y-15579514D02*
X8947977Y-15569990D01*
X8947977Y-15569990D02*
X8976548Y-15569990D01*
X8976548Y-15569990D02*
X8995596Y-15579514D01*
X8995596Y-15579514D02*
X9005119Y-15589038D01*
X9005119Y-15589038D02*
X9014643Y-15608086D01*
X9014643Y-15608086D02*
X9014643Y-15665228D01*
X9014643Y-15665228D02*
X9005119Y-15684276D01*
X9005119Y-15684276D02*
X8995596Y-15693800D01*
X8995596Y-15693800D02*
X8976548Y-15703324D01*
X8976548Y-15703324D02*
X8947977Y-15703324D01*
X9128929Y-15703324D02*
X9109881Y-15693800D01*
X9109881Y-15693800D02*
X9100358Y-15674752D01*
X9100358Y-15674752D02*
X9100358Y-15503324D01*
X9281310Y-15693800D02*
X9262262Y-15703324D01*
X9262262Y-15703324D02*
X9224167Y-15703324D01*
X9224167Y-15703324D02*
X9205119Y-15693800D01*
X9205119Y-15693800D02*
X9195596Y-15674752D01*
X9195596Y-15674752D02*
X9195596Y-15598562D01*
X9195596Y-15598562D02*
X9205119Y-15579514D01*
X9205119Y-15579514D02*
X9224167Y-15569990D01*
X9224167Y-15569990D02*
X9262262Y-15569990D01*
X9262262Y-15569990D02*
X9281310Y-15579514D01*
X9281310Y-15579514D02*
X9290834Y-15598562D01*
X9290834Y-15598562D02*
X9290834Y-15617609D01*
X9290834Y-15617609D02*
X9195596Y-15636657D01*
X9367024Y-15693800D02*
X9386072Y-15703324D01*
X9386072Y-15703324D02*
X9424167Y-15703324D01*
X9424167Y-15703324D02*
X9443215Y-15693800D01*
X9443215Y-15693800D02*
X9452739Y-15674752D01*
X9452739Y-15674752D02*
X9452739Y-15665228D01*
X9452739Y-15665228D02*
X9443215Y-15646181D01*
X9443215Y-15646181D02*
X9424167Y-15636657D01*
X9424167Y-15636657D02*
X9395596Y-15636657D01*
X9395596Y-15636657D02*
X9376548Y-15627133D01*
X9376548Y-15627133D02*
X9367024Y-15608086D01*
X9367024Y-15608086D02*
X9367024Y-15598562D01*
X9367024Y-15598562D02*
X9376548Y-15579514D01*
X9376548Y-15579514D02*
X9395596Y-15569990D01*
X9395596Y-15569990D02*
X9424167Y-15569990D01*
X9424167Y-15569990D02*
X9443215Y-15579514D01*
X9519405Y-15779514D02*
X9528929Y-15769990D01*
X9528929Y-15769990D02*
X9547977Y-15741419D01*
X9547977Y-15741419D02*
X9557500Y-15722371D01*
X9557500Y-15722371D02*
X9567024Y-15693800D01*
X9567024Y-15693800D02*
X9576548Y-15646181D01*
X9576548Y-15646181D02*
X9576548Y-15608086D01*
X9576548Y-15608086D02*
X9567024Y-15560467D01*
X9567024Y-15560467D02*
X9557500Y-15531895D01*
X9557500Y-15531895D02*
X9547977Y-15512848D01*
X9547977Y-15512848D02*
X9528929Y-15484276D01*
X9528929Y-15484276D02*
X9519405Y-15474752D01*
D17*
X4577500Y-15810800D02*
X4757500Y-15990800D01*
X4757500Y-15810800D02*
X4577500Y-15990800D01*
X4667500Y-15810800D02*
X4667500Y-15990800D01*
X4577500Y-15900800D02*
X4757500Y-15900800D01*
D11*
X5109881Y-15993324D02*
X4995595Y-15993324D01*
X5052738Y-15993324D02*
X5052738Y-15793324D01*
X5052738Y-15793324D02*
X5033690Y-15821895D01*
X5033690Y-15821895D02*
X5014643Y-15840943D01*
X5014643Y-15840943D02*
X4995595Y-15850467D01*
X5195595Y-15974276D02*
X5205119Y-15983800D01*
X5205119Y-15983800D02*
X5195595Y-15993324D01*
X5195595Y-15993324D02*
X5186071Y-15983800D01*
X5186071Y-15983800D02*
X5195595Y-15974276D01*
X5195595Y-15974276D02*
X5195595Y-15993324D01*
X5319405Y-15879038D02*
X5300357Y-15869514D01*
X5300357Y-15869514D02*
X5290833Y-15859990D01*
X5290833Y-15859990D02*
X5281310Y-15840943D01*
X5281310Y-15840943D02*
X5281310Y-15831419D01*
X5281310Y-15831419D02*
X5290833Y-15812371D01*
X5290833Y-15812371D02*
X5300357Y-15802848D01*
X5300357Y-15802848D02*
X5319405Y-15793324D01*
X5319405Y-15793324D02*
X5357500Y-15793324D01*
X5357500Y-15793324D02*
X5376548Y-15802848D01*
X5376548Y-15802848D02*
X5386071Y-15812371D01*
X5386071Y-15812371D02*
X5395595Y-15831419D01*
X5395595Y-15831419D02*
X5395595Y-15840943D01*
X5395595Y-15840943D02*
X5386071Y-15859990D01*
X5386071Y-15859990D02*
X5376548Y-15869514D01*
X5376548Y-15869514D02*
X5357500Y-15879038D01*
X5357500Y-15879038D02*
X5319405Y-15879038D01*
X5319405Y-15879038D02*
X5300357Y-15888562D01*
X5300357Y-15888562D02*
X5290833Y-15898086D01*
X5290833Y-15898086D02*
X5281310Y-15917133D01*
X5281310Y-15917133D02*
X5281310Y-15955228D01*
X5281310Y-15955228D02*
X5290833Y-15974276D01*
X5290833Y-15974276D02*
X5300357Y-15983800D01*
X5300357Y-15983800D02*
X5319405Y-15993324D01*
X5319405Y-15993324D02*
X5357500Y-15993324D01*
X5357500Y-15993324D02*
X5376548Y-15983800D01*
X5376548Y-15983800D02*
X5386071Y-15974276D01*
X5386071Y-15974276D02*
X5395595Y-15955228D01*
X5395595Y-15955228D02*
X5395595Y-15917133D01*
X5395595Y-15917133D02*
X5386071Y-15898086D01*
X5386071Y-15898086D02*
X5376548Y-15888562D01*
X5376548Y-15888562D02*
X5357500Y-15879038D01*
X5519405Y-15793324D02*
X5538452Y-15793324D01*
X5538452Y-15793324D02*
X5557500Y-15802848D01*
X5557500Y-15802848D02*
X5567024Y-15812371D01*
X5567024Y-15812371D02*
X5576548Y-15831419D01*
X5576548Y-15831419D02*
X5586071Y-15869514D01*
X5586071Y-15869514D02*
X5586071Y-15917133D01*
X5586071Y-15917133D02*
X5576548Y-15955228D01*
X5576548Y-15955228D02*
X5567024Y-15974276D01*
X5567024Y-15974276D02*
X5557500Y-15983800D01*
X5557500Y-15983800D02*
X5538452Y-15993324D01*
X5538452Y-15993324D02*
X5519405Y-15993324D01*
X5519405Y-15993324D02*
X5500357Y-15983800D01*
X5500357Y-15983800D02*
X5490833Y-15974276D01*
X5490833Y-15974276D02*
X5481310Y-15955228D01*
X5481310Y-15955228D02*
X5471786Y-15917133D01*
X5471786Y-15917133D02*
X5471786Y-15869514D01*
X5471786Y-15869514D02*
X5481310Y-15831419D01*
X5481310Y-15831419D02*
X5490833Y-15812371D01*
X5490833Y-15812371D02*
X5500357Y-15802848D01*
X5500357Y-15802848D02*
X5519405Y-15793324D01*
X5709881Y-15793324D02*
X5728929Y-15793324D01*
X5728929Y-15793324D02*
X5747976Y-15802848D01*
X5747976Y-15802848D02*
X5757500Y-15812371D01*
X5757500Y-15812371D02*
X5767024Y-15831419D01*
X5767024Y-15831419D02*
X5776548Y-15869514D01*
X5776548Y-15869514D02*
X5776548Y-15917133D01*
X5776548Y-15917133D02*
X5767024Y-15955228D01*
X5767024Y-15955228D02*
X5757500Y-15974276D01*
X5757500Y-15974276D02*
X5747976Y-15983800D01*
X5747976Y-15983800D02*
X5728929Y-15993324D01*
X5728929Y-15993324D02*
X5709881Y-15993324D01*
X5709881Y-15993324D02*
X5690833Y-15983800D01*
X5690833Y-15983800D02*
X5681309Y-15974276D01*
X5681309Y-15974276D02*
X5671786Y-15955228D01*
X5671786Y-15955228D02*
X5662262Y-15917133D01*
X5662262Y-15917133D02*
X5662262Y-15869514D01*
X5662262Y-15869514D02*
X5671786Y-15831419D01*
X5671786Y-15831419D02*
X5681309Y-15812371D01*
X5681309Y-15812371D02*
X5690833Y-15802848D01*
X5690833Y-15802848D02*
X5709881Y-15793324D01*
X5862262Y-15993324D02*
X5862262Y-15859990D01*
X5862262Y-15879038D02*
X5871786Y-15869514D01*
X5871786Y-15869514D02*
X5890833Y-15859990D01*
X5890833Y-15859990D02*
X5919405Y-15859990D01*
X5919405Y-15859990D02*
X5938452Y-15869514D01*
X5938452Y-15869514D02*
X5947976Y-15888562D01*
X5947976Y-15888562D02*
X5947976Y-15993324D01*
X5947976Y-15888562D02*
X5957500Y-15869514D01*
X5957500Y-15869514D02*
X5976548Y-15859990D01*
X5976548Y-15859990D02*
X6005119Y-15859990D01*
X6005119Y-15859990D02*
X6024167Y-15869514D01*
X6024167Y-15869514D02*
X6033690Y-15888562D01*
X6033690Y-15888562D02*
X6033690Y-15993324D01*
X6128929Y-15993324D02*
X6128929Y-15859990D01*
X6128929Y-15879038D02*
X6138452Y-15869514D01*
X6138452Y-15869514D02*
X6157500Y-15859990D01*
X6157500Y-15859990D02*
X6186071Y-15859990D01*
X6186071Y-15859990D02*
X6205119Y-15869514D01*
X6205119Y-15869514D02*
X6214643Y-15888562D01*
X6214643Y-15888562D02*
X6214643Y-15993324D01*
X6214643Y-15888562D02*
X6224167Y-15869514D01*
X6224167Y-15869514D02*
X6243214Y-15859990D01*
X6243214Y-15859990D02*
X6271786Y-15859990D01*
X6271786Y-15859990D02*
X6290833Y-15869514D01*
X6290833Y-15869514D02*
X6300357Y-15888562D01*
X6300357Y-15888562D02*
X6300357Y-15993324D01*
X6690833Y-15783800D02*
X6519405Y-16040943D01*
X6947976Y-15793324D02*
X6967024Y-15793324D01*
X6967024Y-15793324D02*
X6986072Y-15802848D01*
X6986072Y-15802848D02*
X6995595Y-15812371D01*
X6995595Y-15812371D02*
X7005119Y-15831419D01*
X7005119Y-15831419D02*
X7014643Y-15869514D01*
X7014643Y-15869514D02*
X7014643Y-15917133D01*
X7014643Y-15917133D02*
X7005119Y-15955228D01*
X7005119Y-15955228D02*
X6995595Y-15974276D01*
X6995595Y-15974276D02*
X6986072Y-15983800D01*
X6986072Y-15983800D02*
X6967024Y-15993324D01*
X6967024Y-15993324D02*
X6947976Y-15993324D01*
X6947976Y-15993324D02*
X6928929Y-15983800D01*
X6928929Y-15983800D02*
X6919405Y-15974276D01*
X6919405Y-15974276D02*
X6909881Y-15955228D01*
X6909881Y-15955228D02*
X6900357Y-15917133D01*
X6900357Y-15917133D02*
X6900357Y-15869514D01*
X6900357Y-15869514D02*
X6909881Y-15831419D01*
X6909881Y-15831419D02*
X6919405Y-15812371D01*
X6919405Y-15812371D02*
X6928929Y-15802848D01*
X6928929Y-15802848D02*
X6947976Y-15793324D01*
X7100357Y-15974276D02*
X7109881Y-15983800D01*
X7109881Y-15983800D02*
X7100357Y-15993324D01*
X7100357Y-15993324D02*
X7090833Y-15983800D01*
X7090833Y-15983800D02*
X7100357Y-15974276D01*
X7100357Y-15974276D02*
X7100357Y-15993324D01*
X7233691Y-15793324D02*
X7252738Y-15793324D01*
X7252738Y-15793324D02*
X7271786Y-15802848D01*
X7271786Y-15802848D02*
X7281310Y-15812371D01*
X7281310Y-15812371D02*
X7290833Y-15831419D01*
X7290833Y-15831419D02*
X7300357Y-15869514D01*
X7300357Y-15869514D02*
X7300357Y-15917133D01*
X7300357Y-15917133D02*
X7290833Y-15955228D01*
X7290833Y-15955228D02*
X7281310Y-15974276D01*
X7281310Y-15974276D02*
X7271786Y-15983800D01*
X7271786Y-15983800D02*
X7252738Y-15993324D01*
X7252738Y-15993324D02*
X7233691Y-15993324D01*
X7233691Y-15993324D02*
X7214643Y-15983800D01*
X7214643Y-15983800D02*
X7205119Y-15974276D01*
X7205119Y-15974276D02*
X7195595Y-15955228D01*
X7195595Y-15955228D02*
X7186072Y-15917133D01*
X7186072Y-15917133D02*
X7186072Y-15869514D01*
X7186072Y-15869514D02*
X7195595Y-15831419D01*
X7195595Y-15831419D02*
X7205119Y-15812371D01*
X7205119Y-15812371D02*
X7214643Y-15802848D01*
X7214643Y-15802848D02*
X7233691Y-15793324D01*
X7367024Y-15793324D02*
X7500357Y-15793324D01*
X7500357Y-15793324D02*
X7414643Y-15993324D01*
X7614643Y-15793324D02*
X7633691Y-15793324D01*
X7633691Y-15793324D02*
X7652738Y-15802848D01*
X7652738Y-15802848D02*
X7662262Y-15812371D01*
X7662262Y-15812371D02*
X7671786Y-15831419D01*
X7671786Y-15831419D02*
X7681310Y-15869514D01*
X7681310Y-15869514D02*
X7681310Y-15917133D01*
X7681310Y-15917133D02*
X7671786Y-15955228D01*
X7671786Y-15955228D02*
X7662262Y-15974276D01*
X7662262Y-15974276D02*
X7652738Y-15983800D01*
X7652738Y-15983800D02*
X7633691Y-15993324D01*
X7633691Y-15993324D02*
X7614643Y-15993324D01*
X7614643Y-15993324D02*
X7595595Y-15983800D01*
X7595595Y-15983800D02*
X7586072Y-15974276D01*
X7586072Y-15974276D02*
X7576548Y-15955228D01*
X7576548Y-15955228D02*
X7567024Y-15917133D01*
X7567024Y-15917133D02*
X7567024Y-15869514D01*
X7567024Y-15869514D02*
X7576548Y-15831419D01*
X7576548Y-15831419D02*
X7586072Y-15812371D01*
X7586072Y-15812371D02*
X7595595Y-15802848D01*
X7595595Y-15802848D02*
X7614643Y-15793324D01*
X7776548Y-15993324D02*
X7814643Y-15993324D01*
X7814643Y-15993324D02*
X7833691Y-15983800D01*
X7833691Y-15983800D02*
X7843214Y-15974276D01*
X7843214Y-15974276D02*
X7862262Y-15945705D01*
X7862262Y-15945705D02*
X7871786Y-15907609D01*
X7871786Y-15907609D02*
X7871786Y-15831419D01*
X7871786Y-15831419D02*
X7862262Y-15812371D01*
X7862262Y-15812371D02*
X7852738Y-15802848D01*
X7852738Y-15802848D02*
X7833691Y-15793324D01*
X7833691Y-15793324D02*
X7795595Y-15793324D01*
X7795595Y-15793324D02*
X7776548Y-15802848D01*
X7776548Y-15802848D02*
X7767024Y-15812371D01*
X7767024Y-15812371D02*
X7757500Y-15831419D01*
X7757500Y-15831419D02*
X7757500Y-15879038D01*
X7757500Y-15879038D02*
X7767024Y-15898086D01*
X7767024Y-15898086D02*
X7776548Y-15907609D01*
X7776548Y-15907609D02*
X7795595Y-15917133D01*
X7795595Y-15917133D02*
X7833691Y-15917133D01*
X7833691Y-15917133D02*
X7852738Y-15907609D01*
X7852738Y-15907609D02*
X7862262Y-15898086D01*
X7862262Y-15898086D02*
X7871786Y-15879038D01*
X7947976Y-15793324D02*
X7947976Y-15831419D01*
X8024167Y-15793324D02*
X8024167Y-15831419D01*
X8319405Y-16069514D02*
X8309881Y-16059990D01*
X8309881Y-16059990D02*
X8290834Y-16031419D01*
X8290834Y-16031419D02*
X8281310Y-16012371D01*
X8281310Y-16012371D02*
X8271786Y-15983800D01*
X8271786Y-15983800D02*
X8262262Y-15936181D01*
X8262262Y-15936181D02*
X8262262Y-15898086D01*
X8262262Y-15898086D02*
X8271786Y-15850467D01*
X8271786Y-15850467D02*
X8281310Y-15821895D01*
X8281310Y-15821895D02*
X8290834Y-15802848D01*
X8290834Y-15802848D02*
X8309881Y-15774276D01*
X8309881Y-15774276D02*
X8319405Y-15764752D01*
X8490834Y-15793324D02*
X8395596Y-15793324D01*
X8395596Y-15793324D02*
X8386072Y-15888562D01*
X8386072Y-15888562D02*
X8395596Y-15879038D01*
X8395596Y-15879038D02*
X8414643Y-15869514D01*
X8414643Y-15869514D02*
X8462262Y-15869514D01*
X8462262Y-15869514D02*
X8481310Y-15879038D01*
X8481310Y-15879038D02*
X8490834Y-15888562D01*
X8490834Y-15888562D02*
X8500357Y-15907609D01*
X8500357Y-15907609D02*
X8500357Y-15955228D01*
X8500357Y-15955228D02*
X8490834Y-15974276D01*
X8490834Y-15974276D02*
X8481310Y-15983800D01*
X8481310Y-15983800D02*
X8462262Y-15993324D01*
X8462262Y-15993324D02*
X8414643Y-15993324D01*
X8414643Y-15993324D02*
X8395596Y-15983800D01*
X8395596Y-15983800D02*
X8386072Y-15974276D01*
X8738453Y-15993324D02*
X8738453Y-15793324D01*
X8824167Y-15993324D02*
X8824167Y-15888562D01*
X8824167Y-15888562D02*
X8814643Y-15869514D01*
X8814643Y-15869514D02*
X8795596Y-15859990D01*
X8795596Y-15859990D02*
X8767024Y-15859990D01*
X8767024Y-15859990D02*
X8747977Y-15869514D01*
X8747977Y-15869514D02*
X8738453Y-15879038D01*
X8947977Y-15993324D02*
X8928929Y-15983800D01*
X8928929Y-15983800D02*
X8919405Y-15974276D01*
X8919405Y-15974276D02*
X8909881Y-15955228D01*
X8909881Y-15955228D02*
X8909881Y-15898086D01*
X8909881Y-15898086D02*
X8919405Y-15879038D01*
X8919405Y-15879038D02*
X8928929Y-15869514D01*
X8928929Y-15869514D02*
X8947977Y-15859990D01*
X8947977Y-15859990D02*
X8976548Y-15859990D01*
X8976548Y-15859990D02*
X8995596Y-15869514D01*
X8995596Y-15869514D02*
X9005119Y-15879038D01*
X9005119Y-15879038D02*
X9014643Y-15898086D01*
X9014643Y-15898086D02*
X9014643Y-15955228D01*
X9014643Y-15955228D02*
X9005119Y-15974276D01*
X9005119Y-15974276D02*
X8995596Y-15983800D01*
X8995596Y-15983800D02*
X8976548Y-15993324D01*
X8976548Y-15993324D02*
X8947977Y-15993324D01*
X9128929Y-15993324D02*
X9109881Y-15983800D01*
X9109881Y-15983800D02*
X9100358Y-15964752D01*
X9100358Y-15964752D02*
X9100358Y-15793324D01*
X9281310Y-15983800D02*
X9262262Y-15993324D01*
X9262262Y-15993324D02*
X9224167Y-15993324D01*
X9224167Y-15993324D02*
X9205119Y-15983800D01*
X9205119Y-15983800D02*
X9195596Y-15964752D01*
X9195596Y-15964752D02*
X9195596Y-15888562D01*
X9195596Y-15888562D02*
X9205119Y-15869514D01*
X9205119Y-15869514D02*
X9224167Y-15859990D01*
X9224167Y-15859990D02*
X9262262Y-15859990D01*
X9262262Y-15859990D02*
X9281310Y-15869514D01*
X9281310Y-15869514D02*
X9290834Y-15888562D01*
X9290834Y-15888562D02*
X9290834Y-15907609D01*
X9290834Y-15907609D02*
X9195596Y-15926657D01*
X9367024Y-15983800D02*
X9386072Y-15993324D01*
X9386072Y-15993324D02*
X9424167Y-15993324D01*
X9424167Y-15993324D02*
X9443215Y-15983800D01*
X9443215Y-15983800D02*
X9452739Y-15964752D01*
X9452739Y-15964752D02*
X9452739Y-15955228D01*
X9452739Y-15955228D02*
X9443215Y-15936181D01*
X9443215Y-15936181D02*
X9424167Y-15926657D01*
X9424167Y-15926657D02*
X9395596Y-15926657D01*
X9395596Y-15926657D02*
X9376548Y-15917133D01*
X9376548Y-15917133D02*
X9367024Y-15898086D01*
X9367024Y-15898086D02*
X9367024Y-15888562D01*
X9367024Y-15888562D02*
X9376548Y-15869514D01*
X9376548Y-15869514D02*
X9395596Y-15859990D01*
X9395596Y-15859990D02*
X9424167Y-15859990D01*
X9424167Y-15859990D02*
X9443215Y-15869514D01*
X9519405Y-16069514D02*
X9528929Y-16059990D01*
X9528929Y-16059990D02*
X9547977Y-16031419D01*
X9547977Y-16031419D02*
X9557500Y-16012371D01*
X9557500Y-16012371D02*
X9567024Y-15983800D01*
X9567024Y-15983800D02*
X9576548Y-15936181D01*
X9576548Y-15936181D02*
X9576548Y-15898086D01*
X9576548Y-15898086D02*
X9567024Y-15850467D01*
X9567024Y-15850467D02*
X9557500Y-15821895D01*
X9557500Y-15821895D02*
X9547977Y-15802848D01*
X9547977Y-15802848D02*
X9528929Y-15774276D01*
X9528929Y-15774276D02*
X9519405Y-15764752D01*
X4557500Y-16100800D02*
X4757500Y-16300800D01*
X4757500Y-16100800D02*
X4557500Y-16300800D01*
X4728211Y-16271511D02*
X4728211Y-16130089D01*
X4586789Y-16130089D01*
X4586789Y-16271511D01*
X4728211Y-16271511D01*
X4995595Y-16112371D02*
X5005119Y-16102848D01*
X5005119Y-16102848D02*
X5024167Y-16093324D01*
X5024167Y-16093324D02*
X5071786Y-16093324D01*
X5071786Y-16093324D02*
X5090833Y-16102848D01*
X5090833Y-16102848D02*
X5100357Y-16112371D01*
X5100357Y-16112371D02*
X5109881Y-16131419D01*
X5109881Y-16131419D02*
X5109881Y-16150467D01*
X5109881Y-16150467D02*
X5100357Y-16179038D01*
X5100357Y-16179038D02*
X4986071Y-16293324D01*
X4986071Y-16293324D02*
X5109881Y-16293324D01*
X5195595Y-16274276D02*
X5205119Y-16283800D01*
X5205119Y-16283800D02*
X5195595Y-16293324D01*
X5195595Y-16293324D02*
X5186071Y-16283800D01*
X5186071Y-16283800D02*
X5195595Y-16274276D01*
X5195595Y-16274276D02*
X5195595Y-16293324D01*
X5328929Y-16093324D02*
X5347976Y-16093324D01*
X5347976Y-16093324D02*
X5367024Y-16102848D01*
X5367024Y-16102848D02*
X5376548Y-16112371D01*
X5376548Y-16112371D02*
X5386071Y-16131419D01*
X5386071Y-16131419D02*
X5395595Y-16169514D01*
X5395595Y-16169514D02*
X5395595Y-16217133D01*
X5395595Y-16217133D02*
X5386071Y-16255228D01*
X5386071Y-16255228D02*
X5376548Y-16274276D01*
X5376548Y-16274276D02*
X5367024Y-16283800D01*
X5367024Y-16283800D02*
X5347976Y-16293324D01*
X5347976Y-16293324D02*
X5328929Y-16293324D01*
X5328929Y-16293324D02*
X5309881Y-16283800D01*
X5309881Y-16283800D02*
X5300357Y-16274276D01*
X5300357Y-16274276D02*
X5290833Y-16255228D01*
X5290833Y-16255228D02*
X5281310Y-16217133D01*
X5281310Y-16217133D02*
X5281310Y-16169514D01*
X5281310Y-16169514D02*
X5290833Y-16131419D01*
X5290833Y-16131419D02*
X5300357Y-16112371D01*
X5300357Y-16112371D02*
X5309881Y-16102848D01*
X5309881Y-16102848D02*
X5328929Y-16093324D01*
X5519405Y-16093324D02*
X5538452Y-16093324D01*
X5538452Y-16093324D02*
X5557500Y-16102848D01*
X5557500Y-16102848D02*
X5567024Y-16112371D01*
X5567024Y-16112371D02*
X5576548Y-16131419D01*
X5576548Y-16131419D02*
X5586071Y-16169514D01*
X5586071Y-16169514D02*
X5586071Y-16217133D01*
X5586071Y-16217133D02*
X5576548Y-16255228D01*
X5576548Y-16255228D02*
X5567024Y-16274276D01*
X5567024Y-16274276D02*
X5557500Y-16283800D01*
X5557500Y-16283800D02*
X5538452Y-16293324D01*
X5538452Y-16293324D02*
X5519405Y-16293324D01*
X5519405Y-16293324D02*
X5500357Y-16283800D01*
X5500357Y-16283800D02*
X5490833Y-16274276D01*
X5490833Y-16274276D02*
X5481310Y-16255228D01*
X5481310Y-16255228D02*
X5471786Y-16217133D01*
X5471786Y-16217133D02*
X5471786Y-16169514D01*
X5471786Y-16169514D02*
X5481310Y-16131419D01*
X5481310Y-16131419D02*
X5490833Y-16112371D01*
X5490833Y-16112371D02*
X5500357Y-16102848D01*
X5500357Y-16102848D02*
X5519405Y-16093324D01*
X5709881Y-16093324D02*
X5728929Y-16093324D01*
X5728929Y-16093324D02*
X5747976Y-16102848D01*
X5747976Y-16102848D02*
X5757500Y-16112371D01*
X5757500Y-16112371D02*
X5767024Y-16131419D01*
X5767024Y-16131419D02*
X5776548Y-16169514D01*
X5776548Y-16169514D02*
X5776548Y-16217133D01*
X5776548Y-16217133D02*
X5767024Y-16255228D01*
X5767024Y-16255228D02*
X5757500Y-16274276D01*
X5757500Y-16274276D02*
X5747976Y-16283800D01*
X5747976Y-16283800D02*
X5728929Y-16293324D01*
X5728929Y-16293324D02*
X5709881Y-16293324D01*
X5709881Y-16293324D02*
X5690833Y-16283800D01*
X5690833Y-16283800D02*
X5681309Y-16274276D01*
X5681309Y-16274276D02*
X5671786Y-16255228D01*
X5671786Y-16255228D02*
X5662262Y-16217133D01*
X5662262Y-16217133D02*
X5662262Y-16169514D01*
X5662262Y-16169514D02*
X5671786Y-16131419D01*
X5671786Y-16131419D02*
X5681309Y-16112371D01*
X5681309Y-16112371D02*
X5690833Y-16102848D01*
X5690833Y-16102848D02*
X5709881Y-16093324D01*
X5862262Y-16293324D02*
X5862262Y-16159990D01*
X5862262Y-16179038D02*
X5871786Y-16169514D01*
X5871786Y-16169514D02*
X5890833Y-16159990D01*
X5890833Y-16159990D02*
X5919405Y-16159990D01*
X5919405Y-16159990D02*
X5938452Y-16169514D01*
X5938452Y-16169514D02*
X5947976Y-16188562D01*
X5947976Y-16188562D02*
X5947976Y-16293324D01*
X5947976Y-16188562D02*
X5957500Y-16169514D01*
X5957500Y-16169514D02*
X5976548Y-16159990D01*
X5976548Y-16159990D02*
X6005119Y-16159990D01*
X6005119Y-16159990D02*
X6024167Y-16169514D01*
X6024167Y-16169514D02*
X6033690Y-16188562D01*
X6033690Y-16188562D02*
X6033690Y-16293324D01*
X6128929Y-16293324D02*
X6128929Y-16159990D01*
X6128929Y-16179038D02*
X6138452Y-16169514D01*
X6138452Y-16169514D02*
X6157500Y-16159990D01*
X6157500Y-16159990D02*
X6186071Y-16159990D01*
X6186071Y-16159990D02*
X6205119Y-16169514D01*
X6205119Y-16169514D02*
X6214643Y-16188562D01*
X6214643Y-16188562D02*
X6214643Y-16293324D01*
X6214643Y-16188562D02*
X6224167Y-16169514D01*
X6224167Y-16169514D02*
X6243214Y-16159990D01*
X6243214Y-16159990D02*
X6271786Y-16159990D01*
X6271786Y-16159990D02*
X6290833Y-16169514D01*
X6290833Y-16169514D02*
X6300357Y-16188562D01*
X6300357Y-16188562D02*
X6300357Y-16293324D01*
X6690833Y-16083800D02*
X6519405Y-16340943D01*
X6947976Y-16093324D02*
X6967024Y-16093324D01*
X6967024Y-16093324D02*
X6986072Y-16102848D01*
X6986072Y-16102848D02*
X6995595Y-16112371D01*
X6995595Y-16112371D02*
X7005119Y-16131419D01*
X7005119Y-16131419D02*
X7014643Y-16169514D01*
X7014643Y-16169514D02*
X7014643Y-16217133D01*
X7014643Y-16217133D02*
X7005119Y-16255228D01*
X7005119Y-16255228D02*
X6995595Y-16274276D01*
X6995595Y-16274276D02*
X6986072Y-16283800D01*
X6986072Y-16283800D02*
X6967024Y-16293324D01*
X6967024Y-16293324D02*
X6947976Y-16293324D01*
X6947976Y-16293324D02*
X6928929Y-16283800D01*
X6928929Y-16283800D02*
X6919405Y-16274276D01*
X6919405Y-16274276D02*
X6909881Y-16255228D01*
X6909881Y-16255228D02*
X6900357Y-16217133D01*
X6900357Y-16217133D02*
X6900357Y-16169514D01*
X6900357Y-16169514D02*
X6909881Y-16131419D01*
X6909881Y-16131419D02*
X6919405Y-16112371D01*
X6919405Y-16112371D02*
X6928929Y-16102848D01*
X6928929Y-16102848D02*
X6947976Y-16093324D01*
X7100357Y-16274276D02*
X7109881Y-16283800D01*
X7109881Y-16283800D02*
X7100357Y-16293324D01*
X7100357Y-16293324D02*
X7090833Y-16283800D01*
X7090833Y-16283800D02*
X7100357Y-16274276D01*
X7100357Y-16274276D02*
X7100357Y-16293324D01*
X7233691Y-16093324D02*
X7252738Y-16093324D01*
X7252738Y-16093324D02*
X7271786Y-16102848D01*
X7271786Y-16102848D02*
X7281310Y-16112371D01*
X7281310Y-16112371D02*
X7290833Y-16131419D01*
X7290833Y-16131419D02*
X7300357Y-16169514D01*
X7300357Y-16169514D02*
X7300357Y-16217133D01*
X7300357Y-16217133D02*
X7290833Y-16255228D01*
X7290833Y-16255228D02*
X7281310Y-16274276D01*
X7281310Y-16274276D02*
X7271786Y-16283800D01*
X7271786Y-16283800D02*
X7252738Y-16293324D01*
X7252738Y-16293324D02*
X7233691Y-16293324D01*
X7233691Y-16293324D02*
X7214643Y-16283800D01*
X7214643Y-16283800D02*
X7205119Y-16274276D01*
X7205119Y-16274276D02*
X7195595Y-16255228D01*
X7195595Y-16255228D02*
X7186072Y-16217133D01*
X7186072Y-16217133D02*
X7186072Y-16169514D01*
X7186072Y-16169514D02*
X7195595Y-16131419D01*
X7195595Y-16131419D02*
X7205119Y-16112371D01*
X7205119Y-16112371D02*
X7214643Y-16102848D01*
X7214643Y-16102848D02*
X7233691Y-16093324D01*
X7367024Y-16093324D02*
X7500357Y-16093324D01*
X7500357Y-16093324D02*
X7414643Y-16293324D01*
X7605119Y-16179038D02*
X7586072Y-16169514D01*
X7586072Y-16169514D02*
X7576548Y-16159990D01*
X7576548Y-16159990D02*
X7567024Y-16140943D01*
X7567024Y-16140943D02*
X7567024Y-16131419D01*
X7567024Y-16131419D02*
X7576548Y-16112371D01*
X7576548Y-16112371D02*
X7586072Y-16102848D01*
X7586072Y-16102848D02*
X7605119Y-16093324D01*
X7605119Y-16093324D02*
X7643214Y-16093324D01*
X7643214Y-16093324D02*
X7662262Y-16102848D01*
X7662262Y-16102848D02*
X7671786Y-16112371D01*
X7671786Y-16112371D02*
X7681310Y-16131419D01*
X7681310Y-16131419D02*
X7681310Y-16140943D01*
X7681310Y-16140943D02*
X7671786Y-16159990D01*
X7671786Y-16159990D02*
X7662262Y-16169514D01*
X7662262Y-16169514D02*
X7643214Y-16179038D01*
X7643214Y-16179038D02*
X7605119Y-16179038D01*
X7605119Y-16179038D02*
X7586072Y-16188562D01*
X7586072Y-16188562D02*
X7576548Y-16198086D01*
X7576548Y-16198086D02*
X7567024Y-16217133D01*
X7567024Y-16217133D02*
X7567024Y-16255228D01*
X7567024Y-16255228D02*
X7576548Y-16274276D01*
X7576548Y-16274276D02*
X7586072Y-16283800D01*
X7586072Y-16283800D02*
X7605119Y-16293324D01*
X7605119Y-16293324D02*
X7643214Y-16293324D01*
X7643214Y-16293324D02*
X7662262Y-16283800D01*
X7662262Y-16283800D02*
X7671786Y-16274276D01*
X7671786Y-16274276D02*
X7681310Y-16255228D01*
X7681310Y-16255228D02*
X7681310Y-16217133D01*
X7681310Y-16217133D02*
X7671786Y-16198086D01*
X7671786Y-16198086D02*
X7662262Y-16188562D01*
X7662262Y-16188562D02*
X7643214Y-16179038D01*
X7747976Y-16093324D02*
X7881310Y-16093324D01*
X7881310Y-16093324D02*
X7795595Y-16293324D01*
X7947976Y-16093324D02*
X7947976Y-16131419D01*
X8024167Y-16093324D02*
X8024167Y-16131419D01*
X8319405Y-16369514D02*
X8309881Y-16359990D01*
X8309881Y-16359990D02*
X8290834Y-16331419D01*
X8290834Y-16331419D02*
X8281310Y-16312371D01*
X8281310Y-16312371D02*
X8271786Y-16283800D01*
X8271786Y-16283800D02*
X8262262Y-16236181D01*
X8262262Y-16236181D02*
X8262262Y-16198086D01*
X8262262Y-16198086D02*
X8271786Y-16150467D01*
X8271786Y-16150467D02*
X8281310Y-16121895D01*
X8281310Y-16121895D02*
X8290834Y-16102848D01*
X8290834Y-16102848D02*
X8309881Y-16074276D01*
X8309881Y-16074276D02*
X8319405Y-16064752D01*
X8500357Y-16293324D02*
X8386072Y-16293324D01*
X8443215Y-16293324D02*
X8443215Y-16093324D01*
X8443215Y-16093324D02*
X8424167Y-16121895D01*
X8424167Y-16121895D02*
X8405119Y-16140943D01*
X8405119Y-16140943D02*
X8386072Y-16150467D01*
X8671786Y-16093324D02*
X8633691Y-16093324D01*
X8633691Y-16093324D02*
X8614643Y-16102848D01*
X8614643Y-16102848D02*
X8605119Y-16112371D01*
X8605119Y-16112371D02*
X8586072Y-16140943D01*
X8586072Y-16140943D02*
X8576548Y-16179038D01*
X8576548Y-16179038D02*
X8576548Y-16255228D01*
X8576548Y-16255228D02*
X8586072Y-16274276D01*
X8586072Y-16274276D02*
X8595596Y-16283800D01*
X8595596Y-16283800D02*
X8614643Y-16293324D01*
X8614643Y-16293324D02*
X8652738Y-16293324D01*
X8652738Y-16293324D02*
X8671786Y-16283800D01*
X8671786Y-16283800D02*
X8681310Y-16274276D01*
X8681310Y-16274276D02*
X8690834Y-16255228D01*
X8690834Y-16255228D02*
X8690834Y-16207609D01*
X8690834Y-16207609D02*
X8681310Y-16188562D01*
X8681310Y-16188562D02*
X8671786Y-16179038D01*
X8671786Y-16179038D02*
X8652738Y-16169514D01*
X8652738Y-16169514D02*
X8614643Y-16169514D01*
X8614643Y-16169514D02*
X8595596Y-16179038D01*
X8595596Y-16179038D02*
X8586072Y-16188562D01*
X8586072Y-16188562D02*
X8576548Y-16207609D01*
X8928929Y-16293324D02*
X8928929Y-16093324D01*
X9014643Y-16293324D02*
X9014643Y-16188562D01*
X9014643Y-16188562D02*
X9005119Y-16169514D01*
X9005119Y-16169514D02*
X8986072Y-16159990D01*
X8986072Y-16159990D02*
X8957500Y-16159990D01*
X8957500Y-16159990D02*
X8938453Y-16169514D01*
X8938453Y-16169514D02*
X8928929Y-16179038D01*
X9138453Y-16293324D02*
X9119405Y-16283800D01*
X9119405Y-16283800D02*
X9109881Y-16274276D01*
X9109881Y-16274276D02*
X9100358Y-16255228D01*
X9100358Y-16255228D02*
X9100358Y-16198086D01*
X9100358Y-16198086D02*
X9109881Y-16179038D01*
X9109881Y-16179038D02*
X9119405Y-16169514D01*
X9119405Y-16169514D02*
X9138453Y-16159990D01*
X9138453Y-16159990D02*
X9167024Y-16159990D01*
X9167024Y-16159990D02*
X9186072Y-16169514D01*
X9186072Y-16169514D02*
X9195596Y-16179038D01*
X9195596Y-16179038D02*
X9205119Y-16198086D01*
X9205119Y-16198086D02*
X9205119Y-16255228D01*
X9205119Y-16255228D02*
X9195596Y-16274276D01*
X9195596Y-16274276D02*
X9186072Y-16283800D01*
X9186072Y-16283800D02*
X9167024Y-16293324D01*
X9167024Y-16293324D02*
X9138453Y-16293324D01*
X9319405Y-16293324D02*
X9300358Y-16283800D01*
X9300358Y-16283800D02*
X9290834Y-16264752D01*
X9290834Y-16264752D02*
X9290834Y-16093324D01*
X9471786Y-16283800D02*
X9452739Y-16293324D01*
X9452739Y-16293324D02*
X9414643Y-16293324D01*
X9414643Y-16293324D02*
X9395596Y-16283800D01*
X9395596Y-16283800D02*
X9386072Y-16264752D01*
X9386072Y-16264752D02*
X9386072Y-16188562D01*
X9386072Y-16188562D02*
X9395596Y-16169514D01*
X9395596Y-16169514D02*
X9414643Y-16159990D01*
X9414643Y-16159990D02*
X9452739Y-16159990D01*
X9452739Y-16159990D02*
X9471786Y-16169514D01*
X9471786Y-16169514D02*
X9481310Y-16188562D01*
X9481310Y-16188562D02*
X9481310Y-16207609D01*
X9481310Y-16207609D02*
X9386072Y-16226657D01*
X9557500Y-16283800D02*
X9576548Y-16293324D01*
X9576548Y-16293324D02*
X9614643Y-16293324D01*
X9614643Y-16293324D02*
X9633691Y-16283800D01*
X9633691Y-16283800D02*
X9643215Y-16264752D01*
X9643215Y-16264752D02*
X9643215Y-16255228D01*
X9643215Y-16255228D02*
X9633691Y-16236181D01*
X9633691Y-16236181D02*
X9614643Y-16226657D01*
X9614643Y-16226657D02*
X9586072Y-16226657D01*
X9586072Y-16226657D02*
X9567024Y-16217133D01*
X9567024Y-16217133D02*
X9557500Y-16198086D01*
X9557500Y-16198086D02*
X9557500Y-16188562D01*
X9557500Y-16188562D02*
X9567024Y-16169514D01*
X9567024Y-16169514D02*
X9586072Y-16159990D01*
X9586072Y-16159990D02*
X9614643Y-16159990D01*
X9614643Y-16159990D02*
X9633691Y-16169514D01*
X9709881Y-16369514D02*
X9719405Y-16359990D01*
X9719405Y-16359990D02*
X9738453Y-16331419D01*
X9738453Y-16331419D02*
X9747977Y-16312371D01*
X9747977Y-16312371D02*
X9757500Y-16283800D01*
X9757500Y-16283800D02*
X9767024Y-16236181D01*
X9767024Y-16236181D02*
X9767024Y-16198086D01*
X9767024Y-16198086D02*
X9757500Y-16150467D01*
X9757500Y-16150467D02*
X9747977Y-16121895D01*
X9747977Y-16121895D02*
X9738453Y-16102848D01*
X9738453Y-16102848D02*
X9719405Y-16074276D01*
X9719405Y-16074276D02*
X9709881Y-16064752D01*
X4557500Y-16420800D02*
X4757500Y-16620800D01*
X4757500Y-16420800D02*
X4557500Y-16620800D01*
X4657500Y-16620800D02*
X4757500Y-16520800D01*
X4657500Y-16420800D01*
X4557500Y-16520800D01*
X4657500Y-16620800D01*
X5090833Y-16479990D02*
X5090833Y-16613324D01*
X5043214Y-16403800D02*
X4995595Y-16546657D01*
X4995595Y-16546657D02*
X5119405Y-16546657D01*
X5195595Y-16594276D02*
X5205119Y-16603800D01*
X5205119Y-16603800D02*
X5195595Y-16613324D01*
X5195595Y-16613324D02*
X5186071Y-16603800D01*
X5186071Y-16603800D02*
X5195595Y-16594276D01*
X5195595Y-16594276D02*
X5195595Y-16613324D01*
X5328929Y-16413324D02*
X5347976Y-16413324D01*
X5347976Y-16413324D02*
X5367024Y-16422848D01*
X5367024Y-16422848D02*
X5376548Y-16432371D01*
X5376548Y-16432371D02*
X5386071Y-16451419D01*
X5386071Y-16451419D02*
X5395595Y-16489514D01*
X5395595Y-16489514D02*
X5395595Y-16537133D01*
X5395595Y-16537133D02*
X5386071Y-16575228D01*
X5386071Y-16575228D02*
X5376548Y-16594276D01*
X5376548Y-16594276D02*
X5367024Y-16603800D01*
X5367024Y-16603800D02*
X5347976Y-16613324D01*
X5347976Y-16613324D02*
X5328929Y-16613324D01*
X5328929Y-16613324D02*
X5309881Y-16603800D01*
X5309881Y-16603800D02*
X5300357Y-16594276D01*
X5300357Y-16594276D02*
X5290833Y-16575228D01*
X5290833Y-16575228D02*
X5281310Y-16537133D01*
X5281310Y-16537133D02*
X5281310Y-16489514D01*
X5281310Y-16489514D02*
X5290833Y-16451419D01*
X5290833Y-16451419D02*
X5300357Y-16432371D01*
X5300357Y-16432371D02*
X5309881Y-16422848D01*
X5309881Y-16422848D02*
X5328929Y-16413324D01*
X5519405Y-16413324D02*
X5538452Y-16413324D01*
X5538452Y-16413324D02*
X5557500Y-16422848D01*
X5557500Y-16422848D02*
X5567024Y-16432371D01*
X5567024Y-16432371D02*
X5576548Y-16451419D01*
X5576548Y-16451419D02*
X5586071Y-16489514D01*
X5586071Y-16489514D02*
X5586071Y-16537133D01*
X5586071Y-16537133D02*
X5576548Y-16575228D01*
X5576548Y-16575228D02*
X5567024Y-16594276D01*
X5567024Y-16594276D02*
X5557500Y-16603800D01*
X5557500Y-16603800D02*
X5538452Y-16613324D01*
X5538452Y-16613324D02*
X5519405Y-16613324D01*
X5519405Y-16613324D02*
X5500357Y-16603800D01*
X5500357Y-16603800D02*
X5490833Y-16594276D01*
X5490833Y-16594276D02*
X5481310Y-16575228D01*
X5481310Y-16575228D02*
X5471786Y-16537133D01*
X5471786Y-16537133D02*
X5471786Y-16489514D01*
X5471786Y-16489514D02*
X5481310Y-16451419D01*
X5481310Y-16451419D02*
X5490833Y-16432371D01*
X5490833Y-16432371D02*
X5500357Y-16422848D01*
X5500357Y-16422848D02*
X5519405Y-16413324D01*
X5709881Y-16413324D02*
X5728929Y-16413324D01*
X5728929Y-16413324D02*
X5747976Y-16422848D01*
X5747976Y-16422848D02*
X5757500Y-16432371D01*
X5757500Y-16432371D02*
X5767024Y-16451419D01*
X5767024Y-16451419D02*
X5776548Y-16489514D01*
X5776548Y-16489514D02*
X5776548Y-16537133D01*
X5776548Y-16537133D02*
X5767024Y-16575228D01*
X5767024Y-16575228D02*
X5757500Y-16594276D01*
X5757500Y-16594276D02*
X5747976Y-16603800D01*
X5747976Y-16603800D02*
X5728929Y-16613324D01*
X5728929Y-16613324D02*
X5709881Y-16613324D01*
X5709881Y-16613324D02*
X5690833Y-16603800D01*
X5690833Y-16603800D02*
X5681309Y-16594276D01*
X5681309Y-16594276D02*
X5671786Y-16575228D01*
X5671786Y-16575228D02*
X5662262Y-16537133D01*
X5662262Y-16537133D02*
X5662262Y-16489514D01*
X5662262Y-16489514D02*
X5671786Y-16451419D01*
X5671786Y-16451419D02*
X5681309Y-16432371D01*
X5681309Y-16432371D02*
X5690833Y-16422848D01*
X5690833Y-16422848D02*
X5709881Y-16413324D01*
X5862262Y-16613324D02*
X5862262Y-16479990D01*
X5862262Y-16499038D02*
X5871786Y-16489514D01*
X5871786Y-16489514D02*
X5890833Y-16479990D01*
X5890833Y-16479990D02*
X5919405Y-16479990D01*
X5919405Y-16479990D02*
X5938452Y-16489514D01*
X5938452Y-16489514D02*
X5947976Y-16508562D01*
X5947976Y-16508562D02*
X5947976Y-16613324D01*
X5947976Y-16508562D02*
X5957500Y-16489514D01*
X5957500Y-16489514D02*
X5976548Y-16479990D01*
X5976548Y-16479990D02*
X6005119Y-16479990D01*
X6005119Y-16479990D02*
X6024167Y-16489514D01*
X6024167Y-16489514D02*
X6033690Y-16508562D01*
X6033690Y-16508562D02*
X6033690Y-16613324D01*
X6128929Y-16613324D02*
X6128929Y-16479990D01*
X6128929Y-16499038D02*
X6138452Y-16489514D01*
X6138452Y-16489514D02*
X6157500Y-16479990D01*
X6157500Y-16479990D02*
X6186071Y-16479990D01*
X6186071Y-16479990D02*
X6205119Y-16489514D01*
X6205119Y-16489514D02*
X6214643Y-16508562D01*
X6214643Y-16508562D02*
X6214643Y-16613324D01*
X6214643Y-16508562D02*
X6224167Y-16489514D01*
X6224167Y-16489514D02*
X6243214Y-16479990D01*
X6243214Y-16479990D02*
X6271786Y-16479990D01*
X6271786Y-16479990D02*
X6290833Y-16489514D01*
X6290833Y-16489514D02*
X6300357Y-16508562D01*
X6300357Y-16508562D02*
X6300357Y-16613324D01*
X6690833Y-16403800D02*
X6519405Y-16660943D01*
X6947976Y-16413324D02*
X6967024Y-16413324D01*
X6967024Y-16413324D02*
X6986072Y-16422848D01*
X6986072Y-16422848D02*
X6995595Y-16432371D01*
X6995595Y-16432371D02*
X7005119Y-16451419D01*
X7005119Y-16451419D02*
X7014643Y-16489514D01*
X7014643Y-16489514D02*
X7014643Y-16537133D01*
X7014643Y-16537133D02*
X7005119Y-16575228D01*
X7005119Y-16575228D02*
X6995595Y-16594276D01*
X6995595Y-16594276D02*
X6986072Y-16603800D01*
X6986072Y-16603800D02*
X6967024Y-16613324D01*
X6967024Y-16613324D02*
X6947976Y-16613324D01*
X6947976Y-16613324D02*
X6928929Y-16603800D01*
X6928929Y-16603800D02*
X6919405Y-16594276D01*
X6919405Y-16594276D02*
X6909881Y-16575228D01*
X6909881Y-16575228D02*
X6900357Y-16537133D01*
X6900357Y-16537133D02*
X6900357Y-16489514D01*
X6900357Y-16489514D02*
X6909881Y-16451419D01*
X6909881Y-16451419D02*
X6919405Y-16432371D01*
X6919405Y-16432371D02*
X6928929Y-16422848D01*
X6928929Y-16422848D02*
X6947976Y-16413324D01*
X7100357Y-16594276D02*
X7109881Y-16603800D01*
X7109881Y-16603800D02*
X7100357Y-16613324D01*
X7100357Y-16613324D02*
X7090833Y-16603800D01*
X7090833Y-16603800D02*
X7100357Y-16594276D01*
X7100357Y-16594276D02*
X7100357Y-16613324D01*
X7300357Y-16613324D02*
X7186072Y-16613324D01*
X7243214Y-16613324D02*
X7243214Y-16413324D01*
X7243214Y-16413324D02*
X7224167Y-16441895D01*
X7224167Y-16441895D02*
X7205119Y-16460943D01*
X7205119Y-16460943D02*
X7186072Y-16470467D01*
X7481310Y-16413324D02*
X7386072Y-16413324D01*
X7386072Y-16413324D02*
X7376548Y-16508562D01*
X7376548Y-16508562D02*
X7386072Y-16499038D01*
X7386072Y-16499038D02*
X7405119Y-16489514D01*
X7405119Y-16489514D02*
X7452738Y-16489514D01*
X7452738Y-16489514D02*
X7471786Y-16499038D01*
X7471786Y-16499038D02*
X7481310Y-16508562D01*
X7481310Y-16508562D02*
X7490833Y-16527609D01*
X7490833Y-16527609D02*
X7490833Y-16575228D01*
X7490833Y-16575228D02*
X7481310Y-16594276D01*
X7481310Y-16594276D02*
X7471786Y-16603800D01*
X7471786Y-16603800D02*
X7452738Y-16613324D01*
X7452738Y-16613324D02*
X7405119Y-16613324D01*
X7405119Y-16613324D02*
X7386072Y-16603800D01*
X7386072Y-16603800D02*
X7376548Y-16594276D01*
X7557500Y-16413324D02*
X7690833Y-16413324D01*
X7690833Y-16413324D02*
X7605119Y-16613324D01*
X7862262Y-16413324D02*
X7767024Y-16413324D01*
X7767024Y-16413324D02*
X7757500Y-16508562D01*
X7757500Y-16508562D02*
X7767024Y-16499038D01*
X7767024Y-16499038D02*
X7786072Y-16489514D01*
X7786072Y-16489514D02*
X7833691Y-16489514D01*
X7833691Y-16489514D02*
X7852738Y-16499038D01*
X7852738Y-16499038D02*
X7862262Y-16508562D01*
X7862262Y-16508562D02*
X7871786Y-16527609D01*
X7871786Y-16527609D02*
X7871786Y-16575228D01*
X7871786Y-16575228D02*
X7862262Y-16594276D01*
X7862262Y-16594276D02*
X7852738Y-16603800D01*
X7852738Y-16603800D02*
X7833691Y-16613324D01*
X7833691Y-16613324D02*
X7786072Y-16613324D01*
X7786072Y-16613324D02*
X7767024Y-16603800D01*
X7767024Y-16603800D02*
X7757500Y-16594276D01*
X7947976Y-16413324D02*
X7947976Y-16451419D01*
X8024167Y-16413324D02*
X8024167Y-16451419D01*
X8319405Y-16689514D02*
X8309881Y-16679990D01*
X8309881Y-16679990D02*
X8290834Y-16651419D01*
X8290834Y-16651419D02*
X8281310Y-16632371D01*
X8281310Y-16632371D02*
X8271786Y-16603800D01*
X8271786Y-16603800D02*
X8262262Y-16556181D01*
X8262262Y-16556181D02*
X8262262Y-16518086D01*
X8262262Y-16518086D02*
X8271786Y-16470467D01*
X8271786Y-16470467D02*
X8281310Y-16441895D01*
X8281310Y-16441895D02*
X8290834Y-16422848D01*
X8290834Y-16422848D02*
X8309881Y-16394276D01*
X8309881Y-16394276D02*
X8319405Y-16384752D01*
X8386072Y-16432371D02*
X8395596Y-16422848D01*
X8395596Y-16422848D02*
X8414643Y-16413324D01*
X8414643Y-16413324D02*
X8462262Y-16413324D01*
X8462262Y-16413324D02*
X8481310Y-16422848D01*
X8481310Y-16422848D02*
X8490834Y-16432371D01*
X8490834Y-16432371D02*
X8500357Y-16451419D01*
X8500357Y-16451419D02*
X8500357Y-16470467D01*
X8500357Y-16470467D02*
X8490834Y-16499038D01*
X8490834Y-16499038D02*
X8376548Y-16613324D01*
X8376548Y-16613324D02*
X8500357Y-16613324D01*
X8738453Y-16613324D02*
X8738453Y-16413324D01*
X8824167Y-16613324D02*
X8824167Y-16508562D01*
X8824167Y-16508562D02*
X8814643Y-16489514D01*
X8814643Y-16489514D02*
X8795596Y-16479990D01*
X8795596Y-16479990D02*
X8767024Y-16479990D01*
X8767024Y-16479990D02*
X8747977Y-16489514D01*
X8747977Y-16489514D02*
X8738453Y-16499038D01*
X8947977Y-16613324D02*
X8928929Y-16603800D01*
X8928929Y-16603800D02*
X8919405Y-16594276D01*
X8919405Y-16594276D02*
X8909881Y-16575228D01*
X8909881Y-16575228D02*
X8909881Y-16518086D01*
X8909881Y-16518086D02*
X8919405Y-16499038D01*
X8919405Y-16499038D02*
X8928929Y-16489514D01*
X8928929Y-16489514D02*
X8947977Y-16479990D01*
X8947977Y-16479990D02*
X8976548Y-16479990D01*
X8976548Y-16479990D02*
X8995596Y-16489514D01*
X8995596Y-16489514D02*
X9005119Y-16499038D01*
X9005119Y-16499038D02*
X9014643Y-16518086D01*
X9014643Y-16518086D02*
X9014643Y-16575228D01*
X9014643Y-16575228D02*
X9005119Y-16594276D01*
X9005119Y-16594276D02*
X8995596Y-16603800D01*
X8995596Y-16603800D02*
X8976548Y-16613324D01*
X8976548Y-16613324D02*
X8947977Y-16613324D01*
X9128929Y-16613324D02*
X9109881Y-16603800D01*
X9109881Y-16603800D02*
X9100358Y-16584752D01*
X9100358Y-16584752D02*
X9100358Y-16413324D01*
X9281310Y-16603800D02*
X9262262Y-16613324D01*
X9262262Y-16613324D02*
X9224167Y-16613324D01*
X9224167Y-16613324D02*
X9205119Y-16603800D01*
X9205119Y-16603800D02*
X9195596Y-16584752D01*
X9195596Y-16584752D02*
X9195596Y-16508562D01*
X9195596Y-16508562D02*
X9205119Y-16489514D01*
X9205119Y-16489514D02*
X9224167Y-16479990D01*
X9224167Y-16479990D02*
X9262262Y-16479990D01*
X9262262Y-16479990D02*
X9281310Y-16489514D01*
X9281310Y-16489514D02*
X9290834Y-16508562D01*
X9290834Y-16508562D02*
X9290834Y-16527609D01*
X9290834Y-16527609D02*
X9195596Y-16546657D01*
X9367024Y-16603800D02*
X9386072Y-16613324D01*
X9386072Y-16613324D02*
X9424167Y-16613324D01*
X9424167Y-16613324D02*
X9443215Y-16603800D01*
X9443215Y-16603800D02*
X9452739Y-16584752D01*
X9452739Y-16584752D02*
X9452739Y-16575228D01*
X9452739Y-16575228D02*
X9443215Y-16556181D01*
X9443215Y-16556181D02*
X9424167Y-16546657D01*
X9424167Y-16546657D02*
X9395596Y-16546657D01*
X9395596Y-16546657D02*
X9376548Y-16537133D01*
X9376548Y-16537133D02*
X9367024Y-16518086D01*
X9367024Y-16518086D02*
X9367024Y-16508562D01*
X9367024Y-16508562D02*
X9376548Y-16489514D01*
X9376548Y-16489514D02*
X9395596Y-16479990D01*
X9395596Y-16479990D02*
X9424167Y-16479990D01*
X9424167Y-16479990D02*
X9443215Y-16489514D01*
X9519405Y-16689514D02*
X9528929Y-16679990D01*
X9528929Y-16679990D02*
X9547977Y-16651419D01*
X9547977Y-16651419D02*
X9557500Y-16632371D01*
X9557500Y-16632371D02*
X9567024Y-16603800D01*
X9567024Y-16603800D02*
X9576548Y-16556181D01*
X9576548Y-16556181D02*
X9576548Y-16518086D01*
X9576548Y-16518086D02*
X9567024Y-16470467D01*
X9567024Y-16470467D02*
X9557500Y-16441895D01*
X9557500Y-16441895D02*
X9547977Y-16422848D01*
X9547977Y-16422848D02*
X9528929Y-16394276D01*
X9528929Y-16394276D02*
X9519405Y-16384752D01*
M02*
