M48
; DRILL file {KiCad 7.0.2} date Mon Jul 17 11:55:53 2023
; FORMAT={-:-/ absolute / metric / decimal}
; #@! TF.CreationDate,2023-07-17T11:55:53+02:00
; #@! TF.GenerationSoftware,Kicad,Pcbnew,7.0.2
; #@! TF.FileFunction,Plated,1,2,PTH
FMAT,2
METRIC
; #@! TA.AperFunction,Plated,PTH,ViaDrill
T1C0.500
; #@! TA.AperFunction,Plated,PTH,ComponentDrill
T2C0.800
; #@! TA.AperFunction,Plated,PTH,ComponentDrill
T3C1.000
; #@! TA.AperFunction,Plated,PTH,ComponentDrill
T4C1.200
; #@! TA.AperFunction,Plated,PTH,ComponentDrill
T5C1.600
; #@! TA.AperFunction,Plated,PTH,ComponentDrill
T6C1.700
; #@! TA.AperFunction,Plated,PTH,ComponentDrill
T7C1.800
; #@! TA.AperFunction,Plated,PTH,ComponentDrill
T8C2.000
; #@! TA.AperFunction,Plated,PTH,ComponentDrill
T9C4.000
%
G90
G05
T1
X111.76Y-132.08
X119.38Y-132.08
X127.0Y-132.08
X134.62Y-132.08
X142.24Y-124.46
X144.78Y-121.92
X144.78Y-127.0
X147.32Y-129.54
X149.86Y-106.68
X153.67Y-120.65
X154.94Y-129.54
X157.48Y-106.68
X157.48Y-110.49
X157.48Y-114.3
X157.48Y-120.65
X175.26Y-104.14
X182.88Y-104.14
X190.5Y-104.14
X198.12Y-104.14
X205.74Y-104.14
X213.36Y-104.14
X215.9Y-116.84
X215.9Y-121.92
X215.9Y-127.0
X220.98Y-104.14
X231.14Y-104.14
X231.14Y-121.92
T2
X150.495Y-113.438
X150.495Y-116.938
X178.435Y-109.22
X178.435Y-112.72
X180.98Y-91.858
X180.98Y-99.478
X183.52Y-91.858
X183.52Y-99.478
T3
X155.635Y-55.018
X155.695Y-89.308
X163.135Y-55.018
X163.195Y-89.308
X224.79Y-106.68
X224.79Y-109.22
X224.79Y-111.76
X224.79Y-114.3
X224.79Y-116.84
X227.33Y-106.68
X227.33Y-109.22
X227.33Y-111.76
X227.33Y-114.3
X227.33Y-116.84
T4
X74.93Y-61.368
X74.93Y-83.868
X118.745Y-61.548
X118.745Y-84.048
X159.385Y-61.368
X159.385Y-83.868
X200.66Y-57.558
X200.66Y-85.058
T5
X64.77Y-112.903
X64.77Y-119.253
X76.2Y-112.776
X76.2Y-119.126
X86.868Y-107.442
X86.868Y-112.522
X114.808Y-115.062
X114.808Y-120.142
X114.808Y-125.222
X125.222Y-112.776
X125.222Y-119.126
X137.16Y-112.776
X137.16Y-119.126
X168.275Y-65.405
X168.275Y-70.485
X168.275Y-75.565
X168.275Y-80.645
X203.2Y-125.73
X209.55Y-125.73
T6
X56.515Y-98.65
X56.515Y-105.41
X56.515Y-115.0
X56.515Y-121.76
T7
X58.42Y-64.77
X58.42Y-72.39
X58.42Y-80.01
X184.15Y-125.222
X191.77Y-125.222
T8
X86.995Y-63.654
X86.995Y-81.688
X88.773Y-55.018
X88.773Y-90.578
X108.839Y-55.018
X108.839Y-90.578
X110.109Y-63.654
X110.109Y-81.688
X127.635Y-63.908
X127.635Y-81.942
X129.413Y-55.272
X129.413Y-90.832
X149.479Y-55.272
X149.479Y-90.832
X150.749Y-63.908
X150.749Y-81.942
T9
X222.25Y-62.23
X222.25Y-80.01
T0
M30
