M48
; DRILL file {KiCad 7.0.2} date Mon Jul 17 11:41:50 2023
; FORMAT={-:-/ absolute / metric / decimal}
; #@! TF.CreationDate,2023-07-17T11:41:50+02:00
; #@! TF.GenerationSoftware,Kicad,Pcbnew,7.0.2
; #@! TF.FileFunction,Plated,1,2,PTH
FMAT,2
METRIC
; #@! TA.AperFunction,Plated,PTH,ViaDrill
T1C0.500
; #@! TA.AperFunction,Plated,PTH,ComponentDrill
T2C0.800
; #@! TA.AperFunction,Plated,PTH,ComponentDrill
T3C0.900
; #@! TA.AperFunction,Plated,PTH,ComponentDrill
T4C1.000
; #@! TA.AperFunction,Plated,PTH,ComponentDrill
T5C1.020
; #@! TA.AperFunction,Plated,PTH,ComponentDrill
T6C1.200
; #@! TA.AperFunction,Plated,PTH,ComponentDrill
T7C1.500
; #@! TA.AperFunction,Plated,PTH,ComponentDrill
T8C2.000
%
G90
G05
T1
X43.18Y-86.36
X43.18Y-91.44
X43.18Y-96.52
X43.18Y-102.87
X43.18Y-109.22
X43.18Y-115.57
X43.18Y-121.92
X43.18Y-128.27
X43.18Y-134.62
X43.18Y-140.97
X45.72Y-143.51
X50.8Y-96.52
X50.8Y-100.33
X52.07Y-92.71
X52.07Y-105.41
X52.07Y-134.62
X52.07Y-143.51
X53.34Y-118.618
X53.34Y-124.46
X54.61Y-86.36
X54.61Y-95.25
X54.61Y-101.6
X56.388Y-116.586
X56.642Y-108.204
X56.642Y-113.792
X57.15Y-97.79
X58.42Y-143.51
X60.452Y-116.586
X60.96Y-86.36
X60.96Y-101.6
X60.96Y-106.68
X63.5Y-121.92
X64.77Y-143.51
X66.04Y-101.6
X66.04Y-106.68
X66.356Y-116.333
X66.726Y-136.38
X67.31Y-86.36
X68.58Y-121.92
X71.12Y-101.6
X71.12Y-106.68
X71.12Y-143.51
X73.346Y-116.398
X73.406Y-110.744
X73.66Y-86.36
X73.66Y-121.92
X74.93Y-129.54
X74.93Y-134.62
X76.962Y-109.474
X77.47Y-143.51
X80.01Y-86.36
X80.01Y-125.73
X80.01Y-132.08
X81.28Y-96.52
X81.28Y-101.6
X81.28Y-112.014
X81.28Y-139.7
X83.82Y-143.51
X86.106Y-111.506
X86.36Y-86.36
X86.36Y-96.52
X86.36Y-101.6
X90.17Y-143.51
X92.71Y-86.36
X93.609Y-113.132
X93.726Y-111.252
X94.923Y-99.705
X95.758Y-110.49
X96.52Y-143.51
X96.688Y-108.639
X97.79Y-113.03
X99.06Y-86.36
X100.33Y-115.57
X100.33Y-139.7
X102.108Y-111.76
X102.108Y-114.3
X102.732Y-100.954
X102.87Y-88.9
X102.87Y-143.51
X103.225Y-97.296
X103.427Y-109.008
X104.902Y-117.094
X105.41Y-121.92
X105.41Y-127.0
X105.41Y-132.08
X105.78Y-99.822
X106.68Y-139.7
X107.053Y-118.737
X107.95Y-91.44
X109.22Y-143.51
X110.236Y-110.49
X110.49Y-121.92
X110.49Y-127.0
X110.49Y-132.08
X110.715Y-100.316
X110.856Y-105.427
X110.914Y-108.543
X111.506Y-129.54
X113.03Y-138.43
X114.3Y-60.96
X114.3Y-63.5
X114.3Y-66.04
X114.3Y-68.58
X114.3Y-71.12
X114.3Y-73.66
X114.3Y-76.2
X114.3Y-78.74
X114.3Y-81.28
X114.3Y-83.82
X114.3Y-91.44
X115.57Y-127.0
X115.57Y-132.08
X115.57Y-143.51
X116.078Y-116.84
X116.078Y-118.364
X120.65Y-103.378
X121.629Y-124.873
X121.92Y-106.68
X121.92Y-110.49
X121.92Y-143.51
X123.952Y-132.842
X124.126Y-127.515
X125.345Y-120.228
X125.73Y-63.5
X125.73Y-66.04
X125.73Y-68.58
X125.73Y-71.12
X125.73Y-73.66
X125.73Y-76.2
X125.73Y-78.74
X125.73Y-81.28
X125.73Y-83.82
X125.73Y-106.68
X125.73Y-110.49
X127.0Y-91.44
X127.0Y-129.54
X127.711Y-122.254
X128.27Y-143.51
X129.54Y-106.68
X134.62Y-91.44
X134.62Y-143.51
X135.89Y-103.378
X136.064Y-116.518
X136.488Y-124.28
X136.906Y-112.014
X137.16Y-138.43
X138.379Y-116.506
X139.192Y-91.948
X139.7Y-83.82
X140.97Y-143.51
X143.51Y-83.82
X143.51Y-138.43
X143.764Y-104.394
X144.78Y-91.948
X146.508Y-114.939
X147.066Y-91.831
X147.32Y-143.51
X148.336Y-114.3
X149.86Y-121.666
X149.86Y-138.43
X150.622Y-102.616
X151.043Y-93.312
X152.4Y-86.36
X153.67Y-143.51
X156.21Y-102.616
X160.02Y-143.51
X161.29Y-87.63
X161.29Y-95.25
X161.29Y-101.6
X161.29Y-107.95
X161.29Y-114.3
X161.29Y-120.65
X161.29Y-127.0
X161.29Y-133.35
X165.1Y-85.09
X165.1Y-91.44
X165.1Y-97.79
X165.1Y-104.14
X165.1Y-110.49
X165.1Y-116.84
X165.1Y-123.19
X165.1Y-129.54
X165.1Y-135.89
X165.1Y-142.24
T2
X46.99Y-85.344
X46.99Y-95.504
X62.23Y-89.605
X62.23Y-94.605
X78.232Y-89.605
X78.232Y-94.605
X84.622Y-68.072
X89.622Y-68.072
X92.075Y-100.765
X96.955Y-100.765
X116.586Y-93.98
X116.586Y-98.98
X119.126Y-120.142
X119.126Y-127.762
X121.666Y-120.142
X121.666Y-127.762
X129.54Y-93.923
X129.54Y-98.923
X153.416Y-78.232
X153.67Y-93.78
X153.67Y-96.32
X153.67Y-98.86
X153.67Y-104.655
X153.67Y-109.655
X153.67Y-123.07
X153.67Y-128.07
X155.956Y-78.232
X158.496Y-78.232
T3
X71.755Y-138.43
X71.755Y-140.97
T4
X45.72Y-102.87
X45.72Y-105.41
X45.72Y-107.95
X45.72Y-110.49
X45.72Y-113.03
X48.26Y-102.87
X48.26Y-105.41
X48.26Y-107.95
X48.26Y-110.49
X48.26Y-113.03
X65.019Y-125.222
X67.559Y-125.222
X86.36Y-137.595
X86.36Y-140.135
X88.9Y-137.595
X88.9Y-140.135
X91.44Y-137.595
X91.44Y-140.135
X93.98Y-137.595
X93.98Y-140.135
X96.52Y-137.595
X96.52Y-140.135
X116.332Y-87.884
X118.745Y-137.595
X118.745Y-140.135
X121.285Y-137.595
X121.285Y-140.135
X123.825Y-137.595
X123.825Y-140.135
X126.365Y-137.595
X126.365Y-140.135
X128.905Y-137.595
X128.905Y-140.135
X146.812Y-83.312
X158.75Y-83.312
T5
X47.752Y-123.698
X47.752Y-126.238
X47.752Y-128.778
X57.785Y-138.43
X60.325Y-138.43
X62.865Y-138.43
X75.946Y-101.6
X75.946Y-104.14
X75.946Y-106.68
T6
X71.12Y-46.99
X71.12Y-67.31
X79.375Y-46.99
X79.375Y-67.31
X111.76Y-33.04
X111.76Y-60.54
X128.27Y-33.04
X128.27Y-60.54
T7
X75.105Y-51.7
X75.105Y-57.15
X75.105Y-62.6
T8
X65.024Y-47.081
X65.024Y-57.24
X65.024Y-67.4
X78.74Y-35.36
X96.52Y-35.36
X109.855Y-71.755
X130.175Y-71.755
X142.049Y-51.87
X142.049Y-62.03
T0
M30
