G04 #@! TF.GenerationSoftware,KiCad,Pcbnew,7.0.2*
G04 #@! TF.CreationDate,2023-07-17T11:38:03+02:00*
G04 #@! TF.ProjectId,Module_2,4d6f6475-6c65-45f3-922e-6b696361645f,rev?*
G04 #@! TF.SameCoordinates,Original*
G04 #@! TF.FileFunction,Paste,Bot*
G04 #@! TF.FilePolarity,Positive*
%FSLAX46Y46*%
G04 Gerber Fmt 4.6, Leading zero omitted, Abs format (unit mm)*
G04 Created by KiCad (PCBNEW 7.0.2) date 2023-07-17 11:38:03*
%MOMM*%
%LPD*%
G01*
G04 APERTURE LIST*
G04 Aperture macros list*
%AMRoundRect*
0 Rectangle with rounded corners*
0 $1 Rounding radius*
0 $2 $3 $4 $5 $6 $7 $8 $9 X,Y pos of 4 corners*
0 Add a 4 corners polygon primitive as box body*
4,1,4,$2,$3,$4,$5,$6,$7,$8,$9,$2,$3,0*
0 Add four circle primitives for the rounded corners*
1,1,$1+$1,$2,$3*
1,1,$1+$1,$4,$5*
1,1,$1+$1,$6,$7*
1,1,$1+$1,$8,$9*
0 Add four rect primitives between the rounded corners*
20,1,$1+$1,$2,$3,$4,$5,0*
20,1,$1+$1,$4,$5,$6,$7,0*
20,1,$1+$1,$6,$7,$8,$9,0*
20,1,$1+$1,$8,$9,$2,$3,0*%
G04 Aperture macros list end*
%ADD10RoundRect,0.250000X-0.312500X-0.625000X0.312500X-0.625000X0.312500X0.625000X-0.312500X0.625000X0*%
%ADD11RoundRect,0.150000X-0.150000X0.587500X-0.150000X-0.587500X0.150000X-0.587500X0.150000X0.587500X0*%
%ADD12RoundRect,0.250001X-1.262499X-1.974999X1.262499X-1.974999X1.262499X1.974999X-1.262499X1.974999X0*%
%ADD13R,4.500000X1.750000*%
%ADD14RoundRect,0.250000X0.325000X0.650000X-0.325000X0.650000X-0.325000X-0.650000X0.325000X-0.650000X0*%
%ADD15RoundRect,0.250000X-0.625000X0.312500X-0.625000X-0.312500X0.625000X-0.312500X0.625000X0.312500X0*%
%ADD16RoundRect,0.250000X-0.400000X-0.600000X0.400000X-0.600000X0.400000X0.600000X-0.400000X0.600000X0*%
%ADD17RoundRect,0.250000X0.650000X-0.325000X0.650000X0.325000X-0.650000X0.325000X-0.650000X-0.325000X0*%
%ADD18RoundRect,0.250000X-0.650000X0.325000X-0.650000X-0.325000X0.650000X-0.325000X0.650000X0.325000X0*%
%ADD19RoundRect,0.250000X-0.325000X-0.650000X0.325000X-0.650000X0.325000X0.650000X-0.325000X0.650000X0*%
%ADD20RoundRect,0.250000X0.275000X0.700000X-0.275000X0.700000X-0.275000X-0.700000X0.275000X-0.700000X0*%
%ADD21RoundRect,0.250000X0.312500X0.625000X-0.312500X0.625000X-0.312500X-0.625000X0.312500X-0.625000X0*%
%ADD22RoundRect,0.250000X0.625000X-0.312500X0.625000X0.312500X-0.625000X0.312500X-0.625000X-0.312500X0*%
%ADD23RoundRect,0.125000X-0.125000X0.625000X-0.125000X-0.625000X0.125000X-0.625000X0.125000X0.625000X0*%
%ADD24RoundRect,0.125000X-0.625000X0.125000X-0.625000X-0.125000X0.625000X-0.125000X0.625000X0.125000X0*%
%ADD25RoundRect,0.150000X-0.150000X0.725000X-0.150000X-0.725000X0.150000X-0.725000X0.150000X0.725000X0*%
%ADD26RoundRect,0.250000X-0.925000X0.412500X-0.925000X-0.412500X0.925000X-0.412500X0.925000X0.412500X0*%
%ADD27RoundRect,0.150000X-0.150000X0.825000X-0.150000X-0.825000X0.150000X-0.825000X0.150000X0.825000X0*%
%ADD28RoundRect,0.250000X-0.600000X0.400000X-0.600000X-0.400000X0.600000X-0.400000X0.600000X0.400000X0*%
%ADD29RoundRect,0.250000X0.400000X0.600000X-0.400000X0.600000X-0.400000X-0.600000X0.400000X-0.600000X0*%
G04 APERTURE END LIST*
D10*
X144742500Y-130610000D03*
X147667500Y-130610000D03*
D11*
X88270000Y-129340000D03*
X90170000Y-129340000D03*
X89220000Y-131215000D03*
D12*
X117403000Y-61722000D03*
X122428000Y-61722000D03*
D13*
X46990000Y-92658000D03*
X46990000Y-89408000D03*
D14*
X146890000Y-109655000D03*
X143940000Y-109655000D03*
D10*
X150265000Y-116005000D03*
X153190000Y-116005000D03*
D15*
X53975000Y-109220000D03*
X53975000Y-112145000D03*
D10*
X93152500Y-125530000D03*
X96077500Y-125530000D03*
X120396000Y-89916000D03*
X123321000Y-89916000D03*
D16*
X141280000Y-126800000D03*
X144780000Y-126800000D03*
D15*
X52832000Y-126238000D03*
X52832000Y-129163000D03*
D17*
X148590000Y-96525000D03*
X148590000Y-93575000D03*
D18*
X126492000Y-124316500D03*
X126492000Y-127266500D03*
D19*
X138782000Y-89916000D03*
X141732000Y-89916000D03*
D16*
X149977500Y-119380000D03*
X153477500Y-119380000D03*
D11*
X92710000Y-129340000D03*
X94610000Y-129340000D03*
X93660000Y-131215000D03*
D17*
X134620000Y-120855000D03*
X134620000Y-117905000D03*
X138392500Y-121925000D03*
X138392500Y-118975000D03*
D20*
X108890000Y-102489000D03*
X105740000Y-102489000D03*
D15*
X56388000Y-127508000D03*
X56388000Y-130433000D03*
X59944000Y-127508000D03*
X59944000Y-130433000D03*
D21*
X117032500Y-109220000D03*
X114107500Y-109220000D03*
D22*
X134620000Y-126992500D03*
X134620000Y-124067500D03*
D21*
X160151000Y-72825000D03*
X157226000Y-72825000D03*
D10*
X82992500Y-125530000D03*
X85917500Y-125530000D03*
D12*
X117403000Y-71882000D03*
X122428000Y-71882000D03*
X117375500Y-66802000D03*
X122400500Y-66802000D03*
D15*
X105410000Y-105471500D03*
X105410000Y-108396500D03*
D21*
X148782500Y-102670000D03*
X145857500Y-102670000D03*
D15*
X77470000Y-119822500D03*
X77470000Y-122747500D03*
D11*
X84455000Y-129340000D03*
X86355000Y-129340000D03*
X85405000Y-131215000D03*
D10*
X64805000Y-128705000D03*
X67730000Y-128705000D03*
D22*
X100330000Y-132265000D03*
X100330000Y-129340000D03*
D23*
X92815000Y-106680000D03*
X93615000Y-106680000D03*
X94415000Y-106680000D03*
X95215000Y-106680000D03*
X96015000Y-106680000D03*
X96815000Y-106680000D03*
X97615000Y-106680000D03*
X98415000Y-106680000D03*
D24*
X99790000Y-108055000D03*
X99790000Y-108855000D03*
X99790000Y-109655000D03*
X99790000Y-110455000D03*
X99790000Y-111255000D03*
X99790000Y-112055000D03*
X99790000Y-112855000D03*
X99790000Y-113655000D03*
D23*
X98415000Y-115030000D03*
X97615000Y-115030000D03*
X96815000Y-115030000D03*
X96015000Y-115030000D03*
X95215000Y-115030000D03*
X94415000Y-115030000D03*
X93615000Y-115030000D03*
X92815000Y-115030000D03*
D24*
X91440000Y-113655000D03*
X91440000Y-112855000D03*
X91440000Y-112055000D03*
X91440000Y-111255000D03*
X91440000Y-110455000D03*
X91440000Y-109655000D03*
X91440000Y-108855000D03*
X91440000Y-108055000D03*
D21*
X139257500Y-93780000D03*
X136332500Y-93780000D03*
D22*
X88265000Y-122740000D03*
X88265000Y-119815000D03*
D10*
X145222500Y-89916000D03*
X148147500Y-89916000D03*
D12*
X117375500Y-82242000D03*
X122400500Y-82242000D03*
D25*
X142202500Y-117910000D03*
X143472500Y-117910000D03*
X144742500Y-117910000D03*
X146012500Y-117910000D03*
X146012500Y-123060000D03*
X144742500Y-123060000D03*
X143472500Y-123060000D03*
X142202500Y-123060000D03*
D14*
X132490000Y-110236000D03*
X129540000Y-110236000D03*
D26*
X108458000Y-105456000D03*
X108458000Y-108531000D03*
D21*
X146877500Y-106480000D03*
X143952500Y-106480000D03*
X93980000Y-97590000D03*
X91055000Y-97590000D03*
D10*
X95942500Y-97590000D03*
X98867500Y-97590000D03*
D21*
X139892500Y-109655000D03*
X136967500Y-109655000D03*
D27*
X56300000Y-119815000D03*
X57570000Y-119815000D03*
X58840000Y-119815000D03*
X60110000Y-119815000D03*
X60110000Y-124765000D03*
X58840000Y-124765000D03*
X57570000Y-124765000D03*
X56300000Y-124765000D03*
D25*
X142240000Y-93710000D03*
X143510000Y-93710000D03*
X144780000Y-93710000D03*
X146050000Y-93710000D03*
X146050000Y-98860000D03*
X144780000Y-98860000D03*
X143510000Y-98860000D03*
X142240000Y-98860000D03*
D10*
X88072500Y-125530000D03*
X90997500Y-125530000D03*
D17*
X102362000Y-105820000D03*
X102362000Y-102870000D03*
D12*
X117375500Y-76962000D03*
X122400500Y-76962000D03*
D28*
X138392500Y-124260000D03*
X138392500Y-127760000D03*
D29*
X140180000Y-106480000D03*
X136680000Y-106480000D03*
D19*
X114095000Y-106045000D03*
X117045000Y-106045000D03*
D22*
X129032000Y-127254000D03*
X129032000Y-124329000D03*
X93345000Y-122740000D03*
X93345000Y-119815000D03*
D10*
X157226000Y-69535000D03*
X160151000Y-69535000D03*
D21*
X139257500Y-97790000D03*
X136332500Y-97790000D03*
X154563000Y-83312000D03*
X151638000Y-83312000D03*
D18*
X100330000Y-122990000D03*
X100330000Y-125940000D03*
D21*
X142587500Y-130610000D03*
X139662500Y-130610000D03*
D19*
X95475000Y-103940000D03*
X98425000Y-103940000D03*
D22*
X83185000Y-122740000D03*
X83185000Y-119815000D03*
D19*
X87376000Y-105410000D03*
X90326000Y-105410000D03*
M02*
