G04 #@! TF.GenerationSoftware,KiCad,Pcbnew,7.0.2*
G04 #@! TF.CreationDate,2023-10-15T13:01:48+02:00*
G04 #@! TF.ProjectId,Module_2,4d6f6475-6c65-45f3-922e-6b696361645f,rev?*
G04 #@! TF.SameCoordinates,Original*
G04 #@! TF.FileFunction,Soldermask,Top*
G04 #@! TF.FilePolarity,Negative*
%FSLAX46Y46*%
G04 Gerber Fmt 4.6, Leading zero omitted, Abs format (unit mm)*
G04 Created by KiCad (PCBNEW 7.0.2) date 2023-10-15 13:01:48*
%MOMM*%
%LPD*%
G01*
G04 APERTURE LIST*
G04 Aperture macros list*
%AMRoundRect*
0 Rectangle with rounded corners*
0 $1 Rounding radius*
0 $2 $3 $4 $5 $6 $7 $8 $9 X,Y pos of 4 corners*
0 Add a 4 corners polygon primitive as box body*
4,1,4,$2,$3,$4,$5,$6,$7,$8,$9,$2,$3,0*
0 Add four circle primitives for the rounded corners*
1,1,$1+$1,$2,$3*
1,1,$1+$1,$4,$5*
1,1,$1+$1,$6,$7*
1,1,$1+$1,$8,$9*
0 Add four rect primitives between the rounded corners*
20,1,$1+$1,$2,$3,$4,$5,0*
20,1,$1+$1,$4,$5,$6,$7,0*
20,1,$1+$1,$6,$7,$8,$9,0*
20,1,$1+$1,$8,$9,$2,$3,0*%
G04 Aperture macros list end*
%ADD10RoundRect,0.250000X-0.600000X-0.600000X0.600000X-0.600000X0.600000X0.600000X-0.600000X0.600000X0*%
%ADD11C,1.700000*%
%ADD12R,1.600000X1.600000*%
%ADD13C,1.600000*%
%ADD14C,2.400000*%
%ADD15O,2.400000X2.400000*%
%ADD16C,3.500000*%
%ADD17RoundRect,0.250000X0.600000X-0.600000X0.600000X0.600000X-0.600000X0.600000X-0.600000X-0.600000X0*%
%ADD18C,5.000000*%
%ADD19R,1.800000X1.800000*%
%ADD20C,1.800000*%
%ADD21R,1.730000X2.030000*%
%ADD22O,1.730000X2.030000*%
%ADD23C,2.000000*%
%ADD24C,1.500000*%
%ADD25O,1.600000X1.600000*%
%ADD26R,2.030000X1.730000*%
%ADD27O,2.030000X1.730000*%
%ADD28R,1.700000X1.700000*%
%ADD29O,1.700000X1.700000*%
%ADD30C,1.440000*%
%ADD31O,3.600000X3.600000*%
%ADD32R,4.500000X2.500000*%
%ADD33O,4.500000X2.500000*%
G04 APERTURE END LIST*
D10*
X45720000Y-102870000D03*
D11*
X48260000Y-102870000D03*
X45720000Y-105410000D03*
X48260000Y-105410000D03*
X45720000Y-107950000D03*
X48260000Y-107950000D03*
X45720000Y-110490000D03*
X48260000Y-110490000D03*
X45720000Y-113030000D03*
X48260000Y-113030000D03*
D12*
X62230000Y-94604651D03*
D13*
X62230000Y-89604651D03*
D12*
X116586000Y-98980000D03*
D13*
X116586000Y-93980000D03*
D14*
X71120000Y-46990000D03*
D15*
X71120000Y-67310000D03*
D16*
X136906000Y-38608000D03*
D12*
X78232000Y-94604651D03*
D13*
X78232000Y-89604651D03*
D17*
X118745000Y-140135000D03*
D11*
X118745000Y-137595000D03*
X121285000Y-140135000D03*
X121285000Y-137595000D03*
X123825000Y-140135000D03*
X123825000Y-137595000D03*
X126365000Y-140135000D03*
X126365000Y-137595000D03*
X128905000Y-140135000D03*
X128905000Y-137595000D03*
D17*
X86360000Y-140135000D03*
D11*
X86360000Y-137595000D03*
X88900000Y-140135000D03*
X88900000Y-137595000D03*
X91440000Y-140135000D03*
X91440000Y-137595000D03*
X93980000Y-140135000D03*
X93980000Y-137595000D03*
X96520000Y-140135000D03*
X96520000Y-137595000D03*
D12*
X153670000Y-104655000D03*
D13*
X153670000Y-109655000D03*
D16*
X160401000Y-74422000D03*
D18*
X144145000Y-79502000D03*
X144145000Y-69342000D03*
D19*
X71755000Y-138430000D03*
D20*
X71755000Y-140970000D03*
D21*
X57785000Y-138430000D03*
D22*
X60325000Y-138430000D03*
X62865000Y-138430000D03*
D23*
X158496000Y-61214000D03*
D16*
X48641000Y-52160500D03*
X48641000Y-62320500D03*
D18*
X65024000Y-47080500D03*
X65024000Y-57240500D03*
X65024000Y-67400500D03*
D16*
X158750000Y-35560000D03*
X116840000Y-38608000D03*
D24*
X92075000Y-100765000D03*
X96955000Y-100765000D03*
D14*
X79375000Y-46990000D03*
D15*
X79375000Y-67310000D03*
D12*
X119126000Y-127762000D03*
D25*
X121666000Y-127762000D03*
X121666000Y-120142000D03*
X119126000Y-120142000D03*
D14*
X135670000Y-67310000D03*
X108170000Y-67310000D03*
D23*
X116332000Y-87884000D03*
D13*
X46990000Y-95504000D03*
D25*
X46990000Y-85344000D03*
D13*
X84622000Y-68072000D03*
X94622000Y-68072000D03*
D16*
X158750000Y-139065000D03*
D18*
X108458000Y-50800000D03*
D14*
X99060000Y-38100000D03*
X71560000Y-38100000D03*
D26*
X47752000Y-123698000D03*
D27*
X47752000Y-126238000D03*
X47752000Y-128778000D03*
D28*
X65019000Y-125222000D03*
D29*
X67559000Y-125222000D03*
D26*
X75946000Y-101600000D03*
D27*
X75946000Y-104140000D03*
X75946000Y-106680000D03*
D16*
X47625000Y-139065000D03*
D23*
X156972000Y-87630000D03*
D18*
X146050000Y-50800000D03*
D30*
X157734000Y-49784000D03*
X157734000Y-52324000D03*
X157734000Y-54864000D03*
D12*
X129540000Y-98922651D03*
D13*
X129540000Y-93922651D03*
D16*
X47625000Y-35560000D03*
D12*
X153670000Y-123070000D03*
D13*
X153670000Y-128070000D03*
D30*
X153670000Y-93780000D03*
X153670000Y-96320000D03*
X153670000Y-98860000D03*
D31*
X94965000Y-57150000D03*
D32*
X75105000Y-51700000D03*
D33*
X75105000Y-57150000D03*
X75105000Y-62600000D03*
M02*
